<?xml version="1.0" encoding="utf-8"?>
<!-- Generator: Adobe Illustrator 27.1.0, SVG Export Plug-In . SVG Version: 6.00 Build 0)  -->
<svg version="1.1" id="Layer_1" xmlns="http://www.w3.org/2000/svg" xmlns:xlink="http://www.w3.org/1999/xlink" x="0px" y="0px"
	 viewBox="0 0 7505.5 5539.4" style="enable-background:new 0 0 7505.5 5539.4;" xml:space="preserve">
<style type="text/css">
	.st0{font-family:'ArialMT';}
	.st1{font-size:124px;}
	.st2{font-size:200px;}
	.st3{fill:none;stroke:#000000;stroke-width:20;stroke-miterlimit:10;}
	.st4{fill:#0B0BF9;stroke:#FFFFFF;stroke-miterlimit:10;}
	.st5{fill:#F9F912;stroke:#FFFFFF;stroke-miterlimit:10;}
	.st6{fill:#F70D34;stroke:#FFFFFF;stroke-miterlimit:10;}
	.st7{fill:#8800FF;}
	.st8{font-size:140px;}
	.st9{fill:#7400EF;}
	.st10{fill:#7F00EF;}
	.st11{fill:#8703EF;}
	.st12{font-size:150px;}
	.st13{fill:#F3F900;stroke:#FFFFFF;stroke-miterlimit:10;}
</style>
<text transform="matrix(1 0 0 1 6334.582 2325.7136)" class="st0 st1">Rosario</text>
<text transform="matrix(1 0 0 1 3960.0012 1767.0222)" class="st0 st1">Santa Ana</text>
<text transform="matrix(1 0 0 1 5506.8735 3933.6846)" class="st0 st1">Natumolan</text>
<text transform="matrix(1 0 0 1 3492.9155 1560.3101)" class="st0 st1">Mohon</text>
<text transform="matrix(1 0 0 1 2133.7339 1143.0752)" class="st0 st1">Santa Cruz</text>
<text transform="matrix(1 0 0 1 255.6785 1843.9922)" class="st0 st1">Baluarte</text>
<text transform="matrix(1 0 0 1 406.5927 2536.9895)" class="st0 st1">Gracia</text>
<text transform="matrix(1 0 0 1 497.666 2949.3594)" class="st0 st1">Sugbongcogon</text>
<text transform="matrix(1 0 0 1 1948.3046 3543.2576)" class="st0 st1">Casinglot</text>
<text transform="matrix(1 0 0 1 755.0583 998.5303)" class="st0 st1">Poblacion</text>
<text transform="matrix(1 0 0 1 265.1008 387.5991)" class="st0 st2">Tagoloan</text>
<line class="st3" x1="1021.9" y1="1058.1" x2="1523.5" y2="1869.3"/>
<circle class="st4" cx="450.1" cy="4398.8" r="129.8"/>
<circle class="st5" cx="450.1" cy="4761.4" r="129.8"/>
<circle class="st6" cx="450.1" cy="5124" r="129.8"/>
<text transform="matrix(1 0 0 1 662.7948 4423.7554)" class="st7 st0 st8">MULTI-PURPOSE BUILDINGS</text>
<text transform="matrix(1 0 0 1 670.9143 4804.0039)" class="st9 st0 st8">ROADS</text>
<text transform="matrix(1 0 0 1 681.9733 5166.6094)" class="st10 st0 st8">BRIDGES</text>
<text transform="matrix(1 0 0 1 320.3445 4111.1514)" class="st11 st0 st12">PROJECT EXISTENCE INDICATOR</text>
<ellipse class="st13" cx="1075.4" cy="1705" rx="62.1" ry="60.7"/>
<ellipse class="st13" cx="1952.8" cy="2857.8" rx="62.1" ry="60.7"/>
<ellipse class="st13" cx="4343.6" cy="3543.3" rx="62.1" ry="60.7"/>
<ellipse class="st4" cx="1536.2" cy="1952.1" rx="62.1" ry="60.7"/>
<ellipse class="st13" cx="5549" cy="1911.8" rx="62.1" ry="60.7"/>
<ellipse class="st13" cx="2430.5" cy="1682.1" rx="62.1" ry="60.7"/>
<ellipse class="st13" cx="4202.4" cy="2386.4" rx="62.1" ry="60.7"/>
<ellipse class="st4" cx="1443.4" cy="2666.7" rx="62.1" ry="60.7"/>
</svg>
