<?xml version="1.0" encoding="utf-8"?>
<!-- Generator: Adobe Illustrator 27.1.0, SVG Export Plug-In . SVG Version: 6.00 Build 0)  -->
<svg version="1.1" id="MisOr" xmlns="http://www.w3.org/2000/svg" xmlns:xlink="http://www.w3.org/1999/xlink" x="0px" y="0px"
	 viewBox="0 0 8192 6912" style="enable-background:new 0 0 8192 6912;" xml:space="preserve">
<style type="text/css">
	.st0{font-family:'MyriadPro-Regular';}
	.st1{font-size:106.9548px;}
	.st2{font-size:112.8515px;}
	.st3{font-size:122.6163px;}
	.st4{font-size:127.2497px;}
	.st5{font-size:118.2494px;}
	.st6{font-size:118.2496px;}
	.st7{font-size:133.2896px;}
	.st8{font-size:127.4158px;}
	.st9{font-size:125.3262px;}
	.st10{font-size:109.3374px;}
	.st11{font-size:109.9995px;}
	.st12{font-size:99.6127px;}
	.st13{font-size:118.1875px;}
	.st14{font-size:105.167px;}
	.st15{font-size:136.1798px;}
	.st16{font-size:134.7833px;}
	.st17{font-size:104.04px;}
	.st18{font-size:110.7493px;}
	.st19{font-size:96.767px;}
	.st20{font-size:81.2744px;}
	.st21{font-size:78.9572px;}
	.st22{font-size:71.9549px;}
	.st23{font-size:89.1335px;}
	.st24{font-size:88.6386px;}
	.st25{font-size:77.417px;}
	.st26{font-size:96.8966px;}
</style>
<g id="DEO2nd" transform="translate(0.000000,6912.000000) scale(0.100000,-0.100000)">
	<path id="Jasaan" d="M39384.2,35729.1c-28.4-32.2-99.6-142.2-110.9-174.5c-6.6-18-16.1-40.8-20.9-51.2
		c-40.8-97.7-38.9-76.8-48.4-531c-8.5-476-0.9-1317.9,12.3-1343.5c4.7-8.5,8.5-51.2,8.5-94.8c0-76.8,9.5-225.7,29.4-439
		c4.7-56.9,10.4-125.2,12.3-151.7c4.7-78.7,16.1-148.9,35.1-207.6c10.4-31.3,18-68.3,18-82.5s4.7-29.4,9.5-32.2
		c5.7-2.8,9.5-18,9.5-32.2c0-14.2,3.8-38.9,8.5-54c4.7-15.2,12.3-48.4,18-74.9c55-257.9,65.4-292,104.3-336.6
		c57.8-68.3,82.5-75.9,269.3-77.8c148.9-0.9,168.8,0.9,216.2,19c28.4,11.4,59.7,20.9,69.2,20.9c10.4,0,30.3,9.5,46.5,19.9
		c25.6,19,33.2,19.9,75.9,9.5c25.6-5.7,60.7-10.4,76.8-10.4c25.6,0,43.6-13.3,111.9-82.5c102.4-106.2,122.3-147.9,141.3-296.8
		c3.8-34.1,13.3-93.9,19.9-132.7c16.1-89.1,16.1-486.4-0.9-711.1c-6.6-86.3-13.3-360.3-15.2-610.6l-3.8-453.2l44.6-43.6
		c25.6-23.7,84.4-71.1,130.8-105.2c53.1-39.8,86.3-70.2,88.2-82.5c1.9-11.4,13.3-30.3,25.6-41.7c22.8-21.8,24.7-21.8,120.4-10.4
		c54,6.6,128,19,164,26.5c42.7,9.5,160.2,17.1,327.1,21.8c487.4,14.2,791.7,28.4,924.4,43.6c73,8.5,165,19,203.9,23.7
		c38.9,3.8,149.8,7.6,246.5,8.5c96.7,0,226.6,4.7,289.2,10.4c62.6,4.7,218.1,13.3,346.1,19c255.1,10.4,382.1,19.9,469.3,36
		c31.3,5.7,140.3,14.2,241.8,19.9c101.4,5.7,223.8,14.2,270.2,19c47.4,3.8,133.7,11.4,192.5,15.2c117.6,7.6,134.6,15.2,134.6,61.6
		c0,22.8-18,47.4-93.9,126.1c-51.2,54-109,112.8-128,128.9c-51.2,45.5-281.6,399.2-422.9,648.5c-13.3,22.8-41.7,64.5-63.5,91
		c-22.8,27.5-40.8,54-40.8,58.8c0,5.7-16.1,28.4-35.1,50.3c-38.9,44.6-62.6,75.9-156.4,214.3c-34.1,49.3-83.4,119.5-109,156.4
		c-26.6,36-56.9,83.4-68.3,105.2c-26.5,54-53.1,91-118.5,168.8c-30.3,37-99.6,139.4-152.7,227.6c-110.9,183-147.9,238.9-191.5,288.2
		c-16.1,19-33.2,47.4-37,62.6c-3.8,16.1-12.3,35.1-19,42.7c-48.4,55.9-68.3,219-59.7,478.8c3.8,110,2.8,218.1-0.9,241.8
		c-4.7,23.7-10.4,117.6-14.2,208.6c-2.8,91-9.5,213.3-14.2,270.2c-4.7,57.8-13.3,187.7-19,289.2c-5.7,101.4-14.2,223.8-19,270.2
		c-4.7,47.4-13.3,204.8-19,350.8c-5.7,146-19.9,348.9-30.3,450.4c-11.4,101.5-21.8,230.4-23.7,287.3c-2.8,55.9-7.6,101.5-12.3,101.5
		c-6.6,0-14.2,72.1-23.7,208.6c-5.7,83.4-18,144.1-31.3,158.3c-13.3,12.3-35.1,13.3-162.1,8.5c-123.3-5.7-169.7-3.8-275.9,12.3
		c-70.2,10.4-179.2,21.8-241.8,24.7c-108.1,5.7-162.1,11.4-327.1,34.1c-71.1,10.4-245.6,19-744.3,37c-146,4.7-314.8,15.2-374.5,23.7
		c-59.7,7.6-243.7,19.9-407.7,28.4c-164,7.6-360.3,19.9-436.1,28.4c-75.9,7.6-202,16.1-279.7,19
		C39412.6,35746.1,39398.4,35745.2,39384.2,35729.1z"/>
	<path id="Claveria" d="M48246.5,46448.8c-140.3-3.8-672.2-6.6-1181.4-5.7c-799.3,1.9-928.2,0-942.5-12.3s-16.1-25.6-10.4-128
		c3.8-62.6,10.4-166.9,15.2-232.3c5.7-65.4,16.1-214.3,23.7-331.9c9.5-143.2,20.9-239.9,34.1-293.9c15.2-63.5,19-98.6,14.2-165
		c-2.8-54,0-110.9,8.5-156.4c9.5-51.2,13.3-140.3,12.3-304.4c-0.9-209.5,0.9-240.8,20.9-322.4c16.1-70.2,22.8-136.5,28.4-303.4
		c5.7-150.8,13.3-239.9,26.5-303.4c20.9-98.6,32.2-265.5,18-265.5c-5.7,0-6.6-17.1-2.8-39.8c3.8-22.8,10.4-128,16.1-235.1
		c9.5-204.8,19.9-330.9,36-440.9c5.7-36,14.2-145.1,19.9-240.8c5.7-95.8,12.3-178.3,16.1-183.9c2.8-5.7,9.5-80.6,13.3-166.9
		c11.4-251.3,35.1-527.2,55.9-655.2c29.4-183,37-276.9,46.5-568.9c7.6-242.7,10.4-275,28.4-315.7c19.9-45.5,48.4-154.5,72.1-272.1
		c17.1-86.3,75.9-306.3,99.6-374.5c11.4-31.3,28.4-92.9,38.9-137.5s31.3-121.4,46.5-170.7c48.4-165.9,74-260.7,85.3-322.4
		c13.3-73,51.2-231.3,97.7-407.7c19-70.2,45.5-170.7,58.8-222.8s28.4-98.6,33.2-103.3c5.7-5.7,9.5-24.7,9.5-43.6
		c0-18,7.6-44.6,17.1-56.9c8.5-13.3,38.9-109,66.4-213.3c26.6-104.3,56.9-217.1,67.3-251.3c9.5-34.1,26.5-94.8,37.9-135.6
		s37.9-119.5,57.8-173.5c20.9-54,37.9-111.9,37.9-127.1c0-16.1,8.5-46.5,19-66.4c21.8-42.7,66.4-218.1,66.4-260.7
		c0-15.2,21.8-109,47.4-208.6c64.5-244.6,74.9-284.4,95.8-350.8c9.5-31.3,27.5-106.2,40.8-165.9c13.3-59.7,42.7-185.8,65.4-279.7
		c36-147.9,73-309.1,102.4-445.6c3.8-20.9,7.6-56.9,7.6-80.6c0.9-23.7,11.4-89.1,23.7-147c12.3-56.9,27.5-140.3,34.1-184.9
		c21.8-166.9,27.5-199.1,37.9-217.1c4.7-10.4,9.5-35.1,9.5-55c0.9-50.3,17.1-118.5,34.1-136.5c26.6-28.4,7.6-62.6-41.7-77.7
		c-165.9-51.2-220.9-66.4-338.5-92c-73-17.1-173.5-39.8-222.8-52.1c-84.4-21.8-305.3-55.9-512-80.6c-49.3-5.7-213.3-10.4-365-10.4
		c-308.1,0-416.2,11.4-570.8,58.8c-50.2,15.2-134.6,37-186.8,47.4c-53.1,10.4-157.4,34.1-231.3,51.2c-74.9,18-146,30.3-157.4,27.5
		c-11.4-2.8-45.5,1.9-76.8,10.4c-31.3,8.5-100.5,20.9-152.7,28.4c-53.1,7.6-108.1,18-122.3,23.7c-13.3,4.7-37.9,9.5-53.1,9.5
		c-15.2,0-80.6,12.3-144.1,27.5c-279.7,68.3-334.7,74.9-679.8,92c-124.2,6.6-243.7-9.5-301.5-39.8c-14.2-6.6-34.1-13.3-44.6-13.3
		c-11.4,0-112.8-46.5-226.6-104.3c-113.8-56.9-214.3-104.3-223.8-104.3s-21.8-6.6-28.4-14.2c-6.6-7.6-19-14.2-28.4-14.2
		c-8.5,0-27.5-8.5-40.8-19s-30.3-19-37.9-19c-8.5,0-18-3.8-20.9-9.5c-2.8-4.7-36-24.6-73-43.6c-138.4-68.3-147-83.4-131.8-212.4
		c8.5-67.3,24.7-388.7,27.5-535.7c2.8-176.4,16.1-412.4,23.7-426.7c5.7-10.4,13.3-112.8,17.1-227.6c3.8-114.7,11.4-263.6,16.1-331.9
		c5.7-67.3,12.3-261.7,15.2-431.4c6.6-394.4,13.3-423.8,138.4-611.6c14.2-20.9,55.9-89.1,93.9-151.7
		c89.1-149.8,86.3-145.1,122.3-197.2c16.1-24.7,30.3-48.4,30.3-52.1c0-4.7,23.7-35.1,53.1-69.2c56.9-64.5,104.3-133.7,130.8-189.6
		c8.5-19,26.6-44.6,39.8-56.9c12.3-11.4,22.8-25.6,22.8-30.3c0-4.7,17.1-33.2,38.9-62.6c20.9-29.4,73-102.4,114.7-162.1
		c42.7-59.7,94.8-128.9,115.7-152.7c43.6-49.3,92-124.2,238.9-368.8c92-152.7,118.5-196.3,197.2-314.8
		c28.4-42.7,450.4-472.2,463.6-472.2c19.9,0,86.3-63.5,140.3-133.7c35.1-45.5,81.5-92,115.7-115.7c32.2-21.8,88.2-74.9,124.2-118.5
		c37-42.7,89.1-92.9,114.7-110c26.5-18,77.8-63.5,114.7-101.5c83.4-87.2,319.5-323.3,492.1-492.1c71.1-70.2,165-164,207.6-207.6
		c41.7-42.7,126.1-115.7,184.9-161.2c59.7-44.6,128-105.2,150.8-133.7c23.7-28.4,91-102.4,149.8-163.1
		c141.3-147,135.6-147,264.5-12.3c52.1,55,183.9,191.5,293.9,303.4l198.2,203.9h941.5c713,0,946.3,2.8,967.1,11.4
		c37.9,16.1,770.8,22.8,823,7.6c20.9-6.6,74-17.1,118.5-24.7c167.8-27.5,236.1-39.8,246.5-46.5c5.7-3.8,51.2-12.3,102.4-19
		c134.6-19.9,247.5-40.8,294.9-56.9c23.7-7.6,58.8-14.2,79.6-14.2c19.9,0,62.6-6.6,94.8-14.2c84.4-19.9,198.2-42.7,291.1-56.9
		c109-17.1,177.3-29.4,284.4-52.1c49.3-11.4,132.7-25.6,184.9-33.2c52.1-8.5,116.6-20.9,144.1-28.4c26.5-7.6,62.6-14.2,78.7-14.2
		c17.1,0,46.5-3.8,65.4-8.5c19-4.7,57.8-13.3,86.3-19c28.4-5.7,84.4-17.1,123.3-25.6c38.9-7.6,101.4-18,137.5-22.8
		c37-4.7,81.5-12.3,99.6-18c18-4.7,97.7-19.9,175.4-34.1c78.7-13.3,159.3-28.4,180.1-34.1s65.4-14.2,99.6-19
		c34.1-4.7,80.6-12.3,104.3-17.1c23.7-5.7,66.4-14.2,94.8-19.9c37-7.6,190.6-9.5,516.7-5.7c641.9,8.5,1366.3,21.8,1716.1,32.2
		c162.1,4.7,490.2,9.5,730.1,10.4c358.4,0.9,439.9,3.8,459.9,15.2c19.9,11.4,98.6,13.3,445.6,14.2c232.3,0.9,778.4,10.4,1213.6,20.9
		s1009.8,22.8,1275.3,26.5c266.4,4.7,507.3,10.4,535.7,14.2c28.4,2.8,357.5,9.5,730.1,14.2c372.6,4.7,932,15.2,1242.1,22.8
		c310,6.6,845.8,18,1189.9,23.7c344.2,6.6,647.6,13.3,673.2,16.1c26.5,2.8,265.5,9.5,531,13.3c266.4,4.7,750,15.2,1076.2,23.7
		c326.2,7.6,652.3,13.3,724.4,10.4c73-2.8,139.4-0.9,147.9,3.8c8.5,4.7,230.4,10.4,494,13.3c262.6,2.8,508.2,9.5,544.2,14.2
		c37,5.7,230.4,9.5,431.4,10.4c201,0,512,5.7,692.1,11.4s391.6,10.4,470.3,11.4c125.2,0.9,146,2.8,163.1,18
		c19,17.1,19,26.5,16.1,295.8c-1.9,153.6-7.6,286.3-12.3,295.8c-4.7,9.5-11.4,284.4-15.2,622.9c-2.8,341.3-9.5,619.1-15.2,635.3
		c-4.7,16.1-15.2,366.9-23.7,778.4c-8.5,412.4-19,900.7-23.7,1085.6s-8.5,491.1-9.5,680.8c0,293.9-1.9,348-15.2,372.6
		c-13.3,26.5-13.3,32.2,0,66.4c19,46.5,19,77.7,1.9,111.9c-10.4,19.9-17.1,95.8-24.7,291.1c-12.3,305.3-22.8,509.2-37,710.2
		c-5.7,78.7-7.6,149.8-4.7,158.3c2.8,9.5-1.9,45.5-10.4,80.6c-9.5,42.7-18,146-23.7,301.5c-4.7,130.8-13.3,288.2-18,350.8
		s-9.5,172.6-9.5,243.7c-1,72.1-5.7,148.9-10.4,170.7c-8.5,37.9-29.4,377.4-41.7,695c-2.9,73-8.5,151.7-12.3,175.4
		c-2.8,23.7-4.7,47.4-3.8,52.1c4.7,18-19,437.1-27.5,488.3c-9.5,51.2-27.5,387.8-42.7,772.7c-7.6,200.1-25.6,438-33.2,465.5
		c-5.7,16.1-9.5,92.9-9.5,172.6c0,78.7-3.8,153.6-9.5,166.9c-4.7,13.3-11.4,129.9-14.2,258.8c-2.8,129.9-9.5,250.3-14.2,268.3
		c-8.5,29.4-21.8,239.9-48.4,744.3c-19,376.4-23.7,738.6-7.6,778.4c4.7,13.3,8.5,57.8,8.5,98.6c0,40.8,4.7,77.7,9.5,80.6
		c5.7,2.8,9.5,19.9,9.5,37c0,42.7-41.7,81.5-87.2,81.5c-29.4,0-39.8-6.6-73-46.5c-20.9-24.7-63.5-83.4-94.8-129.9
		c-53.1-80.6-151.7-186.8-205.8-221.9c-13.3-9.5-35.1-37.9-47.4-63.5c-14.2-28.4-42.7-61.6-74.9-87.2
		c-29.4-23.7-76.8-76.8-108.1-123.3c-31.3-44.6-94.8-121.4-141.3-169.7c-88.2-92-151.7-163.1-214.3-243.7
		c-20.9-25.6-52.1-62.6-70.2-80.6s-51.2-61.6-74.9-96.7c-23.7-35.1-73-91-110-123.3c-36-33.2-82.5-80.6-101.4-107.1
		c-19.9-25.6-65.4-77.8-100.5-114.7c-36-37-101.5-112.8-146-169.7c-92.9-118.5-136.5-163.1-205.8-215.2
		c-27.5-19.9-55.9-50.2-63.5-67.3s-37-54-66.4-82.5c-30.3-28.4-76.8-86.3-105.2-128.9c-30.3-44.6-93.9-117.6-153.6-175.4
		c-110.9-107.1-129.9-128-210.5-236.1c-29.4-38.9-76.8-94.8-105.2-124.2c-28.4-29.4-70.2-75.9-92-104.3
		c-21.8-28.4-63.5-74.9-92.9-103.3c-28.4-28.4-66.4-73-83.4-99.6c-16.1-25.6-41.7-58.8-55.9-73c-15.2-15.2-26.6-31.3-26.6-36
		c0-11.4-149.8-161.2-161.2-161.2c-4.7,0-44.6-48.4-89.1-106.2c-44.6-58.8-112.8-141.3-153.6-183
		c-129.9-135.6-165-177.3-206.7-241.8c-15.2-23.7-42.7-57.8-61.6-76.8c-54-53.1-171.6-188.7-171.6-198.2c0-3.8-22.8-25.6-49.3-47.4
		c-27.5-21.8-66.4-61.6-86.3-88.2c-19.9-27.5-40.8-55.9-47.4-63.5s-19-26.5-29.4-41.7c-9.5-15.2-31.3-41.7-47.4-57.8
		c-16.1-17.1-55-65.4-86.3-108.1s-73-92-93.9-108.1c-19.9-16.1-41.7-34.1-47.4-39.8c-6.6-4.7-33.2-37-59.7-71.1
		c-50.2-64.5-138.4-151.7-152.7-151.7c-3.8,0-27.5-26.5-51.2-58.8c-81.5-110.9-164-211.4-216.2-263.6
		c-29.4-28.4-67.3-71.1-85.3-94.8c-18-22.8-69.2-78.7-113.8-124.2s-103.3-110-130.8-143.2c-27.5-32.2-88.2-102.4-134.6-154.5
		c-47.4-52.1-98.6-114.7-113.8-138.4c-16.1-24.7-45.5-55.9-65.4-70.2c-20.9-13.3-58.8-54-84.4-88.2
		c-25.6-35.1-111.9-132.7-190.6-217.1c-78.7-84.4-143.2-157.4-143.2-161.2c0-4.7-40.8-51.2-90.1-104.3
		c-49.3-53.1-90.1-99.6-90.1-104.3c0-4.7-9.5-17.1-20.9-27.5c-20.9-18-43.6-18-984.2-11.4c-529.1,2.8-1921.9,6.6-3094.8,6.6
		c-1662.1,0.9-2136.2,3.8-2152.3,13.3c-15.2,8.5-213.3,12.3-833.4,14.2l-813.5,2.8l-27.5,44.6c-14.2,24.7-36,58.8-46.5,75.9
		c-11.4,17.1-22.8,42.7-25.6,56.9c-3.8,14.2-16.1,44.6-27.5,68.3c-12.3,23.7-27.5,61.6-34.1,85.3c-6.6,23.7-31.3,74-54,111.9
		s-54,109-70.2,159.3c-15.2,49.3-41.7,114.7-57.8,144.1c-17.1,29.4-40.8,77.8-54,106.2c-12.3,28.4-38.9,75.9-57.8,104.3
		c-19,29.4-43.6,81.5-54,115.7c-22.8,72.1-45.5,120.4-97.7,202c-19.9,32.2-42.7,81.5-50.2,110.9c-7.6,29.4-24.7,74-37.9,98.6
		c-13.3,25.6-24.7,52.1-24.7,59.7c0,6.6-12.3,37-27.5,66.4c-15.2,29.4-45.5,92-67.3,138.4c-21.8,47.4-51.2,109-66.4,137.5
		c-14.2,28.4-33.2,74-40.8,100.5c-7.6,26.5-27.5,71.1-43.6,100.5c-16.1,28.4-36,73-43.6,99.6c-7.6,25.6-30.3,70.2-51.2,99.6
		c-19.9,29.4-39.8,70.2-43.6,92c-3.8,21.8-30.3,76.8-62.6,128.9c-31.3,49.3-67.3,119.5-79.6,155.5c-12.3,36-28.4,74.9-37,87.2
		c-7.6,12.3-24.7,50.2-37.9,84.4c-13.3,34.1-34.1,82.5-48.4,108.1c-13.3,25.6-23.7,54-23.7,61.6c0,8.5-13.3,34.1-28.4,57.8
		c-16.1,23.7-39.8,73-54,109c-13.3,37-38.9,92-55.9,123.3c-17.1,31.3-40.8,86.3-51.2,121.4c-11.4,37.9-29.4,73-42.7,84.4
		c-12.3,10.4-25.6,33.2-29.4,49.3c-2.8,16.1-13.3,42.7-22.8,57.8c-9.5,16.1-19.9,38.9-23.7,52.1c-3.8,13.3-16.1,45.5-28.4,71.1
		c-11.4,26.5-28.4,67.3-37,91c-8.5,23.7-31.3,69.2-49.3,99.6c-19,30.3-41.7,77.8-51.2,103.4c-9.5,26.5-29.4,71.1-45.5,99.6
		c-16.1,28.4-37.9,76.8-49.3,106.2c-11.4,30.3-37.9,85.3-58.8,123.3c-65.4,116.6-103.3,199.1-126.1,270.2
		c-12.3,37.9-35.1,91-50.2,118.5c-16.1,27.5-34.1,72.1-39.8,97.7c-6.6,26.5-27.5,81.5-47.4,123.3c-54,112.8-85.3,183-85.3,189.6
		c0,6.6-24.7,62.6-65.4,151.7c-15.2,31.3-34.1,75.9-43.6,99.6c-10.4,23.7-22.8,49.3-28.4,56.9c-23.7,30.3-97.7,178.3-122.3,244.6
		c-14.2,37-47.4,108.1-73,156.4c-85.3,160.2-133.7,266.4-162.1,357.5c-16.1,49.3-42.7,117.6-59.7,151.7
		c-45.5,90.1-89.1,177.3-121.4,241.8c-15.2,31.3-41.7,97.7-58.8,148.9c-17.1,50.3-56.9,135.6-88.2,189.6
		c-32.2,53.1-71.1,134.6-87.2,181.1c-16.1,45.5-45.5,108.1-65.4,138.4c-19,30.3-44.6,89.1-56.9,129.9
		c-11.4,41.7-40.8,115.7-66.4,165c-24.6,49.3-57.8,122.3-72.1,161.2c-15.2,38.9-45.5,99.6-68.3,134.6c-21.8,35.1-49.3,92-60.7,127.1
		c-11.4,35.1-39.8,98.6-62.6,143.2c-23.7,43.6-49.3,103.3-56.9,132.7c-7.6,28.4-34.1,85.3-59.7,125.2
		c-53.1,85.3-96.7,170.7-113.8,221.9c-5.7,19.9-29.4,73-52.1,118.5c-21.8,45.5-46.5,106.2-55,134.6c-8.5,28.4-35.1,86.3-58.8,128
		c-23.7,41.7-42.7,78.7-42.7,83.4c0,4.7-20.9,43.6-46.5,86.3c-25.6,41.7-54,93.9-63.5,114.7c-44.6,102.4-72.1,155.5-83.4,165.9
		c-7.6,5.7-16.1,21.8-19.9,35.1c-2.8,14.2-13.3,36-22.8,49.3c-9.5,13.3-38.9,67.3-65.4,120.4c-26.6,53.1-60.7,114.7-75.9,137.5
		c-15.2,22.8-41.7,67.3-58.8,98.6c-17.1,31.3-34.1,61.6-37.9,66.4c-23.7,30.3-127.1,250.3-149.8,317.6
		c-15.2,44.6-52.1,123.3-81.5,175.4c-29.4,52.1-69.2,127.1-87.2,165.9c-18,38.9-39.8,84.4-48.4,99.6c-8.5,16.1-32.2,60.7-53.1,99.6
		c-37,71.1-127.1,220.9-159.3,265.5c-9.5,13.3-32.2,66.4-51.2,118.5c-19,52.1-50.3,122.3-70.2,156.4c-19.9,34.1-39.8,72.1-43.6,85.3
		s-17.1,37-28.4,52.1c-20.9,28.4-109,212.4-109,228.5c0,4.7-16.1,34.1-35.1,65.4c-19,31.3-44.6,78.7-57.8,104.3
		c-12.3,26.5-35.1,67.3-50.2,91c-15.2,23.7-34.1,65.4-41.7,91c-7.6,26.5-20.9,53.1-28.4,59.7s-14.2,17.1-14.2,23.7
		c0,5.7-8.5,19-19,28.4c-10.4,9.5-19,21.8-19,27.5c0,12.3-363.1,36-502.5,33.2C48538.5,46456.4,48387.8,46452.6,48246.5,46448.8z"/>
	<path id="Opol" d="M29339.5,25275.7c-46.5-37.9-147.9-131.8-226.6-207.6c-77.7-76.8-149.8-142.2-158.3-147
		c-21.8-12.3-196.3-175.4-348-327.1c-71.1-71.1-134.6-130.8-141.3-132.7c-19.9-6.6-134.6-112.8-335.6-311.9
		c-194.4-192.5-269.3-262.6-285.4-268.3c-13.3-3.8-91-76.8-303.4-282.5c-105.2-103.3-211.4-202.9-236.1-222.8
		c-23.7-20.9-53.1-49.3-64.5-63.5c-11.4-14.2-55.9-54-98.6-88.2c-41.7-34.1-356.5-340.4-697.8-679.8
		c-592.6-589.7-667.5-662.8-790.8-768c-29.4-25.6-82.5-80.6-118.5-124.2c-36-42.7-90.1-95.8-120.4-118.5
		c-31.3-22.8-71.1-62.6-89.1-89.1c-18-27.5-37-52.1-42.7-55.9c-4.7-3.8-30.3-26.5-56.9-50.3c-25.6-24.7-72.1-66.4-103.3-93.9
		c-30.3-26.5-73-74-93.9-105.2c-20.9-31.3-51.2-66.4-66.4-79.6c-55-46.5-310-301.5-310-311c0-4.7-35.1-34.1-77.7-64.5
		c-93.9-67.3-101.5-74.9-169.7-166.9c-57.8-76.8-66.4-86.3-112.8-126.1c-31.3-25.6-39.8-53.1-66.4-220
		c-3.8-26.5-11.4-56.9-17.1-66.4c-4.7-10.4-12.3-37-15.2-60.7c-3.8-23.7-19-106.2-34.1-184.9c-37-189.6-75.9-426.7-75.9-460.8
		c0-16.1-21.8-116.6-47.4-224.7c-26.5-108.1-57.8-240.8-71.1-295.8c-20.9-90.1-129.9-613.5-163.1-787c-7.6-38.9-19-76.8-24.7-84.4
		c-15.2-18-74.9-55.9-148.9-93.9c-34.1-18-78.7-44.6-99.6-59.7c-82.5-60.7-381.2-248.4-449.4-282.5c-39.8-19.9-100.5-54-135.6-74.9
		c-35.1-21.8-79.6-46.5-99.6-54c-19-7.6-69.2-37.9-111.9-66.4c-87.2-58.8-122.3-102.4-310-384c-147-220.9-211.4-313.8-268.3-384.9
		c-105.2-132.7-128-164-184.9-255.1c-32.2-52.1-71.1-104.3-86.3-116.6s-27.5-28.4-27.5-37c0-7.6-7.6-25.6-17.1-38.9
		c-9.5-14.2-23.7-39.8-30.3-57.8c-7.6-18-48.4-74-92.9-123.3c-43.6-50.3-87.2-106.2-96.7-125.2c-17.1-33.2-41.7-68.3-211.4-312.9
		c-40.8-57.8-89.1-136.5-107.1-174.5c-18-37.9-53.1-92-77.7-119.5c-65.4-74.9-96.7-117.6-154.5-207.6
		c-27.5-44.6-72.1-109-98.6-144.1c-25.6-34.1-61.6-83.4-78.7-109c-147-213.3-245.6-359.3-254.1-374.5c-5.7-9.5-19-27.5-30.3-38.9
		c-10.4-11.4-37-46.5-58.8-77.7c-20.9-31.3-58.8-86.3-83.4-121.4c-24.7-36-55-81.5-68.3-101.5c-13.3-19.9-44.6-67.3-71.1-104.3
		c-43.6-62.6-56.9-84.4-84.4-137.5c-45.5-88.2-94.8-165-112.8-172.6c-23.7-11.4-185.8-248.4-229.5-334.7
		c-14.2-28.4-38.9-70.2-53.1-92c-37-53.1-36-75.9,5.7-92.9c27.5-12.3,93.9-13.3,457-4.7c233.2,4.7,695.9,13.3,1026.8,19
		c330.9,5.7,636.2,14.2,677.9,19c41.7,5.7,207.6,11.4,367.9,13.3c269.3,2.8,293,4.7,311.9,20.9c19,17.1,64.5,84.4,145.1,217.1
		c20.9,34.1,63.5,101.5,94.8,149.8c31.3,49.3,72.1,112.8,90.1,143.2c18,29.4,46.5,72.1,62.6,93.9l28.4,39.8l166.9-3.8
		c119.5-1.9,172.6,0,188.7,8.5c30.3,16.1,74.9,57.8,74.9,71.1c0,5.7,25.6,35.1,57.8,66.4c31.3,31.3,80.6,92.9,110,137.5
		c69.2,106.2,76.8,113.8,187.7,192.5c52.1,37,135.6,106.2,184.9,153.6s128,113.8,174.5,147c45.5,34.1,135.6,100.5,200.1,147
		c63.5,47.4,166.9,123.3,230.4,170.7c63.5,46.5,115.7,87.2,115.7,91c0,2.8,29.4,30.3,65.4,60.7c36,29.4,70.2,65.4,76.8,79.6
		c6.6,13.3,19.9,43.6,31.3,67.3c10.4,23.7,21.8,49.3,25.6,57.8c11.4,22.8,37,252.2,36,321.4c-0.9,34.1,1.9,112.8,5.7,175.4
		c7.6,110,8.5,115.7,49.3,191.5c69.2,130.8,161.2,252.2,238,316.7c29.4,23.7,65.4,59.7,79.6,79.6c15.2,19.9,41.7,52.1,60.7,72.1
		c18,19.9,33.2,38.9,33.2,40.8c0,2.8,19.9,36,43.6,74c23.7,37,70.2,119.5,103.3,183c114.7,221.9,123.3,234.2,197.2,280.7
		c114.7,72.1,360.3,248.4,400.1,288.2c20.9,20.9,83.4,61.6,137.5,91c182,96.7,233.2,134.6,281.6,210.5
		c123.3,192.5,139.4,248.4,111.9,388.7c-19.9,100.5-14.2,137.5,27.5,182c27.5,29.4,37,33.2,77.7,33.2c68.3,0,156.4-27.5,184.9-56.9
		c13.3-15.2,39.8-28.4,61.6-32.2c19.9-4.7,61.6-18,92-30.3c30.3-13.3,88.2-27.5,128-33.2c39.8-4.7,109-19,152.7-31.3
		c77.7-22.8,84.4-22.8,237-13.3c132.7,8.5,164,13.3,201,31.3c44.6,22.8,125.2,83.4,175.4,132.7c29.4,27.5,96.7,77.7,165,121.4
		c18,12.3,48.4,42.7,66.4,67.3c18,25.6,56.9,73,86.3,106.2l53.1,59.7l6.6,112.8c6.6,104.3,5.7,116.6-13.3,152.7
		c-32.2,64.5-84.4,113.8-194.4,186.8c-56.9,37-128.9,93.9-160.2,125.2l-55.9,56.9l4.7,56.9c2.8,48.4,11.4,69.2,50.3,131.8
		c25.6,40.8,68.3,114.7,95.8,164c74,135.6,168.8,293.9,204.8,340.4c17.1,22.8,36,49.3,41.7,59.7c6.6,10.4,83.4,92,172.6,182
		l161.2,162.1l10.4,62.6c5.7,34.1,10.4,81.5,10.4,106.2c0,23.7,3.8,53.1,8.5,65.4c4.7,12.3,4.7,165.9,0,352.7
		c-8.5,321.4-8.5,332.8,11.4,405.8c42.7,157.4,176.4,306.3,347,384c48.4,22.8,58.8,23.7,148.9,18c52.1-3.8,132.7-11.4,177.3-17.1
		c74.9-10.4,84.4-9.5,113.8,7.6c38.9,22.8,74.9,105.2,81.5,188.7c2.8,31.3,12.3,70.2,20.9,85.3c13.3,24.7,15.2,89.1,16.1,546.1
		l1.9,518.6l37,69.2c68.3,128.9,133.7,215.2,259.8,338.5c114.7,111.9,141.3,131.8,232.3,169.7c70.2,29.4,88.2,34.1,139.4,40.8
		c85.3,11.4,248.4,93.9,311,157.4c30.3,30.3,58.8,51.2,71.1,51.2c11.4,0,30.3,7.6,42.7,17.1c51.2,38.9,119.5,49.3,331.9,53.1
		c158.3,1.9,209.5,5.7,231.3,17.1c16.1,8.5,49.3,18,74,20.9c32.2,4.7,55.9,16.1,80.6,37.9c19,17.1,46.5,34.1,59.7,37
		c47.4,12.3,148.9,137.5,240.8,300.6c47.4,82.5,202,335.6,233.2,381.2c10.4,14.2,18,28.4,18,31.3c0,2.8,12.3,21.8,28.4,40.8
		c44.6,55.9,85.3,140.3,85.3,177.3c0,44.6-25.6,68.3-82.5,74.9c-24.7,3.8-77.7,10.4-116.6,15.2c-38.9,5.7-117.6,9.5-175.4,10.4
		c-66.4,0-118.5,4.7-142.2,13.3c-57.8,20.9-1722.8,20.9-1791.1,0c-94.8-29.4-286.3-10.4-348,34.1c-39.8,28.4-74.9,102.4-74.9,158.3
		c0,51.2-26.5,96.7-55.9,96.7C29431.5,25344,29386,25312.7,29339.5,25275.7z"/>
	<path id="Libertad_00000132068000381948767540000002366110550846847934_" d="M19772.7,29788.9c-15.2-11.4-49.3-40.8-75.9-64.5
		c-52.1-46.5-151.7-104.3-180.1-104.3c-19,0-162.1-45.5-244.6-76.8c-25.6-10.4-54-18-63.5-18c-10.4,0-25.6-3.8-35.1-8.5
		c-8.5-4.7-35.1-14.2-58.8-19.9c-23.7-6.6-59.7-18-80.6-24.7s-55-14.2-75.9-18c-20.9-3.8-61.6-13.3-90.1-20.9
		c-28.4-8.5-71.1-18-94.8-21.8c-23.7-3.8-49.3-9.5-56.9-13.3c-25.6-10.4-145.1-36-213.3-44.6c-36-4.7-92.9-13.3-125.2-18
		c-33.2-5.7-84.4-13.3-113.8-18c-120.4-18-183-49.3-293-145.1c-31.3-27.5-320.5-312.9-641.9-633.4c-563.2-560.4-585-583.1-585-617.2
		c0-26.5,8.5-45.5,34.1-75.9c47.4-56.9,228.5-234.2,409.6-400.1c84.4-77.7,153.6-144.1,153.6-147.9c0-7.6,164-173.5,230.4-233.2
		c43.6-38.9,787.9-781.3,837.2-835.3c15.2-16.1,34.1-33.2,42.7-37.9c22.8-12.3,122.3-99.6,149.8-130.8
		c68.3-77.7,194.4-207.6,463.6-479.8c162.1-164,317.6-328.1,344.2-365c26.5-36,55-69.2,64.5-73c9.5-2.8,23.7-17.1,33.2-31.3
		c17.1-25.6,81.5-99.6,162.1-185.8c22.8-23.7,62.6-71.1,87.2-104.3c25.6-33.2,60.7-75.9,76.8-93.9c17.1-18,43.6-58.8,59.7-90.1
		l28.4-56.9l-1.9-409.6c-2.8-475-5.7-458,77.7-458c33.2,0,63.5,8.5,101.5,27.5c29.4,15.2,87.2,40.8,127.1,56.9
		c39.8,17.1,77.7,37,84.4,45.5c6.6,7.6,22.8,18,34.1,22.8c12.3,4.7,76.8,43.6,143.2,87.2c96.7,64.5,143.2,103.3,234.2,197.2
		c68.3,70.2,128.9,142.2,149.8,179.2c19.9,34.1,56.9,95.8,83.4,137.5c106.2,169.7,155.5,297.7,148.9,385.9
		c-3.8,47.4-21.8,106.2-51.2,173.5c-29.4,68.3-114.7,430.5-141.3,602.1c-13.3,86.3-34.1,198.2-47.4,249.4
		c-13.3,51.2-23.7,103.3-23.7,116.6c0,13.3-10.4,75.9-23.7,138.4c-13.3,62.6-23.7,125.2-23.7,139.4c0,24.7-18,119.5-42.7,219
		c-7.6,28.4-19.9,86.3-29.4,128c-8.5,41.7-26.5,110-39.8,151.7c-12.3,41.7-26.5,111.9-29.4,156.4c-3.8,44.6-19.9,131.8-36,194.4
		c-16.1,62.6-38.9,180.1-50.3,260.7c-11.4,80.6-28.4,181.1-38.9,222.8c-67.3,287.3-87.2,365-102.4,403
		c-9.5,23.7-22.8,55.9-29.4,71.1c-19,47.4-47.4,166.9-47.4,201c0,17.1-6.6,55.9-14.2,86.3c-7.6,29.4-26.5,107.1-42.7,172.6
		c-16.1,65.4-39.8,145.1-52.1,176.4c-12.3,32.2-29.4,98.6-37.9,147c-8.5,49.3-19.9,93.9-25.6,100.5c-4.7,6.6-13.3,25.6-17.1,42.7
		c-4.7,17.1-30.3,89.1-56.9,159.3c-26.5,70.2-65.4,187.7-86.3,260.7s-43.6,151.7-50.3,175.4c-7.6,23.7-16.1,56.9-19.9,74
		c-6.6,33.2-49.3,115.7-65.4,127.1C19858,29817.4,19799.2,29809.8,19772.7,29788.9z"/>
	<path id="Villanueva" d="M44728.9,29761.4c-20.9-3.8-63.5-7.6-94.8-7.6c-31.3-0.9-108.1-7.6-170.7-15.2
		c-62.6-7.6-193.4-18-292-23.7c-164-8.5-214.3-14.2-371.7-38.9c-31.3-4.7-152.7-13.3-270.2-18c-117.6-4.7-275-18-350.8-28.4
		s-178.3-19-227.6-19c-152.6,0-470.3-22.8-663.7-47.4c-38.9-4.7-143.2-10.4-232.3-13.3c-205.7-5.7-411.5-20.9-526.2-38.9
		c-49.3-7.6-134.6-19-189.6-23.7c-55-4.7-106.2-11.4-113.8-15.2c-7.6-2.8-84.4-8.5-170.7-13.3c-239.9-13.3-248.4-19.9-204.8-160.2
		c59.7-189.6,56.9-252.2-19-395.4c-55.9-106.2-94.8-156.4-159.3-203.9c-20.9-15.2-88.2-75.9-149.8-134.6
		c-62.6-57.8-120.4-109-129.9-112.8c-9.5-2.8-51.2-37-92.9-75.9c-40.8-37.9-106.2-94.8-145.1-126.1
		c-137.5-111.9-353.7-318.6-508.2-489.2c-55.9-61.6-135.6-188.7-154.5-247.5c-18-57.8-40.8-267.4-36-332.8
		c3.8-55.9,8.5-69.2,31.3-92c26.5-26.5,34.1-27.5,187.7-42.7c95.8-9.5,185.8-13.3,223.8-9.5c34.1,3.8,111.9,1.9,171.6-3.8
		c73-6.6,281.6-7.6,639.1-2.8c596.4,8.5,544.2,0.9,644.7,87.2c31.3,26.5,67.3,50.3,80.6,53.1s38.9,9.5,56.9,14.2
		c18,4.7,46.5,8.5,62.6,8.5c51.2,0,154.6-60.7,245.6-145.1c47.4-43.6,109-95.8,137.5-116.6c28.4-19.9,88.2-65.4,131.8-100.5
		c94.8-75.9,275-170.7,356.5-187.7c31.3-6.6,67.3-17.1,80.6-23.7c13.3-6.6,88.2-21.8,165.9-32.2c78.7-10.4,172.6-24.7,208.6-31.3
		c39.8-7.6,147-12.3,265.5-12.3c183,0,203.9,1.9,257.9,21.8c32.2,11.4,71.1,20.9,86.3,20.9c36,0,151.7,58.8,181.1,92.9
		c13.3,15.2,43.6,39.8,67.3,55c23.7,14.2,66.4,40.8,94.8,58.8c64.5,40.8,195.3,172.6,272.1,273.1c31.3,40.8,90.1,109,129.9,150.8
		c39.8,41.7,77.8,81.5,84.4,88.2s50.2,47.4,96.7,91c94.8,88.2,116.6,97.7,268.3,119.5c93.9,14.2,153.6,8.5,247.5-23.7
		c38.9-13.3,81.5-23.7,94.8-23.7c22.8-0.9,41.7-6.6,162.1-52.1c64.5-24.7,184.9-58.8,384-110.9c307.2-79.6,411.5-99.6,572.7-106.2
		l145.1-6.6l30.3,32.2c16.1,18,54,82.5,85.3,145.1c30.3,61.6,64.5,123.3,76.8,136.5c11.4,13.3,39.8,51.2,62.6,84.4
		c22.8,33.2,57.8,82.5,76.8,109c68.3,94.8,113.8,175.4,108.1,192.5c-4.7,15.2-50.3,62.6-176.4,184.9c-18,17.1-62.6,64.5-98.6,105.2
		c-66.4,75.9-146,143.2-249.4,213.3c-32.2,21.8-78.7,64.5-102.4,93.9c-24.7,30.3-69.2,80.6-99.6,111.9
		c-31.3,31.3-96.7,97.7-145.1,147.9c-49.3,49.3-105.2,97.7-124.2,107.1c-42.7,19.9-103.3,78.7-156.4,151.7
		c-50.3,67.3-202.9,221.9-280.7,282.5c-31.3,24.7-82.5,75.9-113.8,112.8c-31.3,37.9-84.4,89.1-117.6,114.7
		c-34.1,25.6-77.8,68.3-98.6,95.8c-54,72.1-101.4,119.5-141.3,140.3C44788.6,29773.8,44785.8,29773.8,44728.9,29761.4z"/>
	<path id="ElSalvadorCity" d="M25343.1,28286.1c-27.5-33.2-65.4-97.7-65.4-110.9c0-7.6-4.7-17.1-9.5-19.9
		c-5.7-3.8-16.1-20.9-23.7-39.8c-7.6-18-26.5-48.4-42.7-65.4c-15.2-18-28.4-39.8-28.4-48.4c0-13.3-20.9-52.1-134.6-251.3
		c-19.9-35.1-41.7-69.2-48.4-75.9c-26.5-27.5-139.4-226.6-139.4-245.6c0-4.7-22.8-37.9-50.3-73c-28.4-35.1-62.6-84.4-76.8-110.9
		c-15.2-25.6-39.8-70.2-55-98.6c-15.2-28.4-38.9-65.4-51.2-81.5c-12.3-17.1-22.8-33.2-22.8-37c0-6.6-184.9-344.2-237-432.4
		c-63.5-108.1-154.5-252.2-171.6-270.2c-9.5-10.4-20.9-30.3-26.5-45.5c-5.7-14.2-31.3-56.9-55.9-94.8
		c-25.6-37-81.5-131.8-125.2-210.5c-42.7-77.7-93.9-165.9-113.8-194.4c-62.6-92-94.8-145.1-94.8-154.5c0-5.7-5.7-17.1-13.3-24.7
		c-7.6-8.5-29.4-44.6-48.4-80.6c-19-36-51.2-85.3-70.2-109c-19.9-23.7-41.7-58.8-48.4-76.8c-7.6-18-25.6-53.1-39.8-76.8
		c-14.2-23.7-26.5-46.5-26.5-50.3s-12.3-22.8-26.5-41.7c-15.2-19-37-57.8-47.4-85.3c-11.4-28.4-33.2-66.4-47.4-85.3
		c-31.3-39.8-106.2-160.2-106.2-170.7c0-3.8-17.1-32.2-37.9-63.5s-37.9-60.7-37.9-64.5c0-4.7-10.4-21.8-22.8-37.9
		c-12.3-17.1-49.3-79.6-81.5-139.4c-123.3-225.7-180.1-323.3-246.5-421.9c-14.2-20.9-29.4-48.4-33.2-61.6
		c-3.8-13.3-21.8-41.7-38.9-63.5c-18-21.8-32.2-41.7-32.2-44.6c0-2.8-10.4-16.1-22.8-29.4c-12.3-13.3-25.6-36-29.4-50.3
		c-2.8-13.3-19.9-48.4-37-77.7c-17.1-28.4-56.9-93.9-87.2-146c-30.3-51.2-79.6-135.6-108.1-186.8c-28.4-51.2-72.1-123.3-96.7-159.3
		c-25.6-37-54-83.4-65.4-105.2c-11.4-20.9-23.7-40.8-29.4-43.6c-4.7-2.8-37.9-67.3-74-142.2c-36-75.9-79.6-157.4-97.7-182
		c-18-24.7-45.5-72.1-61.6-106.2c-17.1-34.1-58.8-100.5-93.9-148.9c-71.1-95.8-138.4-208.6-170.7-285.4
		c-11.4-27.5-31.3-63.5-44.6-78.7c-14.2-16.1-24.7-33.2-24.7-37.9c0-4.7-28.4-53.1-63.5-106.2c-92-142.2-116.6-184.9-141.3-247.5
		c-20.9-52.1-109-196.3-223.8-364.1c-25.6-37.9-61.6-101.5-79.6-139.4c-18-38.9-64.5-118.5-103.3-176.4
		c-38.9-58.8-74-120.4-76.8-138.4c-2.8-17.1-19-49.3-34.1-72.1c-36-51.2-86.3-128-275.9-423.8c-14.2-23.7-44.6-78.7-66.4-123.3
		c-20.9-44.6-62.6-116.6-92-161.2c-30.3-44.6-85.3-138.4-123.3-208.6c-37.9-70.2-95.8-166.9-128-213.3
		c-58.8-86.3-98.6-150.8-120.4-194.4c-6.6-13.3-40.8-71.1-75.9-129.9c-35.1-57.8-90.1-158.3-123.3-222.8
		c-32.2-64.5-74-142.2-92.9-173.5c-65.4-110-70.2-134.6-30.3-158.3c35.1-20.9,118.5-52.1,185.8-70.2c31.3-7.6,82.5-26.5,113.8-40.8
		c86.3-39.8,160.2-67.3,182-67.3c10.4,0,35.1-8.5,55.9-19s47.4-19,58.8-19c12.3,0,29.4-3.8,38.9-9.5c8.5-4.7,43.6-15.2,77.7-23.7
		c34.1-8.5,80.6-24.7,104.3-37c23.7-12.3,74.9-32.2,113.8-44.6c66.4-20.9,151.7-65.4,125.2-65.4c-5.7,0-11.4-8.5-11.4-18
		c0-10.4-12.3-45.5-28.4-78.7c-15.2-32.2-28.4-65.4-28.4-73c0-7.6-11.4-37-24.7-65.4c-13.3-28.4-26.5-67.3-29.4-86.3
		c-3.8-19-28.4-71.1-56.9-115.7c-27.5-44.6-50.3-87.2-50.3-94.8s-3.8-18-7.6-23.7c-4.7-4.7-18-38.9-29.4-76.8
		c-11.4-37-41.7-102.4-68.3-146c-57.8-96.7-93.9-171.6-93.9-196.3c0-10.4-6.6-23.7-14.2-30.3c-7.6-6.6-14.2-18-14.2-25.6
		c0-17.1-33.2-123.3-62.6-203.9c-13.3-35.1-45.5-98.6-72.1-142.2c-35.1-56.9-48.4-89.1-49.3-115.7c-0.9-37-0.9-37,52.1-53.1
		c29.4-9.5,76.8-32.2,106.2-51.2c28.4-19,73-41.7,97.7-50.3c25.6-8.5,55.9-21.8,68.3-29.4c11.4-7.6,55-23.7,96.7-35.1
		c41.7-11.4,104.3-38.9,139.4-59.7c36-20.9,93.9-47.4,130.8-58.8c36-10.4,107.1-42.7,156.4-70.2c49.3-27.5,130.8-63.5,180.1-79.6
		c49.3-17.1,124.2-51.2,165.9-75.9s103.3-59.7,137.5-76.8c34.1-17.1,72.1-37,85.3-43.6c36-19,88.2-33.2,119.5-33.2
		c37,0,65.4,31.3,159.3,170.7c39.8,59.7,100.5,143.2,133.7,184.9c34.1,41.7,72.1,89.1,85.3,105.2c13.3,17.1,29.4,39.8,36,52.1
		c5.7,12.3,25.6,42.7,42.7,67.3c16.1,24.7,30.3,47.4,30.3,50.3c0,3.8,12.3,22.8,27.5,41.7s54,74.9,86.3,124.2
		c74,111.9,180.1,254.1,209.5,280.7c37.9,33.2,103.3,74,202.9,127.1c52.1,27.5,105.2,56.9,118.5,66.4c13.3,9.5,57.8,34.1,99.6,54
		c41.7,20.9,183,108.1,312.9,194.4c130.8,86.3,259.8,167.8,287.3,182s52.1,30.3,55,37c1.9,6.6,10.4,50.3,17.1,96.7
		c16.1,101.5,50.3,259.8,90.1,418.1c16.1,63.5,33.2,146,38.9,184.9c5.7,38.9,15.2,86.3,19.9,107.1c5.7,19.9,15.2,67.3,22.8,104.3
		c25.6,142.2,61.6,290.1,74.9,316.7c8.5,16.1,19,46.5,25.6,69.2c22.8,90.1,81.5,404.9,91,482.6c2.8,28.4,8.5,56.9,12.3,61.6
		c4.7,5.7,12.3,43.6,19,85.3c5.7,41.7,23.7,127.1,38.9,189.6c15.2,62.6,27.5,127.1,27.5,143.2c0,49.3,24.7,92,70.2,125.2
		c23.7,17.1,72.1,70.2,109,118.5c69.2,92,107.1,131.8,162.1,167.8c18,12.3,108.1,97.7,200.1,188.7c92,92,189.6,186.8,216.2,212.4
		c26.5,24.7,48.4,49.3,48.4,54c0,18,83.4,103.3,213.3,218.1c31.3,28.4,74,74.9,95.8,103.3c21.8,29.4,57.8,66.4,81.5,83.4
		c23.7,17.1,70.2,61.6,103.3,99.6c96.7,110,154.5,165,194.4,185.8c21.8,12.3,301.5,285.4,686.5,670.3
		c357.5,358.4,689.3,683.6,737.7,722.5c47.4,38.9,87.2,75.9,87.2,81.5c0,14.2,103.3,120.4,117.6,120.4c5.7,0,51.2,44.6,100.5,98.6
		c49.3,55,98.6,102.4,109,106.2c10.4,2.8,53.1,39.8,94.8,79.6c296.8,288.2,363.1,348,411.5,371.7c21.8,10.4,38.9,21.8,38.9,25.6
		c0,3.8,92.9,98.6,206.7,210.5c294.9,291.1,350.8,345.1,408.7,387.8c28.4,21.8,145.1,132.7,258.8,247.5
		c114.7,114.7,234.2,225.7,266.4,247.5c59.7,40.8,114.7,93.9,221.9,213.3c58.8,65.4,58.8,66.4,68.3,145.1
		c14.2,110.9,13.3,174.5-3.8,216.2c-17.1,39.8-81.5,110-120.4,130.8c-56.9,29.4-196.3,35.1-615.3,22.8c-323.3-9.5-419.1-9.5-483.6,0
		c-108.1,16.1-193.4,57.8-346.1,170.7c-21.8,15.2-42.7,28.4-46.5,28.4c-13.3,0-91,67.3-229.5,197.2
		c-128.9,123.3-135.6,129.9-162.1,200.1c-16.1,42.7-31.3,107.1-37.9,159.3c-16.1,144.1-48.4,195.3-182,293
		c-42.7,30.3-98.6,73-125.2,93.9c-51.2,39.8-147,109-211.4,152.7c-20.9,14.2-58.8,43.6-85.3,65.4c-25.6,21.8-57.8,45.5-70.2,52.1
		s-39.8,27.5-61.6,46.5c-21.8,19.9-55.9,45.5-76.8,57.8c-20.9,13.3-79.6,59.7-129.9,104.3s-125.2,108.1-165,142.2
		c-40.8,34.1-146,131.8-232.3,216.2c-87.2,85.3-173.5,165.9-190.6,179.2c-47.4,35.1-139.4,88.2-153.6,88.2c-6.6,0-23.7,8.5-36,19
		c-13.3,9.5-40.8,22.8-60.7,27.5c-20.9,4.7-49.3,13.3-65.4,19c-15.2,4.7-47.4,14.2-71.1,19.9c-23.7,6.6-52.1,15.2-64.5,19.9
		C25431.2,28308.9,25358.2,28304.1,25343.1,28286.1z"/>
	<path id="Alubijid" d="M23311.2,29026.6c-8.5-7.6-15.2-19.9-15.2-25.6c0-6.6-12.3-37.9-28.4-70.2
		c-55.9-119.5-163.1-207.6-538.5-444.7c-48.4-31.3-106.2-66.4-128-78.7c-43.6-25.6-253.2-230.4-253.2-248.4
		c0-5.7-15.2-31.3-33.2-55.9c-18-24.7-33.2-51.2-33.2-57.8c0-7.6-17.1-46.5-37.9-87.2c-20.9-40.8-37.9-86.3-37.9-100.5
		c0-15.2-5.7-32.2-13.3-37.9c-7.6-6.6-21.8-39.8-33.2-74.9c-33.2-106.2-73-228.5-116.6-357.5c-23.7-67.3-56.9-165.9-73-218.1
		c-17.1-52.1-39.8-115.7-50.3-142.2c-10.4-25.6-31.3-93.9-47.4-151.7c-16.1-56.9-35.1-116.6-42.7-131.8
		c-15.2-29.4-31.3-75.9-78.7-233.2c-16.1-55-43.6-128.9-61.6-165.9c-17.1-36-35.1-81.5-37.9-99.6c-8.5-38.9-32.2-88.2-76.8-159.3
		c-18-27.5-32.2-55-32.2-62.6c0-6.6-14.2-39.8-32.2-73c-17.1-33.2-53.1-122.3-79.6-198.2c-25.6-75.9-57.8-158.3-71.1-184.9
		c-31.3-61.6-63.5-164-63.5-201c0-16.1-8.5-47.4-19-70.2c-10.4-22.8-19-58.8-19-79.6c0-21.8-4.7-43.6-10.4-49.3
		c-4.7-4.7-15.2-40.8-22.8-79.6c-15.2-78.7-26.5-128-52.1-217.1c-9.5-34.1-26.5-93.9-37.9-132.7c-10.4-38.9-26.5-83.4-33.2-97.7
		c-7.6-15.2-14.2-31.3-14.2-37c0-4.7-9.5-22.8-20.9-38.9c-12.3-16.1-38.9-59.7-59.7-97.7c-100.5-182-209.5-330.9-302.5-410.5
		c-84.4-74-376.4-258.8-474.1-301.5c-199.1-87.2-275-128-311.9-167.8c-94.8-103.3-172.6-202.9-263.6-337.5
		c-104.3-154.5-110-164-147.9-270.2c-13.3-36-61.6-132.7-108.1-213.3c-46.5-80.6-92-170.7-102.4-200.1
		c-32.2-94.8-99.6-198.2-166.9-257.9c-34.1-30.3-61.6-61.6-61.6-68.3c0-7.6-10.4-29.4-23.7-48.4c-22.8-34.1-23.7-39.8-23.7-197.2
		c-0.9-122.3-3.8-167.8-14.2-185.8c-7.6-13.3-13.3-41.7-14.2-64.5c0-21.8-5.7-50.3-13.3-61.6c-7.6-11.4-16.1-38.9-19.9-60.7
		c-3.8-21.8-12.3-44.6-19.9-51.2c-7.6-5.7-13.3-19-13.3-29.4s-8.5-29.4-19-42.7c-10.4-13.3-19-30.3-19-38.9
		c0-7.6-15.2-30.3-33.2-50.3c-18-20.9-33.2-41.7-33.2-48.4c0-5.7-10.4-24.7-23.7-41.7s-23.7-37.9-23.7-46.5s-19-35.1-41.7-59.7
		c-22.8-24.7-46.5-55.9-54-69.2c-16.1-30.3-75.9-131.8-153.6-259.8c-31.3-52.1-86.3-143.2-122.3-202.9
		c-36-58.8-87.2-139.4-114.7-179.2c-67.3-96.7-59.7-85.3-154.5-234.2c-47.4-73-91-145.1-97.7-161.2c-6.6-15.2-55.9-96.7-110-180.1
		c-53.1-83.4-110-175.4-124.2-203.9c-15.2-28.4-30.3-53.1-34.1-55c-41.7-19,112.8-113.8,249.4-153.6c38.9-11.4,97.7-33.2,131.8-47.4
		c70.2-30.3,174.5-65.4,297.7-100.5c46.5-12.3,99.6-32.2,116.6-42.7c18-11.4,46.5-23.7,62.6-27.5c17.1-4.7,43.6-12.3,58.8-17.1
		c16.1-5.7,58.8-19,94.8-31.3c37-11.4,76.8-26.5,90.1-32.2c13.3-6.6,42.7-17.1,66.4-22.8c239.9-60.7,292-77.7,360.3-118.5
		c65.4-38.9,331.9-120.4,440.9-133.7l47.4-6.6l21.8,37.9c11.4,20.9,20.9,42.7,20.9,49.3s9.5,25.6,21.8,41.7
		c12.3,16.1,46.5,78.7,76.8,138.4c50.3,98.6,85.3,161.2,250.3,445.6c28.4,49.3,74,122.3,101.5,161.2s64.5,98.6,82.5,132.7
		c77.7,144.1,96.7,176.4,154.5,265.5c33.2,52.1,80.6,133.7,105.2,182c23.7,48.4,81.5,146,127.1,216.2
		c45.5,70.2,91,143.2,100.5,161.2c24.7,46.5,107.1,168.8,118.5,175.4c4.7,3.8,8.5,19.9,8.5,37.9c0,19.9,8.5,41.7,22.8,58.8
		c45.5,55,124.2,180.1,172.6,275c27.5,54,62.6,115.7,78.7,138.4c40.8,58.8,133.7,205.7,133.7,211.4c0,3.8,12.3,21.8,27.5,40.8
		c15.2,19,35.1,52.1,43.6,72.1c31.3,74,74.9,153.6,148.9,268.3c40.8,63.5,74,122.3,74,128.9c0,7.6,13.3,22.8,28.4,34.1
		c16.1,11.4,28.4,28.4,28.4,37.9c0,9.5,3.8,19.9,8.5,22.8c8.5,5.7,53.1,79.6,88.2,147.9c32.2,62.6,116.6,191.5,152.7,234.2
		c19,22.8,35.1,49.3,35.1,57.8s8.5,26.5,19,39.8c10.4,13.3,19,31.3,19,39.8s10.4,23.7,23.7,34.1c13.3,10.4,30.3,34.1,37.9,52.1
		c7.6,19,18,36,23.7,39.8c4.7,2.8,9.5,15.2,9.5,27.5s8.5,29.4,19,38.9c10.4,9.5,19,21.8,19,28.4c0,18,86.3,172.6,148.9,266.4
		c30.3,46.5,58.8,91,62.6,98.6c15.2,32.2,67.3,122.3,102.4,176.4c19.9,31.3,37,60.7,37,65.4s5.7,15.2,13.3,22.8
		c16.1,19,127.1,212.4,139.4,243.7c4.7,13.3,26.5,47.4,48.4,75.9c57.8,76.8,74,101.5,74,118.5c0,8.5,8.5,22.8,19,32.2
		c10.4,9.5,19,20.9,19,24.7s12.3,25.6,26.5,48.4c15.2,22.8,39.8,64.5,54,92.9c15.2,28.4,35.1,60.7,43.6,71.1s19,29.4,22.8,42.7
		c3.8,13.3,17.1,37,29.4,52.1c11.4,16.1,42.7,74,69.2,129.9c26.5,55,57.8,112.8,71.1,128c12.3,14.2,37.9,58.8,57.8,97.7
		c37,74,114.7,196.3,151.7,237c12.3,13.3,30.3,43.6,40.8,69.2c11.4,24.7,43.6,83.4,73,129.9c28.4,46.5,52.1,92.9,52.1,101.5
		c0,9.5,15.2,36,33.2,59.7c53.1,69.2,114.7,164,134.6,208.6c10.4,23.7,62.6,110,114.7,191.5c53.1,82.5,96.7,152.7,96.7,156.4
		c0,6.6,92.9,165.9,137.5,236.1c17.1,26.5,42.7,71.1,56.9,99.6c14.2,28.4,53.1,92.9,86.3,143.2s71.1,114.7,85.3,142.2
		c13.3,27.5,34.1,63.5,45.5,78.7c12.3,16.1,28.4,41.7,36,56.9c46.5,90.1,122.3,223.8,142.2,253.2c9.5,13.3,32.2,51.2,50.3,82.5
		c18,32.2,48.4,83.4,66.4,114.7c18,31.3,48.4,83.4,67.3,116.6c29.4,52.1,102.4,154.5,118.5,167.8c3.8,2.8,9.5,15.2,13.3,28.4
		s15.2,35.1,24.7,49.3c10.4,13.3,18,31.3,18,38.9c0,8.5,3.8,17.1,8.5,19.9c4.7,3.8,29.4,40.8,54,84.4c24.7,42.7,54,89.1,66.4,103.3
		c11.4,14.2,37,56.9,55.9,94.8s45.5,81.5,57.8,97.7c12.3,17.1,22.8,33.2,22.8,36c0,8.5,53.1,113.8,109,219
		c55.9,106.2,53.1,117.6-39.8,147c-35.1,11.4-83.4,22.8-107.1,25.6c-23.7,2.8-65.4,14.2-92.9,23.7c-27.5,9.5-57.8,18-68.3,18
		c-21.8,0-154.5,43.6-191.5,62.6c-68.3,35.1-202,138.4-287.3,221.9c-98.6,95.8-172.6,145.1-260.7,173.5
		c-44.6,15.2-74.9,17.1-203.9,13.3c-83.4-2.8-155.5-4.7-161.2-4.7c-32.2-1.9-194.4,16.1-219,23.7c-16.1,5.7-78.7,36-140.3,68.3
		C23355.7,29045.6,23334.9,29050.3,23311.2,29026.6z"/>
	<path id="Laguindingan" d="M22793.5,31144.8c-18-4.7-50.2-13.3-71.1-19c-74-19.9-119.5-36-164-58.8c-98.6-49.3-211.4-79.6-333.7-91
		c-65.4-5.7-137.5-13.3-161.2-16.1c-23.7-3.8-110.9-6.6-194.4-6.6c-148.9-0.9-153.6-1.9-225.7-31.3c-40.8-17.1-79.6-31.3-87.2-31.3
		c-22.8,0-114.7-45.5-158.3-78.7c-24.7-19-57.8-40.8-75.9-50.3c-17.1-8.5-58.8-42.7-92.9-75.9c-99.6-94.8-344.2-265.5-493-343.2
		c-74-38.9-180.1-98.6-312.9-177.3c-28.4-17.1-69.2-36-90.1-42.7s-41.7-15.2-46.5-19.9c-5.7-4.7-16.1-8.5-24.7-8.5
		s-45.5-15.2-82.5-33.2c-37-18-70.2-33.2-74-33.2c-8.5,0-89.1-35.1-128-55.9c-18-9.5-38.9-27.5-44.6-39.8
		c-18-34.1-15.2-116.6,5.7-163.1c10.4-21.8,29.4-80.6,42.7-129.9c13.3-49.3,27.5-102.4,32.2-118.5c5.7-15.2,16.1-52.1,24.7-80.6
		c28.4-102.4,36-123.3,44.6-128c4.7-3.8,8.5-17.1,8.5-31.3s8.5-41.7,19-61.6c10.4-19,19-40.8,19-46.5c0-6.6,18-61.6,41.7-121.4
		c52.1-135.6,62.6-169.7,62.6-202c0-14.2,5.7-41.7,13.3-60.7c41.7-115.7,99.6-319.5,144.1-510.1c6.6-31.3,23.7-89.1,37-128
		c13.3-38.9,28.4-93.9,32.2-123.3c4.7-28.4,27.5-128.9,51.2-222.8c65.4-264.5,73-300.6,73-346.1c0-23.7,3.8-56.9,8.5-74
		c4.7-17.1,14.2-72.1,19.9-123.3c6.6-50.2,15.2-98.6,19.9-107.1c10.4-20.9,35.1-128.9,51.2-226.6c20.9-126.1,41.7-230.4,51.2-256
		c5.7-13.3,14.2-49.3,20.9-80.6c5.7-31.3,14.2-64.5,19.9-74c4.7-9.5,14.2-45.5,21.8-80.6c7.6-35.1,29.4-108.1,48.4-163.1
		c30.3-87.2,35.1-115.7,41.7-227.6c4.7-80.6,13.3-140.3,22.8-162.1c34.1-80.6,85.3-351.8,82.5-437.1
		c-1.9-38.9,72.1-346.1,92.9-390.6c10.4-20.9,23.7-59.7,30.3-84.4c17.1-68.3,37.9-56.9,56.9,31.3
		c40.8,189.6,133.7,520.5,161.2,573.6c16.1,31.3,49.3,114.7,72.1,184.9c22.8,70.2,56.9,154.5,74.9,186.8c18,32.2,32.2,65.4,32.2,74
		s7.6,27.5,18,40.8c9.5,14.2,22.8,42.7,29.4,62.6c6.6,20.9,19.9,50.3,29.4,66.4c9.5,16.1,24.7,56.9,33.2,91s29.4,92,47.4,128.9
		c18,37,32.2,72.1,32.2,78.7c0,5.7,12.3,37.9,27.5,70.2c15.2,32.2,34.1,80.6,41.7,107.1c7.6,26.5,20.9,61.6,29.4,77.7
		c8.5,16.1,15.2,37,15.2,46.5c0,9.5,7.6,37.9,18,64.5c21.8,58.8,61.6,176.4,135.6,403c31.3,96.7,69.2,205.7,84.4,241.8
		c28.4,69.2,39.8,106.2,79.6,270.2c15.2,61.6,36,116.6,53.1,144.1c16.1,24.7,38.9,71.1,50.3,104.3c36,99.6,92.9,204.8,128,239.9
		c38.9,38.9,95.8,80.6,242.7,178.3c106.2,70.2,231.3,162.1,350.8,256.9c37,29.4,90.1,68.3,118.5,88.2
		c74,49.3,158.3,131.8,165.9,162.1c3.8,14.2,19,54,34.1,89.1c31.3,71.1,34.1,109,12.3,151.7c-15.2,30.3-15.2,30.3,17.1,58.8
		c61.6,55,154.5,104.3,262.6,139.4c161.2,54,198.2,83.4,257.9,210.5c24.7,54,31.3,81.5,37,165.9c4.7,55.9,13.3,157.4,19,224.7
		c12.3,130.8,7.6,262.6-13.3,440.9c-13.3,111.9-35.1,184.9-91,298.7c-64.5,131.8-105.2,157.4-270.2,167.8
		c-128.9,7.6-250.3,20.9-327.1,34.1c-110.9,20.9-187.7,76.8-225.7,165c-10.4,23.7-27.5,48.4-37.9,54
		C22894.9,31158,22839,31158,22793.5,31144.8z"/>
	<path id="Libertad" d="M16476.9,27727.6c-152.7-147-360.3-330.9-444.7-393.5c-24.7-18-96.7-74.9-160.2-127.1
		c-64.5-52.1-147-117.6-183.9-146c-37-27.5-79.6-62.6-95.8-76.8c-29.4-28.4-122.3-75.9-147.9-75.9c-7.6,0-32.2-8.5-54-19
		c-20.9-10.4-44.6-19-52.1-19s-34.1-7.6-59.7-18c-47.4-18-116.6-29.4-340.4-54c-67.3-7.6-150.8-19.9-184.9-28.4
		c-34.1-7.6-79.6-18-100.5-22.8c-35.1-8.5-125.2-53.1-174.5-88.2c-19-13.3-49.3-50.3-194.4-238.9
		c-122.3-158.3-166.9-214.3-215.2-270.2c-41.7-47.4-45.5-55.9-45.5-100.5c0-37.9,4.7-52.1,21.8-68.3c12.3-11.4,24.7-20.9,28.4-20.9
		c2.8,0,31.3-15.2,63.5-34.1s99.6-48.4,149.8-64.5c89.1-30.3,246.5-104.3,295.8-138.4c20.9-14.2,60.7-30.3,260.7-104.3
		c26.5-9.5,71.1-24.7,99.6-33.2c28.4-9.5,56.9-20.9,62.6-25.6c23.7-18,97.7-53.1,146-69.2c28.4-9.5,77.7-31.3,109-48.4
		s84.4-39.8,118.5-50.3c34.1-11.4,90.1-39.8,124.2-62.6c35.1-23.7,98.6-58.8,142.2-77.7c43.6-18,105.2-48.4,138.4-66.4
		c32.2-18,90.1-40.8,128-52.1c37.9-10.4,88.2-30.3,111.9-43.6c69.2-39.8,132.7-69.2,203.9-93.9c38.9-12.3,101.5-46.5,150.8-80.6
		c47.4-32.2,108.1-65.4,139.4-74.9c66.4-20.9,92.9-34.1,177.3-88.2c35.1-22.8,93.9-55.9,129.9-74.9
		c180.1-92,531.9-343.2,673.2-481.7c26.5-25.6,53.1-46.5,58.8-46.5s54-41.7,108.1-92.9c54-51.2,120.4-107.1,146-125.2
		c72.1-49.3,149.8-119.5,206.7-188.7c28.4-34.1,79.6-83.4,112.8-110c44.6-34.1,82.5-76.8,136.5-154.5
		c40.8-58.8,92.9-131.8,113.8-161.2c21.8-29.4,54-81.5,71.1-115.7c18-33.2,41.7-72.1,52.1-85.3c11.4-13.3,33.2-50.3,49.3-81.5
		c16.1-32.2,59.7-108.1,95.8-168.8c37-60.7,67.3-113.8,67.3-118.5c0-3.8,16.1-29.4,36-55.9c50.3-69.2,96.7-144.1,96.7-157.4
		c0-5.7,8.5-24.7,19-41.7s19-36,19-42.7c0-20.9,57.8-125.2,81.5-146c16.1-15.2,36-21.8,59.7-21.8c31.3,0,42.7,6.6,77.7,45.5
		c55,58.8,135.6,193.4,149.8,251.3c5.7,25.6,36,87.2,66.4,137.5c79.6,132.7,129.9,231.3,152.7,300.6
		c20.9,61.6,82.5,170.7,148.9,262.6c19.9,27.5,49.3,69.2,64.5,92.9c36,55,104.3,138.4,144.1,176.4c30.3,29.4,31.3,33.2,31.3,104.3
		c0.9,41.7,6.6,88.2,13.3,103.3c9.5,21.8,11.4,116.6,8.5,421.9c-1.9,216.2-5.7,402-7.6,412.4s-17.1,32.2-32.2,49.3
		c-15.2,17.1-46.5,57.8-68.3,90.1c-22.8,33.2-62.6,83.4-89.1,111.9c-25.6,29.4-83.4,95.8-128,149.8c-44.6,53.1-86.3,96.7-92,96.7
		c-10.4,0-65.4,69.2-107.1,134.6c-7.6,11.4-43.6,49.3-79.6,83.4c-37,34.1-90.1,87.2-118.5,118.5c-29.4,31.3-77.7,80.6-108.1,109
		c-136.5,128.9-308.1,303.4-338.5,343.2c-18,23.7-62.6,65.4-99.6,92.9c-36,26.5-93.9,78.7-128,115.7
		c-162.1,173.5-470.3,476-533.8,523.4c-31.3,24.7-104.3,102.4-191.5,206.7c-15.2,19-55.9,56.9-90.1,84.4
		c-34.1,27.5-69.2,60.7-79.6,73c-9.5,12.3-37,42.7-61.6,67.3c-23.7,24.7-64.5,70.2-91,100.5c-100.5,115.7-231.3,247.5-317.6,318.6
		c-49.3,39.8-107.1,91-128,113.8c-20.9,21.8-75.9,75.9-123.3,121.4c-46.5,44.6-107.1,104.3-132.7,130.8
		C16662.8,27905.9,16659.9,27904,16476.9,27727.6z"/>
	<path id="Tagoloan" d="M44584.8,27460.3c-53.1-14.2-68.3-24.7-147-101.5c-48.4-46.5-111.9-112.8-139.4-147
		c-28.4-34.1-60.7-66.4-72.1-73c-22.8-12.3-60.7-58.8-83.4-103.3c-18-35.1-143.2-165-209.5-218.1c-25.6-19.9-55.9-45.5-67.3-55.9
		c-29.4-27.5-133.7-104.3-194.4-144.1c-128.9-84.4-324.3-122.3-583.1-112.8c-354.6,13.3-574.6,41.7-699.7,90.1
		c-15.2,5.7-37,10.4-50.3,10.4c-12.3,0-22.8,5.7-22.8,12.3c0,6.6-16.1,19.9-35.1,29.4c-56.9,26.5-194.4,110.9-231.3,143.2
		c-19,15.2-50.2,38.9-70.2,52.1c-19,13.3-52.1,37.9-74,55.9c-21.8,18-55.9,42.7-75.9,55c-19.9,12.3-64.5,52.1-99.6,87.2
		c-110,112.8-171.6,138.4-259.8,110c-35.1-12.3-67.3-33.2-107.1-71.1c-73-69.2-81.5-73-176.4-85.3c-43.6-4.7-109-16.1-146-23.7
		c-90.1-19-434.3-19-587.9,0c-63.5,7.6-189.6,14.2-287.3,14.2c-95.8,0-278.8,4.7-406.8,10.4c-179.2,7.6-234.2,7.6-244.6-0.9
		c-11.4-9.5-14.2-37-14.2-125.2c0-66.4-4.7-121.4-10.4-133.7c-25.6-47.4-92.9-116.6-173.5-177.3
		c-154.5-116.6-151.7-112.8-159.3-186.8c-14.2-144.1-26.5-248.4-37-315.7c-13.3-92-13.3-161.2,0-232.3
		c6.6-31.3,15.2-82.5,19.9-113.8c4.7-31.3,10.4-69.2,14.2-85.3c2.8-15.2,10.4-52.1,16.1-81.5c8.5-46.5,19-64.5,79.6-134.6l70.2-81.5
		l212.4-105.2c117.6-57.8,217.1-110.9,221.9-116.6c4.7-6.6,36-62.6,69.2-125.2l60.7-113.8l0.9-225.7c0.9-267.4,2.8-271.2,90.1-285.4
		c68.3-10.4,966.2-18,1221.2-10.4l203.9,6.6l23.7,26.5c13.3,14.2,38.9,43.6,55.9,65.4c74,92,154.5,108.1,568.9,111.9
		c326.2,3.8,360.3,0.9,464.6-44.6c64.5-28.4,78.7-35.1,115.7-48.4c65.4-24.7,293-170.7,332.8-214.3c68.3-74,92-125.2,127.1-276.9
		c46.5-199.1,85.3-325.2,116.6-375.5c14.2-22.8,77.7-109,141.3-191.5c108.1-139.4,124.2-155.5,232.3-236.1
		c64.5-48.4,155.5-123.3,202.9-165.9c125.2-115.7,217.1-191.5,253.2-207.6c41.7-19.9,186.8-115.7,268.3-177.3
		c57.8-43.6,73-50.3,109-50.3c23.7,0,49.3,5.7,57.8,12.3c23.7,18,114.7,176.4,223.8,385.9c34.1,67.3,156.4,284.4,233.2,417.2
		c75.9,129.9,162.1,283.5,217.1,388.7c31.3,59.7,85.3,158.3,120.4,218.1c84.4,146,121.4,219,144.1,288.2c10.4,31.3,26.5,74,36,95.8
		c9.5,20.9,20.9,48.4,23.7,61.6c3.8,13.3,12.3,37,19,52.1c7.6,16.1,23.7,58.8,36,94.8c13.3,37,35.1,96.7,49.3,132.7
		c43.6,110.9,96.7,267.4,102.4,300.6c2.8,17.1,14.2,63.5,25.6,102.4c11.4,38.9,26.5,94.8,35.1,123.3c7.6,28.4,21.8,75.9,31.3,104.3
		c8.5,28.4,21.8,75.9,27.5,104.3c6.6,28.4,21.8,86.3,34.1,128c22.8,74.9,73,274,91,355.6c4.7,23.7,15.2,64.5,22.8,90.1
		c21.8,78.7,50.2,194.4,71.1,284.4c10.4,47.4,32.2,121.4,47.4,165.9c15.2,44.6,38.9,119.5,53.1,165.9c14.2,47.4,39.8,128,55.9,180.1
		c60.7,189.6,82.5,271.2,76.8,292c-7.6,32.2-134.6,63.5-254.1,63.5c-59.7,0-99.6,4.7-117.6,13.3c-15.2,7.6-51.2,18-79.6,23.7
		c-145.1,25.6-210.5,39.8-226.6,48.4c-29.4,15.2-94.8,36-214.3,66.4c-143.2,37-170.7,44.6-219,66.4c-20.9,9.5-68.3,23.7-104.3,31.3
		c-36,7.6-84.4,21.8-108.1,31.3C44861.6,27479.2,44665.4,27482.1,44584.8,27460.3z"/>
	<path id="Initao" d="M13909.3,25957.5c-31.3-27.5-120.4-140.3-156.4-197.2c-15.2-24.7-53.1-81.5-82.5-125.2
		c-30.3-44.6-55-86.3-55-93.9c0-6.6-5.7-22.8-12.3-36c-33.2-65.4-56.9-138.4-57.8-183c-3.8-163.1,16.1-533.8,33.2-641.9
		c15.2-92,19-140.3,14.2-218.1c-3.8-55-9.5-161.2-13.3-237c-3.8-75.9-11.4-143.2-15.2-150.8c-4.7-7.6-14.2-36-20.9-61.6
		c-17.1-64.5-54-173.5-63.5-182c-3.8-3.8-6.6-15.2-6.6-26.5c0-21.8-197.2-425.7-238-486.4c-14.2-21.8-61.6-110-104.3-194.4
		c-42.7-84.4-86.3-166.9-98.6-183c-11.4-15.2-32.2-57.8-46.5-94.8c-14.2-36-43.6-98.6-64.5-137.5
		c-56.9-106.2-87.2-206.7-132.7-440.9c-40.8-208.6-80.6-283.5-232.3-432.4c-115.7-112.8-150.8-154.5-196.3-231.3l-34.1-55.9v-314.8
		c0-214.3,3.8-323.3,10.4-339.4c6.6-12.3,24.7-29.4,40.8-36c34.1-14.2,180.1-14.2,323.3,0.9c52.1,5.7,171.6,15.2,265.5,19.9
		c93.9,5.7,194.4,14.2,222.8,19c81.5,14.2,285.4,28.4,411.5,28.4c66.4,0.9,138.4,6.6,171.6,14.2c38.9,9.5,111.9,14.2,233.2,14.2
		c119.5,0,190.6,3.8,222.8,13.3c25.6,6.6,123.3,18,217.1,23.7c204.8,13.3,349.9,26.5,426.7,39.8c31.3,5.7,111.9,12.3,179.2,14.2
		c68.3,1.9,153.6,7.6,190.6,12.3c94.8,13.3,287.3,27.5,549.9,39.8c125.2,5.7,278.8,14.2,341.3,19c62.6,4.7,169.7,12.3,237,17.1
		c68.3,4.7,176.4,16.1,241.8,24.7c147.9,19.9,324.3,32.2,459.9,33.2c63.5,0,142.2,7.6,202,19c60.7,12.3,136.5,19,202,19
		c57.8,0,132.7,3.8,167.8,9.5c35.1,4.7,119.5,11.4,186.8,13.3c165.9,6.6,351.8,21.8,398.2,33.2c20.9,4.7,142.2,11.4,270.2,15.2
		c128,3.8,238.9,10.4,247.5,15.2c19,9.5,98.6,131.8,138.4,212.4c55,109,76.8,197.2,88.2,366c18,251.3,7.6,300.6-117.6,560.4
		c-55.9,113.8-95.8,183.9-128,221.9c-25.6,30.3-50.2,65.4-53.1,78.7c-3.8,13.3-35.1,73-70.2,132.7c-36,60.7-82.5,142.2-104.3,181.1
		c-93.9,168.8-290.1,462.7-326.2,491.1c-11.4,8.5-92,87.2-179.2,174.5c-86.3,88.2-164,159.3-171.6,159.3c-8.5,0-54,37.9-103.3,83.4
		c-48.4,45.5-113.8,101.5-145.1,124.2c-31.3,22.8-89.1,72.1-128,110c-38.9,37-86.3,77.7-104.3,90.1c-18,12.3-55.9,41.7-84.4,65.4
		c-28.4,23.7-65.4,52.1-82.5,62.6c-16.1,10.4-48.4,31.3-71.1,46.5c-129.9,88.2-256.9,166.9-307.2,192.5
		c-103.3,52.1-149.8,78.7-179.2,101.5c-16.1,11.4-46.5,27.5-67.3,33.2c-32.2,10.4-292,135.6-336.6,162.1
		c-7.6,4.7-55.9,28.4-106.2,52.1c-51.2,24.7-94.8,47.4-97.7,52.1s-36,17.1-74,28.4c-55.9,17.1-386.8,173.5-471.2,223.8
		c-13.3,7.6-53.1,26.5-90.1,42.7c-36,15.2-93.9,42.7-128,60.7c-34.1,17.1-86.3,37.9-116.6,45.5c-30.3,8.5-74.9,27.5-100.5,43.6
		c-43.6,28.4-101.5,51.2-280.7,110c-41.7,13.3-103.3,39.8-137.5,57.8c-149.8,79.6-272.1,135.6-351.8,161.2
		c-47.4,15.2-169.7,78.7-228.5,118.5C13994.7,25985.9,13938.7,25984,13909.3,25957.5z"/>
	<path id="Naawan" d="M18176,21256.5c-56.9-13.3-137.5-21.8-270.2-27.5c-404.9-16.1-598.3-29.4-659-44.6
		c-41.7-10.4-134.6-18-289.2-22.8c-125.2-4.7-248.4-11.4-275-16.1c-170.7-30.3-512-56.9-1028.7-78.7
		c-122.3-4.7-275.9-15.2-341.3-23.7c-65.4-7.6-193.4-18-284.4-21.8c-91-4.7-181.1-12.3-199.1-18c-18-6.6-109-16.1-203.9-21.8
		c-93.9-4.7-222.8-18-286.3-28.4c-80.6-12.3-165.9-18-279.7-18c-90.1-0.9-183-4.7-206.7-9.5s-170.7-15.2-327.1-23.7
		c-157.4-7.6-308.1-19-336.6-24.7c-28.4-5.7-141.3-16.1-251.3-23.7c-109-7.6-228.5-18-265.5-22.8c-36-4.7-113.8-8.5-172.6-8.5
		c-97.7-0.9-108.1-2.8-132.7-23.7l-26.5-22.8V20516c0-142.2,1.9-288.2,3.8-325.2c1.9-36-1.9-256-8.5-488.3
		c-11.4-383.1-11.4-431.4,3.8-531c12.3-87.2,15.2-185.8,15.2-498.7c0-301.5,2.8-392.5,12.3-399.2c5.7-4.7,54-17.1,106.2-25.6
		c52.1-9.5,127.1-23.7,165.9-30.3c38.9-7.6,128.9-17.1,199.1-21.8c71.1-5.7,140.3-14.2,155.5-19.9c54-19.9,108.1-27.5,304.4-41.7
		c110-8.5,243.7-23.7,298.7-34.1c55-11.4,150.8-23.7,213.3-28.4c62.6-4.7,149.8-13.3,194.4-19c43.6-5.7,135.6-14.2,203.9-19
		c132.7-9.5,270.2-26.5,464.6-56.9c67.3-10.4,161.2-20.9,208.6-24.7c46.5-2.8,107.1-9.5,132.7-14.2c26.5-4.7,126.1-15.2,222.8-22.8
		c96.7-7.6,201-20.9,232.3-28.4s99.6-14.2,151.7-14.2c52.1,0,130.8-6.6,175.4-14.2c44.6-7.6,123.3-19,175.4-23.7
		s135.6-18,184.9-28.4s115.7-19,147-19s74-4.7,94.8-9.5s93.9-13.3,161.2-19c68.3-6.6,150.8-17.1,184.9-23.7
		c34.1-6.6,109-15.2,165.9-19c108.1-5.7,230.4-19,497.8-54c86.3-10.4,192.5-23.7,237-27.5c164-14.2,265.5-26.5,300.6-36
		c19.9-5.7,92-12.3,159.3-16.1c68.3-2.8,145.1-11.4,170.7-19c26.5-6.6,74-15.2,104.3-19c31.3-3.8,61.6-9.5,66.4-13.3
		c5.7-3.8,35.1-9.5,66.4-13.3c71.1-7.6,272.1-57.8,310-77.7c15.2-7.6,67.3-19.9,115.7-27.5s110.9-22.8,139.4-34.1
		c63.5-25.6,181.1-60.7,406.8-123.3c225.7-61.6,559.4-172.6,624.8-208.6c73-38.9,106.2-43.6,123.3-16.1
		c94.8,150.8,125.2,217.1,180.1,388.7c39.8,127.1,74,203.9,141.3,316.7c21.8,36,54,110,72.1,162.1c18,53.1,51.2,131.8,74.9,175.4
		c22.8,43.6,57.8,128,77.7,187.7c19,59.7,40.8,123.3,48.4,140.3c28.4,66.4,7.6,110-62.6,128.9c-13.3,3.8-51.2,19-85.3,34.1
		s-102.4,37.9-151.7,51.2c-183,50.3-276.9,80.6-348,113.8c-40.8,19-108.1,44.6-149.8,57.8c-111.9,34.1-188.7,61.6-198.2,72.1
		c-5.7,4.7-19.9,8.5-33.2,8.5c-14.2,0-37,6.6-52.1,14.2c-15.2,8.5-43.6,19-61.6,23.7c-119.5,30.3-383.1,114.7-441.8,141.3
		c-20.9,9.5-61.6,28.4-90.1,41.7c-28.4,12.3-98.6,35.1-156.4,48.4c-56.9,14.2-127.1,36-155.5,49.3c-28.4,12.3-86.3,32.2-128,42.7
		c-42.7,10.4-111.9,36-154.5,56.9c-43.6,19.9-86.3,37-94.8,37c-16.1,0-220.9,69.2-448.5,151.7c-142.2,51.2-166.9,60.7-181.1,72.1
		c-7.6,5.7-39.8,26.5-73,45.5c-33.2,19.9-58.8,38.9-56.9,42.7c3.8,8.5,86.3,140.3,202.9,321.4c52.1,81.5,101.5,164,108.1,182
		c7.6,18,81.5,135.6,164,259.8c176.4,265.5,280.7,435.2,426.7,691.2c62.6,110,74.9,152.7,52.1,175.4c-8.5,8.5-66.4,11.4-205.8,10.4
		C18291.7,21275.5,18242.4,21271.7,18176,21256.5z"/>
	<path id="Manticao" d="M12370.5,18165.6c-14.2-22.8-90.1-314.8-129.9-496.8c-26.5-124.2-122.3-318.6-229.5-469.3
		c-87.2-122.3-152.7-190.6-230.4-242.7c-29.4-19-70.2-55-91-79.6c-45.5-53.1-94.8-81.5-221.9-126.1
		c-108.1-37.9-241.8-99.6-316.7-147c-77.7-49.3-120.4-92-143.2-145.1c-11.4-26.5-32.2-68.3-47.4-92.9c-36-58.8-66.4-167.8-73-268.3
		l-5.7-83.4l35.1-33.2c19.9-18,40.8-33.2,47.4-33.2c6.6,0,22.8-7.6,35.1-17.1c21.8-17.1,104.3-61.6,298.7-163.1
		c46.5-24.7,114.7-65.4,151.7-92c94.8-68.3,125.2-84.4,188.7-102.4c67.3-19.9,113.8-42.7,184.9-90.1c52.1-35.1,84.4-53.1,137.5-79.6
		c16.1-7.6,62.6-33.2,103.3-56.9c41.7-23.7,101.5-52.1,132.7-62.6c32.2-10.4,86.3-35.1,121.4-55c100.5-55.9,293.9-172.6,330-200.1
		c18-13.3,57.8-37.9,88.2-54c30.3-16.1,77.7-47.4,104.3-69.2c27.5-21.8,94.8-69.2,150.8-105.2c123.3-79.6,187.7-130.8,287.3-230.4
		c41.7-41.7,97.7-91,123.3-110.9c26.5-19,92-68.3,147-109c54-39.8,110-87.2,123.3-104.3c35.1-44.6,117.6-116.6,190.6-168.8
		c35.1-24.7,74.9-60.7,90.1-80.6c15.2-19,44.6-54,66.4-77.7c70.2-75.9,76.8-110,89.1-464.6c8.5-258.8,24.7-415.3,43.6-436.1
		c11.4-12.3,62.6-15.2,314.8-17.1c184.9-1.9,318.6,0,348,6.6c43.6,8.5,831.5,26.5,1570.1,34.1c165,1.9,311,6.6,324.3,9.5
		c14.2,3.8,124.2,8.5,245.6,9.5c121.4,1.9,447.5,8.5,723.4,14.2c276.9,4.7,714,14.2,971.9,19c718.7,14.2,976.6,23.7,1017.4,37
		c38.9,12.3,110.9,71.1,110.9,90.1c0,6.6,10.4,21.8,22.8,33.2c13.3,12.3,34.1,43.6,46.5,71.1c37,76.8,200.1,319.5,243.7,361.2
		c37.9,37,66.4,80.6,116.6,175.4c22.8,45.5,258.8,397.3,320.5,478.8c19.9,26.5,42.7,64.5,51.2,84.4s28.4,47.4,44.6,60.7
		c15.2,13.3,37.9,37.9,48.4,54c11.4,17.1,64.5,95.8,117.6,174.5c54,78.7,122.3,176.4,152.7,217.1c30.3,39.8,75.9,105.2,100.5,145.1
		c25.6,39.8,76.8,112.8,115.7,161.2c37.9,49.3,85.3,118.5,104.3,153.6c19,36,64.5,108.1,101.5,161.2
		c137.5,198.2,184.9,268.3,214.3,318.6c30.3,51.2,64.5,94.8,139.4,180.1c47.4,53.1,76.8,123.3,62.6,149.8
		c-15.2,28.4-40.8,45.5-115.7,79.6c-38.9,17.1-88.2,42.7-109,56.9c-20.9,13.3-55,34.1-75.9,45.5s-44.6,23.7-52.1,28.4
		c-28.4,18-81.5,40.8-151.7,64.5c-66.4,23.7-195.3,84.4-220.9,105.2c-5.7,4.7-43.6,19.9-82.5,33.2c-38.9,14.2-113.8,46.5-165.9,72.1
		c-52.1,26.5-103.3,48.4-113.8,48.4s-46.5,13.3-80.6,29.4s-78.7,36-99.6,42.7c-19.9,7.6-57.8,27.5-83.4,43.6
		c-25.6,17.1-79.6,41.7-119.5,55.9c-39.8,13.3-112.8,40.8-162.1,60.7c-49.3,19-119.5,45.5-156.4,58.8c-36,12.3-98.6,36-137.5,52.1
		c-122.3,49.3-189.6,71.1-346.1,111.9c-83.4,21.8-185.8,54-227.6,71.1c-41.7,18-103.3,38.9-137.5,47.4s-82.5,25.6-109,37.9
		c-25.6,12.3-78.7,26.5-116.6,32.2s-93.9,20.9-125.2,34.1s-66.4,23.7-77.7,23.7c-12.3,0.9-38.9,6.6-59.7,14.2
		c-20.9,8.5-78.7,19-128.9,23.7c-50.3,5.7-120.4,19-156.4,29.4c-36,11.4-111.9,22.8-169.7,27.5c-183.9,13.3-329,29.4-428.6,48.4
		c-53.1,9.5-114.7,18-137.5,18c-22.8,0-98.6,8.5-168.8,18c-183.9,27.5-276.9,37.9-469.3,52.1c-93.9,7.6-202,20.9-239.9,28.4
		c-37.9,8.5-92,15.2-118.5,15.2c-27.5,0-74.9,3.8-105.2,9.5c-31.3,4.7-110,13.3-174.5,19c-65.4,5.7-152.7,18-195.3,28.4
		c-41.7,9.5-118.5,19.9-168.8,22.8c-51.2,3.8-103.3,10.4-116.6,15.2c-12.3,4.7-94.8,13.3-182,19c-87.2,5.7-189.6,16.1-227.6,23.7
		s-131.8,19-208.6,23.7c-76.8,5.7-180.1,16.1-227.6,23.7c-48.4,7.6-114.7,14.2-147,14.2c-33.2,0-96.7,6.6-142.2,14.2
		c-46.5,8.5-120.4,20.9-165.9,28.4c-46.5,7.6-107.1,14.2-135.6,14.2s-77.7,6.6-109,14.2c-38.9,9.5-113.8,13.3-239.9,14.2
		c-163.1,0-197.2,2.8-328.1,28.4c-91,18-202.9,32.2-300.6,37.9c-85.3,5.7-193.4,16.1-240.8,24.7c-46.5,7.6-129.9,18-184.9,22.8
		c-55,3.8-140.3,16.1-189.6,26.5c-113.8,23.7-221.9,37.9-357.5,45.5C12386.6,18187.4,12384.7,18187.4,12370.5,18165.6z"/>
	<path id="Lugait" d="M10842.1,15906.1c-27.5-27.5-42.7-79.6-42.7-145.1c0-26.5-6.6-80.6-15.2-118.5c-9.5-42.7-18-152.7-22.8-287.3
		c-5.7-141.3-13.3-238-22.8-275c-12.3-45.5-16.1-142.2-19.9-488.3c-2.8-237-7.6-566-10.4-730.1c-5.7-292-5.7-302.5,19.9-469.3
		c18-117.6,26.5-212.4,27.5-304.4c0.9-102.4,3.8-137.5,15.2-150.8c13.3-15.2,38.9-16.1,450.4-10.4c239.9,3.8,611.6,10.4,824.9,16.1
		c214.3,4.7,600.2,13.3,858.1,18c625.8,12.3,1123.6,23.7,1125.5,26.5c0.9,0.9,8.5,8.5,16.1,17.1c13.3,12.3,15.2,48.4,15.2,244.6
		c0,303.4-14.2,519.6-38.9,569.8c-32.2,68.3-83.4,158.3-100.5,177.3c-9.5,10.4-55,48.4-102.4,83.4c-46.5,35.1-113.8,92-147.9,127.1
		c-61.6,61.6-100.5,92.9-221.9,177.3c-31.3,21.8-84.4,65.4-118.5,96.7c-34.1,31.3-80.6,74.9-104.3,96.7
		c-87.2,80.6-169.7,145.1-289.2,225.7c-67.3,46.5-171.6,116.6-229.5,156.4c-58.8,39.8-118.5,79.6-132.7,88.2
		c-15.2,8.5-67.3,40.8-116.6,70.2c-91,55.9-248.4,137.5-264.5,137.5c-18,0-112.8,47.4-140.3,70.2c-16.1,13.3-45.5,30.3-66.4,37.9
		c-34.1,12.3-123.3,64.5-212.4,123.3c-22.8,16.1-88.2,47.4-146,70.2c-66.4,26.5-143.2,68.3-211.4,113.8
		c-59.7,38.9-125.2,76.8-146,84.4c-21.8,7.6-69.2,31.3-106.2,53.1c-95.8,55-242.7,120.4-274,120.4
		C10876.2,15928.9,10855.3,15919.4,10842.1,15906.1z"/>
</g>
<g id="DEO1st">
	<path id="Magsaysay" d="M6655.5,985.4c-6.3,3.2-14.6,8-18.5,10.4c-3.9,2.5-7.5,4.5-7.9,4.5c-0.5,0-2.3,1.1-4,2.6
		c-1.6,1.5-6.6,5.4-11,8.8c-9.7,7.5-20.7,18.3-35.1,34.6c-12.1,13.7-15.5,17.8-18.9,23.8c-2.2,3.8-10.3,16.1-16,24.4
		c-4.2,6-6.7,10.5-6.7,12.1c0,0.9-0.9,4-1.9,7.1c-3.4,9.8-4.7,28.9-5.3,76.7c-0.3,24.5-0.9,45.8-1.3,47.4
		c-0.4,1.5-0.8,32.3-0.8,68.4c-0.1,72.9,0.2,69.7-6.7,86.2c-2,4.6-4,9.6-4.4,10.9c-1.5,5.1-7.2,15.1-12.8,22.6
		c-5.7,7.6-12.2,13.8-24.5,23.1c-3.2,2.5-7.1,6.3-8.6,8.3c-3.2,4.5-5.8,14.7-5.8,22.9c0,3.1-0.5,6.4-1,7.5
		c-1.5,2.9-1.7,58.2-0.1,59.8c0.7,0.7,1.1,3.8,1.1,7.9c0,3.6,0.5,8.3,0.9,10.4c0.6,2.1,1.3,8.2,1.8,13.7c0.5,5.5,1.7,13.2,2.7,17.1
		c1.7,6.4,3.1,13.4,4.4,21.3c1.2,7.8,9.6,34.5,12.5,40.1c0.7,1.4,1.3,3,1.3,3.7c0,2,8.7,29.2,10.5,32.6c0.9,1.9,3.5,8.7,5.7,15.2
		c2.2,6.4,5.4,14.7,7.1,18.4c1.8,3.6,3.2,7.3,3.2,8.1c0,0.9,0.4,1.9,0.9,2.5c2.1,2.1,7.9,17.2,10.9,28c1.7,6.4,3.8,13.7,4.6,16
		c2.5,7,4.6,17.1,5.5,25.1c1.4,13.8,2.6,21.7,4.2,28.4c1.1,4.9,1.4,9.3,1.1,17.1c-0.8,16.1-1.6,19.2-13.1,44
		c-5.4,11.5-5.4,11.4-1.8,36.6c0.5,3.1,1.4,11.2,2.3,18c0.8,6.7,2.1,15.5,2.8,19.4c0.9,3.9,2.8,15.5,4.5,25.6
		c2.8,17.8,3.7,22.4,5.5,32c0.5,2.6,1.3,7.3,1.9,10.7c0.6,3.4,1.4,8.2,2.1,10.9c0.6,2.6,1.3,9,1.8,14.2c0.4,5.2,1.2,15.6,1.9,23.2
		c0.7,8.6,0.9,21.1,0.5,33.7c-0.7,21.1-0.9,22.7-8.2,43c-0.9,2.8-1.8,5.7-1.8,6.4c0,0.8-2.5,5-5.4,9.5c-3,4.5-6.4,9.3-7.4,10.9
		c-1,1.5-4.2,6-6.8,9.8c-3.7,5.1-5,7.9-5,10.2c0,3,0.6,3.6,9.1,9.3c17,11.5,27.4,17.9,29.1,17.9c0.9,0.1,1.6,0.5,1.6,1
		c0,0.5,3.1,2.8,6.9,5.3c3.7,2.5,9.4,6.2,12.5,8.2c3,2,8.2,4.9,11.4,6.5c3.1,1.6,9.6,5.3,14.2,8.3c4.7,2.9,11.3,6.9,14.7,8.9
		c3.4,1.9,11.3,7.1,17.5,11.5c6.3,4.5,15.3,10.4,19.9,13.4c4.7,2.9,11.2,7.2,14.4,9.5c3.2,2.3,6.3,4.2,6.7,4.2s1.4,0.7,2.1,1.4
		c0.7,0.8,4.5,3.2,8.4,5.4c4,2.2,10.2,6,13.8,8.3c3.7,2.5,8.9,5.6,11.8,7c2.8,1.5,7.7,4.6,10.9,7.1s7.3,5.3,9.1,6.3
		c1.8,0.9,5,2.7,7.1,3.7c2.1,1.1,6.4,3.7,9.4,5.7c3.1,2.1,9.1,5.3,13.3,7.3c4.3,1.9,10.1,5.4,13.1,7.7c6.7,5.1,24.9,16.9,36.8,23.7
		c13.9,8.1,28.2,17.5,28.7,19.2c1.3,3.3,9.4,0.5,17.4-6c4-3.3,14.1-10.6,17.7-12.8c1.6-1,5.1-3.6,7.7-5.8c2.7-2.2,5.8-4.6,7.1-5.2
		c1.3-0.7,5.1-3.4,8.5-6.1c9.2-7.3,11.3-8.7,18.1-13.3c3.5-2.4,6.6-4.6,7-5.2c0.3-0.6,3-2.7,6-4.7c2.9-2.1,7.6-5.8,10.2-8.3l4.8-4.6
		l0.9-14.2c1-18.2,1-30.2,0-45.1c-0.9-13.2-2.6-17.8-6.4-17.8c-1,0-5.9-0.9-10.6-2.1c-11.5-2.7-13.5-4.6-14.4-13.5
		c-0.9-7.4,0.2-25.8,1.5-28.3c1.2-2.3,1-8.7-0.3-10.1c-1.3-1.3-11.5-1.5-13.8-0.3c-2.9,1.5-19.4,3.1-31.5,3l-11.9-0.2l-8.9-4.5
		c-7.5-3.7-9.7-5.4-13.5-10.1c-6.4-8-6.8-10.1-6.3-31.8c0.5-17.9,0.7-18.8,3.8-28c1.8-5.2,4.2-12.7,5.3-16.6c1.2-3.9,2.8-9,3.6-11.4
		c0.8-2.4,1.7-5.8,2.1-7.6s1.2-4.3,1.8-5.4c1.7-3.1,1.3-7.4-0.8-9.3c-2.5-2.2-8.1-4.3-11.9-4.3c-1.6,0-5.9-0.7-9.5-1.5
		c-3.7-0.9-10-1.9-14-2.3c-4.1-0.4-7.9-1.1-8.5-1.7c-0.7-0.5-6-3.4-11.9-6.4c-9.6-4.9-15.3-9.5-15.3-12.1c0-0.4-1.9-2.9-4.3-5.6
		c-5.5-6.3-8.3-12.2-11.4-23.4c-2.2-8.2-2.4-10.5-2.3-27c0-10,0.5-24.8,1-33.2c0.5-8.3,1-17.4,1.2-20.2c0.3-6.2,1.8-9.8,6.4-15.8
		c3.1-4.4,5-5.6,18.5-12.3c8.2-4.1,15.9-8.3,17.2-9.4c3.4-3,2.7-7.4-2.7-18l-4.8-9.2l4.7-5.3c3.8-4.5,6.7-6.4,16.8-11.6l12.2-6.3
		l0.3-4.4c0.3-4.4-0.8-6.2-5.4-8.8c-0.9-0.6-4.9-3.7-8.9-7c-6-5-7.8-7.3-11.2-13.9l-4.1-7.9l1.1-7.5c2-13.6,2.4-24.9,0.9-31.3
		c-0.8-3.2-1.7-6.4-2.1-6.9c-0.4-0.6-1.2-3.5-1.9-6.4c-0.7-3-1.9-7.6-2.8-10.1c-0.9-2.7-2.1-6.1-2.6-7.6c-1.6-4.6-1.1-7.1,2.1-10.4
		c3.9-4,10.8-6.3,17-5.5c4.2,0.5,4.7,0.3,6.2-1.9c1.2-1.8,1.4-3.5,0.9-7.4c-0.4-2.8-0.9-5.6-1.3-6.1c-0.4-0.6-1.2-2.7-1.9-4.7
		c-0.6-2.1-1.7-5.1-2.5-6.8c-0.8-1.6-1.3-3.3-1.3-3.8c0-0.5-1.1-1.9-2.5-3.2c-2.4-2.2-2.7-2.3-15.3-2c-11.9,0.3-13.2,0.1-17-1.9
		c-4.9-2.6-5.8-4.6-7-16.8c-0.9-8.5-0.9-9.2,1.5-15.2c3.6-9.1,8.3-18.3,11.9-23.5c5.5-7.9,8.3-14.4,8.3-19c0-3.8-0.5-4.7-5.4-10
		c-3-3.1-7.5-7.1-10-9c-5.2-3.7-13.8-16.1-14.4-20.6c-0.2-1.6-1-7.9-1.9-13.8c-0.9-6-1.7-13.1-1.9-15.6c-1.1-14.1-2.7-27.7-3.4-29.4
		c-0.8-1.7-2.2-11.3-3.2-21.8c-0.2-2.1-0.9-5.7-1.4-8.1c-0.6-2.4-1.4-8.3-2-13.3c-0.5-4.9-1.3-12-1.9-15.6
		c-1.6-10.3-2.7-19.1-3.8-29.4c-0.5-5.2-1.4-11.4-2.1-13.7c-0.6-2.4-1.4-6.8-1.8-10c-0.4-3.1-1.1-9.1-1.7-13.3s-1.2-11.5-1.5-16.1
		c-0.4-4.7-1.2-10.3-2-12.5c-0.8-2.1-1.8-8.3-2.3-13.7c-0.4-5.3-1.2-11.7-1.8-14s-1.4-8.7-1.9-14.2c-0.5-5.5-1.4-12.1-2-14.7
		c-0.6-2.7-1.5-8.3-2-12.8c-2.3-19.6-2.7-22.7-3.6-28.9c-1-6.4-1.7-10.7-4-26.1c-0.6-3.9-1.3-11.6-1.6-17.1
		c-0.4-5.5-1.1-10.8-1.7-11.9c-0.6-1-1.3-6-1.7-10.9c-0.3-4.9-1.2-11.1-2-13.6c-0.8-2.6-1.6-9.1-2-14.7c-0.3-5.6-0.9-11.3-1.4-12.6
		c-0.6-1.4-1.6-7.6-2.3-13.7c-0.8-6.3-1.8-14.3-2.4-17.9c-0.5-3.7-1.3-9.9-1.9-13.7c-0.5-3.9-1.3-9.3-1.8-11.9
		c-0.6-2.7-0.9-7.4-0.9-10.7c-0.1-3.2-0.8-7.5-1.5-9.4c-0.9-2.1-1.4-6.4-1.4-11.7c0-5.1-0.6-9.6-1.4-11.7c-0.8-1.8-1.6-6.8-1.9-11.2
		c-0.4-4.4-1.2-10.7-2-14.1c-0.8-3.4-1.8-10.4-2.2-15.6c-0.5-5.2-1.3-11.7-2-14.2c-0.6-2.7-1.4-8.3-1.9-12.8
		c-1.4-12.7-2.6-19-3.8-20.5C6672.6,978,6667.3,979.3,6655.5,985.4z"/>
	<path id="Talisayan" d="M4724.1,1454.5c-9.8,0.9-13.7,2.3-21.4,7.5c-3.9,2.5-8.5,5.3-10.3,6.3c-3.2,1.6-11.6,6.8-21.7,13.7
		c-2.7,1.9-5.9,4.5-6.8,5.7c-2.7,3.4-2.3,9.9,1.4,21.1c1.8,5.4,3.5,11.3,3.9,13.1c0.4,1.8,1.2,4.4,2,5.7c0.7,1.3,1.4,3.9,1.8,5.8
		c0.3,2,1.1,4,1.9,4.6c0.8,0.7,1.4,2.2,1.4,3.5c0,1.2,0.8,3.8,1.7,5.8c0.9,1.9,2.3,5.4,3,7.8c0.7,2.4,2,6,2.9,8.2
		c1,2.1,1.8,4.4,1.8,5c0,0.7,0.6,2.4,1.3,3.7c0.8,1.4,2.9,7.2,4.8,13c1.9,5.7,4.3,12,5.4,14.1c1,2,3.1,7.3,4.6,11.9
		c1.5,4.5,4.3,12.2,6.2,17.2c6.1,15.6,8.9,23.9,11.9,34.6c4.7,17.5,5.1,19,5.8,19.4c0.4,0.3,0.9,2,1.3,3.8c0.4,1.8,1.4,4.8,2.4,6.6
		c2.3,4.6,5.7,15.5,5.7,18.3c0,1.2,0.9,3.4,1.9,4.7c1,1.3,1.9,3.1,1.9,4.1c0,0.9,1.2,3.6,2.7,6s3.4,6.9,4.4,10.1
		c0.9,3.1,2.2,6.6,2.9,7.9c0.9,1.2,2,4,2.7,6.2c1.9,5.9,6,15.6,8.5,20.7c1.2,2.5,2.9,7.1,3.8,10.4c0.9,3.3,2.4,8,3.5,10.3
		c1,2.4,3.8,10.6,6,18.5c2.3,7.8,6.6,22.9,9.9,33.5c3.2,10.6,5.8,19.8,5.8,20.5c0,0.8,0.9,2.4,1.9,3.7c1,1.3,1.9,3,1.9,3.7
		c0,0.8,1.1,3.5,2.5,6.1c1.3,2.6,3,6.7,3.9,9.4c0.8,2.6,2.3,6.1,3.2,7.7c1,1.7,2.3,5.5,2.8,8.5c0.6,3.1,2.3,8.2,3.8,11.4
		c1.5,3.1,4.5,11.5,6.4,18.5c3.9,13.4,8.5,27.2,12.9,38.3c1.4,3.6,3.9,11,5.6,16.2c1.6,5.3,3.4,10.2,4.1,10.9c0.6,0.8,2,4.3,3.2,8
		c1.1,3.6,2.8,8.3,3.8,10.4c1.5,3.4,4.6,13.1,10.3,31.3c1.1,3.6,2.4,6.8,2.7,7.1c0.4,0.3,1.2,2.8,1.9,5.7c1.6,6.8,11.2,35.7,13,39
		c0.8,1.4,1.8,4.9,2.4,7.7c0.6,2.7,1.4,5.2,1.7,5.5c0.4,0.3,1.9,4.6,3.3,9.5c4.2,14,5.9,18.4,13.3,33.1c6.5,12.9,8.8,19.6,10.5,30.4
		c0.4,2.4,1.5,7.5,2.6,11.4c1.6,6.1,3.5,23.6,3.6,32.5c0,3.1,1.9,4.1,4.9,2.5c1.2-0.7,4.2-1.9,6.5-2.7c7.6-2.7,17.4-9.3,25.6-17.4
		c8.4-8.2,13.9-15.4,26.5-34.3c2.4-3.6,8-11.1,12.3-16.7c15.4-19.5,18.4-23.4,18.8-24.7c0.2-0.7,2-3.1,4-5.4c2-2.3,5.1-6.7,6.9-10
		c1.8-3.1,5.5-8.3,8.2-11.5s6.3-8,7.9-10.6c2.9-4.7,10.7-15.8,28.1-40c4.4-6.1,10-13.2,12.4-15.7c2.4-2.7,6.3-8,8.5-11.9
		c2.3-3.9,6.2-9.3,8.7-12c2.5-2.7,4.6-5.3,4.6-5.8c0-0.5,2.4-3.5,5.3-6.9c2.9-3.3,5.8-7.1,6.4-8.4c0.6-1.3,2.8-4.4,5.1-6.8
		c2.3-2.5,4.6-5.7,5.2-7.1c0.7-1.4,2.5-4.4,4.1-6.4c5.6-7.3,12.8-19.1,12.8-21c0-1.3,2.3-4,6.2-7.5c5.8-5,15.6-17.3,15.6-19.2
		c0-0.5,2.1-3,4.6-5.7c4.1-4.2,13.4-17.2,13.4-18.7c0-0.3,1.9-3.5,4.3-7c2.4-3.5,4.3-6.7,4.3-7.1c0-1.5,6.6-10.1,12.7-16.4
		c3.7-3.8,7.3-8.1,8-9.4c0.8-1.3,3.9-6,6.9-10.3c3-4.3,5.6-8.2,5.6-8.8s0.4-1,0.8-1c0.4,0,2.6-3.2,4.7-7.1c6.7-12,5.5-15.1-9.8-22.5
		c-4.2-2-9.7-5.1-12.3-6.9c-8.8-6.1-19.4-14.1-19.4-14.7c0-0.3-3.8-4.6-8.4-9.4c-4.6-4.8-10.5-11.9-13.1-15.5
		c-2.5-3.7-6.4-9.2-8.6-12.2c-2.2-2.9-5.8-8.2-8-11.9c-4.3-7-12.9-17.4-16.8-20c-2.8-1.9-13.8-2.7-56.5-3.9
		c-15.1-0.5-28.8-1.1-30.3-1.6c-1.6-0.5-4.8-2.2-7.2-3.7c-3.6-2.3-5.2-4.4-8.5-10.9c-4.6-9.3-11.2-19.7-13.7-21.9
		c-2.9-2.6-20.3-11.3-26.5-13.3c-3.1-1-9.5-2.3-14.2-2.7c-9.6-0.9-15.6-3.6-31.5-13.8c-8.4-5.4-8.8-5.8-12.8-13.7
		c-15.7-30.3-19.3-36.8-21.5-39.2c-4.4-4.7-17.3-12.6-22.7-13.7c-2.8-0.7-12.8-1.1-22.6-1.1h-17.4l-12-6.2c-6.6-3.4-13.4-7.4-15-8.8
		c-3.6-3.3-7.5-5.1-17.1-7.9c-4.2-1.1-9.3-2.9-11.3-4c-2.1-0.9-5.7-2.4-8.2-3.1c-3.8-1.1-5.9-2.7-12.4-10c-4.4-4.7-8.2-9.4-8.6-10.3
		c-0.3-0.9-1.5-6.4-2.7-12.2c-2.1-10.6-2.1-12.6-0.4-29c0.8-8-2.7-30.7-5.3-35.2C4742.1,1453.2,4740.1,1452.8,4724.1,1454.5z"/>
	<path id="Balingoan" d="M4646.4,1497.2c-2.1,1-5.7,2.5-8.1,3.1c-2.4,0.7-6.5,2.4-9.4,3.8c-2.8,1.3-5.9,2.5-6.6,2.5
		c-0.9,0-5.3,1.9-10.1,4.3c-6.4,3.1-10.4,4.5-16.1,5.3c-4.2,0.6-29.6,1.5-56.5,2.2c-35.7,0.8-49.3,1.3-50.3,2.2
		c-1.6,1.3-2.9,9.9-5,31.6c-0.9,8.6-2.2,19.2-3,23.7s-1.8,13.2-2.2,19.4c-1.8,28.7-3.1,41.6-5.4,53.1c-2.4,11.8-2.6,13.8-2.7,45.5
		c-0.1,18.2,0.2,36.8,0.7,41.2c0.5,4.5,1.2,14.4,1.8,22.3c1.4,19.5,5.6,43.9,8.1,46.4c0.8,0.8,2.3,3.6,3.4,6.4
		c1.8,4.7,7.2,14.9,8.3,15.9c0.4,0.3,1.8,2.4,3.3,4.7s4.6,6,6.6,8.1c4.2,4.1,14.8,17.2,21,26c2.1,2.9,10.2,11.9,18.2,19.8
		c7.9,8,16.1,16.4,18.2,18.9c2.2,2.4,5.3,5.4,6.9,6.6c1.7,1.2,4.8,4.8,7.1,8c2.2,3.2,7.1,9.2,10.9,13.4s7.1,8.1,7.3,8.6
		c0.8,2.4,4.2,5.9,13.1,13.7c11.3,9.8,17.9,16.7,24.3,25c2.7,3.6,5.1,6.4,5.5,6.4c1.7,0,6.4,9.5,7.5,15.1c0.7,3.8,1.1,21.9,1.2,49.8
		l0.2,43.7l-2.9,5.2c-1.5,2.8-3.4,6.9-4,9c-0.6,2.1-2.7,6.4-4.6,9.8c-2,3.2-9.1,15.2-15.7,26.5l-12.2,20.5l0.7,12.9
		c0.3,7.1,1,17.8,1.5,23.8c0.6,6,1.3,22.3,1.7,36.3c0.4,13.9,1,25.6,1.4,26c0.8,0.8,181.1,0.9,232.9,0.3c19.5-0.3,42-0.1,49.8,0.4
		l14.2,0.8l-0.3-23.5c-0.2-18.9-0.6-25.6-2.1-33.5c-1-5.3-1.9-11.3-1.9-13.3c0-1.9-1.7-8.7-3.8-15.2c-2.1-6.4-3.8-12.1-3.8-12.6
		c0-0.5-2.9-6.9-6.5-14.3c-3.6-7.4-7.7-17.4-9.1-22c-1.3-4.7-3.3-10.7-4.4-13.3c-0.9-2.7-2.5-6.9-3.1-9.5
		c-0.8-2.7-3.3-10.1-5.6-16.6c-5.8-16.3-7-20-7.7-23c-0.4-1.4-1-2.6-1.5-2.6c-0.6,0-0.9-0.8-0.9-1.7c0-3.3-11.9-41.3-14.6-46.5
		c-0.8-1.4-1.6-4.2-2-6.2c-0.4-1.9-1.2-3.9-2-4.3c-0.8-0.4-2.9-6.3-5-13.1c-2-6.8-4.6-14.2-5.7-16.3c-2.6-5-10.3-28.4-14.3-43.3
		c-1.7-6.3-4.5-14.1-6.2-17.5c-1.7-3.4-3.4-8.1-3.8-10.4c-0.4-2.4-1.7-6.6-3-9.5c-1.3-2.8-2.9-7-3.6-9.2c-0.7-2.2-2.5-6.1-4-8.5
		c-2.9-4.7-5-10.2-7.4-19.7c-0.8-3.1-3.3-11.5-5.6-18.5c-2.3-7-5.8-18.8-7.8-26.1c-2-7.3-4.4-14.6-5.3-16.1c-0.9-1.6-3-7.1-4.6-12.3
		c-1.6-5.2-3.3-10-3.7-10.4c-0.4-0.6-1.2-2.8-1.9-5.2c-0.6-2.4-2.4-6.5-4-9.4c-3.2-5.9-4.7-9.7-8-21c-1.3-4.5-4.2-11.3-6.4-15.2
		c-2.8-5-4.8-10.2-6.7-17.8c-1.5-6.3-3.2-11-4-11.5c-1.4-0.8-6.2-15.7-9.8-30.9c-2.2-9.2-5.9-20.5-8.4-26.2
		c-2.6-5.5-8.1-20.7-10.1-27.9c-0.9-3.1-2.7-7.4-3.8-9.5c-1.2-2.1-4-9.1-6.2-15.6c-2.3-6.5-4.4-12.3-4.7-12.8
		c-1.2-1.5-5.7-12.8-7.6-19c-0.9-3.1-3.1-9.3-4.7-13.7c-1.6-4.5-3.3-9.4-3.8-10.9c-6.9-24.3-9.3-31.8-10.4-33.2
		C4655.7,1494.7,4651,1494.9,4646.4,1497.2z"/>
	<path id="Kinoguitan" d="M4387.6,1515.6c-0.5,0.2-5.9,1.4-11.9,2.7c-15.9,3.6-18.1,4.4-21.2,6.7c-5.7,4.2-20.2,7.5-41.7,9.5
		c-8.5,0.8-31.8,6.9-37.1,9.8c-2.7,1.5-5.9,4.3-7.6,6.6l-2.8,4.2l0.1,14.3l0.1,14.4l6.7,12.8c8.3,15.9,11.7,22.5,15.1,30.2
		c1.4,3.4,3.5,7.5,4.6,9c1,1.6,3.3,6.7,5.1,11.5c3.2,8.6,13.2,29.3,16.2,33.7c0.9,1.3,2.7,6.2,4.2,10.9c2.6,8.2,9.7,20.9,15.2,26.8
		c2.3,2.6,19,12.7,28.3,17.4c3.6,1.7,8.7,5,11.6,7.4c2.7,2.4,6.1,5,7.3,5.9c1.2,0.9,4.4,5,6.9,9.3c2.7,4.3,6.4,9.9,8.3,12.3
		c2,2.5,5.2,7.1,7.1,10.2c1.9,3.2,5.1,8.2,7.1,11.3c6.5,10.2,13.3,22.6,17.2,31.7c3.7,8.5,7.1,15.2,14.3,27.6
		c1.7,2.9,3.8,7.6,4.7,10.3c0.9,2.8,2.8,7.5,4.3,10.3c1.4,2.9,3.1,7,3.8,9.1c0.7,2.1,2.7,6.7,4.7,10.4c9.3,17.2,12.7,24.7,16.7,36.5
		c2.4,7,5.8,15.4,7.7,18.5c1.8,3.1,4.5,9.1,5.8,13.3c1.3,4.2,3.7,9.4,5.2,11.7c3,4.5,7.3,14.4,7.3,16.9c0,0.9,1.5,4.1,3.5,7.1
		c3,5,6.4,8.1,14,13c1,0.7,4.4,2.7,7.4,4.7c3,1.9,8.2,5.5,11.6,8c3.2,2.5,8.4,6.1,11.5,8.1c3.1,2,8.3,5.6,11.8,8
		c3.4,2.5,8.7,5.8,11.9,7.5c3.1,1.8,10,5.9,15.3,9.1c5.2,3.2,14.6,8.6,20.9,11.9c6.2,3.4,14.6,8.2,18.6,10.6c5.3,3.3,7.9,4.5,9.5,4
		c5.2-1.3,5,0.2,4.8-34.4c-0.1-20-0.6-35.3-1.3-40.6c-1-7.5-1.6-9.1-5.5-14.7c-2.4-3.4-4.6-6.4-4.8-6.6c-0.3-0.3-2.3-2.8-4.5-5.8
		c-4.3-5.6-16.1-17.2-25.5-25c-3.1-2.7-7.2-6.6-8.9-9c-5-6.6-17-20.6-23.2-27c-3.1-3.2-8.4-9-11.9-12.9c-3.4-3.8-11-11.8-16.9-17.5
		c-5.9-5.9-12.3-12.8-14.2-15.4c-1.9-2.7-6.1-7.9-9.2-11.8c-3.2-3.8-7.1-8.9-8.8-11.5c-1.7-2.5-3.7-4.5-4.5-4.5
		c-0.8,0-1.4-0.4-1.4-0.8c0-0.5-2.7-3.7-5.9-7.2c-13.3-14.3-15.6-20.3-22.1-53.7c-0.8-3.9-1.6-10.1-1.9-13.7
		c-0.3-3.6-1.1-7.9-1.9-9.7c-2.6-6.2-3.2-17.3-2.9-51.1c0.2-26.1,0.7-36.8,1.9-45.5c0.9-6.3,1.8-15.3,2-19.9
		c1.7-34,4.4-61.4,7.2-74.9c0.5-2.7,1.8-10.9,2.8-18.5c1-7.6,2.4-17.2,2.9-21.2c1.3-9.9,1.1-10.1-12.9-10.1
		c-5.8,0-15.8-0.7-22.4-1.4C4437.3,1515.3,4390.6,1514.6,4387.6,1515.6z"/>
	<path id="Sugbongcogon" d="M4260.5,1595.4c-0.9,0.9-2.9,4.4-4.6,7.8c-3.5,7-12.1,18.8-24.7,33.5c-4.6,5.5-11.4,13.7-14.9,18.1
		c-4.5,5.5-10.1,11-17.7,17.2c-13.1,10.5-21.9,20.2-21.9,24.2c0,2.6,1,4.2,8.7,13.5c1.9,2.3,5.6,6.9,8.3,10.3
		c2.7,3.4,6.4,7.4,8.3,8.9c1.9,1.6,5.7,4.7,8.3,7.1c2.7,2.4,6.4,5.4,8.1,6.7c1.7,1.3,5.5,4.6,8.4,7.2c2.8,2.7,8.8,7.3,13.3,10.3
		s12.1,8.6,17.1,12.4c4.9,3.7,12.9,9.3,17.5,12.2c4.7,3,9,6,9.5,6.5c1.5,1.6,7.2,5.8,16.3,11.8c36.9,24.4,51.1,33.8,51.5,34.4
		c0.3,0.3,3.5,2.5,7.3,4.7c7.2,4.5,11.3,8.8,15.3,16.5c2.7,5.4,3.5,9.7,4.8,28.4c0.6,7.3,2.1,18.6,3.4,25.1c1.6,7.6,2.7,17.4,3.2,27
		c1.2,21.9,2.8,36.9,4.8,45c0.9,3.9,2.1,10.3,2.5,14.2c0.3,3.9,1.9,13.3,3.4,20.9c1.6,7.6,3.3,16.3,3.8,19.4
		c1.4,8.2,3.5,12.6,7.8,16.1c6,4.7,46.1,30.8,47.5,30.8c0.3,0,3.2,1.8,6.5,4c3.3,2.3,10.1,6.5,15,9.5c4.8,2.9,11.6,7.8,15,10.6
		c3.4,2.9,7.5,5.9,9.1,6.7c4.2,2,18.4,4.3,26.5,4.3c8.5,0,14,2.3,24.7,10.2c4.2,3.1,14,9.9,21.8,15.1s14.7,10.1,15.4,11
		c1.9,2.3,7.4,3.8,11.1,3.1c2.8-0.6,4.1-1.9,10.1-11.3c3.9-5.9,9.2-14.5,11.9-19.2c4.8-8.5,16.4-34.5,16.4-36.8
		c-0.1-2.4-2.7-6-6-7.8c-1.8-1-6.8-4.3-11.2-7.2c-4.4-2.8-12.9-7.9-18.9-11s-15.5-8.3-21-11.8c-5.5-3.3-12.7-7.6-15.9-9.4
		s-6.8-4.2-8-5.2s-5.9-4.5-10.5-7.7c-4.7-3.1-16.3-10.9-25.9-17.4c-14-9.5-17.7-12.4-19.2-15.4c-1-2.1-2.2-3.7-2.7-3.7
		s-1.3-2.3-2-4.9c-0.6-2.7-3-8.8-5.6-13.6c-2.5-4.6-5.5-11.6-6.6-15.4c-1.2-3.8-3.9-9.7-5.9-13.1c-2-3.5-4.3-8.3-5-10.7
		c-3.7-12.1-7.6-22.1-10.6-26.9c-1.7-2.9-3.2-5.6-3.2-6c0-0.4-1.2-2.7-2.7-5.1s-4.3-8.2-6.3-12.9c-6.5-15.2-9.3-20.8-12.4-25.6
		c-4.1-6.3-10.9-19.3-10.9-20.9c0-4.8-11.4-27.5-18.5-36.9c-1.2-1.6-4.1-6.5-6.4-11c-3.7-7.1-7.6-13.4-20.4-33
		c-1.8-2.7-3.6-4.9-3.9-4.9c-0.4,0-2.4-1.7-4.5-3.8c-5.6-5.5-12.1-10.2-16.2-11.8c-8.6-3-22.3-10.2-25.2-13.2
		c-7.1-7.1-15.5-21.4-19.2-32.9c-1.5-4.6-5.4-12.5-8.7-18.2c-3.6-6-7.5-14.1-9.5-19.9c-1.9-5.4-4-10.6-4.6-11.7
		c-0.8-1-1.3-2.4-1.3-3c0-0.8-1-2.9-2.4-4.9c-1.3-2-3.9-7.4-5.7-11.9c-2.8-7.2-8.2-17-10-18.5c-0.4-0.3-1.9-3.1-3.4-6.4
		C4266,1593.5,4263.6,1592.2,4260.5,1595.4z"/>
	<path id="Binuangan" d="M4161.4,1706.6c-8,5.3-42.9,39.7-44.1,43.6c-0.4,1.2-2.2,4.8-4.1,8.1c-1.9,3.1-3.7,7.7-4.1,10.1
		c-0.4,2.4-1.6,7.2-2.8,10.9c-2.2,6.4-2.2,7.6-2.6,50.3c-0.2,29,0.1,44.8,0.8,46.9c0.6,1.8,1.4,7.1,1.9,11.7
		c0.6,5.3,1.7,10.3,3.2,13.6c1.3,2.8,3,8.7,3.9,13c3.9,19.7,9.2,37.8,15.5,52.8c2.6,6,6.4,15.5,8.6,21.3c4.9,13.2,7.6,19.6,8.5,20.9
		c0.4,0.5,1,2.4,1.4,4.2c0.4,1.7,1.9,5.6,3.4,8.6c1.4,3,3.1,7.2,3.6,9.4c0.5,2.2,1.4,4.8,2.2,6.1c0.8,1.1,2.4,5,3.6,8.7
		c1.2,3.6,2.8,7.6,3.6,8.8c1.2,1.9,5.4,16.3,7.7,26.7c0.4,1.8,1.5,5,2.4,7.1c0.9,2.1,2.5,7.9,3.5,12.8c1.7,8.1,8.1,34.9,10.2,43.6
		c0.5,1.8,1.4,6.7,2,10.9c0.6,4.2,1.4,9.3,1.9,11.4c0.5,2.1,1,4.9,1.3,6.4c0.9,3.8,3,5.5,7.4,5.5c3.9,0,11.5-4,25.4-13.3
		c2.8-1.9,9.5-6,14.7-9c5.2-3,10.2-6.1,11.1-6.8s2.8-2.1,4.5-2.9c1.6-0.9,8.3-5.4,15-10.1c6.5-4.6,14.8-9.7,18.2-11.2
		c3.4-1.5,8.2-3.8,10.5-4.8c4.3-2.1,4.4-2.1,81.5-2.1c42.5,0,82.9-0.4,89.8-0.9c14.1-0.9,15.8-1.7,15.3-7.3
		c-0.3-2.9-1.2-3.9-10.2-9.9c-11.1-7.4-19.6-12.5-33.6-20.1c-9.7-5.2-18.8-11.3-32.9-21.8c-7.5-5.6-8.3-6.5-9.7-11
		c-1.4-4.7-2.9-13.2-4.6-24.8c-0.9-6.4-4.1-21.9-5.6-27c-1.3-4.5-4.5-22.6-5.2-30.6c-0.4-3.5-1-7.8-1.5-9.5
		c-1.4-4.8-3-20.2-3.2-30.5c-0.2-10.3-3.4-33.3-6.4-46c-1-4.5-2.3-10-2.7-12.2c-1.2-6-6.4-16.6-9.3-19.3c-1.3-1.3-4.5-3.6-6.8-5.1
		c-7.8-4.6-35.4-23.3-37.3-25.1c-1-0.9-2.3-1.7-2.7-1.7c-0.5,0-1.3-0.4-2-0.9c-0.7-0.5-8.6-5.9-17.6-11.9
		c-9.1-6.1-18.1-12.2-19.9-13.7c-1.9-1.5-8.9-6.5-15.7-11.2c-6.7-4.7-12.8-9-13.5-9.5c-0.6-0.6-2.3-1.7-3.8-2.7
		c-4.3-2.7-22.7-16.4-29-21.6c-3.1-2.7-7.5-6.2-9.8-7.9c-2.3-1.6-5.2-4.6-6.4-6.6c-1.2-1.9-3.6-4.8-5.3-6.4
		c-1.6-1.6-6.3-7.2-10.2-12.6C4172.8,1699.8,4172,1699.7,4161.4,1706.6z"/>
	<path id="Medina" d="M5228.2,1833.3c-1.6,1.3-2.9,2.9-2.9,3.5c0,2.2-22.6,34.7-28.3,40.7c-3.3,3.5-7.6,8.7-9.5,11.7
		c-6.4,9.6-10.2,16.1-13.7,22.4c-3.2,5.9-10,14.6-12.5,16.3c-0.7,0.4-3,3.3-5.4,6.6c-2.4,3.2-5.4,6.9-6.8,8.2
		c-1.4,1.3-3.1,3.5-3.9,5c-0.8,1.4-4.1,5.9-7.3,10c-3.3,4-11.3,15.4-17.8,25.3c-6.5,9.9-14.2,20.6-17.1,23.7s-6.3,7.4-7.5,9.5
		c-1.3,2.1-3.6,5.1-5.3,6.7c-1.6,1.6-4.3,5.4-6,8.5c-1.8,3-5.4,7.9-8.2,10.8c-2.7,2.8-6.1,6.9-7.5,9c-1.4,2.1-4.5,6.4-6.7,9.5
		c-2.4,3.1-5.9,8.1-7.9,10.9c-1.9,2.8-5.4,7.8-7.7,10.9c-8.2,11-11.1,15.2-12.7,18.5c-0.9,1.8-4,6.1-6.9,9.5
		c-2.8,3.4-7.2,9.3-9.6,13.2c-2.4,3.9-9,13.2-14.8,20.7c-5.9,7.5-12.9,16.5-15.5,20c-2.7,3.5-8.1,10.8-11.8,16.3
		c-6.3,9.2-9,12.9-18,24.7c-6.8,8.9-18.4,18.5-29.3,24.1c-8.2,4.3-12.4,6.3-13.3,6.3c-1.2,0-1-1.3-1.6,12.8
		c-0.5,13.1,0.6,20.8,3.5,25.1c0.9,1.3,2.4,4.7,3.3,7.6c0.9,2.8,2.5,6.3,3.3,7.6c0.9,1.3,3.1,5.1,4.8,8.5c1.7,3.4,4.6,8.7,6.5,11.9
		c2,3.1,4.3,7.8,5.1,10.4c0.9,2.6,3,7.3,4.8,10.4c5.8,10.1,23.2,45.9,23.2,47.7c0,0.5,0.7,1.4,1.4,2.1c0.8,0.7,1.4,1.8,1.4,2.6
		s1.6,3.8,3.7,6.7c3.8,5.6,12.4,19.9,12.4,20.7c0,0.9,12.5,25.8,16.1,32.1c2,3.6,5.1,9.9,6.7,13.7c1.6,3.9,4,8.3,5.1,10
		c1.2,1.5,3.3,5.6,4.7,8.9c1.4,3.4,3.9,8.3,5.6,10.9c1.7,2.7,5.3,9.5,8.1,15.3c10.6,22,12.7,26.1,13.4,26.1c0.4,0,2.3,3.3,4.2,7.3
		c1.9,4.1,3.9,8.1,4.4,8.8c0.5,0.8,3.6,6.9,6.9,13.7c3.3,6.7,8.8,17.4,12.1,23.7c3.4,6.3,7.8,14.3,9.8,18c2,3.6,5.4,11.1,7.7,16.6
		c4.7,11.8,7.5,17.9,10.4,23.7c3.3,6.4,6.1,6.3,14.9-0.3c3.8-2.8,8.8-6.3,11.2-7.6c2.4-1.4,6.4-4.3,9-6.3c2.7-2.1,7.3-5.6,10.4-7.8
		c3.1-2.2,7.3-5.6,9.3-7.7c2-2,6-4.9,8.8-6.5c2.8-1.6,5.1-3.3,5.1-3.8c0-0.4,2.7-2.6,6-4.8c3.2-2.2,8.1-6,10.6-8.4
		c2.7-2.5,10.3-8.1,17.2-12.6c8.2-5.3,14.2-10.1,17.5-13.7c3.1-3.4,8.5-7.8,13.7-11c4.7-2.9,9.4-6.1,10.4-7c1-0.9,3.8-2.9,6.2-4.5
		c2.4-1.5,5-3.7,6-4.8c0.9-1.1,3.2-3,5.2-4.2c1.9-1.1,4-2.6,4.5-3.2c0.6-0.6,3.7-2.9,7.1-5.2c3.4-2.3,7.9-5.6,10.1-7.5
		c6.1-5.3,18.3-14.7,24.1-18.4c2.9-1.8,5.9-4.1,6.6-5c0.8-0.9,3.2-2.7,5.3-4.2c2.2-1.3,6-4.2,8.4-6.2c4.2-3.6,8-6.1,14.2-9.5
		c1.6-0.9,5.9-4.6,9.5-8.1c3.7-3.5,10.7-9.3,15.6-12.8c4.9-3.5,10.5-7.9,12.4-9.7c1.8-1.7,6.2-5,9.6-7.2
		c14.2-9.1,17.6-11.7,23.3-16.9c3.2-3,9.2-7.8,13.3-10.4c9.4-6.4,26.6-19.5,29.1-22.2c2.2-2.6,17.7-14.2,32.3-24.6
		c5.7-4,13.1-9.4,16.5-11.9c3.4-2.6,8.3-6.2,11-8c2.7-1.8,7.3-5.9,10.4-9.1c5-5.3,12.7-11.3,14.4-11.4c0.4-0.1,4.1-2.8,8.2-6.2
		c4.2-3.4,10.3-8.2,13.7-10.6c3.3-2.6,8.4-6.7,11.4-9.3c5.1-4.6,10.6-8.8,23.2-18.1c3.1-2.3,9.1-6.9,13.3-10.3
		c4.2-3.3,10.1-7.9,13.3-10.1c3.1-2.2,10-7.2,15.3-11.1c11.4-8.6,22.9-16.7,28.5-20.1c5.4-3.2,10.7-8.2,10.7-10
		c0-1.6-3-7.5-8.4-16.5c-4.2-6.7-10.2-17.6-14.3-25.3c-6.5-12.2-11.9-46.2-11.6-72.3c0.2-12.6-2.5-30.1-5.3-35.7
		c-2.3-4.5-7.2-9.1-19-18.3c-8.2-6.4-16.9-10.7-26.3-13.1c-1-0.3-6.2-2.5-11.3-4.8c-7.1-3.2-11.1-4.5-16.1-4.9
		c-6.6-0.7-19.2-3-24.8-4.8c-1.6-0.5-4.1-0.9-5.6-0.9c-1.4,0-6.4-1-10.8-2.3c-4.5-1.2-10.9-2.7-14.3-3.4c-3.4-0.6-8.3-2.2-11.1-3.6
		c-7.4-3.8-22.2-15.5-27.4-21.5c-2.5-2.9-6.3-6.4-8.3-7.6c-5.4-3.1-19.8-7.7-26.8-8.4c-6.1-0.7-39.1-11.1-42.4-13.5
		c-1-0.7-5.4-4.6-9.7-8.6c-4.3-4.1-9.5-8.8-11.6-10.4c-4.7-3.9-12.5-13.9-27.3-35.5c-9.9-14.5-15.4-21.1-25.2-30.3
		c-14.7-13.7-27.6-21.9-37.7-24.1c-17-3.8-37.1-9.5-40.7-11.5C5236.9,1830.1,5232,1830.1,5228.2,1833.3z"/>
	<path id="Salay" d="M4477.7,2122.6c-0.4,0.4-39.7,0.6-87.4,0.5l-86.8-0.4l-3.5,2.3c-4.6,3-13,8.2-27.2,16.9
		c-6.3,3.8-16.5,10.2-22.8,14.2c-6.3,4.1-16.5,10.4-22.8,14.2s-12.6,7.8-14.2,8.9c-1.5,1.1-5.3,3.5-8.3,5.2
		c-2.9,1.7-5.9,3.9-6.4,4.8c-1.4,2.7-1.1,14,0.6,19.9c0.9,3.3,1.8,11.9,2.4,23.2c0.4,9.9,1.2,25,1.8,33.7s1.1,26.5,1.2,39.8
		c0.3,25.1-0.4,31-4.4,39.8c-0.8,1.8-1.7,4.3-2.1,5.4c-0.6,2-4.2,5.4-9.3,9c-1.2,0.9-3,3.2-4,5.2c-1.6,3.3-1.7,6.6-1.7,40.1
		c0.1,24.1,0.5,37.9,1.2,40.8c0.6,2.4,1.4,13.5,1.9,24.7c1.2,29.4,3.2,46.4,5.8,48.8c1.1,1.1,6.4,1.2,34.5,0.5
		c18.3-0.6,49.3-1.3,69.1-1.9c24.1-0.6,36.3-1.2,37.2-2c0.9-0.7,2.3-0.8,3.9-0.4c1.5,0.5,3.5,0.7,4.5,0.6c1.8-0.3,23.1-1.1,68.4-2.9
		c22.5-0.9,48.5-2.5,53.1-3.2c6.4-1.1,26.7-2.7,45-3.4c10.7-0.5,23.8-1.4,29.2-2.2c7.7-1.1,17.2-1.3,44.6-0.9
		c34,0.5,34.9,0.4,37.2-1.5l2.4-1.9l-0.1-17.4c0-11.3-0.5-18.7-1.2-21.1c-0.9-3-3-26.3-2.8-32.7c0-0.8,0.3-5.7,0.5-11
		c0.4-6.8,0-11.9-1.1-18c-0.9-4.6-2-15.3-2.4-23.6c-0.4-8.3-1.1-16.9-1.6-18.9c-0.6-2.1-1.5-11.9-2.1-21.8
		c-0.7-10-1.8-24.7-2.6-32.8c-0.7-8.1-1.3-16.6-1.2-19c0.1-2.4-0.4-7.7-0.9-11.9c-0.5-4.2-1.2-12-1.5-17.5
		c-1.3-27.3-2.3-42.7-2.7-47.4c-0.4-2.8-0.9-13.1-1.2-22.7l-0.7-17.4l-4.7-2.5c-2.6-1.4-9-5.3-14.2-8.7c-5.2-3.4-13.3-8.5-17.9-11.4
		c-4.7-2.8-10.9-7.3-13.7-9.9c-9.8-8.8-11.8-9.8-22.9-10.8C4511.9,2122.6,4478.7,2121.8,4477.7,2122.6z"/>
	<path id="Gingoog" d="M6503.3,2223.2c-4,4-9.1,9.9-11.4,12.9s-5.8,7.7-7.7,10.3c-2,2.7-4,6.8-4.6,9.6c-0.7,2.7-2.9,9.1-5.2,14.3
		c-9.1,21.4-12.1,30.3-16.1,47.9c-0.9,3.9-2.8,11.2-4.4,16.1c-1.5,4.9-3.8,12.8-5.1,17.5c-1.3,4.6-2.8,10.2-3.4,12.3
		s-2.6,8.1-4.4,13.3c-1.8,5.2-3.7,11.6-4.1,14.1c-0.5,2.5-1.4,5.5-2.2,6.6c-0.8,1-1.8,3.7-2.5,5.8c-1.4,4.6-6.3,17.4-8.9,23.5
		c-2.4,5.4-6.6,9-15.1,13c-6.6,3-15.7,4.6-34.9,5.7c-11.9,0.7-23.4,3.1-29.6,6.3c-1.7,0.9-10.4,8.8-19.3,17.5
		c-9,8.8-16.7,16-17.2,16s-4.9,0.9-9.8,1.9c-4.8,1-10.1,1.9-11.8,1.9c-1.5,0-5.8,0.9-9.5,2c-8,2.4-10.4,3-22.4,5.7
		c-8.5,1.9-22.3,8.1-26.8,12.1c-0.9,0.8-3.1,2.3-4.9,3.4c-3.2,1.9-13.9,9.5-21,14.7c-2.2,1.5-4.3,2.8-4.8,2.8c-0.5,0-1.9,1-3.1,2.5
		c-4.9,5.1-63.9,32.6-70.2,32.6c-0.9,0-1.8,0.3-2.2,0.6c-0.6,0.7-8.5,3.3-20.1,6.9c-6.5,2-34.7,8.8-41.2,10.1
		c-1.8,0.3-8,0.9-13.7,1.3c-5.7,0.5-13.8,1.3-18,2c-10.5,1.6-60.5,0.6-68.5-1.5c-6.9-1.8-14.3-5.6-25.7-13.3
		c-4.9-3.3-9.2-6.1-9.5-6.2c-0.4,0-2.6-1.4-4.9-3.1c-4.6-3.3-5.4-4.6-8.6-13.4c-1.2-3.1-3.5-9.1-5.3-13.2c-1.7-4.2-3.1-8.3-3.1-9.3
		c0-1-0.8-3.1-1.6-4.8c-1.5-2.7-1.7-6.4-1.8-31.5c-0.1-28.4-1.7-48.1-4.3-52.8c-5-9.4-11.4-16.7-35.7-40.6
		c-14.5-14.4-31.3-30.5-37.3-35.9c-35.7-32-63.9-58.7-69.5-66c-2.1-2.7-7.2-8.3-11.4-12.9c-4.3-4.5-9.7-10.5-12-13.6
		c-2.4-3-7-8.3-10.3-11.8c-3.3-3.5-8-8.7-10.4-11.6c-2.4-2.8-6.1-7.1-8.2-9.5c-2.2-2.4-5.9-7.4-8.3-11.2c-4.1-6.4-4.6-6.8-7.8-6.8
		c-1.9,0-4.9,0.9-6.9,2.2c-1.9,1.2-6.7,4.1-10.6,6.4c-3.9,2.3-9.7,6.5-12.8,9.5c-6.8,6.4-17,14.1-28,21.4c-2.8,1.9-6.3,4.5-7.6,5.6
		c-1.3,1.2-6.2,4.7-10.9,8c-12.5,8.3-26.6,19.3-33.7,26.2c-3.4,3.3-9.1,8-12.8,10.3c-13.1,8.5-18.3,12.5-24.3,18.3
		c-3.3,3.2-8,7.3-10.3,9.1c-12.6,9.4-37.8,27.7-44.2,32c-5.4,3.6-17.4,13-21.2,16.6c-4.8,4.6-21.2,17.2-29.8,22.8
		c-3.1,2-8.6,6.5-12.3,10c-3.7,3.4-11.7,9.4-17.6,13.3c-6,3.9-12,8.2-13.4,9.5c-1.4,1.3-5,3.8-8.2,5.5c-7.1,3.8-15.6,10.1-23.3,17.1
		c-3.2,2.9-7.8,6.8-10.1,8.4c-2.4,1.7-6.8,5.2-10,7.9c-3.1,2.6-8.2,6.4-11.1,8.5c-2.9,2.1-5.7,4.2-6,4.7c-0.3,0.6-4.2,3.4-8.6,6.4
		s-11.7,8.5-16,12.5c-8.3,7.6-15.8,13.2-23.5,17.6c-2.6,1.4-5.1,3.5-5.7,4.6c-0.7,0.9-4.6,4.2-8.7,6.9c-4.2,2.8-10.1,7-13.3,9.4
		s-7.3,5.1-9.2,6.2c-1.9,1-5.3,4.1-7.6,6.6c-2.6,3-9.3,8.3-17.7,14c-7.5,5-16,11.3-19,13.9c-2.9,2.6-8.3,6.6-11.9,9
		c-3.7,2.3-10.3,7.4-14.8,11.4c-10.7,9.3-14.8,12.4-43.1,32.1c-7.1,4.9-9.9,7.8-9.9,10.2s3.3,14,4.7,16.4c2.7,4.6,8.6,17.6,9.5,20.8
		c0.5,2,1.6,4.2,2.4,4.8s1.4,1.9,1.4,2.7s1.5,4,3.3,7c1.8,3,4.8,9.4,6.6,14.1c1.8,4.7,5.3,12,7.7,16.2c2.4,4.3,5.1,10.3,6.2,13.7
		c1.1,3.3,2.4,6.2,2.8,6.5c0.5,0.3,0.9,1.3,0.9,2.5c0,1,1.2,4.2,2.7,6.8c1.5,2.7,3.3,6.6,4,8.9c0.7,2.2,1.7,4.5,2.5,5
		c0.7,0.6,1.2,1.8,1.2,2.7c0,0.9,0.9,2.7,1.9,4.1c1,1.3,1.9,3.2,1.9,4.3c0,1.1,0.5,2.3,0.9,2.6c1.4,0.9,7.6,13.5,9.1,18.6
		c0.8,2.5,2,5.7,2.7,7.2c0.8,1.4,1.4,3.1,1.4,3.7s0.7,1.6,1.4,2.3s1.4,1.9,1.4,2.8c0,0.9,0.8,2.7,1.7,3.9
		c1.9,2.4,15.4,32.1,15.4,33.8c0,1.3,5.7,12.5,6.7,13.1c0.5,0.4,0.9,2.3,0.9,4.3s0.4,3.9,0.9,4.3c1.1,0.7,13.4,25.1,13.4,26.6
		c0,0.6,0.6,1.6,1.3,2.2c0.7,0.6,1.5,2.7,1.9,4.7c0.3,2,1.2,4.2,2,4.8c0.8,0.7,1.4,2.1,1.4,3.2s0.5,2.6,1.1,3.2
		c2.4,2.4,16,30.1,19.7,40c1.4,3.9,3.8,9.6,5.1,12.5c1.3,2.9,2.5,5.6,2.5,5.8c0,0.3,1.5,3.1,3.3,6.4c1.8,3.2,3.3,6.9,3.3,8.2
		c0,1.3,0.6,3.5,1.3,4.8c4,7.8,6.2,12.6,7.8,17.3c0.9,2.8,2.3,5.9,2.9,6.7c0.7,0.8,1.2,1.8,1.2,2.2c0,1.5,7.2,15.5,8.6,16.7
		c0.7,0.6,5.6,12.8,5.6,13.9c0,0.8,10.6,23.8,12.3,26.8c2.8,4.8,8.5,16.9,8.5,17.8c0,0.6,1,3.3,2.3,6.1c1.3,2.7,3.7,8,5.4,11.7
		c1.7,3.6,3.4,6.8,3.8,7.1c0.9,0.7,6.5,13.7,6.5,15.3c0,0.7,2.3,5.9,5.1,11.7c2.8,5.8,6.2,12.6,7.3,15.3c1.1,2.6,2.7,5.4,3.3,6.2
		c0.6,0.8,1.8,3.7,2.7,6.4c0.8,2.7,2.3,6.3,3.4,7.7c1,1.5,1.9,3.3,1.9,4.1c0,0.7,0.9,2.7,1.9,4.4c1,1.7,1.9,3.7,1.9,4.4
		s0.9,2.4,1.9,3.7c1,1.3,1.9,3.1,1.9,4s0.9,2.7,1.9,4c1,1.3,1.9,3.2,1.9,4.1c0,0.9,0.7,2.2,1.4,2.8c0.8,0.7,1.4,2.2,1.4,3.3
		c0,1.2,1.4,4.4,3.2,7c1.8,2.7,4.2,7.3,5.3,10.2c1.1,3,3.7,8.2,5.7,11.7s4,7.4,4.4,9c0.4,1.5,2.6,6.6,4.8,11.3
		c2.2,4.6,4.1,9,4.1,9.7c0,1.3,8.1,18.3,11,23.1c1.1,1.8,2.6,5,3.2,7.1c0.7,2.1,1.8,4.6,2.5,5.8c0.8,1,2.1,4.3,3.1,7.1
		c1.7,5,8.7,19.9,12.3,26.5c1,1.8,3,6.1,4.6,9.5c1.4,3.4,3.8,8.1,5.1,10.2c1.4,2.3,4.2,8.1,6,12.9c1.9,4.8,4.1,9.6,4.8,10.6
		c0.8,0.9,1.4,2.5,1.4,3.3c0,0.9,1.7,4.5,3.7,8c2.1,3.5,5.1,10.6,6.7,15.7c1.7,5.2,3.4,9.7,3.9,9.9c0.4,0.3,2.7,4.6,5.1,9.8
		c2.4,5,4.9,10.2,5.7,11.6c0.7,1.3,1.5,4,1.9,5.9c0.4,2,1.2,4,2,4.6c0.8,0.6,1.3,1.6,1.3,2.3c0,0.7,1.4,3.7,3.1,6.7
		c2.6,4.6,3.6,5.7,6.4,6.3c1.8,0.4,73.3,1.2,158.8,1.8c85.5,0.6,182.4,1.2,215.2,1.4c38.4,0.3,64.5,0.1,73-0.6
		c7.3-0.6,22-1.4,32.7-1.8c17.9-0.8,246.9,0.5,284.1,1.4l16.3,0.5l6.4-7.3c3.6-4,10.6-11.3,15.6-16.4c4.9-5,10.8-11.5,12.9-14.3
		c2.2-2.8,6.9-8.2,10.7-11.9c3.7-3.7,8.2-8.5,9.8-10.9s5.4-6.8,8.3-10c10.6-11.1,18.5-20,21.4-24.2c1.6-2.4,4.9-6.2,7.4-8.5
		s6.4-6.8,8.8-10c2.4-3.1,6.7-8.2,9.6-11.4c2.9-3.1,8.3-9.3,11.9-13.6c3.7-4.4,9.8-11.4,13.6-15.6c3.9-4.3,8.3-9.7,10-12
		c1.6-2.4,7-8.3,12-13.3c5-4.9,11.5-11.9,14.3-15.5c2.7-3.6,8.2-9.8,11.9-13.7c12-12.8,17.4-19.1,17.4-20c0-1.5,11.9-15.6,14.6-17.4
		c1.3-0.9,4.8-4.6,7.9-8.3c2.9-3.8,7.9-9.6,10.9-12.9c3-3.2,5.5-6.4,5.5-6.8c0-0.6,0.6-0.9,1.3-0.9s2.7-2,4.3-4.6
		c5.2-8.1,11.9-16.1,15.7-19.2c2-1.6,5.4-5.2,7.4-7.9c2.1-2.7,5.9-7.3,8.6-10.1c2.7-2.8,6.3-7.4,8.1-10c1.7-2.7,5.4-6.4,8.2-8.5
		c2.7-2.1,5.1-4.3,5.1-4.8c0-0.6,2.4-3.6,5.3-6.6c2.9-3.1,9.5-11.4,14.7-18.5c5.1-7.1,10.4-13.4,11.7-13.9c1.2-0.6,3.5-2.7,4.9-4.6
		c1.5-2,5.4-6.4,8.7-9.8c3.3-3.4,7.8-8.8,9.9-11.9c2.2-3.1,10.1-11.9,17.6-19.6c7.6-7.7,14.9-15.7,16.2-17.8c1.4-2.1,4-6.2,5.8-9.1
		c3.2-5.1,11.2-14,18-19.9c10.1-8.7,27.2-27.8,33.4-37.2c0.9-1.3,2.3-2.8,3.1-3.3c0.9-0.5,2.3-2.1,3.2-3.6c0.9-1.4,8.5-10,17-19
		c8.4-8.9,15.4-16.9,15.4-17.7s3.5-5.2,7.9-9.7c13.5-14.2,19.6-21.1,19.6-22.1c0-0.5,3.3-4.4,7.4-8.6c4.2-4.2,9.4-10.2,11.7-13.4
		c2.3-3.1,6.5-8,9.6-10.7c2.9-2.7,6.2-6.6,7.1-8.5c0.9-1.9,3.5-4.6,5.8-6.2c2.2-1.5,4-3.4,4-4.3c0-0.9,3.4-5,7.6-9.2
		c4.3-4.2,8.8-9.5,10.1-11.9c1.4-2.4,3-4.7,3.7-5.2c0.6-0.6,1.4-1.6,1.9-2.5c0.5-0.9,4.3-4.6,8.5-8.3c10.5-9.4,11.7-11.7,12.8-25.9
		c0.6-6.4,1.3-13.2,1.8-15c0.5-1.8,1-12,1.3-22.8c0.3-10.7,0.9-21,1.5-22.8c0.5-1.8,0.9-8.7,0.9-15.4c0-6.6,0.4-13,0.9-14.2
		s1.1-8,1.4-15c0.4-7,1.1-18.6,1.6-25.6c4.3-58.8,5.9-83.1,6.4-95.3c0.4-7.9,0.9-14.9,1.3-15.6c0.3-0.8,0.9-7.2,1.2-14.2
		c0.3-7,0.8-16.2,1-20.3c0.6-8.9,0.5-8.9-9.2-22.4c-6.8-9.4-11.6-16.2-17.1-24.6c-1.3-2-4.3-6.3-6.6-9.5c-6.5-9.1-10.6-14.8-14.2-20
		c-12.3-17.9-16.6-22.2-28.7-29.1c-2.6-1.5-8.2-4.7-12.3-7.3c-4.3-2.6-9.1-5.3-10.7-6.3c-1.6-0.9-5.9-3.6-9.5-6.2
		c-8-5.6-21.6-13.9-29.4-18.1c-3.1-1.6-8-4.6-10.6-6.4c-2.7-1.9-8.8-5.7-13.7-8.2c-4.8-2.7-10.7-6.4-13.1-8.3
		c-2.4-2-8.2-5.8-13.1-8.5c-4.8-2.7-10.8-6.4-13.3-8.1c-2.5-1.8-6.8-4.4-9.7-5.8c-2.8-1.4-10.9-6.5-18-11.4
		c-7-4.7-15.2-10.1-18-11.8c-2.8-1.7-8.6-5.6-12.8-8.6c-4.2-3-9.3-6.4-11.5-7.6c-2.2-1-4.6-2.6-5.2-3.4c-0.7-0.8-2.9-2.4-5-3.4
		c-2.2-1-6.8-3.9-10.5-6.3c-3.6-2.4-8.3-5.2-10.4-6.4s-6.4-3.5-9.5-5.2c-3.1-1.7-12.6-7.7-21-13.2c-8.4-5.5-19.3-12.6-24.1-15.7
		c-4.8-3.1-9.5-6.2-10.2-6.6c-0.9-0.6-4.1-2.7-7.2-4.8C6511.1,2214.9,6511.4,2214.8,6503.3,2223.2z"/>
	<path id="Lagonglong" d="M4563,2509.8c-18.2,0.4-41.5,1.2-51.7,1.8c-65.4,3.9-75.9,4.6-80.1,5.8c-2.1,0.5-10.6,1.2-19,1.4
		c-8.3,0.3-26.5,0.9-40.3,1.3c-13.8,0.5-26.8,1.2-28.9,1.7c-2.1,0.6-11,1.4-19.8,2.1c-12.7,0.9-16.1,0.9-16.7,0
		c-0.6-0.9-6.3-1-25.2-0.6c-13.6,0.4-27.8,1-31.7,1.5c-6.3,0.9-14.9,1.2-45.6,2.2c-9.9,0.4-10.6,1-10.1,9.6
		c0.2,3.7,0.9,16.3,1.5,28.1c0.7,11.8,1.4,22.6,1.8,24.2c0.4,1.5,0.7,13.3,0.7,26.1c0,20.5-0.3,24.3-2.1,31.8
		c-1,4.6-2.3,11.4-2.7,14.9c-0.3,3.5-1.4,9-2.5,12.3c-0.9,3.3-1.8,7-1.8,8.2c0,3.1-8.9,29.1-12.8,37.5c-1.7,3.6-3.8,9-4.7,11.9
		c-1.8,5.8-1.6,5.3-12,25.5c-4.2,8-8.3,16.9-9.5,19.7c-1,2.8-3.9,7.8-6.4,11c-12.4,16.3-15.5,23-12.1,27.6c1.1,1.5,5.8,1.7,73.2,2.2
		c43.2,0.4,88.9,0.1,114.3-0.5c46.6-1.2,83.1-1.3,201.5-0.8c43.8,0.2,84.4,0,90.1-0.5c29-2.3,34.1-2.9,35.4-4.5
		c0.9-1.1,1.1-3.3,0.7-7.8c-1.3-13.7-2.5-28.8-3.1-44.1c-0.7-12.8-1.1-17.1-2.7-20.9c-1.7-4.2-2-7.6-2.5-28.9
		c-0.4-13.3-1-27.2-1.6-30.8c-0.6-3.7-1.1-12.8-1.2-20.4c-0.1-7.6-0.6-14-0.9-14.3c-0.5-0.4-1.2-6.9-1.7-14.7
		c-0.5-7.8-1.5-18.3-2.4-23.4c-0.9-5.4-1.3-11.2-0.9-13.7c0.6-4.2,0-11.4-2.8-38.1c-0.8-7-1.3-16-1.3-19.9c0-8.4-1.8-22.8-3.1-24.5
		C4620.9,2508.7,4617.7,2508.7,4563,2509.8z"/>
	<path id="Balingasag" d="M4628.4,2818c-8.8,0.3-18.7,1.1-21.7,1.8c-4.5,0.9-26.2,1-99.1,0.5c-67.8-0.5-96.2-0.4-103.4,0.4
		c-13.1,1.5-219.2,2.4-225,1c-7.4-1.7-22.6-2.2-28.6-0.9c-8.4,1.8-17.4,2.3-19,0.9c-0.9-0.8-2.9-0.9-6.3-0.5
		c-6,0.9-11.3,5.3-17.6,14.7c-2.2,3.4-7.3,10.2-11.2,15.2c-14.2,18-20.3,27.4-29.8,45.7c-4.5,8.6-5.7,11.9-10.7,30.2
		c-2.7,9.8-2.4,23.3,1,36.5c1.9,7.7,13.4,37.5,15.3,39.8c0.4,0.5,1.2,2.7,1.8,4.8c0.6,2.2,2,5.3,3.2,7.1c3.1,4.7,6.4,11.1,6.4,12.8
		c0,0.8,4.3,9.9,9.4,20.1c5.2,10.2,10.8,22.1,12.4,26.3c1.7,4.2,4.5,10.3,6.2,13.7c1.7,3.4,5,10.8,7.5,16.6c2.4,5.7,6.3,14.2,8.5,19
		c4.2,8.6,6.4,13.9,10.7,25.1c1.2,3.4,3.5,9.1,4.9,12.8c1.5,3.6,3.2,8.5,3.9,10.9c0.7,2.4,1.5,5.3,1.9,6.6c5,15.9,6,21.4,5.2,27.8
		c-0.5,3.2-0.9,9.1-0.9,13c-0.1,6.4-0.5,7.7-3,11.4c-3.2,4.6-9.9,11.2-15.9,15.8c-2.5,1.9-6.8,3.7-12.3,5.1c-8.1,2.2-9.9,2.3-33.2,2
		c-13.6-0.1-28.3,0.2-32.7,0.8c-16.1,1.8-29.3,4.6-33.1,6.8c-2.1,1.1-6.6,4-10.2,6.1c-3.5,2.2-8.5,5-11.1,6.4
		c-4.9,2.7-11.2,7.6-19.2,15c-2.7,2.6-5.2,4.6-5.7,4.6c-1,0-20.2,18.5-24.4,23.5c-3.9,4.7-4.6,10.1-1.7,12.8
		c2.7,2.5,23.9,5.4,46.4,6.4c11.4,0.5,24.7,1.3,29.7,1.7c4.9,0.5,17.5,1.3,28,1.9c10.4,0.7,20.9,1.5,23.2,2
		c4.3,0.9,22.7,1.8,74.9,3.8c35.9,1.4,55.1,3.2,78.7,7.6c5.2,0.9,21.9,1.7,41.1,1.8l10.1,0.1v2.7c0,1.5,0.7,4.8,1.4,7.4
		c0.8,2.6,1.6,10.6,2,17.9c0.3,7.3,0.9,14.5,1.5,16.1c0.5,1.5,1.3,7.9,1.7,14c1.1,16.8,3.3,18.1,16.5,10.2
		c20.3-12.1,30.5-17.4,42.5-21.8c13.3-4.9,17.9-6.9,25.4-10.9c12.7-6.7,17.5-7.4,43.1-5.7c23.4,1.6,32.3,2.7,42.7,5.1
		c4.2,0.9,10.3,2.3,13.7,2.8c17.9,3.3,22.2,4.1,31.3,5.9c5.5,1,13.5,2.2,17.6,2.7c4.3,0.4,8.2,0.9,8.6,1.2c0.5,0.3,4.9,1.5,9.9,2.7
		c4.9,1.1,12.3,2.8,16.5,3.8c4.2,1,10,2.3,12.8,2.8c2.8,0.5,9.7,2,15.2,3.2c20.1,4.6,24.6,5.1,44.1,5.9c28.4,1,39.7,0.8,47.4-1
		c3.7-0.9,10.1-1.8,14.2-2.1c24.7-1.7,92.5-15.2,97.9-19.5c0.6-0.6,1.1-2.7,1.1-4.6c0-5.4-4.3-28.7-7.5-41c-1.9-7.4-2.9-14.1-3.4-22
		c-0.4-7.2-1.1-12.4-2.1-14.2c-0.8-1.6-1.7-6.4-2.1-10.5c-0.3-4.3-1-8.3-1.7-9c-0.6-0.8-1.3-2.8-1.7-4.6c-0.4-1.8-3.2-12.7-6.3-24.2
		c-3.1-11.5-6.1-24.3-6.5-28.4c-0.5-4.2-2.7-14.2-5-22.3c-2.4-8.1-4.9-18.6-5.8-23.3c-0.8-4.7-2.9-13.6-4.7-19.4
		c-1.8-6-4.4-15.2-5.7-20.6c-1.4-5.3-3.4-11.9-4.5-14.7c-7.1-17.6-10.6-30.3-29.3-104.5c-7.8-30.8-14.9-58.3-15.9-61.2
		c-1-2.8-2.6-8-3.4-11.4c-0.8-3.4-2.4-9.2-3.4-12.8c-5.1-17.6-23.2-89.6-24.7-97.7c-0.9-4.9-1.6-7.7-5.3-19.4
		c-1.2-3.9-2.3-8.5-2.5-10.3C4648.1,2817.6,4646.6,2817.2,4628.4,2818z"/>
</g>
<g id="CDOC">
	<path id="Cdoc" d="M3233.7,4413.3c-2.9,0.8-4,2-6.6,7.2c-3.3,6.8-8.4,15.4-11.8,19.5c-2.7,3.5-6.9,10.2-15.5,24.7
		c-2.7,4.5-6.2,10.1-7.8,12.8c-1.7,2.6-4.1,6.6-5.3,9c-4.8,9.1-14.6,22.1-19.2,25.8c-5.9,4.7-13.9,8.5-24.8,11.7
		c-6.9,2-10.1,2.4-21.1,2.4c-7.1,0.1-17,0.5-21.9,0.9l-9.1,0.9l-12.5,8.2c-6.9,4.5-13,8.2-13.4,8.2c-0.5,0-2.9,1.4-5.5,3
		c-6.6,4.6-9.4,5.5-16.3,6.2c-6.6,0.6-19.9,5.3-24.9,8.9c-1.5,1.1-4.3,4.3-6,6.9c-2.8,4.6-7.9,9.5-14.5,14.5
		c-2.7,2.1-8.2,9.7-14.7,20.7c-3.1,5.3-3.4,6.4-4.5,18.5c-0.7,7.9-1,28.7-0.9,54l0.2,41.2l-2.6,9.9c-5.3,20.5-8.9,23.4-26.7,21.7
		c-5.7-0.5-14.6-0.8-19.9-0.6l-9.6,0.3l-7.6,5c-8.8,5.8-10.7,7.7-17.2,17.4c-4.1,6.2-5.1,8.5-6.4,15.5c-1,5.6-1.4,10.7-1,16.4
		c0.3,4.6,0.9,20.8,1.1,35.9l0.6,27.8l-2.9,9.5c-2.3,7-3.5,9.7-5.1,10.5c-1.1,0.6-7.8,6.7-14.8,13.6c-8.8,8.6-13.2,13.7-14.5,16.7
		c-0.9,2.4-2.8,5.3-4.1,6.6c-2.3,2.4-15.5,23.6-20.6,33.2c-4.6,8.6-7.5,13.5-10.9,18.7c-2.6,3.8-3.4,6.4-3.8,10.6
		c-0.5,5.4-0.4,5.8,3.1,10.1c2.1,2.5,8.9,7.9,15.9,12.6c13.4,9,16.2,11.9,20.8,21l3.1,6.2l-1,10c-1.1,10.9-1.7,12.3-6.2,16.6
		c-1.7,1.5-5.2,6-7.9,9.8c-4,5.8-6.4,8.1-14.6,13.7c-5.4,3.7-11,8.2-12.3,10c-3,4-17.8,13.2-24.8,15.5c-2.9,0.9-9.4,1.9-14.3,2.2
		c-8,0.5-10.6,0.1-22.3-2.7c-7.3-1.7-16-3.5-19.4-3.8c-3.4-0.4-7-1.3-8.1-2c-1-0.8-2.7-1.3-3.8-1.3s-2.7-0.7-3.7-1.4
		c-1-0.8-2.7-1.4-3.8-1.4c-1.1,0-4.4-1.4-7.2-3c-5-2.9-12.9-5.3-18.2-5.4c-5.9-0.2-8,7.8-5,18.9c3,11.2,1.4,16.8-9.3,34.1l-8,12.8
		l-10.1,6.2c-5.5,3.4-12.7,7.7-16,9.5c-3.2,1.8-6.7,4.4-7.8,5.6c-1.1,1.2-6.9,5.6-12.9,9.7c-6,4.1-14.8,10.1-19.4,13.4
		c-4.7,3.3-10.8,7.3-13.5,9c-4.7,2.8-5.2,3.6-12,17.6c-4,8.1-7.2,15.1-7.2,15.5c0,0.6-1.2,2.7-2.7,4.7c-1.5,2.2-4,6.1-5.3,8.8
		c-1.4,2.7-4.4,6.9-6.5,9.4c-2.2,2.4-4.9,5.6-6.2,7.2c-1.1,1.5-4.6,5.4-7.5,8.6c-15.5,16.6-26.1,31.9-27.7,39.9
		c-0.7,2.9-1.5,14.5-1.9,25.8c-0.7,17.9-1,21.5-3.2,28.5c-4.2,13.9-7.4,19.9-10.7,19.9c-0.7,0-1.2,0.5-1.2,1
		c0,1.6-13.5,16.1-16.1,17.3c-2.6,1.2-10.8,7.1-30.6,21.9c-6.8,5.1-14.2,10.4-16.2,11.7c-2.1,1.3-9.1,7.4-15.6,13.5
		c-6.5,6.1-16,13.9-21,17.4c-4.9,3.4-10.2,7.4-11.7,8.9c-3.6,3.6-13.1,18-14.4,22c-0.6,1.7-2.3,4.3-3.6,5.7c-3,3.1-3.3,7-0.8,9.6
		c1.4,1.4,3.9,1.8,15.1,2.5c10.8,0.5,13.6,0.9,14.8,2.3c0.9,1,1.9,4.8,2.5,9.7c0.5,4.4,1.3,10.1,1.9,12.8c1,5,1.6,9.1,4.2,26.9
		c0.9,5.5,1.9,12.5,2.5,15.6c0.6,3.1,1.4,8.1,1.8,10.9c0.4,2.9,1.2,6.2,2,7.2c2,2.8,17.4,17,23.1,21.2c2.7,1.9,9.2,7.6,14.5,12.4
		c21.2,19.6,21.6,19.8,33.7,19.8c4.8,0,10.2,0.4,11.9,0.9c1.7,0.6,11.8,1.6,22.2,2.5c10.5,0.9,20.1,2,21.2,2.5
		c1.2,0.4,8.2,1,15.7,1.3c7.5,0.3,16.1,1,19.2,1.6c5.7,1.1,5.8,1.1,23.5,18.2c9.8,9.5,19.3,18.4,21.3,19.8
		c1.9,1.4,17.3,16.1,34.1,32.6c16.9,16.4,32.2,31,34.1,32.3c5,3.4,9.4,5,15.8,6c3.1,0.5,8.1,1.3,10.9,1.8c2.8,0.6,9.9,1.5,15.5,2.2
		c7.4,0.8,10.5,1.5,11,2.6c2,4.1,4.2,9.3,4.8,11.9c0.4,1.5,2.3,7.1,4.2,12.3c2,5.2,4.4,11.6,5.3,14.2c0.9,2.6,2.7,7.7,4.2,11.4
		c3.9,10.4,8.2,22.5,9,25.6c1.9,6.7,6.4,15.8,12.2,24.9c9.4,14.8,12.5,19.6,18.9,30.1c3.1,5.2,7,11.2,8.5,13.3s2.9,4.5,3.2,5.2
		s2.8,4.9,5.6,9.2c2.8,4.4,6.8,10.5,8.8,13.7c2.1,3.3,5.1,8.1,6.7,10.7c10.1,15.9,14.8,23.3,17.2,27.3c1.5,2.5,4.5,7.2,6.6,10.4
		c3.4,5.1,7.6,12,16.5,27.5c1.3,2.3,3.5,5.5,5,7.2c1.4,1.7,2.6,3.6,2.6,4.2c0,0.7,2.5,4.8,5.5,9.4c2.9,4.6,7.1,11.1,9.2,14.5
		c2.1,3.4,5.2,8,6.8,10.2c1.7,2.2,3.1,4.4,3.1,4.8c0,0.6,1,2.5,2.3,4.3c1.2,1.9,4,6.2,6.1,9.6c2.2,3.4,4.8,7.4,5.9,9
		c3,4.5,11.1,17.5,13.7,22.4c1.2,2.4,3,4.8,3.9,5.6c0.9,0.8,2.6,3.2,3.8,5.6c1.2,2.4,4.1,7.3,6.4,11c2.4,3.6,5.9,9.2,7.9,12.3
		c5.6,9,10,15.7,13.7,21.3c1.9,2.8,4.6,7.3,5.9,10c3.6,7.1,5.8,9,10.3,9c3.7,0,4.5-0.6,14.3-10.1c10.1-10,10.6-10.6,16.3-22.6
		c3.3-6.8,7-14.9,8.3-18c1.2-3.1,4.1-9.6,6.1-14.2c8.2-18.3,12-28.8,13.5-36c1.2-6,3-12.7,5.3-19.9c1.1-3.7,2.7-8.8,3.2-11.4
		c0.6-2.7,2.6-10.1,4.3-16.6c1.8-6.5,3.8-15.1,4.4-19c0.7-3.9,1.5-8.3,2-9.9s0.9-4.3,0.9-6.2s0.7-6.6,1.5-10.5
		c0.8-3.9,1.8-9.5,2.3-12.3c0.5-2.8,1.3-7.8,1.9-10.9c0.7-3.1,1.7-9.6,2.5-14.2c0.7-4.7,1.7-11.3,2.3-14.7
		c1.8-10.6,2.7-17.3,3.8-26.5c0.6-4.9,1.6-11.2,2.4-13.7c0.8-2.7,1.5-7.3,1.8-10.4c0.2-3.1,1-7.9,1.9-10.4c0.8-2.7,2.3-7.7,3.3-11.3
		c1.1-3.6,2.9-7.9,4.2-9.5c1.2-1.6,3.2-4.7,4.3-6.8c1.9-3.7,22.7-24.2,26.7-26.5c0.9-0.6,5.7-4.6,10.5-9c4.8-4.5,11.9-10.7,15.5-14
		c9.8-8.6,10.7-9.7,14.8-15.4c4.9-6.8,9.4-15.9,9.4-19.1c0-1.4,0.6-4.3,1.3-6.4c2.2-6.1,2.6-46.4,1.1-121.6
		c-1.5-82.9-1.1-88.9,7.2-110.2c0.9-2.5,1.7-5.2,1.7-6.2c0-3,4.3-13,15.6-36.8c4-8.3,7.9-16.7,8.5-18.5s3.7-8.4,6.7-14.7
		c5.8-12,9.5-21.5,10.7-27c0.4-1.8,1.3-4.4,2-5.7c0.8-1.3,1.6-6.6,2-11.9c0.4-5.2,1.6-19.7,2.7-32.2s2.4-31.1,2.9-41.2
		c0.5-10.1,1.3-19.7,1.8-21.2c0.6-1.5,0.9-8.7,0.9-16.1c0.1-7.4,0.6-19.2,1.1-26.2c0.6-7,1.1-15.4,1.3-18.5
		c1.5-24.4,2.3-33.8,3.3-37.5c0.6-2.4,1.3-8.2,1.7-12.8c0.4-4.7,1.1-9.5,1.8-10.6c0.7-1.1,1.1-3.5,1.1-5.3s0.9-7.5,1.9-12.7
		c1-5.1,2.1-12.3,2.4-15.9c0.4-3.7,1.1-8.8,1.9-11.4c0.8-2.7,2.3-8.3,3.3-12.8c1.1-4.5,2.7-10,3.4-12.3c1.6-5,3.9-13.3,5.1-18
		c0.4-1.8,2.1-6.7,3.8-10.9c1.6-4.2,4.2-11,5.7-15.2c1.5-4.2,4-10.6,5.5-14.2l2.7-6.6l16.5-0.6c9.1-0.4,37.8-0.7,64-0.8
		c28.9-0.1,48.5-0.5,50.3-1s56.7-1.3,149.7-2c177.5-1.2,330.6-2.6,375-3.2c84.7-1.4,277.1-3.6,361.7-4.1c51.7-0.4,94.5-1,95.5-1.4
		c0.9-0.5,2.5-3,3.6-5.7c1.1-2.7,3.4-7.7,5-11.1c6.8-14.8,10.4-24.7,11.6-32c0.8-4.3,1.7-8.5,2.2-9.5c0.5-0.9,1.1-4.6,1.5-8.2
		c0.4-3.6,1.2-8.1,2-10c2.2-5.8,3.5-27.9,3.9-66.4c0.4-30.7,0.2-37-1-40.6c-0.8-2.4-1.4-6.4-1.4-9.1c0-4.6-0.5-6.4-4.7-19.7
		c-1.1-3.4-2.5-7.5-2.9-9c-0.4-1.6-2.7-8.4-5.1-15.2c-2.4-6.8-4.7-14.7-5.2-17.5c-3.2-18.6-3.2-19.1-2-22.1c0.8-1.7,1.6-5.2,2-7.8
		c1.1-7.8,6.7-28.6,9.9-36.5c0.7-1.8,2.3-6.4,3.4-10c2.6-8.2,6.9-19.8,10.5-28c1.4-3.4,3.7-8.9,4.9-12.3c1.3-3.4,4.3-11,6.7-16.9
		c4.2-10.3,5.4-17,3.6-19.7c-1.8-2.8-26.9-20.3-36.7-25.5c-3.6-2-8.5-5.4-10.9-7.6c-2.4-2.2-7.5-6.4-11.4-9.3
		c-12.1-9.1-17.4-13.4-21.3-17.2c-2.1-2.1-6.6-6.3-10.1-9.2c-3.5-3-7.6-7.5-9-9.9c-1.5-2.5-7-8.9-12.3-14.3
		c-6.6-6.9-10.2-11.4-11.7-14.9c-1.2-2.7-2.7-6.2-3.5-7.6c-0.8-1.5-1.3-3.9-1.3-5.3c0-1.5-0.9-3.8-1.9-5.1c-1-1.3-1.9-3.5-1.9-4.8
		c0-1.4-0.9-4.2-1.9-6.3c-1.2-2.4-1.9-5.6-1.9-9c0-6.2-0.9-8.1-9.1-20.5c-5.6-8.3-6.9-9.7-15.8-15.7c-11.3-7.8-14.9-9.7-23.9-12.6
		c-3.6-1.2-7.5-2.7-8.5-3.3c-4.6-2.8-13.3-3.4-44.1-3c-28.5,0.4-34.6,0.9-43.6,3.3c-5.7,1.6-6.4,2.1-10.4,7.7
		c-5.4,7.4-8.2,8.9-18.5,10c-9.1,0.9-93.3,0.9-120.4,0l-16.1-0.5l-2.6,2.4c-1.8,1.7-2.7,3.7-3,6.9c-0.3,2.6-1,7.1-1.5,10.2
		c-0.6,3.1-1.2,7.2-1.5,9c-0.3,1.8-0.9,4.2-1.2,5.2c-0.5,1-1.2,3.9-1.9,6.4c-1.8,7.7-12.6,21.2-19.5,24.5c-2.1,1-5.7,2.8-8.1,4.2
		c-2.4,1.2-4.9,2.4-5.7,2.4s-3.1,0.9-5.2,1.8c-2.1,1-5.7,2.7-8.1,3.7c-4.6,2-9.2,5.4-17.3,12.6c-2.7,2.5-9.8,6.7-16.3,10.1
		c-18.8,9.4-21.6,10.6-37.5,16.2c-2.5,0.9-6.4,3.6-9.5,6.5c-2.8,2.7-5.5,5.1-5.8,5.2c-0.8,0.4-14.4,18.8-16.8,22.6
		c-1.1,1.8-4.3,5.4-6.9,8.1c-2.7,2.6-6.5,7.1-8.5,10.1s-4.8,6.1-6.4,7c-2.6,1.7-10.7,8.4-17.2,14.3c-3.5,3.2-4.7,3.8-31,16.6
		c-17.4,8.4-20.2,9.6-28.4,11.3c-2.1,0.5-5.5,1.3-7.6,1.9c-2.1,0.6-5.3,1.4-7.1,1.9c-1.8,0.4-5.8,1.4-8.8,2.3
		c-3,0.9-6.4,1.5-7.6,1.5c-1.2,0-2.6,0.4-3,0.9c-0.6,0.5-7.6,1.1-15.6,1.4c-8.1,0.3-17.1,0.8-19.9,1.1c-5,0.6-14.6-0.9-16.6-2.7
		c-0.5-0.4-2-0.8-3.3-0.8c-1.4,0-5-0.8-8.2-1.8c-3-0.9-7-2-8.8-2.4c-1.7-0.3-6.4-2.1-10.4-4c-9.2-4.5-16.1-7-18.6-7
		c-1.1,0-2.4-0.4-2.8-0.8c-0.6-0.5-2.8-1.4-5.2-2.1c-2.4-0.8-8.1-2.9-12.6-4.9c-4.6-2-8.9-3.6-9.6-3.6s-4.5-1.3-8.2-2.9
		c-3.9-1.6-9.1-3.9-11.8-4.9c-2.6-1.1-9-4.8-14.2-8.3c-5.2-3.4-12.8-8.3-16.9-10.9c-4.2-2.6-9.2-6.1-11.3-7.9
		c-5.9-5-15.9-21.4-15.9-26c0-3.2-2.8-5.4-7.2-5.4c-5.5,0-7.7,1.8-33.7,26.5c-10.5,10.1-12.5,12.6-25.1,31.5
		c-12.8,19.2-13.8,21.3-17.5,32.2c-2.1,6.4-4.7,13-5.7,14.6c-0.9,1.6-1.8,4.3-1.8,5.9c0,1.6-0.4,3.1-0.9,3.4s-1.1,2.4-1.4,4.6
		c-1.5,9.9-1.8,11.2-2.6,11.8c-0.5,0.3-0.9,2.2-0.9,4.2c0,2.1-0.4,4.6-0.9,5.9c-0.5,1.2-1.6,6.6-2.5,12.1s-2.5,13.4-3.4,17.4
		c-0.9,4.2-1.8,10.9-1.8,15c0,7.6-4.3,25.5-10,41.8c-1.3,3.7-2.4,7.9-2.4,9.3c0,1.5-0.7,5.1-1.4,8.2c-0.8,2.9-1.4,7.3-1.4,9.6
		c0,3.8,0.5,4.6,4.2,8.2c5.7,5.4,21,18.5,25.2,21.7c2.6,1.8,4.2,4.2,5.7,8.1c1.1,2.9,3.1,7.8,4.5,10.6c4.1,8.5,4.1,26.4,0,33.7
		c-2.6,4.6-5.6,11.4-7,15.5c-0.8,2.5-2.7,7-4.1,10.1c-1.4,3.1-3.3,7.6-4.1,10c-2.7,7.9-7.1,16.6-11.5,22.7c-2.4,3.4-4.4,6.5-4.4,7
		s-2.8,5.2-6.4,10.5c-16.6,25.3-17.1,25.9-26.5,31c-8,4.3-9.4,3.5-12.8-7.2c-2.3-7.3-2.5-8.3-1.3-13c1.3-5.8,6.1-18.5,10.1-27.1
		c1.5-3.2,2.7-6.5,2.7-7.3c0-0.9,0.8-3.2,1.8-5.5c0.9-2.2,2.3-5.5,2.9-7.3c0.7-1.8,1.4-4.2,1.8-5.2c2.2-5.7,4.2-11.8,4.8-14.7
		c0.5-1.8,1.3-5,1.9-7.1c0.6-2.1,1.4-5.7,1.9-8.1c0.8-4.1,1.4-6.5,3.9-15c1.4-4.7,2.1-12,1.4-14.9c-0.8-3-3.7-5.7-9-8.2
		c-5.7-2.7-13.7-7.9-19.2-12.4c-3.7-3-4.8-4.7-6.5-10.1c-2.7-8.5-2.7-12.4,0.1-20.4c6.1-16.9,12.6-43.1,13.7-55.5
		c0.3-3.9,1.6-10.3,2.8-14.2c3-10.1,7-28.5,7-32.8c0-2.1,1-8,2.3-13.2c1.2-5.2,2.5-12.3,2.7-15.8c0.4-3.5,1-7.1,1.5-8.1
		c1.2-2.2,3.8-12.1,5.3-20.7c0.7-3.7,1.6-7.9,2.3-9.3c0.6-1.5,1-3.6,1-4.7c0-1,0.9-2.8,1.8-3.9c1-1.1,9.3-16.7,18.3-34.7
		c9.1-18,19.3-37.2,22.9-42.7c3.4-5.5,7.5-12,8.9-14.7c5.7-10.1,19.1-21.3,28.1-23.6c3.9-0.9,11.1-8,13.1-12.7
		c1.4-3.2,1.8-6.5,1.8-14.8c0-5.9-0.4-11-0.8-11.5c-2.9-3.3-5.7-25.3-6.3-48.2c-0.2-10.3-0.9-19.2-1.3-19.9
		c-0.5-0.7-1.1-3.5-1.5-6.4c-1.2-11.4-1.6-12.5-5.9-16.8l-4.1-4.1l-7.4-0.1c-4.1,0-10-0.5-13.1-0.9c-10.1-1.5-29.1-3.7-39.8-4.6
		c-7.6-0.6-13.6-1.8-21.8-4.3c-6.3-2-13-4-14.9-4.5c-2-0.5-5.2-1.2-7.1-1.7c-3.9-0.9-9.1-2-23-4.4c-23.6-4.2-31.3-5.4-37.5-6.1
		c-3.6-0.5-10.1-1.4-14.2-2.3C3256,4413.6,3236.9,4412.5,3233.7,4413.3z"/>
</g>
<g id="Labels">
	<text transform="matrix(1.1296 0 0 1 735.0562 5590.0688)" class="st0 st1">Lugait</text>
	<text transform="matrix(0.9063 0 0 1 808.7484 5248.9731)" class="st0 st2">Manticao</text>
	<text transform="matrix(0.8561 0 0 1 915.6074 5047.6748)" class="st0 st3">Naawan</text>
	<text transform="matrix(1.0944 0 0 1 1047.7314 4638.1343)" class="st0 st4">Initao</text>
	<text transform="matrix(0.8936 0 0 1 1238.3181 4201.2007)" class="st0 st5">Libertad</text>
	<text transform="matrix(1.0536 0 0 1 1451.861 3965.2964)" class="st0 st6">Gitagum</text>
	<text transform="matrix(0.7944 0 0 1 2043.0439 3760.5925)" class="st0 st7">Laguindingan</text>
	<text transform="matrix(1.1201 0 0 1 2578.1406 4026.9646)" class="st0 st8">Alubijid</text>
	<text transform="matrix(0.8648 0 0 1 2861.323 4217.1958)" class="st0 st9">El Salvador City</text>
	<text transform="matrix(1.4638 0 0 1 3132.3977 4420.645)" class="st0 st10">Opol</text>
	<text transform="matrix(1.0895 0 0 1 3504.9146 5281.4131)" class="st0 st11">Cagayan de Oro City</text>
	<text transform="matrix(1.1542 0 0 1 3608.3291 4409.9541)" class="st0 st12">Tagoloan</text>
	<text transform="matrix(1.3532 0 0 1 5887.7891 4282.4302)" class="st0 st13">Claveria</text>
	<text transform="matrix(1.084 0 0 1 3672.9624 4117.8003)" class="st0 st14">Villanueva</text>
	<text transform="matrix(0.8995 0 0 1 3804.2625 3709.7476)" class="st0 st15">Jasaan</text>
	<text transform="matrix(1.0397 0 0 1 3739.4502 3117.5708)" class="st0 st16">Balingasag</text>
	<text transform="matrix(1.0376 0 0 1 3776.4121 2622.5798)" class="st0 st17">Lagonglong</text>
	<text transform="matrix(1.2487 0 0 1 4096 2321.4724)" class="st0 st18">Salay</text>
	<text transform="matrix(1.0735 0 0 1 3784.6152 1940.8672)" class="st0 st19">Binuangan</text>
	<text transform="matrix(0.8643 0 0 1 3829.7166 1548.7268)" class="st0 st20">Sugbongcogon</text>
	<text transform="matrix(0.9424 0 0 1 4134.6172 1399.8855)" class="st0 st21">Kinoguitan</text>
	<text transform="matrix(1.2827 0 0 1 4582.7852 1294.7765)" class="st0 st22">Balingoan</text>
	<text transform="matrix(1.2536 0 0 1 5268.4604 1565.713)" class="st0 st23">Talisayan</text>
	<text transform="matrix(1.2251 0 0 1 5824.686 1894.0327)" class="st0 st24">Medina</text>
	<text transform="matrix(1.0003 0 0 1 6159.6875 2280.8491)" class="st0 st25">Gingoog City</text>
	<text transform="matrix(1.0078 0 0 1 6308.4604 1186.4928)" class="st0 st26">Magsaysay</text>
</g>
</svg>
