<?xml version="1.0" encoding="UTF-8"?>
<svg id="MisOr" xmlns="http://www.w3.org/2000/svg" viewBox="0 0 6196.35 5518.04">
  <g id="_1stDEO" data-name="1stDEO">
    <path id="Magsaysay" d="m5890.42,6.34c-6.6,3.4-15.4,8.4-19.5,11s-7.9,4.7-8.3,4.7c-.5,0-2.4,1.2-4.2,2.7-1.7,1.6-7,5.7-11.6,9.3-10.2,7.9-21.8,19.3-37,36.5-12.8,14.5-16.3,18.8-19.9,25.1-2.3,4-10.9,17-16.9,25.7-4.4,6.3-7.1,11.1-7.1,12.8,0,.9-.9,4.2-2,7.5-3.6,10.3-5,30.5-5.6,80.9-.3,25.8-.9,48.3-1.4,50-.4,1.6-.8,34.1-.8,72.1-.1,76.9.2,73.5-7.1,90.9-2.1,4.9-4.2,10.1-4.6,11.5-1.6,5.4-7.6,15.9-13.5,23.8-6,8-12.9,14.6-25.8,24.4-3.4,2.6-7.5,6.6-9.1,8.8-3.4,4.7-6.1,15.5-6.1,24.2,0,3.3-.5,6.8-1.1,7.9-1.6,3.1-1.8,61.4-.1,63.1.7.7,1.2,4,1.2,8.3,0,3.8.5,8.8,1,11,.6,2.2,1.4,8.7,1.9,14.5s1.8,13.9,2.9,18c1.8,6.8,3.3,14.1,4.6,22.5,1.3,8.2,10.1,36.4,13.2,42.3.7,1.5,1.4,3.2,1.4,3.9,0,2.1,9.2,30.8,11.1,34.4,1,2,3.7,9.2,6,16s5.7,15.5,7.5,19.4c1.9,3.8,3.4,7.7,3.4,8.5,0,.9.4,2,.9,2.6,2.2,2.2,8.3,18.1,11.5,29.5,1.8,6.8,4,14.4,4.9,16.9,2.6,7.4,4.9,18,5.8,26.5,1.5,14.6,2.7,22.9,4.4,30,1.2,5.2,1.5,9.8,1.2,18-.8,17-1.7,20.2-13.8,46.4-5.7,12.1-5.7,12-1.9,38.6.5,3.3,1.5,11.8,2.4,19,.8,7.1,2.2,16.4,3,20.5.9,4.1,3,16.3,4.7,27,3,18.8,3.9,23.6,5.8,33.7.5,2.7,1.4,7.7,2,11.3s1.5,8.7,2.2,11.5c.6,2.7,1.4,9.5,1.9,15,.4,5.5,1.3,16.5,2,24.5.7,9.1.9,22.3.5,35.5-.7,22.3-1,23.9-8.6,45.3-1,3-1.9,6-1.9,6.8s-2.6,5.3-5.7,10c-3.2,4.7-6.7,9.8-7.8,11.5-1.1,1.6-4.4,6.3-7.2,10.3-3.9,5.4-5.3,8.3-5.3,10.8,0,3.2.6,3.8,9.6,9.8,17.9,12.1,28.9,18.9,30.7,18.9.9.1,1.7.5,1.7,1.1,0,.5,3.3,3,7.3,5.6,3.9,2.6,9.9,6.5,13.2,8.7,3.2,2.1,8.6,5.2,12,6.9,3.3,1.7,10.1,5.6,15,8.8,5,3.1,11.9,7.3,15.5,9.4,3.6,2,11.9,7.5,18.5,12.1,6.6,4.7,16.1,11,21,14.1,5,3.1,11.8,7.6,15.2,10s6.6,4.4,7.1,4.4,1.5.7,2.2,1.5,4.7,3.4,8.9,5.7,10.8,6.3,14.6,8.8c3.9,2.6,9.4,5.9,12.4,7.4,3,1.6,8.1,4.9,11.5,7.5s7.7,5.6,9.6,6.6,5.3,2.8,7.5,3.9c2.2,1.2,6.7,3.9,9.9,6,3.3,2.2,9.6,5.6,14,7.7,4.5,2,10.7,5.7,13.8,8.1,7.1,5.4,26.3,17.8,38.8,25,14.7,8.5,29.7,18.5,30.3,20.2,1.4,3.5,9.9.5,18.4-6.3,4.2-3.5,14.9-11.2,18.7-13.5,1.7-1.1,5.4-3.8,8.1-6.1,2.8-2.3,6.1-4.8,7.5-5.5s5.4-3.6,9-6.4c9.7-7.7,11.9-9.2,19.1-14,3.7-2.5,7-4.9,7.4-5.5.3-.6,3.2-2.9,6.3-5,3.1-2.2,8-6.1,10.8-8.8l5.1-4.9.9-15c1.1-19.2,1.1-31.8,0-47.6-1-13.9-2.7-18.8-6.7-18.8-1.1,0-6.2-1-11.2-2.2-12.1-2.8-14.2-4.9-15.2-14.2-.9-7.8.2-27.2,1.6-29.8,1.3-2.4,1.1-9.2-.3-10.6s-12.1-1.6-14.6-.3c-3.1,1.6-20.5,3.3-33.2,3.2l-12.5-.2-9.4-4.7c-7.9-3.9-10.2-5.7-14.2-10.7-6.8-8.4-7.2-10.6-6.6-33.5.5-18.9.7-19.8,4-29.5,1.9-5.5,4.4-13.4,5.6-17.5,1.3-4.1,2.9-9.5,3.8-12,.8-2.5,1.8-6.1,2.2-8s1.3-4.5,1.9-5.7c1.8-3.3,1.4-7.8-.8-9.8-2.6-2.3-8.5-4.5-12.5-4.5-1.7,0-6.2-.7-10-1.6-3.9-.9-10.5-2-14.8-2.4s-8.3-1.2-9-1.8c-.7-.5-6.3-3.6-12.6-6.8-10.1-5.2-16.1-10-16.1-12.8,0-.4-2-3.1-4.5-5.9-5.8-6.6-8.8-12.9-12-24.7-2.3-8.7-2.5-11.1-2.4-28.5,0-10.5.5-26.2,1.1-35,.5-8.8,1.1-18.4,1.3-21.3.3-6.5,1.9-10.3,6.7-16.7,3.3-4.6,5.3-5.9,19.5-13,8.7-4.3,16.8-8.8,18.1-9.9,3.6-3.2,2.9-7.8-2.8-19l-5.1-9.7,5-5.6c4-4.7,7.1-6.7,17.7-12.2l12.9-6.6.3-4.6c.3-4.6-.8-6.5-5.7-9.3-1-.6-5.2-3.9-9.4-7.4-6.3-5.3-8.2-7.7-11.8-14.7l-4.3-8.3,1.2-7.9c2.1-14.3,2.5-26.3.9-33-.8-3.4-1.8-6.7-2.2-7.3s-1.3-3.7-2-6.8c-.7-3.2-2-8-3-10.7-.9-2.8-2.2-6.4-2.7-8-1.7-4.9-1.2-7.5,2.2-11,4.1-4.2,11.4-6.6,17.9-5.8,4.4.5,5,.3,6.5-2,1.3-1.9,1.5-3.7,1-7.8-.4-3-1-5.9-1.4-6.4-.4-.6-1.3-2.8-2-5-.6-2.2-1.8-5.4-2.6-7.2-.8-1.7-1.4-3.5-1.4-4s-1.2-2-2.6-3.4c-2.5-2.3-2.9-2.4-16.1-2.1-12.6.3-13.9.1-17.9-2-5.2-2.7-6.1-4.8-7.4-17.7-1-9-.9-9.7,1.6-16,3.8-9.6,8.8-19.3,12.6-24.8,5.8-8.3,8.8-15.2,8.8-20,0-4-.5-5-5.7-10.5-3.2-3.3-7.9-7.5-10.5-9.5-5.5-3.9-14.6-17-15.2-21.7-.2-1.7-1.1-8.3-2-14.6s-1.8-13.8-2-16.5c-1.2-14.9-2.9-29.2-3.6-31-.8-1.8-2.3-11.9-3.4-23-.2-2.2-.9-6-1.5-8.5s-1.5-8.8-2.1-14c-.5-5.2-1.4-12.7-2-16.5-1.7-10.9-2.9-20.1-4-31-.5-5.5-1.5-12-2.2-14.5-.6-2.5-1.5-7.2-1.9-10.5s-1.2-9.6-1.8-14-1.3-12.1-1.6-17c-.4-5-1.3-10.9-2.1-13.2-.8-2.2-1.9-8.8-2.4-14.5-.4-5.6-1.3-12.3-1.9-14.8s-1.5-9.2-2-15-1.5-12.8-2.1-15.5c-.6-2.8-1.6-8.8-2.1-13.5-2.4-20.7-2.8-23.9-3.8-30.5-1.1-6.7-1.8-11.3-4.2-27.5-.6-4.1-1.4-12.2-1.7-18-.4-5.8-1.2-11.4-1.8-12.5s-1.4-6.3-1.8-11.5c-.3-5.2-1.3-11.7-2.1-14.3-.8-2.7-1.7-9.6-2.1-15.5-.3-5.9-1-11.9-1.5-13.3-.6-1.5-1.7-8-2.4-14.5-.8-6.6-1.9-15.1-2.5-18.9-.5-3.9-1.4-10.4-2-14.5-.5-4.1-1.4-9.8-1.9-12.5-.6-2.8-1-7.8-1-11.3-.1-3.4-.8-7.9-1.6-9.9-.9-2.2-1.5-6.8-1.5-12.3s-.6-10.1-1.5-12.3c-.8-1.9-1.7-7.2-2-11.8-.4-4.6-1.3-11.3-2.1-14.9s-1.9-11-2.3-16.5c-.5-5.5-1.4-12.3-2.1-15-.6-2.8-1.5-8.8-2-13.5-1.5-13.4-2.7-20-4-21.6-2.5-2.9-8.1-1.5-20.5,4.9h0Z"/>
    <path id="GingoogCity" d="m5729.82,1311.84c-4.2,4.2-9.6,10.4-12,13.6s-6.1,8.1-8.1,10.9c-2.1,2.8-4.2,7.2-4.8,10.1-.7,2.8-3.1,9.6-5.5,15.1-9.6,22.6-12.8,32-17,50.5-.9,4.1-3,11.8-4.6,17s-4,13.5-5.4,18.5c-1.4,4.9-3,10.8-3.6,13s-2.7,8.5-4.6,14-3.9,12.2-4.3,14.9c-.5,2.6-1.5,5.8-2.3,7-.8,1.1-1.9,3.9-2.6,6.1-1.5,4.9-6.6,18.3-9.4,24.8-2.5,5.7-7,9.5-15.9,13.7-7,3.2-16.6,4.8-36.8,6-12.6.7-24.7,3.3-31.2,6.6-1.8.9-11,9.3-20.4,18.5-9.5,9.3-17.6,16.9-18.1,16.9s-5.2.9-10.3,2-10.7,2-12.4,2c-1.6,0-6.1.9-10,2.1-8.4,2.5-11,3.2-23.6,6-9,2-23.5,8.5-28.3,12.8-1,.8-3.3,2.4-5.2,3.6-3.4,2-14.7,10-22.1,15.5-2.3,1.6-4.5,3-5.1,3-.5,0-2,1.1-3.3,2.6-5.2,5.4-67.4,34.4-74,34.4-.9,0-1.9.3-2.3.6-.6.7-9,3.5-21.2,7.3-6.9,2.1-36.6,9.3-43.5,10.6-1.9.3-8.4,1-14.5,1.4-6,.5-14.6,1.4-19,2.1-11.1,1.7-63.8.6-72.2-1.6-7.3-1.9-15.1-5.9-27.1-14-5.2-3.5-9.7-6.4-10-6.5-.4,0-2.7-1.5-5.2-3.3-4.8-3.5-5.7-4.8-9.1-14.1-1.3-3.3-3.7-9.6-5.6-13.9-1.8-4.4-3.3-8.8-3.3-9.8,0-1.1-.8-3.3-1.7-5.1-1.6-2.8-1.8-6.7-1.9-33.2-.1-30-1.8-50.7-4.5-55.7-5.3-9.9-12-17.6-37.6-42.8-15.3-15.2-33-32.2-39.3-37.9-37.7-33.7-67.4-61.9-73.3-69.6-2.2-2.8-7.6-8.8-12-13.6-4.5-4.7-10.2-11.1-12.7-14.3s-7.4-8.8-10.9-12.4c-3.5-3.7-8.4-9.2-11-12.2-2.5-3-6.4-7.5-8.6-10-2.3-2.5-6.2-7.8-8.8-11.8-4.3-6.7-4.9-7.2-8.2-7.2-2,0-5.2,1-7.3,2.3-2,1.3-7.1,4.3-11.2,6.7s-10.2,6.9-13.5,10c-7.2,6.7-17.9,14.9-29.5,22.6-3,2-6.6,4.7-8,5.9-1.4,1.3-6.5,5-11.5,8.4-13.2,8.8-28.1,20.4-35.5,27.6-3.6,3.5-9.6,8.4-13.5,10.9-13.8,9-19.3,13.2-25.6,19.3-3.5,3.4-8.4,7.7-10.9,9.6-13.3,9.9-39.9,29.2-46.6,33.7-5.7,3.8-18.3,13.7-22.4,17.5-5.1,4.8-22.4,18.1-31.4,24-3.3,2.1-9.1,6.9-13,10.5s-12.3,9.9-18.6,14-12.7,8.6-14.1,10c-1.5,1.4-5.3,4-8.7,5.8-7.5,4-16.5,10.6-24.6,18-3.4,3.1-8.2,7.2-10.6,8.9-2.5,1.8-7.2,5.5-10.5,8.3-3.3,2.7-8.6,6.8-11.7,9s-6,4.4-6.3,5-4.4,3.6-9.1,6.7-12.3,9-16.9,13.2c-8.8,8-16.7,13.9-24.8,18.6-2.7,1.5-5.4,3.7-6,4.8-.7,1-4.8,4.4-9.2,7.3-4.4,3-10.7,7.4-14,9.9s-7.7,5.4-9.7,6.5-5.6,4.3-8,7c-2.7,3.2-9.8,8.8-18.7,14.8-7.9,5.3-16.9,11.9-20,14.7-3.1,2.7-8.8,7-12.6,9.5-3.9,2.4-10.9,7.8-15.6,12-11.3,9.8-15.6,13.1-45.5,33.9-7.5,5.2-10.4,8.2-10.4,10.8s3.5,14.8,5,17.3c2.8,4.8,9.1,18.6,10,21.9.5,2.1,1.7,4.4,2.5,5.1s1.5,2,1.5,2.9,1.6,4.2,3.5,7.4,5.1,9.9,7,14.9,5.6,12.7,8.1,17.1c2.5,4.5,5.4,10.9,6.5,14.4,1.2,3.5,2.5,6.5,3,6.9.5.3.9,1.4.9,2.6,0,1.1,1.3,4.4,2.9,7.2s3.5,7,4.2,9.4c.7,2.3,1.8,4.7,2.6,5.3.7.6,1.3,1.9,1.3,2.9,0,.9.9,2.9,2,4.3s2,3.4,2,4.5c0,1.2.5,2.4,1,2.7,1.5.9,8,14.2,9.6,19.6.8,2.6,2.1,6,2.9,7.6.8,1.5,1.5,3.3,1.5,3.9s.7,1.7,1.5,2.4,1.5,2,1.5,3c0,.9.8,2.8,1.8,4.1,2,2.5,16.2,33.9,16.2,35.6,0,1.4,6,13.2,7.1,13.8.5.4.9,2.4.9,4.5s.4,4.1.9,4.5c1.2.7,14.1,26.5,14.1,28.1,0,.6.6,1.7,1.4,2.3.7.6,1.6,2.9,2,5,.3,2.1,1.3,4.4,2.1,5.1s1.5,2.2,1.5,3.4.5,2.7,1.2,3.4c2.5,2.5,16.9,31.7,20.8,42.2,1.5,4.1,4,10.1,5.4,13.2s2.6,5.9,2.6,6.1c0,.3,1.6,3.3,3.5,6.7s3.5,7.3,3.5,8.7.6,3.7,1.4,5.1c4.2,8.2,6.5,13.3,8.2,18.2,1,3,2.4,6.2,3.1,7.1.7.8,1.3,1.9,1.3,2.3,0,1.6,7.6,16.4,9.1,17.6.7.6,5.9,13.5,5.9,14.7,0,.8,11.2,25.1,13,28.3,3,5.1,9,17.8,9,18.8,0,.6,1.1,3.5,2.4,6.4,1.4,2.9,3.9,8.4,5.7,12.3,1.8,3.8,3.6,7.2,4,7.5,1,.7,6.9,14.5,6.9,16.1,0,.7,2.4,6.2,5.4,12.3s6.5,13.3,7.7,16.1c1.2,2.7,2.8,5.7,3.5,6.5.6.8,1.9,3.9,2.8,6.8.8,2.9,2.4,6.6,3.6,8.1,1.1,1.6,2,3.5,2,4.3,0,.7.9,2.8,2,4.6s2,3.9,2,4.6.9,2.5,2,3.9,2,3.3,2,4.2.9,2.8,2,4.2,2,3.4,2,4.3c0,1,.7,2.3,1.5,3s1.5,2.3,1.5,3.5c0,1.3,1.5,4.6,3.4,7.4s4.4,7.7,5.6,10.8c1.2,3.2,3.9,8.7,6,12.3s4.2,7.8,4.6,9.5c.4,1.6,2.7,7,5.1,11.9,2.3,4.9,4.3,9.5,4.3,10.2,0,1.4,8.5,19.3,11.6,24.4,1.2,1.9,2.7,5.3,3.4,7.5s1.9,4.9,2.6,6.1c.8,1.1,2.2,4.5,3.3,7.5,1.8,5.3,9.2,21,13,27.9,1.1,1.9,3.2,6.4,4.8,10,1.5,3.6,4,8.5,5.4,10.8,1.5,2.4,4.4,8.5,6.3,13.6,2,5.1,4.3,10.1,5.1,11.2.8,1,1.5,2.6,1.5,3.5s1.8,4.7,3.9,8.4c2.2,3.7,5.4,11.2,7.1,16.6,1.8,5.5,3.6,10.2,4.1,10.4.4.3,2.9,4.9,5.4,10.3,2.5,5.3,5.2,10.8,6,12.2.7,1.4,1.6,4.2,2,6.2.4,2.1,1.3,4.2,2.1,4.9.8.6,1.4,1.7,1.4,2.4s1.5,3.9,3.3,7.1c2.7,4.9,3.8,6,6.7,6.6,1.9.4,77.3,1.3,167.5,1.9s192.4,1.3,227,1.5c40.5.3,68,.1,77-.6,7.7-.6,23.2-1.5,34.5-1.9,18.9-.8,260.4.5,299.6,1.5l17.2.5,6.8-7.7c3.8-4.2,11.2-11.9,16.5-17.3,5.2-5.3,11.4-12.1,13.6-15.1,2.3-3,7.3-8.7,11.3-12.5,3.9-3.9,8.6-9,10.3-11.5s5.7-7.2,8.8-10.5c11.2-11.7,19.5-21.1,22.6-25.5,1.7-2.5,5.2-6.5,7.8-9s6.7-7.2,9.3-10.5c2.5-3.3,7.1-8.7,10.1-12,3.1-3.3,8.8-9.8,12.6-14.3,3.9-4.6,10.3-12,14.3-16.5,4.1-4.5,8.8-10.2,10.5-12.7s7.4-8.8,12.7-14,12.1-12.6,15.1-16.4c2.9-3.8,8.6-10.3,12.5-14.5,12.7-13.5,18.4-20.1,18.4-21.1,0-1.6,12.6-16.5,15.4-18.4,1.4-.9,5.1-4.8,8.3-8.8,3.1-4,8.3-10.1,11.5-13.6,3.2-3.4,5.8-6.7,5.8-7.2,0-.6.6-1,1.4-1s2.8-2.1,4.5-4.8c5.5-8.5,12.5-17,16.6-20.2,2.1-1.7,5.7-5.5,7.8-8.3,2.2-2.9,6.2-7.7,9.1-10.7,2.8-3,6.6-7.8,8.5-10.5,1.8-2.8,5.7-6.8,8.7-9,2.9-2.2,5.4-4.5,5.4-5.1s2.5-3.8,5.6-7c3.1-3.3,10-12,15.5-19.5,5.4-7.5,11-14.1,12.3-14.7s3.7-2.8,5.2-4.8c1.6-2.1,5.7-6.7,9.2-10.3s8.2-9.3,10.4-12.6c2.3-3.3,10.6-12.6,18.6-20.7s15.7-16.6,17.1-18.8c1.5-2.2,4.2-6.5,6.1-9.6,3.4-5.4,11.8-14.8,19-21,10.6-9.2,28.7-29.3,35.2-39.2.9-1.4,2.4-3,3.3-3.5s2.4-2.2,3.4-3.8c.9-1.5,9-10.5,17.9-20,8.9-9.4,16.2-17.8,16.2-18.7s3.7-5.5,8.3-10.2c14.2-15,20.7-22.3,20.7-23.3,0-.5,3.5-4.6,7.8-9.1,4.4-4.4,9.9-10.8,12.3-14.1s6.9-8.4,10.1-11.3c3.1-2.9,6.5-7,7.5-9s3.7-4.9,6.1-6.5c2.3-1.6,4.2-3.6,4.2-4.5,0-1,3.6-5.3,8-9.7,4.5-4.4,9.3-10,10.7-12.5,1.5-2.5,3.2-5,3.9-5.5.6-.6,1.5-1.7,2-2.6s4.5-4.9,9-8.8c11.1-9.9,12.3-12.3,13.5-27.3.6-6.8,1.4-13.9,1.9-15.8s1.1-12.7,1.4-24,1-22.1,1.6-24c.5-1.9,1-9.2,1-16.2s.4-13.7.9-15,1.2-8.4,1.5-15.8c.4-7.4,1.2-19.6,1.7-27,4.5-62,6.2-87.6,6.8-100.5.4-8.3,1-15.7,1.4-16.5.3-.8.9-7.6,1.3-15,.3-7.4.8-17.1,1.1-21.4.6-9.4.5-9.4-9.7-23.6-7.2-9.9-12.2-17.1-18-25.9-1.4-2.1-4.5-6.6-7-10-6.9-9.6-11.2-15.6-15-21.1-13-18.9-17.5-23.4-30.3-30.7-2.7-1.6-8.6-5-13-7.7-4.5-2.7-9.6-5.6-11.3-6.6-1.7-.9-6.2-3.8-10-6.5-8.4-5.9-22.8-14.7-31-19.1-3.3-1.7-8.4-4.8-11.2-6.8s-9.3-6-14.4-8.7c-5.1-2.8-11.3-6.7-13.8-8.8s-8.7-6.1-13.8-9c-5.1-2.8-11.4-6.7-14-8.5-2.6-1.9-7.2-4.6-10.2-6.1s-11.5-6.9-19-12c-7.4-5-16-10.6-19-12.4s-9.1-5.9-13.5-9.1-9.8-6.8-12.1-8c-2.3-1.1-4.8-2.7-5.5-3.6-.7-.8-3.1-2.5-5.3-3.6-2.3-1.1-7.2-4.1-11.1-6.6-3.8-2.5-8.8-5.5-11-6.7s-6.7-3.7-10-5.5-13.3-8.1-22.2-13.9-20.4-13.3-25.4-16.6c-5.1-3.3-10-6.5-10.8-7-.9-.6-4.3-2.9-7.6-5.1-9.3-6.4-9-6.5-17.6,2.4h0Z"/>
    <path id="Medina" d="m4385.02,900.64c-1.7,1.4-3.1,3.1-3.1,3.7,0,2.3-23.8,36.6-29.9,42.9-3.5,3.7-8,9.2-10,12.3-6.7,10.1-10.8,17-14.5,23.6-3.4,6.2-10.5,15.4-13.2,17.2-.7.4-3.2,3.5-5.7,7-2.5,3.4-5.7,7.3-7.2,8.7s-3.3,3.7-4.1,5.3c-.8,1.5-4.3,6.2-7.7,10.5-3.5,4.2-11.9,16.2-18.8,26.7-6.9,10.4-15,21.7-18,25s-6.6,7.8-7.9,10c-1.4,2.2-3.8,5.4-5.6,7.1-1.7,1.7-4.5,5.7-6.3,9-1.9,3.2-5.7,8.3-8.6,11.4-2.9,3-6.4,7.3-7.9,9.5s-4.7,6.7-7.1,10c-2.5,3.3-6.2,8.5-8.3,11.5-2,3-5.7,8.2-8.1,11.5-8.6,11.6-11.7,16-13.4,19.5-1,1.9-4.2,6.4-7.3,10-3,3.6-7.6,9.8-10.1,13.9s-9.5,13.9-15.6,21.8c-6.2,7.9-13.6,17.4-16.4,21.1-2.9,3.7-8.5,11.4-12.4,17.2-6.6,9.7-9.5,13.6-19,26-7.2,9.4-19.4,19.5-30.9,25.4-8.6,4.5-13.1,6.6-14,6.6-1.3,0-1.1-1.4-1.7,13.5-.5,13.8.6,21.9,3.7,26.5,1,1.4,2.5,5,3.5,8s2.6,6.6,3.5,8c1,1.4,3.3,5.4,5.1,9s4.9,9.2,6.9,12.5c2.1,3.3,4.5,8.2,5.4,11,.9,2.7,3.2,7.7,5.1,11,6.1,10.6,24.5,48.4,24.5,50.3,0,.5.7,1.5,1.5,2.2s1.5,1.9,1.5,2.7,1.7,4,3.9,7.1c4,5.9,13.1,21,13.1,21.8,0,.9,13.2,27.2,17,33.9,2.1,3.8,5.4,10.4,7.1,14.5s4.2,8.8,5.4,10.5c1.3,1.6,3.5,5.9,5,9.4,1.5,3.6,4.1,8.8,5.9,11.5,1.8,2.8,5.6,10,8.5,16.1,11.2,23.2,13.4,27.5,14.1,27.5.4,0,2.4,3.5,4.4,7.7,2,4.3,4.1,8.5,4.6,9.3s3.8,7.3,7.3,14.5c3.5,7.1,9.3,18.4,12.8,25,3.6,6.6,8.2,15.1,10.3,19,2.1,3.8,5.7,11.7,8.1,17.5,5,12.4,7.9,18.9,11,25,3.5,6.7,6.4,6.6,15.7-.3,4-3,9.3-6.6,11.8-8,2.5-1.5,6.8-4.5,9.5-6.6,2.8-2.2,7.7-5.9,11-8.2s7.7-5.9,9.8-8.1c2.1-2.1,6.3-5.2,9.3-6.9s5.4-3.5,5.4-4c0-.4,2.8-2.7,6.3-5.1,3.4-2.3,8.5-6.3,11.2-8.9,2.8-2.6,10.9-8.5,18.1-13.3,8.6-5.6,15-10.6,18.5-14.5,3.3-3.6,9-8.2,14.4-11.6,5-3.1,9.9-6.4,11-7.4s4-3.1,6.5-4.7,5.3-3.9,6.3-5.1c.9-1.2,3.4-3.2,5.5-4.4,2-1.2,4.2-2.7,4.7-3.4.6-.6,3.9-3.1,7.5-5.5s8.3-5.9,10.6-7.9c6.4-5.6,19.3-15.5,25.4-19.4,3.1-1.9,6.2-4.3,7-5.3.8-.9,3.4-2.9,5.6-4.4,2.3-1.4,6.3-4.4,8.9-6.5,4.4-3.8,8.4-6.4,15-10,1.7-1,6.2-4.8,10-8.5,3.9-3.7,11.3-9.8,16.5-13.5s11.1-8.3,13.1-10.2c1.9-1.8,6.5-5.3,10.1-7.6,15-9.6,18.6-12.3,24.6-17.8,3.4-3.2,9.7-8.2,14-11,9.9-6.7,28.1-20.6,30.7-23.4,2.3-2.7,18.7-15,34.1-25.9,6-4.2,13.8-9.9,17.4-12.6s8.8-6.5,11.6-8.4,7.7-6.2,11-9.6c5.3-5.6,13.4-11.9,15.2-12,.4-.1,4.3-3,8.7-6.5,4.4-3.6,10.9-8.6,14.5-11.2,3.5-2.7,8.9-7.1,12-9.8,5.4-4.8,11.2-9.3,24.5-19.1,3.3-2.4,9.6-7.3,14-10.9,4.4-3.5,10.7-8.3,14-10.7,3.3-2.3,10.5-7.6,16.1-11.7,12-9.1,24.2-17.6,30.1-21.2,5.7-3.4,11.3-8.6,11.3-10.5,0-1.7-3.2-7.9-8.9-17.4-4.4-7.1-10.8-18.6-15.1-26.7-6.9-12.9-12.6-48.7-12.2-76.3.2-13.3-2.6-31.7-5.6-37.6-2.4-4.7-7.6-9.6-20-19.3-8.6-6.7-17.8-11.3-27.7-13.8-1.1-.3-6.5-2.6-11.9-5.1-7.5-3.4-11.7-4.7-17-5.2-7-.7-20.3-3.2-26.2-5.1-1.7-.5-4.3-.9-5.9-.9-1.5,0-6.7-1.1-11.4-2.4s-11.5-2.9-15.1-3.6c-3.6-.6-8.8-2.3-11.7-3.8-7.8-4-23.4-16.3-28.9-22.7-2.6-3.1-6.6-6.7-8.8-8-5.7-3.3-20.9-8.1-28.3-8.9-6.4-.7-41.2-11.7-44.7-14.2-1.1-.7-5.7-4.9-10.2-9.1-4.5-4.3-10-9.3-12.2-11-5-4.1-13.2-14.7-28.8-37.4-10.4-15.3-16.2-22.3-26.6-32-15.5-14.4-29.1-23.1-39.8-25.4-17.9-4-39.1-10-42.9-12.1-5.8-3.2-11-3.2-15,.2h0Z"/>
    <path id="Talisayan" d="m3853.42,501.04c-10.3,1-14.4,2.4-22.6,7.9-4.1,2.6-9,5.6-10.9,6.6-3.4,1.7-12.2,7.2-22.9,14.4-2.9,2-6.2,4.7-7.2,6-2.9,3.6-2.4,10.4,1.5,22.3,1.9,5.7,3.7,11.9,4.1,13.8s1.3,4.6,2.1,6c.7,1.4,1.5,4.1,1.9,6.1.3,2.1,1.2,4.2,2,4.9s1.5,2.3,1.5,3.7c0,1.3.8,4,1.8,6.1,1,2,2.4,5.7,3.2,8.2.7,2.5,2.1,6.3,3.1,8.6,1.1,2.2,1.9,4.6,1.9,5.3s.6,2.5,1.4,3.9c.8,1.5,3.1,7.6,5.1,13.7,2,6,4.5,12.7,5.7,14.9,1.1,2.1,3.3,7.7,4.8,12.5,1.6,4.7,4.5,12.9,6.5,18.1,6.4,16.5,9.4,25.2,12.5,36.5,5,18.5,5.4,20,6.1,20.5.4.3,1,2.1,1.4,4s1.5,5.1,2.5,7c2.4,4.9,6,16.4,6,19.3,0,1.3.9,3.6,2,5s2,3.3,2,4.3c0,.9,1.3,3.8,2.9,6.3s3.6,7.3,4.6,10.6c.9,3.3,2.3,7,3.1,8.3.9,1.3,2.1,4.2,2.9,6.5,2,6.2,6.3,16.5,9,21.8,1.3,2.6,3.1,7.5,4,11s2.5,8.4,3.7,10.9c1.1,2.5,4,11.2,6.3,19.5,2.4,8.2,7,24.1,10.4,35.3s6.1,20.9,6.1,21.6c0,.8.9,2.5,2,3.9s2,3.2,2,3.9c0,.8,1.2,3.7,2.6,6.4s3.2,7.1,4.1,9.9c.8,2.7,2.4,6.4,3.4,8.1,1.1,1.8,2.4,5.8,3,9,.6,3.3,2.4,8.6,4,12,1.6,3.3,4.7,12.1,6.8,19.5,4.1,14.1,9,28.7,13.6,40.4,1.5,3.8,4.1,11.6,5.9,17.1,1.7,5.6,3.6,10.8,4.3,11.5.6.8,2.1,4.5,3.4,8.4,1.2,3.8,3,8.8,4,11,1.6,3.6,4.9,13.8,10.9,33,1.2,3.8,2.5,7.2,2.9,7.5s1.3,3,2,6c1.7,7.2,11.8,37.6,13.7,41.1.8,1.5,1.9,5.2,2.5,8.1s1.5,5.5,1.8,5.8c.4.3,2,4.8,3.5,10,4.4,14.8,6.2,19.4,14,34.9,6.9,13.6,9.3,20.7,11.1,32.1.4,2.5,1.6,7.9,2.7,12,1.7,6.4,3.7,24.9,3.8,34.3,0,3.3,2,4.3,5.2,2.6,1.3-.7,4.4-2,6.9-2.9,8-2.8,18.4-9.8,27-18.4,8.9-8.7,14.7-16.2,28-36.2,2.5-3.8,8.4-11.7,13-17.6,16.2-20.6,19.4-24.7,19.8-26,.2-.7,2.1-3.3,4.2-5.7s5.4-7.1,7.3-10.5c1.9-3.3,5.8-8.8,8.6-12.1s6.6-8.4,8.3-11.2c3.1-5,11.3-16.7,29.6-42.2,4.6-6.4,10.5-13.9,13.1-16.6,2.5-2.8,6.6-8.4,9-12.5s6.5-9.8,9.2-12.7c2.6-2.8,4.8-5.6,4.8-6.1s2.5-3.7,5.6-7.3c3.1-3.5,6.1-7.5,6.7-8.9s3-4.6,5.4-7.2,4.9-6,5.5-7.5c.7-1.5,2.6-4.6,4.3-6.8,5.9-7.7,13.5-20.1,13.5-22.2,0-1.4,2.4-4.2,6.5-7.9,6.1-5.3,16.5-18.2,16.5-20.3,0-.5,2.2-3.2,4.9-6,4.3-4.4,14.1-18.1,14.1-19.7,0-.3,2-3.7,4.5-7.4s4.5-7.1,4.5-7.5c0-1.6,7-10.6,13.4-17.3,3.9-4,7.7-8.5,8.4-9.9.8-1.4,4.1-6.3,7.3-10.9,3.2-4.5,5.9-8.7,5.9-9.3s.4-1.1.8-1.1,2.7-3.4,5-7.5c7.1-12.7,5.8-15.9-10.3-23.7-4.4-2.1-10.2-5.4-13-7.3-9.3-6.4-20.5-14.9-20.5-15.5,0-.3-4-4.8-8.9-9.9s-11.1-12.5-13.8-16.4c-2.6-3.9-6.7-9.7-9.1-12.9-2.3-3.1-6.1-8.7-8.4-12.5-4.5-7.4-13.6-18.3-17.7-21.1-3-2-14.6-2.8-59.6-4.1-15.9-.5-30.4-1.2-32-1.7-1.7-.5-5.1-2.3-7.6-3.9-3.8-2.4-5.5-4.6-9-11.5-4.9-9.8-11.8-20.8-14.5-23.1-3.1-2.7-21.4-11.9-27.9-14-3.3-1.1-10-2.4-15-2.9-10.1-1-16.5-3.8-33.2-14.6-8.9-5.7-9.3-6.1-13.5-14.4-16.6-32-20.4-38.8-22.7-41.3-4.6-5-18.2-13.3-23.9-14.5-3-.7-13.5-1.2-23.8-1.2h-18.4l-12.7-6.5c-7-3.6-14.1-7.8-15.8-9.3-3.8-3.5-7.9-5.4-18-8.3-4.4-1.2-9.8-3.1-11.9-4.2-2.2-1-6-2.5-8.6-3.3-4-1.2-6.2-2.9-13.1-10.5-4.6-5-8.7-9.9-9.1-10.9-.3-.9-1.6-6.7-2.8-12.9-2.2-11.2-2.2-13.3-.4-30.6.8-8.4-2.8-32.4-5.6-37.1-3.6-5.7-5.7-6.1-22.5-4.4h0Z"/>
    <path id="Kinoguitan" d="m3498.42,565.54c-.5.2-6.2,1.5-12.5,2.9-16.8,3.8-19.1,4.6-22.4,7.1-6,4.4-21.3,7.9-44,10-9,.8-33.5,7.3-39.1,10.3-2.9,1.6-6.2,4.5-8,7l-3,4.4.1,15.1.1,15.2,7.1,13.5c8.8,16.8,12.3,23.7,15.9,31.9,1.5,3.6,3.7,7.9,4.8,9.5,1.1,1.7,3.5,7.1,5.4,12.1,3.4,9.1,13.9,30.9,17.1,35.5.9,1.4,2.9,6.5,4.4,11.5,2.7,8.6,10.2,22,16,28.3,2.4,2.7,20,13.4,29.9,18.3,3.8,1.8,9.2,5.3,12.2,7.8,2.9,2.5,6.4,5.3,7.7,6.2s4.6,5.3,7.3,9.8c2.8,4.5,6.7,10.4,8.8,13s5.5,7.5,7.5,10.8c2,3.4,5.4,8.7,7.5,11.9,6.9,10.8,14,23.8,18.1,33.4,3.9,9,7.5,16,15.1,29.1,1.8,3.1,4,8,5,10.9,1,3,3,7.9,4.5,10.9,1.5,3.1,3.3,7.4,4,9.6s2.9,7.1,5,11c9.8,18.1,13.4,26,17.6,38.5,2.5,7.4,6.1,16.2,8.1,19.5,1.9,3.3,4.7,9.6,6.1,14s3.9,9.9,5.5,12.3c3.2,4.7,7.7,15.2,7.7,17.8,0,.9,1.6,4.3,3.7,7.5,3.2,5.3,6.7,8.5,14.8,13.7,1.1.7,4.6,2.9,7.8,5,3.2,2,8.7,5.8,12.2,8.4,3.4,2.6,8.9,6.4,12.1,8.5,3.3,2.1,8.8,5.9,12.4,8.4,3.6,2.6,9.2,6.1,12.5,7.9,3.3,1.9,10.5,6.2,16.1,9.6,5.5,3.4,15.4,9.1,22,12.6,6.5,3.6,15.4,8.6,19.6,11.2,5.6,3.5,8.3,4.7,10,4.2,5.5-1.4,5.3.2,5.1-36.3-.1-21.1-.6-37.2-1.4-42.8-1.1-7.9-1.7-9.6-5.8-15.5-2.5-3.6-4.8-6.7-5.1-7s-2.4-3-4.7-6.1c-4.5-5.9-17-18.1-26.9-26.4-3.3-2.8-7.6-7-9.4-9.5-5.3-7-17.9-21.7-24.5-28.5-3.3-3.4-8.9-9.5-12.5-13.6-3.6-4-11.6-12.4-17.8-18.5-6.2-6.2-13-13.5-15-16.2-2-2.8-6.4-8.3-9.7-12.4-3.4-4-7.5-9.4-9.3-12.1-1.8-2.6-3.9-4.7-4.7-4.7s-1.5-.4-1.5-.8c0-.5-2.8-3.9-6.2-7.6-14-15.1-16.5-21.4-23.3-56.6-.8-4.1-1.7-10.6-2-14.4s-1.2-8.3-2-10.2c-2.7-6.5-3.4-18.2-3.1-53.9.2-27.5.7-38.8,2-48,.9-6.6,1.9-16.1,2.1-21,1.8-35.9,4.6-64.8,7.6-79,.5-2.8,1.9-11.5,3-19.5s2.5-18.1,3.1-22.4c1.4-10.4,1.2-10.6-13.6-10.6-6.1,0-16.7-.7-23.6-1.5-11-1.3-60.3-2.1-63.5-1h0Z"/>
    <path id="Sugbongcogon" d="m3364.42,649.74c-.9.9-3.1,4.6-4.9,8.2-3.7,7.4-12.8,19.8-26.1,35.3-4.9,5.8-12,14.4-15.7,19.1-4.7,5.8-10.6,11.6-18.7,18.1-13.8,11.1-23.1,21.3-23.1,25.5,0,2.7,1.1,4.4,9.2,14.2,2,2.4,5.9,7.3,8.8,10.9,2.8,3.6,6.8,7.8,8.8,9.4,2,1.7,6,5,8.8,7.5,2.9,2.5,6.7,5.7,8.5,7.1s5.8,4.8,8.9,7.6c3,2.8,9.3,7.7,14,10.9s12.8,9.1,18,13.1c5.2,3.9,13.6,9.8,18.5,12.9,5,3.2,9.5,6.3,10,6.9,1.6,1.7,7.6,6.1,17.2,12.4,38.9,25.7,53.9,35.7,54.3,36.3.3.3,3.7,2.6,7.7,5,7.6,4.7,11.9,9.3,16.1,17.4,2.9,5.7,3.7,10.2,5.1,30,.6,7.7,2.2,19.6,3.6,26.5,1.7,8,2.9,18.3,3.4,28.5,1.3,23.1,3,38.9,5.1,47.5,1,4.1,2.2,10.9,2.6,15,.3,4.1,2,14,3.6,22,1.7,8,3.5,17.2,4,20.5,1.5,8.7,3.7,13.3,8.2,17,6.3,5,48.6,32.5,50.1,32.5.3,0,3.4,1.9,6.9,4.2,3.5,2.4,10.6,6.9,15.8,10,5.1,3.1,12.2,8.2,15.8,11.2,3.6,3.1,7.9,6.2,9.6,7.1,4.4,2.1,19.4,4.5,27.9,4.5,9,0,14.8,2.4,26.1,10.8,4.4,3.3,14.8,10.4,23,15.9s15.5,10.7,16.2,11.6c2,2.4,7.8,4,11.7,3.3,3-.6,4.3-2,10.7-11.9,4.1-6.2,9.7-15.3,12.5-20.2,5.1-9,17.3-36.4,17.3-38.8-.1-2.5-2.9-6.3-6.3-8.2-1.9-1.1-7.2-4.5-11.8-7.6-4.6-3-13.6-8.3-19.9-11.6s-16.3-8.8-22.2-12.4c-5.8-3.5-13.4-8-16.8-9.9s-7.2-4.4-8.4-5.5-6.2-4.7-11.1-8.1c-5-3.3-17.2-11.5-27.3-18.3-14.8-10-18.7-13.1-20.3-16.2-1.1-2.2-2.3-3.9-2.8-3.9s-1.4-2.4-2.1-5.2c-.6-2.9-3.2-9.3-5.9-14.3-2.6-4.9-5.8-12.2-7-16.2-1.3-4-4.1-10.2-6.2-13.8-2.1-3.7-4.5-8.8-5.3-11.3-3.9-12.8-8-23.3-11.2-28.4-1.8-3.1-3.4-5.9-3.4-6.3s-1.3-2.9-2.8-5.4-4.5-8.7-6.6-13.6c-6.9-16-9.8-21.9-13.1-27-4.3-6.6-11.5-20.4-11.5-22,0-5.1-12-29-19.5-38.9-1.3-1.7-4.3-6.9-6.7-11.6-3.9-7.5-8-14.1-21.5-34.8-1.9-2.8-3.8-5.2-4.1-5.2-.4,0-2.5-1.8-4.7-4-5.9-5.8-12.8-10.8-17.1-12.4-9.1-3.2-23.5-10.8-26.6-13.9-7.5-7.5-16.4-22.6-20.3-34.7-1.6-4.8-5.7-13.2-9.2-19.2-3.8-6.3-7.9-14.9-10-21-2-5.7-4.2-11.2-4.9-12.3-.8-1.1-1.4-2.5-1.4-3.2,0-.8-1.1-3.1-2.5-5.2s-4.1-7.8-6-12.6c-3-7.6-8.6-17.9-10.5-19.5-.4-.3-2-3.3-3.6-6.7-3.1-6.7-5.6-8-8.9-4.6h0Z"/>
    <path id="Binuangan" d="m3259.92,766.94c-8.4,5.6-45.2,41.9-46.5,46-.4,1.3-2.3,5.1-4.3,8.5-2,3.3-3.9,8.1-4.3,10.6s-1.7,7.6-3,11.5c-2.3,6.8-2.3,8-2.7,53-.2,30.6.1,47.2.8,49.5.6,1.9,1.5,7.5,2,12.3.6,5.6,1.8,10.9,3.4,14.3,1.4,3,3.2,9.2,4.1,13.7,4.1,20.8,9.7,39.9,16.4,55.7,2.7,6.3,6.8,16.4,9.1,22.5,5.2,13.9,8,20.7,9,22,.4.5,1.1,2.5,1.5,4.4.4,1.8,2,5.9,3.6,9.1,1.5,3.2,3.3,7.6,3.8,9.9s1.5,5.1,2.3,6.4c.8,1.2,2.5,5.3,3.8,9.2,1.3,3.8,3,8,3.8,9.3,1.3,2,5.7,17.2,8.1,28.2.4,1.9,1.6,5.3,2.5,7.5s2.6,8.3,3.7,13.5c1.8,8.5,8.5,36.8,10.8,46,.5,1.9,1.5,7.1,2.1,11.5s1.5,9.8,2,12,1.1,5.2,1.4,6.7c.9,4,3.2,5.8,7.8,5.8,4.1,0,12.1-4.2,26.8-14,3-2,10-6.3,15.5-9.5s10.8-6.4,11.7-7.2,3-2.2,4.7-3.1c1.7-1,8.8-5.7,15.8-10.6,6.9-4.8,15.6-10.2,19.2-11.8s8.6-4,11.1-5.1c3-1.47,31.67-2.2,86-2.2,44.8,0,87.4-.4,94.7-.9,14.9-1,16.7-1.8,16.1-7.7-.3-3.1-1.3-4.1-10.8-10.4-11.7-7.8-20.7-13.2-35.4-21.2-10.2-5.5-19.8-11.9-34.7-23-7.9-5.9-8.8-6.9-10.2-11.6-1.5-5-3.1-13.9-4.8-26.2-.9-6.7-4.3-23.1-5.9-28.5-1.4-4.7-4.7-23.8-5.5-32.3-.4-3.7-1.1-8.2-1.6-10-1.5-5.1-3.2-21.3-3.4-32.2s-3.6-35.1-6.7-48.5c-1.1-4.7-2.4-10.5-2.9-12.9-1.3-6.3-6.7-17.5-9.8-20.4-1.4-1.4-4.7-3.8-7.2-5.4-8.2-4.9-37.3-24.6-39.3-26.5-1.1-1-2.4-1.8-2.8-1.8-.5,0-1.4-.4-2.1-1-.7-.5-9.1-6.2-18.6-12.6-9.6-6.4-19.1-12.9-21-14.5-2-1.6-9.4-6.9-16.6-11.8-7.1-5-13.5-9.5-14.2-10-.6-.6-2.4-1.8-4-2.8-4.5-2.8-23.9-17.3-30.6-22.8-3.3-2.8-7.9-6.5-10.3-8.3-2.4-1.7-5.5-4.9-6.8-7-1.3-2-3.8-5.1-5.6-6.7-1.7-1.7-6.6-7.6-10.8-13.3-9.2-12.4-10-12.6-21.2-5.3h0Z"/>
    <path id="Salay" d="m3593.52,1205.74c-.4.4-41.9.6-92.2.5l-91.5-.4-3.7,2.4c-4.8,3.2-13.7,8.7-28.7,17.8-6.6,4-17.4,10.8-24,15-6.6,4.3-17.4,11-24,15s-13.3,8.2-15,9.4c-1.6,1.2-5.6,3.7-8.8,5.5-3.1,1.8-6.2,4.1-6.7,5.1-1.5,2.8-1.2,14.8.6,21,1,3.5,1.9,12.5,2.5,24.5.4,10.4,1.3,26.4,1.9,35.5s1.2,28,1.3,42c.3,26.5-.4,32.7-4.6,42-.8,1.9-1.8,4.5-2.2,5.7-.6,2.1-4.4,5.7-9.8,9.5-1.3.9-3.2,3.4-4.2,5.5-1.7,3.5-1.8,7-1.8,42.3.1,25.4.5,40,1.3,43,.6,2.5,1.5,14.2,2,26,1.3,31,3.4,48.9,6.1,51.5,1.2,1.2,6.7,1.3,36.4.5,19.3-.6,52-1.4,72.9-2,25.4-.6,38.3-1.3,39.2-2.1.9-.7,2.4-.8,4.1-.4,1.6.5,3.7.7,4.7.6,1.9-.3,24.4-1.2,72.1-3.1,23.7-.9,51.2-2.6,56-3.4,6.7-1.2,28.2-2.9,47.5-3.6,11.3-.5,25.1-1.5,30.8-2.3,8.1-1.2,18.1-1.4,47-.9,35.9.5,36.8.4,39.2-1.6l2.5-2-.1-18.4c0-11.9-.5-19.7-1.3-22.3-1-3.2-3.2-27.7-3-34.5,0-.8.3-6,.5-11.6.4-7.2,0-12.6-1.2-19-.9-4.9-2.1-16.1-2.5-24.9s-1.2-17.8-1.7-19.9c-.6-2.2-1.6-12.5-2.2-23-.7-10.5-1.9-26.1-2.7-34.6-.7-8.5-1.4-17.5-1.3-20s-.4-8.1-1-12.5c-.5-4.4-1.3-12.7-1.6-18.5-1.4-28.8-2.4-45-2.9-50-.4-3-.9-13.8-1.3-23.9l-.7-18.4-5-2.6c-2.7-1.5-9.5-5.6-15-9.2s-14-9-18.9-12c-5-3-11.5-7.7-14.5-10.4-10.3-9.3-12.4-10.3-24.1-11.4-14.4-1.4-49.4-2.3-50.4-1.4h0Z"/>
    <path id="Lagonglong" d="m3683.42,1614.14c-19.2.4-43.8,1.3-54.5,1.9-69,4.1-80,4.9-84.5,6.1-2.2.5-11.2,1.3-20,1.5-8.8.3-27.9,1-42.5,1.4-14.6.5-28.3,1.3-30.5,1.8-2.2.6-11.6,1.5-20.9,2.2-13.4,1-17,.9-17.6,0-.6-1-6.6-1.1-26.6-.6-14.3.4-29.3,1.1-33.4,1.6-6.6.9-15.7,1.3-48.1,2.3-10.4.4-11.2,1.1-10.6,10.1.2,3.9,1,17.2,1.6,29.6.7,12.4,1.5,23.8,1.9,25.5.4,1.6.7,14,.7,27.5,0,21.6-.3,25.6-2.2,33.5-1.1,4.9-2.4,12-2.8,15.7-.3,3.7-1.5,9.5-2.6,13-1,3.5-1.9,7.4-1.9,8.7,0,3.3-9.4,30.7-13.5,39.6-1.8,3.8-4,9.5-5,12.5-1.9,6.1-1.7,5.6-12.7,26.9-4.4,8.4-8.8,17.8-10,20.8-1.1,3-4.1,8.2-6.7,11.6-13.1,17.2-16.3,24.3-12.8,29.1,1.2,1.6,6.1,1.8,77.2,2.3,45.6.4,93.8.1,120.5-.5,49.1-1.3,87.6-1.4,212.5-.8,46.2.2,89,0,95-.5,30.6-2.4,36-3.1,37.3-4.7,1-1.2,1.2-3.5.7-8.2-1.4-14.5-2.6-30.4-3.3-46.5-.7-13.5-1.2-18-2.9-22-1.8-4.4-2.1-8-2.6-30.5-.4-14-1.1-28.7-1.7-32.5-.6-3.9-1.2-13.5-1.3-21.5s-.6-14.8-1-15.1c-.5-.4-1.3-7.3-1.8-15.5s-1.6-19.3-2.5-24.7c-1-5.7-1.4-11.8-1-14.5.6-4.4,0-12-3-40.2-.8-7.4-1.4-16.9-1.4-21,0-8.9-1.9-24-3.3-25.8-1.1-1.3-4.5-1.3-62.2-.1h0Z"/>
    <path id="Balingasag" d="m3752.42,1939.14c-9.3.3-19.7,1.2-22.9,1.9-4.7.9-27.6,1.1-104.5.5-71.5-.5-101.5-.4-109.1.4-13.8,1.6-231.2,2.5-237.3,1.1-7.8-1.8-23.8-2.3-30.2-1-8.9,1.9-18.3,2.4-20,1-1-.8-3.1-1-6.6-.5-6.3.9-11.9,5.6-18.6,15.5-2.3,3.6-7.7,10.8-11.8,16-15,19-21.4,28.9-31.4,48.2-4.7,9.1-6,12.5-11.3,31.8-2.9,10.3-2.5,24.6,1.1,38.5,2,8.1,14.1,39.5,16.1,42,.4.5,1.3,2.9,1.9,5.1.6,2.3,2.1,5.6,3.4,7.5,3.3,5,6.7,11.7,6.7,13.5,0,.8,4.5,10.4,9.9,21.2,5.5,10.8,11.4,23.3,13.1,27.7,1.8,4.4,4.7,10.9,6.5,14.5s5.3,11.4,7.9,17.5c2.5,6,6.6,15,9,20,4.4,9.1,6.8,14.7,11.3,26.5,1.3,3.6,3.7,9.6,5.2,13.5,1.6,3.8,3.4,9,4.1,11.5s1.6,5.6,2,7c5.3,16.8,6.3,22.6,5.5,29.3-.5,3.4-.9,9.6-1,13.7-.1,6.7-.5,8.1-3.2,12-3.4,4.8-10.4,11.8-16.8,16.7-2.6,2-7.2,3.9-13,5.4-8.5,2.3-10.4,2.4-35,2.1-14.3-.1-29.8.2-34.5.8-17,1.9-30.9,4.8-34.9,7.2-2.2,1.2-7,4.2-10.8,6.4-3.7,2.3-9,5.3-11.7,6.8-5.2,2.9-11.8,8-20.3,15.8-2.8,2.7-5.5,4.8-6,4.8-1.1,0-21.3,19.5-25.7,24.8-4.1,5-4.9,10.7-1.8,13.5,2.8,2.6,25.2,5.7,48.9,6.8,12,.5,26.1,1.4,31.3,1.8,5.2.5,18.5,1.4,29.5,2,11,.7,22,1.6,24.5,2.1,4.5,1,23.9,1.9,79,4,37.9,1.5,58.1,3.4,83,8,5.5,1,23.1,1.8,43.3,1.9l10.7.1v2.8c0,1.6.7,5.1,1.5,7.8s1.7,11.2,2.1,18.9c.3,7.7,1,15.3,1.6,17,.5,1.6,1.4,8.3,1.8,14.8,1.2,17.7,3.5,19.1,17.4,10.8,21.4-12.8,32.2-18.3,44.8-23,14-5.2,18.9-7.3,26.8-11.5,13.4-7.1,18.5-7.8,45.5-6,24.7,1.7,34.1,2.8,45,5.4,4.4,1,10.9,2.4,14.5,3,18.9,3.5,23.4,4.3,33,6.2,5.8,1.1,14.2,2.3,18.6,2.8,4.5.4,8.6,1,9.1,1.3s5.2,1.6,10.4,2.8,13,3,17.4,4c4.4,1.1,10.5,2.4,13.5,3,3,.5,10.2,2.1,16,3.4,21.2,4.8,25.9,5.4,46.5,6.2,30,1.1,41.9.8,50-1.1,3.9-.9,10.6-1.9,15-2.2,26.1-1.8,97.6-16,103.3-20.6.6-.6,1.2-2.8,1.2-4.9,0-5.7-4.5-30.3-7.9-43.2-2-7.8-3.1-14.9-3.6-23.2-.4-7.6-1.2-13.1-2.2-15-.8-1.7-1.8-6.7-2.2-11.1-.3-4.5-1.1-8.8-1.8-9.5-.6-.8-1.4-3-1.8-4.9s-3.4-13.4-6.6-25.5c-3.3-12.1-6.4-25.6-6.9-30s-2.9-15-5.3-23.5c-2.5-8.5-5.2-19.6-6.1-24.6-.8-5-3.1-14.3-5-20.5-1.9-6.3-4.6-16-6-21.7-1.5-5.6-3.6-12.6-4.7-15.5-7.5-18.6-11.2-32-30.9-110.2-8.2-32.5-15.7-61.5-16.8-64.5s-2.7-8.4-3.6-12c-.8-3.6-2.5-9.7-3.6-13.5-5.4-18.6-24.5-94.5-26-103-.9-5.2-1.7-8.1-5.6-20.5-1.3-4.1-2.4-9-2.6-10.9-.5-5.4-2.1-5.8-21.3-5h0Z"/>
  </g>
  <g id="CDO">
    <path id="CDOC" d="m2281.42,3621.74c-3.1.8-4.2,2.1-7,7.6-3.5,7.2-8.9,16.2-12.4,20.6-2.9,3.7-7.3,10.8-16.4,26.1-2.8,4.7-6.5,10.7-8.2,13.5-1.8,2.7-4.3,7-5.6,9.5-5.1,9.6-15.4,23.3-20.3,27.2-6.2,5-14.7,9-26.2,12.3-7.3,2.1-10.7,2.5-22.3,2.5-7.5.1-17.9.5-23.1.9l-9.6.9-13.2,8.6c-7.3,4.7-13.7,8.6-14.1,8.6-.5,0-3.1,1.5-5.8,3.2-7,4.8-9.9,5.8-17.2,6.5-7,.6-21,5.6-26.3,9.4-1.6,1.2-4.5,4.5-6.3,7.3-3,4.8-8.3,10-15.3,15.3-2.9,2.2-8.6,10.2-15.5,21.8-3.3,5.6-3.6,6.8-4.7,19.5-.7,8.3-1.1,30.3-.9,57l.2,43.5-2.7,10.4c-5.6,21.6-9.4,24.7-28.2,22.9-6-.5-15.4-.8-21-.6l-10.1.3-8,5.3c-9.3,6.1-11.3,8.1-18.1,18.4-4.3,6.5-5.4,9-6.7,16.3-1.1,5.9-1.5,11.3-1.1,17.3.3,4.8.9,21.9,1.2,37.9l.6,29.3-3.1,10c-2.4,7.4-3.7,10.2-5.4,11.1-1.2.6-8.2,7.1-15.6,14.3-9.3,9.1-13.9,14.5-15.3,17.6-1,2.5-3,5.6-4.3,7-2.4,2.5-16.3,24.9-21.7,35-4.9,9.1-7.9,14.2-11.5,19.7-2.7,4-3.6,6.7-4,11.2-.5,5.7-.4,6.1,3.3,10.6,2.2,2.6,9.4,8.3,16.8,13.3,14.1,9.5,17.1,12.5,21.9,22.2l3.3,6.5-1.1,10.5c-1.2,11.5-1.8,13-6.5,17.5-1.8,1.6-5.5,6.3-8.3,10.3-4.2,6.1-6.7,8.5-15.4,14.4-5.7,3.9-11.6,8.6-13,10.5-3.2,4.2-18.8,13.9-26.2,16.3-3.1,1-9.9,2-15.1,2.3-8.4.5-11.2.1-23.5-2.8-7.7-1.8-16.9-3.7-20.5-4-3.6-.4-7.4-1.4-8.5-2.1-1.1-.8-2.9-1.4-4-1.4s-2.9-.7-3.9-1.5c-1.1-.8-2.9-1.5-4-1.5-1.2,0-4.6-1.5-7.6-3.2-5.3-3.1-13.6-5.6-19.2-5.7-6.2-.2-8.4,8.2-5.3,19.9,3.2,11.8,1.5,17.7-9.8,36l-8.4,13.5-10.6,6.5c-5.8,3.6-13.4,8.1-16.9,10-3.4,1.9-7.1,4.6-8.2,5.9-1.2,1.3-7.3,5.9-13.6,10.2s-15.6,10.7-20.5,14.1c-5,3.5-11.4,7.7-14.2,9.5-5,3-5.5,3.8-12.7,18.6-4.2,8.5-7.6,15.9-7.6,16.4,0,.6-1.3,2.8-2.9,5-1.6,2.3-4.2,6.4-5.6,9.3-1.5,2.9-4.6,7.3-6.9,9.9-2.3,2.5-5.2,5.9-6.5,7.6-1.2,1.6-4.8,5.7-7.9,9.1-16.3,17.5-27.5,33.6-29.2,42.1-.7,3.1-1.6,15.3-2,27.2-.7,18.9-1.1,22.7-3.4,30.1-4.4,14.7-7.8,21-11.3,21-.7,0-1.3.5-1.3,1.1,0,1.7-14.2,17-17,18.2-2.7,1.3-11.4,7.5-32.3,23.1-7.2,5.4-15,11-17.1,12.3-2.2,1.4-9.6,7.8-16.5,14.2s-16.9,14.7-22.1,18.3-10.8,7.8-12.3,9.4c-3.8,3.8-13.8,19-15.2,23.2-.6,1.8-2.4,4.5-3.8,6-3.2,3.3-3.5,7.4-.8,10.1,1.5,1.5,4.1,1.9,15.9,2.6,11.4.5,14.3,1,15.6,2.4,1,1.1,2,5.1,2.6,10.2.5,4.6,1.4,10.7,2,13.5,1.1,5.3,1.7,9.6,4.4,28.4.9,5.8,2,13.2,2.6,16.5s1.5,8.5,1.9,11.5c.4,3.1,1.3,6.5,2.1,7.6,2.1,3,18.4,17.9,24.4,22.4,2.8,2,9.7,8,15.3,13.1,22.4,20.7,22.8,20.9,35.5,20.9,5.1,0,10.8.4,12.6.9,1.8.6,12.4,1.7,23.4,2.6,11.1,1,21.2,2.1,22.4,2.6,1.3.4,8.7,1.1,16.6,1.4s17,1.1,20.3,1.7c6,1.2,6.1,1.2,24.8,19.2,10.3,10,20.4,19.4,22.5,20.9,2,1.5,18.2,17,36,34.4,17.8,17.3,34,32.7,36,34.1,5.3,3.6,9.9,5.3,16.7,6.3,3.3.5,8.5,1.4,11.5,1.9,3,.6,10.4,1.6,16.4,2.3,7.8.8,11.1,1.6,11.6,2.7,2.1,4.3,4.4,9.8,5.1,12.5.4,1.6,2.4,7.5,4.4,13,2.1,5.5,4.6,12.2,5.6,15,1,2.7,2.9,8.1,4.4,12,4.1,11,8.6,23.7,9.5,27,2,7.1,6.7,16.7,12.9,26.3,9.9,15.6,13.2,20.7,19.9,31.7,3.3,5.5,7.4,11.8,9,14s3.1,4.7,3.4,5.5,3,5.2,5.9,9.7c3,4.6,7.2,11.1,9.3,14.5,2.2,3.5,5.4,8.5,7.1,11.3,10.7,16.8,15.6,24.6,18.1,28.8,1.6,2.6,4.7,7.6,7,11,3.6,5.4,8,12.7,17.4,29,1.4,2.4,3.7,5.8,5.3,7.6,1.5,1.8,2.7,3.8,2.7,4.4,0,.7,2.6,5.1,5.8,9.9,3.1,4.8,7.5,11.7,9.7,15.3s5.5,8.4,7.2,10.8c1.8,2.3,3.3,4.6,3.3,5.1,0,.6,1.1,2.6,2.4,4.5,1.3,2,4.2,6.5,6.4,10.1,2.3,3.6,5.1,7.8,6.2,9.5,3.2,4.7,11.7,18.5,14.4,23.6,1.3,2.5,3.2,5.1,4.1,5.9s2.7,3.4,4,5.9,4.3,7.7,6.8,11.6c2.5,3.8,6.2,9.7,8.3,13,5.9,9.5,10.5,16.6,14.5,22.5,2,3,4.8,7.7,6.2,10.5,3.8,7.5,6.1,9.5,10.9,9.5,3.9,0,4.7-.6,15.1-10.7,10.7-10.5,11.2-11.2,17.2-23.8,3.5-7.2,7.4-15.7,8.8-19,1.3-3.3,4.3-10.1,6.4-15,8.6-19.3,12.7-30.4,14.2-38,1.3-6.3,3.2-13.4,5.6-21,1.2-3.9,2.8-9.3,3.4-12,.6-2.8,2.7-10.6,4.5-17.5,1.9-6.9,4-15.9,4.6-20,.7-4.1,1.6-8.8,2.1-10.4s.9-4.5.9-6.5.7-7,1.6-11.1c.8-4.1,1.9-10,2.4-13s1.4-8.2,2-11.5c.7-3.3,1.8-10.1,2.6-15,.7-5,1.8-11.9,2.4-15.5,1.9-11.2,2.9-18.2,4-28,.6-5.2,1.7-11.8,2.5-14.5.8-2.8,1.6-7.7,1.9-11,.2-3.3,1.1-8.3,2-11,.8-2.8,2.4-8.1,3.5-11.9,1.2-3.8,3.1-8.3,4.4-10s3.4-5,4.5-7.2c2-3.9,23.9-25.5,28.2-27.9,1-.6,6-4.8,11.1-9.5s12.5-11.3,16.4-14.8c10.3-9.1,11.3-10.2,15.6-16.2,5.2-7.2,9.9-16.8,9.9-20.1,0-1.5.6-4.5,1.4-6.7,2.3-6.4,2.7-48.9,1.2-128.2-1.6-87.4-1.2-93.8,7.6-116.2,1-2.6,1.8-5.5,1.8-6.5,0-3.2,4.5-13.7,16.5-38.8,4.2-8.8,8.3-17.6,9-19.5s3.9-8.9,7.1-15.5c6.1-12.7,10-22.7,11.3-28.5.4-1.9,1.4-4.6,2.1-6,.8-1.4,1.7-7,2.1-12.5s1.7-20.8,2.9-34,2.5-32.8,3.1-43.5c.5-10.7,1.4-20.8,1.9-22.4.6-1.6,1-9.2,1-17,.1-7.8.6-20.2,1.2-27.6s1.2-16.2,1.4-19.5c1.6-25.7,2.4-35.6,3.5-39.5.6-2.5,1.4-8.6,1.8-13.5.4-5,1.2-10,1.9-11.2s1.2-3.7,1.2-5.6.9-7.9,2-13.4c1.1-5.4,2.2-13,2.5-16.8.4-3.9,1.2-9.3,2-12,.8-2.8,2.4-8.8,3.5-13.5,1.2-4.7,2.8-10.5,3.6-13,1.7-5.3,4.1-14,5.4-19,.4-1.9,2.2-7.1,4-11.5,1.7-4.4,4.4-11.6,6-16s4.2-11.2,5.8-15l2.9-7,17.4-.6c9.6-.4,39.9-.7,67.5-.8,30.5-.1,51.2-.5,53-1.1s59.8-1.4,157.9-2.1c187.2-1.3,348.7-2.7,395.5-3.4,89.3-1.5,292.3-3.8,381.5-4.3,54.5-.4,99.7-1.1,100.7-1.5.9-.5,2.6-3.2,3.8-6,1.2-2.9,3.6-8.1,5.3-11.7,7.2-15.6,11-26,12.2-33.7.8-4.5,1.8-9,2.3-10s1.2-4.9,1.6-8.6c.4-3.8,1.3-8.5,2.1-10.5,2.3-6.1,3.7-29.4,4.1-70,.4-32.4.2-39-1.1-42.8-.8-2.5-1.5-6.8-1.5-9.6,0-4.9-.5-6.8-5-20.8-1.2-3.6-2.6-7.9-3.1-9.5-.4-1.7-2.9-8.9-5.4-16-2.5-7.2-5-15.5-5.5-18.5-3.4-19.6-3.4-20.1-2.1-23.3.8-1.8,1.7-5.5,2.1-8.2,1.2-8.2,7.1-30.2,10.4-38.5.7-1.9,2.4-6.7,3.6-10.5,2.7-8.6,7.3-20.9,11.1-29.5,1.5-3.6,3.9-9.4,5.2-13,1.4-3.6,4.5-11.6,7.1-17.8,4.4-10.9,5.7-17.9,3.8-20.8-1.9-3-28.4-21.4-38.7-26.9-3.8-2.1-9-5.7-11.5-8s-7.9-6.7-12-9.8c-12.8-9.6-18.3-14.1-22.5-18.1-2.2-2.2-7-6.6-10.6-9.7-3.7-3.2-8-7.9-9.5-10.4-1.6-2.6-7.4-9.4-13-15.1-7-7.3-10.8-12-12.3-15.7-1.3-2.8-2.9-6.5-3.7-8-.8-1.6-1.4-4.1-1.4-5.6,0-1.6-.9-4-2-5.4s-2-3.7-2-5.1c0-1.5-.9-4.4-2-6.6-1.3-2.5-2-5.9-2-9.5,0-6.5-.9-8.5-9.6-21.6-5.9-8.8-7.3-10.2-16.7-16.6-11.9-8.2-15.7-10.2-25.2-13.3-3.8-1.3-7.9-2.9-9-3.5-4.9-3-14-3.6-46.5-3.2-30.1.4-36.5.9-46,3.5-6,1.7-6.7,2.2-11,8.1-5.7,7.8-8.6,9.4-19.5,10.5-9.6,1-98.4,1-127,0l-17-.5-2.7,2.5c-1.9,1.8-2.8,3.9-3.2,7.3-.3,2.7-1.1,7.5-1.6,10.8-.6,3.3-1.3,7.6-1.6,9.5s-.9,4.4-1.3,5.5c-.5,1.1-1.3,4.1-2,6.8-1.9,8.1-13.3,22.4-20.6,25.8-2.2,1.1-6,3-8.5,4.4-2.5,1.3-5.2,2.5-6,2.5s-3.3.9-5.5,1.9c-2.2,1.1-6,2.9-8.5,3.9-4.8,2.1-9.7,5.7-18.2,13.3-2.9,2.6-10.3,7.1-17.2,10.6-19.8,9.9-22.8,11.2-39.5,17.1-2.6.9-6.8,3.8-10,6.9-3,2.9-5.8,5.4-6.1,5.5-.8.4-15.2,19.8-17.7,23.8-1.2,1.9-4.5,5.7-7.3,8.5-2.9,2.7-6.9,7.5-9,10.6s-5.1,6.4-6.7,7.4c-2.7,1.8-11.3,8.9-18.1,15.1-3.7,3.4-5,4-32.7,17.5-18.3,8.9-21.3,10.1-30,11.9-2.2.5-5.8,1.4-8,2s-5.6,1.5-7.5,2c-1.9.4-6.1,1.5-9.3,2.4s-6.8,1.6-8,1.6c-1.3,0-2.7.4-3.2.9-.6.5-8,1.2-16.5,1.5s-18,.8-21,1.2c-5.3.6-15.4-1-17.5-2.8-.5-.4-2.1-.8-3.5-.8-1.5,0-5.3-.8-8.6-1.9-3.2-1-7.4-2.1-9.3-2.5-1.8-.3-6.8-2.2-11-4.2-9.7-4.7-17-7.4-19.6-7.4-1.2,0-2.5-.4-3-.8-.6-.5-3-1.5-5.5-2.2-2.5-.8-8.5-3.1-13.3-5.2s-9.4-3.8-10.1-3.8-4.7-1.4-8.7-3.1c-4.1-1.7-9.6-4.1-12.4-5.2-2.7-1.2-9.5-5.1-15-8.8-5.5-3.6-13.5-8.8-17.8-11.5-4.4-2.7-9.7-6.4-11.9-8.3-6.2-5.3-16.8-22.6-16.8-27.4,0-3.4-3-5.7-7.6-5.7-5.8,0-8.1,1.9-35.5,28-11.1,10.6-13.2,13.3-26.5,33.2-13.5,20.3-14.6,22.5-18.5,34-2.2,6.8-5,13.7-6,15.4s-1.9,4.5-1.9,6.2-.4,3.3-.9,3.6-1.2,2.5-1.5,4.8c-1.6,10.4-1.9,11.8-2.7,12.4-.5.3-.9,2.3-.9,4.4s-.4,4.9-.9,6.2-1.7,7-2.6,12.8-2.6,14.1-3.6,18.4c-1,4.4-1.9,11.5-1.9,15.8,0,8-4.5,26.9-10.5,44.1-1.4,3.9-2.5,8.3-2.5,9.8,0,1.6-.7,5.4-1.5,8.6-.8,3.1-1.5,7.7-1.5,10.1,0,4,.5,4.9,4.4,8.6,6,5.7,22.1,19.5,26.6,22.9,2.7,1.9,4.4,4.4,6,8.5,1.2,3.1,3.3,8.2,4.7,11.2,4.3,9,4.3,27.8,0,35.5-2.7,4.9-5.9,12-7.4,16.3-.8,2.6-2.8,7.4-4.3,10.7s-3.5,8-4.3,10.5c-2.8,8.3-7.5,17.5-12.1,23.9-2.5,3.6-4.6,6.9-4.6,7.4s-3,5.5-6.7,11.1c-17.5,26.7-18,27.3-28,32.7-8.4,4.5-9.9,3.7-13.5-7.6-2.4-7.7-2.6-8.8-1.4-13.7,1.4-6.1,6.4-19.5,10.7-28.6,1.6-3.4,2.9-6.9,2.9-7.7,0-.9.8-3.4,1.9-5.8,1-2.3,2.4-5.8,3.1-7.7s1.5-4.4,1.9-5.5c2.3-6,4.4-12.4,5.1-15.5.5-1.9,1.4-5.3,2-7.5s1.5-6,2-8.5c.8-4.3,1.5-6.9,4.1-15.8,1.5-5,2.2-12.7,1.5-15.7-.8-3.2-3.9-6-9.5-8.7-6-2.8-14.5-8.3-20.2-13.1-3.9-3.2-5.1-5-6.9-10.7-2.9-9-2.9-13.1.1-21.5,6.4-17.8,13.3-45.5,14.5-58.5.3-4.1,1.7-10.9,3-15,3.2-10.7,7.4-30.1,7.4-34.6,0-2.2,1.1-8.4,2.4-13.9s2.6-13,2.9-16.7c.4-3.7,1.1-7.5,1.6-8.5,1.3-2.3,4-12.8,5.6-21.8.7-3.9,1.7-8.3,2.4-9.8.6-1.6,1.1-3.8,1.1-5,0-1.1.9-3,1.9-4.1,1.1-1.2,9.8-17.6,19.3-36.6,9.6-19,20.4-39.2,24.1-45,3.6-5.8,7.9-12.7,9.4-15.5,6-10.6,20.1-22.5,29.6-24.9,4.1-1,11.7-8.4,13.8-13.4,1.5-3.4,1.9-6.9,1.9-15.6,0-6.2-.4-11.6-.8-12.1-3.1-3.5-6-26.7-6.6-50.8-.2-10.9-.9-20.3-1.4-21s-1.2-3.7-1.6-6.7c-1.3-12-1.7-13.2-6.2-17.7l-4.3-4.3-7.8-.1c-4.3,0-10.5-.5-13.8-1-10.7-1.6-30.7-3.9-42-4.8-8-.6-14.3-1.9-23-4.5-6.6-2.1-13.7-4.2-15.7-4.7-2.1-.5-5.5-1.3-7.5-1.8-4.1-1-9.6-2.1-24.3-4.6-24.9-4.4-33-5.7-39.5-6.4-3.8-.5-10.6-1.5-15-2.4-8.4-1.7-28.6-2.9-32-2h0Z"/>
  </g>
  <g id="_2ndDEO" data-name="2ndDEO">
    <path id="Jasaan" d="m3024.72,2488.74c-3,3.4-10.5,15-11.7,18.4-.7,1.9-1.7,4.3-2.2,5.4-4.3,10.3-4.1,8.1-5.1,56-.9,50.2-.1,139,1.3,141.7.5.9.9,5.4.9,10,0,8.1,1,23.8,3.1,46.3.5,6,1.1,13.2,1.3,16,.5,8.3,1.7,15.7,3.7,21.9,1.1,3.3,1.9,7.2,1.9,8.7s.5,3.1,1,3.4c.6.3,1,1.9,1,3.4s.4,4.1.9,5.7,1.3,5.1,1.9,7.9c5.8,27.2,6.9,30.8,11,35.5,6.1,7.2,8.7,8,28.4,8.2,15.7.1,17.8-.1,22.8-2,3-1.2,6.3-2.2,7.3-2.2,1.1,0,3.2-1,4.9-2.1,2.7-2,3.5-2.1,8-1,2.7.6,6.4,1.1,8.1,1.1,2.7,0,4.6,1.4,11.8,8.7,10.8,11.2,12.9,15.6,14.9,31.3.4,3.6,1.4,9.9,2.1,14,1.7,9.4,1.7,51.3-.1,75-.7,9.1-1.4,38-1.6,64.4l-.4,47.8,4.7,4.6c2.7,2.5,8.9,7.5,13.8,11.1,5.6,4.2,9.1,7.4,9.3,8.7.2,1.2,1.4,3.2,2.7,4.4,2.4,2.3,2.6,2.3,12.7,1.1,5.7-.7,13.5-2,17.3-2.8,4.5-1,16.9-1.8,34.5-2.3,51.4-1.5,83.5-3,97.5-4.6,7.7-.9,17.4-2,21.5-2.5,4.1-.4,15.8-.8,26-.9,10.2,0,23.9-.5,30.5-1.1,6.6-.5,23-1.4,36.5-2,26.9-1.1,40.3-2.1,49.5-3.8,3.3-.6,14.8-1.5,25.5-2.1s23.6-1.5,28.5-2c5-.4,14.1-1.2,20.3-1.6,12.4-.8,14.2-1.6,14.2-6.5,0-2.4-1.9-5-9.9-13.3-5.4-5.7-11.5-11.9-13.5-13.6-5.4-4.8-29.7-42.1-44.6-68.4-1.4-2.4-4.4-6.8-6.7-9.6-2.4-2.9-4.3-5.7-4.3-6.2,0-.6-1.7-3-3.7-5.3-4.1-4.7-6.6-8-16.5-22.6-3.6-5.2-8.8-12.6-11.5-16.5-2.8-3.8-6-8.8-7.2-11.1-2.8-5.7-5.6-9.6-12.5-17.8-3.2-3.9-10.5-14.7-16.1-24-11.7-19.3-15.6-25.2-20.2-30.4-1.7-2-3.5-5-3.9-6.6-.4-1.7-1.3-3.7-2-4.5-5.1-5.9-7.2-23.1-6.3-50.5.4-11.6.3-23-.1-25.5-.5-2.5-1.1-12.4-1.5-22-.3-9.6-1-22.5-1.5-28.5-.5-6.1-1.4-19.8-2-30.5s-1.5-23.6-2-28.5c-.5-5-1.4-21.6-2-37s-2.1-36.8-3.2-47.5c-1.2-10.7-2.3-24.3-2.5-30.3-.3-5.9-.8-10.7-1.3-10.7-.7,0-1.5-7.6-2.5-22-.6-8.8-1.9-15.2-3.3-16.7-1.4-1.3-3.7-1.4-17.1-.9-13,.6-17.9.4-29.1-1.3-7.4-1.1-18.9-2.3-25.5-2.6-11.4-.6-17.1-1.2-34.5-3.6-7.5-1.1-25.9-2-78.5-3.9-15.4-.5-33.2-1.6-39.5-2.5-6.3-.8-25.7-2.1-43-3-17.3-.8-38-2.1-46-3-8-.8-21.3-1.7-29.5-2-13.7-.6-15.2-.5-16.7,1.2h0Z"/>
    <path id="Claveria" d="m3771.42,546.14c-2.2,1.1-6,2.6-8.5,3.3s-6.9,2.5-9.9,4c-3,1.4-6.2,2.6-7,2.6-.9,0-5.6,2-10.6,4.5-6.7,3.3-11,4.7-17,5.6-4.4.6-31.2,1.6-59.6,2.3-37.7.8-52,1.4-53.1,2.3-1.7,1.4-3.1,10.4-5.3,33.3-.9,9.1-2.3,20.3-3.2,25s-1.9,13.9-2.3,20.5c-1.9,30.3-3.3,43.9-5.7,56-2.5,12.4-2.7,14.6-2.9,48-.1,19.2.2,38.8.7,43.5s1.3,15.2,1.9,23.5c1.5,20.6,5.9,46.3,8.5,48.9.8.8,2.4,3.8,3.6,6.8,1.9,5,7.6,15.7,8.8,16.8.4.3,1.9,2.5,3.5,5s4.8,6.3,7,8.5c4.4,4.3,15.6,18.1,22.1,27.4,2.2,3.1,10.8,12.5,19.2,20.9,8.3,8.4,17,17.3,19.2,19.9,2.3,2.5,5.6,5.7,7.3,7,1.8,1.3,5.1,5.1,7.5,8.4,2.3,3.4,7.5,9.7,11.5,14.1s7.5,8.5,7.7,9.1c.8,2.5,4.4,6.2,13.8,14.5,11.9,10.3,18.9,17.6,25.6,26.4,2.8,3.8,5.4,6.8,5.8,6.8,1.8,0,6.8,10,7.9,15.9.7,4,1.2,23.1,1.3,52.5l.2,46.1-3.1,5.5c-1.6,3-3.6,7.3-4.2,9.5s-2.9,6.8-4.9,10.3c-2.1,3.4-9.6,16-16.6,27.9l-12.9,21.7,1.2,22c.6,12.1,1.3,22.3,1.6,22.7.2.4.8,14.3,1.3,30.9.8,25.9,1.1,30.4,2.6,32,1.2,1.3,1.3,2,.4,2.5-1.2.8-.9,12.2,1.1,37.5.6,6.9,1.7,22.6,2.5,35,1,15.1,2.2,25.3,3.6,31,1.6,6.7,2,10.4,1.5,17.4-.3,5.7,0,11.7.9,16.5,1,5.4,1.4,14.8,1.3,32.1-.1,22.1.1,25.4,2.2,34,1.7,7.4,2.4,14.4,3,32,.6,15.9,1.4,25.3,2.8,32,2.2,10.4,3.4,28,1.9,28-.6,0-.7,1.8-.3,4.2s1.1,13.5,1.7,24.8c1,21.6,2.1,34.9,3.8,46.5.6,3.8,1.5,15.3,2.1,25.4s1.3,18.8,1.7,19.4c.3.6,1,8.5,1.4,17.6,1.2,26.5,3.7,55.6,5.9,69.1,3.1,19.3,3.9,29.2,4.9,60,.8,25.6,1.1,29,3,33.3,2.1,4.8,5.1,16.3,7.6,28.7,1.8,9.1,8,32.3,10.5,39.5,1.2,3.3,3,9.8,4.1,14.5s3.3,12.8,4.9,18c5.1,17.5,7.8,27.5,9,34,1.4,7.7,5.4,24.4,10.3,43,2,7.4,4.8,18,6.2,23.5s3,10.4,3.5,10.9c.6.6,1,2.6,1,4.6s.8,4.7,1.8,6c.9,1.4,4.1,11.5,7,22.5,2.8,11,6,22.9,7.1,26.5,1,3.6,2.8,10,4,14.3s4,12.6,6.1,18.3c2.2,5.7,4,11.8,4,13.4,0,1.7.9,4.9,2,7,2.3,4.5,7,23,7,27.5,0,1.6,2.3,11.5,5,22,6.8,25.8,7.9,30,10.1,37,1,3.3,2.9,11.2,4.3,17.5s4.5,19.6,6.9,29.5c3.8,15.6,7.7,32.6,10.8,47,.4,2.2.8,6,.8,8.5.1,2.5,1.2,9.4,2.5,15.5,1.3,6,2.9,14.8,3.6,19.5,2.3,17.6,2.9,21,4,22.9.5,1.1,1,3.7,1,5.8.1,5.3,1.8,12.5,3.6,14.4,2.8,3,.8,6.6-4.4,8.2-17.5,5.4-23.3,7-35.7,9.7-7.7,1.8-18.3,4.2-23.5,5.5-8.9,2.3-32.2,5.9-54,8.5-5.2.6-22.5,1.1-38.5,1.1-32.5,0-43.9-1.2-60.2-6.2-5.3-1.6-14.2-3.9-19.7-5-5.6-1.1-16.6-3.6-24.4-5.4-7.9-1.9-15.4-3.2-16.6-2.9s-4.8-.2-8.1-1.1-10.6-2.2-16.1-3c-5.6-.8-11.4-1.9-12.9-2.5-1.4-.5-4-1-5.6-1s-8.5-1.3-15.2-2.9c-29.5-7.2-35.3-7.9-71.7-9.7-13.1-.7-25.7,1-31.8,4.2-1.5.7-3.6,1.4-4.7,1.4-1.2,0-11.9,4.9-23.9,11-12,6-22.6,11-23.6,11s-2.3.7-3,1.5-2,1.5-3,1.5c-.9,0-2.9.9-4.3,2s-3.2,2-4,2c-.9,0-1.9.4-2.2,1-.3.5-3.8,2.6-7.7,4.6-14.6,7.2-15.5,8.8-13.9,22.4.9,7.1,2.6,41,2.9,56.5.3,18.6,1.7,43.5,2.5,45,.6,1.1,1.4,11.9,1.8,24s1.2,27.8,1.7,35c.6,7.1,1.3,27.6,1.6,45.5.7,41.6,1.4,44.7,14.6,64.5,1.5,2.2,5.9,9.4,9.9,16,9.4,15.8,9.1,15.3,12.9,20.8,1.7,2.6,3.2,5.1,3.2,5.5,0,.5,2.5,3.7,5.6,7.3,6,6.8,11,14.1,13.8,20,.9,2,2.8,4.7,4.2,6,1.3,1.2,2.4,2.7,2.4,3.2s1.8,3.5,4.1,6.6c2.2,3.1,7.7,10.8,12.1,17.1,4.5,6.3,10,13.6,12.2,16.1,4.6,5.2,9.7,13.1,25.2,38.9,9.7,16.1,12.5,20.7,20.8,33.2,3,4.5,47.5,49.8,48.9,49.8,2.1,0,9.1,6.7,14.8,14.1,3.7,4.8,8.6,9.7,12.2,12.2,3.4,2.3,9.3,7.9,13.1,12.5,3.9,4.5,9.4,9.8,12.1,11.6,2.8,1.9,8.2,6.7,12.1,10.7,8.8,9.2,33.7,34.1,51.9,51.9,7.5,7.4,17.4,17.3,21.9,21.9,4.4,4.5,13.3,12.2,19.5,17,6.3,4.7,13.5,11.1,15.9,14.1,2.5,3,9.6,10.8,15.8,17.2,14.9,15.5,14.3,15.5,27.9,1.3,5.5-5.8,19.4-20.2,31-32l20.9-21.5h99.3c75.2,0,99.8-.3,102-1.2,4-1.7,81.3-2.4,86.8-.8,2.2.7,7.8,1.8,12.5,2.6,17.7,2.9,24.9,4.2,26,4.9.6.4,5.4,1.3,10.8,2,14.2,2.1,26.1,4.3,31.1,6,2.5.8,6.2,1.5,8.4,1.5s6.6.7,10,1.5c8.9,2.1,20.9,4.5,30.7,6,11.5,1.8,18.7,3.1,30,5.5,5.2,1.2,14,2.7,19.5,3.5,5.5.9,12.3,2.2,15.2,3,2.8.8,6.6,1.5,8.3,1.5,1.8,0,4.9.4,6.9.9s6.1,1.4,9.1,2,8.9,1.8,13,2.7c4.1.8,10.7,1.9,14.5,2.4,3.9.5,8.6,1.3,10.5,1.9,1.9.5,10.3,2.1,18.5,3.6,8.3,1.4,16.8,3,19,3.6s6.9,1.5,10.5,2,8.5,1.3,11,1.8c2.5.6,7,1.5,10,2.1,3.9.8,20.1,1,54.5.6,67.7-.9,144.1-2.3,181-3.4,17.1-.5,51.7-1,77-1.1,37.8-.1,46.4-.4,48.5-1.6s10.4-1.4,47-1.5c24.5-.1,82.1-1.1,128-2.2s106.5-2.4,134.5-2.8c28.1-.5,53.5-1.1,56.5-1.5,3-.3,37.7-1,77-1.5s98.3-1.6,131-2.4c32.7-.7,89.2-1.9,125.5-2.5,36.3-.7,68.3-1.4,71-1.7,2.8-.3,28-1,56-1.4,28.1-.5,79.1-1.6,113.5-2.5,34.4-.8,68.8-1.4,76.4-1.1,7.7.3,14.7.1,15.6-.4s24.3-1.1,52.1-1.4c27.7-.3,53.6-1,57.4-1.5,3.9-.6,24.3-1,45.5-1.1,21.2,0,54-.6,73-1.2s41.3-1.1,49.6-1.2c13.2-.1,15.4-.3,17.2-1.9,2-1.8,2-2.8,1.7-31.2-.2-16.2-.8-30.2-1.3-31.2s-1.2-30-1.6-65.7c-.3-36-1-65.3-1.6-67-.5-1.7-1.6-38.7-2.5-82.1-.9-43.5-2-95-2.5-114.5s-.9-51.8-1-71.8c0-31-.2-36.7-1.6-39.3-1.4-2.8-1.4-3.4,0-7,2-4.9,2-8.2.2-11.8-1.1-2.1-1.8-10.1-2.6-30.7-1.3-32.2-2.4-53.7-3.9-74.9-.6-8.3-.8-15.8-.5-16.7.3-1-.2-4.8-1.1-8.5-1-4.5-1.9-15.4-2.5-31.8-.5-13.8-1.4-30.4-1.9-37s-1-18.2-1-25.7c-.1-7.6-.6-15.7-1.1-18-.9-4-3.1-39.8-4.4-73.3-.3-7.7-.9-16-1.3-18.5-.3-2.5-.5-5-.4-5.5.5-1.9-2-46.1-2.9-51.5-1-5.4-2.9-40.9-4.5-81.5-.8-21.1-2.7-46.2-3.5-49.1-.6-1.7-1-9.8-1-18.2s-.4-16.2-1-17.6c-.5-1.4-1.2-13.7-1.5-27.3-.3-13.7-1-26.4-1.5-28.3-.9-3.1-2.3-25.3-5.1-78.5-2-39.7-2.5-77.9-.8-82.1.5-1.4.9-6.1.9-10.4s.5-8.2,1-8.5c.6-.3,1-2.1,1-3.9,0-4.5-4.4-8.6-9.2-8.6-3.1,0-4.2.7-7.7,4.9-2.2,2.6-6.7,8.8-10,13.7-5.6,8.5-16,19.7-21.7,23.4-1.4,1-3.7,4-5,6.7-1.5,3-4.5,6.5-7.9,9.2-3.1,2.5-8.1,8.1-11.4,13-3.3,4.7-10,12.8-14.9,17.9-9.3,9.7-16,17.2-22.6,25.7-2.2,2.7-5.5,6.6-7.4,8.5s-5.4,6.5-7.9,10.2-7.7,9.6-11.6,13c-3.8,3.5-8.7,8.5-10.7,11.3-2.1,2.7-6.9,8.2-10.6,12.1-3.8,3.9-10.7,11.9-15.4,17.9-9.8,12.5-14.4,17.2-21.7,22.7-2.9,2.1-5.9,5.3-6.7,7.1s-3.9,5.7-7,8.7c-3.2,3-8.1,9.1-11.1,13.6-3.2,4.7-9.9,12.4-16.2,18.5-11.7,11.3-13.7,13.5-22.2,24.9-3.1,4.1-8.1,10-11.1,13.1s-7.4,8-9.7,11-6.7,7.9-9.8,10.9c-3,3-7,7.7-8.8,10.5-1.7,2.7-4.4,6.2-5.9,7.7-1.6,1.6-2.8,3.3-2.8,3.8,0,1.2-15.8,17-17,17-.5,0-4.7,5.1-9.4,11.2-4.7,6.2-11.9,14.9-16.2,19.3-13.7,14.3-17.4,18.7-21.8,25.5-1.6,2.5-4.5,6.1-6.5,8.1-5.7,5.6-18.1,19.9-18.1,20.9,0,.4-2.4,2.7-5.2,5-2.9,2.3-7,6.5-9.1,9.3-2.1,2.9-4.3,5.9-5,6.7s-2,2.8-3.1,4.4c-1,1.6-3.3,4.4-5,6.1-1.7,1.8-5.8,6.9-9.1,11.4s-7.7,9.7-9.9,11.4c-2.1,1.7-4.4,3.6-5,4.2-.7.5-3.5,3.9-6.3,7.5-5.3,6.8-14.6,16-16.1,16-.4,0-2.9,2.8-5.4,6.2-8.6,11.7-17.3,22.3-22.8,27.8-3.1,3-7.1,7.5-9,10-1.9,2.4-7.3,8.3-12,13.1s-10.9,11.6-13.8,15.1c-2.9,3.4-9.3,10.8-14.2,16.3-5,5.5-10.4,12.1-12,14.6-1.7,2.6-4.8,5.9-6.9,7.4-2.2,1.4-6.2,5.7-8.9,9.3-2.7,3.7-11.8,14-20.1,22.9s-15.1,16.6-15.1,17c0,.5-4.3,5.4-9.5,11s-9.5,10.5-9.5,11-1,1.8-2.2,2.9c-2.2,1.9-4.6,1.9-103.8,1.2-55.8-.3-202.7-.7-326.4-.7-175.3-.1-225.3-.4-227-1.4-1.6-.9-22.5-1.3-87.9-1.5l-85.8-.3-2.9-4.7c-1.5-2.6-3.8-6.2-4.9-8-1.2-1.8-2.4-4.5-2.7-6-.4-1.5-1.7-4.7-2.9-7.2-1.3-2.5-2.9-6.5-3.6-9s-3.3-7.8-5.7-11.8-5.7-11.5-7.4-16.8c-1.6-5.2-4.4-12.1-6.1-15.2-1.8-3.1-4.3-8.2-5.7-11.2-1.3-3-4.1-8-6.1-11-2-3.1-4.6-8.6-5.7-12.2-2.4-7.6-4.8-12.7-10.3-21.3-2.1-3.4-4.5-8.6-5.3-11.7s-2.6-7.8-4-10.4c-1.4-2.7-2.6-5.5-2.6-6.3,0-.7-1.3-3.9-2.9-7s-4.8-9.7-7.1-14.6c-2.3-5-5.4-11.5-7-14.5-1.5-3-3.5-7.8-4.3-10.6s-2.9-7.5-4.6-10.6c-1.7-3-3.8-7.7-4.6-10.5-.8-2.7-3.2-7.4-5.4-10.5-2.1-3.1-4.2-7.4-4.6-9.7s-3.2-8.1-6.6-13.6c-3.3-5.2-7.1-12.6-8.4-16.4s-3-7.9-3.9-9.2c-.8-1.3-2.6-5.3-4-8.9s-3.6-8.7-5.1-11.4c-1.4-2.7-2.5-5.7-2.5-6.5,0-.9-1.4-3.6-3-6.1-1.7-2.5-4.2-7.7-5.7-11.5-1.4-3.9-4.1-9.7-5.9-13s-4.3-9.1-5.4-12.8c-1.2-4-3.1-7.7-4.5-8.9-1.3-1.1-2.7-3.5-3.1-5.2-.3-1.7-1.4-4.5-2.4-6.1-1-1.7-2.1-4.1-2.5-5.5s-1.7-4.8-3-7.5c-1.2-2.8-3-7.1-3.9-9.6s-3.3-7.3-5.2-10.5c-2-3.2-4.4-8.2-5.4-10.9-1-2.8-3.1-7.5-4.8-10.5s-4-8.1-5.2-11.2c-1.2-3.2-4-9-6.2-13-6.9-12.3-10.9-21-13.3-28.5-1.3-4-3.7-9.6-5.3-12.5-1.7-2.9-3.6-7.6-4.2-10.3-.7-2.8-2.9-8.6-5-13-5.7-11.9-9-19.3-9-20s-2.6-6.6-6.9-16c-1.6-3.3-3.6-8-4.6-10.5-1.1-2.5-2.4-5.2-3-6-2.5-3.2-10.3-18.8-12.9-25.8-1.5-3.9-5-11.4-7.7-16.5-9-16.9-14.1-28.1-17.1-37.7-1.7-5.2-4.5-12.4-6.3-16-4.8-9.5-9.4-18.7-12.8-25.5-1.6-3.3-4.4-10.3-6.2-15.7-1.8-5.3-6-14.3-9.3-20-3.4-5.6-7.5-14.2-9.2-19.1-1.7-4.8-4.8-11.4-6.9-14.6-2-3.2-4.7-9.4-6-13.7-1.2-4.4-4.3-12.2-7-17.4-2.6-5.2-6.1-12.9-7.6-17-1.6-4.1-4.8-10.5-7.2-14.2-2.3-3.7-5.2-9.7-6.4-13.4s-4.2-10.4-6.6-15.1c-2.5-4.6-5.2-10.9-6-14-.8-3-3.6-9-6.3-13.2-5.6-9-10.2-18-12-23.4-.6-2.1-3.1-7.7-5.5-12.5-2.3-4.8-4.9-11.2-5.8-14.2s-3.7-9.1-6.2-13.5-4.5-8.3-4.5-8.8-2.2-4.6-4.9-9.1c-2.7-4.4-5.7-9.9-6.7-12.1-4.7-10.8-7.6-16.4-8.8-17.5-.8-.6-1.7-2.3-2.1-3.7-.3-1.5-1.4-3.8-2.4-5.2s-4.1-7.1-6.9-12.7-6.4-12.1-8-14.5-4.4-7.1-6.2-10.4-3.6-6.5-4-7c-2.5-3.2-13.4-26.4-15.8-33.5-1.6-4.7-5.5-13-8.6-18.5s-7.3-13.4-9.2-17.5-4.2-8.9-5.1-10.5c-.9-1.7-3.4-6.4-5.6-10.5-3.9-7.5-13.4-23.3-16.8-28-1-1.4-3.4-7-5.4-12.5s-5.3-12.9-7.4-16.5-4.2-7.6-4.6-9-1.8-3.9-3-5.5c-2.2-3-11.5-22.4-11.5-24.1,0-.5-1.7-3.6-3.7-6.9s-4.7-8.3-6.1-11c-1.3-2.8-3.7-7.1-5.3-9.6s-3.6-6.9-4.4-9.6c-.8-2.8-2.2-5.6-3-6.3s-1.5-1.8-1.5-2.5c0-.6-.9-2-1.9-2.9-3.2-2.9-4.1-10.5-4.1-34.6,0-18.8-.4-24.6-2-33-1.1-5.6-2-11.8-2-13.8s-1.8-9.3-4-16.1-4-12.8-4-13.3-3.1-7.3-6.9-15.1-8.1-18.3-9.6-23.2c-1.4-5-3.5-11.3-4.6-14-1-2.8-2.6-7.3-3.3-10-.8-2.8-3.5-10.6-5.9-17.5-6.1-17.2-7.4-21.1-8.1-24.3-.4-1.5-1.1-2.7-1.6-2.7-.6,0-1-.8-1-1.8,0-3.5-12.6-43.6-15.4-49-.8-1.5-1.7-4.4-2.1-6.5-.4-2-1.3-4.1-2.1-4.5s-3.1-6.6-5.3-13.8c-2.1-7.2-4.9-15-6-17.2-2.7-5.3-10.9-30-15.1-45.7-1.8-6.6-4.7-14.9-6.5-18.5s-3.6-8.5-4-11-1.8-7-3.2-10-3.1-7.4-3.8-9.7-2.6-6.4-4.2-9c-3.1-5-5.3-10.8-7.8-20.8-.8-3.3-3.5-12.1-5.9-19.5s-6.1-19.8-8.2-27.5-4.6-15.4-5.6-17c-1-1.7-3.2-7.5-4.9-13s-3.5-10.5-3.9-11c-.4-.6-1.3-3-2-5.5-.6-2.5-2.5-6.9-4.2-9.9-3.4-6.2-5-10.2-8.4-22.1-1.4-4.7-4.4-11.9-6.8-16-3-5.3-5.1-10.8-7.1-18.8-1.6-6.6-3.4-11.6-4.2-12.1-1.5-.8-6.5-16.6-10.3-32.6-2.3-9.7-6.2-21.6-8.9-27.6-2.7-5.8-8.5-21.8-10.6-29.4-1-3.3-2.8-7.8-4-10-1.3-2.2-4.2-9.6-6.5-16.5-2.4-6.9-4.6-13-5-13.5-1.3-1.6-6-13.5-8-20-1-3.3-3.3-9.8-5-14.5s-3.5-9.9-4-11.5c-7.3-25.6-9.8-33.5-11-35-1.7-2.1-6.7-1.8-11.5.6h0Z"/>
    <path id="Villanueva" d="m3588.42,3118.14c-2.2.4-6.7.8-10,.8-3.3.1-11.4.8-18,1.6s-20.4,1.9-30.8,2.5c-17.3.9-22.6,1.5-39.2,4.1-3.3.5-16.1,1.4-28.5,1.9s-29,1.9-37,3-18.8,2-24,2c-16.1,0-49.6,2.4-70,5-4.1.5-15.1,1.1-24.5,1.4-21.7.6-43.4,2.2-55.5,4.1-5.2.8-14.2,2-20,2.5s-11.2,1.2-12,1.6c-.8.3-8.9.9-18,1.4-25.3,1.4-26.2,2.1-21.6,16.9,6.3,20,6,26.6-2,41.7-5.9,11.2-10,16.5-16.8,21.5-2.2,1.6-9.3,8-15.8,14.2-6.6,6.1-12.7,11.5-13.7,11.9-1,.3-5.4,3.9-9.8,8-4.3,4-11.2,10-15.3,13.3-14.5,11.8-37.3,33.6-53.6,51.6-5.9,6.5-14.3,19.9-16.3,26.1-1.9,6.1-4.3,28.2-3.8,35.1.4,5.9.9,7.3,3.3,9.7,2.8,2.8,3.6,2.9,19.8,4.5,10.1,1,19.6,1.4,23.6,1,3.6-.4,11.8-.2,18.1.4,7.7.7,29.7.8,67.4.3,62.9-.9,57.4-.1,68-9.2,3.3-2.8,7.1-5.3,8.5-5.6s4.1-1,6-1.5,4.9-.9,6.6-.9c5.4,0,16.3,6.4,25.9,15.3,5,4.6,11.5,10.1,14.5,12.3,3,2.1,9.3,6.9,13.9,10.6,10,8,29,18,37.6,19.8,3.3.7,7.1,1.8,8.5,2.5s9.3,2.3,17.5,3.4c8.3,1.1,18.2,2.6,22,3.3,4.2.8,15.5,1.3,28,1.3,19.3,0,21.5-.2,27.2-2.3,3.4-1.2,7.5-2.2,9.1-2.2,3.8,0,16-6.2,19.1-9.8,1.4-1.6,4.6-4.2,7.1-5.8,2.5-1.5,7-4.3,10-6.2,6.8-4.3,20.6-18.2,28.7-28.8,3.3-4.3,9.5-11.5,13.7-15.9s8.2-8.6,8.9-9.3,5.3-5,10.2-9.6c10-9.3,12.3-10.3,28.3-12.6,9.9-1.5,16.2-.9,26.1,2.5,4.1,1.4,8.6,2.5,10,2.5,2.4.1,4.4.7,17.1,5.5,6.8,2.6,19.5,6.2,40.5,11.7,32.4,8.4,43.4,10.5,60.4,11.2l15.3.7,3.2-3.4c1.7-1.9,5.7-8.7,9-15.3,3.2-6.5,6.8-13,8.1-14.4,1.2-1.4,4.2-5.4,6.6-8.9s6.1-8.7,8.1-11.5c7.2-10,12-18.5,11.4-20.3-.5-1.6-5.3-6.6-18.6-19.5-1.9-1.8-6.6-6.8-10.4-11.1-7-8-15.4-15.1-26.3-22.5-3.4-2.3-8.3-6.8-10.8-9.9-2.6-3.2-7.3-8.5-10.5-11.8-3.3-3.3-10.2-10.3-15.3-15.6-5.2-5.2-11.1-10.3-13.1-11.3-4.5-2.1-10.9-8.3-16.5-16-5.3-7.1-21.4-23.4-29.6-29.8-3.3-2.6-8.7-8-12-11.9-3.3-4-8.9-9.4-12.4-12.1-3.6-2.7-8.2-7.2-10.4-10.1-5.7-7.6-10.7-12.6-14.9-14.8-4-2.1-4.3-2.1-10.3-.8h0Z"/>
    <path id="Tagoloan" d="m3573.22,3360.84c-5.6,1.5-7.2,2.6-15.5,10.7-5.1,4.9-11.8,11.9-14.7,15.5-3,3.6-6.4,7-7.6,7.7-2.4,1.3-6.4,6.2-8.8,10.9-1.9,3.7-15.1,17.4-22.1,23-2.7,2.1-5.9,4.8-7.1,5.9-3.1,2.9-14.1,11-20.5,15.2-13.6,8.9-34.2,12.9-61.5,11.9-37.4-1.4-60.6-4.4-73.8-9.5-1.6-.6-3.9-1.1-5.3-1.1-1.3,0-2.4-.6-2.4-1.3s-1.7-2.1-3.7-3.1c-6-2.8-20.5-11.7-24.4-15.1-2-1.6-5.3-4.1-7.4-5.5-2-1.4-5.5-4-7.8-5.9s-5.9-4.5-8-5.8-6.8-5.5-10.5-9.2c-11.6-11.9-18.1-14.6-27.4-11.6-3.7,1.3-7.1,3.5-11.3,7.5-7.7,7.3-8.6,7.7-18.6,9-4.6.5-11.5,1.7-15.4,2.5-9.5,2-45.8,2-62,0-6.7-.8-20-1.5-30.3-1.5s-29.4-.5-42.9-1.1c-18.9-.8-24.7-.8-25.8.1-1.2,1-1.5,3.9-1.5,13.2,0,7-.5,12.8-1.1,14.1-2.7,5-9.8,12.3-18.3,18.7-16.3,12.3-16,11.9-16.8,19.7-1.5,15.2-2.8,26.2-3.9,33.3-1.4,9.7-1.4,17,0,24.5.7,3.3,1.6,8.7,2.1,12s1.1,7.3,1.5,9c.3,1.6,1.1,5.5,1.7,8.6.9,4.9,2,6.8,8.4,14.2l7.4,8.6,22.4,11.1c12.4,6.1,22.9,11.7,23.4,12.3.5.7,3.8,6.6,7.3,13.2l6.4,12,.1,23.8c.1,28.2.3,28.6,9.5,30.1,7.2,1.1,101.9,1.9,128.8,1.1l21.5-.7,2.5-2.8c1.4-1.5,4.1-4.6,5.9-6.9,7.8-9.7,16.3-11.4,60-11.8,34.4-.4,38-.1,49,4.7,6.8,3,8.3,3.7,12.2,5.1,6.9,2.6,30.9,18,35.1,22.6,7.2,7.8,9.7,13.2,13.4,29.2,4.9,21,9,34.3,12.3,39.6,1.5,2.4,8.2,11.5,14.9,20.2,11.4,14.7,13.1,16.4,24.5,24.9,6.8,5.1,16.4,13,21.4,17.5,13.2,12.2,22.9,20.2,26.7,21.9,4.4,2.1,19.7,12.2,28.3,18.7,6.1,4.6,7.7,5.3,11.5,5.3,2.5,0,5.2-.6,6.1-1.3,2.5-1.9,12.1-18.6,23.6-40.7,3.6-7.1,16.5-30,24.6-44,8-13.7,17.1-29.9,22.9-41,3.3-6.3,9-16.7,12.7-23,8.9-15.4,12.8-23.1,15.2-30.4,1.1-3.3,2.8-7.8,3.8-10.1,1-2.2,2.2-5.1,2.5-6.5.4-1.4,1.3-3.9,2-5.5.8-1.7,2.5-6.2,3.8-10,1.4-3.9,3.7-10.2,5.2-14,4.6-11.7,10.2-28.2,10.8-31.7.3-1.8,1.5-6.7,2.7-10.8s2.8-10,3.7-13c.8-3,2.3-8,3.3-11,.9-3,2.3-8,2.9-11,.7-3,2.3-9.1,3.6-13.5,2.4-7.9,7.7-28.9,9.6-37.5.5-2.5,1.6-6.8,2.4-9.5,2.3-8.3,5.3-20.5,7.5-30,1.1-5,3.4-12.8,5-17.5s4.1-12.6,5.6-17.5c1.5-5,4.2-13.5,5.9-19,6.4-20,8.7-28.6,8.1-30.8-.8-3.4-14.2-6.7-26.8-6.7-6.3,0-10.5-.5-12.4-1.4-1.6-.8-5.4-1.9-8.4-2.5-15.3-2.7-22.2-4.2-23.9-5.1-3.1-1.6-10-3.8-22.6-7-15.1-3.9-18-4.7-23.1-7-2.2-1-7.2-2.5-11-3.3s-8.9-2.3-11.4-3.3c-6.5-2.6-27.2-2.9-35.7-.6h0Z"/>
    <path id="Opol" d="m1965.32,3591.24c-4.9,4-15.6,13.9-23.9,21.9-8.2,8.1-15.8,15-16.7,15.5-2.3,1.3-20.7,18.5-36.7,34.5-7.5,7.5-14.2,13.8-14.9,14-2.1.7-14.2,11.9-35.4,32.9-20.5,20.3-28.4,27.7-30.1,28.3-1.4.4-9.6,8.1-32,29.8-11.1,10.9-22.3,21.4-24.9,23.5-2.5,2.2-5.6,5.2-6.8,6.7s-5.9,5.7-10.4,9.3c-4.4,3.6-37.6,35.9-73.6,71.7-62.5,62.2-70.4,69.9-83.4,81-3.1,2.7-8.7,8.5-12.5,13.1-3.8,4.5-9.5,10.1-12.7,12.5-3.3,2.4-7.5,6.6-9.4,9.4-1.9,2.9-3.9,5.5-4.5,5.9-.5.4-3.2,2.8-6,5.3-2.7,2.6-7.6,7-10.9,9.9-3.2,2.8-7.7,7.8-9.9,11.1s-5.4,7-7,8.4c-5.8,4.9-32.7,31.8-32.7,32.8,0,.5-3.7,3.6-8.2,6.8-9.9,7.1-10.7,7.9-17.9,17.6-6.1,8.1-7,9.1-11.9,13.3-3.3,2.7-4.2,5.6-7,23.2-.4,2.8-1.2,6-1.8,7-.5,1.1-1.3,3.9-1.6,6.4-.4,2.5-2,11.2-3.6,19.5-3.9,20-8,45-8,48.6,0,1.7-2.3,12.3-5,23.7-2.8,11.4-6.1,25.4-7.5,31.2-2.2,9.5-13.7,64.7-17.2,83-.8,4.1-2,8.1-2.6,8.9-1.6,1.9-7.9,5.9-15.7,9.9-3.6,1.9-8.3,4.7-10.5,6.3-8.7,6.4-40.2,26.2-47.4,29.8-4.2,2.1-10.6,5.7-14.3,7.9-3.7,2.3-8.4,4.9-10.5,5.7-2,.8-7.3,4-11.8,7-9.2,6.2-12.9,10.8-32.7,40.5-15.5,23.3-22.3,33.1-28.3,40.6-11.1,14-13.5,17.3-19.5,26.9-3.4,5.5-7.5,11-9.1,12.3s-2.9,3-2.9,3.9c0,.8-.8,2.7-1.8,4.1-1,1.5-2.5,4.2-3.2,6.1-.8,1.9-5.1,7.8-9.8,13-4.6,5.3-9.2,11.2-10.2,13.2-1.8,3.5-4.4,7.2-22.3,33-4.3,6.1-9.4,14.4-11.3,18.4s-5.6,9.7-8.2,12.6c-6.9,7.9-10.2,12.4-16.3,21.9-2.9,4.7-7.6,11.5-10.4,15.2-2.7,3.6-6.5,8.8-8.3,11.5-15.5,22.5-25.9,37.9-26.8,39.5-.6,1-2,2.9-3.2,4.1-1.1,1.2-3.9,4.9-6.2,8.2-2.2,3.3-6.2,9.1-8.8,12.8-2.6,3.8-5.8,8.6-7.2,10.7s-4.7,7.1-7.5,11c-4.6,6.6-6,8.9-8.9,14.5-4.8,9.3-10,17.4-11.9,18.2-2.5,1.2-19.6,26.2-24.2,35.3-1.5,3-4.1,7.4-5.6,9.7-3.9,5.6-3.8,8,.6,9.8,2.9,1.3,9.9,1.4,48.2.5,24.6-.5,73.4-1.4,108.3-2s67.1-1.5,71.5-2c4.4-.6,21.9-1.2,38.8-1.4,28.4-.3,30.9-.5,32.9-2.2,2-1.8,6.8-8.9,15.3-22.9,2.2-3.6,6.7-10.7,10-15.8,3.3-5.2,7.6-11.9,9.5-15.1,1.9-3.1,4.9-7.6,6.6-9.9l3-4.2,17.6.4c12.6.2,18.2,0,19.9-.9,3.2-1.7,7.9-6.1,7.9-7.5,0-.6,2.7-3.7,6.1-7,3.3-3.3,8.5-9.8,11.6-14.5,7.3-11.2,8.1-12,19.8-20.3,5.5-3.9,14.3-11.2,19.5-16.2s13.5-12,18.4-15.5c4.8-3.6,14.3-10.6,21.1-15.5,6.7-5,17.6-13,24.3-18,6.7-4.9,12.2-9.2,12.2-9.6,0-.3,3.1-3.2,6.9-6.4,3.8-3.1,7.4-6.9,8.1-8.4.7-1.4,2.1-4.6,3.3-7.1,1.1-2.5,2.3-5.2,2.7-6.1,1.2-2.4,3.9-26.6,3.8-33.9-.1-3.6.2-11.9.6-18.5.8-11.6.9-12.2,5.2-20.2,7.3-13.8,17-26.6,25.1-33.4,3.1-2.5,6.9-6.3,8.4-8.4,1.6-2.1,4.4-5.5,6.4-7.6,1.9-2.1,3.5-4.1,3.5-4.3,0-.3,2.1-3.8,4.6-7.8,2.5-3.9,7.4-12.6,10.9-19.3,12.1-23.4,13-24.7,20.8-29.6,12.1-7.6,38-26.2,42.2-30.4,2.2-2.2,8.8-6.5,14.5-9.6,19.2-10.2,24.6-14.2,29.7-22.2,13-20.3,14.7-26.2,11.8-41-2.1-10.6-1.5-14.5,2.9-19.2,2.9-3.1,3.9-3.5,8.2-3.5,7.2,0,16.5,2.9,19.5,6,1.4,1.6,4.2,3,6.5,3.4,2.1.5,6.5,1.9,9.7,3.2,3.2,1.4,9.3,2.9,13.5,3.5,4.2.5,11.5,2,16.1,3.3,8.2,2.4,8.9,2.4,25,1.4,14-.9,17.3-1.4,21.2-3.3,4.7-2.4,13.2-8.8,18.5-14,3.1-2.9,10.2-8.2,17.4-12.8,1.9-1.3,5.1-4.5,7-7.1,1.9-2.7,6-7.7,9.1-11.2l5.6-6.3.7-11.9c.7-11,.6-12.3-1.4-16.1-3.4-6.8-8.9-12-20.5-19.7-6-3.9-13.6-9.9-16.9-13.2l-5.9-6,.5-6c.3-5.1,1.2-7.3,5.3-13.9,2.7-4.3,7.2-12.1,10.1-17.3,7.8-14.3,17.8-31,21.6-35.9,1.8-2.4,3.8-5.2,4.4-6.3.7-1.1,8.8-9.7,18.2-19.2l17-17.1,1.1-6.6c.6-3.6,1.1-8.6,1.1-11.2s.4-5.6.9-6.9.5-17.5,0-37.2c-.9-33.9-.9-35.1,1.2-42.8,4.5-16.6,18.6-32.3,36.6-40.5,5.1-2.4,6.2-2.5,15.7-1.9,5.5.4,14,1.2,18.7,1.8,7.9,1.1,8.9,1,12-.8,4.1-2.4,7.9-11.1,8.6-19.9.3-3.3,1.3-7.4,2.2-9,1.4-2.6,1.6-9.4,1.7-57.6l.2-54.7,3.9-7.3c7.2-13.6,14.1-22.7,27.4-35.7,12.1-11.8,14.9-13.9,24.5-17.9,7.4-3.1,9.3-3.6,14.7-4.3,9-1.2,26.2-9.9,32.8-16.6,3.2-3.2,6.2-5.4,7.5-5.4,1.2,0,3.2-.8,4.5-1.8,5.4-4.1,12.6-5.2,35-5.6,16.7-.2,22.1-.6,24.4-1.8,1.7-.9,5.2-1.9,7.8-2.2,3.4-.5,5.9-1.7,8.5-4,2-1.8,4.9-3.6,6.3-3.9,5-1.3,15.7-14.5,25.4-31.7,5-8.7,21.3-35.4,24.6-40.2,1.1-1.5,1.9-3,1.9-3.3s1.3-2.3,3-4.3c4.7-5.9,9-14.8,9-18.7,0-4.7-2.7-7.2-8.7-7.9-2.6-.4-8.2-1.1-12.3-1.6-4.1-.6-12.4-1-18.5-1.1-7,0-12.5-.5-15-1.4-6.1-2.2-181.7-2.2-188.9,0-10,3.1-30.2,1.1-36.7-3.6-4.2-3-7.9-10.8-7.9-16.7,0-5.4-2.8-10.2-5.9-10.2-1,0-5.8,3.3-10.7,7.2h0Z"/>
    <path id="ElSalvador" d="m1543.82,3273.74c-2.9,3.5-6.9,10.3-6.9,11.7,0,.8-.5,1.8-1,2.1-.6.4-1.7,2.2-2.5,4.2-.8,1.9-2.8,5.1-4.5,6.9-1.6,1.9-3,4.2-3,5.1,0,1.4-2.2,5.5-14.2,26.5-2.1,3.7-4.4,7.3-5.1,8-2.8,2.9-14.7,23.9-14.7,25.9,0,.5-2.4,4-5.3,7.7-3,3.7-6.6,8.9-8.1,11.7-1.6,2.7-4.2,7.4-5.8,10.4s-4.1,6.9-5.4,8.6c-1.3,1.8-2.4,3.5-2.4,3.9,0,.7-19.5,36.3-25,45.6-6.7,11.4-16.3,26.6-18.1,28.5-1,1.1-2.2,3.2-2.8,4.8-.6,1.5-3.3,6-5.9,10-2.7,3.9-8.6,13.9-13.2,22.2-4.5,8.2-9.9,17.5-12,20.5-6.6,9.7-10,15.3-10,16.3,0,.6-.6,1.8-1.4,2.6-.8.9-3.1,4.7-5.1,8.5s-5.4,9-7.4,11.5c-2.1,2.5-4.4,6.2-5.1,8.1-.8,1.9-2.7,5.6-4.2,8.1s-2.8,4.9-2.8,5.3-1.3,2.4-2.8,4.4c-1.6,2-3.9,6.1-5,9-1.2,3-3.5,7-5,9-3.3,4.2-11.2,16.9-11.2,18,0,.4-1.8,3.4-4,6.7s-4,6.4-4,6.8c0,.5-1.1,2.3-2.4,4-1.3,1.8-5.2,8.4-8.6,14.7-13,23.8-19,34.1-26,44.5-1.5,2.2-3.1,5.1-3.5,6.5s-2.3,4.4-4.1,6.7c-1.9,2.3-3.4,4.4-3.4,4.7s-1.1,1.7-2.4,3.1-2.7,3.8-3.1,5.3c-.3,1.4-2.1,5.1-3.9,8.2-1.8,3-6,9.9-9.2,15.4-3.2,5.4-8.4,14.3-11.4,19.7s-7.6,13-10.2,16.8c-2.7,3.9-5.7,8.8-6.9,11.1-1.2,2.2-2.5,4.3-3.1,4.6-.5.3-4,7.1-7.8,15-3.8,8-8.4,16.6-10.3,19.2s-4.8,7.6-6.5,11.2c-1.8,3.6-6.2,10.6-9.9,15.7-7.5,10.1-14.6,22-18,30.1-1.2,2.9-3.3,6.7-4.7,8.3-1.5,1.7-2.6,3.5-2.6,4s-3,5.6-6.7,11.2c-9.7,15-12.3,19.5-14.9,26.1-2.2,5.5-11.5,20.7-23.6,38.4-2.7,4-6.5,10.7-8.4,14.7-1.9,4.1-6.8,12.5-10.9,18.6-4.1,6.2-7.8,12.7-8.1,14.6-.3,1.8-2,5.2-3.6,7.6-3.8,5.4-9.1,13.5-29.1,44.7-1.5,2.5-4.7,8.3-7,13-2.2,4.7-6.6,12.3-9.7,17-3.2,4.7-9,14.6-13,22s-10.1,17.6-13.5,22.5c-6.2,9.1-10.4,15.9-12.7,20.5-.7,1.4-4.3,7.5-8,13.7-3.7,6.1-9.5,16.7-13,23.5-3.4,6.8-7.8,15-9.8,18.3-6.9,11.6-7.4,14.2-3.2,16.7,3.7,2.2,12.5,5.5,19.6,7.4,3.3.8,8.7,2.8,12,4.3,9.1,4.2,16.9,7.1,19.2,7.1,1.1,0,3.7.9,5.9,2,2.2,1.1,5,2,6.2,2,1.3,0,3.1.4,4.1,1,.9.5,4.6,1.6,8.2,2.5s8.5,2.6,11,3.9,7.9,3.4,12,4.7c7,2.2,16,6.9,13.2,6.9-.6,0-1.2.9-1.2,1.9,0,1.1-1.3,4.8-3,8.3-1.6,3.4-3,6.9-3,7.7s-1.2,3.9-2.6,6.9-2.8,7.1-3.1,9.1c-.4,2-3,7.5-6,12.2-2.9,4.7-5.3,9.2-5.3,10s-.4,1.9-.8,2.5c-.5.5-1.9,4.1-3.1,8.1-1.2,3.9-4.4,10.8-7.2,15.4-6.1,10.2-9.9,18.1-9.9,20.7,0,1.1-.7,2.5-1.5,3.2s-1.5,1.9-1.5,2.7c0,1.8-3.5,13-6.6,21.5-1.4,3.7-4.8,10.4-7.6,15-3.7,6-5.1,9.4-5.2,12.2-.07,2.6,1.77,4.47,5.5,5.6,3.1,1,8.1,3.4,11.2,5.4,3,2,7.7,4.4,10.3,5.3,2.7.9,5.9,2.3,7.2,3.1,1.2.8,5.8,2.5,10.2,3.7s11,4.1,14.7,6.3c3.8,2.2,9.9,5,13.8,6.2,3.8,1.1,11.3,4.5,16.5,7.4s13.8,6.7,19,8.4c5.2,1.8,13.1,5.4,17.5,8s10.9,6.3,14.5,8.1,7.6,3.9,9,4.6c3.8,2,9.3,3.5,12.6,3.5,3.9,0,6.9-3.3,16.8-18,4.2-6.3,10.6-15.1,14.1-19.5,3.6-4.4,7.6-9.4,9-11.1,1.4-1.8,3.1-4.2,3.8-5.5.6-1.3,2.7-4.5,4.5-7.1,1.7-2.6,3.2-5,3.2-5.3,0-.4,1.3-2.4,2.9-4.4s5.7-7.9,9.1-13.1c7.8-11.8,19-26.8,22.1-29.6,4-3.5,10.9-7.8,21.4-13.4,5.5-2.9,11.1-6,12.5-7s6.1-3.6,10.5-5.7c4.4-2.2,19.3-11.4,33-20.5,13.8-9.1,27.4-17.7,30.3-19.2s5.5-3.2,5.8-3.9c.2-.7,1.1-5.3,1.8-10.2,1.7-10.7,5.3-27.4,9.5-44.1,1.7-6.7,3.5-15.4,4.1-19.5s1.6-9.1,2.1-11.3c.6-2.1,1.6-7.1,2.4-11,2.7-15,6.5-30.6,7.9-33.4.9-1.7,2-4.9,2.7-7.3,2.4-9.5,8.6-42.7,9.6-50.9.3-3,.9-6,1.3-6.5.5-.6,1.3-4.6,2-9,.6-4.4,2.5-13.4,4.1-20s2.9-13.4,2.9-15.1c0-5.2,2.6-9.7,7.4-13.2,2.5-1.8,7.6-7.4,11.5-12.5,7.3-9.7,11.3-13.9,17.1-17.7,1.9-1.3,11.4-10.3,21.1-19.9,9.7-9.7,20-19.7,22.8-22.4,2.8-2.6,5.1-5.2,5.1-5.7,0-1.9,8.8-10.9,22.5-23,3.3-3,7.8-7.9,10.1-10.9,2.3-3.1,6.1-7,8.6-8.8s7.4-6.5,10.9-10.5c10.2-11.6,16.3-17.4,20.5-19.6,2.3-1.3,31.8-30.1,72.4-70.7,37.7-37.8,72.7-72.1,77.8-76.2,5-4.1,9.2-8,9.2-8.6,0-1.5,10.9-12.7,12.4-12.7.6,0,5.4-4.7,10.6-10.4,5.2-5.8,10.4-10.8,11.5-11.2,1.1-.3,5.6-4.2,10-8.4,31.3-30.4,38.3-36.7,43.4-39.2,2.3-1.1,4.1-2.3,4.1-2.7s9.8-10.4,21.8-22.2c31.1-30.7,37-36.4,43.1-40.9,3-2.3,15.3-14,27.3-26.1,12.1-12.1,24.7-23.8,28.1-26.1,6.3-4.3,12.1-9.9,23.4-22.5,6.2-6.9,6.2-7,7.2-15.3,1.5-11.7,1.4-18.4-.4-22.8-1.8-4.2-8.6-11.6-12.7-13.8-6-3.1-20.7-3.7-64.9-2.4-34.1,1-44.2,1-51,0-11.4-1.7-20.4-6.1-36.5-18-2.3-1.6-4.5-3-4.9-3-1.4,0-9.6-7.1-24.2-20.8-13.6-13-14.3-13.7-17.1-21.1-1.7-4.5-3.3-11.3-4-16.8-1.7-15.2-5.1-20.6-19.2-30.9-4.5-3.2-10.4-7.7-13.2-9.9-5.4-4.2-15.5-11.5-22.3-16.1-2.2-1.5-6.2-4.6-9-6.9-2.7-2.3-6.1-4.8-7.4-5.5s-4.2-2.9-6.5-4.9c-2.3-2.1-5.9-4.8-8.1-6.1-2.2-1.4-8.4-6.3-13.7-11s-13.2-11.4-17.4-15c-4.3-3.6-15.4-13.9-24.5-22.8-9.2-9-18.3-17.5-20.1-18.9-5-3.7-14.7-9.3-16.2-9.3-.7,0-2.5-.9-3.8-2-1.4-1-4.3-2.4-6.4-2.9-2.2-.5-5.2-1.4-6.9-2-1.6-.5-5-1.5-7.5-2.1-2.5-.7-5.5-1.6-6.8-2.1-4-1.6-11.7-1.1-13.3.8h0Z"/>
    <path id="Alubijid" d="m1329.52,3195.64c-.9.8-1.6,2.1-1.6,2.7,0,.7-1.3,4-3,7.4-5.9,12.6-17.2,21.9-56.8,46.9-5.1,3.3-11.2,7-13.5,8.3-4.6,2.7-26.7,24.3-26.7,26.2,0,.6-1.6,3.3-3.5,5.9s-3.5,5.4-3.5,6.1c0,.8-1.8,4.9-4,9.2s-4,9.1-4,10.6c0,1.6-.6,3.4-1.4,4-.8.7-2.3,4.2-3.5,7.9-3.5,11.2-7.7,24.1-12.3,37.7-2.5,7.1-6,17.5-7.7,23-1.8,5.5-4.2,12.2-5.3,15-1.1,2.7-3.3,9.9-5,16-1.7,6-3.7,12.3-4.5,13.9-1.6,3.1-3.3,8-8.3,24.6-1.7,5.8-4.6,13.6-6.5,17.5-1.8,3.8-3.7,8.6-4,10.5-.9,4.1-3.4,9.3-8.1,16.8-1.9,2.9-3.4,5.8-3.4,6.6,0,.7-1.5,4.2-3.4,7.7-1.8,3.5-5.6,12.9-8.4,20.9-2.7,8-6.1,16.7-7.5,19.5-3.3,6.5-6.7,17.3-6.7,21.2,0,1.7-.9,5-2,7.4s-2,6.2-2,8.4-.5,4.6-1.1,5.2c-.5.5-1.6,4.3-2.4,8.4-1.6,8.3-2.8,13.5-5.5,22.9-1,3.6-2.8,9.9-4,14-1.1,4.1-2.8,8.8-3.5,10.3-.8,1.6-1.5,3.3-1.5,3.9,0,.5-1,2.4-2.2,4.1-1.3,1.7-4.1,6.3-6.3,10.3-10.6,19.2-22.1,34.9-31.9,43.3-8.9,7.8-39.7,27.3-50,31.8-21,9.2-29,13.5-32.9,17.7-10,10.9-18.2,21.4-27.8,35.6-11,16.3-11.6,17.3-15.6,28.5-1.4,3.8-6.5,14-11.4,22.5s-9.7,18-10.8,21.1c-3.4,10-10.5,20.9-17.6,27.2-3.6,3.2-6.5,6.5-6.5,7.2,0,.8-1.1,3.1-2.5,5.1-2.4,3.6-2.5,4.2-2.5,20.8-.1,12.9-.4,17.7-1.5,19.6-.8,1.4-1.4,4.4-1.5,6.8,0,2.3-.6,5.3-1.4,6.5s-1.7,4.1-2.1,6.4-1.3,4.7-2.1,5.4c-.8.6-1.4,2-1.4,3.1s-.9,3.1-2,4.5-2,3.2-2,4.1c0,.8-1.6,3.2-3.5,5.3-1.9,2.2-3.5,4.4-3.5,5.1,0,.6-1.1,2.6-2.5,4.4s-2.5,4-2.5,4.9-2,3.7-4.4,6.3-4.9,5.9-5.7,7.3c-1.7,3.2-8,13.9-16.2,27.4-3.3,5.5-9.1,15.1-12.9,21.4-3.8,6.2-9.2,14.7-12.1,18.9-7.1,10.2-6.3,9-16.3,24.7-5,7.7-9.6,15.3-10.3,17-.7,1.6-5.9,10.2-11.6,19-5.6,8.8-11.6,18.5-13.1,21.5-1.6,3-3.2,5.6-3.6,5.8-4.4,2,11.9,12,26.3,16.2,4.1,1.2,10.3,3.5,13.9,5,7.4,3.2,18.4,6.9,31.4,10.6,4.9,1.3,10.5,3.4,12.3,4.5,1.9,1.2,4.9,2.5,6.6,2.9,1.8.5,4.6,1.3,6.2,1.8,1.7.6,6.2,2,10,3.3,3.9,1.2,8.1,2.8,9.5,3.4,1.4.7,4.5,1.8,7,2.4,25.3,6.4,30.8,8.2,38,12.5,6.9,4.1,35,12.7,46.5,14.1l5,.7,2.3-4c1.2-2.2,2.2-4.5,2.2-5.2s1-2.7,2.3-4.4,4.9-8.3,8.1-14.6c5.3-10.4,9-17,26.4-47,3-5.2,7.8-12.9,10.7-17s6.8-10.4,8.7-14c8.2-15.2,10.2-18.6,16.3-28,3.5-5.5,8.5-14.1,11.1-19.2,2.5-5.1,8.6-15.4,13.4-22.8s9.6-15.1,10.6-17c2.6-4.9,11.3-17.8,12.5-18.5.5-.4.9-2.1.9-4,0-2.1.9-4.4,2.4-6.2,4.8-5.8,13.1-19,18.2-29,2.9-5.7,6.6-12.2,8.3-14.6,4.3-6.2,14.1-21.7,14.1-22.3,0-.4,1.3-2.3,2.9-4.3s3.7-5.5,4.6-7.6c3.3-7.8,7.9-16.2,15.7-28.3,4.3-6.7,7.8-12.9,7.8-13.6,0-.8,1.4-2.4,3-3.6,1.7-1.2,3-3,3-4s.4-2.1.9-2.4c.9-.6,5.6-8.4,9.3-15.6,3.4-6.6,12.3-20.2,16.1-24.7,2-2.4,3.7-5.2,3.7-6.1s.9-2.8,2-4.2,2-3.3,2-4.2,1.1-2.5,2.5-3.6,3.2-3.6,4-5.5c.8-2,1.9-3.8,2.5-4.2.5-.3,1-1.6,1-2.9s.9-3.1,2-4.1,2-2.3,2-3c0-1.9,9.1-18.2,15.7-28.1,3.2-4.9,6.2-9.6,6.6-10.4,1.6-3.4,7.1-12.9,10.8-18.6,2.1-3.3,3.9-6.4,3.9-6.9s.6-1.6,1.4-2.4c1.7-2,13.4-22.4,14.7-25.7.5-1.4,2.8-5,5.1-8,6.1-8.1,7.8-10.7,7.8-12.5,0-.9.9-2.4,2-3.4s2-2.2,2-2.6,1.3-2.7,2.8-5.1c1.6-2.4,4.2-6.8,5.7-9.8,1.6-3,3.7-6.4,4.6-7.5s2-3.1,2.4-4.5,1.8-3.9,3.1-5.5c1.2-1.7,4.5-7.8,7.3-13.7,2.8-5.8,6.1-11.9,7.5-13.5,1.3-1.5,4-6.2,6.1-10.3,3.9-7.8,12.1-20.7,16-25,1.3-1.4,3.2-4.6,4.3-7.3,1.2-2.6,4.6-8.8,7.7-13.7,3-4.9,5.5-9.8,5.5-10.7,0-1,1.6-3.8,3.5-6.3,5.6-7.3,12.1-17.3,14.2-22,1.1-2.5,6.6-11.6,12.1-20.2,5.6-8.7,10.2-16.1,10.2-16.5,0-.7,9.8-17.5,14.5-24.9,1.8-2.8,4.5-7.5,6-10.5s5.6-9.8,9.1-15.1,7.5-12.1,9-15c1.4-2.9,3.6-6.7,4.8-8.3,1.3-1.7,3-4.4,3.8-6,4.9-9.5,12.9-23.6,15-26.7,1-1.4,3.4-5.4,5.3-8.7,1.9-3.4,5.1-8.8,7-12.1s5.1-8.8,7.1-12.3c3.1-5.5,10.8-16.3,12.5-17.7.4-.3,1-1.6,1.4-3s1.6-3.7,2.6-5.2c1.1-1.4,1.9-3.3,1.9-4.1,0-.9.4-1.8.9-2.1.5-.4,3.1-4.3,5.7-8.9,2.6-4.5,5.7-9.4,7-10.9,1.2-1.5,3.9-6,5.9-10s4.8-8.6,6.1-10.3c1.3-1.8,2.4-3.5,2.4-3.8,0-.9,5.6-12,11.5-23.1,5.9-11.2,5.6-12.4-4.2-15.5-3.7-1.2-8.8-2.4-11.3-2.7s-6.9-1.5-9.8-2.5-6.1-1.9-7.2-1.9c-2.3,0-16.3-4.6-20.2-6.6-7.2-3.7-21.3-14.6-30.3-23.4-10.4-10.1-18.2-15.3-27.5-18.3-4.7-1.6-7.9-1.8-21.5-1.4-8.8.3-16.4.5-17,.5-3.4.2-20.5-1.7-23.1-2.5-1.7-.6-8.3-3.8-14.8-7.2-12.3-6.5-14.5-7-17-4.5h0Z"/>
    <path id="Laguindingan" d="m1274.92,2972.24c-1.9.5-5.3,1.4-7.5,2-7.8,2.1-12.6,3.8-17.3,6.2-10.4,5.2-22.3,8.4-35.2,9.6-6.9.6-14.5,1.4-17,1.7-2.5.4-11.7.7-20.5.7-15.7.1-16.2.2-23.8,3.3-4.3,1.8-8.4,3.3-9.2,3.3-2.4,0-12.1,4.8-16.7,8.3-2.6,2-6.1,4.3-8,5.3-1.8.9-6.2,4.5-9.8,8-10.5,10-36.3,28-52,36.2-7.8,4.1-19,10.4-33,18.7-3,1.8-7.3,3.8-9.5,4.5s-4.4,1.6-4.9,2.1c-.6.5-1.7.9-2.6.9s-4.8,1.6-8.7,3.5-7.4,3.5-7.8,3.5c-.9,0-9.4,3.7-13.5,5.9-1.9,1-4.1,2.9-4.7,4.2-1.9,3.6-1.6,12.3.6,17.2,1.1,2.3,3.1,8.5,4.5,13.7s2.9,10.8,3.4,12.5c.6,1.6,1.7,5.5,2.6,8.5,3,10.8,3.8,13,4.7,13.5.5.4.9,1.8.9,3.3s.9,4.4,2,6.5c1.1,2,2,4.3,2,4.9,0,.7,1.9,6.5,4.4,12.8,5.5,14.3,6.6,17.9,6.6,21.3,0,1.5.6,4.4,1.4,6.4,4.4,12.2,10.5,33.7,15.2,53.8.7,3.3,2.5,9.4,3.9,13.5s3,9.9,3.4,13c.5,3,2.9,13.6,5.4,23.5,6.9,27.9,7.7,31.7,7.7,36.5,0,2.5.4,6,.9,7.8s1.5,7.6,2.1,13c.7,5.3,1.6,10.4,2.1,11.3,1.1,2.2,3.7,13.6,5.4,23.9,2.2,13.3,4.4,24.3,5.4,27,.6,1.4,1.5,5.2,2.2,8.5.6,3.3,1.5,6.8,2.1,7.8.5,1,1.5,4.8,2.3,8.5s3.1,11.4,5.1,17.2c3.2,9.2,3.7,12.2,4.4,24,.5,8.5,1.4,14.8,2.4,17.1,3.6,8.5,9,37.1,8.7,46.1-.2,4.1,7.6,36.5,9.8,41.2,1.1,2.2,2.5,6.3,3.2,8.9,1.8,7.2,4,6,6-3.3,4.3-20,14.1-54.9,17-60.5,1.7-3.3,5.2-12.1,7.6-19.5s6-16.3,7.9-19.7,3.4-6.9,3.4-7.8.8-2.9,1.9-4.3c1-1.5,2.4-4.5,3.1-6.6.7-2.2,2.1-5.3,3.1-7s2.6-6,3.5-9.6,3.1-9.7,5-13.6,3.4-7.6,3.4-8.3c0-.6,1.3-4,2.9-7.4s3.6-8.5,4.4-11.3,2.2-6.5,3.1-8.2,1.6-3.9,1.6-4.9.8-4,1.9-6.8c2.3-6.2,6.5-18.6,14.3-42.5,3.3-10.2,7.3-21.7,8.9-25.5,3-7.3,4.2-11.2,8.4-28.5,1.6-6.5,3.8-12.3,5.6-15.2,1.7-2.6,4.1-7.5,5.3-11,3.8-10.5,9.8-21.6,13.5-25.3,4.1-4.1,10.1-8.5,25.6-18.8,11.2-7.4,24.4-17.1,37-27.1,3.9-3.1,9.5-7.2,12.5-9.3,7.8-5.2,16.7-13.9,17.5-17.1.4-1.5,2-5.7,3.6-9.4,3.3-7.5,3.6-11.5,1.3-16-1.07-2.13-.47-4.2,1.8-6.2,6.5-5.8,16.3-11,27.7-14.7,17-5.7,20.9-8.8,27.2-22.2,2.6-5.7,3.3-8.6,3.9-17.5.5-5.9,1.4-16.6,2-23.7,1.3-13.8.8-27.7-1.4-46.5-1.4-11.8-3.7-19.5-9.6-31.5-6.8-13.9-11.1-16.6-28.5-17.7-13.6-.8-26.4-2.2-34.5-3.6-11.7-2.2-19.8-8.1-23.8-17.4-1.1-2.5-2.9-5.1-4-5.7-2.5-1.3-8.4-1.3-13.2.1h0Z"/>
    <path id="Gitagum" d="m956.32,3115.24c-1.6,1.2-5.2,4.3-8,6.8-5.5,4.9-16,11-19,11-2,0-17.1,4.8-25.8,8.1-2.7,1.1-5.7,1.9-6.7,1.9-1.1,0-2.7.4-3.7.9-.9.5-3.7,1.5-6.2,2.1-2.5.7-6.3,1.9-8.5,2.6s-5.8,1.5-8,1.9-6.5,1.4-9.5,2.2c-3,.9-7.5,1.9-10,2.3s-5.2,1-6,1.4c-2.7,1.1-15.3,3.8-22.5,4.7-3.8.5-9.8,1.4-13.2,1.9-3.5.6-8.9,1.4-12,1.9-12.7,1.9-19.3,5.2-30.9,15.3-3.3,2.9-33.8,33-67.7,66.8-59.4,59.1-61.7,61.5-61.7,65.1,0,2.8.9,4.8,3.6,8,5,6,24.1,24.7,43.2,42.2,8.9,8.2,16.2,15.2,16.2,15.6,0,.8,17.3,18.3,24.3,24.6,4.6,4.1,83.1,82.4,88.3,88.1,1.6,1.7,3.6,3.5,4.5,4,2.4,1.3,12.9,10.5,15.8,13.8,7.2,8.2,20.5,21.9,48.9,50.6,17.1,17.3,33.5,34.6,36.3,38.5,2.8,3.8,5.8,7.3,6.8,7.7,1,.3,2.5,1.8,3.5,3.3,1.8,2.7,8.6,10.5,17.1,19.6,2.4,2.5,6.6,7.5,9.2,11,2.7,3.5,6.4,8,8.1,9.9,1.8,1.9,4.6,6.2,6.3,9.5l3,6-.2,43.2c-.3,50.1-.6,48.3,8.2,48.3,3.5,0,6.7-.9,10.7-2.9,3.1-1.6,9.2-4.3,13.4-6,4.2-1.8,8.2-3.9,8.9-4.8.7-.8,2.4-1.9,3.6-2.4,1.3-.5,8.1-4.6,15.1-9.2,10.2-6.8,15.1-10.9,24.7-20.8,7.2-7.4,13.6-15,15.8-18.9,2.1-3.6,6-10.1,8.8-14.5,11.2-17.9,16.4-31.4,15.7-40.7-.4-5-2.3-11.2-5.4-18.3-3.1-7.2-12.1-45.4-14.9-63.5-1.4-9.1-3.6-20.9-5-26.3s-2.5-10.9-2.5-12.3-1.1-8-2.5-14.6-2.5-13.2-2.5-14.7c0-2.6-1.9-12.6-4.5-23.1-.8-3-2.1-9.1-3.1-13.5-.9-4.4-2.8-11.6-4.2-16-1.3-4.4-2.8-11.8-3.1-16.5-.4-4.7-2.1-13.9-3.8-20.5s-4.1-19-5.3-27.5-3-19.1-4.1-23.5c-7.1-30.3-9.2-38.5-10.8-42.5-1-2.5-2.4-5.9-3.1-7.5-2-5-5-17.6-5-21.2,0-1.8-.7-5.9-1.5-9.1-.8-3.1-2.8-11.3-4.5-18.2s-4.2-15.3-5.5-18.6c-1.3-3.4-3.1-10.4-4-15.5-.9-5.2-2.1-9.9-2.7-10.6-.5-.7-1.4-2.7-1.8-4.5-.5-1.8-3.2-9.4-6-16.8s-6.9-19.8-9.1-27.5-4.6-16-5.3-18.5c-.8-2.5-1.7-6-2.1-7.8-.7-3.5-5.2-12.2-6.9-13.4-2.2-1.6-8.4-.8-11.2,1.4h0Z"/>
    <path id="Libertad" d="m608.72,3332.64c-16.1,15.5-38,34.9-46.9,41.5-2.6,1.9-10.2,7.9-16.9,13.4-6.8,5.5-15.5,12.4-19.4,15.4-3.9,2.9-8.4,6.6-10.1,8.1-3.1,3-12.9,8-15.6,8-.8,0-3.4.9-5.7,2-2.2,1.1-4.7,2-5.5,2s-3.6.8-6.3,1.9c-5,1.9-12.3,3.1-35.9,5.7-7.1.8-15.9,2.1-19.5,3-3.6.8-8.4,1.9-10.6,2.4-3.7.9-13.2,5.6-18.4,9.3-2,1.4-5.2,5.3-20.5,25.2-12.9,16.7-17.6,22.6-22.7,28.5-4.4,5-4.8,5.9-4.8,10.6,0,4,.5,5.5,2.3,7.2,1.3,1.2,2.6,2.2,3,2.2.3,0,3.3,1.6,6.7,3.6s10.5,5.1,15.8,6.8c9.4,3.2,26,11,31.2,14.6,2.2,1.5,6.4,3.2,27.5,11,2.8,1,7.5,2.6,10.5,3.5,3,1,6,2.2,6.6,2.7,2.5,1.9,10.3,5.6,15.4,7.3,3,1,8.2,3.3,11.5,5.1s8.9,4.2,12.5,5.3c3.6,1.2,9.5,4.2,13.1,6.6,3.7,2.5,10.4,6.2,15,8.2,4.6,1.9,11.1,5.1,14.6,7,3.4,1.9,9.5,4.3,13.5,5.5,4,1.1,9.3,3.2,11.8,4.6,7.3,4.2,14,7.3,21.5,9.9,4.1,1.3,10.7,4.9,15.9,8.5,5,3.4,11.4,6.9,14.7,7.9,7,2.2,9.8,3.6,18.7,9.3,3.7,2.4,9.9,5.9,13.7,7.9,19,9.7,56.1,36.2,71,50.8,2.8,2.7,5.6,4.9,6.2,4.9s5.7,4.4,11.4,9.8,12.7,11.3,15.4,13.2c7.6,5.2,15.8,12.6,21.8,19.9,3,3.6,8.4,8.8,11.9,11.6,4.7,3.6,8.7,8.1,14.4,16.3,4.3,6.2,9.8,13.9,12,17,2.3,3.1,5.7,8.6,7.5,12.2,1.9,3.5,4.4,7.6,5.5,9,1.2,1.4,3.5,5.3,5.2,8.6,1.7,3.4,6.3,11.4,10.1,17.8,3.9,6.4,7.1,12,7.1,12.5,0,.4,1.7,3.1,3.8,5.9,5.3,7.3,10.2,15.2,10.2,16.6,0,.6.9,2.6,2,4.4s2,3.8,2,4.5c0,2.2,6.1,13.2,8.6,15.4,1.7,1.6,3.8,2.3,6.3,2.3,3.3,0,4.5-.7,8.2-4.8,5.8-6.2,14.3-20.4,15.8-26.5.6-2.7,3.8-9.2,7-14.5,8.4-14,13.7-24.4,16.1-31.7,2.2-6.5,8.7-18,15.7-27.7,2.1-2.9,5.2-7.3,6.8-9.8,3.8-5.8,11-14.6,15.2-18.6,3.2-3.1,3.3-3.5,3.3-11,.1-4.4.7-9.3,1.4-10.9,1-2.3,1.2-12.3.9-44.5-.2-22.8-.6-42.4-.8-43.5s-1.8-3.4-3.4-5.2-4.9-6.1-7.2-9.5c-2.4-3.5-6.6-8.8-9.4-11.8-2.7-3.1-8.8-10.1-13.5-15.8-4.7-5.6-9.1-10.2-9.7-10.2-1.1,0-6.9-7.3-11.3-14.2-.8-1.2-4.6-5.2-8.4-8.8-3.9-3.6-9.5-9.2-12.5-12.5-3.1-3.3-8.2-8.5-11.4-11.5-14.4-13.6-32.5-32-35.7-36.2-1.9-2.5-6.6-6.9-10.5-9.8-3.8-2.8-9.9-8.3-13.5-12.2-17.1-18.3-49.6-50.2-56.3-55.2-3.3-2.6-11-10.8-20.2-21.8-1.6-2-5.9-6-9.5-8.9s-7.3-6.4-8.4-7.7c-1-1.3-3.9-4.5-6.5-7.1-2.5-2.6-6.8-7.4-9.6-10.6-10.6-12.2-24.4-26.1-33.5-33.6-5.2-4.2-11.3-9.6-13.5-12-2.2-2.3-8-8-13-12.8-4.9-4.7-11.3-11-14-13.8-8.1-8.5-8.4-8.3-27.7,10.3h0Z"/>
    <path id="Initao" d="m337.92,3519.34c-3.3,2.9-12.7,14.8-16.5,20.8-1.6,2.6-5.6,8.6-8.7,13.2-3.2,4.7-5.8,9.1-5.8,9.9,0,.7-.6,2.4-1.3,3.8-3.5,6.9-6,14.6-6.1,19.3-.4,17.2,1.7,56.3,3.5,67.7,1.6,9.7,2,14.8,1.5,23-.4,5.8-1,17-1.4,25s-1.2,15.1-1.6,15.9c-.5.8-1.5,3.8-2.2,6.5-1.8,6.8-5.7,18.3-6.7,19.2-.4.4-.7,1.6-.7,2.8,0,2.3-20.8,44.9-25.1,51.3-1.5,2.3-6.5,11.6-11,20.5s-9.1,17.6-10.4,19.3c-1.2,1.6-3.4,6.1-4.9,10-1.5,3.8-4.6,10.4-6.8,14.5-6,11.2-9.2,21.8-14,46.5-4.3,22-8.5,29.9-24.5,45.6-12.2,11.9-15.9,16.3-20.7,24.4l-3.6,5.9v33.2c0,22.6.4,34.1,1.1,35.8.7,1.3,2.6,3.1,4.3,3.8,3.6,1.5,19,1.5,34.1-.1,5.5-.6,18.1-1.6,28-2.1,9.9-.6,20.5-1.5,23.5-2,8.6-1.5,30.1-3,43.4-3,7-.1,14.6-.7,18.1-1.5,4.1-1,11.8-1.5,24.6-1.5s20.1-.4,23.5-1.4c2.7-.7,13-1.9,22.9-2.5,21.6-1.4,36.9-2.8,45-4.2,3.3-.6,11.8-1.3,18.9-1.5,7.2-.2,16.2-.8,20.1-1.3,10-1.4,30.3-2.9,58-4.2,13.2-.6,29.4-1.5,36-2s17.9-1.3,25-1.8c7.2-.5,18.6-1.7,25.5-2.6,15.6-2.1,34.2-3.4,48.5-3.5,6.7,0,15-.8,21.3-2,6.4-1.3,14.4-2,21.3-2,6.1,0,14-.4,17.7-1,3.7-.5,12.6-1.2,19.7-1.4,17.5-.7,37.1-2.3,42-3.5,2.2-.5,15-1.2,28.5-1.6s25.2-1.1,26.1-1.6c2-1,10.4-13.9,14.6-22.4,5.8-11.5,8.1-20.8,9.3-38.6,1.9-26.5.8-31.7-12.4-59.1-5.9-12-10.1-19.4-13.5-23.4-2.7-3.2-5.3-6.9-5.6-8.3-.4-1.4-3.7-7.7-7.4-14-3.8-6.4-8.7-15-11-19.1-9.9-17.8-30.6-48.8-34.4-51.8-1.2-.9-9.7-9.2-18.9-18.4-9.1-9.3-17.3-16.8-18.1-16.8-.9,0-5.7-4-10.9-8.8-5.1-4.8-12-10.7-15.3-13.1s-9.4-7.6-13.5-11.6c-4.1-3.9-9.1-8.2-11-9.5s-5.9-4.4-8.9-6.9-6.9-5.5-8.7-6.6c-1.7-1.1-5.1-3.3-7.5-4.9-13.7-9.3-27.1-17.6-32.4-20.3-10.9-5.5-15.8-8.3-18.9-10.7-1.7-1.2-4.9-2.9-7.1-3.5-3.4-1.1-30.8-14.3-35.5-17.1-.8-.5-5.9-3-11.2-5.5-5.4-2.6-10-5-10.3-5.5s-3.8-1.8-7.8-3c-5.9-1.8-40.8-18.3-49.7-23.6-1.4-.8-5.6-2.8-9.5-4.5-3.8-1.6-9.9-4.5-13.5-6.4-3.6-1.8-9.1-4-12.3-4.8-3.2-.9-7.9-2.9-10.6-4.6-4.6-3-10.7-5.4-29.6-11.6-4.4-1.4-10.9-4.2-14.5-6.1-15.8-8.4-28.7-14.3-37.1-17-5-1.6-17.9-8.3-24.1-12.5-3.8-2.6-9.7-2.4-12.8.4h0Z"/>
    <path id="Naawan" d="m787.92,4015.14c-6,1.4-14.5,2.3-28.5,2.9-42.7,1.7-63.1,3.1-69.5,4.7-4.4,1.1-14.2,1.9-30.5,2.4-13.2.5-26.2,1.2-29,1.7-18,3.2-54,6-108.5,8.3-12.9.5-29.1,1.6-36,2.5-6.9.8-20.4,1.9-30,2.3-9.6.5-19.1,1.3-21,1.9-1.9.7-11.5,1.7-21.5,2.3-9.9.5-23.5,1.9-30.2,3-8.5,1.3-17.5,1.9-29.5,1.9-9.5.1-19.3.5-21.8,1s-18,1.6-34.5,2.5c-16.6.8-32.5,2-35.5,2.6s-14.9,1.7-26.5,2.5c-11.5.8-24.1,1.9-28,2.4-3.8.5-12,.9-18.2.9-10.3.1-11.4.3-14,2.5l-2.8,2.4v27.4c0,15,.2,30.4.4,34.3.2,3.8-.2,27-.9,51.5-1.2,40.4-1.2,45.5.4,56,1.3,9.2,1.6,19.6,1.6,52.6s.3,41.4,1.3,42.1c.6.5,5.7,1.8,11.2,2.7,5.5,1,13.4,2.5,17.5,3.2,4.1.8,13.6,1.8,21,2.3,7.5.6,14.8,1.5,16.4,2.1,5.7,2.1,11.4,2.9,32.1,4.4,11.6.9,25.7,2.5,31.5,3.6,5.8,1.2,15.9,2.5,22.5,3s15.8,1.4,20.5,2c4.6.6,14.3,1.5,21.5,2,14,1,28.5,2.8,49,6,7.1,1.1,17,2.2,22,2.6,4.9.3,11.3,1,14,1.5,2.8.5,13.3,1.6,23.5,2.4s21.2,2.2,24.5,3,10.5,1.5,16,1.5,13.8.7,18.5,1.5,13,2,18.5,2.5,14.3,1.9,19.5,3,12.2,2,15.5,2,7.8.5,10,1,9.9,1.4,17,2c7.2.7,15.9,1.8,19.5,2.5s11.5,1.6,17.5,2c11.4.6,24.3,2,52.5,5.7,9.1,1.1,20.3,2.5,25,2.9,17.3,1.5,28,2.8,31.7,3.8,2.1.6,9.7,1.3,16.8,1.7,7.2.3,15.3,1.2,18,2,2.8.7,7.8,1.6,11,2,3.3.4,6.5,1,7,1.4.6.4,3.7,1,7,1.4,7.5.8,28.7,6.1,32.7,8.2,1.6.8,7.1,2.1,12.2,2.9s11.7,2.4,14.7,3.6c6.7,2.7,19.1,6.4,42.9,13,23.8,6.5,59,18.2,65.9,22,7.7,4.1,11.2,4.6,13,1.7,10-15.9,13.2-22.9,19-41,4.2-13.4,7.8-21.5,14.9-33.4,2.3-3.8,5.7-11.6,7.6-17.1,1.9-5.6,5.4-13.9,7.9-18.5,2.4-4.6,6.1-13.5,8.2-19.8,2-6.3,4.3-13,5.1-14.8,3-7,.8-11.6-6.6-13.6-1.4-.4-5.4-2-9-3.6s-10.8-4-16-5.4c-19.3-5.3-29.2-8.5-36.7-12-4.3-2-11.4-4.7-15.8-6.1-11.8-3.6-19.9-6.5-20.9-7.6-.6-.5-2.1-.9-3.5-.9-1.5,0-3.9-.7-5.5-1.5-1.6-.9-4.6-2-6.5-2.5-12.6-3.2-40.4-12.1-46.6-14.9-2.2-1-6.5-3-9.5-4.4-3-1.3-10.4-3.7-16.5-5.1-6-1.5-13.4-3.8-16.4-5.2-3-1.3-9.1-3.4-13.5-4.5-4.5-1.1-11.8-3.8-16.3-6-4.6-2.1-9.1-3.9-10-3.9-1.7,0-23.3-7.3-47.3-16-15-5.4-17.6-6.4-19.1-7.6-.8-.6-4.2-2.8-7.7-4.8-3.5-2.1-6.2-4.1-6-4.5.4-.9,9.1-14.8,21.4-33.9,5.5-8.6,10.7-17.3,11.4-19.2.8-1.9,8.6-14.3,17.3-27.4,18.6-28,29.6-45.9,45-72.9,6.6-11.6,7.9-16.1,5.5-18.5-.9-.9-7-1.2-21.7-1.1-16.9,0-22.1.4-29.1,2h0Z"/>
    <path id="Manticao" d="m175.62,4341.14c-1.5,2.4-9.5,33.2-13.7,52.4-2.8,13.1-12.9,33.6-24.2,49.5-9.2,12.9-16.1,20.1-24.3,25.6-3.1,2-7.4,5.8-9.6,8.4-4.8,5.6-10,8.6-23.4,13.3-11.4,4-25.5,10.5-33.4,15.5-8.2,5.2-12.7,9.7-15.1,15.3-1.2,2.8-3.4,7.2-5,9.8-3.8,6.2-7,17.7-7.7,28.3l-.6,8.8,3.7,3.5c2.1,1.9,4.3,3.5,5,3.5s2.4.8,3.7,1.8c2.3,1.8,11,6.5,31.5,17.2,4.9,2.6,12.1,6.9,16,9.7,10,7.2,13.2,8.9,19.9,10.8,7.1,2.1,12,4.5,19.5,9.5,5.5,3.7,8.9,5.6,14.5,8.4,1.7.8,6.6,3.5,10.9,6,4.4,2.5,10.7,5.5,14,6.6,3.4,1.1,9.1,3.7,12.8,5.8,10.6,5.9,31,18.2,34.8,21.1,1.9,1.4,6.1,4,9.3,5.7s8.2,5,11,7.3c2.9,2.3,10,7.3,15.9,11.1,13,8.4,19.8,13.8,30.3,24.3,4.4,4.4,10.3,9.6,13,11.7,2.8,2,9.7,7.2,15.5,11.5,5.7,4.2,11.6,9.2,13,11,3.7,4.7,12.4,12.3,20.1,17.8,3.7,2.6,7.9,6.4,9.5,8.5,1.6,2,4.7,5.7,7,8.2,7.4,8,8.1,11.6,9.4,49,.9,27.3,2.6,43.8,4.6,46,1.2,1.3,6.6,1.6,33.2,1.8,19.5.2,33.6,0,36.7-.7,4.6-.9,87.7-2.8,165.6-3.6,17.4-.2,32.8-.7,34.2-1,1.5-.4,13.1-.9,25.9-1,12.8-.2,47.2-.9,76.3-1.5,29.2-.5,75.3-1.5,102.5-2,75.8-1.5,103-2.5,107.3-3.9,4.1-1.3,11.7-7.5,11.7-9.5,0-.7,1.1-2.3,2.4-3.5,1.4-1.3,3.6-4.6,4.9-7.5,3.9-8.1,21.1-33.7,25.7-38.1,4-3.9,7-8.5,12.3-18.5,2.4-4.8,27.3-41.9,33.8-50.5,2.1-2.8,4.5-6.8,5.4-8.9s3-5,4.7-6.4c1.6-1.4,4-4,5.1-5.7,1.2-1.8,6.8-10.1,12.4-18.4,5.7-8.3,12.9-18.6,16.1-22.9,3.2-4.2,8-11.1,10.6-15.3,2.7-4.2,8.1-11.9,12.2-17,4-5.2,9-12.5,11-16.2,2-3.8,6.8-11.4,10.7-17,14.5-20.9,19.5-28.3,22.6-33.6,3.2-5.4,6.8-10,14.7-19,5-5.6,8.1-13,6.6-15.8-1.6-3-4.3-4.8-12.2-8.4-4.1-1.8-9.3-4.5-11.5-6-2.2-1.4-5.8-3.6-8-4.8s-4.7-2.5-5.5-3c-3-1.9-8.6-4.3-16-6.8-7-2.5-20.6-8.9-23.3-11.1-.6-.5-4.6-2.1-8.7-3.5-4.1-1.5-12-4.9-17.5-7.6-5.5-2.8-10.9-5.1-12-5.1s-4.9-1.4-8.5-3.1-8.3-3.8-10.5-4.5c-2.1-.8-6.1-2.9-8.8-4.6-2.7-1.8-8.4-4.4-12.6-5.9-4.2-1.4-11.9-4.3-17.1-6.4-5.2-2-12.6-4.8-16.5-6.2-3.8-1.3-10.4-3.8-14.5-5.5-12.9-5.2-20-7.5-36.5-11.8-8.8-2.3-19.6-5.7-24-7.5-4.4-1.9-10.9-4.1-14.5-5s-8.7-2.7-11.5-4c-2.7-1.3-8.3-2.8-12.3-3.4s-9.9-2.2-13.2-3.6-7-2.5-8.2-2.5c-1.3-.1-4.1-.7-6.3-1.5-2.2-.9-8.3-2-13.6-2.5-5.3-.6-12.7-2-16.5-3.1-3.8-1.2-11.8-2.4-17.9-2.9-19.4-1.4-34.7-3.1-45.2-5.1-5.6-1-12.1-1.9-14.5-1.9s-10.4-.9-17.8-1.9c-19.4-2.9-29.2-4-49.5-5.5-9.9-.8-21.3-2.2-25.3-3-4-.9-9.7-1.6-12.5-1.6s-7.9-.4-11.1-1c-3.3-.5-11.6-1.4-18.4-2-6.9-.6-16.1-1.9-20.6-3-4.4-1-12.5-2.1-17.8-2.4-5.4-.4-10.9-1.1-12.3-1.6-1.3-.5-10-1.4-19.2-2s-20-1.7-24-2.5-13.9-2-22-2.5c-8.1-.6-19-1.7-24-2.5-5.1-.8-12.1-1.5-15.5-1.5s-10.2-.7-15-1.5c-4.9-.9-12.7-2.2-17.5-3-4.9-.8-11.3-1.5-14.3-1.5s-8.2-.7-11.5-1.5c-4.1-1-12-1.4-25.3-1.5-17.2,0-20.8-.3-34.6-3-9.6-1.9-21.4-3.4-31.7-4-9-.6-20.4-1.7-25.4-2.6-4.9-.8-13.7-1.9-19.5-2.4-5.8-.4-14.8-1.7-20-2.8-12-2.5-23.4-4-37.7-4.8-10.9-.6-11.1-.6-12.6,1.7h0Z"/>
    <path id="Lugait" d="m14.42,4579.44c-2.9,2.9-4.5,8.4-4.5,15.3,0,2.8-.7,8.5-1.6,12.5-1,4.5-1.9,16.1-2.4,30.3-.6,14.9-1.4,25.1-2.4,29-1.3,4.8-1.7,15-2.1,51.5-.3,25-.8,59.7-1.1,77-.6,30.8-.6,31.9,2.1,49.5,1.9,12.4,2.8,22.4,2.9,32.1.1,10.8.4,14.5,1.6,15.9,1.4,1.6,4.1,1.7,47.5,1.1,25.3-.4,64.5-1.1,87-1.7,22.6-.5,63.3-1.4,90.5-1.9,66-1.3,118.5-2.5,118.7-2.8.1-.1.9-.9,1.7-1.8,1.4-1.3,1.6-5.1,1.6-25.8,0-32-1.5-54.8-4.1-60.1-3.4-7.2-8.8-16.7-10.6-18.7-1-1.1-5.8-5.1-10.8-8.8-4.9-3.7-12-9.7-15.6-13.4-6.5-6.5-10.6-9.8-23.4-18.7-3.3-2.3-8.9-6.9-12.5-10.2s-8.5-7.9-11-10.2c-9.2-8.5-17.9-15.3-30.5-23.8-7.1-4.9-18.1-12.3-24.2-16.5-6.2-4.2-12.5-8.4-14-9.3-1.6-.9-7.1-4.3-12.3-7.4-9.6-5.9-26.2-14.5-27.9-14.5-1.9,0-11.9-5-14.8-7.4-1.7-1.4-4.8-3.2-7-4-3.6-1.3-13-6.8-22.4-13-2.4-1.7-9.3-5-15.4-7.4-7-2.8-15.1-7.2-22.3-12-6.3-4.1-13.2-8.1-15.4-8.9-2.3-.8-7.3-3.3-11.2-5.6-10.1-5.8-25.6-12.7-28.9-12.7-1.6,0-3.8,1-5.2,2.4Z"/>
  </g>
</svg>