<?xml version="1.0" encoding="utf-8"?>
<!-- Generator: Adobe Illustrator 27.1.0, SVG Export Plug-In . SVG Version: 6.00 Build 0)  -->
<svg version="1.1" id="Alubijid" xmlns="http://www.w3.org/2000/svg" xmlns:xlink="http://www.w3.org/1999/xlink" x="0px" y="0px"
	 viewBox="0 0 6850.7 5280" style="enable-background:new 0 0 6850.7 5280;" xml:space="preserve">
<style type="text/css">
	.st0{fill-rule:evenodd;clip-rule:evenodd;fill:#9B13E3;}
	.st1{fill:#0B0BF9;stroke:#FFFFFF;stroke-miterlimit:10;}
	.st2{fill:#F9F912;stroke:#FFFFFF;stroke-miterlimit:10;}
	.st3{fill:#F70D34;stroke:#FFFFFF;stroke-miterlimit:10;}
	.st4{fill:#8800FF;}
	.st5{font-family:'ArialMT';}
	.st6{font-size:140px;}
	.st7{fill:#7400EF;}
	.st8{fill:#7F00EF;}
	.st9{fill:#8703EF;}
	.st10{font-size:150px;}
	.st11{font-size:200px;}
	.st12{font-size:124px;}
</style>
<g id="Layer_20">
	<path class="st0" d="M4178.4,252.4c-13.1,13.3-18.4,20.4-18.4,25c0,0.7-9.4,10.7-21,22.3s-21,21.4-21,21.9s-0.8,1.9-1.8,3
		s-2.4,3.6-3.1,5.6c-2.8,7.6-5.6,12.7-9.5,16.8c-2.2,2.3-4.5,4.2-5.1,4.2c-1.3,0-20.5,19.2-20.5,20.5c0,0.5-5.3,6.4-11.9,13
		c-7.2,7.3-12.3,13.4-13.1,15.5c-3.6,10-6.3,13.8-17.3,24.8c-6.3,6.2-12.5,11.9-13.8,12.5c-1.3,0.7-2.9,2.3-3.6,3.6
		c-0.6,1.3-4.1,5.3-7.6,9c-5.8,6-10.7,14-10.7,17.5c0,0.7-0.9,2.2-2,3.2s-2,2.3-2,2.9c0,1.4-10.2,11.6-11.6,11.6
		c-1.3,0-8.4,7.2-8.4,8.5c0,0.5-4.9,5.9-10.9,12c-6.5,6.6-11.4,12.4-12.1,14.5c-2.9,8.2-5.8,12.9-11.4,18.8
		c-3.3,3.4-6.5,6.2-7.1,6.2c-1.4,0-44.5,43.2-44.5,44.6c0,0.6-1.2,2.2-2.6,3.5c-3,2.8-5.4,8.1-5.4,11.9c0,4.1,4.6,7.8,11,9.1
		c7.2,1.4,12,3,14.5,5c3.2,2.6,7.2,4,14.4,5c4.6,0.6,9.3,2.3,14.7,5.1s10.5,4.6,15.9,5.5c4.9,0.9,10.5,2.7,14.5,4.8
		c3.9,2,9.9,4,14.9,5c4.6,0.9,10.2,2.6,12.5,3.8c11.2,6,11.6,6.2,23.5,6.9c10.4,0.6,12.3,1,18.1,3.9c3.7,1.9,10.4,4.1,15.8,5.2
		c6.3,1.3,11.5,3.1,15.7,5.4c4.3,2.4,8.9,4,14.7,5c5.3,0.9,10.7,2.7,14.9,4.9c4.3,2.3,9.5,3.9,15.2,4.9c6.5,1.1,10.2,2.4,14.6,5.1
		c4.1,2.5,8.4,4.1,13.7,5.1c4.2,0.8,9.7,2.2,12.2,3c5.3,1.8,9.2,1.2,11.9-1.9c1.1-1.2,4.5-7.4,7.6-13.7c4.1-8.3,6.1-13.7,7.1-19.5
		c1.2-6.8,3.1-11.4,13.2-31c6.5-12.7,13.9-27.3,16.6-32.5c5.7-11.3,7.9-13,16.5-13c4.9,0,6.7,0.5,10.8,3.1c7.2,4.6,8.9,5,21.5,5.8
		c10.8,0.7,12,0.9,19.9,4.9c7,3.5,9.4,4.2,14.3,4.2c3.2,0,9.3,0.7,13.4,1.6c6.8,1.4,7.8,1.4,9.9,0c2.9-1.9,3.3-4,4.3-24.1
		c0.8-15.9,0.8-16.1,4.5-23.1c2.6-4.9,4-9.3,4.8-14.5c0.8-5.4,2.3-10,5.7-16.8c4.6-9.3,4.6-9.3,4.6-20.5c0.1-17-2.3-19.5-19.3-20.6
		c-10.7-0.7-10.7-0.7-22.7-7c-11.7-6.2-12.4-6.7-30.1-24.4c-9.9-9.9-23.5-23.4-30.2-29.9c-18.3-17.9-17.2-14.1-17.2-59.7
		c0-37.6,0-37.6,3.5-44.7c1.9-3.9,3.5-8.1,3.5-9.2c0-3.5-3.7-9.7-9.9-16.5c-6.1-6.7-6-6.5-9.1-21.7c-0.6-3.2-1.5-6-2-6.2
		c-2-1.2-6-10.9-7.1-16.9c-1-5.9-3.9-11.6-5.8-11.6C4192.8,238.1,4186.2,244.5,4178.4,252.4"/>
</g>
<g id="Layer_19">
	<path class="st0" d="M4245.3,324.9c-3.9,3.1-4.3,6.2-4.3,34.7c0,26.1,0.1,27.4,2.1,29.9c1.5,1.9,3,2.6,5.2,2.6
		c2.6,0,4.2-1.2,9.2-6.4c3.3-3.5,8.5-8,11.6-9.9c7.1-4.5,8.1-5.8,8.7-11c0.4-3.8-0.3-5.8-6.8-18.2c-4-7.7-8.6-15.5-10.4-17.3
		C4255,323.2,4249.5,321.6,4245.3,324.9"/>
</g>
<g id="Layer_18">
	<path class="st0" d="M4333.7,418.5c-4.2,1.6-5.4,2.4-14.2,10.7c-7.2,6.7-11.2,7.9-27.3,7.9c-12.7,0-14,0.5-11.9,4.6
		c2.8,5.4,8.2,9.2,22.6,15.9c14.4,6.8,14.4,6.8,31.2,7.4c19.3,0.7,20.6,1.2,24.9,9.6c2.3,4.6,2.5,6.1,2.9,23.6
		c0.4,21.5-0.4,26.7-5.4,34.8c-2.8,4.5-3.8,7.6-4.9,14.8c-1.1,7.3-2.1,10.3-5,15c-5.1,8.3-5.6,10.8-5.6,28.4
		c0,14.5,0.2,15.8,2.2,18.9c3.2,4.7,17.7,12.7,25.3,14c11.1,1.9,14.4,2.9,19.4,6c3.6,2.2,7.5,3.5,13.7,4.5
		c5.9,0.9,10.8,2.5,15.3,4.8c3.7,1.9,9.6,4,13.1,4.6c8.8,1.5,12.6,2.9,18.1,6.2c3.2,1.9,7.5,3.4,13.4,4.4c5.2,0.9,11.2,2.8,14.8,4.6
		c3.3,1.7,10.1,3.9,15.1,4.9c7.3,1.5,12.1,3.4,25.1,10c13.1,6.7,17.7,8.5,25.3,10c6.4,1.3,11.5,3.1,16.6,5.9
		c8.7,4.8,13.2,5.2,17.3,1.6c2.8-2.4,2.8-2.4,3.3-28.2s0.5-25.8,7.3-39.3c6.3-12.5,7.6-14.3,17-23.9c18.8-19.3,31.2-31.1,34.1-32.7
		c5-2.7,13.9-1.4,21.4,3.1c6.1,3.7,6.7,3.8,18.7,4.6c14.6,0.9,17.8,2.2,21.2,8.9c2.1,4.2,2.2,5.5,2.2,28.1c0,23,0.1,23.7,2.3,27
		c2.8,4.2,7.9,5.1,11.8,2c2.5-2,10.7-15,13-20.6c1.7-4.2,2.3-28.1,1.1-45.8c-0.8-12.7-1.3-15.2-3.1-17.7c-1.2-1.6-2.1-3.3-2.1-3.7
		c0-0.5-1.8-2.6-4-4.7c-2.2-2.1-4-4.4-4-5c0-1.3-7.2-8.5-8.6-8.5c-1.3,0-17.4-16.2-17.4-17.6c0-1.3-11.2-12.4-12.6-12.4
		c-0.6,0-2.8-1.8-4.9-4s-4.4-4-5-4s-2.2-1.2-3.5-2.6c-3.3-3.5-8.9-5.9-18.4-7.9c-8.1-1.6-13.9-3.8-15-5.6c-0.8-1.3-10.2-1.3-11,0
		c-2,3.3-18.5,7.3-24.3,5.9c-2-0.5-21.5-0.9-43.2-0.8c-36.4,0.1-39.9-0.1-44.7-1.8c-2.9-1-6.1-2.7-7.1-3.6
		c-2.1-1.9-8.8-3.2-20.7-4.2c-6.6-0.5-9.5-1.4-16.4-4.7c-8.3-4-8.6-4.1-20.5-4.3c-18.4-0.3-26.6-2.1-32.1-6.7
		c-1.1-0.9-6.3-2.6-11.5-3.7s-10.9-2.7-12.5-3.5s-9.8-8.3-18-16.6c-8.2-8.3-16.7-16-18.8-17.1
		C4344.6,417.4,4338.4,416.8,4333.7,418.5"/>
</g>
<g id="Layer_17">
	<path class="st0" d="M4752.9,577.8c-1.1,1.3-1.4,6.5-1.4,23.8c0,22.1,0,22.1-2.7,27.1c-1.5,2.7-4.7,9-7.1,14
		c-3.2,6.6-5.9,10.5-10.3,14.6c-8.3,8-11.2,9.3-20.9,9.3c-6.9,0-8.7-0.4-13.4-2.9c-6.2-3.4-12.5-10.1-15.5-16.5
		c-1.9-4.1-2.1-6-1.8-22c0.2-15.1,0-18-1.5-20.9c-2.5-4.8-5.8-6.9-12.5-8c-3.2-0.5-8.4-2.1-11.7-3.6c-7.4-3.3-9.9-2.8-13.5,2.8
		c-4.4,6.7-6.3,8.5-12.4,10.8c-9.7,3.8-11.4,5.7-19.2,21.2c-7.2,14.3-7.2,14.3-7.4,36.8c-0.1,12.4,0.1,24,0.6,25.8
		c0.4,1.8,2.5,5.8,4.6,8.9c3.5,5,3.8,6.2,3.8,11.7c-0.1,5.6-0.6,7.2-6.9,18.9c-5,9.4-8.5,14.5-13.2,19.4c-4.5,4.6-7,8.3-8.5,12.2
		c-4.4,11.8-7.5,14.2-20.4,16c-5.4,0.7-9.6,2.3-18.5,6.8c-19.4,9.9-27,14.4-28.7,17c-0.9,1.4-2.2,5.7-3,9.5
		c-0.7,3.9-2.1,8.3-3.1,9.8s-7,7.7-13.3,13.7c-12.5,11.8-12.8,12-26.9,13.7c-6.4,0.8-10.7,3.7-13.1,9c-2.7,6.1-1.8,8.5,6.1,16.9
		c8.3,8.8,8.8,9.7,10.5,20.1c1.1,6.5,2.4,10.4,5.9,16.7c4.7,8.7,7.6,11.9,14.2,16c2.2,1.4,11.2,9.6,19.9,18.4
		c15,15,16.1,16.4,20.1,24.9c5.2,11.2,13.1,20.2,20.6,23.4c4.8,2.1,6.4,2.2,23.8,1.9c18.6-0.3,18.6-0.3,26.5-4.7
		c7.6-4.3,8.2-4.4,19.9-5.2c12-0.8,12-0.8,35.4-12.5c25.9-12.9,27.2-13.9,32.7-25.7c3.1-6.5,5.4-9.3,24.3-27.9
		c11.5-11.4,22.1-21.1,23.6-21.7c1.5-0.6,5.8-1.5,9.5-2.2c4-0.7,10.2-2.8,15.2-5.3c8.4-4.1,8.4-4.1,24.5-4.7
		c17.8-0.6,19.7-1.2,32.5-9.8c7.9-5.3,12.8-13.2,29.7-47.5c4.7-9.6,10.6-16.2,17.5-19.9c4.3-2.3,4.3-2.3,59.3-2.4
		c59.8-0.1,65.7-0.5,74.5-5.2c6.5-3.5,17.1-6.3,23.5-6.3c2.5,0,7.8,0.5,11.6,1.1c5.8,0.9,8.2,0.8,13.8-0.6c6-1.5,7.4-2.3,12.3-7.3
		c3-3.1,6.1-7.3,6.8-9.2c2.2-6,4-9.9,5.1-10.5c1-0.6,6-10.9,6-12.4c0-1.3,3-7,4.1-7.7c1.7-1,6.1-11.9,6.2-15.2
		c0.1-2.3-0.8-4.1-2.8-6.2c-1.6-1.7-3.3-3-3.9-3c-0.5,0-1.8-0.7-2.8-1.7c-2-1.8-4.9-3.6-8.8-5.4c-1.4-0.6-5.6-2.7-9.5-4.5
		s-10.6-4-15-4.9c-6.2-1.2-12.5-3.8-28.1-11.6c-11-5.5-20.6-10-21.3-10c-1.5,0-5-1.9-7.8-4.3c-2.1-1.8-7.1-2.8-23.4-4.7
		c-7.6-0.9-12.8-2.8-15-5.5c-0.7-0.8-1.7-1.5-2.3-1.5s-3.8-2.6-7.1-5.8c-3.3-3.2-7.6-6.4-9.5-7.1c-6.4-2.3-9.7-4-11-5.5
		c-0.7-0.8-1.8-1.5-2.5-1.5s-2.3-1.1-3.6-2.5c-3.1-3.3-8-4.6-12.6-3.3c-2.8,0.8-4.9,0.6-9.2-0.7c-3.1-1-6.1-2.1-6.7-2.5
		s-4.2-1.4-8.1-2.3c-7.8-1.6-15.3-4.7-17.3-7.1c-0.7-0.9-1.8-1.5-2.5-1.5c-0.6,0-3.2-2-5.6-4.5c-2.7-2.7-7.7-6.1-12.5-8.4
		c-4.9-2.4-9.8-5.7-12.5-8.5c-2.5-2.5-4.9-4.6-5.4-4.6s-2-1-3.2-2.1c-1.9-1.7-4.6-2.4-15.3-3.5c-14.7-1.5-19.7-3.3-25-8.8
		c-1.9-2-4-3.6-4.6-3.6s-2.2-1.2-3.6-2.6C4766.8,577,4755.8,574.2,4752.9,577.8"/>
</g>
<g id="Layer_16">
	<path class="st0" d="M4225.7,615.1c-1.4,1.1-3.5,4.4-4.5,7.2c-1.1,2.9-5.7,12.4-10.1,21.2c-7.1,13.9-8.4,17.2-9.7,25
		c-1.1,6.7-2.3,10.4-4.8,14.5c-1.8,3-4.3,8-5.5,10.9c-1.2,3-3,6.7-4.1,8.2s-3.7,6.6-5.9,11.4c-3.6,7.8-4.4,8.8-8.2,10.6
		c-6.6,3-10.6,2.5-19.4-2.1c-5.5-2.9-10.3-4.5-16.3-5.6c-5.9-1-10.4-2.6-14.8-5c-4.5-2.5-8.7-3.9-14.9-4.9c-6.2-1-10.4-2.4-14.8-4.9
		c-4.3-2.4-8.9-3.9-14.9-5c-6.1-1.1-10.6-2.6-15.1-5.1c-4.6-2.6-8.8-4-15-5c-6.4-1-10.4-2.4-15.3-5.2c-6.3-3.6-7.4-3.8-18.7-4.5
		c-11.3-0.7-12.5-1-20-4.8c-5.4-2.7-10.7-4.5-16.3-5.5c-5.7-1-10.2-2.5-14.5-4.9c-4.8-2.7-8.7-3.9-16.1-5.1
		c-9.8-1.6-12.4-2.5-16.1-5.7c-1.1-0.9-5.6-2.4-10-3.3c-10.2-2.1-17.5-4.5-20-6.7c-1.1-1-5.4-2.4-9.5-3.3
		c-10.2-2.1-12.8-2.9-17.5-5.4c-2.4-1.3-5.8-2.1-8.5-2.1c-4.4,0-4.8,0.3-12.6,8.2c-4.4,4.5-8.6,9.8-9.3,11.8
		c-3.3,9.3-6,13.1-17.1,24.5c-6.9,7.1-12.2,13.4-12.9,15.5c-2,5.6-6.1,13.9-7.1,14.5c-1.1,0.7-5.9,11-5.9,12.8
		c0,0.7-5.2,6.4-11.6,12.7c-9.7,9.6-12.2,12.7-15,18.7c-1.9,4-3.4,7.6-3.4,8.1c0,2.8-4.7,8.4-19,22.6c-13.1,13-16.6,17.2-19.1,22.3
		c-3.1,6.3-3.1,6.3-0.3,9.2c2.2,2.3,3.9,2.9,9.3,3.5c3.7,0.4,61.1,0.8,127.8,1c121.1,0.3,121.1,0.3,134,6.7
		c7.1,3.5,20.6,10.3,30,15.1s17.5,8.7,17.8,8.7c0.4,0,2.1,1,3.7,2.2c4.7,3.3,6.7,9,6.8,18.4c0,6.8-0.4,8.8-2.5,12.5
		c-6.6,11.5-6.7,12-6.8,28.8c-0.2,15.6-0.2,15.6-4,22.4c-2.5,4.5-3.6,7.4-3.2,8.8c0.9,2.9,5.7,5,11.3,5c8.2,0,15.1,1.8,21.1,5.5
		c3.1,1.9,7.3,4,9.2,4.6c2.2,0.7,15.9,1.2,38.5,1.3c35,0.2,35,0.2,44,4.6c8.4,4.1,9.6,4.4,17,4.4c9.7,0,14.6-2.2,24.4-11
		c7.7-6.9,10.3-8,20.1-8.9c9.5-0.9,18.9,0.6,24.9,3.9c2.5,1.4,7.9,4.1,11.9,6s9.7,5.6,12.5,8.1c6.7,6,13.1,10.1,18.1,11.5
		c5.7,1.5,10.8-0.8,20.5-9.3c12.9-11.3,12.6-10.2,12.8-47.4c0.1-31.1,0.1-31.1,4.5-40.5s4.4-9.4,4.4-34s0-24.6,4.9-34.2
		c4.3-8.6,4.9-10.8,5.8-19.4c0.5-5.4,0.9-28.7,0.7-51.8c-0.3-42-0.3-42,4-50.6c4.2-8.5,4.3-8.8,4.4-20c0.2-16.1-1.2-18.3-16.7-25.9
		c-5.5-2.7-10.4-4.3-15.3-5c-7.4-1-10.3-2.1-17.8-6.3c-3.4-1.9-6.2-2.5-16-3c-11.4-0.6-12.3-0.8-20.9-5.1c-8.3-4.1-9.7-4.4-19-4.9
		c-5.5-0.3-12-1.2-14.4-2.1C4233.2,612.6,4228.8,612.7,4225.7,615.1"/>
</g>
<g id="Layer_15">
	<path class="st0" d="M4383.4,657.2c-1.6,1.8-2,4.2-2.4,15.2c-0.5,13.1-0.5,13.1-5,21.1s-4.5,8-4.5,59.5s0,51.5-4.8,59.5
		c-2.6,4.4-4.8,9.1-4.9,10.5s-0.2,13.3-0.2,26.5c-0.1,22.5-0.2,24.3-2.3,28c-8.6,16.1-7.9,12-7.9,42.7c0,27.7,0,27.7,2.4,30.2
		c1.6,1.8,4.6,3,9.5,4.1c4.3,1,11.9,4,19.1,7.7c6.6,3.4,16.2,8.3,21.4,10.9c11.6,5.9,13.5,7.6,17.2,15.8c3.9,8.6,5.9,10.6,15.6,15.2
		c13.9,6.7,15.4,10.6,15,38.3c-0.3,17-0.3,17,3.5,24c2.1,3.8,4.8,9.6,6.2,12.8c2.1,4.9,3.1,6.1,6.8,7.7c2.4,1.1,4.9,2,5.7,2
		c0.8,0,7.9,3.2,15.9,7.1c16.7,8.1,18.8,8.7,23,6.5c3.8-2,4.6-3.4,6.6-11.8c0.8-3.6,3.3-9.9,5.4-13.9c2.8-5.3,4.1-9.2,4.6-13.9
		c0.6-5.4,2.2-9.5,9.2-23.7c7.1-14.3,8.4-17.8,7.9-20.3c-1.2-5.6-8.4-14.7-20.9-26.4c-8.5-7.9-13.1-13.1-14.5-16.1
		c-1.1-2.5-3.1-6.6-4.3-9.2c-3.5-7.7-11.9-15-24.1-21c-13.7-6.8-17.3-10.8-26-28.4c-5-10.1-6.8-15.1-7.7-20.7
		c-1.4-9.1-2.9-12-10.1-19.9c-3.2-3.5-6.4-7.7-7.3-9.5c-3.9-8.2-2.8-21.4,2.2-26.7c1.5-1.6,8-5.6,14.5-9c9.1-4.7,13.7-6.5,19.8-7.5
		c14.4-2.5,18.7-6.8,21.3-21.2c1.7-9.8,3.2-12.7,9.7-19c4.3-4.2,9.9-7.4,33.3-19.1c35.5-17.7,42.6-23.2,45.7-35.1
		c2.2-8.5-1.1-12.2-12.4-14c-4.1-0.7-9.5-2.5-13.5-4.6c-4.2-2.2-9.6-4-14.7-4.9c-6.6-1.2-10.9-2.9-24.5-9.9
		c-14.1-7.3-17.8-8.7-25.1-10c-5.8-1-10.9-2.7-15.5-5.1c-4.5-2.3-9.7-4.1-15.2-5c-5.7-1-10.3-2.6-14.5-4.9c-4.3-2.4-8.8-3.9-14.8-5
		c-5.7-1-10.9-2.7-15.5-5.1c-6.5-3.4-18.3-6.6-24.3-6.6C4386.6,655.1,4384.5,656,4383.4,657.2"/>
</g>
<g id="Layer_14">
	<path class="st0" d="M5030,816.5c-0.3,0.3-4.5,0.9-9.3,1.5c-6.1,0.7-9.5,1.5-11,2.8c-5.9,5-3.1,4.8-68.2,5.4
		c-69.1,0.6-65,0.1-70.5,8.8c-1.6,2.6-7.7,14.3-13.5,26c-9.1,18.3-11.3,22-16.1,26.7c-3,3-8.1,6.6-11.2,8.1
		c-6.1,2.8-7.7,3.6-16.1,7.9c-5.2,2.6-6,2.8-21,2.9c-17,0.1-14.9-0.4-30.2,7.7c-1.9,1-7,2.3-11.2,2.9c-4.2,0.5-9.4,1.8-11.5,2.9
		c-2.1,1.1-8.3,6.6-13.9,12.3c-9,9.1-10.7,11.5-14.6,19.8c-4,8.6-5.3,10.4-15.1,20c-9,8.8-12.2,11.2-19.9,15.1
		c-5.1,2.5-11,5.5-13.2,6.7s-6.9,3.6-10.5,5.3c-3.6,1.8-8.2,4.1-10.3,5.2c-2.9,1.5-6.7,2.1-16.1,2.6c-11.9,0.6-12.5,0.8-18.2,4.3
		c-7.4,4.6-12,5.8-21.4,5.8c-5.6,0-8.3,0.5-10.6,1.9c-3.3,2-11.5,14.8-14.7,23.1c-1,2.5-3.4,7.3-5.3,10.8c-2.6,4.7-3.8,8.6-4.8,15.2
		c-1.1,7.1-2.1,10.1-5,14.9c-4.7,7.6-5.3,11.2-5.4,28.6c-0.1,18.7,1,22.4,9.4,31.2c4.2,4.5,7.7,9.5,10.4,15c2.2,4.6,4.9,9.7,6,11.5
		s3.2,6.3,4.7,10.1c2,5.1,4.4,8.7,9,13.5c8.8,9.3,18.7,28.6,20.7,40.3c1.2,6.8,2.9,11.1,9.9,24.8c4.6,9.1,9.5,19.2,10.8,22.3
		c1.5,3.7,4.6,8.3,8.6,12.6c3.4,3.7,7.5,8.9,8.9,11.4c3.9,6.7,9,10.6,23.2,17.7c13.7,6.9,23.6,14.8,26.8,21.5
		c2.6,5.4,1.6,11.7-2.8,19c-4.3,6.9-4.4,8.6-1.4,13.5c2.8,4.6,10.2,12.9,11.4,12.9c0.5,0,2.9,2.1,5.4,4.6c4.1,4.2,4.8,4.5,8.3,4.1
		c3-0.4,5.1-1.7,9.3-5.8c4.6-4.5,10.3-13.8,10.3-16.7c0-1.3,3-7,4.1-7.7c1.2-0.7,5.9-11,5.9-12.8c0-0.7,0.9-2.1,2-3.1s2-2.3,2-2.9
		s2.5-3.6,5.5-6.6c4-4,6.9-8.2,10.5-15.5c3.4-7,6.4-11.5,10-15s6.5-8,10-15c3.5-7.1,6.4-11.4,10-15c4.3-4.2,10-13.5,10-16.4
		c0-1.3,3-7,4.1-7.7c1.2-0.7,5.9-11,5.9-12.8c0-0.7,0.9-2.1,2-3.1s2-2.3,2-2.9s2.5-3.6,5.6-6.6c5-4.9,10.4-13.9,10.4-17.3
		c0-0.7,0.9-2.1,2-3.1s2-2.3,2-2.9s2.5-3.6,5.5-6.6c4-4,6.9-8.2,10.4-15.5c3.5-7.1,6.4-11.5,10-15s6.5-7.9,10-15s6.4-11.4,10-15
		c4.3-4.2,10-13.5,10-16.4c0-1.3,3-7,4.1-7.7c1.2-0.7,5.9-11,5.9-12.8c0-0.7,0.9-2.1,2-3.1s2-2.3,2-2.9s2.5-3.6,5.5-6.6
		c4.4-4.4,6.9-8.3,13-20.7c4.1-8.4,7.5-15.6,7.5-16.1c0-1.4,3-7.1,4.1-7.8c1-0.6,5.9-10.9,5.9-12.3c0-1.3,3-7,4.1-7.7
		c1-0.6,5.9-10.9,5.9-12.3c0-1.3,3-7,4.1-7.7c1-0.6,5.9-10.9,5.9-12.3c0-1.3,3-7,4.1-7.7c1-0.6,5.9-10.9,5.9-12.3c0-1.3,3-7,4.1-7.7
		c1-0.6,5.9-10.9,5.9-12.3c0-1.3,3-7,4.1-7.7c1-0.6,5.9-10.9,5.9-12.3c0-1.3,3-7,4.1-7.7c1-0.6,5.9-10.9,5.9-12.3c0-1.3,3-7,4.1-7.7
		c1-0.6,5.9-10.9,5.9-12.3c0-1.3,3-7,4.1-7.7c1-0.6,5.9-10.9,5.9-12.3c0-1.3,3-7,4.1-7.7s5.9-10.9,6-12.7c0-0.7,1.4-3.5,3-6.2
		c1.6-2.8,3.4-6.1,4.1-7.5c3.8-8.2,6.1-12.7,7.1-14.2c2.4-3.5-2.9-8.9-10.3-10.3C5032.1,816.3,5030.3,816.2,5030,816.5"/>
</g>
<g id="Layer_13">
	<path class="st0" d="M3707.3,837.5c-2.9,0.6-5.8,1.7-6.4,2.4c-0.7,0.7-1.7,1.2-2.3,1.2c-1.3,0-18.5,17.2-18.5,18.5
		c0,0.5-1.3,2.3-2.8,4c-1.6,1.7-3.4,4.6-4.1,6.5c-3.5,9.7-6.4,13.9-15.5,23c-6.1,6-9.5,10.3-9.5,11.6c0,4,2.9,7.9,16,21.7
		c11.6,12.2,13.6,14.8,17.6,23.2c3.6,7.5,6.4,11.5,13.9,19.7c13.1,14.4,31,30.7,36.4,33.1c6.6,2.9,19.3,3.7,60.2,3.7
		c46.1,0,49.4-0.3,60.7-6c8.8-4.4,8.8-4.4,22.8-4.4s14,0,21.5,3.7c4.8,2.4,10.5,4.3,15.7,5.2c6.2,1.1,9.9,2.4,15.3,5.7
		c7.1,4.2,7.3,4.3,19.3,4.9c11.2,0.6,12.7,0.9,19.2,4.2c9.2,4.6,11.7,5.2,16,3.4c2.5-1,4.7-3.4,7.9-8.4c6.7-10.4,7.6-12.6,9.1-21.2
		c1.1-6.4,3-11,9.9-24.4c7.1-13.9,8.7-17.9,9.9-24.8c1-5.8,2.7-10.8,5.8-16.8c4.3-8.5,4.3-8.5,4.9-25c0.5-16.2,0.6-16.6,3.9-23.3
		c3.6-7.4,3.6-9.2-0.1-14.7c-2.6-3.7-1.8-3.3-30.3-17.3c-21-10.3-21-10.3-129-10.3c-59.4,0-117.7,0.2-129.5,0.5s-24,0.2-27-0.2
		C3714.9,836.6,3710.3,836.8,3707.3,837.5"/>
</g>
<g id="Layer_12">
	<path class="st0" d="M3633.4,933.4c-1.6,1.8-3.6,4.6-4.4,6.2c-0.8,1.7-2.2,3.9-3.1,5c-2,2.3-3.3,7.1-4.9,16.8
		c-1.1,7-2.1,9.6-5.3,13.3c-1,1.2-2.2,4.8-2.6,8c-1.5,10.5-4.7,20.4-7.1,21.9c-1.1,0.7-6,11-6,12.5c0,1.3-2.1,4.9-4.3,7.6
		c-1,1.2-2.2,4.8-2.6,8c-1.5,10.5-4.7,20.4-7.1,21.9c-1,0.6-6,10.9-6,12.4s-3,6.9-4.5,8.1c-0.8,0.7-1.7,2.8-2,4.9
		c-2.2,13.9-4.9,23.1-7.5,24.6c-1.1,0.7-6,10.9-6,12.5c0,1.3-2.1,5-4.4,7.6c-1.2,1.4-2.1,4.8-2.7,9.5c-0.5,4.1-1.4,8.7-2,10.3
		c-2.6,6.4-3.4,8-5.1,10c-1.9,2.3-3.3,7.1-4.8,16.6c-1,6.4-3.2,12.3-5.1,13.5c-1,0.6-5.9,11-5.9,12.5c0,1.3-2.1,4.9-4.2,7.5
		c-0.9,1.1-2.6,6.7-3.8,12.5c-2,10.2-4.1,16.3-6,17.5c-1.1,0.7-6,11-6,12.5c0,1.3-2.1,4.9-4.2,7.5c-0.9,1.1-2.6,6.7-3.8,12.5
		c-2.1,10.9-3.9,15.8-6.5,17.9c-0.8,0.7-1.7,2.9-2.1,4.9c-2.2,13.9-4.9,23.1-7.5,24.6c-1.1,0.7-6,10.9-6,12.5c0,1.3-2.1,5-4.4,7.6
		c-1.2,1.4-2.1,4.8-2.7,9.5c-0.5,4-1.1,8.2-1.5,9.3c-1.7,4.8-4.5,10.4-5.4,11c-2.6,1.6-4.3,8.6-4.9,20.5c-0.7,12.4-1.4,15-5.4,19.6
		c-1,1.2-2.2,4.8-2.6,8c-1.6,11.2-3.8,18-7.2,21.9c-1,1.2-2.6,6.5-3.8,12.5c-2.2,11.1-3.2,14.1-6.4,17.8c-1.6,1.9-2.1,4.4-2.7,13.5
		c-1,15.3-2.5,20.8-7.1,26.2c-1,1.1-2.6,6.7-3.8,12.5c-2.2,11.1-3.2,14.1-6.5,17.8c-1.7,1.9-2.1,4.3-2.7,14.5
		c-0.4,6.7-1.2,13.5-1.8,15.2c-2,5.1-3.5,7.9-5.3,10c-1,1.2-2.6,6.5-3.8,12.5c-2.2,11.1-3.2,14.1-6.4,17.8
		c-1.6,1.9-2.1,4.4-2.7,13.5c-1,15.3-2.5,20.8-7.1,26.2c-1,1.1-2.6,6.7-3.8,12.5c-2.1,10.9-3.2,14.1-6.2,17.5
		c-1,1.2-2.6,6.5-3.8,12.5c-2.1,10.8-3.2,14.1-6.1,17.5c-2.3,2.7-3.9,8.9-3.9,15.5c0,7-1.7,17.5-3.3,20.3c-0.7,1.2-2.1,3.2-3.1,4.4
		c-1.2,1.4-2.1,4.8-2.7,9.5c-0.5,4.1-1.4,8.7-2,10.3c-2.6,6.5-3.4,8-5.2,10c-2,2.3-3.8,11.1-3.8,19.4c0,8.4-2.4,16.2-6.3,20.6
		c-1,1.2-2.2,4.8-2.7,8c-1.6,10.9-3.8,17.8-7.1,21.9c-0.9,1.1-2.2,3.6-2.9,5.5c-2.3,6.3-6.1,13.8-7.5,15c-0.8,0.7-1.7,2.8-2,4.9
		c-2.3,14.7-4.1,20.7-7.6,24.7c-2.1,2.4-3.6,7.6-4.9,16.8c-1,6.7-2,9.4-5.1,13.2c-0.9,1.1-2.2,3.6-2.9,5.5
		c-2.1,5.9-5.4,12.4-7.2,14.5c-1,1.2-2.6,6.4-3.8,12.5c-2.1,11-3.2,14.1-6.3,17.6c-1,1.2-2.2,4.8-2.7,8c-1.6,11.2-4.5,19.8-7.5,22.4
		c-2.1,1.8-1.9,7.3,0.5,10.3c1.1,1.4,2,2.9,2,3.4s4.1,4.9,9,9.8s9,9.5,9,10.1s4.9,5.8,10.8,11.5c7.5,7.3,11.5,11.9,13.1,15.4
		c1.3,2.8,3.2,7,4.4,9.5c1.5,3.2,10.7,13,32.7,35c30.6,30.5,30.6,30.5,36.3,42c6.4,13.1,10.8,19,14.1,19c1.2,0,4.7-1.2,7.7-2.7
		c5.3-2.6,6.2-2.7,27.5-3.2c22-0.6,22-0.6,29.6-4.8c5.6-3.1,9.4-4.5,15-5.3c5-0.7,10.1-2.4,15.7-5.2c7.7-3.8,9.1-4.1,19.7-4.8
		c10.8-0.7,11.9-0.9,19.9-4.9c8.1-4,9.1-4.3,20.4-5c11.6-0.7,12.2-0.9,19.8-5.1c7.7-4.3,8.2-4.4,19.8-5c11.5-0.7,12.2-0.8,20-4.9
		c7.8-4.1,8.6-4.3,20-5s12.3-1,20-5s8.6-4.3,19.9-5c11.2-0.7,12.3-1,20.3-5s9.1-4.3,19.9-4.9c10.8-0.7,11.9-0.9,20.1-5.1
		c8.2-4.1,9.3-4.4,20.1-5c10.7-0.7,11.9-0.9,19.9-4.9c7.9-4,9.2-4.3,20.1-5c11-0.8,12.1-1,19.6-4.9c5.4-2.8,10.5-4.6,15.8-5.5
		c4.5-0.8,11-2.9,15.2-4.9c4.3-2.1,10.2-4,14.3-4.6c4.6-0.7,9.9-2.5,15.3-5.2c7.9-3.9,9-4.2,20-4.8c7.9-0.5,12.9-1.2,15.4-2.4
		c5.6-2.7,17.6-15.8,20.5-22.4c1.3-3.1,4-8.6,5.8-12.1c2-3.8,4-9.9,4.9-14.7c0.9-5,2.9-10.8,5.1-15.1c2.4-4.7,4.1-9.7,5-15.3
		c1.1-6.7,2.6-10.8,7.5-20.3c6.6-12.8,7.3-16.8,4.1-20.9c-1.1-1.4-8.6-5.8-16.8-9.8c-8.1-4-16.2-8.3-17.9-9.6
		c-5.6-4.1-6.6-8.6-6.2-29c0.3-17.9,0.3-17.9,4.8-26.2c4.4-8.3,4.4-8.3,5.1-24.1c0.9-22.5,3-25.9,17.5-28.1c4.7-0.7,9.6-2.4,15-5.2
		c7.5-3.9,8.7-4.2,19.8-5c13-1,15.9-1.9,26.2-8.3c11.4-7.1,11-5.7,11-42c0-31,0-31-4.4-40s-4.4-9-4.3-53.7c0.1-42.4,0.2-44.9,2-48.5
		c3.1-6,10.9-12.8,19.6-17.2c16.7-8.4,22.9-12.5,26-17.1c1.6-2.5,8.4-15,14.9-28s12.5-24.7,13.3-26.2s2-6.3,2.8-10.8
		c1.2-7.1,3.3-11.8,14.9-35.2c11.6-23.3,13.7-28.1,15-35.2s3.2-11.7,15.1-35.2c12-23.7,13.8-28,15-35c1.3-7.6,4.4-14.6,16.8-38
		c7.9-14.8,11.7-24,13-31.6c1.3-7.5,3.3-12,20-45c16.1-31.9,18.7-37.7,20-44.7c1.5-8.1,5.4-16.7,22.5-49.5c5-9.6,6.5-13.5,7.7-20.5
		c1.3-7.8,2.9-11.5,14.9-35.3c11.3-22.3,13.7-27.9,14.9-34.6c1.4-7.6,6.5-19,18.5-41.6c5.8-11,3.8-14.2-9.7-15.5
		c-9.8-1-13-2.8-18-10.4c-4.5-6.8-6.5-8.4-17.7-14.3c-8.7-4.6-8.9-4.6-17-4.3c-9.4,0.4-11.6,1.7-16,9.9c-4.6,8.4-11,10.1-34.4,9.1
		c-14.5-0.7-14.5-0.7-23.3-5.1c-8.8-4.4-8.8-4.4-44-4.5s-35.2-0.1-44.8-4.9c-9.6-4.8-9.6-4.8-22.6-4.5c-15.4,0.4-14.8,0-22.2,12.9
		c-4.2,7.3-5.4,10.3-6.5,17.5c-0.8,4.7-2.3,10.3-3.5,12.3s-4.1,7.8-6.5,12.8c-3.1,6.4-6,10.8-9.8,14.6c-7.6,7.6-11.5,9.3-21.3,9.3
		c-7.5,0-8.6-0.3-17.5-4.7c-9.1-4.5-9.9-4.7-20.5-5.2c-10.4-0.5-11.5-0.8-18.9-4.6c-5.4-2.8-10.5-4.5-16-5.5
		c-5.6-1-10.7-2.7-16.5-5.7c-7.9-4-8.8-4.3-16.5-4.2s-8.6,0.3-17,4.8c-8.8,4.7-8.8,4.7-68,4.4c-51.8-0.2-59.5-0.5-62-1.9
		c-1.6-0.9-16.8-15.5-33.8-32.4c-30.9-30.7-31-30.9-35.2-39.9c-4.2-8.9-12-18.6-15.1-18.6c-0.7,0-1.8-0.7-2.5-1.5
		C3639.1,929.3,3636.7,929.8,3633.4,933.4"/>
</g>
<g id="Layer_11">
	<path class="st0" d="M4352.5,978.5c-4,1.7-14.4,8.4-17.3,11c-2.6,2.3-12.4,18.6-13.7,22.6c-0.4,1.4-4.8,10.4-9.7,20
		c-7.6,14.9-9.1,18.8-10.3,25.8c-0.7,4.5-2,9.5-2.8,11s-6.9,13.6-13.6,26.8c-11.2,22.1-12.3,24.7-13.5,32.8
		c-1.1,6.9-2.1,10.1-4.9,14.5c-1.9,3.1-4.3,7.7-5.3,10.2s-2.7,6.1-3.9,8c-1.2,1.9-5.1,9.6-8.7,17c-5,10.2-6.8,15-7.3,19.5
		c-0.6,5.1-3.5,11.7-20,45c-17.8,36-19.4,39.6-20.4,46.9c-0.8,5.9-2,9.3-4.5,13.5c-1.9,3.1-4.2,7.6-5.1,10.1c-1,2.5-2.1,5-2.6,5.6
		s-4.3,7.8-8.4,16c-6.5,12.9-7.7,16.1-8.9,23.7c-0.9,5.9-2.1,10-3.8,12.5c-1.3,2-7.6,14.3-14,27.2c-9.9,20.1-11.7,24.6-12.6,30.8
		c-0.6,4.4-2.1,9.2-3.6,12c-1.4,2.6-3.7,7.2-5.1,10.2s-3.2,6.8-4.1,8.5s-4.8,9.1-8.5,16.5c-5.6,11.1-7,14.8-7.9,21
		c-0.6,4.1-2.1,9.5-3.3,12c-18.6,36.2-21.6,42.5-21.6,45.2c0,4.1,4.6,8.5,9.6,9.3c9.7,1.5,16.5,3.6,21.3,6.5
		c3.7,2.3,7.6,3.6,13.9,4.6c5.4,0.9,11.4,2.8,15.7,4.9c3.9,1.9,10.1,3.9,14,4.5s9.2,2.3,12,3.7c2.8,1.4,6.7,3.5,8.9,4.5
		c2.9,1.5,6.8,2.2,15.5,2.7c10.7,0.6,12.2,1,18.7,4.3c3.9,2,10,4.1,13.5,4.7c8.8,1.5,12.6,2.9,18.2,6.3c3.3,2,7.5,3.4,13.5,4.4
		c5.3,0.9,11.5,2.8,15.7,4.9c4.1,2,9.9,3.8,14,4.4c4.7,0.7,9.6,2.4,14.9,5.1s10.5,4.5,16,5.5c5.1,0.9,10.5,2.7,14.7,4.8
		c4.3,2.3,9.5,3.9,15.2,4.9c6.5,1.1,10.2,2.4,14.7,5.2c4.5,2.8,8.2,4.1,14.6,5.2c5.4,0.9,11.3,2.8,16.3,5.3
		c7.1,3.4,8.9,3.8,18.7,4.5c10,0.6,11.5,1,19.3,4.8c5.4,2.7,11.3,4.6,16.5,5.5c5.1,0.9,10.5,2.7,14.6,4.8c3.9,2,9.9,4,14.8,5
		c6.4,1.2,11.5,3.2,22.3,8.6c7.7,3.9,15.2,7,16.7,7c2.7,0,9.1-5.4,9.1-7.6c0-0.6,0.9-1.9,2-2.9s2-2.3,2-3s0.8-1.9,1.8-2.9
		c1-0.9,2.4-3.6,3.2-5.9c0.7-2.3,2.2-5.2,3.2-6.3c1-1.1,1.8-2.5,1.8-3s2.5-3.4,5.5-6.4c4-4,6.9-8.2,10.5-15.5c3.4-7,6.5-11.5,10-15
		c3.9-3.9,6.7-8.3,12.5-20.1c4.1-8.3,7.5-15.8,7.5-16.6c0-0.8,0.9-2.3,2-3.3s2-2.3,2-2.9s2.5-3.6,5.5-6.6c4-4,6.9-8.2,10.4-15.5
		c3.5-7.1,6.4-11.4,10-15c4.3-4.2,10-13.5,10-16.4c0-1.3,3-7,4.1-7.7c1.2-0.7,5.9-11,5.9-12.8c0-0.7,0.9-2.1,2-3.1s2-2.3,2-2.9
		s2.5-3.6,5.5-6.6c4-4,6.9-8.2,10.5-15.5c3.4-6.9,6.5-11.5,10-15c4-3.9,6.8-8.5,13.8-22.5c8.3-16.7,8.7-17.8,8.7-24
		c0-4.9-0.7-7.9-2.7-12.2c-1.5-3.1-3.1-6-3.7-6.3s-1.6-2.1-2.4-3.9c-0.7-1.8-5.5-7-10.5-11.6c-13.4-12.3-16-19.5-10.6-30
		c5.1-10.2,3.5-12.4-16.7-23c-15.7-8.2-21.3-13.5-26.8-25.6c-2.7-5.8-5.9-10.7-9.8-15c-4.8-5.2-7.9-10.5-17.5-29.7
		c-9.7-19.3-11.8-24.5-12.7-30.3c-0.7-4.6-2.6-10.1-5.4-16c-2.4-4.9-5.4-11.2-6.6-13.9c-1.2-2.7-4.8-7.6-8-11
		c-4.6-4.9-7.6-9.9-15-24.6c-7-14-10.6-19.9-14.7-24.3c-2.9-3.2-7-8.4-9.1-11.4c-4.3-6.5-7.8-8.8-15.3-10.2
		c-3-0.5-10.4-3.5-16.7-6.7c-11.1-5.7-11.3-5.7-22-6.3c-5.9-0.3-11.7-1.1-12.8-1.7c-3.2-1.8-10.4-10-12-13.7
		c-0.8-1.8-1.9-6.4-2.5-10.2c-0.6-4.1-2.5-9.9-4.8-14.4c-3.7-7.5-3.7-7.5-4.2-24c-0.4-14.4-0.8-17.1-2.7-21
		c-2.9-5.9-11.7-16.4-18.4-22c-3-2.5-8.2-7.1-11.7-10.3c-3.6-3.3-8.8-6.9-12-8.3c-3.1-1.4-9.2-4.2-13.5-6.4
		C4363.3,976.8,4358,976.1,4352.5,978.5"/>
</g>
<g id="Layer_10">
	<path class="st0" d="M4069,1580.6c-2.4,1.4-7.6,4.1-11.4,6c-12.6,6.3-21.8,11.9-23.9,14.8c-2,2.7-2.1,3.9-2.1,40
		c0,37.2,0,37.2,5,47.1s5,9.9,5,52.5s0,42.6-2.5,47.1c-3.1,5.6-6.9,7.5-17.5,9c-6,0.8-9.3,1.9-13.5,4.4c-7.7,4.7-8.1,4.8-21.6,5.5
		c-12.1,0.7-12.1,0.7-21.7,6.4c-11.9,7.1-12.7,8.5-13,21.6c-0.2,9.5-0.3,9.9-4.5,16.8c-5.1,8.4-6.2,11.9-6.2,19.8
		c0,11,5.3,18.7,16,23.3c11.9,5.1,27.8,13.4,29.7,15.4c4.9,5.3,5.5,12.1,1.6,19.4c-10.7,20.1-16.4,32.3-16.4,35.4
		c-0.1,6.1-2,12.3-5.6,18.3c-2.8,4.5-3.8,7.7-4.9,14.7s-2.1,10.2-4.9,14.8c-5.2,8.5-9.6,18.4-9.6,21.3c0,4.1,2.7,6.8,10.8,10.9
		c4.2,2.1,9.9,5,12.7,6.4c2.8,1.5,8.1,3.1,12.1,3.6c4.3,0.6,10,2.4,14.5,4.5c4.3,2.1,10.8,4.1,15.7,4.9c5.4,0.9,9.9,2.4,13,4.3
		c6.4,3.9,9.5,5,17.7,6.2c4.5,0.7,9.4,2.3,13.6,4.5c3.6,1.9,9.5,4,13,4.6c8.8,1.5,12.6,2.8,18.2,6.3c3.3,2,7.5,3.4,13.5,4.4
		c5.7,1,11.2,2.7,15.7,5.1c6.4,3.2,8.1,3.6,19.1,4.4c11.4,0.8,12.4,1,19.9,4.9c5.5,2.9,10.4,4.6,16.3,5.6c5.4,0.9,10.8,2.7,15.1,4.9
		c4.3,2.2,9.7,4,15,4.9c6.1,1,9.8,2.4,14.3,5.1s7.8,3.9,12.8,4.5c7.2,0.9,8.4,1.2,15,4.2c5.6,2.5,11.2,2.1,12.7-0.9
		c0.6-1.2,1.9-3.1,2.8-4.1s1.7-2.3,1.7-2.9c0-0.6,0.7-1.6,1.5-2.3c1.7-1.4,6.5-11.2,6.5-13.3c0-0.7,0.9-2.1,2-3.1s2-2.3,2-2.9
		c0-0.6,2.5-3.6,5.5-6.6c4-4,6.9-8.2,10.4-15.5c3.5-7.1,6.4-11.4,10-15c4.3-4.2,10-13.5,10-16.4c0-1.3,3-7,4.1-7.7
		c1.2-0.7,5.9-11,5.9-12.8c0-0.7,0.9-2.1,2-3.1s2-2.3,2-2.9s2.5-3.6,5.5-6.6c4.7-4.6,7-8.5,15.4-25.5c8.3-16.7,10.8-20.9,15.1-25
		c4.3-4.2,10-13.5,10-16.4c0-1.3,3-7,4.1-7.7c1.2-0.7,5.9-11,5.9-12.8c0-0.7,0.9-2.1,2-3.1s2-2.3,2-2.9s2.5-3.6,5.5-6.6
		c4-4,6.9-8.2,10.5-15.5c3.4-6.9,6.5-11.5,9.9-14.9c4.1-4,6.9-8.6,15-25c8.2-16.6,10.9-20.9,15.1-25.1c4.8-4.7,12-17.2,12-20.8
		c0-0.8,0.7-2,1.5-2.6c0.8-0.7,3.7-5.8,6.4-11.4c3.5-7.2,6.4-11.6,10.1-15.2c3.6-3.5,6.5-7.9,10-15s6.4-11.4,10-15
		c4.4-4.3,10-13.5,10-16.5c0-1.3,2.1-5,4.5-7.7c1.4-1.6,2.1-4.2,2.4-8.8c0.4-5.7,0.1-6.8-1.9-9c-1.3-1.3-2.9-2.4-3.6-2.4
		s-1.3-0.4-1.3-0.8c0-2-14.9-8.3-22.8-9.6c-5.7-1-10.2-2.5-14.5-4.9c-4.4-2.4-8.9-4-14.9-5c-6-1.1-10.8-2.7-16-5.4
		c-7-3.7-8-3.9-18.8-4.5s-11.9-0.9-19.5-4.7c-5.2-2.6-10.9-4.6-16.5-5.6c-5.7-1-10.6-2.7-14.7-5.1c-4.5-2.5-8.7-3.9-14.9-4.9
		c-6.2-1-10.4-2.4-14.8-4.9c-4.3-2.4-8.9-3.9-14.9-5c-6.1-1.1-10.6-2.6-15.1-5.1c-4.6-2.6-8.8-4-14.8-4.9c-5.8-0.9-10.6-2.5-15.3-5
		c-4.5-2.4-9.8-4.1-15.2-5.1c-5.6-1-10.3-2.6-14.5-4.9c-4.4-2.4-8.9-3.9-15.1-5c-6.4-1.1-10.7-2.6-15.5-5.3
		c-6.3-3.5-7.3-3.8-18.5-4.4c-11.4-0.7-12.2-0.9-19.9-4.9c-5.8-3-10.3-4.5-16.3-5.5s-10.1-2.4-14.8-5c-4.6-2.6-9-4.1-15.3-5.2
		c-6-1.1-10.7-2.6-14.8-4.9s-8.8-3.8-14.6-4.9c-5.8-1-10.8-2.6-15.3-5.1c-3.7-2-7.3-3.6-8-3.6
		C4073.9,1578.1,4071.4,1579.2,4069,1580.6"/>
</g>
<g id="Layer_9">
	<path class="st0" d="M3254.9,2041.8c-0.9,1-2.3,5-3.3,8.8c-1.8,7.4-4,13-5.6,14c-1.1,0.7-6,11-6,12.5c0,1.3-2.1,4.9-4.3,7.6
		c-1,1.2-2.2,4.8-2.6,8c-1.6,11.2-3.8,18-7.2,21.9c-1,1.2-2.6,6.5-3.8,12.5c-2.1,11-3.2,14.1-6.3,17.6c-1,1.2-2.2,4.8-2.7,8
		c-1.6,11.2-3.8,18-7.2,21.9c-1,1.2-2.7,6.5-3.9,12.8c-1.3,6.9-3.1,12.6-5,16c-1.6,2.9-3.4,6.3-4,7.7s-2.1,4.5-3.2,7
		s-2.9,5.4-3.8,6.5c-1,1.2-2.6,6.4-3.8,12.5c-2.1,11-3.2,14.1-6.3,17.6c-1,1.2-2.2,4.8-2.7,8c-1.6,11.2-3.8,18-7.2,21.9
		c-1,1.2-2.6,6.5-3.9,12.9c-2.1,10.7-3,13.2-6.1,17.1c-0.9,1.1-2.2,3.6-2.9,5.5c-2.1,5.8-5.3,12.4-7.2,14.5c-2,2.3-3.3,7-4.9,16.8
		c-1.1,7-2.1,9.6-5.3,13.3c-1,1.2-2.2,4.8-2.6,8c-1.6,11.2-3.8,18-7.2,21.9c-1,1.2-2.6,6.5-3.8,12.5c-2.1,10.7-3.2,14-6.1,17.5
		c-0.9,1.1-2.2,3.6-2.9,5.5c-2.1,5.9-5.4,12.4-7.2,14.5c-1,1.2-2.6,6.4-3.8,12.6c-2,10.1-4.1,16.1-6.1,17.4c-1,0.6-5.9,11-5.9,12.5
		c0,2-2.7,5.6-9.1,12.5c-3.6,3.9-7.2,8.6-7.9,10.5c-3.3,9.3-6,13.1-17.1,24.5c-6.9,7.1-12.2,13.4-12.9,15.5
		c-3.6,10-6.3,13.8-17.4,24.9c-8.5,8.4-11.8,12.4-12.8,15.5c-2,6-5.7,11.1-14.8,20.1c-4.4,4.4-8.1,8.4-8.1,9c0,0.5-1.3,2.3-2.8,4
		c-1.6,1.7-3.4,4.6-4.1,6.5c-3.4,9.3-6,13.1-17.1,24.5c-7,7.2-12.2,13.4-12.9,15.5c-3.3,9.3-6,13.1-17.1,24.5
		c-6.9,7.1-12.2,13.4-12.9,15.5c-2.8,7.8-4.4,10-15.1,20.5c-9.3,9.1-11.7,12.2-14.6,18.3c-1.9,4-3.4,7.9-3.4,8.6
		c0,0.7-0.9,2.2-2,3.2s-2,2.3-2,2.9c0,0.6-4.9,6-10.9,12.1c-6.5,6.6-11.4,12.4-12.1,14.5c-2.8,7.9-5.7,12.8-10.4,17.8
		c-2.8,2.9-5.5,5.2-6,5.2c-1.3,0-6.6,5.1-6.6,6.4c0,0.6-1.3,2.4-2.8,4.1c-1.6,1.7-3.4,4.6-4.1,6.5c-1.5,4.2-5.7,12.9-7.3,15.2
		c-0.9,1.3-0.7,2.4,0.8,5.3c3,5.5,13.4,11.3,24.5,13.5c7.2,1.4,12.3,3.5,26.2,10.4c14.3,7.2,18.7,8.9,25.7,10.1
		c6.4,1.1,10.1,2.4,15.2,5.5c3.7,2.2,7.1,4,7.6,4s11.8,5.5,25.3,12.2c24.5,12.3,24.5,12.3,34.9,22.7c9.2,9.2,11.5,10.9,19.6,14.7
		c6.3,2.9,11.3,6.2,16,10.5c4.6,4.2,9.6,7.4,15.2,10c7.3,3.4,9.6,5.2,19.1,14.7c8.2,8.3,12.2,11.6,16.8,13.7
		c3.3,1.5,7.6,3.5,9.5,4.4s6.9,5.2,11,9.6c14.7,15.7,41.7,42.9,52.7,53c9,8.2,12.9,11.1,19.9,14.4c4.8,2.3,10.4,5.5,12.5,7.1
		c2,1.6,4.6,2.9,5.7,2.9c3.7,0,4.6-2.7,5.3-15.1c0.6-10.4,1-12.6,3.5-17.2c7.7-14.4,6.9-7.5,7.4-64.3c0.5-51.1,0.5-51.1,4.8-59.3
		c5.4-10.3,6.4-17.3,6-42.8c-0.2-15.9,0-19.2,1.4-21.7c0.9-1.6,20-21.4,42.5-43.9c40.9-40.9,40.9-40.9,50.4-45.4s9.5-4.5,84.6-79.8
		s75.1-75.3,85.6-80.3c10.4-5,10.7-5.2,25.9-21.1c8.5-8.8,16-17.4,16.8-19.1c1.3-2.7,1.3-3.2-0.3-4.7c-1.4-1.4-3.6-1.7-12.5-1.7
		c-10.7,0-10.7,0-17.9,4.3c-5.6,3.4-8.5,4.5-13,4.9c-7.1,0.6-15.9-1.6-18.9-4.9c-1.1-1.3-4.9-7.9-8.5-14.7
		c-6.4-12.4-6.4-12.4-6.4-21.5c0-10.6,1-13.1,8.9-21.4c5.9-6.2,8.5-7.8,15.8-9.3c11.4-2.4,13.4-5,14.6-19.6
		c0.7-8.4,1.3-10.8,4.5-16.9c2.4-4.6,4.2-10,5.1-15.1c0.9-5,2.8-10.8,5-15.2s4.1-10.2,5-14.9c0.9-5.3,2.7-10.4,5.5-15.7
		c3.9-7.5,4.2-8.5,4.9-19.9c0.8-11.1,1.1-12.5,4.5-19.1c2.4-4.7,4.2-9.9,5.1-15.4c1-5.6,2.6-10.3,5-14.6c2.6-4.6,4-8.8,4.9-14.8
		c0.9-5.7,2.5-10.6,5-15.4c2.3-4.5,4.1-9.9,5-15.1c0.9-5.2,2.7-10.6,5-15.1s4-9.4,4.6-13.8c1.1-7.7,2.3-11.3,5.4-16.3
		c3.3-5.4,4.4-9.6,5.3-21.5c0.8-9.7,1.3-11.9,4.4-18.1c2.3-4.5,4.1-10.1,5-15.6c1.1-6.2,2.5-10.5,5.2-15.2
		c3.9-6.9,5.5-15.4,4.1-21.1c-0.7-2.6-0.9-2.7-5.4-2.1c-2.6,0.4-6.9,1.1-9.7,1.6c-2.8,0.5-7.7,0.9-11.1,1c-4.6,0-7.3,0.7-11,2.7
		c-2.7,1.4-6.6,3.5-8.7,4.6c-2.9,1.6-6.6,2.2-16.1,2.7c-12.2,0.6-12.3,0.7-19.2,4.8c-5.6,3.4-8.5,4.4-14.8,5.3
		c-5.7,0.8-10,2.2-15.6,5c-7.7,3.9-7.7,3.9-25.2,3.9c-21.3,0-25.9,0.8-34.5,6c-7.8,4.7-13.1,5.2-20,1.9
		c-8.9-4.3-14.9-13.3-29.9-45.4c-3.4-7.2-5.4-9.7-22.3-26.9c-10.2-10.4-23.7-23.7-30-29.5c-10.8-10-11.6-11.1-16.3-20.7
		c-4.6-9.5-5.5-10.8-15.7-20.3C3261.6,2040.4,3257.8,2038.5,3254.9,2041.8"/>
</g>
<g id="Layer_8">
	<path class="st0" d="M3926.5,2057.1c-1.7,0.4-5.9,2.4-9.3,4.5c-6.8,4.2-11.7,5.3-23.2,5.4c-6.2,0-8.5,0.5-12.5,2.7
		c-2.7,1.4-6.5,3.4-8.4,4.4s-7.1,2.3-11.5,2.9c-6.1,0.8-9.3,1.9-13.5,4.4c-6.5,4-7.3,4.3-17,5.6c-4.7,0.7-8.8,1.9-11,3.4
		c-8.2,5.4-10.1,5.9-23.2,6.6c-12.2,0.6-12.9,0.8-18.5,4.2c-8,4.8-8.2,4.9-22,5.7c-11.6,0.7-12.4,0.9-18,4.3
		c-7.6,4.7-11.9,5.8-22.9,5.8c-7.9,0-9.7,0.4-14,2.6c-2.7,1.4-6.6,3.5-8.7,4.6c-2.9,1.6-6.6,2.2-16.1,2.7
		c-12.3,0.7-12.3,0.7-19.6,5.1c-7.3,4.4-7.3,4.4-20.4,5c-7.2,0.3-14,1.1-15.1,1.7c-3.1,1.7-18.1,17.6-18.8,19.8
		c-0.3,1.1-1,5.7-1.5,10.2c-0.7,6.7-1.6,9.2-4.5,14.1c-2.8,4.6-3.8,7.7-4.7,13.8c-1.1,7.8-2,10.4-7.4,19.7
		c-2.5,4.4-2.9,6.1-3.4,17.5c-0.6,12.4-0.7,12.8-4.4,18.7c-3.1,4.9-4,7.8-5.1,15.3c-1.1,7.4-2.1,10.4-4.9,15
		c-2.8,4.5-3.9,7.7-5,14.9c-1.2,7.2-2.2,10.4-5.1,15c-2.9,4.7-3.9,7.7-5,15s-2.1,10.3-5,15.2c-2.6,4.3-4,8-4.7,12.8
		c-1.3,9.1-2.4,12.3-6.5,19c-3.2,5.3-3.4,6.2-3.4,14.7c0,11.5-1.2,16.5-5.6,23.6c-2.6,4.3-3.9,7.8-4.9,14.1c-1.6,9.8-2,10.9-5.7,17
		c-2,3.2-3.1,7-3.9,12.5c-1.1,7.9-2,10.4-7.5,19.9c-2.8,4.8-2.9,5.3-3,21c-0.2,17.4-1.2,21.6-6.1,25.5c-3,2.4-10.6,4-18.6,4.1
		c-6.4,0-10.3,1.3-12,4.1c-1.2,2,3.9,13.6,7.7,17.4c3.3,3.3,6,3.2,13.6-0.7c6.3-3.2,6.3-3.2,22.7-3.3s16.4-0.1,23.6-4
		s7.2-3.9,37.7-4.5c16.8-0.4,31.9-1.1,33.5-1.7c1.6-0.6,6.3-2.8,10.4-4.9c7.4-3.9,7.4-3.9,45-3.6c47.1,0.4,53-0.2,64.1-6
		c8.3-4.3,8.3-4.3,44.9-4c20.1,0.2,41.1-0.1,46.5-0.7c8.8-0.9,10.8-1.5,18-5.3c8.1-4.3,8.1-4.3,59.1-4c28.1,0.2,55.9-0.1,61.8-0.7
		c9.8-0.9,11.6-1.4,19.4-5.2c8.6-4.3,8.6-4.3,21.2-4.1c6.9,0.1,16-0.3,20.1-0.9c6.5-1,8-1.6,11.3-4.7c2.1-2,4.5-5.2,5.4-7.1
		c1.8-3.9,9.1-12,10.8-12c1.3,0,10.5-9.2,10.5-10.4c0-0.5,1.4-2.4,3-4.3c1.6-1.9,3-4,3-4.7c0-1.9,4.9-11.3,6.5-12.7
		c0.8-0.7,1.5-1.8,1.5-2.6s0.6-1.4,1.3-1.4c1.5,0,15.3-13.7,17.3-17.1c0.8-1.3,1.9-3.5,2.6-4.9c0.6-1.4,2.7-5.7,4.5-9.5
		c2-4.3,5.3-8.9,8.4-12c3.5-3.5,6.6-8,10-15s6.4-11.5,10-15s6.5-8,10-15c3.5-7.1,6.4-11.4,10-15c4.3-4.2,10-13.5,10-16.4
		c0-1.3,3-7,4-7.6c0.5-0.3,3.1-5.1,5.9-10.8c3.6-7.3,6.5-11.7,10.1-15.2s6.6-8,10-15s6.4-11.5,10-15s6.5-8,10-15
		c3.4-7,6.4-11.5,10-15c4-3.9,6.7-8.2,12.6-20.1c4.1-8.3,7.5-15.6,7.5-16.1c0-1.4,3-7.1,4.1-7.8c1.6-1,3.9-7.5,3.9-11.1
		c0-5.5-4-8.8-12.5-10.2c-4.2-0.7-9.3-2.5-13-4.5c-4-2.2-9-3.9-15-5c-6.1-1.1-11-2.8-15.2-5.1c-4.4-2.5-8.6-3.9-14.8-4.9
		c-6.3-1-10.4-2.4-15.2-5.1c-6.2-3.5-7.4-3.8-18.7-4.6c-11.2-0.8-12.7-1.2-20.2-4.9c-5.2-2.6-10.9-4.5-16.3-5.4
		c-5.6-1-10.2-2.6-14.5-4.9c-4.4-2.4-8.9-4-14.9-5c-5.7-1-10.9-2.7-15.5-5.1c-4.4-2.3-9.7-4.1-15-5c-5.7-1-10.2-2.5-14.7-5.1
		c-4.8-2.7-8.9-4-15.2-5.1c-6.1-1-10.4-2.4-14.8-4.8c-4.1-2.3-9.1-4-14.8-5c-8.3-1.5-18.2-5.9-37.4-16.6
		C3934.8,2056.9,3930.8,2056.1,3926.5,2057.1"/>
</g>
<g id="Layer_7">
	<path class="st0" d="M3985.7,2517.5c-2.1,0.8-5.6,2.6-7.8,4c-2.2,1.5-5.2,3.1-6.7,3.7c-1.9,0.8-20.1,1-59.2,0.9
		c-34.1-0.1-58.8,0.2-62.4,0.8c-3.9,0.7-8.3,2.5-13,5.3c-7.1,4.3-7.1,4.3-53.5,4.4s-46.4,0.1-54.5,4.5c-8.2,4.4-8.2,4.4-54.7,4.9
		c-51.6,0.6-45.3-0.3-61.5,8.4c-3.7,2-5.5,2.1-25,2.2c-20.1,0-21.2,0.1-25.4,2.4c-2.8,1.5-17.9,15.7-40.3,38
		c-19.7,19.6-37.3,36.4-39.1,37.4c-1.8,1-5.9,2.9-9.2,4.4c-5.5,2.4-12.9,9.5-83,79.3c-77,76.6-77,76.6-84.5,79.5s-7.7,3.1-38.8,34
		c-21.7,21.5-32,32.5-33.5,35.6c-2.1,4.3-2.2,5.7-2.2,30.5c0,28.7,0.5,26-7.1,39c-2.9,5-2.9,5-3.4,57c-0.5,56.7,0,51.6-6.6,63
		c-2.9,5-2.9,5-2.9,23.2s0,18.2,3.2,21.4s3.4,3.2,16,4c7,0.5,25.4,0.7,40.8,0.6c28-0.3,28-0.3,36.3,4.2c7.9,4.2,8.9,4.5,19.5,5.3
		c6.2,0.5,47.4,0.7,91.7,0.6c80.5-0.2,80.5-0.2,89,4.1c8.2,4.2,8.9,4.4,21.5,5.2c8.2,0.6,22.2,0.5,38-0.2c37.1-1.6,34-1.1,38.6-5.6
		c2.2-2.1,3.9-4.4,3.9-5s0.9-2,2-3s2-2.3,2-3c0-1.4,4.2-5.5,5.6-5.5c1.3,0,10.4-9.3,10.4-10.6c0-0.6,1.1-2.1,2.5-3.4
		c1.4-1.3,4.7-6.9,7.5-12.4c3.5-7.1,6.5-11.5,10-15.1c3.3-3.2,6.5-7.9,9.1-13.1c2.2-4.5,4.6-8.7,5.5-9.4c0.8-0.7,1.5-1.9,1.5-2.6
		c0-0.8,0.6-1.4,1.3-1.4c1.4,0,16.7-15,16.7-16.5c0-0.5,0.8-1.8,1.8-3c1-1.1,2.4-3.6,3.1-5.6c2.2-6.2,4.1-9.9,5.1-10.6
		c0.6-0.4,1.5-1.7,2-3.1c0.5-1.3,1.7-2.7,2.7-3c2.3-0.8,13.3-11.5,13.3-12.9c0-0.6,0.7-1.7,1.5-2.4s3.7-5.8,6.5-11.4
		c3.5-7.1,6.5-11.6,10.1-15.2c3.6-3.5,6.6-8,10-15s6.4-11.5,10-15s6.6-8,10-15c3.4-6.9,6.5-11.5,9.9-14.9c4.1-4,6.9-8.7,15-25
		c8.2-16.4,11-21,15.1-25.1c3.5-3.5,6.5-8,10-15c3.4-7,6.4-11.5,10-15s6.6-8,10-15s6.4-11.5,10-15s6.6-8,10-15c3.5-7,6.4-11.5,10-15
		c4.3-4.2,10-13.5,10-16.4c0-1.3,3-7,4-7.6c0.5-0.3,3.1-5.1,5.9-10.8c3.6-7.3,6.5-11.7,10.1-15.2s6.6-8,10-15s6.4-11.5,10-15
		s6.6-8,10-15s6.4-11.5,10-15s6.6-8,10-15c3.4-6.9,6.5-11.5,9.9-14.9c4.1-4,6.9-8.6,15-25c8.2-16.6,10.8-20.9,15.1-25.1
		c4.4-4.3,10-13.5,10-16.5c0-2,2.6-5.6,8.2-11.5c7-7.3,8.1-10.9,4.4-14.4C3999.5,2516.2,3991.4,2515.4,3985.7,2517.5"/>
</g>
<g id="Layer_6">
	<path class="st0" d="M2594.4,2656.4c-5.9,6-10.6,11.7-11.3,13.7c-2,5.5-5.3,12.3-7.1,14.5c-0.9,1.1-2.2,3.6-2.9,5.5
		c-2,5.6-5.3,12.3-7.1,14.5c-0.9,1.1-2.2,3.6-2.9,5.5c-2.3,6.3-6.1,13.8-7.5,15c-0.8,0.7-1.7,2.8-2,4.9c-2.3,14.8-4.1,20.7-7.6,24.7
		c-1.1,1.2-2.6,6.3-3.9,12.7c-1.3,6.9-3.1,12.5-5,16c-1.6,2.9-3.5,6.4-4.1,7.8c-0.6,1.4-2.1,4.5-3.2,7c-1.1,2.5-2.8,5.4-3.7,6.5
		s-2.2,3.6-2.9,5.5c-2,5.6-5.3,12.3-7.1,14.5c-0.9,1.1-2.2,3.6-2.9,5.5c-2,5.6-5.3,12.3-7.1,14.5c-0.9,1.1-2.2,3.6-2.9,5.5
		c-2.1,5.9-5.4,12.4-7.2,14.5c-1,1.2-2.6,6.4-3.8,12.5c-2.1,10.7-3.2,14-6.1,17.5c-0.9,1.1-2.2,3.6-2.9,5.5
		c-2,5.6-5.3,12.3-7.1,14.5c-0.9,1.1-2.2,3.6-2.9,5.5c-2.1,5.7-6.1,13.9-7.1,14.5s-5.9,10.9-5.9,12.3c0,1.3-3,7-4.1,7.7
		c-1,0.6-5.9,11-5.9,12.5c0,1.2-2,4.8-4.1,7.5c-0.9,1.1-2.2,3.6-2.9,5.5c-2.1,5.7-6.1,13.9-7.1,14.5s-5.9,11-5.9,12.5
		c0,1.2-2,4.8-4.1,7.5c-0.9,1.1-2.2,3.6-2.9,5.5c-2.1,5.7-6.1,13.9-7.1,14.5s-5.9,11-5.9,12.5c0,1.2-2,4.8-4.1,7.5
		c-0.9,1.1-2.2,3.6-2.9,5.5c-2,5.6-5.3,12.3-7.1,14.5c-0.9,1.1-2.2,3.6-2.9,5.5c-2.1,5.9-5.4,12.4-7.2,14.5c-1,1.2-2.6,6.4-3.8,12.5
		c-2.1,10.7-3.2,14-6.1,17.5c-0.9,1.1-2.2,3.6-2.9,5.5c-2,5.6-5.3,12.3-7.1,14.5c-0.9,1.1-2.2,3.6-2.9,5.5c-2,5.6-5.3,12.3-7.1,14.5
		c-0.9,1.1-2.2,3.6-2.9,5.5c-2,5.6-5.3,12.3-7.1,14.5c-0.9,1.1-2.2,3.6-2.9,5.5c-2,5.6-5.3,12.3-7.1,14.5c-0.9,1.1-2.2,3.6-2.9,5.5
		c-2,5.6-5.3,12.3-7.1,14.5c-0.9,1.1-2.2,3.6-2.9,5.5c-1.2,3.2-6.4,14.1-9.6,20c-0.7,1.4-3,5.9-5,10s-4.2,8.6-5,10
		c-0.7,1.4-2.4,4.8-3.6,7.5c-1.3,2.8-3,5.9-3.9,7s-2.2,3.6-2.9,5.5c-2,5.6-5.3,12.3-7.1,14.5c-0.9,1.1-2.2,3.6-2.9,5.5
		c-2,5.6-5.3,12.3-7.1,14.5c-0.9,1.1-2.2,3.6-2.9,5.5c-1.2,3.2-6.1,13.5-9.5,20c-0.7,1.4-2.4,4.8-3.6,7.5c-1.3,2.8-3,5.9-3.9,7
		s-2.2,3.6-2.9,5.5c-1.2,3.2-6.4,14.1-9.6,20c-0.7,1.4-3,5.9-5,10s-4.3,8.6-5,10s-3,5.9-5,10s-4.2,8.6-5,10
		c-0.7,1.4-2.4,4.8-3.6,7.5c-1.3,2.8-3,5.9-3.9,7s-2.2,3.6-2.9,5.5c-2,5.6-5.3,12.3-7.1,14.5c-0.9,1.1-2.2,3.6-2.9,5.5
		c-2,5.6-5.3,12.3-7.1,14.5c-0.9,1.1-2.2,3.6-2.9,5.5c-1.2,3.2-6.4,14.1-9.6,20c-0.7,1.4-2.5,5.1-4,8.2c-1.4,3.2-3.1,6-3.6,6.3
		c-1,0.6-5.9,11-5.9,12.5c0,1.2-2,4.8-4.1,7.5c-0.9,1.1-2.2,3.6-2.9,5.5c-3,8.4-5.8,12.9-12.1,19.5c-3.7,3.9-7.2,8.6-7.9,10.5
		c-2,5.6-6.1,13.9-7.1,14.5s-5.9,11-5.9,12.5c0,1.2-2,4.8-4.1,7.5c-0.9,1.1-2.2,3.6-2.9,5.5c-5.6,15.2-13.6,23.5-22.9,23.5
		c-4.4,0-11-3-11.8-5.3c-0.9-2.7-8.6-10.2-10.3-10.2c-2.4,0-5.2,3.6-9.4,12c-2.1,4.1-4.4,8.6-5.1,10s-3,5.9-5,10s-4.3,8.6-5,10
		s-2.5,5.1-4,8.2c-1.4,3.2-3,6-3.5,6.3c-1.9,1.2-7,13.3-6.3,15.1c1.1,3.3,8.7,10.4,13.4,12.6c3.8,1.8,6.9,2.2,20.6,2.7
		c16.1,0.5,16.1,0.5,24.5,5s8.4,4.5,24.9,5c14.6,0.5,17,0.8,20.8,2.8c2.3,1.2,6.1,3.2,8.5,4.5c3.3,1.7,6.7,2.3,15.8,2.9
		c11,0.6,11.9,0.8,20,5c8.5,4.3,8.5,4.3,25,4.9c14.5,0.5,17,0.8,20.7,2.8c13.6,7.2,11.6,6.7,29.3,7.2c16.6,0.5,16.6,0.5,24.9,4.9
		c8.1,4.2,8.6,4.4,21.9,5.3c7.8,0.6,24.8,0.7,39.6,0.4c27.9-0.7,31.9-0.2,38.4,4.4c7.4,5.2,9.5,5.5,41.6,5.7c30,0.1,30,0.1,37,3.7
		c11.8,6,12.7,6.1,50,6.2c34.1,0.1,34.1,0.1,40,3.7c9.5,5.8,11.8,6.2,43.9,6.3c31.8,0.1,28.3-0.5,41.2,6.5
		c5.9,3.2,20.4,4.2,52.2,3.9c25.5-0.3,25.5-0.3,30.5,2.5c13.9,7.7,10.7,7.2,44.5,7.3c30.5,0.1,30.5,0.1,38.5,4.1
		c4.4,2.2,9.3,4.4,11,4.8c1.7,0.4,18.3,0.9,37,0.9c34,0.1,34,0.1,38.5,2.5c12.3,6.7,11.7,6.5,28.8,7.5c12.1,0.7,19.2,0.6,27.5-0.4
		c12.9-1.5,17.8-0.6,28.3,5.2c5.9,3.2,5.9,3.2,27.9,3.8s22,0.6,30,4.9c6.1,3.3,9.7,4.5,15,5.1c5.8,0.7,9.5,2.1,21,7.9
		c8.1,4.1,15.3,7.1,17,7.1c4.9,0,15-11.1,20.8-23c3.2-6.6,6.2-11.1,9.7-14.5c3.3-3.2,6.5-7.9,9-13.1c2.2-4.5,4.6-8.7,5.5-9.4
		c0.8-0.7,1.5-1.8,1.5-2.4c0-1.4,4.2-5.6,5.6-5.6c1.3,0,8.4-7.3,8.4-8.6c0-0.6,1.1-2.1,2.5-3.4c1.4-1.3,4.6-6.6,7.2-11.9
		c3.5-7.1,6.4-11.4,11.5-16.7c3.8-3.9,6.8-7.8,6.8-8.6c0-2,4.8-11.4,6.5-12.8c0.8-0.7,1.5-1.7,1.5-2.4c0-0.6,2-3.2,4.5-5.6
		c3-2.9,6.2-7.9,9.5-14.5c3.4-7,6.4-11.5,10-15s6.6-8,10-15s6.4-11.5,10-15s6.6-8,10-15s6.4-11.5,10-15c3.3-3.2,6.5-7.9,9.1-13.1
		c2.2-4.5,4.6-8.7,5.5-9.4c0.8-0.7,1.5-1.9,1.5-2.6c0-0.8,0.6-1.4,1.3-1.4c0.7,0,4.7-3.5,8.8-7.8c6.3-6.5,8.5-9.7,13.2-19.3
		c4.1-8.5,7-12.9,10.7-16.5c3.3-3.2,6.5-7.9,9-13.1c2.2-4.5,4.6-8.7,5.5-9.4c0.8-0.7,1.5-1.8,1.5-2.4c0-0.6,2-3.2,4.5-5.6
		c3-2.9,6.2-7.9,9.5-14.5c3.4-7,6.4-11.5,10-15c3.3-3.2,6.5-7.9,9.1-13.1c2.2-4.5,4.6-8.7,5.5-9.4c0.8-0.7,1.5-1.8,1.5-2.4
		c0-0.6,2-3.2,4.5-5.6c3-2.9,6.2-7.9,9.5-14.5c3.4-7,6.4-11.5,10-15c3.3-3.2,6.5-7.9,9.1-13.1c2.2-4.5,4.6-8.7,5.5-9.4
		c0.8-0.7,1.5-1.9,1.5-2.6c0-0.8,0.6-1.4,1.3-1.4c1.6,0,14.7-13.1,14.7-14.7c0-0.6,0.7-1.7,1.5-2.3c0.8-0.7,3.7-5.8,6.5-11.4
		c3.5-7.1,6.5-11.6,10.1-15.2c3.6-3.5,6.6-8,10-15s6.4-11.5,10-15s6.6-8,10-15s6.4-11.5,10-15s6.6-8,10-15s6.4-11.5,10-15
		s6.6-8,10-15s6.4-11.5,10-15c3.3-3.2,6.5-7.9,9.1-13.1c2.2-4.5,4.6-8.7,5.5-9.4c0.8-0.7,1.5-1.9,1.5-2.6c0-0.8,0.6-1.4,1.3-1.4
		c1.5,0,15.3-13.7,17.3-17.1c0.8-1.3,1.9-3.5,2.6-4.9c0.6-1.4,2.7-5.7,4.5-9.5c2.1-4.4,5.3-8.9,8.4-12c4.3-4.2,10-13.5,10-16.4
		c0-2.3,3.5-7.2,9-12.6c6.1-6.1,6.9-7.9,4.7-10.5c-4.7-5.7-3.2-5.5-39.6-6c-33.6-0.5-33.6-0.5-42.2-4.8s-8.6-4.3-99.1-4.5
		s-90.5-0.2-99.9-5.2s-9.4-5-55.4-5.5c-42.7-0.5-46.3-0.6-50-2.4c-2.2-1.1-8.5-6.6-14-12.2c-9-9.3-10.9-10.7-19-14.4
		c-9-4.1-9-4.1-44-39.4s-35-35.3-45-40.1c-9.1-4.3-10.9-5.6-20.1-15.1c-9.1-9.4-10.9-10.8-19.6-14.8c-6.4-3-12.1-6.7-17.4-11.1
		c-4.8-4.1-10.8-8-15.4-10.1c-6.3-2.9-9.4-5.2-18.6-14.2c-10.7-10.5-11.3-11-26-18c-8.2-4-23.5-11.5-33.9-16.7
		c-15.9-8-20.2-9.7-27-10.8s-10.7-2.7-24.7-10c-14.2-7.3-17.9-8.8-25-10c-7.2-1.2-11.3-2.9-31.3-13c-23-11.6-23-11.6-38.8-27.3
		c-8.7-8.6-15.8-16.3-15.8-17c0-2-6.8-15.8-8.5-17.2c-0.8-0.7-1.5-1.8-1.5-2.4c0-1.4-15.1-16.6-16.5-16.6
		c-1.3,0-42.6-41.8-44.2-44.7c-0.7-1.2-1.2-2.7-1.2-3.2c0-2.9-5.4-12.1-9.4-16c-2.5-2.5-4.6-4.9-4.6-5.5c0-1.3-25.2-26.5-26.5-26.5
		c-2.2,0-27.1-26.6-29.2-31c-5.5-12.1-6.6-14-9.5-16.7C2606,2645,2605.2,2645.4,2594.4,2656.4"/>
</g>
<g id="Layer_5">
	<path class="st0" d="M2030.5,3731c-4.6,2-6.4,5.5-8.5,16.1c-2.1,11-3.2,14.1-6.3,17.6c-1,1.2-2.2,4.8-2.7,8
		c-1.6,11.3-3.8,18-7.3,22c-1,1.2-2.2,4.8-2.7,8c-1.5,10.1-2.9,14.8-6,20.4c-1.7,3-3.5,6.6-4.2,7.9c-1.8,3.9-7.9,16.2-9.4,19
		c-0.7,1.4-2.4,4.8-3.6,7.5c-1.3,2.8-3,5.9-3.9,7s-2.2,3.6-2.9,5.5c-1.2,3.2-6.4,14.1-9.6,20c-0.7,1.4-3,5.9-5,10s-4.3,8.6-5,10
		s-3,5.9-5,10s-4.2,8.6-5,10c-0.7,1.4-2.5,4.8-3.9,7.5s-3.8,7.5-5.3,10.5c-6.1,12.6-9.6,19.6-10.8,22c-0.7,1.4-3,5.9-5,10
		s-4.3,8.6-5,10s-3,5.9-5,10s-4.2,8.6-5,10c-0.7,1.4-2.4,4.8-3.6,7.5c-1.3,2.8-3,5.9-3.9,7s-2.2,3.6-2.9,5.5
		c-1.2,3.2-6.1,13.6-9.5,20c-0.7,1.4-2.8,5.6-4.6,9.5s-4,7.9-4.9,9s-2.2,3.6-2.9,5.5s-1.9,5-2.7,6.8c-1.3,3-1.3,3.5,0.6,5.8
		c2.7,3.4,9.1,8.4,10.8,8.4c0.8,0,2.4,0.6,3.6,1.2c3.2,1.8,12.7,11,12.7,12.3c0,0.6,6.7,7.7,14.9,15.8c13.9,13.7,15.6,15,24.2,19.1
		c10.9,5.1,12.5,6.5,24.8,20.8c12.3,14.3,23.6,24,33,28.4c4.1,1.9,8.6,4,10,4.7c1.4,0.6,11.3,10.1,22,21
		c19.5,19.8,19.5,19.9,30,24.9c8.9,4.3,11.4,6.1,16.5,11.6c3.3,3.6,12.2,12.8,19.7,20.4c13.3,13.3,14.1,14,24.4,18.8
		c10.6,5,10.6,5,30.3,24.9c19.6,19.9,19.6,19.9,30.2,24.9c9.4,4.5,11.2,5.8,16.5,11.8c21,24.3,29.8,32.1,43.1,38.4
		c10.2,4.8,10.2,4.8,29.5,24.5c19.2,19.6,19.4,19.7,29.5,24.6c8.6,4.1,11.3,6,16.5,11.6c3.4,3.7,12.4,12.9,19.9,20.5
		c13.1,13.2,14.1,14,24,18.6c10.3,4.9,10.3,4.9,71.3,65.9s61,61,65,69.6c2.7,5.7,6,10.5,9.8,14.5c4,4.2,7,8.8,10.2,15.5
		c3.8,8.1,6,11.1,14.2,19.6c5.3,5.5,10.1,10.1,10.7,10.1c0.6,0,2.3,1.2,3.8,2.7c2.8,2.6,2.8,2.6,4.9,0.8c1.2-1,3-3.8,4-6.1
		c1.1-2.3,2.4-4.5,3-4.9s1.5-1.8,2-3.1c0.5-1.3,1.7-2.7,2.7-3c2.2-0.7,17.3-15.4,17.3-16.8c0-0.5,0.8-1.9,1.8-3s2.4-3.6,3.1-5.6
		c2.2-6.2,4.1-9.9,5.1-10.6c0.6-0.4,1.5-1.7,2-3.1c0.5-1.3,1.7-2.7,2.7-3c2.3-0.8,13.3-11.5,13.3-12.9c0-0.6,0.7-1.7,1.5-2.4
		c0.8-0.7,3.3-4.9,5.5-9.4c3.3-6.8,5.7-9.9,14.5-18.6c5.8-5.8,10.5-10.9,10.5-11.4s0.8-1.9,1.8-3s2.4-3.6,3.1-5.6
		c2.4-6.5,4-9.7,5.5-11c0.8-0.7,1.5-1.8,1.5-2.4s2-3.2,4.5-5.6c2.9-2.9,6.2-7.8,9.2-14c3.5-7.1,6.4-11.4,11.5-16.7
		c3.8-3.9,6.8-7.8,6.8-8.6c0-3.2,7.3-15.6,12.3-20.7c4.4-4.5,7.2-9.3,15.1-25.1c7.9-15.9,10.6-20.5,14.7-24.5c3.5-3.4,6.5-8,9.9-15
		s6.4-11.5,10-15c3.3-3.2,6.5-7.9,9.1-13.1c2.2-4.5,4.6-8.7,5.5-9.4c0.8-0.7,1.5-1.8,1.5-2.4s2-3.2,4.5-5.6c3-2.9,6.2-7.9,9.5-14.5
		c3.4-7,6.4-11.5,10-15c3.3-3.2,6.5-7.9,9.1-13.1c2.2-4.5,4.6-8.7,5.5-9.4c0.8-0.7,1.5-1.8,1.5-2.4s2-3.2,4.5-5.6
		c3-2.9,6.2-7.9,9.5-14.5c3.4-7,6.4-11.5,10-15c3.3-3.2,6.5-7.9,9.1-13.1c2.2-4.5,4.6-8.7,5.5-9.4c0.8-0.7,1.5-1.8,1.5-2.4
		s2-3.1,4.5-5.5c3.4-3.4,6.8-9.1,14.5-24.5c8.2-16.4,11-21,15.1-25.1c3.4-3.4,6.5-8,9.7-14.5c3.5-7.1,6.4-11.4,11.5-16.7
		c3.8-3.9,6.8-7.8,6.8-8.6c0-3.2,7.3-15.5,12.3-20.7c3.5-3.7,6.9-8.7,9.7-14.6c3.2-6.5,6.2-11,11.2-16.1c3.7-3.9,6.8-7.8,6.8-8.6
		c0-3.2,7.3-15.5,12.3-20.7c3.5-3.7,6.9-8.7,9.7-14.6c3.2-6.5,6.2-10.9,11.2-16.1c3.7-3.9,6.8-7.8,6.8-8.6c0-3.2,7.3-15.5,12.3-20.7
		c4.3-4.5,7.2-9.4,15.1-25.1c7.9-15.9,10.6-20.5,14.7-24.5c3.5-3.4,6.5-8,9.9-14.9c3.4-7,6.4-11.5,10-15c3.3-3.2,6.5-7.9,9.1-13.1
		c2.2-4.5,4.6-8.7,5.5-9.4c0.8-0.7,1.5-1.8,1.5-2.4c0-0.6,2.1-3.2,4.6-5.6c5.1-5,11.2-16.7,12-23.2c0.5-4.2,0.5-4.3-6.8-11.4
		c-6.4-6.3-8.1-7.4-13.5-8.8c-3.4-0.9-7.3-1.6-8.6-1.6c-1.4,0-5.6-1.6-9.3-3.5c-10.5-5.4-12.4-5.7-34.4-6.4
		c-20.5-0.6-20.5-0.6-26.2-3.8c-9.5-5.3-11.8-5.6-42.8-5.7c-28.5-0.1-28.5-0.1-38.4-5.1s-9.9-5-46-5.5c-35.8-0.5-36.1-0.5-40.6-2.9
		c-13.2-7.1-9.4-6.6-43-6.6c-30.5,0-30.5,0-36-2.9c-14.6-7.8-9.6-7-50-7.6c-36.5-0.5-36.5-0.5-45.5-5s-9-4.5-39-4.5s-30,0-40-5
		c-9.9-5-9.9-5-44-5.1c-18.7-0.1-35.2-0.4-36.6-0.8c-1.4-0.4-6.1-2.6-10.5-4.9c-8-4.2-8-4.2-38.5-4.2s-30.5,0-36-2.9
		c-14.6-7.8-8.9-7-55-7.6c-41.5-0.5-41.5-0.5-49-4.5s-7.5-4-24-4.5s-16.5-0.5-26.2-5.4s-9.7-4.9-24.5-5.1
		c-15.8-0.3-18.6-0.9-26.7-5.9c-4.5-2.8-6-3.1-17.5-3.8c-10.8-0.7-13.3-1.2-17.6-3.5c-13.2-7.1-11.8-6.7-29.5-7.3
		c-16.5-0.6-16.5-0.6-24.8-4.9c-8.2-4.4-8.2-4.4-20.9-4.2c-14.9,0.2-23.9-1.2-27-4.1C2041.9,3730.6,2033.9,3729.5,2030.5,3731"/>
</g>
<g id="Layer_4">
	<path class="st0" d="M1849.4,4111.4c-2.8,2.9-5.6,6.8-6.3,8.8c-1.2,3.2-6.3,14-9.5,20c-0.7,1.4-3,5.9-5,10s-4.2,8.6-5,10
		c-0.7,1.4-2.4,4.8-3.6,7.5c-1.3,2.8-3,5.9-3.9,7s-2.2,3.6-2.9,5.5c-2,5.6-5.3,12.3-7.1,14.5c-0.9,1.1-2.2,3.6-2.9,5.5
		c-2,5.6-5.3,12.3-7.1,14.5c-0.9,1.1-2.2,3.6-2.9,5.5c-2,5.6-5.3,12.3-7.1,14.5c-0.9,1.1-2.2,3.6-2.9,5.5c-2,5.6-5.3,12.3-7.1,14.5
		c-0.9,1.1-2.2,3.6-2.9,5.5c-1.2,3.2-6.1,13.5-9.5,20c-0.7,1.4-2.4,4.8-3.6,7.5c-1.3,2.8-3,5.9-3.9,7s-2.2,3.6-2.9,5.5
		c-1.2,3.2-6.1,13.5-9.5,20c-0.7,1.4-2.4,4.8-3.6,7.5c-1.3,2.8-3,5.9-3.9,7s-2.2,3.6-2.9,5.5c-1.2,3.2-6.1,13.5-9.5,20
		c-0.7,1.4-2.4,4.8-3.6,7.5c-1.3,2.8-3,5.9-3.9,7s-2.2,3.6-2.9,5.5c-1.2,3.2-6.1,13.5-9.5,20c-0.7,1.4-2.4,4.8-3.6,7.5
		c-1.3,2.8-3,5.9-3.9,7s-2.2,3.6-2.9,5.5c-1.2,3.2-6.1,13.5-9.5,20c-0.7,1.4-2.4,4.8-3.6,7.5c-1.3,2.8-3,5.9-3.9,7s-2.2,3.6-2.9,5.5
		c-1.2,3.2-6.1,13.5-9.5,20c-0.7,1.4-2.4,4.8-3.6,7.5c-1.3,2.8-3,5.9-3.9,7s-2.2,3.6-2.9,5.5c-1.2,3.2-6.1,13.5-9.5,20
		c-0.7,1.4-2.4,4.8-3.6,7.5c-1.3,2.8-3,5.9-3.9,7s-2.2,3.6-2.9,5.5c-1.2,3.2-6.1,13.5-9.5,20c-0.7,1.4-2.4,4.8-3.6,7.5
		c-1.3,2.8-3,5.9-3.9,7s-2.2,3.6-2.9,5.5c-1.2,3.2-6.1,13.5-9.5,20c-0.7,1.4-2.4,4.8-3.6,7.5c-1.3,2.8-3.1,6-4.1,7.1
		c-1,1.2-2.2,4.8-2.7,8c-1.3,9.3-3.2,15.4-6.2,20.8c-1.5,2.8-3.3,6.2-4,7.5c-2,4.2-8,16.4-9.4,19c-0.7,1.4-3,5.9-5,10s-4.3,8.6-5,10
		s-3,5.9-5,10s-4.3,8.6-5,10s-3,5.9-5,10s-4.3,8.6-5,10s-3,5.9-5,10s-4.3,8.6-5,10s-5.2,10.4-10,20s-9.3,18.6-10,20s-3,5.9-5,10
		s-4.3,8.6-5,10s-2.5,5.1-4,8.2c-1.4,3.2-3,6-3.5,6.3c-1.9,1.2-7,13.3-6.3,15.1c1.1,3.2,8.7,10.4,13.1,12.4c3,1.4,6.4,1.9,12.1,1.9
		c9.1,0,15.9,1.8,25.1,6.6c6.5,3.4,6.5,3.4,24.7,3.4c20.1,0,23.3,0.6,35,6.5c6.9,3.5,7.1,3.5,19.8,3.5c13.8,0,24.7,1.9,28.2,5
		c2.5,2.2,10.6,5,14.4,5c3.9,0,13.1,3,15.6,5c3.4,2.9,9.1,5,13.4,5c5.5,0,16.1,3.5,20.1,6.6c1.5,1.2,8.3,2.9,15.6,3.8
		c4.2,0.6,10,3,11,4.6c0.3,0.5,2.6,1.8,5,2.9c3.3,1.5,6.5,2,13.3,2c9.4,0,18,2,21.7,5c3.9,3.2,8.2,4.3,19.5,5
		c11.1,0.7,11.8,0.8,20.5,5.4c8.4,4.4,9.4,4.7,16.8,4.7c8.8,0,20.2,2.4,23.2,4.9c3.9,3.2,8.1,4.3,19.5,5c11,0.7,11.8,0.9,19.5,5
		c9.8,5.2,14.1,5.8,50,6.6c17.6,0.4,27.9,0.2,34.6-0.7c11.4-1.5,15.4-0.8,26.9,4.7c6.7,3.2,8.7,3.7,19,4.4
		c11.5,0.8,17.3,2.2,20.7,5.1c4.2,3.6,9,4.9,18.2,4.9c10.3,0,20.1,2.6,25.1,6.6c0.8,0.7,5.1,1.9,9.5,2.8c10,2,14.4,3.5,17,5.6
		c2.1,1.7,10.9,6,12.3,6c1.3,0,7.1,3,7.7,4.1c0.3,0.5,2.6,1.8,5,2.9c3.7,1.7,6.5,2,18.3,2c14.4,0,22.3,1.5,26.7,4.9
		c7.4,5.8,25.9,8.7,39.3,6.2c5.6-1.1,15,1.1,22.2,5.2c5.4,3.1,5.8,3.1,22.5,3.8c17,0.6,17,0.6,29,6.8c6.6,3.4,12.7,6.2,13.6,6.2
		c0.9,0,2.4,0.9,3.3,2c1.1,1.2,4.8,2.6,9.4,3.6c11.6,2.5,18.5,4.6,20.2,6.1c3,2.5,6.5,1.6,10.8-2.9c2.3-2.3,4.1-4.8,4.1-5.4
		s0.6-1.6,1.4-2.3c0.8-0.6,37-72.4,80.5-159.4c90.4-180.7,82.4-162,75.2-177.3c-3.3-7-5.7-10.2-14.9-19.7
		c-9.5-9.8-11.5-12.6-15-20.1c-2.9-6.2-5.7-10.5-10-14.9c-4.4-4.6-7.2-8.8-10.7-16.2c-4.7-10-4.7-10-53.8-59.1s-49.1-49.1-59.8-54.3
		c-10.2-4.9-11.1-5.6-18.6-14.4c-9.6-11.2-25-26.1-31.3-30.4c-2.5-1.7-7.7-4.4-11.5-5.9c-6.5-2.6-8.3-4.1-28.4-23.9
		c-21-20.7-21.7-21.3-31.1-25.8c-9.1-4.3-10.1-5.1-17.9-14.3c-17.8-20.8-29.8-30.9-42.4-36c-6.6-2.6-8.2-4-27.9-23.6
		c-20.6-20.5-21.1-20.9-31.2-25.9c-9.8-4.8-10.7-5.6-18.9-15c-4.7-5.5-13.2-14.2-18.7-19.5c-8.7-8.3-11.5-10.3-20.7-14.7
		c-10.5-5-10.7-5.1-31.6-25.8c-20.5-20.3-21.2-20.9-30.7-25.4c-9.2-4.4-10.1-5.1-18-14.3c-17.9-21-29.1-30.5-42.4-35.9
		c-6.5-2.6-8.3-4.2-26.9-22.9c-20-20.1-20-20.1-31.6-25.8c-6.4-3.1-12.2-6.3-12.9-7.1c-0.7-0.8-1.8-1.5-2.5-1.5s-1.8-0.7-2.5-1.5
		c-0.7-0.8-1.5-1.5-1.9-1.5C1854.8,4106.1,1852.2,4108.5,1849.4,4111.4"/>
</g>
<circle class="st1" cx="635.9" cy="1095.5" r="129.8"/>
<circle class="st2" cx="635.9" cy="1458.1" r="129.8"/>
<circle class="st3" cx="635.9" cy="1820.7" r="129.8"/>
<text transform="matrix(1 0 0 1 848.5567 1120.4971)" class="st4 st5 st6">MULTI-PURPOSE BUILDINGS</text>
<text transform="matrix(1 0 0 1 856.6762 1500.7456)" class="st7 st5 st6">ROADS</text>
<text transform="matrix(1 0 0 1 867.7353 1863.3513)" class="st8 st5 st6">BRIDGES</text>
<text transform="matrix(1 0 0 1 506.1065 807.8931)" class="st9 st5 st10">PROJECT EXISTENCE INDICATOR</text>
<text transform="matrix(1 0 0 1 184.9765 346.1357)" class="st5 st11">Alubijid</text>
<text transform="matrix(1 0 0 1 1977.8866 2604.6484)" class="st5 st12">Poblacion</text>
</svg>
