<?xml version="1.0" encoding="utf-8"?>
<!-- Generator: Adobe Illustrator 27.1.0, SVG Export Plug-In . SVG Version: 6.00 Build 0)  -->
<svg version="1.1" id="Claveria" xmlns="http://www.w3.org/2000/svg" xmlns:xlink="http://www.w3.org/1999/xlink" x="0px" y="0px"
	 viewBox="0 0 5603.1 3971" style="enable-background:new 0 0 5603.1 3971;" xml:space="preserve">
<style type="text/css">
	.st0{fill-rule:evenodd;clip-rule:evenodd;fill:#9C14E4;}
	.st1{fill:#0B0BF9;stroke:#FFFFFF;stroke-miterlimit:10;}
	.st2{fill:#F9F912;stroke:#FFFFFF;stroke-miterlimit:10;}
	.st3{fill:#F70D34;stroke:#FFFFFF;stroke-miterlimit:10;}
	.st4{fill:#8800FF;}
	.st5{font-family:'ArialMT';}
	.st6{font-size:104.2573px;}
	.st7{fill:#7400EF;}
	.st8{fill:#7F00EF;}
	.st9{fill:#8703EF;}
	.st10{font-size:111.7042px;}
	.st11{font-size:200px;}
</style>
<g id="Layer_27">
	<path class="st0" d="M1671.6,408.4c-2.9,0.4-6,1.8-9.4,4.1c-2.8,2-6.8,4.1-8.7,4.6c-2.1,0.5-31.5,0.8-68,0.8
		c-71.7-0.2-64.4-0.8-75.6,6.5c-4.5,2.9-4.5,2.9-72.6,3.4s-68.1,0.5-73.2,4c-2.8,1.9-6.1,3.9-7.3,4.2c-1.3,0.4-14.1,0.7-28.4,0.6
		c-37.5-0.2-35.8-1.5-36,25.7c-0.2,20.6-0.8,17.8,7.1,30.7c1.7,3.1,1.8,5.2,2.3,83.6c0.5,80.6,0.5,80.6,4,86.2c1.9,3.1,3.7,7,4,8.6
		c0.2,1.6,0.6,29.2,0.7,61.3c0.2,64.6-0.6,57.1,7.7,70.7c1.8,3.1,1.8,4.8,2.1,81.2c0.1,43,0.5,79.5,0.7,81.2
		c0.2,1.6,1.8,4.9,3.6,7.3c5.6,8,5.4,3.9,5.4,124.5c0,122.9-0.7,109.9,6.1,121.3c2.8,4.7,2.8,4.7,3,35.8c0.1,17.1,0.5,32,0.7,33.2
		c0.7,3.3,5,8,9.2,10.2c3.1,1.6,6.2,2.2,15.5,2.6c6.8,0.4,12.6,1.2,13.9,1.9c1.3,0.7,5.4,4.4,9.4,8.2c4.9,4.7,8.5,7.4,11.2,8.4
		c3,0.9,10.7,1.4,27.4,1.5c19.3,0.2,23.9,0.5,26.7,1.8c4.4,2,8.8,2,13.4,0c2.3-1.1,7.6-1.9,14.9-2.2c10.2-0.6,11.7-0.8,15.7-3.5
		c2.5-1.5,7.1-4.4,10.2-6.4c4.7-2.8,6.3-4.6,9.6-10.1c4.6-7.9,12-15.2,17.7-17.4c2.8-1.2,6.1-1.4,11.4-1.3c6.5,0.2,7.9,0.8,12.4,3.7
		c6.7,4.4,10.8,4.5,17.1,0.2c2.5-1.6,6.1-3.5,7.9-4.1s6.1-2.8,9.4-4.8s8.3-4.7,10.9-5.8c2.8-1.1,6.5-3.1,8.6-4.4
		c5.9-3.9,10.7-4.7,27.6-4.2c15.7,0.2,15.7,0.2,21.3,3.7c3.1,1.9,7.7,4.2,10.4,5.4c2.8,1.2,6.9,3.4,9.3,5.1c6.4,4.2,17.3,9,21.1,9
		c4,0,14.7-4.7,22.1-9.7c4.8-3.2,6.5-3.9,10.7-3.9s5.7,0.6,9.9,3.5c6.2,4.6,10.7,4.8,16.2,0.9c2.1-1.4,6.4-3.7,9.6-5.2
		c3.2-1.4,7.5-3.5,9.4-4.7c5.6-3.7,9.9-4.4,25.7-4.4c12.6,0,15.5,0.2,18.6,1.9c2.2,1.1,10,8.2,18.2,16.7c8,8.2,16.2,15.7,18.1,16.7
		c4.4,2.1,7.1,1.6,13.6-2.5c4.9-3.2,4.9-3.2,26-3.7s21.1-0.5,25.7-3.3c10.2-6.1,9.4-5.9,26-6.5s17.8-0.8,22.6-4.5
		c5.6-4.4,8.9-5.2,21-5.3c12.2-0.1,13.9,0.2,23.5,6.4c2.5,1.6,5.7,2.5,10.6,3.1c4.2,0.4,8.3,1.4,10.4,2.7c2.1,1.2,5.4,3.1,7.6,4.4
		c3.2,1.9,5.7,2.4,14.2,2.7c5.7,0.2,11.7,0.9,13.5,1.4c1.7,0.6,6.3,4.1,10.3,8c4.2,4.1,8.7,7.7,10.9,8.4c2.2,0.8,7.7,1.4,13.6,1.4
		c8.5,0,10.2-0.2,11.9-1.9c2.3-2.2,2.4-3.9,0.7-12.3c-0.7-3.5-1.6-8-1.8-9.9s-1.9-5.8-3.7-8.2c-1.7-2.5-3.8-6.8-4.7-9.5
		s-3.2-7.4-4.9-10.4c-2.5-4.4-3.4-7.3-4.4-14.3c-0.9-7.3-1.7-9.8-5-15.3c-3.2-5.5-4-8-4.7-14.7c-0.7-6.6-1.6-9.1-4.4-13.8
		c-2.8-4.6-3.6-7.2-4.2-13.1c-1-9.1-1.5-10.8-4.1-14.6c-3.8-5.3-5.2-9.1-6-17c-0.7-6.4-1.5-9-4.2-13.4c-1.7-3.1-4.2-8-5.2-11.1
		c-1.1-3.1-2.8-6.5-3.7-7.7c-3.2-4.4-4.8-8.6-5.7-16c-0.5-4.1-1.5-8.5-2.2-10c-5.2-9.9-6.2-12.4-6.2-15.2c0-6.4-1.9-13.5-4.7-17.6
		c-3.7-5.3-4.5-7.7-5.5-16.4c-0.7-5.5-1.6-8.5-3.8-12c-1.6-2.6-3.9-7.4-5.2-10.7c-1.3-3.3-3.1-7.1-4-8.6c-1-1.4-4.8-9.2-8.5-17.3
		c-3.7-8-7.7-16.5-8.9-19s-5.5-11.2-9.3-19.4s-8.1-17-9.3-19.4c-1.3-2.5-3.7-7.2-5.2-10.7c-1.6-3.5-3.4-7.5-4.2-9.2
		c-0.7-1.6-4-5.8-7.2-9.3c-4.2-4.7-6.5-8.1-8.5-13.1c-1.4-3.7-3.3-7.9-4.4-9.3c-1-1.4-3.1-5.8-4.7-9.7c-1.5-3.9-4-9.1-5.5-11.4
		c-1.5-2.5-3.7-6.8-4.7-9.7c-1.1-2.9-2.8-6.5-3.9-8c-1-1.5-2.9-5.5-4.2-8.8c-1.3-3.3-3.7-8.5-5.5-11.4c-1.7-2.9-4.1-7.8-5.2-10.6
		c-1-2.8-2.8-6.5-3.9-8c-1-1.5-3.3-6.4-5-10.7c-1.7-4.2-3.7-8.5-4.4-9.4c-0.7-0.8-4.1-7.7-7.6-15.1c-3.4-7.4-7.6-16.3-9.2-19.4
		c-1.6-3.2-4.1-8.5-5.6-11.7s-3.6-7.4-4.6-9.2s-2.9-5.8-4.2-8.7c-2.2-5.1-4.2-9.4-8.6-17.9c-1.1-2.1-3.2-6.5-4.7-9.7
		s-3.3-7.2-4.2-8.7c-0.9-1.5-2.6-5.5-3.9-8.6c-1.6-3.7-4.6-8.1-8.7-12.7c-4.7-5.2-7-8.5-8.4-12.7c-1.1-3.1-3-7.2-4.1-9.1
		c-1.1-1.9-5.2-9.9-8.8-17.9c-7.7-16.7-9.2-19.7-12.6-25.7c-1.7-3.1-2.8-6.8-3.2-12.4c-0.7-6.4-1.5-9.1-4-13.5
		c-1.7-3.1-4.4-8.5-5.7-12.1c-1.4-3.5-3-6.8-3.4-7.1c-2.1-1.3-4.6-8.5-5.3-15.3c-0.5-4.1-1.7-9.1-2.9-11.1c-1.1-2-3-6-4.2-9
		c-1.3-2.9-3.2-7.1-4.4-9.2c-5.7-11.3-16.6-34-16.6-35c0-0.6-1.7-3.8-3.7-7.1c-2.1-3.3-3.7-6.4-3.7-6.7c0-0.8-10.3-23.1-13.6-29.3
		c-1.3-2.5-3.3-6.8-4.7-9.7c-5.6-12.7-6.4-14-11.1-17c-4.6-2.9-4.6-2.9-29.4-2.9C1687.1,408,1674,408.2,1671.6,408.4"/>
</g>
<g id="Layer_26">
	<path class="st0" d="M1623,1281.7c-1.9,0.5-5.3,2.2-7.5,3.9c-2.2,1.6-6.2,3.8-9.1,4.9c-2.8,1.1-7.1,3.3-9.4,4.8s-6.8,3.9-9.8,5.2
		c-3,1.3-7.7,3.9-10.4,5.8c-4.2,2.9-5.7,3.5-9.9,3.5c-4.2,0-5.7-0.6-10.3-3.9c-7.1-5.1-11.1-6.2-15.8-4.6c-3.1,1.1-4.1,2.1-7.1,8.1
		c-4.5,9-12.6,16.8-20.1,19.7c-3,1.2-7.6,3.5-10.2,5.4c-6.3,4.5-9.4,5.3-19.5,5.2c-9.5-0.2-11.1,0.2-17.1,4.1
		c-5.3,3.5-8.9,3.5-14.1,0.1c-2.2-1.4-4.9-3.1-6-3.5c-1-0.5-12.7-0.8-26-0.8c-28.1,0-26.7,0.2-36.9-9.9c-7.3-7.3-11-9.1-19.8-9.7
		c-12.3-0.8-16.3,3.9-11.1,13.1c4.1,7.2,4.2,7.8,4.8,20.6c0.6,12,0.7,12.3,4.1,17.7c4.4,6.8,5.2,10.4,5.2,22.3c0,9.2,0,9.2,4.5,17
		c4.4,7.7,4.4,7.7,4.8,20c0.5,12,0.6,12.4,3.9,17.9c4.5,7.5,5.4,11.7,5.5,22.7c0,9.2,0,9.2,4.5,17s4.5,7.8,4.6,28.9
		c0.2,22.7,0,21.8,6,31.6c3,4.9,3.1,5.7,3.7,17.4c0.6,12.4,0.6,12.4,4.5,19.1c3.3,5.8,4.1,8,4.7,14.8c0.7,6.7,1.5,9.1,4.2,13.8
		c3.2,5.5,5.2,12.5,5.2,18.8c0,1.9,1.7,5.9,4.4,10.7c4.4,7.5,4.4,7.5,4.9,20.4c0.6,12.7,0.6,12.8,4.1,18.3
		c4.4,6.8,5.2,10.4,5.2,22.3c0,9.2,0,9.2,4.4,16.8s4.4,7.7,4.9,20c0.5,12,0.6,12.4,4,18c4.2,7.2,5.3,11.8,5.4,23.2
		c0,8.6,0.1,8.8,4.4,16.4c4.4,7.5,4.4,7.5,4.9,20.4c0.6,12.7,0.6,12.8,4.1,18.3c4.4,6.8,5.2,10.4,5.2,22.3c0,9.2,0,9.2,4.5,17
		c4.4,7.7,4.4,7.7,4.8,20c0.5,12,0.6,12.4,3.9,18c4.2,7.2,5.3,11.8,5.4,23.2c0,8.7,0.1,8.8,4.5,16.5c4.5,7.8,4.5,7.8,4.5,28.6
		c0.1,22.6-0.1,21.7,6,31.7c3,4.9,3.1,5.7,3.7,17.4c0.6,12.4,0.6,12.4,4.7,19.6c4.2,7.2,4.2,7.2,4.7,19.4
		c0.6,12.4,0.6,12.4,4.7,19.3s4.1,7.1,4.7,19.4c0.6,12.4,0.6,12.4,4.7,19.4s4.1,7.1,4.7,19.4c0.6,12.4,0.6,12.4,4.5,19.1
		c3.4,5.9,4,7.8,4.6,14.4c0.6,6.5,1.1,8.5,4.7,14.6c3.4,6,4.2,8.2,4.8,15.1c0.7,6.6,1.5,9.1,4.2,13.5c4.1,7,5.2,11.8,5.2,22.9
		c0,8.6,0.1,8.8,4.4,16.4c4.4,7.5,4.4,7.5,4.8,19.9c0.6,12.4,0.6,12.4,4.5,19c2.4,4.1,4.2,8.8,4.8,12.4c1.7,10,4,12.7,19.6,24.1
		c11.1,8,26,16.7,33.4,19.4c2.8,0.9,6.2,2.7,7.7,3.9c1.6,1.2,6.2,3.5,10.2,5.2c9.3,4.1,13.9,8,24.5,21.2
		c10.6,13,19.3,21.9,24.3,24.5c2.2,1.2,6.7,2.2,11.1,2.6c6.3,0.6,8.4,1.3,13.6,4.5c3.3,2,7.2,3.8,8.6,3.8s5.5-1.6,9.2-3.7
		c6.7-3.7,6.7-3.7,27-4.1c20.2-0.5,20.2-0.5,25.7-4c3.1-1.9,7.7-4.7,10.4-6.2c3.7-2,5.6-4,7.3-7.2c3.7-6.8,4.7-7.8,13.1-11.8
		c5-2.5,9.8-5.8,13.6-9.7c4.1-4,8.4-6.8,13.9-9.7c5.6-2.7,9.9-5.7,14.1-9.8c3.3-3.3,7.7-6.6,9.5-7.4c1.8-0.8,8.1-1.8,14.1-2.1
		c6-0.4,11.8-1.3,13-1.9c1.3-0.7,5-3.9,8.5-7.2c4.8-4.7,9.5-7.7,21-13.7c10-5.2,15.5-8.7,17.1-10.8c1.4-1.8,4.6-7.4,7.1-12.6
		c4.7-9.5,4.7-9.5,4.7-29.5c0.1-12.7,0.5-21,1.3-22.9c0.6-1.6,7.7-9.7,15.8-17.9c18.2-18.6,19.5-20.9,20.1-36.4
		c0.5-10.7,0.5-10.7,6.7-23.8c5.7-12,6.9-13.9,15.1-22.9c10.7-11.5,12.2-13.4,15.5-22.3c3.6-9.3,11.5-17.4,20.4-21.2
		c10.6-4.4,18.6-11.5,22.8-20c1-2.1,2.3-7.4,2.8-11.8c0.7-6.2,1.5-9.1,3.7-12.8c4.6-7.7,4.6-10-0.1-18c-3.6-6.2-3.9-7.3-3.6-11.7
		c0.2-3.5,1.5-6.4,4.2-10.7c2.9-4.6,3.9-7.2,4.4-11.4c1.1-10.8,2.2-13.4,9.1-21.1c4.6-5.1,7.3-9.3,9.6-14.7
		c2.8-6.4,5.2-9.7,14.5-19.9c6.2-6.8,11.8-14,12.6-16c1.3-3.1,1.5-7.7,1.4-25.6c0-12-0.5-23.3-1-25.1c-0.6-1.9-2.5-5.8-4.5-8.6
		c-3.6-5.3-3.6-5.3-3.6-29.2c0-23.3,0.1-23.9,2.2-28.3c1.3-2.5,3.2-6.6,4.5-9.2c1.3-2.7,3.3-7,4.7-9.7s5.7-11.8,9.8-20.4
		c7.7-16.1,8.9-18.7,12.5-25.2c1.4-2.5,2.5-6.8,3.1-12.1c0.7-6.6,1.6-9.3,4.2-13.5c1.7-3.1,4-7.5,5-10.2s3.1-7,4.7-9.4
		c1.5-2.5,3.7-7.1,4.9-10.1c1.3-3.1,3.2-7.4,4.7-9.9c1.4-2.5,3.4-6.8,4.5-9.9s2.8-6.5,3.7-7.8c3.3-4.5,4.7-8.5,5.6-16.3
		c0.7-6.5,1.5-9,4.2-13.7c2.8-4.7,3.7-7.5,4.7-14.4c1.3-9.1,1.9-10.7,6.2-16.8c1.5-2.1,2.6-4.2,2.6-4.8c0-2.9,5.9-13.2,9.8-17.1
		c4.7-4.7,7.9-10.2,7.9-13.8c0-1.3-1.7-5.1-3.7-8.5c-2.1-3.5-4.2-7.9-4.7-9.7c-0.6-1.9-2.4-5.8-4.1-8.7c-1.7-2.9-3.6-6.8-4.1-8.8
		c-0.6-1.9-2.8-6.4-4.7-9.9c-2.1-3.5-4.5-8.5-5.5-11.3c-1-2.7-2.9-6.6-4.2-8.6c-1.4-2-3.3-6.4-4.7-9.8c-1.3-3.4-3.6-8.1-5-10.7
		c-1.5-2.5-3.7-6.8-4.7-9.7c-1.1-2.9-2.8-6.5-3.9-8c-1-1.5-2.9-5.5-4.2-8.8s-3.7-8.5-5.5-11.5c-1.7-3.1-3.9-7.4-4.7-9.7
		c-0.7-2.4-2.8-6.2-4.2-8.6c-1.5-2.5-3.8-7.3-5-10.6c-1.3-3.3-3.6-8-5-10.6c-1.5-2.5-3.7-6.8-4.7-9.7c-1-2.8-3-6.8-4.2-9
		c-1.3-2.1-3.2-6.1-4.2-9c-1-2.8-3.2-7.4-5-10.5s-4.1-7.7-5-10.4c-1-2.7-3.2-7-4.7-9.7c-1.6-2.5-3.6-6.8-4.4-9.7
		c-2.2-6.8-4.4-9.8-9.5-13c-4.2-2.6-4.9-2.7-20.6-3.2c-18.6-0.6-17.9-0.2-27.5-9.7c-8.1-8.1-10.1-8.8-22.9-9.1
		c-10.1-0.2-11.2-0.5-15.5-2.9c-9.2-5.5-10.8-6.1-17.6-6.8c-4.7-0.5-8-1.4-10.4-2.9c-11-6.8-10.6-6.7-20.4-6.7
		c-10.1,0-8.9-0.4-21.3,7.8c-2.6,1.8-4.6,1.9-18.7,2c-16.7,0.1-18.6,0.5-23.6,4.8c-4.9,4.2-9.8,5.1-27.5,4.6
		c-18.1-0.6-21.4,0-28,5.2c-5.3,4.2-9.9,5.5-14.8,4.1c-2.9-0.8-6.8-4.4-19.6-17.8c-9.9-10.2-17.4-17.4-19.7-18.5
		c-2.8-1.3-6.7-1.9-14.6-2.2c-12.6-0.5-19.5,0.8-24.1,4.4c-1.7,1.4-6.1,3.8-9.5,5.2c-3.4,1.4-8,4-10.2,5.7c-7.7,5.8-13.6,5.8-21.4,0
		c-5.5-4.1-9.8-4.6-14.1-1.5c-5.3,3.8-24.4,13.3-26.6,13.3c-1.1,0-7-2.7-13.1-6c-11.4-6.2-20.2-10.7-25.6-13.4
		c-1.7-0.8-5.2-2.8-7.7-4.4c-4.4-2.6-5.3-2.8-16.7-3.1C1631.9,1280.9,1624.9,1281.2,1623,1281.7"/>
</g>
<g id="Layer_25">
	<path class="st0" d="M4816.1,1348.7c-3.2,1.9-42.3,43.1-44.6,47c-1.3,2.1-3.1,6.4-4,9.2c-1.6,4.8-3.7,7.4-21.6,26.2
		c-10.9,11.4-20.4,21.7-21.1,22.9c-0.7,1.1-2.3,4.7-3.4,8.2c-2,6-2.9,7.1-20.5,25c-19.3,19.7-23.7,25.4-26.6,34.2
		c-1.6,4.8-3.7,7.4-22.7,27.7c-20.6,21.8-21.1,22.5-23.6,29.6c-2.6,7.3-2.8,7.4-25.1,30.3c-23.4,23.9-28,29.6-30.9,38.6
		c-1.6,4.9-3.9,7.7-31.2,36.4c-28.7,30.2-31.7,33.8-34.3,42.4c-0.8,2.8-11.1,14-45.2,49.5c-44,45.9-44,45.9-46.8,53.6
		c-2.6,7.8-2.6,7.8-50.4,57.7c-26.3,27.4-48.4,50.9-49.1,52s-2.3,4.7-3.6,8.1c-2.2,6.1-2.9,7.1-46.1,52
		c-43.9,45.7-43.9,45.7-46.6,53.5c-2.6,7.8-2.6,7.8-37.6,44.6c-35,36.9-35,36.9-37.6,44.2s-2.8,7.3-29.8,35.1
		c-15,15.3-28.7,30.2-30.5,33s-4.1,7.5-4.9,10.5c-1.6,4.9-3.6,7.3-25.6,30c-34.4,35.6-36.6,38.2-39.2,46.3
		c-2.2,6.6-2.3,6.7-34.5,39.8c-17.8,18.4-33.7,35.5-35.4,38.3s-4,7.4-4.9,10.4c-1.6,4.8-3.7,7.4-22.1,26.9
		c-13.9,14.6-21.5,21.9-23.6,22.6c-2.1,0.7-19.4,1.1-50.9,1.3c-52.9,0.2-46.8-0.6-59.8,8c-2.8,1.9-4.6,1.9-46.7,2
		c-40,0.1-44,0.2-47.3,1.9c-4.8,2.5-8.7,7.4-10.4,13.4c-0.8,2.8-2.9,7.4-4.6,10.5c-1.7,2.9-3.9,7.5-4.8,10.1
		c-0.9,2.7-2.9,6.8-4.4,9.1c-1.5,2.4-3.7,6.8-4.9,10.1c-1.3,3.3-3.2,7.5-4.6,9.7c-1.3,2-3.2,6.2-4.2,9.2c-1.1,3.1-3.2,7.4-4.7,9.7
		c-1.5,2.2-3.9,7.2-5.4,11s-3.3,7.7-4.1,8.5c-2.5,2.9-4.2,8.6-4.4,13.9c-0.1,6.1-1.6,10.8-4.9,15.6c-1.4,1.9-3.6,6.2-4.8,9.7
		c-1.3,3.4-3.3,7.8-4.7,9.8c-1.3,2-3.2,6.2-4.2,9.2c-1.1,3.1-3.2,7.4-4.7,9.8c-1.5,2.4-3.7,6.8-4.9,10.1c-1.3,3.2-3.4,7.9-5,10.4
		c-1.5,2.5-3.4,6.5-4.2,8.8c-0.8,2.5-2.9,6.8-4.7,9.7c-1.7,3.1-4.1,7.9-5.2,10.8c-1.1,3.1-2.8,6.5-3.8,7.9c-3,4-4.6,9-4.7,14.5
		c-0.1,6.1-1.6,10.8-4.9,15.6c-1.4,1.9-3.6,6.2-4.8,9.7c-1.3,3.4-3.3,7.8-4.7,9.8c-1.3,2-3.2,6.2-4.2,9.2c-1.1,3.1-3.2,7.4-4.7,9.8
		c-1.5,2.4-3.7,6.8-5,10.1s-3.2,7.5-4.6,9.7c-1.4,2.1-3.2,6.2-4.2,9.2c-1.1,3.1-3.2,7.4-4.7,9.7c-1.5,2.2-3.9,7.2-5.4,11
		s-3.3,7.7-4.1,8.5c-2.3,2.7-4.2,8.5-4.2,13c0,6.5-1.4,11.3-4.7,15.9c-1.6,2.4-3.9,6.8-5.2,10.1c-1.3,3.2-3.4,8-5,10.5
		c-1.5,2.5-3.4,6.5-4.2,8.8c-0.8,2.5-2.9,6.8-4.7,9.8c-1.7,3.1-3.9,7.4-4.7,9.7c-0.8,2.2-2.9,6.7-4.7,9.7c-1.8,2.9-3.9,7.4-4.7,9.7
		c-0.8,2.2-2.8,6.6-4.6,9.7c-1.7,3.1-4.1,7.9-5.2,10.8c-1.1,3.1-2.8,6.5-3.8,7.9c-3.1,4.1-4.6,9.1-4.6,14.6c0,6-1.5,10.5-5.2,15.4
		c-1.3,1.9-3.4,6-4.7,9.3s-3.6,8-4.9,10.6c-1.5,2.5-3.4,6.7-4.4,9.3c-0.9,2.7-2.9,6.8-4.4,9.1c-1.5,2.4-3.7,6.8-4.9,10.1
		c-1.3,3.3-3.2,7.5-4.6,9.7c-1.4,2.1-3.2,6.2-4.2,9.2c-1.1,3.1-3.2,7.4-4.7,9.7c-1.5,2.2-3.9,7.2-5.4,11s-3.3,7.7-4.1,8.5
		c-2.5,2.9-4.2,8.6-4.4,13.9c-0.1,6.1-1.6,10.8-4.9,15.6c-1.4,1.9-3.6,6.1-4.7,9.5c-1.1,3.4-3.6,8-5,10.6c-1.5,2.5-3.2,6.1-3.8,8
		s-2.6,6.1-4.4,9.2c-1.8,3.1-4.4,8.2-5.5,11.4c-1.3,3.1-3.4,7.8-4.9,10.1c-1.5,2.5-3.4,6.5-4.2,8.8c-0.8,2.5-2.9,6.8-4.7,9.7
		c-1.7,3.1-4.1,7.9-5.2,10.8c-1.1,3.1-2.8,6.5-3.8,7.9c-3,4-4.6,9-4.7,14.5c-0.1,6.1-1.6,10.8-4.9,15.6c-1.4,1.9-3.6,6.2-4.8,9.7
		c-1.3,3.4-3.3,7.8-4.7,9.8s-3.2,6.2-4.2,9.2c-1.1,3.1-3.2,7.4-4.7,9.8c-1.5,2.4-3.7,6.8-4.9,10.1c-1.3,3.2-3.4,7.9-4.9,10.4
		s-3.4,6.7-4.2,9.4s-2.6,6.4-3.9,8.2c-4.2,5.9-7.9,14.5-7.7,17.7c0.5,4.7,3.1,5.7,15.7,5.3c10.8-0.2,10.8-0.2,16.7-4.1
		c6-3.9,6-3.9,47.9-4c29.6-0.1,43.1-0.5,46-1.3c2.2-0.7,6.4-2.8,9.2-4.7c5.2-3.5,5.2-3.5,198.1-4.1c106.1-0.2,194.7-0.2,196.8,0.2
		c2.2,0.5,6.4,2.5,9.6,4.6c4,2.7,7.2,4.1,10.7,4.5c2.8,0.4,159.3,0.7,348.2,0.8c343.3,0.2,343.3,0.2,350.1,4.4
		c6.7,4.1,6.7,4.1,21.9,5.2c8.8,0.6,77.3,0.8,164.7,0.6c147.4-0.2,149.7-0.2,153.2-2.2c2.5-1.3,4.4-3.2,5.6-5.8
		c1.7-3.8,1.8-5.8,1.8-80c0-41.9-0.3-78.2-0.7-80.7c-0.5-2.7-2.2-6.8-4.7-10.6c-3.9-6.1-3.9-6.1-4.4-192.8
		c-0.5-186.8-0.5-186.8-3.2-191.7c-1.5-2.7-3.2-6-4-7.4c-1.1-2.2-1.4-22.9-1.5-139.7c-0.1-110.6-0.3-137.6-1.4-140
		c-0.7-1.5-2.8-5.2-4.6-8c-3.3-5.2-3.3-5.2-3.4-93.2c-0.1-65.9-0.3-88.8-1.3-91.4c-0.7-1.9-2.8-6-4.7-9.2c-3.6-5.8-3.6-5.8-3.2-80
		c0.1-40.9-0.1-81.5-0.6-90.4c-0.7-16.1-0.7-16.1-4.9-22.9c-4.1-6.6-4.1-6.6-4.6-101.3c-0.2-55.3-0.8-95.4-1.3-96.5s-2.3-4.1-4.1-7
		c-3.2-5.1-3.2-5.1-3.3-94.1c-0.2-97.5,0.2-90.5-6-100.1c-3.4-5.2-3.4-5.2-3.2-96.5c0.1-50.3-0.1-97.3-0.6-104.5
		c-0.7-11.8-1.1-13.7-3.2-17.4c-6.7-11.4-6.5-11.3-5.9-30.5c0.8-23.9-0.7-63.1-2.8-66.2C4820,1347.4,4818.8,1347.2,4816.1,1348.7"/>
</g>
<g id="Layer_24">
	<path class="st0" d="M2255.7,1599.9c-1.3,1.5-3.1,5.2-3.9,8c-0.8,2.8-3.1,7.4-4.8,10.1c-2.6,4.1-3.3,6.4-4,12.4
		c-1,9.2-1.5,10.8-4.2,14.7c-3.4,4.7-4.9,9.3-5,15.1c-0.1,6.2-1.7,11.3-5,15.8c-1.4,1.9-3.6,6.1-4.7,9.4s-3.2,7.7-4.6,9.7
		c-1.3,2-3.2,6.2-4.2,9.2c-1.1,3.1-3.2,7.4-4.7,9.8s-3.7,6.8-4.9,10.1c-1.3,3.2-3.6,8-5,10.5c-2.3,3.8-3,6.2-3.7,13
		c-0.8,8.5-1.6,10.6-5.3,15.8c-1.3,1.6-3.2,5.8-4.5,9.1c-1.3,3.4-3.6,8-5,10.6c-1.5,2.5-3.4,6.5-4.2,8.8c-0.8,2.5-3.1,7.2-5,10.7
		s-4.1,8-4.7,10c-0.7,2-2.5,5.8-4.2,8.5c-4.2,6.4-4.8,10.2-4.7,29.7c0.2,14.7,0.3,17,2.2,20.4c7.5,14.6,6.8,10.5,6.9,40.6
		c0.1,15-0.2,28-0.7,29.1s-2.1,4.1-3.7,6.8c-1.7,2.7-3.9,7.3-4.9,10.2c-2.2,6.4-3.9,8.1-10.7,11.5c-4.2,2.1-5.2,3.2-7.8,8.6
		c-1.7,3.7-5.6,9.1-9.4,13.1c-7,7.4-8.5,11-8.6,19.6c0,5.1-1.9,10.1-6.1,15.9c-3.2,4.7-2.9,7.5,1.7,14.6c3.4,5.3,3.9,6.8,3.9,11.2
		c0,3.2-0.7,5.9-1.7,7.4c-6.8,9.7-6.9,9.9-7.3,21.6c-0.3,9.2-0.8,11.9-2.9,16.6c-3.6,8-3.2,9.4,2.9,16.3c4.2,4.7,7.2,6.8,13.9,10.1
		c7.6,3.7,9.8,5.4,19.2,15.1c9.1,9.3,11.7,11.3,18.4,14.6c5.3,2.6,10,5.8,14.5,10.1c5,4.7,8.4,7,14,9.4c5.9,2.5,8.8,4.6,14.5,10
		c4.9,4.7,8.7,7.5,12.6,9.1c3.1,1.3,7.7,3.7,10.3,5.4c2.6,1.8,5.7,3.4,7,3.9c3.7,1.2,9.5,4.5,12.3,6.8c1.4,1.3,5.4,3.1,8.8,4.1
		s7.8,3.1,9.6,4.4c1.8,1.4,5.7,3.3,8.6,4.5c2.8,1.1,6.7,3.1,8.5,4.4c6,4.1,8.4,5.2,15.1,5.8c5.7,0.6,8.5,1.6,20.1,7.7
		c7.3,3.9,15,8,17.1,9.1s6.1,3.2,8.8,4.6c2.8,1.4,6.7,3.4,8.6,4.5c1.9,1.2,6.5,2.5,10.2,2.9c3.9,0.5,8.5,1.9,11,3.2
		c2.3,1.3,7,3.7,10.2,5.3s7.2,3.7,8.8,4.6c1.6,0.9,4.4,2.5,6.3,3.5c1.9,1.1,6.7,2.4,10.6,2.7c4.8,0.6,8.4,1.6,11.4,3.4
		c8.4,5.1,30.1,15.9,31.5,15.9c0.6,0,3.6,1.6,6.5,3.8c7.6,5.2,8.9,5.5,12.2,2.6c2.6-2.4,2.6-2.4,3.2-27.9c0.6-26.5,0.7-27.8,5-34.4
		c1.3-2,3-5.7,3.8-8c0.8-2.5,3.2-7.3,5.2-10.7c3-5.2,3.9-7.9,4.6-13.9c1.1-9.1,2.4-11.8,9.3-19.6c6.9-7.7,8.1-10.2,9.3-19.1
		c0.6-4.4,2.2-9.8,4.2-14.3c1.7-3.9,3.2-8,3.2-9.3c0-1.2-1.3-4.2-3-6.8c-1.6-2.6-3.9-7.3-5-10.4c-1.1-3.1-2.9-6.8-3.9-8.2
		s-4.8-9.2-8.5-17.3c-3.7-8-7.7-16.5-8.8-19c-1.3-2.5-5.4-11.2-9.3-19.4c-3.9-8.2-8.1-17-9.3-19.4c-1.3-2.5-5.4-11.2-9.3-19.4
		c-3.9-8.2-8.1-17-9.3-19.4c-1.3-2.5-5.4-11.2-9.3-19.4c-8.5-17.9-9.6-20.5-13-26.4c-1.7-3.2-2.8-6.8-3.3-12.6
		c-0.7-6.4-1.5-9.1-3.7-12.8c-1.6-2.6-3.9-7.4-5.2-10.6s-3.6-7.9-5-10.2c-1.5-2.5-3.6-6.7-4.7-9.4c-1-2.7-3.1-7.1-4.6-9.7
		s-3.4-6.8-4.4-9.7c-0.9-2.7-2.9-6.7-4.4-9.1s-3.7-6.8-5-10s-3.2-7.5-4.6-9.7c-1.3-2-3.1-6-4.1-8.8s-3.2-7.4-5-10.5
		c-1.7-3.1-4.1-7.7-5.2-10.5c-1-2.8-3-6.7-4.2-8.7c-1.3-2-3.3-6.4-4.7-9.8s-3.6-8.1-5-10.7c-1.5-2.5-3.7-6.8-4.7-9.7
		c-1-2.8-3-6.8-4.2-9c-1.3-2.1-3.2-6.1-4.2-9c-1-2.8-3.3-7.5-5.2-10.7c-1.8-3.2-3.9-7.4-4.7-9.7c-0.7-2.4-2.8-6.2-4.2-8.6
		c-1.5-2.5-3.8-7.3-5-10.6c-1.3-3.3-3.6-8-5-10.6c-1.5-2.5-3.7-6.8-4.7-9.7c-1-2.8-3-6.8-4.2-9.1c-1.3-2.1-3.2-6.4-4.4-9.5
		c-1.1-3.1-3.2-7.4-4.7-9.8s-3.8-6.8-5-10s-3.2-7.4-4.6-9.4c-1.3-1.9-3.2-6.4-4.6-9.7c-1.3-3.3-3.7-8.5-5.6-11.7
		c-2.6-4.5-3.6-7.3-4.2-13.3c-0.5-4.1-1.7-9.1-2.5-10.7c-4.1-7.9-7.7-15.7-7.7-16.7c0-0.6-1.3-2.5-2.8-4.1
		C2262.7,1596,2258.8,1595.9,2255.7,1599.9"/>
</g>
<g id="Layer_23">
	<path class="st0" d="M2075.1,2123.7c-6.5,3.4-7.1,4-10.2,10.1c-2.3,4.7-6.1,9.5-13.6,17.4c-5.7,6-10.9,12-11.6,13.3
		c-0.7,1.4-1.7,6-2.3,10.4c-1.1,8-1.6,9.3-6.5,18.3c-2.5,4.6-2.8,5.7-2.8,16c-0.1,6.1-0.5,12-0.8,13.1c-1.6,4.1-5.5,7.3-11.6,9.3
		c-5.2,1.9-7.2,3.2-13.8,9.9c-11.1,11.3-10.8,10.1-10.9,40.4c-0.1,23.3-0.2,26-1.8,29.1c-0.9,1.9-8.7,10.5-17,19.1
		c-16.3,16.8-16.3,16.8-27.9,18.3c-7.3,0.8-11,3.1-17.7,10.1c-3.1,3.3-6.7,6.5-7.9,7.3c-1.3,0.7-6,1.5-10.6,1.9
		c-6.9,0.6-8.8,1.2-12.4,3.5c-2.3,1.6-5.3,4.4-6.5,6.1c-4.1,5.7-8.8,8.4-16.3,9.3c-3.7,0.5-7.7,1.5-8.8,2.4c-1.3,0.8-3.3,4-4.7,7.1
		c-2.8,5.8-3.2,6.2-15.6,12c-2.8,1.3-7.2,4.9-11,8.7c-4.7,4.8-7.7,7.1-11.6,8.6c-2.9,1.2-7.8,3.7-10.8,5.7
		c-5.6,3.5-5.6,3.5-22.5,4.1c-9.2,0.2-27.3,0.2-40.1-0.2c-19.3-0.6-24.3-1.1-29.2-2.7c-3.2-1.1-6.8-1.9-7.9-1.9
		c-3.1,0-18.6-5.9-20.6-8c-2.9-2.7-15.1-6-16.7-4.6c-0.7,0.6-1.3,1.6-1.3,2.4c0,1.4,11.5,11.3,15.6,13.4c1.4,0.8,3.4,2.4,4.5,3.5
		c2.5,2.9,6.2,4.8,14.5,7.4c3.8,1.2,9.2,3.1,11.7,4.1c2.6,1.1,13.2,4.5,23.7,7.4c10.6,3.1,21,6.4,23.2,7.4c2.4,1.1,6.7,4.7,10.8,9.1
		c4.8,5.2,8.1,8,12.2,9.8c9.5,4.4,30.5,15.2,34,17.6c1.7,1.3,5,2.9,7.2,3.7s6.4,3.1,9.3,4.8c4.2,2.7,6.8,3.5,13.2,4.5
		c12.6,1.6,16.2,4.8,17.7,16c1.7,14,2.4,14.4,33.1,14.5c23.3,0.1,23.3,0.1,29.5,3.7c4.7,2.7,7.9,3.8,13.2,4.5
		c8.9,1.2,11.5,2.5,19.6,10.7c7,6.8,9.4,8,18.8,9.7c8.1,1.4,11.6,3.5,22.9,14.8c11.2,11.3,11.7,12.1,7.7,20.1
		c-1.3,2.6-2.3,5.7-2.3,6.6c0,2.9,3.1,5.1,8.8,6c7.2,1.3,8.5,1.6,14,5.3c2.6,1.8,6.7,3.9,8.9,4.8c2.3,0.9,5.2,2.4,6.2,3.1
		c1.3,0.8,6,9.7,11.4,21.2c8.1,17.1,10.1,20.5,14.3,24.6c6.5,6.5,10.9,8.6,19.7,9.9c8.8,1.3,13.8,4.1,19.3,10.8
		c7.1,8.7,12.5,9.7,19.4,3.2c7.9-7.4,8.4-16.5,1.4-27.8c-4.8-7.9-5.7-12-4.8-23.8c0.8-11.2,2.9-15.7,8.7-19.2
		c6.1-3.5,8.3-5.8,11.1-11.1c1.4-2.5,5.2-7.4,8.5-11.3c3.6-4,7.8-10.2,10.3-15.2c3.8-7.4,6.5-10.7,22.9-28.3
		c17.7-18.8,18.9-20,24.7-22.1c5-1.9,7.5-3.7,14.6-10.7c4.7-4.7,9.2-9.9,10-11.7c6.2-13.1,9.1-20.7,9.1-23.4c0-1.9-1-4.7-2.8-7.3
		c-1.6-2.2-4.9-8.8-7.6-14.6c-4.7-10.6-4.7-10.6-3.7-16.5c0.9-5.2,0.7-6.8-1-13.4c-2.9-10.6-2.2-16.3,3.6-27.6
		c4.5-8.8,4.5-8.8,4.1-28c-0.3-22.6-0.2-23.2,8.3-32.8c3.2-3.5,6.8-8.8,8-11.7c2.1-4.7,2.2-6.1,1.8-14c-0.3-8.2-0.7-9.7-4.8-18.1
		c-6.3-13.3-7.5-15.4-10.4-20.9c-2.8-4.8-2.8-4.9-3.2-25c-0.6-23.2-0.6-23.2-9.6-28.3c-6.8-3.9-8.1-5.9-9.2-14.5
		c-1.1-8.8-2.5-11-8.9-14c-3.2-1.4-7.7-4.8-11.4-8.5c-4.6-4.7-8.1-7.2-14.2-10.1c-5.9-2.8-9.9-5.7-14.5-10.1
		c-4.8-4.7-7.9-6.8-13.2-9c-6.1-2.5-7.9-4-17.7-14c-10.7-11.1-12.2-12.1-22.6-16.8c-3.2-1.4-8-4.9-12.2-9.1
		c-5.7-5.4-8.4-7.3-15.5-10.2c-4.7-2-9.4-3.7-10.3-3.7C2082.7,2120,2078.8,2121.7,2075.1,2123.7"/>
</g>
<g id="Layer_22">
	<path class="st0" d="M2527.4,2188.8c-3.6,2.2-11.2,11.9-13.1,16.3c-0.7,1.8-1.3,4.9-1.3,7.3c0,6.4-1.4,11.3-4.6,15.8
		c-1.6,2.4-4.1,7.2-5.5,10.8c-1.4,3.7-3.7,8.1-5,10s-2.8,4.4-3.2,5.8c-0.5,1.4-0.7,13.4-0.5,26.7c0.2,26.6,0.1,27.7-5.4,34.8
		c-1.6,2-3.6,5.8-4.2,8.5c-1.9,6.8-3,8.5-10,16.1c-3.6,3.8-6.9,8.1-7.5,9.7c-0.7,1.8-1.3,11.1-1.7,24.7c-0.6,21.9-0.6,21.9-3.9,27.2
		c-5.5,8.5-5.7,9.1-5.3,19.1c0.3,11.4,1.5,14,9.9,23.1c4.5,4.7,6.8,8.2,8.1,12c1.1,2.9,3.7,8.1,5.7,11.5c3.2,5.2,3.8,7,3.8,11.3
		c0,4.1-0.6,5.9-3.2,10c-1.7,2.7-4.2,7.7-5.6,11.1s-3.7,8-5.2,10.1c-4.2,6.2-4.7,11.1-4.5,39c0.2,25.3,0.2,25.3,2.8,27.8
		c1.7,1.9,4,2.7,8.8,3.5c4.2,0.7,8.5,2.1,12.2,4.4c6.9,4,10.7,4.1,15.6,0.8c5.2-3.3,8.7-3.1,16.1,0.9c5.4,3.1,7,3.4,12.8,3.4
		c8.6,0,16.2,1.4,19.2,3.7c1.3,0.9,3.7,4.2,5.2,7.4c3.9,7.8,5.6,8.5,21.9,9.4c17.3,0.9,100.5,0.9,118.9,0
		c14.1-0.7,14.1-0.7,20.5-4.7c3.6-2.2,8.3-4.7,10.6-5.5s6.1-2.8,8.4-4.4s7.2-4.1,11-5.8c8.4-3.5,12.2-7,37.5-33.8
		c14.1-15,21.6-22.1,25.4-24.4c4.4-2.5,6-4.2,9.1-9.7c2.8-4.7,7.3-10.1,17-19.7c18.6-18.4,25.9-27.3,29-35.5
		c1.7-4.7,4.4-8.8,8.9-14.3c4.5-5.2,7.2-9.5,8.8-14c1.3-3.5,3.4-8,4.7-9.9c3.9-6,2.8-11.2-3.1-12.6c-1.9-0.5-25.8-0.9-55.6-0.9
		c-28.7,0-53.2-0.1-54.5-0.1s-5.7-2.1-9.8-4.7c-7.5-4.7-7.5-4.7-64.4-4.7c-50.7,0-57.2-0.2-60.2-1.5c-3.7-1.8-6.5-5.4-8.1-10.7
		c-0.6-1.9-2.6-6.1-4.4-9.2c-1.8-3.1-4.2-8.2-5.6-11.4c-1.3-3.1-3.4-7.8-4.9-10.1c-1.5-2.5-3.7-6.8-4.7-9.5c-1-2.8-3-6.8-4.2-9.1
		c-1.3-2.2-3.2-6.4-4.4-9.5c-1.1-3.1-3.2-7.4-4.7-9.8c-1.5-2.4-3.8-6.8-5-10s-3.3-7.7-4.7-9.9c-1.3-2.2-3.4-6.6-4.6-9.7
		c-1.3-3.1-3.3-7.8-4.9-10.1c-1.5-2.5-3.7-6.8-4.7-9.7c-1-2.8-3-6.8-4.2-9.1c-1.3-2.2-3.2-6.4-4.4-9.5c-1.1-3.1-3.2-7.4-4.7-9.8
		c-1.5-2.4-3.7-6.8-5-10.1s-3.2-7.5-4.5-9.5c-1.3-1.9-3.3-6.4-4.7-9.7c-1.3-3.3-3.7-8-5.2-10.5s-3.8-7.4-5.2-11.1
		c-2.3-6.1-5.7-10.4-8.3-10.4C2530.9,2186.9,2529,2187.8,2527.4,2188.8"/>
</g>
<g id="Layer_21">
	<path class="st0" d="M951.2,2232.5c-1.4,0.5-4.1,2.1-6.1,3.7c-6.9,5.7-6.5,5.5-29.6,5.7c-14,0.1-22.1,0.5-23.4,1.2
		c-1.1,0.6-4.1,3.7-6.8,6.8c-5.8,7.1-11.4,9.8-15.9,7.9c-3.7-1.5-5.4-5.2-6.1-12.4c-1-10.6-2.8-13-9.6-13c-4.2,0-7.2,2.2-7.9,6
		c-0.2,1.3-0.6,15.1-0.7,30.9c-0.2,26.7-0.3,28.9-2.2,32.4c-1.3,2.4-3.3,4.6-5.6,5.8c-3.4,1.9-5.2,2-31.5,2
		c-15.4,0-28.9,0.4-30.1,0.8c-3.9,1.4-4.8,5.2-4.8,19.7c0,14.4-0.2,13.3,6.1,24.1c2.8,4.7,2.8,4.7,3.2,36.8c0.5,32,0.5,32,4,37.6
		c3,4.7,3.8,6.8,4.8,14.3c0.7,4.8,1.7,9.8,2.3,11c1.9,4,7.7,9.4,11.1,10.6c4.2,1.4,27.6,13.2,31.1,15.7c1.4,1.1,5.2,2.9,8.3,4.1
		c3.2,1.3,7.7,3.7,10.1,5.2c3.4,2.4,6.2,3.2,12.2,4c5.4,0.7,9.2,1.9,12,3.5c5.7,3.4,9.8,5.7,15.8,8.5c2.8,1.4,6.7,3.4,8.6,4.5
		c1.9,1.2,6.7,2.5,10.7,3.1c4.7,0.6,8.7,1.8,11.5,3.4c5.7,3.4,8.4,4.8,25.1,13.4c7.9,4.1,16.3,8.5,18.6,9.7s8.3,4.4,13.2,6.8
		c10.1,5.1,10,5.1,18.9,0c4.2-2.5,7.2-3.3,12.5-3.8c4.8-0.4,8.1-1.4,10.7-3.1c2.1-1.3,9.6-5.4,17-9.2c11.7-6.1,13.6-6.8,18.6-6.8
		c7.6,0,11.7-2.4,19.3-10.2c7.8-8.4,8.7-9.7,10.8-16.1c0.9-2.8,3-7.3,4.7-9.9c1.6-2.6,3.8-7.2,4.8-10.1c1-3.1,3.2-7.4,4.6-9.7
		c1.5-2.5,3.6-6.6,4.6-9.3s3.1-7,4.7-9.5c1.5-2.5,3.7-7.1,4.9-10.1c1.3-3.1,3.2-7.4,4.7-9.9c3.1-5.3,3.4-6.6,4.5-15.3
		c0.7-5.5,1.7-8.5,4.7-13.5c2.1-3.5,4.5-8.5,5.2-10.8c0.8-2.5,2.8-6.4,4.2-8.7c1.5-2.5,3.3-6.4,4.2-8.7c0.8-2.5,3.1-7.2,5.2-10.7
		s4.4-8.2,5.2-10.7c0.9-2.5,2.6-5.9,3.7-8c1.3-1.9,3.2-6.4,4.5-9.7s3.7-8,5.2-10.5c3.1-5.1,3.6-6.5,4.7-16.5
		c0.7-5.9,1.5-8.1,4.4-12.4c7.6-11.4,4.1-22.9-7.2-24.3c-4.1-0.5-4.1-0.5-12.6,9.2c-10.3,11.7-13.5,13.3-23.5,12.6
		c-3.9-0.2-7.7-1.3-9.6-2.4c-3.7-2.2-7.2-9.1-7.3-13.9c0-1.9-0.8-5.2-1.7-7.4c-1.4-3.3-2.5-4.2-5.4-5.2c-4.4-1.4-9.2-0.1-13.9,3.7
		c-1.7,1.3-5.9,3.5-9.3,5.1s-8.5,4.2-11.1,6.1c-6.1,4.2-10.2,4.8-27.8,3.8c-9.2-0.6-14.1-1.3-16.4-2.5c-1.8-0.8-7.7-6.2-13.2-11.8
		c-11-11.3-14.6-13.4-24.3-14.5c-7.9-0.8-8.8-1.3-16.5-8.8C966,2233.3,958.6,2230.2,951.2,2232.5"/>
</g>
<g id="Layer_20">
	<path class="st0" d="M2263.1,2240.1c-1.3,1.4-1.5,4.8-1.7,18.6c-0.2,17-0.2,17,6,30c3.4,7.2,7.6,15.6,9.2,18.4
		c2.8,5.3,2.8,5.3,2.5,28.3c-0.2,26.6-0.2,26.6-9.4,31.2c-8.7,4.4-8.6,4.1-8.7,32.4c-0.1,23-0.2,24.7-2.1,28.4
		c-6.7,13-6.2,11.3-4.2,15.8c3.8,9.7,4,10.7,3,16.7c-0.9,5.4-0.7,6.6,1.6,13.2c1.4,4,4.4,10.1,6.7,13.8c4.7,7.4,5.5,10.8,4.8,18.8
		c-0.7,7.4-2.4,10.7-10.6,19.6c-5.6,6.1-7.1,8.5-8.3,13c-2.1,7.3-5.2,10.8-10.7,12.6c-6.7,2-8.1,3.1-15,9.8
		c-3.7,3.8-8.5,7.3-12.2,9.1c-5.6,2.7-6.3,3.5-9.2,9.1c-1.7,3.3-5.9,9.1-9.2,12.8s-6.9,8.7-7.8,11.2c-4.5,11.3-5.5,13-10.8,15.7
		c-6.9,3.4-8.3,5.5-9.1,13.5c-0.8,8.7-3,12.3-9.9,15.7s-8.6,6-8,12.7c0.2,3.8,1.3,6.4,3.6,9.9c4.6,6.8,5.5,10.5,5.5,20.9
		c0,11.1-0.9,15.1-5.3,22c-2.8,4.5-3.2,5.7-2.4,7.9c0.8,2.5,2.1,3.4,9.9,8.5c1.7,1.1,4.2,4.1,5.7,7.1c3.2,6.4,4.9,7.4,13.3,9.3
		c3.7,0.8,7.9,2.1,9.5,3.1c3.8,2,7.6,1.9,13.4-0.6c4.1-1.8,6.5-2,14.8-1.9c11.1,0.2,12.8-0.2,18.8-5.1c4.2-3.4,5.6-3.9,13.9-4.9
		c5.4-0.8,9.3-4,12.3-10.1c1.3-2.6,6.5-8.8,12.3-14.8c8.3-8.5,11.4-11,17.3-13.9c9.1-4.5,12.7-8.4,15.5-15.8
		c1.1-3.2,3.7-8.8,5.6-12.5s4.6-8.7,5.7-11.3c2.4-5.1,4.1-6.4,12.2-9.3c3.6-1.4,7.3-4,12-8.4c3.8-3.5,9.6-7.8,13.2-9.7
		c10.2-5.2,11.7-6.7,15.8-15.9c3.2-7.2,5-9.7,12.3-17.2c4.7-4.7,11.5-12.1,15.1-16.3c7.9-9.1,9.5-9.4,18.9-3.9
		c5.9,3.4,6.7,3.5,14.1,3.5c15,0,15.1-0.2,15.3-38.8c0.1-29.1,0.1-29.1,4-35.9c2.2-3.7,4.6-8.5,5.2-10.7c0.7-2.1,2.6-6.4,4.2-9.7
		c1.6-3.1,2.9-6.5,2.9-7.4s-1.5-4.7-3.3-8.2s-4.2-8.8-5.2-11.8c-1.3-3.5-3.9-7.5-8.3-12.4c-4.9-5.7-7.5-9.5-11.1-17.6
		c-2.6-5.8-4.7-11.5-4.7-13s1.3-4.9,2.8-7.9c1.5-2.9,5.2-10,8-15.9c5.2-10.7,5.2-10.7,5.2-25.9c-0.2-18,0.3-19.9,7.8-28
		c4.2-4.6,5.2-6.2,5.2-9c0-4.9-2.9-8.1-9.2-10c-2.9-0.8-8-3.2-11.4-5.3s-7.8-4.4-10.1-5.2c-2.2-0.8-5.7-2.8-8-4.4
		c-4.5-3.2-10-4.8-16.5-4.8c-3.2,0-5.7-0.8-10.4-3.9c-3.3-2.1-8.1-4.7-10.7-5.8s-7-3.4-10.1-5.3s-6-3.5-6.5-3.5
		c-9.2-0.4-14.9-1.9-20.8-5.7c-3.4-2.1-8.1-4.7-10.3-5.4c-2.2-0.8-5.3-2.5-6.9-3.5c-1.6-1.2-5.9-3.5-9.5-5.2
		c-3.7-1.6-8.7-4.2-11.1-5.8c-4.7-2.9-9.8-4.2-15.6-4.4c-1.8,0-5.4-1.2-7.9-2.6C2266.7,2237.5,2265.8,2237.1,2263.1,2240.1"/>
</g>
<g id="Layer_19">
	<path class="st0" d="M1202.1,2272.3c-2.1,2.1-2.5,3.8-3.2,12c-0.3,4.5-1.3,6.8-3.7,10.7c-4.2,6.4-5.2,9.3-5.3,15.4
		c-0.1,6.1-1.6,10.8-4.9,15.4c-1.4,1.9-3.6,6.1-4.7,9.5s-3.6,8-5,10.6c-1.5,2.5-3.4,6.5-4.2,8.8c-0.8,2.5-2.9,6.8-4.7,9.8
		c-1.7,3.1-3.9,7.4-4.7,9.7c-0.8,2.2-2.8,6.6-4.6,9.7c-1.7,3.1-4.1,7.9-5.2,10.8c-1.1,3.1-2.8,6.5-3.7,7.7
		c-3.2,4.1-4.7,8.5-4.7,12.6c0,6.4-1.7,12.3-4.7,16.7c-1.5,2.4-3.7,6.7-4.7,9.8c-1.1,3.1-3.2,7.5-4.7,9.9s-3.7,6.8-5,10.1
		s-3.2,7.5-4.6,9.7c-1.4,2.1-3.2,6.2-4.2,9.2c-1.1,3.1-3.2,7.4-4.6,9.5s-3.7,6.6-4.9,9.9c-1.3,3.3-3.3,7.4-4.6,9.1
		c-4.7,6.7-4,10.1,3.1,13.9c3,1.5,8.4,6.4,14.7,13.1c9.2,9.7,10.7,11,18.9,15c6.5,3.1,10.7,5.9,15,10.1c4.2,4.1,8.5,7.1,13.9,9.7
		c5.9,2.8,9.4,5.3,14.1,10.1c4.8,4.9,7.7,6.8,12.6,8.8c3.4,1.4,8.1,3.8,10.6,5.4c8,5.5,12.2,3.3,13.9-7.4c1.3-8,3.1-11.1,9.6-17.6
		c5.3-5.2,8-6.5,17.3-8c7.1-1.2,11.8-3.9,19.8-11.4c3.8-3.5,8.1-6.5,11.6-8c3.1-1.3,6.7-3.1,8-4.1c1.4-0.9,6-3.5,10.2-5.7
		s9.9-5.1,12.4-6.5c6.7-3.9,11.7-3.7,18.7,0.8c6.7,4.2,11.1,5.3,15.7,3.8c4-1.4,5.5-4.1,6.9-12.4c1.4-8.2,3.6-11.1,11.1-14.3
		c8.6-3.5,10-4.7,26.5-21.4c17-17.3,16.7-17.2,34.5-17.3c11.7-0.1,11.7-0.1,18.6,4.2c7,4.4,7,4.4,28,4.8c19.6,0.5,21.2,0.6,24.2,2.6
		c10.6,6.8,8.8,6.5,31.8,7.1c21.1,0.5,21.1,0.5,27.1,4.4c5.5,3.5,6.7,3.9,13.4,4.1c6.2,0.2,8,0,10.4-1.6c3.3-2.1,2.9-1.5,13-19.4
		c4.6-8,9.8-15.9,13.9-20.5c23.6-27.1,36.5-43.7,39.1-50.8c1.6-4.2,1.6-4.6-0.1-8.1c-1.5-3.2-2.8-4.1-8.6-6.5
		c-6.2-2.5-7.9-4-17.7-14.1c-10-10.4-27.9-25.8-35-30.2c-1.6-0.9-6.2-2.5-10.3-3.3c-5.2-1.1-8.6-2.4-11.2-4.4
		c-2.2-1.5-7.1-4.4-11-6.4c-7.1-3.4-7.1-3.4-11.1-12.4c-4.6-10.1-10.7-17.9-17.2-21.9c-3.9-2.5-5.4-2.7-15.9-3.2
		c-12.3-0.6-13.1-0.8-23.1-7.3c-4.5-2.9-4.6-2.9-18.5-2.9c-13.6,0-14.1,0.1-18.1,2.6c-2.3,1.4-6.9,4-10.2,5.7
		c-3.3,1.6-7.2,3.7-8.8,4.6c-13.2,7.7-16.1,7.9-25.4,1.5c-4.8-3.3-6.8-4-12.2-4.5c-3.6-0.2-8.6-1.4-11.2-2.6
		c-9.2-3.8-10.8-3.1-23.6,10.7c-7.3,8-9.4,9.7-13.6,11c-2.8,0.9-7.6,3.3-10.6,5.3c-6.1,4.1-11.2,5.3-18.5,4.5
		c-6.9-0.8-9.6-2.9-20.9-14.8c-6.2-6.6-11.7-11.5-13.6-12.5c-2.6-1.1-6.9-1.4-17.1-1.4c-18.7,0-20.4-0.6-29.9-9.9
		c-4.2-4.2-9.2-8.4-11-9.1C1210,2269.6,1204.3,2270,1202.1,2272.3"/>
</g>
<g id="Layer_18">
	<path class="st0" d="M2920.7,2416.5c-2.9,0.8-6.1,4.1-8.6,9.5c-1.3,2.7-3.1,5.8-4,7.1s-2.6,5.1-3.7,8.5c-1.7,5.2-3.2,7.7-9.2,14.3
		s-7.7,9.2-9.8,15.2c-2.5,7.1-3.1,7.8-22.6,28.2c-11,11.4-20.3,21.6-20.9,22.3c-0.5,0.8-2.1,4.5-3.3,8.2c-3.7,9.8-12,18.5-21.7,22.3
		c-8.1,3.3-10.3,5.2-38.3,34.5c-18.5,19.4-20.5,21.2-25.6,23.2c-3.1,1.2-7.8,3.5-10.7,5.3c-2.9,1.9-7.1,4.1-9.4,4.9
		c-2.3,0.8-6,2.9-8.1,4.5c-2.2,1.5-5,3.2-6.4,3.8c-3.6,1.4-155.9,1.3-159.4-0.1c-1.4-0.6-5.4-3.8-8.8-7.3c-7.9-7.8-11.7-9.9-20.5-11
		c-3.8-0.5-8.5-1.6-10.4-2.5c-4.8-2.1-9.2-1.9-13.8,0.5c-5.7,3.1-11.1,2.2-18.2-2.7c-4.8-3.3-6.7-4-12.5-4.6
		c-4-0.4-8.9-1.6-11.8-3.1c-6.2-2.9-6.5-2.9-12.5,0.2c-4.2,2.2-6.2,2.7-14.7,3.1c-8.5,0.4-10.7,0.1-15.4-1.8
		c-8.5-3.2-12.8-3.5-16.2-0.9c-4.7,3.5-9.3,10.1-12.6,18.5c-3.1,7.7-3.8,8.6-17.9,23.2c-13.1,13.4-15.4,15.4-20.3,17.3
		c-8.6,3.3-9.3,3.8-17.6,12.7c-6.2,6.8-7.9,9.3-9.3,13.8c-0.9,3.1-3.1,7.7-4.7,10.2c-1.7,2.6-3.8,6.7-4.6,9.1
		c-3.7,11.3-4.9,12.3-17.6,14c-14.5,1.9-17.9,5.7-20,21.4c-2.1,15-4.7,17.2-22.1,17.3c-10.9,0.1-11.1,0.2-13.2,2.8
		c-3.1,3.8-2.9,8.8,0.6,15.3c1.5,2.8,3.8,7.5,5.2,10.6c2.4,5.4,3.3,7.3,8.1,16.3c2.8,5.1,2.8,5.1,2.8,41.7
		c0.1,20.1-0.2,37.7-0.7,39.1c-0.3,1.4-2.1,4.4-3.6,6.7c-1.5,2.4-3.7,6.5-4.6,9.2c-1,2.7-3.6,7.8-5.7,11.2c-3.9,6.4-3.9,6.4-4,26.7
		c-0.1,22.6-0.3,24.6-3.7,29.3c-3.3,4.7-5,9.3-5,14.6c0,8.4-1.5,11.7-8.7,19.1c-9.8,10.1-12.6,17.3-9.4,23.8
		c1.6,3.2,4.5,4.6,12.5,5.8c7.7,1.3,9.5,2.6,13.3,10c2.8,5.3,4,6.6,9.2,9.5c8.3,4.7,9.6,7.4,10.2,20.9c0.6,9.8,0.8,11.3,4,17.9
		c1.8,4,3.4,8,3.4,8.8s-1.8,5.4-4.2,10.2c-2.3,4.7-4.2,9.2-4.2,9.8c-0.1,2.6-5.6,7-11.9,9.5c-8.9,3.5-9.9,4.9-9.1,15
		c0.7,7.4,0.6,8-2.2,13.4c-2.8,5.3-2.9,6.4-2.9,16.1c0,11.4-0.6,13.5-5.2,20.6c-1.7,2.7-4.1,7.4-5.2,10.7c-1.6,4.6-3.6,7.4-8.7,12.7
		c-5.7,5.9-7.3,7.1-11.7,8.1c-5.3,1.4-13.6,0.8-17.2-1.1c-1.1-0.6-4.2-2.6-7-4.6c-4.2-3.1-5.7-3.5-10.3-3.5c-4.5,0-6.2,0.6-10.4,3.3
		c-4.2,2.8-5.7,3.2-9.6,3.1c-12.8-0.8-11.9-0.9-18.5,5.5c-6.2,6.2-7,6.6-16.1,7.5c-6.3,0.7-9.5,2.5-10.8,6.1
		c-1.3,3.7-0.2,7.5,3,10.4c2.8,2.5,2.9,2.5,21.6,2.5c20.8,0,19.4-0.2,31.1,7.3c4.5,2.9,4.5,2.9,25.6,3.4s21.1,0.5,26.6,4.1
		c3.1,1.9,7.6,4.1,9.9,4.6c6.2,1.4,61.6,2.4,81.7,1.3c9.5-0.5,19-0.5,21.2-0.1s6.4,2.4,9.3,4.1c2.9,1.9,7.2,4.1,9.5,5.1
		c2.3,0.9,6.2,2.9,8.6,4.5s6.8,3.2,9.8,3.8c10.9,2,13.5,2.9,18.4,6.2c4.2,2.9,6.2,3.5,13.2,4.4c7.2,0.8,9.2,1.5,14.7,4.9
		c3.4,2.2,8.1,4.4,10.2,4.8c5.9,1.3,80.6,2,99.8,1.1c19.3-1.1,23.4-0.5,29.2,4c8.5,6.4-1.8,5.9,142.6,6.1
		c131.8,0.2,131.8,0.2,137.2,3.7c3.1,1.9,7.7,3.9,10.6,4.5c3.2,0.6,31,0.8,75.2,0.7c70.2-0.2,70.2-0.2,77.7-4.5
		c7.3-4.2,7.3-4.2,93.1-4.1c53,0.1,87.9-0.2,91.3-0.8c3.7-0.7,7.7-2.4,12.2-5.2c6.7-4.1,6.7-4.1,45.3-4.1s38.7,0,43.2-2.5
		c5.9-3.1,9.3-7.3,11.4-13.8c0.8-2.8,3.2-8,5.2-11.4c1.9-3.4,4.2-8.2,5.2-10.7c0.9-2.5,2.8-6.4,4.2-8.7c1.4-2.5,3.4-6.8,4.6-9.7
		c1.1-2.9,3.2-7.4,4.7-9.8c1.5-2.4,3.8-7.2,5.2-10.5s3.3-7.7,4.6-9.7c1.3-1.9,2.9-5.5,3.7-8s3.1-7.2,5.2-10.7
		c3.1-5.2,3.8-7.7,4.5-14c0.8-7.4,2.2-11.5,5.7-17c0.8-1.4,2.3-4.4,3.2-6.8c0.9-2.5,3.2-7.2,5.2-10.7s4.5-8.6,5.6-11.5
		s2.8-6.4,3.7-7.8c0.9-1.4,2.8-5.3,4.1-8.7s3.7-8.2,5.2-10.7s3.7-6.8,4.7-9.8c1-2.9,3.2-7.3,4.7-9.7c1.5-2.5,3.3-6.4,4.2-8.7
		c0.8-2.5,3.2-7.2,5.2-10.7c3.2-5.4,3.8-7.7,4.6-14.5c0.7-6.6,1.5-9.1,4.2-13.7c1.7-3.1,3.9-7.4,4.7-9.8c0.8-2.4,3.1-7,5-10.5
		c2-3.5,4.2-8.2,5.2-10.7c0.8-2.5,2.8-6.4,4.2-8.7c1.5-2.4,3.6-6.6,4.6-9.3s3.1-7,4.7-9.5c1.5-2.5,3.7-7.1,4.8-10.1
		c1.1-3.1,3.2-7.5,4.7-10s3.2-6.4,4.1-8.7c0.8-2.5,3.1-7.2,5.2-10.7c3-5.2,3.8-7.8,4.7-14.5c0.7-6.4,1.7-9.4,4.1-13.5
		c1.7-3.1,3.8-7.4,4.7-9.8c0.9-2.5,3.2-7.2,5.3-10.7c2-3.5,4.2-8.2,5-10.6c0.8-2.4,2.6-6.4,4.1-8.7c1.4-2.5,3.3-6.4,4.2-8.8
		c0.8-2.5,3.1-6.8,4.7-9.7c1.7-2.9,4-7.8,5.2-10.7c1.1-2.9,3.2-7.3,4.7-9.7c1.5-2.5,3.3-6.4,4.2-8.7c0.8-2.5,3.2-7.2,5.2-10.7
		c2.9-5.1,3.9-7.9,4.6-13.7c1-8.1,2.1-11.4,4.7-15.6c1-1.5,2.9-5.3,4.2-8.5s3.4-7.8,4.9-10.1c1.5-2.4,3.7-7,4.8-10
		c1.1-3.1,3.2-7.4,4.7-9.9c1.4-2.5,3.3-6.6,4.4-9.3c1-2.7,3.1-7,4.7-9.5c1.5-2.5,3.7-7.1,4.9-10.1c1.3-3.1,3.3-7.5,4.7-10
		s3.2-6.4,4-8.7c0.8-2.4,3.1-7.1,5.2-10.6c3.1-5.2,3.8-7.7,4.5-14c0.8-7.4,2.2-11.5,5.7-17c0.8-1.4,2.3-4.4,3.2-6.8
		c0.9-2.5,3.2-7.2,5.2-10.7s4.4-8.2,5.2-10.7c0.9-2.5,2.6-6,3.8-8c1.3-2,3.1-5.9,4.1-8.7s3.6-8,5.5-11.3c2-3.5,4.2-8,4.9-10.1
		s2.6-6.1,4.2-8.8c1.6-2.7,3.6-6.8,4.4-9.2c0.8-2.4,3.1-7.2,5.2-10.7c3.2-5.4,3.8-7.7,4.6-14.5c0.7-6.6,1.5-9.1,4.1-13.4
		c1.7-3.1,4.1-7.7,5.2-10.4c1-2.7,3.2-7.2,4.7-9.9c1.6-2.7,3.9-7.5,5.2-10.7s3.1-7.2,4.2-8.8c1.1-1.6,3-5.5,4.2-8.7
		c1.3-3.2,3.6-7.9,5-10.4c1.6-2.5,3.7-7,4.7-10c1-2.9,3.3-7.8,5.2-10.7c3.6-5.9,6.1-12.7,6.1-16.1c0-4.1-2.2-4.8-15.7-4.8
		c-13.6,0-13.4,0.1-24.1-6.8c-4.8-3.1,0.9-2.9-88.8-3.4c-2.2,0-5.6-1.4-10.4-4.5c-7.2-4.5-7.2-4.5-97.4-4.7
		c-100.9-0.2-89.9,0.6-101.5-7c-4.5-2.9-4.5-2.9-202.5-3.1C3011.7,2416.2,2921.8,2416.3,2920.7,2416.5"/>
</g>
<g id="Layer_17">
	<path class="st0" d="M1637.9,2440.3c-3,3.3-7.2,9.1-9.2,12.7c-1.9,3.7-7.2,10.5-11.6,15.2c-8.4,9.2-13,16-16.6,24.6
		c-2.8,6.6-10.6,15.3-15.9,18c-5,2.5-17.2,3.5-25.9,2.1c-4.9-0.8-7.8-2-12.6-5.2c-6.2-4.1-6.2-4.1-26.6-4.1
		c-22.3,0-21.1,0.2-30.2-6.2c-5-3.5-5-3.5-26.6-4s-21.6-0.5-26.6-3.8c-2.8-1.9-6.2-4-7.7-4.7c-4.2-2.2-10.7-1.1-17,3.1
		c-3.1,1.9-8,4.5-11,5.7c-4.4,1.6-7.5,4.1-15.1,11.4c-11.8,11.5-15.4,16.3-18.6,24.5c-2.8,7.1-10.2,16.6-16.2,20.4
		c-5.2,3.4-15.3,3.2-23.7-0.4c-6.5-2.8-8.7-2.8-13.9-0.1c-1.4,0.8-5.7,1.8-9.8,2.4c-5.4,0.8-8.6,1.9-12.4,4.2
		c-2.8,1.8-7.2,4.4-10,5.8c-4.2,2.2-5.3,3.4-8.1,9.2c-3.9,7.9-6.9,9.8-14.6,9.8c-7.6,0-11.9,1.6-16.3,6.2c-5.7,6-6.1,8.1-5.7,41.2
		c0.2,25.8,0.1,29.1-1.4,32.3c-0.9,1.9-5.5,7.4-10.2,12.1c-11.1,11.1-13,13.4-16.2,21.4c-1.5,3.5-3.7,8.5-5.2,11
		c-1.4,2.5-3.4,6.8-4.6,9.9c-1.7,5.1-4.4,8-26,30.9c-13.2,14-24.3,26.4-24.5,27.7c-0.7,2.7,4.2,16,8.7,23.3c1.6,2.6,3.7,7.1,4.7,10
		s3.3,7.8,5.2,10.7c1.7,3.1,3.7,7.2,4.5,9.3c0.7,2.1,2.6,6.2,4.2,9c1.6,2.7,3.9,7.5,5.2,10.7c1.3,3.1,3.4,7.8,5,10.4
		c1.6,2.6,3.3,6.4,4,8.2s2.4,5.9,4.1,8.8s4,7.8,5,10.7c1.1,2.9,3.4,7.8,5.2,10.7c1.7,2.9,3.8,7.3,4.7,9.7c0.8,2.5,2.8,6.4,4.2,8.8
		c1.5,2.5,3.7,7.1,4.9,10.1c2.8,7.2,8.4,16.4,11.1,18.4c1.9,1.4,2.6,1.4,6.7-0.1c8.9-3.1,13.6-6.4,24.1-16.8
		c8.7-8.8,11.7-11.2,17.7-14c4.6-2.1,9.3-5.4,13.4-9.4c4.2-4,8.9-7.3,14-9.7c5.2-2.5,9.6-5.7,14.1-9.9c4.6-4.4,8.5-7.1,13-9.1
		c8.7-3.8,10.4-5.1,22.6-17.3c9.2-9.2,11.6-11.2,16.6-13.1c4.5-1.8,7.7-4,13.2-9.3c5.7-5.4,8.8-7.7,14-9.7c5-2,8.5-4.4,14.1-9.7
		c5.3-5.1,9.1-7.5,13-9.1c7.2-2.8,11.4-6,22.4-17.1c7.2-7.3,10.2-9.7,14.9-11.5c6.5-2.7,10.2-5.2,17.2-12.3c2.8-2.7,7.7-6,11.8-8
		c4.6-2.1,9.3-5.4,13.3-9.3c6.8-6.4,8.7-7.7,16.6-10.7c4.4-1.6,7.5-4.2,17.6-14.4c10.7-10.7,13.1-12.6,18.1-14.6
		c4.5-1.8,7.6-3.9,13.2-9.4c4-4,9.4-8.2,11.9-9.7c2.5-1.4,5.2-3.2,5.9-4.1c1.7-2.2,7.7-13.3,10.7-19.8c3.9-8.6,14.2-30.2,16.6-34.9
		c1.3-2.5,3.4-7,4.9-10.1c4.7-10,7.7-16.3,10.2-21.3c1.3-2.7,3.8-7.9,5.6-11.7c1.8-3.8,4-8.4,5-10.1s2.5-5.2,3.4-7.3
		c0.8-2.1,2.6-6,4-8.7c5.7-11.3,7.3-14.7,9.2-18.4c1-2.1,3.2-6.5,4.7-9.7c3-5.8,3-5.8,2.6-19.4c-0.3-14.4-0.6-15.2-6.2-24.7
		c-2.4-4.2-2.5-4.8-3.1-23.3c-0.5-14.7-0.9-19.8-2.2-22.9c-2.2-5.4-4.2-7.3-7.5-7.3C1643.8,2434.3,1642.2,2435.5,1637.9,2440.3"/>
</g>
<g id="Layer_16">
	<path class="st0" d="M1676.3,2448.5c-1.6,2-2.8,22.4-1.7,28.7c0.5,2.5,2.3,7,4.2,10.1c3.6,5.5,3.6,5.5,4.1,21.7
		c0.7,18.5,0.1,23.8-3.8,29.6c-1.5,2.4-3.7,6.8-4.8,9.9c-1.1,3.1-3.2,7.5-4.7,9.9s-3.7,6.8-4.9,10.1c-1.3,3.2-3.4,7.9-5,10.4
		c-1.5,2.5-3.4,6.5-4.2,8.8c-0.8,2.5-2.9,6.8-4.7,9.8c-1.7,3.1-3.9,7.4-4.7,9.7c-0.8,2.2-2.9,6.7-4.7,9.7s-3.9,7.4-4.7,9.7
		c-0.8,2.2-3.1,7-5,10.5s-4.1,7.9-4.7,9.8c-0.6,1.9-2.3,5.7-3.9,8.2c-4.6,7.4-9.2,18.7-9.2,22.4c0,4.9,3.9,8.7,9.9,9.4
		c10.7,1.4,14.6,2.5,18.8,5.8c6.2,4.7,6.8,4.8,19.7,5.4c11.5,0.6,11.7,0.7,17.2,4.1c3.1,2,6.7,3.5,7.9,3.5c5.3,0,11.2-6.2,14.6-15.1
		c1.4-3.9,4.7-7.8,16.7-20.4c14.7-15.1,15.1-15.8,19.7-25.7c4.5-9.7,5.2-10.7,17.4-23.3c14.6-15,17.9-19.4,21-27.7
		c1.8-5.1,3.8-7.5,15.4-19.4c15.1-15.6,18-19.4,21.4-28.6c1.6-4.1,4.1-8.6,7.1-12.1c2.5-3.1,4.6-6,4.6-6.7c0-3.7-8.4-10.4-17.7-14
		c-2.8-1.1-7.6-3.5-10.7-5.4c-3-1.9-7.5-4.1-10-5.1c-3.2-1.1-6.8-3.8-12.2-9.1c-4.2-4.1-9.2-8-11-8.8c-11.7-4.8-32-13.8-35-15.4
		c-1.9-1.1-7-2.6-11.1-3.5c-8-1.6-22.1-8.5-31.1-15.3C1681.4,2446.7,1678.3,2446.1,1676.3,2448.5"/>
</g>
<g id="Layer_15">
	<path class="st0" d="M790.7,2484.3c-1.4,2.1-1.6,7.3-1.7,45.9c-0.1,50.3-0.9,45.9,9.6,52.5c13,8,13.2,8,27.1,8.2
		c6.9,0.1,13.9,0.2,15.5,0.2s5.6,1.9,9.1,4c3.3,2.1,8.4,4.7,11.1,5.9c9.6,4,11.1,7,11.7,22.5c0.5,17.3,2.3,19.8,13.9,18.7
		c6.3-0.6,7-0.5,12.2,2.5c4.6,2.5,6.5,3.1,11.6,3.2c5.5,0.1,6.7-0.2,12-3.8c6-3.9,6-3.9,17.7-4.4c10.7-0.5,12.2-0.7,16.4-3.2
		c3-1.8,14.7-13.3,33.2-32.6c26-27.3,29-30.2,35.4-33.5c3.8-1.9,8.3-4.7,10.1-6c3.4-2.7,8.6-9.7,8.6-11.5c0-2.8-6.3-1.4-15.1,3.4
		c-7.2,4-9.7,4.8-15.4,5.2c-7.2,0.6-8.7,1.2-14.9,6.1c-3.6,2.8-4.9,3.3-9.1,3.3c-4.2,0-5.7-0.6-10.4-3.9c-3-2.1-7.7-4.7-10.2-5.8
		c-2.6-1.1-6.8-3.2-9.3-4.8s-6.7-3.8-9.3-4.8c-2.6-1.1-6.8-3.2-9.3-4.8s-6.7-3.8-9.2-4.8c-2.6-0.9-7.2-3.4-10.1-5.2
		c-4-2.5-6.9-3.5-11.1-4c-9.2-0.9-10.3-1.4-15.6-4.9c-2.8-1.9-6.9-4.1-9.2-4.9c-2.3-0.8-6.7-3.1-9.5-4.9c-5.8-3.7-10.3-5.1-16.6-5.1
		c-3.2,0-5.7-0.8-10.4-3.9c-3.3-2.1-8.3-4.7-10.9-5.8c-2.6-1.1-6.3-3.1-8.4-4.5c-1.9-1.4-6.7-3.8-10.2-5.3
		c-3.7-1.5-8.4-4.1-10.7-5.7C799.7,2481.4,793.2,2480.3,790.7,2484.3"/>
</g>
<g id="Layer_14">
	<path class="st0" d="M1839.2,2537.2c-2.2,1.9-4.2,5.8-6.5,11.4c-3.2,8.2-3.7,8.8-15.6,20.6c-15.1,15-18.6,19.4-21.8,28.4
		c-2.4,6.7-3.4,8-18.6,24c-15.3,16.3-16.2,17.3-18.6,24.3c-2.5,7-3.2,7.8-17.4,22.3c-15.1,15.3-15.9,16.4-21.8,31.1
		c-1.1,2.8-4.4,6.8-10,12.3c-9.9,9.7-12.7,13.5-16.1,21.8c-1.3,3.5-3.4,7.9-4.7,9.7c-1.3,1.9-3.3,6.4-4.7,9.7
		c-1.3,3.4-3.3,7.9-4.7,9.9s-3.2,6.2-4.2,9.2c-1.1,3.1-3.2,7.4-4.7,9.8c-1.5,2.4-3.7,6.8-5,10.1s-3.2,7.5-4.6,9.7
		c-1.3,2-3.2,6.2-4.2,9.2c-1.1,3.1-3.2,7.4-4.5,9.5c-4.2,6.5-9.3,19-9.3,22.9c0,4.6,2.4,7.1,10.2,10.1c3.2,1.4,7.5,3.4,9.2,4.7
		c4.7,3.1,6.2,3.7,13.6,4.6c6.3,0.8,8.9,1.9,17.4,7.2c2.5,1.5,5.7,2.5,10.7,2.9c5.9,0.6,8.4,1.4,14.6,4.7c4.1,2.2,8.9,4.7,10.7,5.4
		c1.7,0.7,5.4,2.7,8,4.6c3.7,2.5,6.7,3.5,12.6,4.6c4.4,0.8,9.6,2.4,11.9,3.4c5.7,3.1,7.7,2.5,9.2-2.9c2.2-7.8,10.7-24.5,14.9-29.3
		c6.2-6.8,10-8.5,23.3-9.3c11.1-0.8,11.4-0.8,17.1-4.8c3.2-2.2,7.9-4.8,10.4-5.8c8.1-2.9,11.9-7.4,18.9-22.3
		c6.2-13.2,6.2-13.2,6.5-23.8c0.5-14,2.3-17.7,10.8-20.7c6.8-2.5,13.1-8.7,15.6-15.6c3-7.9,4.6-10.1,15.5-21.7
		c7.9-8.5,10.2-11.7,13-17.9c2.8-6.4,5.2-9.5,13.6-18.8c8.7-9.5,10.8-12.4,14-19.4c3.2-7.1,5.2-9.9,14-19.6
		c8.9-9.7,10.9-12.4,14.2-19.9c2.8-6.1,5.9-11,10.3-16.1c6.2-7.2,11.5-17.3,11.5-22.1c0-3.7-4.1-7.1-15.6-13
		c-9.3-4.7-13.1-7.2-18.5-12.4c-7.2-7-11.2-8.7-19.8-8.7c-3.2,0-6-1.2-15.3-6.8c-4-2.5-4.2-2.5-26.8-2.5c-22.8,0-22.8,0-30.1,3.7
		c-6.7,3.5-7.5,3.7-10.6,2.6c-5.2-1.8-6.4-5.2-6.5-18.4c-0.1-10.7-0.1-11.1-2.8-13.4C1845,2533.5,1843,2533.6,1839.2,2537.2"/>
</g>
<g id="Layer_13">
	<path class="st0" d="M1082.7,2538.9c-1.3,0.9-12.6,12.4-25.1,25.6c-22.6,23.8-22.7,23.9-29.7,26.6c-6.8,2.6-7.5,3.2-25.3,21.7
		c-10.2,10.4-18.6,19.8-18.9,20.7c-0.2,0.9,0,2.5,0.7,3.3c1.7,2.2,6.9,1.2,13.2-2.9c6.8-4.2,10.1-4.8,27.4-4.4
		c11.7,0.2,14.2,0.7,17,2.4c5.9,3.5,6.8,5.9,7.7,19.1c0.8,13.3,0.9,13.9,5.2,20.6c4.7,7.4,5.4,12,4.7,29.9
		c-0.7,17.6-0.2,20.5,4.4,28c1.7,2.7,3.3,5.9,3.8,7c0.3,1.1,1,12,1.3,24.5c0.6,20.7,0.7,22.7,2.5,25.2c2.8,3.8,7.7,7.1,10.7,7.1
		c1.4,0,7.7-2.6,14.1-5.8c9.8-4.8,12.8-6.8,19-13c5.7-5.5,8.7-7.7,13.4-9.5c5.3-2,7.5-3.8,17.9-14.5c7.6-7.7,12.6-13.5,13.8-16.3
		c1-2.4,2.8-6.2,3.8-8.6c1.6-3.5,3.1-5.1,7.9-8c6.3-3.8,7.8-6.4,9.2-15.2c1-6.5,3-9.2,18.1-25.2c8.1-8.5,15.5-17.1,16.4-19
		c1.4-2.7,1.7-6,2.1-17c0.5-18.1,0.7-17.8-18.1-27.7c-10.7-5.7-15.6-8.8-20.2-13.2c-6.2-5.8-7.9-7-17.4-11.3
		c-3-1.4-8.1-5.2-12.3-9.1c-5.3-5.1-8.7-7.4-13.1-9.1c-5-1.9-7.3-3.8-16.6-13.1c-5.9-6-11.9-11.5-13.5-12.4
		c-9.2-5.2-16.7-8.5-18.9-8.5C1086.3,2537.2,1084.1,2538,1082.7,2538.9"/>
</g>
<g id="Layer_12">
	<path class="st0" d="M793.3,2603.3c-4.4,1.8-4.4,1.9-4.5,61c0,43.9,0.2,56.5,1.3,59.4c0.7,2,4.2,7.2,8.1,11.4
		c4.9,5.5,7.5,9.3,8.8,13.4c3.1,8.5,6.5,13.4,16.6,23.8c7.5,7.5,9.6,10.5,11.4,15.1c2.8,7.1,4.6,10,11.1,17.3c3.9,4.2,6,7.8,8,13
		c2.2,5.7,4.1,8.8,9.2,14.4c4.7,5.2,7.3,9.4,10.1,15.4c2.6,5.9,5.2,10,9.2,14.3c3.1,3.3,6.8,8.5,8.3,11.3c4.1,8,5.7,8.8,16.6,9.2
		c6.8,0.2,10.4,0.8,13.7,2.4c5.6,2.5,9.1,2.5,15.3,0.1c4.4-1.8,7.2-1.9,24.5-1.9c25.9,0,26.3-0.2,28.3-13c0.5-3.1,2.1-5.2,8.6-11.7
		c10.1-10,14.3-13,19.7-13.8c7.6-1.1,11.7-2.5,15.7-5.4c5.2-3.7,6.8-7.2,7.9-16.3c1.3-10.2,2.6-13.1,7.9-16.3
		c6.2-3.5,8.7-6.2,8.7-8.5c0-1.1-1.6-4.4-3.6-7.3c-3.6-5.2-3.6-5.2-3.9-27.7c-0.5-22.4-0.5-22.4-4.7-29.7s-4.2-7.3-3.9-23.3
		c0.3-22-0.5-27.6-5.4-34.8c-3.1-4.6-4.1-7.2-5-13c-0.7-4-1.7-8-2.2-9.2c-1.4-2.7-5.7-4.1-12.2-4.1c-7.2,0-11.8,1.5-16.6,5.4
		c-2.2,1.9-5.7,3.7-7.6,4.2c-1.8,0.5-15.9,0.8-32,0.8c-28.6-0.2-28.6-0.2-34.1,3.9c-9.2,6.7-17.4,7.7-28.3,3.2
		c-4.1-1.6-6-1.9-12.6-1.3c-7.8,0.7-7.8,0.7-17.7-9.9c-10.3-11.3-13.3-16.1-13.3-22c-0.1-9.1-5-18.6-11.1-21.3
		c-1.4-0.7-8.8-1.1-18.4-1.2c-15.9-0.1-15.9-0.1-21.4-3.5C796.7,2602.5,795.8,2602.3,793.3,2603.3"/>
</g>
<g id="Layer_11">
	<path class="st0" d="M1996.7,2635.8c-1.4,0.8-2.6,1.5-2.6,1.6s-1.5,3.9-3.2,8.4c-3,7.4-4.2,9.1-14.2,19.9
		c-10.1,10.7-11.2,12.4-13.6,19s-3.7,8.4-13.9,19.4c-10.2,11-11.6,13-14,19.4c-2.4,6.6-3.8,8.5-14.1,19.4
		c-10.3,11.1-11.6,12.8-14,19.4c-2.4,6.7-3.4,8.1-13.5,18.4c-6,6.1-11.6,13-12.6,15c-1.3,2.9-1.7,6.4-1.8,15.1
		c-0.2,13.2-1.3,16.1-8.8,23.9c-4,4.1-4.7,5.3-4.7,8.5s1.1,4.9,9.8,15.2c11.1,13.1,19.6,20.4,28,23.4c5.2,1.9,7.3,4,25.2,22.3
		c12.6,13,20.6,20.4,22.3,20.9c5.2,1.4,7.2-0.4,11.7-10c4-8.6,4.9-9.8,24-29.6c16.2-16.7,20.3-21.7,22.6-26.6
		c1.6-3.3,2.8-6.5,2.8-7.2s8.7-10.1,19.5-21.2c19.4-19.9,19.5-20,23.9-29.7s4.7-10,23.9-30.2c17.4-18.4,19.7-21.2,22.3-27.2
		c2.9-6.7,4.2-9.5,7.7-16c3.2-5.9,1.5-8.1-10.4-14.3c-7.7-4-11.7-5.3-16.7-6c-9.3-1.2-11.7-2.7-15.3-9.9c-1.8-3.5-4.2-6.8-6.1-8
		c-1.7-1.1-4.4-2.8-6-3.9c-4.9-3.2-6.2-6-7.2-15.2c-0.5-4.7-1.3-9.2-1.7-10.1c-1.3-2.5-15.6-16.8-18.1-18.4
		c-1.1-0.7-5.2-1.4-9.1-1.9c-4.1-0.4-8.8-1.6-11.7-3.1C2001.3,2633.8,2000.1,2633.8,1996.7,2635.8"/>
</g>
<g id="Layer_10">
	<path class="st0" d="M1600.9,2698.9c-0.7,0.2-2.9,1.9-4.7,3.4c-1.8,1.5-6.4,4.1-10.2,5.7c-5.3,2.2-8.1,4.2-13,9.2
		c-4.9,5.1-7.7,7-13.8,9.7c-8.8,3.8-13.3,7.4-22.4,17.9c-6.9,8-7.9,8.7-16.4,11.9c-4,1.5-7.2,3.9-12.6,9.1
		c-5.7,5.7-8.6,7.5-14.1,9.8c-5.6,2.2-8.3,4.1-13.9,9.7c-5.7,5.7-8.3,7.4-14,9.7c-6.3,2.5-8,3.8-18.6,14.6
		c-10.6,10.7-12.3,12-18.5,14.5c-5.3,2.1-8.3,4.1-14.1,9.8c-5.9,5.7-8.8,7.7-14.1,9.8c-5.4,2.1-8.1,4.1-13.8,9.7
		c-5.6,5.5-8.3,7.4-13.8,9.7c-7.6,3.1-12.4,6.8-22.4,18c-7,7.8-8,8.5-16.3,11.8c-4,1.5-7.2,3.9-12.6,9.1c-5.7,5.7-8.6,7.5-14.1,9.8
		c-5.7,2.2-8.3,4.1-14.7,10.4c-4.2,4.1-8.1,7.5-8.6,7.5s-3.2,0.9-6.2,2c-4.6,1.8-7.2,4-16.6,13.4c-7.9,8-12.6,12-15.8,13.5
		c-5.6,2.5-7.9,4.6-7.9,6.7c0,1.9,7.9,18,10.1,20.6c2.8,3.3,8.3,3.9,40.3,4c37.2,0.1,35.7-0.2,40.5,10.6c1.7,3.8,4.4,9.1,6,11.8
		c1.6,2.6,3.3,6.4,4,8.2s2.4,5.9,4.1,8.8c1.7,2.9,4,7.8,5,10.7c1.1,2.9,3.2,7.4,4.7,9.8c1.5,2.5,3.7,7.2,4.9,10.4
		c1.3,3.3,3.1,7.2,4.2,8.8c1.1,1.5,3.2,5.8,4.6,9.5c1.4,3.5,3.9,8.7,5.5,11.3s3.3,6.4,4,8.2c0.6,1.9,2.8,6.4,4.7,10
		c3.2,5.4,3.9,7.9,4.6,14.6c0.6,5.2,1.6,9.2,2.9,11.4c3.9,6.7,15.4,30.6,16.1,33.6c1.1,4.8,4.9,9.9,9.6,12.8
		c4.5,2.7,4.5,2.7,25.6,3.2s21.1,0.5,26.6,4.1c3.1,1.9,7.5,4.1,9.6,4.6c6.1,1.4,40.8,1.3,43.6-0.2c3.8-2,5.7-5.8,6.7-12.7
		c0.6-4.9,1.7-8,4.6-13c2.1-3.5,4-7.7,4.4-9.1c0.2-1.4,0.7-13.5,0.7-27.2c0.2-24.6,0.2-24.6,4.4-31.9c4.2-7.2,4.2-7.2,4.7-28.6
		c0.2-11.8,0.8-22.3,1.3-23.3c0.5-1.1,2.3-4.6,4.1-7.7c3.3-5.8,3.3-5.8,3.8-22.9c0.5-17.1,0.5-17.1,4.4-23.9c2.2-3.7,4.7-9.1,5.9-12
		c1.1-2.9,2.8-6.5,3.8-8c1-1.4,3.1-5.7,4.5-9.3c1.4-3.5,3.9-8.7,5.5-11.3c1.9-3.2,3.1-6.4,3.4-10.1c1-10,1.4-11.4,4.6-16.7
		c1.7-2.9,3.8-7.3,4.7-9.7c0.9-2.4,3.2-7.2,5.2-10.6c1.9-3.4,4.4-8.2,5.2-10.7c0.9-2.5,2.6-5.9,3.7-8c1.3-1.9,3.2-6.4,4.5-9.7
		c1.3-3.4,3.8-8.4,5.7-11.1c2.8-4.1,3.4-6.2,4.1-12.7c1-9,1.3-10.1,4.8-15.9c1.4-2.4,3.4-6.7,4.6-9.7c1-2.9,3.3-7.8,5-10.7
		c1.7-3.1,3.9-7.4,4.7-9.8c0.8-2.5,2.8-6.4,4.2-8.7c1.4-2.5,3.3-6.6,4.4-9.3c1-2.7,3.1-7,4.7-9.5c1.5-2.5,3.7-7.1,4.9-10.1
		c1.3-3.1,3.3-7.5,4.7-10c1.4-2.5,3.2-6.4,4-8.7c0.8-2.4,3.1-7.1,5-10.6c4.4-7.7,5-10.6,3.7-15.7c-1.4-5.4-4.6-6.6-16.4-6.5
		c-9.8,0.2-9.6,0.2-20.3-6.5c-2.6-1.6-5.7-2.5-10.7-3.1c-7.2-0.7-10.4-1.9-15.5-5.9C1607.6,2699.1,1603.2,2698,1600.9,2698.9"/>
</g>
<g id="Layer_9">
	<path class="st0" d="M2124.3,2735.9c-0.8,0.9-2.2,4.2-3.2,7.5c-1.6,5.5-2.6,6.8-22.1,27.2c-11.1,11.8-20.8,22-21.2,22.9
		c-0.5,0.8-1.9,4.4-3.3,8c-2.3,6.4-3.6,7.8-22.7,27.7c-20.2,21.1-20.2,21.1-23.3,29.3c-3.1,8.2-3.1,8.2-23.7,30
		c-20.2,21.2-20.8,22-23.3,29.1c-2.2,6-3.8,8.6-9.8,15.1c-7.2,8-8.4,10.2-8.4,17.8c0,5.7-1.7,10.8-5.5,16.1
		c-3.3,4.8-3.3,4.8-3.9,17.9c-0.6,13.7-0.9,15.2-5.7,21.3c-3.8,4.9-4.9,11.1-4.2,23s-0.3,18.8-3.4,23c-4.6,6.4-5.2,8.7-5.2,19.2
		c0,11.3-0.9,16-4.1,19.9c-4.4,5.4-5.2,8.5-5.2,18.4c0,10.7-1.1,15.9-4.1,20.1c-4.8,6.7-5.2,8.2-5.2,24.5c0,16.8-0.7,20-5.3,26.2
		c-3.6,4.7-4.9,10.6-4.2,18.4c0.7,8-0.1,12-3.8,17.7c-3.4,5.2-4,7.4-3,10.6c1,3.3,4.7,4.1,19.3,4.5c14.5,0.2,14.5,0.2,23.9,6.5
		c7,4.6,12.7,5.1,60.9,4.8c42.4-0.2,42.4-0.2,49.7,3.8c7,3.9,7.7,4.1,15.6,4.1c7.9,0,8.5-0.2,11.4-2.8c3-2.8,3.1-3.1,3.7-13.4
		c1-18.4,3.9-21.2,21.6-22.1c12.3-0.7,17-2.6,22.5-9.4c4.7-5.9,8.7-7.7,15.4-6.7c6.3,0.8,7.5,0.8,14.3-1.6
		c9.6-3.4,16.7-2.4,25.6,3.8c5.6,3.8,12.2,4.9,16.1,2.8c1.3-0.7,3.8-4,5.6-7.3s4.5-8,6.1-10.7c2.6-4.2,2.8-5.7,3.4-16.7
		c0.3-6.7,0.7-16.5,0.7-21.9c0.1-9.7,0.2-9.9,3.8-16.3c2.1-3.5,4.6-8.8,5.7-11.8c1.9-5.5,3.2-6.8,10.3-10.6
		c7.2-3.8,7.8-5.8,7.6-20.4c-0.3-15.1-1.9-20-9.2-27.7c-7-7.3-11.9-9.9-20.5-10.7c-15.4-1.6-16.6-4-16.3-29.2
		c0.3-21.3,0.8-23,8.1-27.3c6.8-4,8.3-6.4,9.5-14.5c0.7-5.2,1.9-8.5,5-13.8c4-6.8,4-6.8,4.5-28.3c0.5-21,0.6-21.6,3-26.2
		c1.4-2.6,5.6-11.2,9.3-18.8c6.8-14,6.8-14,6.7-44.6c0-33.2-0.2-34.3-5.5-43.7c-1.7-2.9-3.8-7.8-4.7-10.6c-1.1-3.5-3.4-7.2-6.9-11.1
		c-10.7-12-15.4-13.7-23.5-8.2c-5.4,3.5-9.5,3.5-15.3-0.5c-3.2-2.2-6-3.1-17.9-5.1c-2.2-0.4-5.3-2.6-10.3-7.7
		c-5.2-5.1-9.5-8.2-15.1-11c-4.7-2.4-9.3-5.5-11.5-7.9C2128.5,2733.8,2126.5,2733.3,2124.3,2735.9"/>
</g>
<g id="Layer_8">
	<path class="st0" d="M1126.7,2789.4c-0.7,0.5-2.4,3.1-3.7,5.5c-2.4,4.7-3.9,5.8-14.1,10.6c-1.3,0.6-4.4,2.5-6.9,4.1
		c-3.7,2.5-6.2,3.3-12.5,4c-4.8,0.6-9.2,1.8-11.7,3.1c-2.2,1.2-6,3.2-8.5,4.6c-6.2,3.1-7.7,4.7-10.4,10.4c-1.3,2.7-3.6,6.7-5.2,9.1
		c-1.5,2.2-3.6,6.6-4.6,9.7c-3.1,9.3-5.3,11-16.5,12c-14.5,1.4-19.6,6.7-20.6,21.6c-0.7,10.2-1.8,12.6-7.1,15.2
		c-3.6,1.8-5.7,1.9-30.7,1.9c-16.2,0-28.4,0.4-30.5,1.1c-1.9,0.6-5.5,2.4-7.8,3.9c-5.3,3.5-7.5,3.5-13.9,0.4
		c-6.2-3.1-8.7-2.5-8.7,1.9c0,1.8,0.7,4.1,1.5,5.3c0.8,1.3,2.5,4.9,3.7,8.2c1.3,3.3,3.7,8.5,5.4,11.3c1.7,2.9,3.9,7.5,4.8,10.1
		c3.2,9.1,9.5,17.9,12.7,17.9c2.4,0,6.3-2.4,9.2-5.3c4-4.5,5.4-4.7,22.4-5.3c16.3-0.5,16.3-0.5,23.3-4.8c6.9-4.4,6.9-4.4,18.6-4.8
		c8.4-0.4,12.5-0.9,14.5-2.1c9.9-5.7,14.1-7.5,16.5-7.5c2.8,0,7.2,1.9,10.8,4.9c4.1,3.3,7,3.2,15-0.5c6.7-3.1,8.5-3.5,18.1-4.1
		c14.7-0.8,17.3,0.1,26.6,9c5.7,5.5,8.7,7.5,14.1,9.7c5.4,2.1,8.1,4.1,13.4,9.2c8.1,8,10.8,9.5,19.7,10.7c5.3,0.7,8.7,1.9,13,4.4
		c3.2,1.9,7.1,3.4,8.6,3.4c3.1,0,9.8-4.1,13.3-8.2c1.3-1.4,4.6-4.4,7.2-6.5c6.7-5.2,7.3-7.4,4.4-14.3c-1.3-3.1-4-8-6.1-11.3
		c-1.9-3.2-4.5-8-5.5-10.8s-3.2-7.4-4.7-10.1c-1.5-2.8-3.4-7-4.2-9.2c-0.8-2.2-2.8-6.1-4.2-8.5c-1.6-2.5-3.9-7.1-5.2-10.2
		s-3.4-7.9-4.9-10.4s-3.2-6.1-3.8-8s-2.8-6.4-4.7-9.9c-2.1-3.5-4.5-8.5-5.5-11.3s-3.1-7.2-4.7-10c-1.5-2.8-3.4-7.1-4.4-9.5
		c-0.9-2.5-2.9-6.2-4.4-8.5c-1.5-2.4-3.8-6.8-5-10.1c-2.5-6.5-7.9-16.3-10.9-19.8C1129.8,2788.3,1128.8,2788,1126.7,2789.4"/>
</g>
<g id="Layer_7">
	<path class="st0" d="M1840.2,2861.6c-3.9,1.9-9.1,4.7-11.4,6.4c-3.7,2.7-5.2,3.2-12.5,3.9c-9.3,0.8-12.6,2.2-16.7,7.2
		c-3.2,3.9-4.8,8.7-4.8,15.3s-1.3,9.2-7.8,16.3c-7.5,8-8.9,11.1-10.4,21.7c-0.9,6.5-1.9,9.8-4,13.1c-6.7,10.7-6.9,15.1-1.4,24.4
		c3.6,6,4.1,10.7,1.6,14.6c-0.9,1.4-4.9,5.8-9.1,9.5c-4.1,3.9-12.5,12.4-18.6,19c-10.6,11.3-11.6,12-18.1,14.6
		c-6.4,2.5-7.8,3.5-18.2,14.1c-10.2,10.5-11.9,11.8-18.7,14.7c-14.2,6.1-24.5,17.9-24.5,28.2c0,9-1.7,13.1-8.8,20.9
		c-10,10.8-10.1,11.2-10.7,31.3c-0.7,20-1,21-9.6,25.2c-2.9,1.4-5.9,3.5-6.7,4.8c-1.7,3.1-2.9,24.5-1.5,28.7c1.3,3.5,4.9,6,9.4,6
		c4.7,0,10.1,1.9,14.5,4.9c7.2,5.2,7,5.2,44,5.8c35,0.5,35,0.5,39.6,3.9c8.6,6.2,8.3,6.2,50.4,6.4c38.2,0.1,38.2,0.1,45.1,4.5
		c6.9,4.2,6.9,4.2,22.9,4.7c20.4,0.5,20.8,0.4,27.1-11.3c6.8-12.5,7.1-13.4,7.8-26.2c0.7-11.8,0.7-11.8,4.7-19
		c4.1-7.1,4.1-7.1,4.6-23.6c0.6-17.8,0.1-15.7,6.7-28.7c1.6-3.1,2.2-6.4,2.6-15.8c0.7-11.9,0.7-11.9,4.7-19
		c4.2-7.2,4.2-7.2,4.7-19.4c0.6-12.4,0.6-12.4,4.7-19.4c4.2-7.2,4.2-7.2,4.7-24.1c0.5-17.1,0.5-17.1,4.7-24.3s4.2-7.2,4.7-19
		c0.6-11.9,1-13.7,6-22.9c3-5.4,3.2-13.2,0.5-19c-1.1-2.5-7.9-10.1-17.6-20c-14.8-15.1-15.9-16.1-22.6-18.7
		c-6.7-2.7-7.6-3.4-23.3-19.9c-8.9-9.4-18.1-18.5-20.4-20.1C1852.8,2857.5,1849.3,2857.5,1840.2,2861.6"/>
</g>
<g id="Layer_6">
	<path class="st0" d="M1633.7,2868c-2.6,1.1-4.7,4.2-6.3,10.2c-0.7,2.6-2.8,7-4.4,9.7c-1.7,2.6-3.9,7.4-5.2,10.6
		c-1.3,3.1-3.3,7.8-4.9,10.1c-1.5,2.5-3.7,7-4.7,10c-1.1,3.1-2.8,6.6-3.8,8c-3.1,4.1-4.6,9.1-4.6,14.6c0,6-1.5,10.5-5.2,15.4
		c-1.3,1.9-3.4,6-4.7,9.4c-1.3,3.4-3.3,7.8-4.7,9.8c-1.3,2-3.2,6-4.2,9.1c-1,2.9-3.3,7.4-5.2,10.1c-4.5,6.7-5.5,11.8-4.8,24.2
		c0.7,13.2-0.2,18.5-4.4,24.4c-1.7,2.5-3.7,6.4-4.1,8.5c-0.5,2.2-0.7,11.8-0.3,21.3c0.6,19.6,0.1,21.9-4.9,28.5
		c-4.7,6.2-5.4,11.3-4.8,35.6c0.6,23.1,0.2,26-4.7,33.1c-8,11.4-4.2,21.4,8,21.4c3.6,0,7.2,1.8,15.6,7.2c3.6,2.4,5.6,2.8,11.9,3.3
		c9.3,0.6,14.5-0.7,18.9-4.7c5.9-5.4,6.3-7.2,6.9-26c0.6-20.3,1.1-21.8,9.8-26.7c7.6-4.4,8.8-7.1,8.8-18.5c0-11.3,0.9-13.7,9.2-22.9
		c7-7.9,8-10.1,9.4-20.3c0.6-3.9,1.7-8.1,3.1-10.1c1.3-1.9,8.8-10.4,17.1-18.7c13.4-13.5,15.5-15.3,21-17.3c5.2-2,7.6-3.9,17.3-13.5
		c10.3-10.2,12-11.5,19.2-14.6c6.3-2.6,9.1-4.6,14.7-10.1c3.8-3.8,8.6-9,10.6-11.5c4.2-5.5,4.6-8.8,1.7-17.2c-2.1-6-2.4-17-0.9-25.3
		c0.6-2.9,2.6-8.6,4.7-13c4-8.4,4.4-10.6,2.4-15.7c-1.5-3.7-5.3-5.3-12.2-5.3c-2.2,0-5.5-0.9-7.9-2.4c-2.3-1.3-7.2-4-11.1-5.8
		s-7.8-4-8.8-4.6c-8.7-5.2-9.9-5.7-16.6-6.2c-4.9-0.4-8.1-1.3-10.7-2.8c-8.6-5.3-10.7-6.2-18-7.1c-6.3-0.8-8.6-1.5-13.8-4.8
		c-6.7-4.1-18.9-9.9-20.9-9.8C1636.4,2867.1,1634.9,2867.5,1633.7,2868"/>
</g>
<g id="Layer_5">
	<path class="st0" d="M1091.2,2950.2c-0.7,0.2-4,2.2-7.1,4.4c-9.3,6.2-17.7,6.7-29.1,1.9c-5-2.1-5-2.1-12.2,0.5
		c-6.3,2.4-8.6,2.5-21.6,2.7c-14.6,0.2-14.6,0.2-18.6,3.1c-9.9,7.2-8.4,6.8-25.5,6.8c-15.6,0-15.6,0-18.1,2.7
		c-2.4,2.5-2.6,3.2-2.5,11.2c0.1,10.7,1.8,15.1,10,24.4c4.5,5.2,6.7,8.6,8.7,13.8c1.9,5.2,4.1,8.6,8.8,13.9
		c4.2,4.7,7.5,9.5,10.1,15.1c2.2,4.5,4.8,10,6.2,12.1c1.6,2.7,2.5,6.4,3.2,11.9c0.7,6.5,1.5,9.1,4.1,13.4c1.7,3.1,3.6,6.5,3.9,7.8
		c0.6,1.9,12.2,26.2,16.6,34.6c0.8,1.5,2.8,5.8,4.4,9.2s4.7,9.8,6.8,14c3.6,6.8,4.4,7.9,7.7,9.1c2.3,0.8,6.2,1.2,10.4,0.8
		c5.9-0.4,7.5-0.9,13.5-4.7c6.8-4.2,6.8-4.2,29.4-4.4c12.4-0.1,24.1-0.4,26-0.8c1.9-0.4,6.5-2.5,10.1-4.7c6.5-4.1,6.5-4.1,32.1-4.6
		c25.7-0.5,25.7-0.5,32.6-4.8c6.9-4.4,6.9-4.4,36.8-4.8c28.7-0.5,30.1-0.6,33.8-2.7c12.8-7.1,9.4-6.5,35.6-6.5
		c25.9,0,26.8-0.2,34.1-6c1.8-1.4,6.5-3.8,10.4-5.2c6.1-2.1,7.2-2.8,7.5-4.8c0.5-3.7-1.3-8.8-5.6-15.7c-2.2-3.4-4.8-8.8-6.2-11.9
		c-1.3-3.1-3.4-8-4.9-10.7s-3.4-7-4.2-9.3c-0.8-2.4-3.2-7-5.2-10.1s-3.6-6.4-3.6-7c0-0.7-2.1-5.3-4.6-10.2s-5-10.7-5.7-12.7
		c-1.5-4.8-6.2-10.2-10.7-12.4c-3.2-1.5-6.3-1.6-30.3-1.2c-19.4,0.4-27.8,0.2-30.9-0.7c-3.3-0.9-6.3-3.4-15.6-12.7
		c-10.4-10.5-11.7-11.5-14.8-11.5c-3,0-4.2,0.8-9.2,5.9c-7.7,8.1-9.9,9-22.9,9c-11.1,0-15.6-1.3-22.1-6.1c-1.4-1.1-5.3-3.1-8.7-4.5
		c-4.4-1.9-8.3-4.6-13.6-9.5c-5.5-5.2-9.2-7.7-13.9-9.7c-4.7-1.9-8.4-4.5-14-9.8C1104,2950.5,1097.4,2947.8,1091.2,2950.2"/>
</g>
<g id="Layer_4">
	<path class="st0" d="M1351.9,3134.8c-1.4,0.5-4.1,2.1-6.1,3.7c-7,5.8-6.2,5.5-34,5.5c-25.8,0-25.8,0-31.3,4.1
		c-3.1,2.2-6.7,4.4-8.1,4.7s-15.7,0.8-31.7,0.8c-29,0.1-29,0.1-33,3.2c-8.7,6.8-7.3,6.5-33,6.7c-12.8,0.1-24.4,0.2-25.7,0.2
		c-1.3,0.1-5.2,1.9-8.4,4.2c-6,4.1-6,4.1-32.6,4.7c-26.6,0.5-26.6,0.5-32.5,4.6c-3.6,2.5-7.7,4.5-10.9,5.2
		c-7.7,1.6-8.8,3.5-6.9,10.7c0.6,1.9,1.3,8.5,1.7,14.6c0.7,10.7,0.8,11.3,4.2,16.7c3,4.7,3.7,7,4.8,14.4c0.7,5.2,2.1,10.1,3.2,11.9
		c4.6,7.5,5.7,10.6,6.5,18.1c0.7,6.4,1.5,9,4.2,13.4c4.1,7,5.2,11.8,5.2,22.9c0,8.6,0.1,8.8,4.2,16c3.6,6.2,4.2,8.5,5,15.1
		c0.7,6.5,1.4,8.8,4.4,13.8c3.4,5.8,5,11.1,5.2,17.6c0,2.2,2.5,8.4,7.2,17.9c3.9,8,7.7,16,8.6,17.8c6.9,14.6,18,37.6,20.2,41.8
		c2.5,4.9,6,8.2,12.4,11.9c4.2,2.5,6,6.8,6.8,18c0.3,5.4,1.4,11.2,2.2,12.6c0.7,1.5,3.6,4,6.3,5.5s6.3,3.8,8.1,5.1
		c6.7,4.7,15.3,1.4,19.6-7.3c0.6-1.2,1.4-7.8,1.7-14.6c0.7-12.3,0.7-12.5,4.5-19.1c2.1-3.7,4.2-8.2,4.8-10.1c0.6-1.9,2.4-5.7,4-8.2
		c4.1-6.7,5.4-12,5.4-22.1c0-9.1,0.7-11.5,6.4-21.8c1-1.9,2.1-5.8,2.4-8.7c1-10.1,2.2-12.6,8.9-20.1c4.8-5.3,7.3-9.2,10.2-15.3
		c2.5-5.8,5.4-10.1,9.3-14.6c4-4.5,6.8-9,9.4-14.6c2.6-5.9,5.2-10,9.2-14.3c4-4.2,6.7-8.4,9.2-14.4c2.6-5.9,5.5-10.4,9.8-15.2
		c4.2-4.7,6.7-8.7,8.1-12.7c4.4-11.8,12.2-19.6,24.5-24.7c6.2-2.6,7.8-4.1,31.7-28.7c13.8-14.3,26.6-27.2,28.1-28.9
		c1.6-1.6,3-3.9,3-4.9c0-1.2-2.5-7.2-5.7-13.4c-3.2-6.4-6.5-13.7-7.6-16.5C1371.6,3137.6,1361.2,3132,1351.9,3134.8"/>
</g>
<ellipse class="st1" cx="2895.4" cy="654.6" rx="93.9" ry="96.7"/>
<ellipse class="st2" cx="2895.4" cy="924.6" rx="93.9" ry="96.7"/>
<ellipse class="st3" cx="2895.4" cy="1194.7" rx="93.9" ry="96.7"/>
<text transform="matrix(0.9713 0 0 1 3049.3398 673.2002)" class="st4 st5 st6">MULTI-PURPOSE BUILDINGS</text>
<text transform="matrix(0.9713 0 0 1 3055.2129 956.3691)" class="st7 st5 st6">ROADS</text>
<text transform="matrix(0.9713 0 0 1 3063.2119 1226.3984)" class="st8 st5 st6">BRIDGES</text>
<text transform="matrix(0.9713 0 0 1 2801.6465 440.4048)" class="st9 st5 st10">PROJECT EXISTENCE INDICATOR</text>
<text transform="matrix(1 0 0 1 182.095 367.4438)" class="st5 st11">Claveria</text>
</svg>
