<?xml version="1.0" encoding="utf-8"?>
<!-- Generator: Adobe Illustrator 27.1.0, SVG Export Plug-In . SVG Version: 6.00 Build 0)  -->
<svg version="1.1" id="Claveria" xmlns="http://www.w3.org/2000/svg" xmlns:xlink="http://www.w3.org/1999/xlink" x="0px" y="0px"
	 viewBox="0 0 4800 3460" style="enable-background:new 0 0 4800 3460;" xml:space="preserve">
<style type="text/css">
	.st0{fill-rule:evenodd;clip-rule:evenodd;fill:#9C14E4;}
</style>
<g id="Layer_27">
	<path class="st0" d="M1151.9,135c-3.1,0.4-6.4,1.8-10.1,4.3c-3,2.1-7.3,4.2-9.4,4.7c-2.2,0.5-33.8,0.9-73,0.8
		c-77-0.2-69.1-0.8-81.1,6.7c-4.8,3-4.8,3-77.9,3.5c-73.1,0.5-73.1,0.5-78.5,4.1c-3,2-6.5,4-7.9,4.4c-1.4,0.4-15.1,0.7-30.5,0.6
		c-40.3-0.2-38.4-1.6-38.6,26.5c-0.2,21.3-0.9,18.3,7.6,31.7c1.9,3.1,2,5.3,2.5,86.2c0.5,83.1,0.5,83.1,4.3,88.9
		c2.1,3.2,4,7.2,4.3,8.9c0.3,1.7,0.6,30.1,0.7,63.1c0.2,66.5-0.6,58.9,8.2,72.9c2,3.1,2,5,2.2,83.6c0.1,44.3,0.5,81.9,0.8,83.6
		c0.3,1.7,2,5.1,3.8,7.5c6,8.2,5.8,4,5.8,128.4c0,126.6-0.7,113.3,6.5,125.1c3,4.9,3,4.9,3.2,36.9c0.1,17.6,0.5,33,0.7,34.2
		c0.8,3.4,5.4,8.2,9.9,10.6c3.3,1.7,6.6,2.3,16.6,2.7c7.3,0.4,13.5,1.2,14.9,1.9c1.3,0.7,5.8,4.5,10.1,8.5c5.3,4.9,9.1,7.6,12.1,8.6
		c3.2,1,11.4,1.4,29.4,1.6c20.7,0.2,25.6,0.5,28.7,1.8c4.7,2.1,9.5,2.1,14.4,0c2.5-1.1,8.1-1.9,16-2.3c11-0.6,12.5-0.9,16.9-3.6
		c2.7-1.6,7.6-4.5,10.9-6.5c5.1-2.9,6.8-4.7,10.3-10.5c4.9-8.1,12.9-15.7,18.9-18c3-1.2,6.5-1.5,12.2-1.3c7,0.3,8.5,0.8,13.3,3.8
		c7.1,4.5,11.6,4.6,18.3,0.3c2.7-1.7,6.5-3.7,8.5-4.3c2-0.6,6.5-2.9,10.1-5c3.6-2.1,8.9-4.8,11.7-5.9c2.9-1.1,7-3.2,9.2-4.5
		c6.3-4,11.4-4.8,29.7-4.4c16.9,0.3,16.9,0.3,22.9,3.8c3.3,1.9,8.3,4.4,11.2,5.6c2.9,1.2,7.4,3.5,10,5.2c6.9,4.4,18.6,9.2,22.6,9.2
		c4.3,0,15.8-4.8,23.8-10c5.2-3.3,7-4,11.4-4c4.4,0,6.1,0.6,10.6,3.7c6.7,4.7,11.5,5,17.4,1c2.2-1.5,6.9-3.8,10.3-5.3
		c3.5-1.4,8-3.6,10.1-4.9c6-3.8,10.6-4.5,27.6-4.5c13.6,0,16.6,0.3,20,1.9c2.3,1.1,10.7,8.5,19.6,17.3c8.6,8.5,17.3,16.2,19.4,17.2
		c4.7,2.2,7.6,1.7,14.6-2.6c5.3-3.3,5.3-3.3,27.9-3.8s22.6-0.5,27.6-3.4c10.9-6.3,10.1-6.1,28-6.7c17.9-0.6,19.1-0.8,24.2-4.6
		c6-4.5,9.6-5.3,22.5-5.5c13.1-0.1,14.9,0.3,25.2,6.6c2.7,1.7,6.2,2.6,11.3,3.1c4.5,0.4,8.9,1.5,11.2,2.8c2.2,1.2,5.8,3.2,8.1,4.5
		c3.4,1.9,6.1,2.4,15.3,2.8c6.1,0.3,12.6,1,14.5,1.5c1.8,0.6,6.8,4.3,11.1,8.3c4.5,4.2,9.4,7.9,11.7,8.6c2.3,0.8,8.2,1.4,14.6,1.4
		c9.1,0,11-0.3,12.8-1.9c2.5-2.3,2.6-4,0.7-12.6c-0.8-3.6-1.7-8.2-2-10.2c-0.3-2-2.1-5.9-3.9-8.5c-1.8-2.6-4.1-7.1-5.1-9.8
		c-1-2.8-3.4-7.6-5.3-10.7c-2.7-4.5-3.7-7.5-4.7-14.7c-1-7.5-1.9-10.1-5.4-15.8c-3.4-5.7-4.3-8.2-5.1-15.2
		c-0.8-6.8-1.7-9.4-4.7-14.2c-2.9-4.7-3.8-7.4-4.5-13.5c-1.1-9.4-1.6-11.2-4.4-15c-4.1-5.5-5.5-9.3-6.4-17.5
		c-0.7-6.6-1.6-9.2-4.5-13.9c-1.9-3.2-4.5-8.3-5.6-11.4c-1.2-3.1-2.9-6.7-3.9-7.9c-3.5-4.5-5.2-8.9-6.1-16.5
		c-0.5-4.2-1.6-8.8-2.4-10.3c-5.5-10.2-6.6-12.8-6.6-15.7c0-6.5-2.1-14-5-18.1c-3.9-5.5-4.8-7.9-5.9-16.9c-0.7-5.7-1.7-8.7-4.1-12.4
		c-1.7-2.7-4.2-7.6-5.5-11c-1.3-3.4-3.3-7.3-4.3-8.9c-1.1-1.5-5.2-9.5-9.1-17.8c-3.9-8.2-8.3-17-9.6-19.5s-5.9-11.5-10-20
		s-8.7-17.5-10-20s-3.9-7.4-5.5-11c-1.7-3.6-3.7-7.8-4.5-9.5c-0.8-1.7-4.3-6-7.8-9.6c-4.6-4.9-7-8.4-9.1-13.5
		c-1.5-3.8-3.6-8.1-4.7-9.6c-1.1-1.5-3.3-6-5-10c-1.6-4-4.3-9.3-5.9-11.8c-1.6-2.5-3.9-7-5-10c-1.2-3-3-6.7-4.2-8.3
		c-1.1-1.6-3.1-5.7-4.5-9.1c-1.3-3.4-4-8.7-5.9-11.8c-1.9-3-4.4-8-5.5-10.9s-3-6.7-4.2-8.3c-1.1-1.6-3.6-6.5-5.4-11
		c-1.8-4.4-4-8.8-4.7-9.7c-0.8-0.9-4.4-7.9-8.1-15.6c-3.7-7.7-8.1-16.7-9.8-20s-4.4-8.7-6-12c-1.6-3.3-3.8-7.6-4.9-9.5
		c-1.1-1.9-3.1-6-4.5-9c-2.4-5.2-4.6-9.7-9.2-18.5c-1.2-2.2-3.4-6.7-5-10c-1.6-3.3-3.6-7.4-4.5-9c-0.9-1.6-2.8-5.7-4.2-8.9
		c-1.7-3.8-4.9-8.4-9.4-13.1c-5-5.3-7.5-8.8-9-13.1c-1.2-3.2-3.2-7.4-4.4-9.4c-1.2-1.9-5.5-10.2-9.5-18.5
		c-8.3-17.2-9.8-20.3-13.5-26.5c-1.9-3.2-2.9-7-3.5-12.8c-0.7-6.6-1.6-9.4-4.3-14c-1.9-3.1-4.7-8.7-6.2-12.5c-1.5-3.7-3.2-7-3.7-7.3
		c-2.2-1.3-4.9-8.8-5.7-15.8c-0.5-4.3-1.9-9.3-3.1-11.4c-1.2-2.1-3.2-6.2-4.6-9.2c-1.4-3-3.5-7.3-4.7-9.5
		c-6.2-11.7-17.8-35.1-17.8-36.1c0-0.6-1.8-3.9-4-7.3c-2.2-3.4-4-6.5-4-6.9c0-0.9-11.1-23.8-14.6-30.2c-1.4-2.5-3.6-7-5-10
		c-6-13.1-6.9-14.4-11.9-17.5c-4.9-3-4.9-3-31.5-3C1168.5,134.5,1154.4,134.7,1151.9,135"/>
</g>
<g id="Layer_26">
	<path class="st0" d="M1099.7,1035c-2.1,0.5-5.7,2.3-8,4c-2.3,1.7-6.7,3.9-9.7,5.1c-3,1.1-7.6,3.4-10.1,5c-2.5,1.6-7.3,4-10.5,5.3
		c-3.2,1.3-8.3,4-11.2,6c-4.5,3-6.2,3.6-10.6,3.6c-4.5,0-6.1-0.6-11.1-4c-7.6-5.2-12-6.4-17-4.7c-3.3,1.1-4.4,2.2-7.6,8.4
		c-4.8,9.2-13.5,17.4-21.5,20.3c-3.2,1.2-8.1,3.7-10.9,5.6c-6.8,4.6-10.1,5.5-20.9,5.3c-10.2-0.2-12,0.2-18.3,4.2
		c-5.7,3.6-9.6,3.6-15.2,0.1c-2.4-1.5-5.3-3.2-6.4-3.7s-13.7-0.9-28-0.9c-30.1,0-28.7,0.3-39.7-10.2c-7.9-7.5-11.8-9.4-21.3-10
		c-13.2-0.9-17.5,4-11.9,13.5c4.4,7.4,4.6,8,5.2,21.2c0.6,12.4,0.7,12.6,4.4,18.2c4.7,7,5.6,10.7,5.6,22.9c0,9.5,0,9.5,4.8,17.5
		c4.7,7.9,4.7,7.9,5.2,20.6c0.5,12.4,0.6,12.7,4.2,18.5c4.8,7.8,5.8,12,5.9,23.4c0,9.5,0,9.5,4.8,17.5c4.8,8,4.8,8,4.9,29.7
		c0.2,23.4,0,22.5,6.4,32.6c3.2,5.1,3.3,5.8,3.9,18c0.6,12.8,0.6,12.8,4.8,19.7c3.6,6,4.4,8.2,5.1,15.3c0.8,6.9,1.6,9.3,4.5,14.2
		c3.5,5.7,5.6,12.9,5.6,19.4c0,2,1.8,6.1,4.7,11c4.7,7.8,4.7,7.8,5.3,21c0.6,13.1,0.6,13.2,4.4,18.8c4.7,7,5.6,10.7,5.6,22.9
		c0,9.5,0,9.5,4.7,17.4c4.7,7.9,4.7,7.9,5.3,20.6c0.5,12.4,0.6,12.8,4.3,18.6c4.5,7.4,5.7,12.2,5.8,23.9c0,8.9,0.1,9.1,4.7,16.9
		c4.7,7.8,4.7,7.8,5.3,21c0.6,13.1,0.6,13.2,4.4,18.8c4.7,7,5.6,10.7,5.6,22.9c0,9.5,0,9.5,4.8,17.5c4.7,7.9,4.7,7.9,5.2,20.6
		c0.5,12.4,0.6,12.7,4.2,18.6c4.6,7.4,5.7,12.2,5.8,23.9c0,9,0.1,9.1,4.8,17c4.8,8,4.8,8,4.8,29.5c0.1,23.3-0.1,22.3,6.4,32.7
		c3.2,5.1,3.3,5.8,3.9,18c0.6,12.8,0.6,12.8,5,20.1c4.5,7.4,4.5,7.4,5,20c0.6,12.7,0.6,12.7,5,19.9s4.4,7.3,5,20
		c0.6,12.7,0.6,12.7,5,20c4.4,7.3,4.4,7.3,5,20c0.6,12.7,0.6,12.7,4.8,19.7c3.7,6.1,4.3,8,4.9,14.8c0.6,6.7,1.2,8.7,5,15
		c3.7,6.2,4.5,8.5,5.2,15.5c0.8,6.8,1.6,9.3,4.5,14c4.4,7.2,5.6,12.1,5.6,23.6c0,8.9,0.1,9.1,4.7,16.9c4.7,7.8,4.7,7.8,5.2,20.5
		c0.6,12.7,0.6,12.7,4.8,19.6c2.6,4.3,4.6,9.1,5.2,12.7c1.9,10.3,4.3,13.1,21.1,24.9c11.9,8.3,27.9,17.2,35.8,20
		c2.9,1,6.7,2.8,8.3,4c1.7,1.2,6.6,3.6,10.9,5.4c10,4.2,14.9,8.2,26.4,21.9c11.3,13.4,20.7,22.6,26.1,25.3c2.4,1.2,7.2,2.3,12,2.7
		c6.8,0.6,9,1.3,14.6,4.6c3.6,2.1,7.7,3.9,9.2,3.9c1.5,0,5.9-1.7,9.8-3.8c7.2-3.8,7.2-3.8,28.9-4.2c21.7-0.5,21.7-0.5,27.6-4.1
		c3.3-2,8.3-4.9,11.2-6.4c3.9-2.1,6-4.1,7.9-7.4c4-7,5.1-8,14-12.2c5.4-2.6,10.5-6,14.6-9.9c4.4-4.1,9-7.1,14.9-9.9
		c6-2.8,10.6-5.8,15.2-10.1c3.6-3.4,8.2-6.8,10.2-7.6c2-0.8,8.8-1.8,15.2-2.2c6.4-0.4,12.7-1.3,13.9-2c1.3-0.7,5.4-4,9.1-7.4
		c5.2-4.8,10.2-7.9,22.5-14.1c10.7-5.4,16.6-9,18.4-11.2c1.5-1.8,4.9-7.6,7.6-13c5-9.8,5-9.8,5.1-30.3c0.1-13.1,0.5-21.6,1.3-23.5
		c0.6-1.7,8.3-10,17-18.5c19.6-19.2,20.9-21.5,21.6-37.5c0.5-11,0.5-11,7.2-24.5c6.1-12.4,7.4-14.3,16.3-23.5
		c11.5-11.9,13-13.9,16.6-23c3.8-9.6,12.3-18,21.9-21.9c11.3-4.5,20-11.9,24.5-20.7c1.1-2.2,2.5-7.6,3-12.2c0.7-6.4,1.6-9.3,4-13.2
		c4.9-7.9,4.9-10.3-0.1-18.6c-3.8-6.4-4.2-7.5-3.8-12c0.3-3.6,1.6-6.6,4.6-11c3.1-4.7,4.2-7.4,4.7-11.8c1.2-11.2,2.4-13.9,9.7-21.7
		c4.9-5.2,7.9-9.6,10.4-15.2c3-6.5,5.5-9.9,15.5-20.5c6.6-7,12.7-14.4,13.5-16.5c1.3-3.1,1.6-7.9,1.5-26.3c0-12.4-0.5-24-1.1-25.9
		c-0.6-1.9-2.7-5.9-4.8-8.9c-3.8-5.5-3.8-5.5-3.8-30.1c0-24,0.1-24.7,2.4-29.1c1.3-2.5,3.5-6.8,4.8-9.5c1.3-2.8,3.6-7.2,5-10
		c1.4-2.8,6.2-12.2,10.5-21c8.2-16.6,9.6-19.3,13.4-26c1.5-2.5,2.7-7.1,3.3-12.5c0.8-6.8,1.7-9.6,4.5-14c1.9-3.1,4.3-7.8,5.4-10.6
		c1.1-2.8,3.3-7.2,5-9.7c1.6-2.6,4-7.3,5.3-10.4c1.3-3.1,3.5-7.7,5-10.2c1.5-2.5,3.7-7.1,4.8-10.2c1.2-3.1,2.9-6.7,3.9-8
		c3.6-4.6,5.1-8.8,6-16.8c0.8-6.7,1.6-9.2,4.6-14.1c2.9-4.8,4-7.8,5-14.8c1.4-9.3,2.1-11.1,6.7-17.4c1.6-2.2,2.8-4.4,2.8-5
		c0-3,6.3-13.6,10.5-17.6c5.1-4.9,8.5-10.6,8.5-14.2c0-1.3-1.8-5.2-4-8.8c-2.2-3.6-4.5-8.1-5.1-10c-0.6-1.9-2.6-6-4.4-9
		s-3.8-7.1-4.4-9.1c-0.6-2-2.9-6.6-5.1-10.2c-2.2-3.6-4.8-8.8-5.9-11.6c-1.1-2.8-3.1-6.8-4.5-8.9c-1.4-2.1-3.6-6.6-5-10.1
		c-1.4-3.5-3.8-8.4-5.4-11c-1.6-2.5-3.9-7.1-5.1-10c-1.2-3-3-6.7-4.2-8.3c-1.1-1.6-3.1-5.7-4.5-9.1c-1.3-3.4-4-8.8-5.9-11.9
		c-1.9-3.1-4.2-7.6-5-10c-0.8-2.4-2.9-6.4-4.5-8.9c-1.6-2.6-4.1-7.5-5.4-10.9s-3.8-8.3-5.4-10.9c-1.6-2.5-3.9-7-5-9.9
		c-1.1-2.9-3.2-7-4.6-9.2c-1.4-2.2-3.4-6.3-4.5-9.2c-1.1-2.9-3.5-7.7-5.4-10.8s-4.4-7.9-5.4-10.7c-1.1-2.8-3.4-7.2-5-9.9
		c-1.7-2.6-3.8-7.1-4.7-9.9c-2.3-7-4.7-10.1-10.2-13.4c-4.5-2.7-5.3-2.8-22.2-3.3c-19.9-0.6-19.2-0.3-29.5-10
		c-8.8-8.4-10.8-9.1-24.6-9.4c-10.8-0.2-12.1-0.5-16.6-3c-9.9-5.7-11.6-6.3-18.8-7c-5-0.5-8.6-1.4-11.2-3
		c-11.8-7.1-11.3-6.9-21.9-6.9c-10.8,0-9.6-0.4-22.9,8c-2.8,1.8-4.9,2-20.1,2.1c-18,0.1-20,0.5-25.4,5c-5.3,4.4-10.5,5.2-29.6,4.7
		c-19.5-0.6-23,0-30,5.4c-5.7,4.4-10.6,5.7-15.9,4.3c-3.1-0.8-7.3-4.5-21-18.3c-10.6-10.6-18.7-18-21.2-19.1
		c-2.9-1.3-7.2-2-15.6-2.3c-13.6-0.5-20.9,0.8-25.8,4.5c-1.9,1.5-6.5,3.9-10.2,5.4c-3.7,1.5-8.6,4.1-11,5.8c-8.3,6-14.7,6-23,0
		c-5.9-4.3-10.5-4.7-15.1-1.6c-5.7,3.9-26.2,13.7-28.6,13.7c-1.2,0-7.5-2.8-14-6.2c-12.2-6.4-21.7-11.1-27.5-13.9
		c-1.8-0.9-5.6-2.9-8.3-4.5c-4.7-2.7-5.7-2.9-18-3.1C1109.3,1034.2,1101.8,1034.5,1099.7,1035"/>
</g>
<g id="Layer_25">
	<path class="st0" d="M4526.7,1104.1c-3.4,2-45.4,44.4-47.9,48.4c-1.4,2.2-3.3,6.5-4.3,9.5c-1.7,5-3.9,7.6-23.1,27
		c-11.7,11.8-21.9,22.4-22.7,23.5c-0.8,1.1-2.5,4.9-3.7,8.5c-2.1,6.2-3.1,7.3-22,25.8c-20.7,20.3-25.5,26.2-28.5,35.2
		c-1.7,5-4,7.7-24.4,28.5c-22.1,22.5-22.7,23.2-25.4,30.5c-2.8,7.5-2.9,7.6-27,31.2c-25.1,24.6-30,30.5-33.1,39.8
		c-1.7,5.1-4.2,7.9-33.5,37.5c-30.8,31.1-34,34.8-36.8,43.7c-0.9,2.9-11.9,14.4-48.5,51c-47.3,47.3-47.3,47.3-50.2,55.3
		c-2.8,8-2.8,8-54.1,59.5c-28.2,28.3-51.9,52.4-52.7,53.5c-0.8,1.1-2.5,4.9-3.8,8.4c-2.3,6.3-3.1,7.3-49.5,53.5
		c-47.2,47.1-47.2,47.1-50,55.1c-2.8,8-2.8,8-40.4,46s-37.6,38-40.4,45.5s-2.9,7.5-32,36.2c-16.1,15.8-30.8,31.1-32.7,34
		c-1.9,2.9-4.4,7.8-5.3,10.8c-1.7,5.1-3.8,7.5-27.4,31c-36.9,36.7-39.3,39.4-42.1,47.7c-2.4,6.8-2.5,6.9-37,41.1
		c-19.1,18.9-36.2,36.6-38.1,39.5c-1.9,2.9-4.3,7.7-5.3,10.7c-1.7,5-3.9,7.6-23.8,27.7c-14.9,15.1-23,22.6-25.3,23.3
		c-2.2,0.7-20.8,1.1-54.6,1.3c-56.8,0.2-50.2-0.6-64.1,8.2c-3,1.9-4.9,2-50.1,2.1c-43,0.1-47.3,0.2-50.7,1.9
		c-5.2,2.5-9.4,7.6-11.2,13.8c-0.9,2.9-3.1,7.7-4.9,10.8c-1.8,3-4.2,7.8-5.2,10.5c-1,2.8-3.1,7-4.7,9.3c-1.6,2.4-4,7.1-5.3,10.5
		c-1.3,3.4-3.5,7.8-4.9,9.9c-1.4,2.1-3.5,6.4-4.6,9.5c-1.2,3.2-3.4,7.7-5,10c-1.6,2.3-4.2,7.4-5.8,11.3c-1.6,3.9-3.6,7.9-4.4,8.8
		c-2.7,3-4.6,8.9-4.7,14.3c-0.1,6.3-1.7,11.2-5.3,16c-1.5,1.9-3.8,6.4-5.2,9.9c-1.4,3.5-3.6,8-5,10.1c-1.4,2.1-3.5,6.4-4.6,9.5
		c-1.2,3.2-3.5,7.7-5.1,10.1c-1.6,2.4-4,7.1-5.3,10.4c-1.3,3.3-3.7,8.1-5.4,10.7c-1.6,2.6-3.7,6.7-4.6,9.1c-0.9,2.5-3.1,7-5,10
		c-1.9,3.1-4.4,8.1-5.5,11.2c-1.2,3.1-3,6.7-4.1,8.1c-3.2,4.1-4.9,9.2-5,14.9c-0.1,6.3-1.7,11.2-5.3,16c-1.5,1.9-3.8,6.4-5.2,9.9
		c-1.4,3.5-3.6,8-5,10.1c-1.4,2.1-3.5,6.4-4.6,9.5c-1.2,3.2-3.5,7.7-5.1,10.1c-1.6,2.4-4,7.1-5.4,10.5c-1.3,3.4-3.5,7.8-4.9,9.9
		c-1.4,2.1-3.5,6.4-4.6,9.5c-1.2,3.2-3.4,7.7-5,10c-1.6,2.3-4.2,7.4-5.8,11.3c-1.6,3.9-3.6,7.9-4.4,8.8c-2.5,2.8-4.6,8.8-4.6,13.3
		c0,6.7-1.5,11.7-5,16.4c-1.7,2.4-4.2,7.1-5.5,10.5c-1.3,3.3-3.7,8.2-5.4,10.8c-1.6,2.6-3.7,6.7-4.6,9.1c-0.9,2.5-3.1,7-5.1,10.1
		c-1.9,3.1-4.2,7.6-5,10c-0.8,2.4-3.1,6.9-5,10c-1.9,3.1-4.2,7.6-5,10c-0.8,2.4-3,6.8-4.9,9.9c-1.9,3.1-4.4,8.1-5.5,11.2
		c-1.2,3.1-3,6.7-4.1,8.1c-3.3,4.2-4.9,9.3-4.9,15.1c0,6.2-1.6,10.8-5.5,15.9c-1.4,1.9-3.7,6.2-5,9.6s-3.8,8.3-5.3,10.9
		c-1.6,2.5-3.7,6.9-4.7,9.6c-1,2.8-3.1,7-4.7,9.3c-1.6,2.4-4,7.1-5.3,10.5c-1.3,3.4-3.5,7.8-4.9,9.9c-1.4,2.1-3.5,6.4-4.6,9.5
		c-1.2,3.2-3.4,7.7-5,10c-1.6,2.3-4.2,7.4-5.8,11.3c-1.6,3.9-3.6,7.9-4.4,8.8c-2.7,3-4.6,8.9-4.7,14.3c-0.1,6.3-1.7,11.2-5.3,16
		c-1.5,1.9-3.8,6.3-5.1,9.8s-3.8,8.3-5.4,10.9c-1.6,2.5-3.4,6.3-4.1,8.2c-0.6,2-2.8,6.3-4.7,9.5c-2,3.2-4.7,8.5-5.9,11.8
		c-1.3,3.2-3.7,8-5.3,10.5c-1.6,2.6-3.7,6.7-4.6,9.1c-0.9,2.5-3.1,7-5,10c-1.9,3.1-4.4,8.1-5.5,11.2c-1.2,3.1-3,6.7-4.1,8.1
		c-3.2,4.1-4.9,9.2-5,14.9c-0.1,6.3-1.7,11.2-5.3,16c-1.5,1.9-3.8,6.4-5.2,9.9c-1.4,3.5-3.6,8-5,10.1c-1.4,2.1-3.5,6.4-4.6,9.5
		c-1.2,3.2-3.5,7.7-5.1,10.1c-1.6,2.4-4,7.1-5.3,10.4c-1.3,3.3-3.7,8.1-5.3,10.7c-1.6,2.5-3.7,6.9-4.6,9.7c-0.9,2.8-2.8,6.6-4.2,8.5
		c-4.6,6.1-8.5,14.9-8.2,18.2c0.5,4.9,3.3,5.8,16.9,5.5c11.6-0.3,11.6-0.3,18-4.3c6.4-4,6.4-4,51.4-4.1c31.8-0.1,46.3-0.5,49.4-1.3
		c2.4-0.7,6.9-2.9,9.9-4.9c5.5-3.7,5.5-3.7,212.6-4.2c113.9-0.3,208.9-0.2,211.2,0.2c2.3,0.4,6.9,2.5,10.3,4.7
		c4.3,2.8,7.7,4.2,11.4,4.6c2.9,0.4,171,0.7,373.7,0.8c368.5,0.2,368.5,0.2,375.7,4.5c7.2,4.3,7.2,4.3,23.5,5.3
		c9.5,0.6,83,0.8,176.8,0.6c158.2-0.3,160.6-0.3,164.5-2.3c2.7-1.3,4.7-3.3,6-6c1.9-3.9,2-6,2-82.5c0-43.2-0.4-80.6-0.8-83.2
		c-0.5-2.8-2.4-7.1-5-10.9c-4.2-6.3-4.2-6.3-4.7-198.8c-0.5-192.6-0.5-192.6-3.4-197.6c-1.6-2.8-3.5-6.2-4.3-7.7
		c-1.2-2.3-1.5-23.5-1.6-144c-0.1-114-0.4-141.8-1.5-144.3c-0.7-1.6-2.9-5.4-4.9-8.3c-3.6-5.3-3.6-5.3-3.7-96
		c-0.1-67.9-0.4-91.6-1.3-94.2c-0.7-1.9-2.9-6.2-5-9.5c-3.8-6-3.8-6-3.5-82.5c0.1-42.1-0.1-84-0.6-93.1c-0.8-16.6-0.8-16.6-5.3-23.5
		c-4.4-6.8-4.4-6.8-4.9-104.4c-0.3-57-0.9-98.4-1.4-99.5c-0.5-1.1-2.5-4.3-4.4-7.2c-3.4-5.2-3.4-5.2-3.6-97
		c-0.2-100.5,0.3-93.3-6.4-103.2c-3.7-5.4-3.7-5.4-3.4-99.5c0.1-51.8-0.1-100.3-0.6-107.7c-0.8-12.1-1.2-14.1-3.5-18
		c-7.1-11.8-7-11.6-6.3-31.4c0.9-24.6-0.8-65.1-2.9-68.2C4530.8,1102.8,4529.5,1102.5,4526.7,1104.1"/>
</g>
<g id="Layer_24">
	<path class="st0" d="M1778.7,1363c-1.4,1.6-3.3,5.3-4.2,8.2s-3.3,7.6-5.2,10.5c-2.8,4.2-3.6,6.6-4.3,12.8
		c-1.1,9.5-1.6,11.2-4.6,15.2c-3.7,4.9-5.3,9.6-5.4,15.5c-0.1,6.4-1.8,11.6-5.4,16.3c-1.5,2-3.8,6.3-5.1,9.7
		c-1.3,3.4-3.5,7.9-4.9,9.9c-1.4,2.1-3.5,6.4-4.6,9.5c-1.2,3.2-3.5,7.7-5.1,10.1c-1.6,2.4-4,7.1-5.3,10.4c-1.3,3.3-3.8,8.2-5.4,10.8
		c-2.5,3.9-3.2,6.4-4,13.3c-0.9,8.8-1.7,10.9-5.7,16.3c-1.3,1.7-3.5,5.9-4.8,9.4s-3.8,8.3-5.4,10.9c-1.6,2.6-3.7,6.7-4.6,9.1
		c-0.9,2.5-3.3,7.4-5.4,11s-4.4,8.2-5,10.3c-0.7,2.1-2.7,6-4.6,8.7c-4.6,6.6-5.2,10.6-5,30.6c0.2,15.2,0.4,17.5,2.3,21
		c8,15.1,7.3,10.8,7.4,41.9c0.1,15.4-0.2,28.9-0.7,30s-2.2,4.2-4,7c-1.8,2.8-4.2,7.5-5.3,10.6c-2.4,6.5-4.2,8.4-11.4,11.9
		c-4.5,2.2-5.6,3.3-8.4,8.9c-1.9,3.8-6,9.3-10.1,13.5c-7.5,7.7-9.1,11.3-9.2,20.1c0,5.2-2.1,10.4-6.5,16.4
		c-3.5,4.8-3.1,7.8,1.8,15.1c3.7,5.5,4.2,7,4.2,11.5c0,3.3-0.7,6.1-1.8,7.6c-7.3,10-7.4,10.2-7.9,22.2c-0.4,9.5-0.9,12.3-3.1,17.1
		c-3.8,8.3-3.5,9.7,3.1,16.8c4.5,4.8,7.7,7,14.9,10.4c8.1,3.8,10.5,5.6,20.5,15.5c9.7,9.6,12.5,11.7,19.7,15.1
		c5.7,2.7,10.7,6,15.5,10.4c5.4,4.9,9,7.2,15,9.7c6.3,2.6,9.5,4.7,15.5,10.3c5.3,4.9,9.4,7.8,13.5,9.4c3.3,1.3,8.3,3.8,11.1,5.6
		c2.8,1.8,6.2,3.5,7.5,4c3.9,1.2,10.2,4.6,13.2,7.1c1.5,1.3,5.8,3.2,9.5,4.3c3.7,1.1,8.4,3.1,10.4,4.5c2,1.4,6.2,3.4,9.2,4.6
		c3,1.1,7.1,3.2,9.1,4.5c6.4,4.3,9,5.3,16.3,6c6.2,0.6,9.1,1.7,21.5,7.9c7.9,4,16.1,8.2,18.3,9.3s6.5,3.3,9.5,4.7
		c3,1.4,7.2,3.5,9.2,4.6c2.1,1.2,7,2.5,11,3c4.2,0.5,9.1,1.9,11.8,3.3c2.5,1.3,7.5,3.8,11,5.5s7.8,3.8,9.5,4.7
		c1.7,0.9,4.7,2.5,6.8,3.6c2.1,1.1,7.2,2.4,11.3,2.8c5.2,0.6,9,1.7,12.2,3.5c9,5.2,32.2,16.4,33.8,16.4c0.6,0,3.8,1.7,7,3.9
		c8.1,5.4,9.6,5.7,13,2.7c2.8-2.4,2.8-2.4,3.4-28.8c0.6-27.3,0.8-28.6,5.4-35.5c1.4-2.1,3.2-5.8,4.1-8.3c0.9-2.5,3.4-7.5,5.5-11.1
		c3.2-5.3,4.2-8.1,4.9-14.3c1.2-9.4,2.6-12.2,10-20.2c7.4-7.9,8.7-10.6,10-19.7c0.6-4.5,2.4-10.1,4.5-14.7c1.9-4,3.5-8.3,3.5-9.6
		c0-1.2-1.4-4.4-3.2-7.1c-1.7-2.7-4.2-7.5-5.4-10.7c-1.2-3.2-3.1-7-4.2-8.5c-1.1-1.5-5.2-9.5-9.1-17.8c-3.9-8.2-8.2-17-9.5-19.5
		c-1.3-2.5-5.8-11.5-10-20s-8.7-17.5-10-20c-1.3-2.5-5.8-11.5-10-20c-4.2-8.5-8.7-17.5-10-20c-1.3-2.5-5.8-11.5-10-20
		c-9.1-18.5-10.4-21.1-13.9-27.2c-1.9-3.3-3-7-3.6-13c-0.7-6.5-1.6-9.4-4-13.2c-1.7-2.7-4.2-7.6-5.5-10.9c-1.3-3.3-3.8-8.1-5.4-10.6
		c-1.6-2.5-3.8-6.9-5-9.7c-1.1-2.8-3.3-7.3-4.9-10c-1.6-2.7-3.7-7.1-4.7-9.9c-1-2.8-3.1-6.9-4.7-9.3c-1.6-2.4-4-7-5.4-10.3
		c-1.3-3.3-3.5-7.8-4.9-9.9c-1.3-2.1-3.3-6.2-4.4-9.1c-1.1-2.9-3.5-7.7-5.4-10.8s-4.4-7.9-5.5-10.8c-1.1-2.9-3.2-6.9-4.6-9
		c-1.4-2.1-3.6-6.6-5-10.1c-1.4-3.5-3.8-8.4-5.4-11c-1.6-2.5-3.9-7-5-9.9c-1.1-2.9-3.2-7-4.6-9.2c-1.4-2.2-3.4-6.3-4.5-9.2
		c-1.1-2.9-3.6-7.8-5.5-11c-1.9-3.2-4.2-7.7-5.1-10c-0.8-2.4-2.9-6.4-4.5-8.9c-1.6-2.6-4.1-7.5-5.4-10.9s-3.8-8.3-5.4-10.9
		c-1.6-2.5-3.9-7-5-9.9c-1.1-2.9-3.2-7-4.6-9.3c-1.4-2.2-3.5-6.6-4.7-9.8c-1.2-3.2-3.5-7.7-5.1-10.1c-1.6-2.4-4.1-7-5.4-10.3
		c-1.3-3.3-3.5-7.7-4.9-9.7c-1.3-2-3.5-6.5-4.9-9.9c-1.3-3.4-4-8.8-6-12c-2.8-4.6-3.8-7.5-4.6-13.7c-0.5-4.3-1.8-9.3-2.7-11
		c-4.4-8.1-8.3-16.2-8.3-17.3c0-0.6-1.3-2.5-2.9-4.2C1786.2,1359,1782.1,1358.9,1778.7,1363"/>
</g>
<g id="Layer_23">
	<path class="st0" d="M1584.9,1902.8c-7,3.5-7.6,4.1-10.9,10.5c-2.5,4.9-6.5,9.8-14.6,18c-6.1,6.2-11.7,12.4-12.4,13.7
		c-0.7,1.4-1.8,6.2-2.5,10.7c-1.2,8.3-1.7,9.6-7,18.8c-2.7,4.7-2.9,5.8-3,16.5c-0.1,6.3-0.5,12.4-0.9,13.5
		c-1.7,4.2-5.9,7.5-12.4,9.6c-5.6,1.9-7.8,3.3-14.8,10.2c-12,11.7-11.6,10.4-11.7,41.7c-0.1,24.1-0.3,26.8-2,30
		c-1,1.9-9.3,10.8-18.2,19.7c-17.5,17.4-17.5,17.4-29.9,18.8c-7.9,0.9-11.8,3.1-19,10.5c-3.3,3.4-7.1,6.7-8.5,7.5
		c-1.4,0.7-6.4,1.6-11.3,2c-7.4,0.6-9.5,1.2-13.3,3.7c-2.5,1.7-5.7,4.5-7,6.3c-4.4,5.8-9.5,8.6-17.5,9.6c-4,0.5-8.3,1.6-9.5,2.4
		c-1.3,0.8-3.6,4.1-5.1,7.3c-2.9,6-3.4,6.4-16.8,12.4c-2.9,1.3-7.8,5.1-11.8,9c-5,5-8.3,7.3-12.4,8.9c-3.1,1.2-8.4,3.8-11.6,5.8
		c-6,3.7-6,3.7-24.1,4.2c-9.9,0.3-29.3,0.2-43.1-0.3c-20.7-0.6-26.1-1.1-31.4-2.8c-3.5-1.1-7.3-2-8.5-2c-3.3,0-19.9-6.1-22.2-8.2
		c-3.1-2.8-16.2-6.2-18-4.7c-0.8,0.6-1.4,1.7-1.4,2.4c0,1.4,12.3,11.6,16.7,13.9c1.5,0.8,3.7,2.4,4.8,3.7c2.7,3,6.7,5,15.5,7.6
		c4.1,1.2,9.8,3.1,12.5,4.2c2.8,1.1,14.2,4.6,25.5,7.7c11.3,3.1,22.5,6.5,24.9,7.6c2.6,1.1,7.2,4.9,11.6,9.4
		c5.2,5.4,8.8,8.2,13.1,10.1c10.2,4.5,32.8,15.7,36.4,18.1c1.9,1.3,5.4,3,7.8,3.8c2.4,0.8,6.9,3.1,10,5c4.6,2.8,7.3,3.7,14.2,4.6
		c13.6,1.7,17.4,5,18.9,16.5c1.8,14.5,2.6,14.8,35.6,14.9c25,0.1,25,0.1,31.6,3.8c5,2.8,8.5,3.9,14.2,4.6c9.6,1.2,12.3,2.6,21.1,11
		c7.5,7.1,10.1,8.3,20.2,9.9c8.7,1.4,12.4,3.7,24.6,15.3c12.1,11.6,12.5,12.5,8.2,20.8c-1.4,2.7-2.5,5.8-2.5,6.8
		c0,3,3.3,5.2,9.5,6.2c7.8,1.3,9.1,1.7,15,5.5c2.8,1.8,7.1,4,9.6,5c2.5,1,5.5,2.4,6.7,3.1c1.3,0.8,6.4,9.9,12.2,21.8
		c8.7,17.6,10.8,21.1,15.4,25.4c7,6.7,11.7,8.9,21.2,10.2c9.5,1.3,14.8,4.2,20.7,11.2c7.6,9,13.4,9.9,20.8,3.3
		c8.5-7.7,9-17,1.5-28.6c-5.2-8.1-6.1-12.4-5.2-24.5c0.9-11.5,3.1-16.2,9.3-19.8c6.5-3.7,8.9-6,12-11.4c1.5-2.5,5.6-7.7,9.1-11.6
		c3.8-4.1,8.4-10.6,11.1-15.7c4.1-7.6,7-11.1,24.6-29.1c19-19.4,20.3-20.6,26.5-22.8c5.4-2,8-3.8,15.6-11.1c5-4.8,9.8-10.2,10.7-12
		c6.6-13.5,9.7-21.4,9.7-24.2c0-2-1.1-4.8-3-7.5c-1.7-2.3-5.3-9.1-8.1-15.1c-5-10.9-5-10.9-3.9-17c1-5.3,0.8-7-1.1-13.8
		c-3.1-10.9-2.3-16.7,3.8-28.4c4.8-9.1,4.8-9.1,4.4-28.9c-0.4-23.3-0.2-23.9,8.9-33.8c3.4-3.7,7.3-9.1,8.6-12
		c2.2-4.8,2.4-6.3,2-14.5c-0.4-8.5-0.8-9.9-5.2-18.7c-6.8-13.7-8-15.9-11.2-21.5c-2.9-5-2.9-5.1-3.4-25.7
		c-0.6-23.9-0.6-23.9-10.3-29.2c-7.3-4-8.7-6.1-9.9-14.9c-1.2-9.1-2.7-11.3-9.6-14.4c-3.4-1.5-8.2-5-12.2-8.8
		c-4.9-4.8-8.8-7.4-15.3-10.4c-6.3-2.9-10.6-5.8-15.5-10.4c-5.2-4.8-8.5-7.1-14.1-9.2c-6.5-2.6-8.5-4.1-19-14.4
		c-11.5-11.4-13.1-12.5-24.3-17.4c-3.4-1.5-8.6-5.1-13.1-9.3c-6.1-5.6-9-7.5-16.6-10.6c-5.1-2.1-10.1-3.8-11.1-3.8
		C1593.1,1899,1588.9,1900.7,1584.9,1902.8"/>
</g>
<g id="Layer_22">
	<path class="st0" d="M2070.4,1969.9c-3.8,2.3-12.1,12.3-14,16.8c-0.7,1.8-1.4,5.1-1.4,7.5c0,6.6-1.5,11.7-4.9,16.3
		c-1.7,2.4-4.4,7.4-5.9,11.2c-1.5,3.8-4,8.4-5.4,10.3c-1.4,1.9-2.9,4.5-3.4,5.9s-0.7,13.8-0.5,27.6c0.3,27.5,0.1,28.5-5.8,35.8
		c-1.7,2.1-3.8,6-4.6,8.7c-2.1,7.1-3.2,8.8-10.7,16.6c-3.8,3.9-7.4,8.4-8,10c-0.8,1.8-1.4,11.4-1.8,25.5c-0.6,22.6-0.6,22.6-4.2,28
		c-5.9,8.7-6.1,9.3-5.7,19.7c0.4,11.8,1.6,14.5,10.6,23.8c4.8,4.9,7.3,8.5,8.8,12.4c1.2,3,4,8.4,6.2,11.9c3.5,5.4,4.1,7.2,4.1,11.6
		c0,4.3-0.6,6.1-3.5,10.3c-1.9,2.8-4.6,7.9-6,11.4c-1.4,3.5-3.9,8.2-5.5,10.5c-4.6,6.4-5.1,11.4-4.8,40.2
		c0.3,26.1,0.3,26.1,2.9,28.6c1.9,1.9,4.3,2.8,9.5,3.6c4.5,0.7,9.1,2.2,13.1,4.5c7.4,4.1,11.4,4.3,16.8,0.9c5.5-3.4,9.4-3.2,17.2,1
		c5.8,3.1,7.5,3.5,13.8,3.5c9.2,0,17.3,1.5,20.5,3.8c1.4,1,3.9,4.4,5.5,7.6c4.2,8,6,8.8,23.5,9.7c18.6,1,107.8,1,127.6,0
		c15.1-0.7,15.1-0.7,22-4.9c3.8-2.3,8.9-4.9,11.3-5.7c2.5-0.9,6.5-2.9,9-4.5c2.5-1.6,7.8-4.2,11.8-5.9c9-3.7,13.1-7.2,40.3-34.8
		c15.1-15.4,23.2-22.8,27.2-25.1c4.7-2.6,6.4-4.4,9.7-10c2.9-4.9,7.9-10.5,18.2-20.3c20-18.9,27.8-28.2,31.2-36.6
		c1.9-4.9,4.7-9.1,9.6-14.7c4.8-5.4,7.7-9.8,9.5-14.4c1.4-3.6,3.7-8.2,5.1-10.2c4.2-6.2,2.9-11.5-3.3-13c-2.1-0.5-27.7-1-59.7-1
		c-30.8,0-57.1-0.1-58.5-0.1c-1.4,0-6.1-2.2-10.5-4.8c-8-4.8-8-4.8-69-4.8c-54.4,0-61.4-0.2-64.6-1.6c-4-1.8-7-5.6-8.8-11
		c-0.6-2-2.8-6.3-4.7-9.5c-2-3.2-4.6-8.5-6-11.8c-1.3-3.2-3.7-8-5.3-10.5c-1.6-2.5-3.9-7-5-9.8c-1.1-2.9-3.2-7-4.6-9.3
		s-3.5-6.6-4.7-9.8c-1.2-3.2-3.5-7.7-5.1-10.1c-1.6-2.4-4.1-7-5.4-10.3c-1.3-3.3-3.6-7.9-5.1-10.2c-1.4-2.3-3.7-6.8-4.9-10
		c-1.3-3.2-3.6-8-5.3-10.5c-1.6-2.5-3.9-7-5-9.9c-1.1-2.9-3.2-7-4.6-9.3s-3.5-6.6-4.7-9.8c-1.2-3.2-3.5-7.7-5.1-10.1
		c-1.6-2.4-4-7.1-5.4-10.5c-1.3-3.4-3.5-7.8-4.8-9.8s-3.6-6.5-5-9.9c-1.4-3.4-3.9-8.3-5.5-10.8c-1.6-2.5-4.1-7.7-5.6-11.4
		c-2.5-6.3-6.2-10.7-8.9-10.7C2074,1968,2072.1,1968.9,2070.4,1969.9"/>
</g>
<g id="Layer_21">
	<path class="st0" d="M378.8,2015c-1.5,0.5-4.4,2.2-6.5,3.8c-7.4,5.8-7,5.7-31.8,5.8c-15,0.1-23.8,0.5-25.1,1.2
		c-1.2,0.6-4.4,3.8-7.3,7.1c-6.3,7.3-12.2,10.1-17.1,8.1c-3.9-1.6-5.8-5.3-6.5-12.7c-1.1-10.9-3-13.3-10.4-13.3
		c-4.5,0-7.7,2.3-8.5,6.2c-0.3,1.3-0.6,15.6-0.8,31.8c-0.3,27.6-0.4,29.8-2.3,33.4c-1.3,2.4-3.6,4.7-6,6c-3.7,1.9-5.6,2.1-33.9,2.1
		c-16.5,0-31,0.4-32.3,0.8c-4.2,1.4-5.2,5.4-5.2,20.3c0,14.8-0.3,13.7,6.5,24.9c3,4.9,3,4.9,3.5,37.9s0.5,33,4.3,38.7
		c3.2,4.8,4.1,7.1,5.2,14.7c0.7,5,1.9,10.1,2.5,11.3c2.1,4.1,8.2,9.7,11.9,10.9c4.6,1.4,29.7,13.6,33.3,16.1c1.5,1.1,5.5,3,8.9,4.3
		c3.4,1.3,8.2,3.8,10.8,5.4c3.7,2.4,6.6,3.3,13.1,4.1c5.8,0.7,9.8,1.9,12.9,3.6c6.2,3.5,10.5,5.8,17,8.8c3,1.4,7.2,3.5,9.2,4.6
		c2.1,1.2,7.1,2.5,11.5,3.1c5.1,0.6,9.3,1.8,12.3,3.5c6.1,3.5,9,5,27,13.8c8.5,4.2,17.5,8.7,20,10c2.5,1.3,8.9,4.5,14.2,7.1
		c10.8,5.2,10.7,5.2,20.3,0c4.6-2.5,7.7-3.4,13.4-3.9c5.2-0.4,8.7-1.4,11.5-3.1c2.2-1.3,10.4-5.6,18.2-9.5c12.6-6.3,14.7-7.1,20-7.1
		c8.1,0,12.6-2.4,20.7-10.6c8.4-8.6,9.4-10,11.6-16.6c1-2.9,3.2-7.5,5-10.2c1.7-2.7,4.1-7.4,5.2-10.5c1.1-3.1,3.4-7.6,4.9-10
		c1.6-2.5,3.8-6.8,4.9-9.6c1.1-2.8,3.3-7.2,5-9.8c1.6-2.6,4-7.3,5.3-10.4c1.3-3.1,3.5-7.7,5-10.2c3.3-5.5,3.7-6.8,4.8-15.8
		c0.7-5.7,1.8-8.7,5-14c2.2-3.7,4.8-8.7,5.6-11.2c0.9-2.5,2.9-6.5,4.5-9s3.6-6.6,4.5-9c0.9-2.5,3.3-7.4,5.5-11s4.7-8.5,5.6-11
		c1-2.5,2.8-6.1,4-8.2c1.3-2,3.4-6.5,4.8-9.9c1.4-3.4,3.9-8.3,5.5-10.8c3.3-5.2,3.8-6.7,5-17c0.7-6.1,1.6-8.4,4.7-12.8
		c8.1-11.8,4.4-23.6-7.7-25c-4.4-0.5-4.4-0.5-13.6,9.5c-11.1,12-14.5,13.7-25.2,13c-4.2-0.3-8.2-1.3-10.3-2.4
		c-4-2.3-7.8-9.3-7.9-14.3c0-1.9-0.9-5.4-1.9-7.7c-1.5-3.4-2.7-4.4-5.8-5.4c-4.7-1.4-9.8-0.1-14.9,3.8c-1.8,1.3-6.3,3.7-10,5.2
		c-3.7,1.5-9.1,4.4-12,6.3c-6.5,4.4-11,5-29.8,3.9c-9.8-0.6-15.1-1.3-17.6-2.5c-2-0.9-8.3-6.4-14.2-12.2
		c-11.8-11.7-15.6-13.9-26.1-14.9c-8.5-0.8-9.5-1.3-17.7-9.1C394.6,2015.8,386.6,2012.6,378.8,2015"/>
</g>
<g id="Layer_20">
	<path class="st0" d="M1786.7,2022.8c-1.3,1.4-1.6,5-1.9,19.2c-0.3,17.5-0.3,17.5,6.4,31c3.7,7.4,8.1,16,9.8,19
		c3,5.5,3,5.5,2.7,29.2c-0.3,27.5-0.3,27.4-10.1,32.2c-9.3,4.5-9.2,4.2-9.3,33.4c-0.1,23.7-0.3,25.5-2.2,29.3
		c-7.1,13.4-6.6,11.7-4.6,16.3c4.1,9.9,4.3,11,3.2,17.3c-1,5.6-0.8,6.8,1.7,13.6c1.5,4.1,4.7,10.5,7.1,14.2c5,7.6,5.9,11.2,5.2,19.4
		c-0.7,7.6-2.6,11-11.3,20.1c-6,6.3-7.6,8.7-8.9,13.3c-2.2,7.5-5.5,11.2-11.5,13c-7.1,2.1-8.8,3.2-16.1,10.1
		c-4,3.9-9.1,7.5-13.1,9.4c-6,2.8-6.8,3.6-9.8,9.3c-1.8,3.4-6.3,9.4-9.9,13.2s-7.4,9-8.4,11.5c-4.8,11.7-5.9,13.4-11.6,16.1
		c-7.4,3.5-8.9,5.7-9.7,14c-0.9,9-3.2,12.6-10.6,16.1c-7.4,3.5-9.2,6.2-8.6,13.1c0.3,3.9,1.3,6.6,3.8,10.2
		c4.9,7.1,5.9,10.8,5.9,21.5c0,11.4-1,15.6-5.7,22.7c-3,4.6-3.4,5.8-2.6,8.1c0.9,2.5,2.2,3.5,10.6,8.7c1.8,1.1,4.5,4.3,6.1,7.3
		c3.5,6.5,5.3,7.7,14.3,9.6c3.9,0.8,8.5,2.2,10.2,3.1c4.1,2.1,8.1,2,14.4-0.6c4.4-1.8,7-2.1,15.9-2c11.9,0.2,13.8-0.3,20.2-5.2
		c4.5-3.5,6-4,14.9-5.1c5.8-0.8,10-4.1,13.2-10.4c1.4-2.7,7-9.1,13.2-15.3c8.9-8.7,12.2-11.3,18.6-14.3c9.7-4.6,13.7-8.6,16.6-16.3
		c1.2-3.3,3.9-9.1,6-12.9s4.9-9,6.2-11.7c2.6-5.2,4.4-6.5,13-9.6c3.8-1.4,7.9-4.1,12.9-8.6c4.1-3.7,10.3-8,14.1-9.9
		c11-5.4,12.6-6.9,17-16.4c3.5-7.4,5.4-10,13.2-17.7c5-4.9,12.3-12.5,16.2-16.8c8.5-9.4,10.2-9.7,20.3-4c6.3,3.5,7.2,3.7,15.2,3.7
		c16.1,0,16.2-0.3,16.4-40c0.1-30,0.1-30,4.3-37c2.3-3.8,4.9-8.8,5.6-11c0.8-2.2,2.8-6.6,4.5-9.9c1.7-3.2,3.1-6.7,3.1-7.7
		c0-1-1.6-4.8-3.6-8.5c-2-3.7-4.5-9.1-5.6-12.1c-1.4-3.7-4.2-7.8-8.9-12.8c-5.3-5.8-8-9.8-11.9-18.1c-2.8-5.9-5.1-11.9-5.1-13.4
		s1.3-5.1,3-8.1c1.6-3,5.5-10.3,8.6-16.4c5.6-11,5.6-11,5.5-26.7c-0.2-18.6,0.4-20.5,8.4-28.9c4.5-4.7,5.5-6.4,5.5-9.2
		c0-5.1-3.1-8.4-9.8-10.3c-3.1-0.9-8.6-3.3-12.2-5.5s-8.4-4.5-10.8-5.4s-6.2-2.9-8.6-4.5c-4.8-3.3-10.7-5-17.7-5
		c-3.5,0-6.1-0.9-11.2-4c-3.6-2.2-8.8-4.8-11.4-5.9c-2.7-1.1-7.5-3.5-10.8-5.5c-3.3-2-6.4-3.6-7-3.6c-9.8-0.4-16-2-22.3-5.8
		c-3.7-2.2-8.7-4.8-11.1-5.6c-2.4-0.8-5.7-2.5-7.4-3.7c-1.7-1.2-6.3-3.6-10.2-5.3c-3.9-1.7-9.3-4.4-12-6c-5-3-10.5-4.4-16.7-4.5
		c-2,0-5.8-1.2-8.5-2.7C1790.5,2020.1,1789.5,2019.7,1786.7,2022.8"/>
</g>
<g id="Layer_19">
	<path class="st0" d="M648,2056c-2.2,2.2-2.7,3.9-3.4,12.4c-0.4,4.6-1.3,7-4,11c-4.5,6.6-5.6,9.6-5.7,15.9
		c-0.1,6.3-1.7,11.2-5.3,15.9c-1.5,1.9-3.8,6.3-5.1,9.8s-3.8,8.3-5.4,10.9c-1.6,2.6-3.7,6.7-4.6,9.1c-0.9,2.5-3.1,7-5.1,10.1
		c-1.9,3.1-4.2,7.6-5,10c-0.8,2.4-3,6.8-4.9,9.9c-1.9,3.1-4.4,8.1-5.5,11.2c-1.2,3.1-2.9,6.7-3.9,7.9c-3.4,4.3-5.1,8.7-5.1,13
		c0,6.6-1.8,12.6-5,17.3c-1.6,2.4-3.9,6.9-5.1,10.1c-1.2,3.2-3.5,7.8-5.1,10.2c-1.6,2.4-4,7.1-5.4,10.5c-1.3,3.4-3.5,7.8-4.9,9.9
		c-1.4,2.1-3.5,6.4-4.6,9.5c-1.2,3.2-3.4,7.6-4.9,9.8c-1.5,2.2-3.9,6.8-5.3,10.2c-1.4,3.4-3.6,7.6-4.9,9.4
		c-5.1,6.9-4.3,10.5,3.3,14.3c3.2,1.6,9,6.6,15.8,13.5c9.8,10,11.5,11.3,20.3,15.4c7,3.2,11.4,6.1,16.1,10.5
		c4.5,4.2,9.1,7.3,14.9,10c6.3,2.9,10.1,5.5,15.1,10.4c5.2,5.1,8.3,7.1,13.5,9.1c3.7,1.4,8.8,3.9,11.3,5.6c8.6,5.7,13,3.4,14.9-7.6
		c1.4-8.2,3.3-11.4,10.3-18.1c5.7-5.4,8.6-6.7,18.6-8.2c7.6-1.2,12.7-4,21.3-11.8c4.1-3.7,8.7-6.7,12.4-8.2c3.3-1.3,7.1-3.2,8.6-4.2
		c1.5-1,6.4-3.6,11-5.8c4.6-2.2,10.6-5.2,13.3-6.7c7.2-4,12.5-3.8,20.1,0.9c7.1,4.4,12,5.5,16.9,3.9c4.3-1.4,5.9-4.2,7.4-12.8
		c1.5-8.6,3.8-11.4,11.9-14.7c9.2-3.7,10.7-4.8,28.4-22.1c18.2-17.8,18-17.7,37-17.8c12.5-0.1,12.5-0.1,20,4.4c7.5,4.5,7.5,4.5,30,5
		c21.1,0.5,22.8,0.6,26,2.7c11.3,7.1,9.5,6.7,34.1,7.3c22.6,0.5,22.6,0.5,29,4.5c5.9,3.7,7.1,4,14.4,4.3c6.6,0.3,8.6,0,11.2-1.7
		c3.6-2.2,3.1-1.6,13.9-20c4.9-8.3,10.5-16.4,14.9-21.1c25.4-27.9,39.2-45.1,42-52.3c1.7-4.4,1.7-4.7-0.1-8.4
		c-1.6-3.3-2.9-4.2-9.2-6.7c-6.6-2.6-8.5-4.1-19-14.6c-10.7-10.7-29.9-26.6-37.6-31.1c-1.7-1-6.7-2.5-11.1-3.4
		c-5.5-1.1-9.2-2.4-12.1-4.5c-2.3-1.6-7.6-4.5-11.8-6.5c-7.6-3.5-7.6-3.5-12-12.8c-4.9-10.4-11.4-18.4-18.5-22.6
		c-4.2-2.5-5.8-2.8-17.1-3.3c-13.2-0.6-14-0.8-24.7-7.5c-4.8-3-4.9-3-19.8-3c-14.6,0-15.1,0.1-19.5,2.7c-2.5,1.5-7.4,4.1-11,5.8
		c-3.6,1.7-7.8,3.8-9.5,4.7c-14.2,7.9-17.2,8.1-27.2,1.6c-5.2-3.4-7.3-4.1-13-4.6c-3.8-0.3-9.2-1.5-12.1-2.7
		c-9.9-3.9-11.6-3.2-25.4,11.1c-7.9,8.2-10.1,9.9-14.7,11.3c-3,1-8.1,3.4-11.3,5.5c-6.5,4.2-12.1,5.5-19.8,4.6
		c-7.4-0.9-10.4-3-22.4-15.3c-6.6-6.8-12.5-11.9-14.7-12.9c-2.8-1.1-7.4-1.5-18.3-1.5c-20.1,0-21.9-0.6-32.1-10.2
		c-4.6-4.4-9.9-8.6-11.8-9.3C656.5,2053.3,650.4,2053.6,648,2056"/>
</g>
<g id="Layer_18">
	<path class="st0" d="M2492.5,2204.7c-3.1,0.8-6.5,4.3-9.2,9.8c-1.4,2.8-3.3,6-4.3,7.3c-1,1.3-2.8,5.2-4,8.8
		c-1.8,5.4-3.5,7.9-9.9,14.7c-6.4,6.8-8.2,9.5-10.5,15.7c-2.7,7.3-3.3,8-24.2,29c-11.8,11.8-21.8,22.2-22.4,23
		c-0.5,0.8-2.2,4.6-3.6,8.5c-3.9,10.1-12.9,19.1-23.3,23c-8.8,3.4-11.1,5.3-41.1,35.6c-19.8,20-22,21.9-27.4,23.9
		c-3.3,1.2-8.4,3.7-11.5,5.5c-3.1,1.9-7.6,4.2-10.1,5.1s-6.4,3-8.7,4.6c-2.3,1.6-5.4,3.3-6.9,3.9c-3.8,1.4-167.3,1.3-171.1-0.1
		c-1.5-0.6-5.8-3.9-9.5-7.5c-8.5-8-12.6-10.2-22-11.3c-4.1-0.5-9.1-1.7-11.2-2.5c-5.2-2.2-9.9-2-14.8,0.5c-6.1,3.1-12,2.3-19.6-2.8
		c-5.2-3.4-7.1-4.1-13.4-4.7c-4.3-0.4-9.6-1.7-12.7-3.1c-6.7-3-7-3-13.4,0.3c-4.5,2.3-6.7,2.8-15.7,3.1c-9,0.3-11.4,0.1-16.5-1.8
		c-9.1-3.3-13.8-3.6-17.4-1c-5.1,3.7-10,10.5-13.6,19.1c-3.3,7.9-4.1,8.9-19.2,23.9c-14,13.9-16.5,15.9-21.8,17.9
		c-9.2,3.4-10,3.9-18.8,13.1c-6.7,7-8.5,9.6-10,14.2c-1,3.1-3.3,7.9-5.1,10.6c-1.9,2.7-4.1,6.9-4.9,9.3
		c-3.9,11.6-5.3,12.6-18.8,14.4c-15.5,2-19.2,5.8-21.4,22.1c-2.2,15.4-5.1,17.7-23.8,17.9c-11.7,0.1-11.9,0.2-14.2,2.9
		c-3.3,3.9-3.1,9.1,0.6,15.8c1.6,2.9,4.1,7.8,5.5,10.9c2.6,5.6,3.6,7.5,8.7,16.7c2.9,5.2,2.9,5.2,3,43c0.1,20.8-0.2,38.9-0.7,40.3
		c-0.4,1.4-2.2,4.5-3.8,6.9s-3.9,6.7-4.9,9.5c-1.1,2.8-3.8,8-6.1,11.5c-4.2,6.5-4.2,6.5-4.3,27.6c-0.1,23.3-0.4,25.4-4,30.2
		c-3.6,4.8-5.4,9.6-5.4,15c0,8.6-1.6,12-9.4,19.7c-10.5,10.4-13.6,17.8-10.1,24.5c1.7,3.3,4.8,4.7,13.4,6
		c8.3,1.3,10.2,2.7,14.3,10.3c3,5.5,4.3,6.8,9.8,9.8c8.9,4.9,10.3,7.6,11,21.5c0.6,10.1,0.9,11.7,4.3,18.5c2,4.1,3.7,8.2,3.7,9.1
		c0,0.9-2,5.6-4.5,10.6c-2.5,4.9-4.5,9.5-4.5,10.1c-0.1,2.7-6,7.2-12.8,9.8c-9.6,3.7-10.6,5.1-9.7,15.4c0.7,7.6,0.6,8.2-2.4,13.8
		c-2.9,5.5-3.1,6.6-3.1,16.6c0,11.8-0.6,14-5.5,21.3c-1.9,2.8-4.4,7.7-5.6,11c-1.7,4.7-3.8,7.6-9.3,13.1c-6.1,6.1-7.9,7.3-12.5,8.4
		c-5.7,1.4-14.7,0.8-18.5-1.1c-1.2-0.6-4.6-2.7-7.5-4.7c-4.6-3.1-6.1-3.6-11.1-3.6c-4.8,0-6.6,0.6-11.2,3.4
		c-4.6,2.9-6.2,3.3-10.4,3.1c-13.8-0.8-12.8-1-19.8,5.7c-6.7,6.4-7.5,6.8-17.2,7.8c-6.8,0.7-10.2,2.5-11.6,6.3
		c-1.4,3.8-0.2,7.8,3.2,10.7c3,2.5,3.1,2.5,23.2,2.5c22.3,0,20.8-0.3,33.3,7.5c4.8,3,4.8,3,27.4,3.5c22.6,0.5,22.6,0.5,28.6,4.2
		c3.3,2,8.1,4.2,10.6,4.7c6.6,1.5,66.1,2.4,87.7,1.3c10.2-0.5,20.4-0.5,22.8-0.1c2.4,0.4,6.9,2.4,10,4.3c3.1,1.9,7.7,4.2,10.2,5.2
		s6.6,3,9.2,4.6c2.6,1.6,7.3,3.3,10.5,3.9c11.7,2.1,14.5,3,19.7,6.4c4.5,3,6.6,3.7,14.2,4.5c7.7,0.9,9.8,1.6,15.7,5.1
		c3.7,2.3,8.7,4.5,11,5c6.3,1.3,86.6,2.1,107.1,1.1c20.7-1.1,25.1-0.5,31.4,4.1c9.1,6.6-2,6.1,153,6.3
		c141.4,0.2,141.4,0.2,147.2,3.8c3.3,2,8.2,4,11.3,4.6c3.4,0.6,33.2,0.9,80.8,0.7c75.4-0.3,75.4-0.3,83.3-4.6
		c7.9-4.4,7.9-4.4,100-4.2c56.9,0.1,94.3-0.2,98-0.9c3.9-0.7,8.3-2.4,13-5.3c7.1-4.3,7.1-4.3,48.6-4.3c41.5,0,41.5,0,46.4-2.5
		c6.3-3.2,10-7.5,12.2-14.2c0.9-2.9,3.4-8.3,5.5-11.8s4.6-8.5,5.6-11c1-2.5,3-6.5,4.5-9c1.5-2.5,3.7-7,4.9-10
		c1.2-3,3.5-7.6,5.1-10.1c1.6-2.5,4.1-7.4,5.5-10.8c1.4-3.4,3.6-7.9,4.9-9.9c1.3-2,3.1-5.7,4-8.2c0.9-2.5,3.3-7.4,5.5-11
		c3.3-5.4,4.1-7.9,4.8-14.5c0.9-7.6,2.3-11.9,6.1-17.5c0.9-1.4,2.5-4.5,3.4-7c1-2.5,3.5-7.4,5.6-11c2.1-3.6,4.8-8.9,6-11.9
		c1.2-3,2.9-6.6,4-8c1-1.4,3-5.5,4.4-9c1.4-3.5,3.9-8.5,5.5-11c1.6-2.5,3.9-7.1,5.1-10.1s3.4-7.5,5-10c1.6-2.5,3.6-6.5,4.5-9
		c0.9-2.5,3.4-7.4,5.6-11.1c3.4-5.6,4.1-7.9,4.9-14.9c0.8-6.8,1.6-9.4,4.5-14.1c1.9-3.2,4.2-7.7,5.1-10.1s3.3-7.2,5.4-10.8
		s4.6-8.5,5.5-11c0.9-2.5,2.9-6.5,4.5-9c1.6-2.5,3.8-6.8,4.9-9.6c1.1-2.8,3.3-7.2,5-9.8c1.6-2.6,4-7.3,5.2-10.4
		c1.2-3.1,3.5-7.8,5.1-10.3c1.6-2.5,3.5-6.5,4.4-9c0.9-2.5,3.3-7.4,5.5-11c3.2-5.4,4.1-8,5-14.9c0.8-6.6,1.8-9.7,4.4-14
		c1.8-3.1,4.1-7.6,5.1-10.1s3.5-7.4,5.7-11c2.1-3.6,4.6-8.5,5.4-10.9c0.9-2.4,2.8-6.5,4.4-9c1.5-2.5,3.6-6.6,4.5-9.1s3.3-7,5.1-10
		c1.9-3,4.3-8,5.5-11c1.2-3,3.4-7.5,5-10c1.6-2.5,3.6-6.5,4.5-9c0.9-2.5,3.4-7.4,5.5-11c3.1-5.2,4.2-8.1,4.9-14.1
		c1.1-8.4,2.2-11.8,5.1-16c1.1-1.6,3.1-5.5,4.5-8.8c1.3-3.3,3.7-8,5.3-10.5c1.6-2.5,3.9-7.2,5.2-10.3c1.3-3.1,3.5-7.7,5-10.2
		s3.6-6.8,4.7-9.6c1.1-2.8,3.3-7.2,5-9.8c1.6-2.6,4-7.3,5.3-10.4c1.3-3.1,3.6-7.8,5.1-10.3c1.5-2.5,3.5-6.6,4.3-9
		c0.9-2.4,3.3-7.3,5.5-10.9c3.3-5.4,4.1-7.9,4.8-14.5c0.9-7.6,2.3-11.9,6.1-17.5c0.9-1.4,2.5-4.5,3.4-7c1-2.5,3.5-7.4,5.6-11
		s4.7-8.5,5.6-11c1-2.5,2.8-6.2,4.1-8.3c1.3-2.1,3.3-6.1,4.4-9c1.1-2.9,3.8-8.2,5.9-11.7c2.1-3.6,4.5-8.3,5.3-10.5
		c0.8-2.2,2.8-6.3,4.5-9.1c1.7-2.8,3.8-7,4.7-9.5c0.9-2.4,3.3-7.4,5.5-11c3.4-5.6,4.1-7.9,4.9-14.9c0.8-6.8,1.6-9.4,4.4-13.9
		c1.9-3.1,4.4-7.9,5.5-10.7c1.1-2.8,3.4-7.4,5.1-10.2c1.7-2.8,4.2-7.8,5.5-11.1c1.3-3.3,3.3-7.4,4.5-9.1c1.2-1.7,3.2-5.7,4.6-9
		c1.3-3.3,3.8-8.1,5.4-10.7c1.7-2.6,3.9-7.2,5.1-10.3c1.1-3,3.6-8,5.5-11c3.8-6.1,6.5-13.1,6.5-16.6c0-4.3-2.3-5-16.9-5
		c-14.7,0-14.4,0.1-25.8-7c-5.2-3.2,1-3-95.3-3.5c-2.4,0-6-1.5-11.2-4.6c-7.7-4.6-7.7-4.6-104.5-4.8c-108.3-0.2-96.5,0.6-109-7.2
		c-4.8-3-4.8-3-217.3-3.1C2590.1,2204.3,2493.6,2204.4,2492.5,2204.7"/>
</g>
<g id="Layer_17">
	<path class="st0" d="M1115.7,2229.2c-3.2,3.4-7.7,9.3-9.9,13.1c-2.2,3.8-7.8,10.8-12.4,15.7c-9,9.5-13.9,16.5-17.9,25.4
		c-3,6.8-11.3,15.8-17.1,18.6c-5.4,2.6-18.5,3.6-27.8,2.2c-5.3-0.8-8.4-2.1-13.5-5.4c-6.6-4.3-6.6-4.3-28.6-4.3
		c-23.9,0-22.7,0.2-32.4-6.4c-5.4-3.6-5.4-3.6-28.6-4.1c-23.2-0.5-23.2-0.5-28.6-3.9c-3-1.9-6.7-4.1-8.2-4.9
		c-4.5-2.3-11.4-1.1-18.2,3.1c-3.3,2-8.6,4.6-11.8,5.8c-4.7,1.7-8,4.2-16.2,11.8c-12.7,11.9-16.5,16.7-19.9,25.3
		c-2.9,7.3-11,17.1-17.3,21c-5.6,3.5-16.4,3.3-25.5-0.4c-7-2.9-9.4-2.9-14.9-0.1c-1.5,0.8-6.2,1.8-10.5,2.4
		c-5.8,0.8-9.2,1.9-13.3,4.4c-3,1.8-7.8,4.5-10.7,5.9c-4.5,2.3-5.7,3.5-8.8,9.5c-4.2,8.1-7.4,10.1-15.6,10.1
		c-8.1,0-12.8,1.7-17.5,6.4c-6.2,6.2-6.5,8.4-6.2,42.5c0.2,26.6,0.1,30-1.5,33.3c-1,2-5.9,7.6-10.9,12.5
		c-11.9,11.4-13.9,13.9-17.3,22.1c-1.6,3.7-4,8.8-5.5,11.3s-3.7,7.1-4.9,10.2c-1.9,5.2-4.7,8.3-28,31.8
		c-14.2,14.4-26.1,27.2-26.4,28.5c-0.7,2.8,4.6,16.5,9.4,24c1.7,2.7,4,7.3,5.1,10.3c1.1,3,3.6,8,5.5,11c1.9,3.1,4,7.4,4.8,9.6
		c0.8,2.2,2.8,6.4,4.6,9.2c1.7,2.8,4.2,7.8,5.5,11c1.3,3.2,3.7,8,5.4,10.7s3.6,6.5,4.3,8.5s2.6,6.1,4.4,9.1s4.3,8,5.4,11
		c1.2,3,3.7,8,5.6,11c1.9,3,4.1,7.5,5,10c0.9,2.5,2.9,6.6,4.6,9.1c1.6,2.6,4,7.3,5.3,10.5c2.9,7.4,9,16.9,12,18.9
		c2.1,1.4,2.8,1.4,7.2-0.1c9.6-3.2,14.6-6.6,25.8-17.4c9.3-9.1,12.6-11.5,18.9-14.4c4.9-2.2,10-5.6,14.4-9.7c4.6-4.1,9.6-7.5,15-10
		c5.6-2.6,10.3-5.8,15.2-10.2c4.9-4.5,9.1-7.3,13.9-9.3c9.4-3.9,11.2-5.2,24.3-17.9c9.8-9.5,12.4-11.5,17.8-13.5
		c4.8-1.8,8.3-4.1,14.2-9.6c6.1-5.6,9.5-7.9,15-10c5.4-2.1,9.1-4.5,15.1-10c5.7-5.2,9.7-7.8,13.9-9.4c7.7-2.9,12.2-6.2,24-17.6
		c7.7-7.5,10.9-9.9,16-11.9c7-2.8,10.9-5.4,18.5-12.6c3-2.8,8.2-6.2,12.7-8.2c4.9-2.2,10-5.6,14.3-9.6c7.3-6.6,9.3-7.9,17.9-11.1
		c4.7-1.7,8-4.4,18.8-14.8c11.4-11,14-13,19.4-15c4.8-1.8,8.1-4,14.2-9.7c4.3-4.1,10.1-8.5,12.8-9.9c2.7-1.4,5.5-3.3,6.3-4.2
		c1.9-2.3,8.3-13.7,11.5-20.4c4.2-8.9,15.3-31.1,17.9-36c1.3-2.5,3.7-7.2,5.3-10.5c5-10.3,8.2-16.8,10.9-22c1.4-2.8,4.1-8.1,6-12
		c1.9-3.9,4.3-8.6,5.4-10.5c1.1-1.9,2.7-5.3,3.7-7.5c0.9-2.2,2.8-6.2,4.3-9c6.1-11.7,7.9-15.2,9.8-19c1.1-2.2,3.4-6.7,5.1-10
		c3.2-6,3.2-6,2.8-20c-0.4-14.8-0.6-15.7-6.6-25.5c-2.6-4.4-2.7-5-3.3-24c-0.5-15.2-1-20.4-2.3-23.5c-2.4-5.6-4.5-7.5-8-7.5
		C1122.1,2223,1120.4,2224.2,1115.7,2229.2"/>
</g>
<g id="Layer_16">
	<path class="st0" d="M1156.9,2237.6c-1.7,2.1-3,23.1-1.8,29.6c0.5,2.6,2.5,7.2,4.6,10.4c3.8,5.7,3.8,5.7,4.4,22.3
		c0.8,19.1,0.1,24.5-4.1,30.5c-1.6,2.4-4,7-5.2,10.2c-1.2,3.2-3.5,7.8-5.1,10.2c-1.6,2.4-4,7.1-5.3,10.4c-1.3,3.3-3.7,8.1-5.4,10.7
		c-1.6,2.6-3.7,6.7-4.6,9.1c-0.9,2.5-3.1,7-5.1,10.1c-1.9,3.1-4.2,7.6-5,10c-0.8,2.4-3.1,6.9-5,10c-1.9,3.1-4.2,7.6-5,10
		s-3.3,7.2-5.4,10.8s-4.4,8.1-5,10.1c-0.6,2-2.5,5.8-4.2,8.5c-4.9,7.7-9.8,19.3-9.8,23.1c0,5.1,4.2,9,10.6,9.7
		c11.5,1.4,15.6,2.6,20.2,5.9c6.7,4.8,7.3,5,21.2,5.6c12.3,0.6,12.6,0.7,18.5,4.3c3.3,2.1,7.1,3.7,8.5,3.7c5.7,0,12.1-6.4,15.6-15.5
		c1.5-4,5-8,18-21c15.7-15.6,16.3-16.3,21.2-26.5c4.8-10,5.6-11.1,18.7-24c15.6-15.4,19.2-20,22.5-28.5c2-5.2,4.1-7.8,16.5-20
		c16.3-16,19.3-20,23-29.5c1.7-4.3,4.4-8.9,7.6-12.5c2.7-3.1,4.9-6.2,4.9-6.9c0-3.8-9-10.7-19-14.4c-3-1.1-8.1-3.7-11.4-5.6
		c-3.2-2-8-4.3-10.7-5.2c-3.4-1.1-7.3-3.9-13.1-9.3c-4.6-4.2-9.9-8.3-11.8-9.1c-12.6-5-34.4-14.2-37.6-15.9
		c-2.1-1.1-7.5-2.7-11.9-3.6c-8.6-1.7-23.7-8.8-33.4-15.8C1162.3,2235.7,1159,2235.1,1156.9,2237.6"/>
</g>
<g id="Layer_15">
	<path class="st0" d="M206.4,2274.5c-1.5,2.2-1.7,7.5-1.8,47.4c-0.1,51.8-1,47.4,10.4,54.2c13.9,8.3,14.2,8.3,29,8.5
		c7.4,0.1,14.9,0.2,16.6,0.3c1.7,0,6,1.9,9.7,4.1c3.6,2.2,9,4.9,11.9,6.1c10.3,4.1,12,7.2,12.5,23.2c0.5,17.8,2.5,20.4,14.9,19.3
		c6.8-0.6,7.5-0.5,13.1,2.6c4.9,2.6,7,3.2,12.4,3.3c5.9,0.1,7.1-0.3,12.9-3.9c6.4-4,6.4-4,19-4.5c11.5-0.5,13-0.7,17.6-3.3
		c3.2-1.8,15.8-13.7,35.6-33.6c28-28.2,31.2-31.1,38-34.5c4.1-2,8.9-4.8,10.8-6.2c3.7-2.8,9.2-9.9,9.2-11.9c0-2.9-6.8-1.4-16.2,3.5
		c-7.8,4.1-10.5,5-16.5,5.4c-7.8,0.6-9.3,1.2-16,6.3c-3.8,2.9-5.3,3.4-9.7,3.4c-4.5,0-6.1-0.6-11.2-4c-3.2-2.2-8.2-4.9-11-5.9
		c-2.8-1.1-7.3-3.3-10-5c-2.7-1.7-7.2-3.9-10-5c-2.8-1.1-7.3-3.3-10-5c-2.7-1.7-7.1-3.9-9.9-5c-2.8-1-7.7-3.5-10.8-5.4
		c-4.3-2.6-7.4-3.7-12-4.1c-9.8-1-11.1-1.4-16.8-5.1c-2.9-1.9-7.4-4.2-9.9-5.1c-2.5-0.9-7.1-3.2-10.2-5.1
		c-6.3-3.8-11.1-5.2-17.9-5.2c-3.5,0-6.1-0.9-11.2-4c-3.6-2.2-8.9-4.9-11.7-6c-2.8-1.1-6.8-3.2-9-4.6c-2.1-1.4-7.1-3.9-11-5.5
		c-3.9-1.6-9-4.2-11.4-5.8C216.2,2271.6,209.2,2270.3,206.4,2274.5"/>
</g>
<g id="Layer_14">
	<path class="st0" d="M1331.7,2329c-2.3,2-4.6,5.9-7,11.8c-3.5,8.5-4,9.1-16.8,21.2c-16.2,15.4-19.9,20-23.4,29.3
		c-2.6,6.9-3.7,8.3-19.9,24.8c-16.4,16.7-17.3,17.8-20,25c-2.7,7.2-3.4,8-18.7,22.9c-16.3,15.8-17.1,16.9-23.4,32
		c-1.2,2.9-4.7,7.1-10.7,12.6c-10.6,9.9-13.7,14-17.2,22.5c-1.4,3.6-3.7,8.1-5.1,10c-1.4,2-3.6,6.5-5,10s-3.6,8.1-5,10.2
		c-1.4,2.1-3.5,6.4-4.6,9.5c-1.2,3.2-3.5,7.7-5.1,10.1c-1.6,2.4-4,7.1-5.4,10.5c-1.3,3.4-3.5,7.8-4.9,9.9c-1.4,2.1-3.5,6.4-4.6,9.5
		c-1.2,3.2-3.4,7.6-4.8,9.8c-4.5,6.7-10,19.5-10,23.5c0,4.7,2.6,7.3,11,10.5c3.5,1.4,8,3.5,9.9,4.8c5,3.2,6.6,3.8,14.7,4.7
		c6.8,0.8,9.6,1.9,18.7,7.4c2.7,1.6,6.2,2.6,11.5,3c6.3,0.6,9,1.4,15.6,4.9c4.4,2.3,9.6,4.9,11.5,5.6c1.9,0.7,5.8,2.8,8.6,4.7
		c3.9,2.5,7.1,3.7,13.6,4.7c4.7,0.8,10.4,2.4,12.8,3.5c6.2,3.1,8.3,2.5,9.9-3c2.3-8,11.4-25.3,16-30.2c6.6-7.1,10.7-8.7,25-9.6
		c12-0.8,12.2-0.8,18.4-5c3.4-2.3,8.5-5,11.2-5.9c8.7-3,12.8-7.7,20.3-23c6.7-13.6,6.7-13.6,7-24.5c0.5-14.5,2.5-18.2,11.6-21.4
		c7.3-2.6,14-9,16.8-16c3.2-8.1,4.9-10.4,16.6-22.4c8.5-8.8,11-12,13.9-18.4c3-6.5,5.5-9.8,14.7-19.4c9.4-9.8,11.6-12.8,15-20
		c3.4-7.3,5.5-10.2,15-20.1c9.6-10,11.7-12.8,15.3-20.5c3-6.3,6.3-11.3,11.1-16.6c6.6-7.4,12.3-17.9,12.3-22.8
		c0-3.8-4.4-7.3-16.7-13.3c-10-4.8-14-7.4-19.8-12.8c-7.7-7.2-12.1-9-21.3-9c-3.5,0-6.4-1.2-16.4-7c-4.3-2.5-4.5-2.5-28.8-2.5
		c-24.5,0-24.5,0-32.2,3.8c-7.1,3.6-8,3.8-11.3,2.7c-5.6-1.8-6.9-5.4-7-18.9c-0.1-11.1-0.1-11.4-2.9-13.8
		C1338,2325.2,1335.8,2325.4,1331.7,2329"/>
</g>
<g id="Layer_13">
	<path class="st0" d="M519.9,2330.8c-1.4,1-13.6,12.8-27,26.4c-24.3,24.5-24.4,24.7-31.9,27.4c-7.3,2.7-8,3.3-27.2,22.3
		c-10.9,10.7-20,20.4-20.3,21.4c-0.3,1,0,2.6,0.7,3.4c1.9,2.3,7.4,1.2,14.2-3c7.3-4.4,10.8-5,29.4-4.5c12.5,0.3,15.3,0.7,18.2,2.4
		c6.3,3.7,7.3,6.1,8.2,19.7c0.9,13.7,1,14.3,5.6,21.3c5,7.7,5.8,12.4,5,30.9c-0.7,18.1-0.2,21.1,4.7,28.9c1.8,2.8,3.6,6.1,4.1,7.2
		c0.4,1.1,1.1,12.4,1.4,25.2c0.6,21.4,0.8,23.4,2.7,26c2.9,3.9,8.2,7.3,11.4,7.3c1.5,0,8.3-2.7,15.2-5.9c10.5-5,13.8-7.1,20.4-13.3
		c6.1-5.7,9.3-7.9,14.4-9.8c5.7-2.1,8-3.9,19.2-14.9c8.1-7.9,13.5-14,14.8-16.8c1.1-2.4,3-6.4,4.1-8.9c1.7-3.7,3.3-5.2,8.5-8.2
		c6.8-3.9,8.4-6.5,9.9-15.7c1.1-6.7,3.2-9.5,19.5-26c8.7-8.8,16.6-17.6,17.6-19.5c1.5-2.8,1.9-6.2,2.2-17.5
		c0.5-18.7,0.7-18.3-19.5-28.5c-11.4-5.8-16.8-9.1-21.7-13.6c-6.6-6-8.5-7.2-18.7-11.7c-3.2-1.4-8.7-5.3-13.2-9.4
		c-5.7-5.2-9.3-7.6-14-9.3c-5.4-2-7.9-3.9-17.8-13.5c-6.3-6.2-12.8-11.9-14.5-12.8c-9.9-5.3-18-8.7-20.3-8.7
		C523.7,2329,521.3,2329.8,519.9,2330.8"/>
</g>
<g id="Layer_12">
	<path class="st0" d="M209.3,2397.1c-4.7,1.8-4.7,1.9-4.8,62.9c0,45.3,0.2,58.3,1.3,61.2c0.7,2.1,4.6,7.4,8.7,11.8
		c5.3,5.7,8,9.6,9.5,13.8c3.3,8.7,7,13.8,17.8,24.5c8,7.8,10.4,10.8,12.2,15.5c2.9,7.3,4.9,10.3,12,17.8c4.2,4.4,6.4,8,8.6,13.4
		c2.3,5.8,4.4,9.1,9.8,14.8c5,5.4,7.9,9.7,10.8,15.9c2.8,6.1,5.6,10.3,9.9,14.7c3.3,3.4,7.3,8.7,8.9,11.7c4.4,8.2,6.1,9.1,17.8,9.5
		c7.3,0.2,11.2,0.9,14.7,2.4c6,2.6,9.7,2.6,16.4,0.1c4.7-1.8,7.7-2,26.3-2c27.8,0,28.2-0.2,30.4-13.4c0.5-3.2,2.2-5.3,9.2-12
		c10.8-10.3,15.4-13.4,21.2-14.2c8.1-1.1,12.5-2.6,16.9-5.6c5.5-3.8,7.3-7.4,8.5-16.7c1.3-10.6,2.8-13.5,8.5-16.7
		c6.6-3.7,9.3-6.4,9.3-8.8c0-1.1-1.7-4.5-3.8-7.5c-3.8-5.4-3.8-5.4-4.2-28.5c-0.5-23.1-0.5-23.1-5-30.6c-4.5-7.5-4.5-7.5-4.2-24
		c0.4-22.7-0.5-28.4-5.8-35.8c-3.3-4.7-4.4-7.4-5.4-13.3c-0.7-4.1-1.8-8.3-2.4-9.5c-1.5-2.8-6.2-4.3-13.1-4.3
		c-7.7,0-12.7,1.6-17.9,5.6c-2.4,1.9-6.1,3.8-8.1,4.4c-2,0.5-17.1,0.9-34.3,0.8c-30.7-0.2-30.7-0.2-36.6,4
		c-9.9,6.9-18.7,7.9-30.4,3.3c-4.4-1.7-6.4-1.9-13.6-1.3c-8.4,0.7-8.4,0.7-18.9-10.2c-11.1-11.6-14.3-16.6-14.3-22.7
		c-0.1-9.3-5.4-19.2-11.9-22c-1.5-0.7-9.5-1.1-19.7-1.2c-17.1-0.1-17.1-0.1-23-3.7C213,2396.4,212,2396.1,209.3,2397.1"/>
</g>
<g id="Layer_11">
	<path class="st0" d="M1500.8,2430.6c-1.5,0.8-2.8,1.6-2.8,1.7c0,0.1-1.6,4-3.5,8.6c-3.2,7.6-4.5,9.4-15.3,20.5
		c-10.8,11-12.1,12.8-14.7,19.6c-2.6,6.8-4,8.6-14.9,20c-10.9,11.3-12.4,13.3-15,20c-2.6,6.8-4.1,8.7-15.1,20
		c-11.1,11.4-12.4,13.2-15,20c-2.6,6.9-3.7,8.4-14.5,19c-6.4,6.3-12.4,13.3-13.5,15.4c-1.4,3-1.9,6.6-2,15.5
		c-0.2,13.6-1.4,16.6-9.5,24.6c-4.3,4.2-5.1,5.5-5.1,8.7c0,3.3,1.2,5.1,10.5,15.7c11.9,13.5,21.1,21,30,24.2c5.5,2,7.9,4.1,27.1,23
		c13.6,13.4,22.1,21,23.9,21.5c5.6,1.4,7.7-0.4,12.6-10.3c4.3-8.9,5.3-10.1,25.7-30.5c17.3-17.3,21.8-22.4,24.2-27.4
		c1.7-3.4,3-6.7,3-7.4c0-0.7,9.4-10.5,20.9-21.8c20.8-20.5,20.9-20.6,25.6-30.6c4.7-9.9,5-10.3,25.6-31.1
		c18.7-18.9,21.2-21.8,23.9-28c3.1-6.9,4.5-9.8,8.3-16.5c3.4-6.1,1.6-8.4-11.2-14.7c-8.3-4.1-12.5-5.5-18-6.2
		c-10-1.2-12.5-2.8-16.4-10.2c-2-3.7-4.6-7-6.5-8.3c-1.8-1.1-4.7-2.9-6.4-4c-5.3-3.3-6.7-6.2-7.8-15.7c-0.5-4.8-1.4-9.5-1.9-10.5
		c-1.3-2.5-16.7-17.4-19.4-18.9c-1.2-0.7-5.6-1.5-9.7-1.9c-4.4-0.4-9.5-1.7-12.5-3.1C1505.7,2428.6,1504.5,2428.6,1500.8,2430.6"/>
</g>
<g id="Layer_10">
	<path class="st0" d="M1076,2495.7c-0.8,0.3-3.1,1.9-5.1,3.5c-2,1.6-6.9,4.2-10.9,5.8c-5.7,2.3-8.8,4.4-13.9,9.5
		c-5.3,5.2-8.2,7.2-14.8,9.9c-9.5,3.9-14.3,7.6-24,18.4c-7.4,8.2-8.5,9-17.6,12.3c-4.3,1.6-7.8,4-13.6,9.4
		c-6.2,5.8-9.2,7.8-15.2,10.1c-6,2.3-8.9,4.2-14.9,10c-6.1,5.8-8.9,7.7-15,10c-6.8,2.6-8.6,3.9-20,15c-11.3,11-13.2,12.4-19.8,14.9
		c-5.7,2.2-8.9,4.3-15.2,10.1c-6.3,5.8-9.5,7.9-15.2,10.1c-5.8,2.2-8.7,4.2-14.8,9.9c-6,5.7-8.9,7.7-14.8,9.9
		c-8.1,3.1-13.3,7.1-24,18.6c-7.5,8-8.6,8.8-17.5,12.1c-4.3,1.6-7.8,4-13.6,9.4c-6.2,5.8-9.2,7.8-15.2,10.1
		c-6.1,2.3-8.9,4.2-15.7,10.7c-4.6,4.3-8.7,7.8-9.2,7.8c-0.5,0-3.5,1-6.7,2.1c-4.9,1.8-7.7,4.1-17.8,13.9c-8.5,8.3-13.5,12.4-17,14
		c-6,2.6-8.5,4.7-8.5,6.9c0,1.9,8.5,18.6,10.8,21.3c3,3.4,8.9,4,43.2,4.1c39.9,0.1,38.3-0.3,43.5,10.9c1.8,3.9,4.7,9.4,6.4,12.1
		s3.6,6.5,4.3,8.5s2.6,6.1,4.4,9.1s4.3,8,5.4,11c1.2,3,3.5,7.6,5.1,10.1c1.6,2.5,4,7.4,5.3,10.7c1.3,3.4,3.3,7.4,4.5,9.1
		c1.2,1.6,3.4,6,4.9,9.8c1.5,3.7,4.2,9,5.9,11.7c1.7,2.7,3.6,6.5,4.3,8.5c0.6,2,2.9,6.6,5.1,10.3c3.4,5.6,4.2,8.1,4.9,15
		c0.6,5.3,1.7,9.5,3.1,11.8c4.2,6.9,16.5,31.6,17.2,34.6c1.2,5,5.3,10.2,10.3,13.2c4.8,2.8,4.8,2.8,27.4,3.3
		c22.6,0.5,22.6,0.5,28.6,4.2c3.3,2,8,4.2,10.4,4.7c6.5,1.5,43.8,1.3,46.8-0.2c4.1-2.1,6.2-6,7.1-13.1c0.6-5.1,1.8-8.3,4.9-13.4
		c2.2-3.7,4.3-7.9,4.7-9.3c0.3-1.4,0.7-14,0.8-28c0.2-25.4,0.2-25.4,4.7-32.9c4.5-7.4,4.5-7.4,5.1-29.5c0.3-12.1,0.9-22.9,1.4-24
		c0.5-1.1,2.5-4.7,4.4-7.9c3.6-5.9,3.6-5.9,4.1-23.5c0.5-17.6,0.5-17.6,4.7-24.6c2.3-3.8,5.1-9.4,6.3-12.4c1.2-3,3-6.7,4.1-8.2
		c1.1-1.5,3.3-5.8,4.8-9.6c1.5-3.7,4.2-9,5.9-11.6c2.1-3.3,3.3-6.6,3.7-10.5c1.1-10.3,1.5-11.8,4.9-17.3c1.8-3,4.1-7.5,5.1-9.9
		c1-2.4,3.5-7.4,5.6-10.9s4.7-8.5,5.6-11c1-2.5,2.8-6.1,4-8.2c1.3-2,3.4-6.5,4.8-9.9c1.4-3.5,4.1-8.6,6.1-11.4
		c2.9-4.3,3.7-6.4,4.4-13.1c1.1-9.2,1.4-10.4,5.2-16.4c1.5-2.4,3.7-6.9,4.9-9.9c1.1-3,3.6-8,5.4-11c1.9-3.1,4.2-7.6,5.1-10.1
		s3-6.5,4.5-9c1.5-2.5,3.6-6.8,4.7-9.6c1.1-2.8,3.3-7.2,5-9.8c1.6-2.6,4-7.3,5.3-10.4c1.3-3.1,3.6-7.8,5.1-10.3
		c1.5-2.5,3.5-6.6,4.3-9c0.9-2.4,3.3-7.3,5.4-10.9c4.7-7.9,5.4-10.9,4-16.1c-1.5-5.6-4.9-6.8-17.6-6.7c-10.5,0.2-10.4,0.2-21.8-6.7
		c-2.8-1.7-6.2-2.6-11.5-3.1c-7.7-0.7-11.2-2-16.6-6.1C1083.2,2495.9,1078.5,2494.7,1076,2495.7"/>
</g>
<g id="Layer_9">
	<path class="st0" d="M1637.8,2533.8c-0.9,1-2.4,4.4-3.4,7.8c-1.7,5.7-2.8,7-23.7,28c-12,12.1-22.3,22.7-22.8,23.5
		c-0.5,0.8-2.1,4.5-3.6,8.3c-2.5,6.5-3.8,8-24.4,28.5c-21.7,21.7-21.7,21.7-25,30.2c-3.3,8.5-3.3,8.5-25.5,31
		c-21.7,21.9-22.3,22.7-25,30c-2.3,6.2-4.1,8.9-10.5,15.6c-7.8,8.3-9,10.6-9,18.3c0,5.8-1.9,11.2-5.9,16.6c-3.6,5-3.6,5-4.2,18.5
		c-0.6,14.1-1,15.7-6.1,22c-4.1,5.1-5.3,11.4-4.6,23.7c0.7,12.3-0.4,19.4-3.7,23.7c-4.9,6.5-5.6,9-5.6,19.8c0,11.7-1,16.5-4.4,20.5
		c-4.7,5.6-5.6,8.7-5.6,19c0,11-1.2,16.4-4.4,20.8c-5.2,6.9-5.5,8.5-5.6,25.2c0,17.4-0.7,20.7-5.7,26.9c-3.8,4.8-5.3,10.9-4.5,19
		c0.8,8.3-0.1,12.4-4.1,18.2c-3.7,5.3-4.3,7.6-3.2,10.9c1.1,3.4,5.1,4.2,20.7,4.6c15.5,0.3,15.5,0.3,25.6,6.7
		c7.5,4.7,13.7,5.2,65.4,5c45.5-0.2,45.5-0.2,53.3,3.9c7.5,4,8.2,4.2,16.7,4.2c8.5,0,9.1-0.2,12.2-2.9c3.2-2.9,3.3-3.1,3.9-13.9
		c1.1-18.9,4.2-21.9,23.1-22.8c13.2-0.7,18.2-2.7,24.1-9.7c5.1-6.1,9.4-7.9,16.5-6.9c6.8,0.9,8,0.8,15.4-1.7
		c10.4-3.5,18-2.4,27.5,3.9c6,3.9,13.1,5.1,17.2,2.9c1.4-0.7,4.1-4.1,6-7.5c1.9-3.4,4.8-8.3,6.5-11c2.8-4.4,3-5.8,3.7-17.3
		c0.4-6.9,0.7-17,0.8-22.6c0.1-9.9,0.2-10.2,4.1-16.7c2.2-3.6,4.9-9.1,6.1-12.2c2.1-5.7,3.4-7,11.1-10.9c7.7-3.9,8.4-5.9,8.1-21
		c-0.4-15.6-2.1-20.7-9.9-28.5c-7.5-7.5-12.8-10.2-22-11.1c-16.5-1.7-17.9-4.1-17.5-30.1c0.4-22,0.9-23.7,8.8-28.2
		c7.3-4.1,8.9-6.5,10.2-14.9c0.8-5.4,2.1-8.8,5.4-14.2c4.3-7.1,4.3-7.1,4.8-29.2c0.5-21.6,0.6-22.2,3.2-27c1.5-2.7,6-11.5,10-19.4
		c7.3-14.5,7.3-14.5,7.2-46c0-34.3-0.2-35.3-5.9-45c-1.8-3-4.1-8-5.1-10.9c-1.2-3.7-3.7-7.4-7.4-11.4c-11.4-12.4-16.5-14.1-25.2-8.5
		c-5.8,3.7-10.2,3.6-16.4-0.5c-3.5-2.3-6.4-3.1-19.2-5.2c-2.3-0.4-5.7-2.7-11.1-7.9c-5.6-5.2-10.2-8.5-16.2-11.3
		c-5-2.4-10-5.7-12.3-8.1C1642.2,2531.6,1640.1,2531.1,1637.8,2533.8"/>
</g>
<g id="Layer_8">
	<path class="st0" d="M567.1,2588.9c-0.8,0.5-2.6,3.1-4,5.7c-2.6,4.8-4.2,6-15.2,10.9c-1.3,0.6-4.7,2.5-7.4,4.3
		c-4,2.5-6.7,3.4-13.4,4.1c-5.2,0.6-9.9,1.8-12.5,3.2c-2.3,1.2-6.4,3.3-9.1,4.7c-6.6,3.2-8.2,4.8-11.2,10.7
		c-1.4,2.8-3.8,6.9-5.5,9.3c-1.6,2.3-3.8,6.8-4.9,9.9c-3.3,9.6-5.7,11.3-17.7,12.4c-15.5,1.4-21,6.9-22.2,22.2
		c-0.8,10.6-2,13-7.6,15.7c-3.8,1.8-6.2,2-33,2c-17.3,0-30.5,0.4-32.8,1.1c-2.1,0.6-5.9,2.4-8.4,4c-5.7,3.6-8,3.7-14.9,0.4
		c-6.7-3.2-9.3-2.6-9.3,1.9c0,1.8,0.7,4.2,1.6,5.5c0.9,1.3,2.7,5.1,4,8.5s3.9,8.7,5.8,11.7s4.2,7.8,5.2,10.5
		c3.5,9.4,10.2,18.5,13.7,18.5c2.6,0,6.8-2.4,9.8-5.5c4.3-4.6,5.8-4.9,24-5.5c17.5-0.5,17.5-0.5,25-5c7.4-4.5,7.4-4.5,20-5
		c9-0.4,13.4-1,15.5-2.2c10.6-5.8,15.1-7.8,17.7-7.8c3,0,7.7,2,11.6,5.1c4.4,3.4,7.5,3.3,16.1-0.5c7.2-3.2,9.1-3.7,19.5-4.2
		c15.8-0.8,18.6,0.1,28.5,9.2c6.2,5.7,9.4,7.8,15.1,10c5.8,2.2,8.8,4.2,14.4,9.5c8.8,8.3,11.6,9.8,21.2,11c5.7,0.7,9.3,1.9,13.9,4.5
		c3.4,1.9,7.6,3.5,9.2,3.5c3.3,0,10.5-4.3,14.3-8.5c1.4-1.5,4.9-4.5,7.8-6.7c7.2-5.4,7.9-7.6,4.7-14.7c-1.4-3.1-4.3-8.3-6.5-11.6
		c-2.1-3.3-4.8-8.3-5.9-11.2c-1.1-2.9-3.4-7.6-5-10.5c-1.6-2.9-3.7-7.2-4.5-9.5c-0.8-2.3-2.9-6.3-4.6-8.8c-1.7-2.5-4.2-7.3-5.5-10.6
		c-1.3-3.3-3.7-8.1-5.3-10.7c-1.6-2.5-3.4-6.3-4.1-8.3c-0.6-2-2.9-6.6-5.1-10.2c-2.2-3.6-4.8-8.8-5.9-11.6c-1.1-2.8-3.3-7.4-5-10.3
		c-1.6-2.9-3.7-7.3-4.7-9.8s-3.1-6.4-4.7-8.8c-1.6-2.4-4.1-7.1-5.4-10.5c-2.7-6.7-8.5-16.8-11.7-20.4
		C570.5,2587.8,569.3,2587.5,567.1,2588.9"/>
</g>
<g id="Layer_7">
	<path class="st0" d="M1332.8,2663.4c-4.2,1.9-9.7,4.8-12.2,6.6c-4,2.8-5.6,3.3-13.4,4c-10,0.8-13.5,2.3-18,7.4
		c-3.5,4-5.2,9-5.2,15.8c0,6.8-1.4,9.5-8.4,16.8c-8,8.3-9.6,11.4-11.2,22.3c-1,6.7-2.1,10.1-4.3,13.5c-7.1,11.1-7.4,15.6-1.5,25.1
		c3.8,6.2,4.4,11,1.7,15.1c-1,1.4-5.3,5.9-9.7,9.8c-4.4,4-13.4,12.8-20,19.5c-11.3,11.6-12.4,12.4-19.5,15.1
		c-6.9,2.6-8.4,3.7-19.6,14.6c-10.9,10.8-12.8,12.2-20.1,15.2c-15.3,6.3-26.3,18.5-26.3,29c0,9.2-1.9,13.5-9.5,21.5
		c-10.7,11.2-10.8,11.5-11.4,32.3c-0.7,20.6-1.1,21.6-10.3,26c-3.1,1.5-6.3,3.7-7.1,5c-1.9,3.1-3.1,25.2-1.6,29.6
		c1.3,3.7,5.3,6.2,10.1,6.2c5.1,0,10.8,1.9,15.5,5.1c7.8,5.3,7.5,5.3,47.3,5.9c37.5,0.5,37.5,0.5,42.5,4c9.2,6.4,8.9,6.4,54,6.5
		c41,0.1,41,0.1,48.4,4.6c7.4,4.4,7.4,4.4,24.6,4.8c21.9,0.5,22.3,0.4,29-11.6c7.3-12.9,7.6-13.8,8.4-27c0.7-12.1,0.8-12.2,5.1-19.5
		c4.4-7.3,4.4-7.3,4.9-24.3c0.6-18.3,0.1-16.2,7.1-29.6c1.7-3.2,2.3-6.6,2.8-16.3c0.7-12.3,0.7-12.3,5.1-19.6c4.5-7.4,4.5-7.4,5-20
		c0.6-12.7,0.6-12.7,5-20c4.5-7.4,4.5-7.4,5-24.9c0.5-17.6,0.5-17.6,5-25c4.5-7.4,4.5-7.4,5.1-19.5c0.6-12.3,1.1-14.1,6.4-23.5
		c3.2-5.6,3.4-13.6,0.5-19.6c-1.2-2.6-8.5-10.5-18.8-20.6c-15.9-15.6-17.1-16.6-24.2-19.3c-7.2-2.8-8.1-3.5-25-20.5
		c-9.6-9.7-19.5-19.1-21.9-20.8C1346.4,2659.1,1342.6,2659.1,1332.8,2663.4"/>
</g>
<g id="Layer_6">
	<path class="st0" d="M1111.3,2670c-2.8,1.1-5,4.4-6.8,10.6c-0.8,2.7-2.9,7.2-4.7,9.9s-4.2,7.6-5.5,10.9c-1.3,3.2-3.6,8-5.3,10.5
		c-1.6,2.5-3.9,7.2-5.1,10.3c-1.2,3.1-3,6.8-4.1,8.2c-3.3,4.2-4.9,9.3-4.9,15.1c0,6.2-1.6,10.8-5.5,15.9c-1.4,1.9-3.7,6.2-5.1,9.7
		c-1.4,3.5-3.6,8-5,10.1c-1.4,2.1-3.4,6.2-4.6,9.3c-1.1,3-3.6,7.7-5.5,10.4c-4.8,6.9-5.9,12.2-5.2,24.9c0.7,13.6-0.3,19.1-4.7,25.1
		c-1.9,2.6-3.9,6.6-4.4,8.8c-0.5,2.3-0.7,12.1-0.4,22c0.6,20.1,0.1,22.6-5.3,29.4c-5.1,6.4-5.8,11.7-5.2,36.7
		c0.6,23.8,0.2,26.8-5.1,34.1c-8.6,11.8-4.6,22.1,8.6,22.1c3.8,0,7.8,1.8,16.7,7.4c3.8,2.4,6,2.9,12.8,3.4c10,0.6,15.5-0.7,20.3-4.9
		c6.3-5.6,6.8-7.4,7.4-26.8c0.6-20.9,1.2-22.5,10.5-27.6c8.1-4.5,9.5-7.3,9.5-19.1c0-11.7,1-14.1,9.8-23.6
		c7.5-8.1,8.6-10.4,10.1-20.9c0.6-4,1.9-8.4,3.3-10.5c1.3-2,9.5-10.7,18.3-19.3c14.4-14,16.6-15.8,22.5-17.9c5.6-2.1,8.1-4,18.6-14
		c11.1-10.6,12.9-11.9,20.5-15c6.8-2.7,9.7-4.7,15.8-10.4c4.1-3.9,9.2-9.2,11.3-11.9c4.5-5.7,4.9-9.1,1.8-17.7
		c-2.2-6.2-2.6-17.5-1-26.1c0.6-3,2.8-8.9,5-13.3c4.3-8.6,4.7-10.9,2.6-16.1c-1.6-3.8-5.7-5.5-13.1-5.5c-2.4,0-5.9-1-8.5-2.4
		c-2.5-1.3-7.8-4.1-12-6s-8.4-4.1-9.5-4.7c-9.3-5.3-10.6-5.8-17.8-6.4c-5.3-0.4-8.7-1.3-11.4-2.9c-9.2-5.5-11.5-6.4-19.3-7.3
		c-6.8-0.8-9.2-1.6-14.8-5c-7.2-4.3-20.3-10.2-22.4-10.1C1114.1,2669.1,1112.5,2669.5,1111.3,2670"/>
</g>
<g id="Layer_5">
	<path class="st0" d="M529,2754.7c-0.8,0.3-4.3,2.3-7.6,4.5c-10,6.4-18.9,6.9-31.3,1.9c-5.4-2.2-5.4-2.2-13,0.5
		c-6.8,2.4-9.2,2.6-23.2,2.8c-15.6,0.2-15.6,0.2-19.9,3.2c-10.6,7.4-9,7-27.3,7c-16.7,0-16.7,0-19.5,2.8c-2.6,2.6-2.8,3.3-2.7,11.5
		c0.1,11.1,2,15.5,10.7,25.1c4.8,5.3,7.2,8.9,9.3,14.2c2.1,5.4,4.4,8.9,9.5,14.3c4.6,4.9,8,9.8,10.8,15.6c2.3,4.6,5.2,10.3,6.6,12.5
		c1.7,2.8,2.7,6.5,3.4,12.3c0.7,6.7,1.6,9.3,4.4,13.9c1.9,3.1,3.8,6.7,4.2,8c0.6,2,13,26.9,17.8,35.7c0.9,1.6,3,5.9,4.7,9.5
		c1.7,3.6,5,10.1,7.3,14.5c3.8,7.1,4.7,8.1,8.2,9.3c2.5,0.8,6.7,1.2,11.2,0.9c6.3-0.4,8-1,14.5-4.8c7.3-4.4,7.3-4.4,31.5-4.5
		c13.3-0.1,25.9-0.4,28-0.8c2.1-0.4,7-2.6,10.8-4.9c7-4.2,7-4.2,34.5-4.7c27.6-0.5,27.6-0.5,35-5s7.4-4.5,39.5-5
		c30.8-0.5,32.2-0.6,36.3-2.8c13.8-7.3,10.1-6.7,38.2-6.7c27.8,0,28.8-0.2,36.6-6.2c2-1.5,7-3.9,11.2-5.3c6.5-2.2,7.7-2.9,8-5
		c0.5-3.8-1.4-9.1-6-16.1c-2.3-3.5-5.2-9.1-6.6-12.3c-1.3-3.2-3.7-8.2-5.3-11c-1.6-2.8-3.7-7.2-4.6-9.6s-3.5-7.2-5.6-10.4
		c-2.1-3.2-3.8-6.5-3.8-7.2c0-0.7-2.2-5.5-4.9-10.6c-2.7-5.1-5.4-11-6.1-13.1c-1.6-5-6.6-10.6-11.4-12.7c-3.5-1.6-6.8-1.7-32.5-1.2
		c-20.8,0.4-29.8,0.2-33.1-0.7c-3.6-1-6.8-3.5-16.7-13.1c-11.2-10.8-12.6-11.9-15.9-11.9c-3.2,0-4.5,0.8-9.8,6.1
		c-8.3,8.4-10.6,9.2-24.6,9.2c-12,0-16.8-1.3-23.8-6.3c-1.5-1.1-5.7-3.1-9.3-4.6c-4.7-1.9-8.9-4.7-14.6-9.8
		c-5.9-5.3-9.9-7.9-14.9-9.9c-5.1-2-9-4.6-15-10.1C542.8,2755.1,535.6,2752.3,529,2754.7"/>
</g>
<g id="Layer_4">
	<path class="st0" d="M808.8,2945c-1.5,0.5-4.4,2.2-6.5,3.8c-7.5,5.9-6.6,5.7-36.4,5.7c-27.7,0-27.7,0-33.6,4.2
		c-3.3,2.3-7.2,4.5-8.8,4.9c-1.6,0.4-16.9,0.8-34,0.8c-31.1,0.1-31.1,0.1-35.5,3.3c-9.3,7-7.9,6.7-35.4,6.9
		c-13.8,0.1-26.2,0.2-27.6,0.2c-1.4,0.1-5.5,2-9,4.4c-6.4,4.2-6.4,4.2-35,4.8c-28.6,0.5-28.6,0.5-34.8,4.7
		c-3.8,2.6-8.3,4.6-11.7,5.3c-8.2,1.7-9.5,3.7-7.4,11c0.6,1.9,1.4,8.7,1.8,15c0.7,11.1,0.9,11.7,4.6,17.2c3.2,4.8,4,7.2,5.2,14.8
		c0.8,5.4,2.2,10.5,3.4,12.3c4.9,7.8,6.1,10.9,7,18.7c0.7,6.6,1.6,9.2,4.5,13.9c4.4,7.2,5.6,12.1,5.6,23.6c0,8.9,0.1,9.1,4.5,16.5
		c3.8,6.4,4.6,8.7,5.4,15.6c0.8,6.7,1.5,9.1,4.7,14.2c3.7,6,5.4,11.4,5.5,18.1c0,2.3,2.7,8.6,7.7,18.5c4.2,8.2,8.3,16.5,9.2,18.3
		c7.4,15,19.3,38.7,21.7,43.1c2.7,5.1,6.4,8.5,13.3,12.3c4.6,2.5,6.4,7,7.3,18.6c0.4,5.6,1.5,11.5,2.3,13c0.8,1.6,3.8,4.1,6.8,5.7
		c2.9,1.6,6.8,3.9,8.7,5.2c7.1,4.8,16.4,1.5,21-7.5c0.6-1.2,1.5-8,1.9-15.1c0.7-12.6,0.8-12.9,4.8-19.7c2.2-3.8,4.6-8.5,5.2-10.5
		c0.6-2,2.6-5.8,4.3-8.5c4.4-6.9,5.8-12.4,5.8-22.8c0-9.4,0.8-11.9,6.9-22.5c1.1-1.9,2.2-5.9,2.6-9c1.1-10.4,2.3-13,9.6-20.8
		c5.2-5.5,7.9-9.5,10.9-15.8c2.7-5.9,5.8-10.5,10-15.1c4.3-4.6,7.3-9.2,10.1-15.1c2.8-6.1,5.6-10.3,9.9-14.7
		c4.3-4.4,7.1-8.6,9.9-14.8c2.8-6.1,5.9-10.7,10.5-15.7c4.5-4.9,7.2-9,8.8-13.1c4.7-12.1,13-20.1,26.3-25.5c6.6-2.7,8.4-4.2,34-29.6
		c14.8-14.7,28.5-28.1,30.2-29.8s3.2-4,3.2-5.1c0-1.2-2.7-7.4-6.1-13.8c-3.4-6.5-7-14.1-8.1-17C829.9,2947.9,818.8,2942,808.8,2945"
		/>
</g>
</svg>
