<?xml version="1.0" encoding="utf-8"?>
<!-- Generator: Adobe Illustrator 27.1.0, SVG Export Plug-In . SVG Version: 6.00 Build 0)  -->
<svg version="1.1" id="Layer_1" xmlns="http://www.w3.org/2000/svg" xmlns:xlink="http://www.w3.org/1999/xlink" x="0px" y="0px"
	 viewBox="0 0 7507.7 5280" style="enable-background:new 0 0 7507.7 5280;" xml:space="preserve">
<style type="text/css">
	.st0{fill-rule:evenodd;clip-rule:evenodd;fill:#9B14E3;}
	.st1{fill:#0B0BF9;stroke:#FFFFFF;stroke-miterlimit:10;}
	.st2{fill:#F9F912;stroke:#FFFFFF;stroke-miterlimit:10;}
	.st3{fill:#F70D34;stroke:#FFFFFF;stroke-miterlimit:10;}
	.st4{fill:#8800FF;}
	.st5{font-family:'ArialMT';}
	.st6{font-size:140px;}
	.st7{fill:#7400EF;}
	.st8{fill:#7F00EF;}
	.st9{fill:#8703EF;}
	.st10{font-size:150px;}
	.st11{font-size:200px;}
</style>
<g id="Gitagum">
	<g id="Layer_13">
		<path class="st0" d="M4299.4,226.9c-7.4,8.4-8.9,10.8-12.1,19.2c-1.8,4.8-6,9.3-40.5,43.8c-21.2,21.2-38.5,38.1-38.5,37.6
			s-0.6-0.4-1.3,0.2c-0.8,0.7-9.2,1.1-24.1,1c-21.7,0-23-0.2-28.7-2.5c-7-2.9-9.6-3-13-0.7c-1.4,1-14.9,14.3-30,29.7
			c-15.1,15.4-29,29-31,30.2c-3.4,2.2-6.7,2.9-16.4,3.7c-3.4,0.3-6.4,1.4-10,3.8c-6.5,4.4-7.7,4.8-15.7,5.3
			c-3.6,0.2-7.9,0.9-9.5,1.5s-10.8,8.9-20.4,18.4c-9.6,9.5-18.4,17.8-19.6,18.4c-1.2,0.6-5.1,1.4-8.8,1.8
			c-8.3,0.8-10.3,2.4-14.5,10.9c-1.8,3.6-3.6,6.3-4.1,6s-1.4,0-2.2,0.7c-1.5,1.4-2.1,1.5-13.5,2.3c-11,0.7-19.3-0.7-25.4-4.5
			c-6.7-4.1-10.9-4-17.9,0.5c-3,1.9-6.8,3.5-8.5,3.6c-1.7,0-25.3,0.2-52.5,0.2c-49.5,0.2-49.5,0.2-54,2.8c-2.5,1.5-5.6,3.7-7,5
			s-2.6,2.2-2.8,2.1c-0.1-0.1-0.4-0.2-0.5-0.2s-2.9,0.3-6.2,0.5c-9.7,0.8-11.2,1.7-15,9.9c-3.9,8.2-5,8.8-18.3,10
			c-6.1,0.6-8.2,1.3-12.5,4.2c-2.9,1.9-7.5,4.3-10.4,5.3s-7.3,3.2-9.8,4.9c-7.9,5.5-11,6.3-22.8,6.1c-11.7-0.2-15.4,0.9-18.4,5.4
			c-1.9,2.9-1.7,4.3,3.3,16.1c3.5,8.4,4.3,9.5,16,21.1c12.9,12.9,14.8,16,14.5,24.3c-0.2,4.9,1.5,10.3,4,13.5
			c1.2,1.6,5.9,4.5,10.7,6.7c7.6,3.5,13.5,7.1,13.1,7.9c-0.1,0.2,0.3,2.1,0.9,4.3c0.6,2.2,1.3,6.7,1.6,9.9c0.4,4.6,1.3,7.1,4,11
			c5,7.3,5.6,9.6,5.9,22.4c0.2,11.5,0.3,11.7,4,17.7c2.1,3.3,4.6,8.3,5.7,11.1s3.3,7.2,4.9,9.8s4.2,7.8,5.6,11.5
			c2.1,5.4,4.3,8.6,10.9,15.8c9,9.8,66.7,67.5,78.2,78.3c6,5.6,7.5,7.8,9.9,13.9c2.2,5.5,4.5,9.1,10.1,15.3s7.9,9.7,9.9,15
			c3.6,9.4,7,13,15.2,16.2c3.7,1.4,9.6,4.4,13.2,6.6c3.6,2.2,6.9,4,7.5,4s7.2,3.1,14.8,6.8c13.8,6.8,13.8,6.8,34.9,27.7
			c18.7,18.5,21.4,21.6,24.1,27.4c1.6,3.6,4.6,9.2,6.6,12.4s3.7,6.8,3.8,8c0.4,3.1,0.5,36.1,0.2,37.7c-0.2,0.7-2.2,4.1-4.4,7.5
			c-3.4,5.1-4.2,7.3-4.8,12.9c-0.4,3.7-0.5,7-0.2,7.3c0.7,0.7-1.9,5.8-5.1,10c-1.3,1.8-3.8,6.5-5.4,10.5c-1.6,4-4,8.6-5.3,10.3
			c-3.9,5.1-4.5,9.7-4.6,32.6c0,22.8,0.5,26,4.7,31.6c4.4,5.9,5.3,9.7,5.6,22.2c0.3,11.7,0.3,12,3.8,17.2c1.9,2.9,4.5,7.9,5.7,11.1
			s3.7,8,5.6,10.7c1.9,2.7,3.7,6.2,4,7.8c0.3,1.5,0.7,12.3,0.8,23.9c0.2,21.1,0.2,21.1,3.9,26.5c5.5,8.2,6.2,9.8,6,15.6
			c-0.4,10.7,2.8,16.2,9.4,16.2c3.7,0,16-5,23.5-9.6c4.3-2.6,7.3-3.6,13.9-4.4c7-0.9,9.6-1.7,15-5c3.6-2.2,8.6-4.7,11.1-5.7
			s6.6-3.1,9.1-4.6c5.1-3.2,10.3-4.7,16.4-4.7c2.4,0,6.1-1.1,9-2.6c2.7-1.4,6.5-3.5,8.5-4.5c1.9-1,7.1-2.3,11.5-2.9
			c6.3-0.8,9.2-1.8,13.7-4.5c3.1-1.9,7.6-4.2,10-5s7.3-3.3,10.9-5.5c5.4-3.3,8-4.1,14.3-4.9c6.3-0.7,9.7-1.9,19.4-6.6
			c6.4-3.2,14.2-7.3,17.3-9.1c4.4-2.7,7.2-3.6,13.9-4.3c6.9-0.8,9.4-1.6,14.1-4.5c3.2-1.9,7.7-4.2,10.1-5.1s7.3-3.3,11-5.6
			c5.4-3.3,8.2-4.2,14.4-5c6.3-0.8,10.1-2.1,20.3-7c6.9-3.3,13.8-6.9,15.2-8c4-2.8,10.1-4.7,16.9-5.2c4.8-0.4,7.4-1.3,11.9-4.1
			c3.2-2,7.8-4.3,10.1-5.1s7.3-3.3,10.9-5.5c5.5-3.3,8-4.1,15-5c6.7-0.8,9.6-1.7,13.9-4.4c6.6-4,7.6-4.3,16.8-5.5
			c5.7-0.7,8.7-1.8,14-5c3.7-2.2,8.6-4.7,11-5.6c2.4-0.8,5.5-2.4,7-3.4c5.5-3.9,9.5-5.3,17.4-6.2c6.6-0.8,9.2-1.6,13.7-4.4
			c3.1-1.9,7.8-4.4,10.6-5.5c4.4-1.8,23.2-11.2,34-16.9c2.2-1.2,6.2-3.2,9-4.5s8.5-4.3,12.8-6.6c11.5-6.3,11.6-9.1,0.7-20.2
			c-5.1-5.2-7.4-8.4-9-12.7c-1.2-3.1-3.6-8.2-5.5-11.2c-1.8-3-4.3-7.8-5.3-10.7c-1.1-2.9-3.3-7.4-4.9-10s-3.7-6.8-4.7-9.3
			s-3.2-7-4.9-10c-1.7-3-4.3-8.2-5.7-11.5s-3.8-7.9-5.3-10.2s-2.7-4.6-2.7-5s-3.6-8.1-8.1-17c-6.6-13.3-9.3-17.6-14.9-23.8
			c-4.6-5.1-7.4-9.1-8.5-12.4c-0.9-2.7-3-7-4.7-9.7c-4.1-6.4-4.7-8.1-5.8-17c-0.7-6-1.8-8.9-4.9-14.3c-3.9-6.6-5-10.2-5.7-19
			c-0.2-2.9-1.6-6.5-3.9-10.2c-3.7-5.9-5.5-12-5.6-18.1c0-3.3-0.8-5.2-7.1-16.9c-1.6-3-2.5-6.5-2.7-10.5c-0.3-5.8-0.8-7.2-7.2-19.6
			c-1.7-3.2-1.9-6.2-2-26.7c-0.1-25.1-0.3-24.1,6.5-35.9c5-8.8,4.4-23.3-1.4-31.8c-1.7-2.5-4.2-7.3-5.5-10.6
			c-1.4-3.3-3.8-8.1-5.4-10.7c-1.6-2.5-3.8-6.9-5-9.7c-1.1-2.8-3.5-7.5-5.3-10.5c-3.1-5.1-3.3-5.9-4.1-19.9
			c-0.5-8-0.6-17.2-0.3-20.5c0.7-7.7-0.5-12.8-4.4-18.3c-5.1-7.2-6.4-12.3-5.1-20.1c0.6-3.7,1-17.9,0.8-31.7
			c-0.2-22.3,0-25.5,1.6-29.7c3.1-7.9,2-10.6-9.2-21.4c-11-10.7-15.2-13-24.3-13.7c-7.5-0.6-10.5-1.6-16.2-5.5
			c-2.3-1.6-7.1-4.2-10.7-5.8c-7.2-3.3-9.1-5.1-10.9-10.3c-1.3-3.7-1.7-105.2-0.5-126c0.3-5.8,0.1-23.3-0.6-39
			c-1.3-31.3-1.6-33-7-33C4306.9,219,4305.1,220.4,4299.4,226.9"/>
	</g>
	<g id="Layer_12">
		<path class="st0" d="M3212.6,529c-1.7,0.4-5.9,2.6-9.3,4.8c-5.2,3.5-7.2,4.2-13.1,4.8c-8.6,0.8-10.6,2.3-14.8,10.9
			c-1.8,3.6-3.6,6.3-4.1,6s-1.4,0-2.2,0.7c-1.6,1.5-2.5,1.6-16.4,2c-10.4,0.3-11.4,0.5-16,3.3c-7.9,5-8.6,5.3-14.7,7.5
			c-9.3,3.4-21.2,15.6-19.5,20.2c0.3,0.7,0.6,1.7,0.8,2.3c1.3,4.5,6.3,15,8.8,18.4c4.4,6.1,5.2,9.4,5.5,22.3
			c0.2,11.3,0.3,11.6,3.8,16.9c1.9,3,4.8,8.8,6.4,12.9c2.8,7.3,3.3,8,25,29.6c21.8,21.8,22.2,22.1,29.6,24.9
			c7.5,2.8,7.6,2.8,38,32.9c16.8,16.6,31.7,31.8,33.1,33.9c1.5,2.1,3.5,6.1,4.5,9c1.3,3.8,4,7.5,9.5,13.3
			c8.3,8.8,9.7,11.8,10.3,21.3c0.3,5,1.1,7.4,3.9,12c1.9,3.1,4,6.7,4.6,7.9c0.7,1.4,1.2,8.9,1.4,19.6c0.2,17.4,0.2,17.4,3.5,22
			c6.1,8.5,6.2,9.2,6.5,38.5c0.2,26.9,0.2,26.9,3.9,32.3c6.9,10.3,6.4,4.3,6.6,83.3c0.2,71.9,0.2,71.9,3.2,76.2
			c5.7,7.9,5.9,9.4,6.2,33.2c0.3,22,0.3,22,3.6,26.6c4.5,6.2,6.5,11.4,6.3,15.9c-0.3,5.2,1.6,11.4,4.8,16.2c1.5,2.2,3.6,6.3,4.6,9
			s3.3,7.3,5,10c1.7,2.8,4,6.7,4.9,8.8c1,2.1,3,4.6,4.4,5.8c7.1,5.5,19.4,12.8,23.3,13.8c6.3,1.7,8.5,3.9,11.8,11.9
			c1.6,4,4.1,8.7,5.4,10.5c1.3,1.8,4.3,7,6.5,11.7s4.7,9.6,5.6,11c0.8,1.4,3.1,5.9,5,10s4.2,8.6,5,10s3.1,5.9,5,10s4.1,8.6,5,10
			c0.8,1.4,3,5.7,4.9,9.5s4.6,9.3,6.1,12.1c2.1,3.9,2.8,6.8,3,12.2c0.2,6.3,0.7,7.7,4.3,13.4c2.2,3.5,4.8,8.7,5.8,11.6
			c1.3,3.9,3.6,7.3,9,13.2c5.7,6.2,7.9,9.5,10,15.1c3,8,8.2,14.7,19.8,25.6c8,7.6,10.2,9,18.9,12.3c3.5,1.3,7.7,4.2,12.2,8.4
			c3.8,3.5,7.8,6.8,9,7.4c14.2,6.7,33.3,16.3,37.9,19c4.7,2.8,7.2,3.6,13.8,4.3c5.8,0.6,9.2,1.5,12.3,3.4c12.4,7.4,9.2,7,50.7,7
			s36.3,0.8,52-7.5c1.9-1,7.1-2.3,11.6-2.8c9.8-1.1,11-1.7,19.9-10.1c3.9-3.6,9.1-7.5,11.5-8.5c12.8-5.4,13.4-5.8,34.8-27.1
			c19.7-19.6,21.8-21.4,27.9-23.9c9.9-4,13.1-6.6,33.8-27.6c15.8-16.1,19.9-19.6,24.5-21.6c9.9-4.2,11.3-5.4,33-26.8
			c20-19.7,22-21.4,28.5-24c3.9-1.6,8.6-4,10.5-5.3s12.3-11.4,23.1-22.3c18.6-18.7,20.1-20,28-23.7c10.1-4.7,13-7.6,13.4-13.2
			c0.2-3.2-0.5-5.1-3-8.8c-4-5.7-4.4-7-5.4-16.5c-0.7-6.1-1.6-8.7-4.7-13.8c-3.9-6.3-3.9-6.3-4.4-28.9c-0.5-22.7-0.5-22.7-3.9-28.1
			c-1.9-3-4.1-7-5-8.9s-3.6-7.6-6.2-12.5c-4.6-9-4.6-9-5.1-21.1c-0.4-12.1-0.4-12.1-4.9-19.5c-4.4-7.4-4.4-7.4-4.5-36.9
			s-0.1-29.5,2.6-34.5c4.8-9,5.8-10.9,8.4-16.5c1.4-3,3.7-7.5,5-10c1.7-3,2.6-6.6,3-10.8c0.4-6.1,1.6-9.2,7.8-20.7
			c1.7-3.1,2.2-6.2,2.6-13.7c0.6-14.5-0.3-19.5-4.9-27.1c-2.2-3.6-4.9-9.1-6.1-12.3c-1.8-5-4-7.6-14.8-18.4
			c-11.6-11.6-13.2-12.9-20.5-15.9c-4.4-1.8-9.6-4.4-11.6-5.7s-6.1-3.4-9.1-4.5s-7.5-3.4-10-5s-7.3-4-10.7-5.3
			c-3.3-1.3-8-3.7-10.4-5.3s-6.4-3.7-8.8-4.7c-9.6-3.7-11.5-6.4-13-18.1c-1.2-9.4-2.7-12.3-10.9-21c-5.3-5.6-7.3-8.7-10-15.3
			c-3.4-8.3-3.4-8.3-49.7-54.3c-44.3-44-46.4-46.3-49.1-52.7c-1.5-3.7-4.2-8.9-5.9-11.7s-3.7-6.6-4.4-8.5s-3.2-6.9-5.4-11
			c-4-7.3-4.1-7.8-4.7-20.1c-0.6-11-1-13.2-3.1-17c-3.7-6.4-5.3-9.6-8.9-17.4c-2.7-5.8-5.1-8.8-14-17.5
			c-11.9-11.6-13.7-14.7-14.5-24.7c-0.3-3.6-1.2-7.9-2.1-9.6c-0.9-1.7-6.9-8.5-13.3-15.1s-12.7-13.8-13.8-16.1
			c-1.1-2.2-2.6-4.5-3.4-5.1c-2.2-1.8-7.3-0.8-11.1,2.1c-2,1.5-5.1,3.1-7,3.5s-15.9,0.5-31.3,0.1c-27.9-0.6-27.9-0.6-32.9-3.8
			c-6.1-3.9-10-5-12-3.3c-0.8,0.7-1.5,0.9-1.5,0.6c0-0.4-1.9,0.6-4.2,2.2c-2.3,1.6-5.2,3.2-6.4,3.6c-3.6,1.1-7.3,4.5-9.4,8.7
			c-1.1,2.1-1.7,3.9-1.4,3.9s-0.4,1-1.5,2.2s-2,2.6-2,3.2c0,0.5-0.3,0.7-0.6,0.4s-2.2,0.1-4.2,0.9c-3,1.3-10.7,1.5-47.7,1.5
			c-25.2,0-45.6,0.4-47.6,0.9c-1.9,0.5-6.4,3-10,5.4c-6.5,4.4-6.5,4.4-31.1,3.9c-15.8-0.3-26-0.1-28.5,0.5c-2.1,0.6-6.7,3-10.3,5.4
			c-6.4,4.4-6.4,4.4-17.8,4.6c-6.3,0.1-12.2,0.5-13,0.8c-1.6,0.6-6.5,10.2-5.7,11.4c0.2,0.4-0.3,1-1.1,1.3c-0.9,0.3-1.2,1.1-0.8,1.8
			s0.3,0.9-0.4,0.4c-0.6-0.4-1.2-0.3-1.2,0.3s-1,0.7-2.2,0.5c-1.8-0.4-2-0.3-0.8,0.6c1.2,0.9,1,1.1-1.2,1.1c-1.5,0-2.8-0.5-2.8-1.1
			s-0.6-0.9-1.2-0.7c-1.5,0.5-2.1,0-11.1-8.4c-5.5-5.1-8.6-7.2-13.6-8.9c-5.9-2.1-7.7-3.5-19.2-14.9c-12.4-12.3-12.7-12.7-13.8-18.6
			c-2.3-12-2.8-13.2-6.4-14.9C3226.3,527.9,3218.2,527.6,3212.6,529"/>
	</g>
	<g id="Layer_11">
		<path class="st0" d="M3063.2,598.9c-5.8,1.2-10,4.4-21.6,16.5c-9.7,10-11.3,12.2-13.8,18.6c-2.8,7.2-2.8,7.2-75.6,80.1
			c-72.9,72.8-72.9,72.8-79.2,74.9c-3.6,1.2-7.7,3.4-9.5,5.2c-2.8,2.7-7.2,12-7.2,15.1c0,1.6-24,25.7-27.3,27.5
			c-1.6,0.8-5.4,1.7-8.5,1.9c-9.5,0.8-11.5,1.4-16.7,5c-6.7,4.6-10.1,5.4-22.5,5.4c-10.6,0-10.6,0-17.3,4.4
			c-7.4,4.8-10.8,5.6-24.7,5.4c-9.3-0.1-11.9,1.1-21.5,10.2c-5.1,4.9-8.7,7.3-13,8.9c-3.2,1.2-8.8,4.1-12.3,6.4
			c-6.4,4.2-6.4,4.2-18.6,4.3c-15.4,0.1-16.7,0.8-30.7,14.9c-6.7,6.8-12.6,11.7-16.2,13.7c-3.2,1.7-5.8,3.4-5.8,3.7
			c-0.6,4.6-0.3,7.1,1.3,9.3c3.3,4.7,4.8,9.7,5.2,16.3c0.3,5.4,1,7.5,4.4,13.2c4.5,7.6,5.7,10.8,5.4,14.1c-0.1,1.2,0.3,4.7,0.9,7.8
			c1,4.8,2.1,6.6,8.2,13.1c4.3,4.7,8,9.7,9.5,13.2c4.7,10.7,5.9,12.6,11.8,18.6c4.4,4.3,8.3,7,14.5,9.9c7.4,3.4,10,5.4,20,15.2
			c11.9,11.6,13.9,13.1,23.5,16.6c4.6,1.7,7.7,4.2,16.5,12.8c8.7,8.5,11.4,11.8,13.5,16.7c4.5,10.4,6.1,12.9,10.5,16
			c4.2,3,4.2,3,25.7,3.2c13.4,0.1,22.8,0.6,25,1.4c2.1,0.7,6.5,4,10.3,7.8c5.5,5.4,7.3,8,9.6,14c2.2,5.6,4.5,9.1,9.7,14.8
			c5,5.4,8,9.9,11.1,16.6c3.2,6.7,5.7,10.5,9.5,14.2c5.2,5,8.7,10.6,11,17.8c0.7,2.2,4.2,7,8.2,11.3c5.2,5.6,8,9.8,11,16.2
			c2.8,6.1,5.7,10.4,9.8,14.7c5.8,6.1,8.8,10.8,11,17.8c0.7,2.2,4.3,7.2,8.6,11.7c5.7,6.2,8,9.6,10.2,15.2
			c2.5,6.4,4.1,8.6,14.5,19.3c11.3,11.6,14.3,15.9,16.8,23.8c0.7,2.2,4.3,7.2,8.5,11.7c5.7,6.2,7.9,9.5,10,15s4.3,8.8,10,15
			c5.6,6.1,8,9.7,10.2,15.1c2.1,5.4,4.6,9.1,10,14.9c5.2,5.7,7.8,9.6,9.8,14.6c2.8,7,4.9,10.3,10.4,16.1c1.7,1.8,5,5.6,7.3,8.3
			c2.5,2.9,4.7,4.8,5.5,4.5c0.7-0.3,1.4-0.1,1.4,0.5s0.6,0.7,1.8,0.1c1.8-1,2.4-1.1,4.5-1.1c0.7,0,4.8-2,9.2-4.5s10.6-5.5,13.9-6.7
			c4.3-1.6,7.9-4,13.1-8.8c6-5.5,9.8-8,22.6-14.2c8.5-4.1,16.4-7.8,17.6-8.2c1.2-0.4,5.8-4,10.2-8c5.9-5.4,9.7-8,14.7-10
			c3.7-1.5,8-3.6,9.5-4.6c1.5-1.1,6.6-3.7,11.2-5.9c6-2.7,10.5-5.8,15.1-10.1c4.6-4.3,9.2-7.3,15.1-10.1c6-2.8,10.3-5.7,14.7-9.8
			c5.7-5.5,12.7-10.1,15.2-10.1c0.6,0,3.9-1.7,7.5-3.8c3.6-2.1,9.5-5.1,13.3-6.6c4.7-2,9.1-5,14.2-9.6c5.3-4.8,9.4-7.5,14.1-9.4
			c3.7-1.5,8.5-3.9,10.8-5.4s7.2-4,10.9-5.6c4.9-2,8.9-4.8,14.3-9.8c5.5-5.1,9.3-7.7,14.1-9.7c3.7-1.5,7.3-3.7,8.1-4.9
			c1.3-2,1.2-2.4-2-5.4c-1.9-1.8-5.9-5.4-9-8c-5-4.2-6.4-6.4-13.2-20.1c-4.2-8.4-7.6-15.7-7.6-16.2s-1.8-3.9-4.1-7.6
			c-3.3-5.5-4.3-8.3-5.4-15.8c-1.1-7.1-2.1-10.3-4.9-14.8c-4.3-7.1-4.7-9.9-5-33.9c-0.2-19.1-0.2-19.1-4-24.7
			c-4.3-6.2-6.3-12.4-5.9-17.7c0.7-7.4,0.9-113.1,0.3-124.1c-0.6-11.2-0.8-11.8-4.5-17.8c-2.1-3.4-4.3-7.7-4.8-9.4
			c-0.6-1.8-0.9-13.7-0.9-27.7c0.1-24.5,0.1-24.5-2.9-30c-7.4-13.4-7.3-13-7.2-29.6c0.1-15.1,0.1-15.2-2.9-20.6
			c-5.8-10.4-7-13.7-7.5-20.3c-0.6-8.3-2-10.9-10.3-20c-4.7-5.2-7.3-9-9-13.3c-3.6-9.6-7.1-13.9-27.1-33.5
			c-16.2-15.9-19.8-19-25.7-21.7c-3.8-1.8-8.1-3.9-9.5-4.6c-1.4-0.8-16.5-15.2-33.4-32.1c-30.8-30.8-30.8-30.8-37.3-43.3
			s-6.5-12.5-7.2-25.2c-0.7-12.1-0.8-12.9-4-18c-1.8-2.9-4.6-7.6-6.2-10.4c-1.6-2.9-4-5.6-5.6-6.4
			C3077.1,598.5,3068,597.9,3063.2,598.9"/>
	</g>
	<g id="Layer_10">
		<path class="st0" d="M2575.8,917.3c-3.9,1.6-8.9,4.2-11.2,5.8s-6.1,3.7-8.5,4.7c-5,2.2-6.2,3.5-10.3,11c-4.2,7.9-7.2,9.2-22.7,9.8
			c-14.1,0.5-15.7,1.1-24.1,9.2c-8.2,7.9-10.5,12.1-11,20.7c-0.2,3.9-1.1,8.6-1.9,10.5c-0.9,2.1-21.2,23.1-53.8,55.5
			c-46.8,46.6-52.8,52.2-56.9,53.4c-8.3,2.4-11.6,4.8-27.6,21.1c-8.8,8.9-17.1,16.7-18.4,17.5c-1.4,0.7-5,1.6-8,2
			c-8.8,1.1-10.8,2.3-13.7,8c-2.7,5.5-14.1,17.8-18.6,20.2c-1.5,0.8-6.5,1.8-11.2,2.3c-5.6,0.6-9.6,1.6-11.8,2.9
			c-5.2,3.2-24.6,23.5-26.2,27.3c-0.8,1.9-1.7,6.9-2.1,11.2c-0.6,6.6-1.2,8.6-4.2,13c-6.2,9.1-6.1,8.6-6.2,41.4
			c0,24.3-0.3,30.9-1.5,33.7c-0.8,2-1.3,3.6-1,3.6c0.2,0-0.3,0.8-1.3,1.9c-1,1-2,1.8-2.2,1.8c-1.8-0.2-10.1,4.6-11.3,6.5
			c-1.2,2-3.1,13.3-2.7,16.2c0.1,0.5-0.3,1.2-0.8,1.5c-2,1.4-7.1,9.9-8.6,14.6c-0.9,2.8-3.2,7.4-5.1,10.2c-1.9,2.9-4.5,7.8-5.6,11
			c-1.8,4.8-4.1,7.8-13.9,17.8c-6.4,6.6-12.6,13.6-13.6,15.5c-1.6,3-1.9,5.8-1.9,20.7c0,17.2,0,17.2-4.6,24.3
			c-4.3,6.6-4.7,7.8-5.3,15.4c-0.9,10.5-2,12.3-16.1,25.9c-9.8,9.4-11.9,10.9-18.2,13.3c-8.9,3.3-13.1,7.6-16.1,16.7
			c-1.8,5.3-3.3,7.6-7.7,11.9c-6.2,6-9.2,10.7-12.4,19.1c-1.6,4.2-3.8,7.4-7.9,11.5c-7.1,7-9.2,10.2-11.7,17.2
			c-1.6,4.6-3.9,7.6-14.1,18.1c-6.7,6.9-13,14.1-14,16c-1.4,2.6-1.9,5.9-2.1,15c-0.1,6.4-0.7,12.9-1.3,14.5
			c-0.6,1.6-11.2,12.9-23.5,25.1c-21.3,21.2-22.7,22.4-29,24.7c-8.5,3.1-11,5.4-15.2,14.5c-1.9,4.1-4.3,8.7-5.5,10.3
			c-3.1,4.3-3.4,8.9-0.8,11.3c2.8,2.5,19.6,3.6,51.1,3.3c23.6-0.3,23.6-0.3,29,3.3c7.7,5.1,8.1,5.2,22.2,5.9
			c12.8,0.6,12.8,0.6,18.6,4.8c3.2,2.3,7.7,4.6,10.1,5.3c2.7,0.7,12.8,1.1,28.4,1c13.3-0.1,25.1,0.2,26.2,0.6c1.1,0.4,3.8,2,6,3.5
			c6.4,4.3,10.1,5,24.6,4.9c17.7-0.2,20.2,0.6,29.9,9.6c6,5.6,9.2,7.7,14.9,10c6.6,2.6,8.5,4,19.5,15c11.4,11.4,12.6,12.3,20.6,15.5
			c7.9,3.1,9.2,4.1,17.5,12.8c10.2,10.7,14.2,13.6,23.7,17.6c5.4,2.3,8.2,4.4,15,11.3c11.6,11.9,16.6,15.7,25,18.9
			c6.6,2.5,8.2,3.7,17.1,13c9.7,10.1,16.1,14.6,24.9,17.4c2.6,0.8,7,4.5,14.5,12.2c11.4,11.6,15.2,14.4,24.6,17.9
			c4.2,1.6,7.9,4.1,13.6,9.5c6.1,5.7,9.2,7.8,14.2,9.6c5.5,2,8,3.9,18.2,13.7c10.6,10.1,12.9,11.9,21.4,15.8
			c7.4,3.4,10.9,5.8,15.2,10.2c12.8,13.1,18.6,17.8,25.1,20.2c5.5,2,8.1,4,18.3,13.8c10.3,9.9,13.1,12,20.5,15.4
			c8.6,3.9,8.6,3.9,65.6,60.7c39,38.9,57.9,57,59.8,57.5c3.5,0.8,6.6-0.8,7.1-3.7c0.2-1.2,0.9-5.1,1.5-8.7c0.8-4.6,2.1-7.9,4.7-11.7
			c3-4.3,3.8-6.7,5-14.4c1.1-7.5,2.1-10.4,5.4-15.8c2.2-3.7,4.7-8.5,5.5-10.7s3.1-6.7,5-9.9c2-3.3,3.6-6.6,3.6-7.5
			c0.2-8.6,2.1-15.6,5.9-22c3.5-5.8,4.3-8.1,5.1-15.2c0.8-6.7,1.6-9.4,4.4-13.9c4.1-6.7,4.4-7.6,5.6-16.9c0.7-5.7,1.8-8.6,5-14
			c3.4-5.7,4.2-8,5-15c0.8-6.9,1.6-9.3,4.6-14.3c3-4.8,3.9-7.7,5-15c1.1-7.4,2.1-10.3,5.4-15.7c2.2-3.7,4.7-8.6,5.5-11s3.1-6.9,5-10
			c2.8-4.6,3.6-7.3,4.4-14c0.8-6.9,1.6-9.4,5-15s4.2-8.1,5-15.1c0.8-6.8,1.6-9.4,4.5-14c1.9-3.1,4.4-8,5.5-10.7s3.6-7.7,5.6-11
			s4.1-7.5,4.7-9.5s2.8-6.4,4.9-10c2.1-3.6,4.5-8.6,5.5-11.3c1.1-3,4.4-7.6,8.9-12.6c4.4-4.7,7.9-9.7,9.1-12.7
			c1.1-2.7,3.2-7.1,4.7-9.9s4.5-8.7,6.7-13.2c2.7-5.6,6-10.5,10.7-15.6c5.3-5.7,7.5-9.1,9.7-14.7s4.4-8.9,9.3-14.2
			c4.5-4.8,7.4-9,9.6-14.1c1.8-4,4.8-10.2,6.8-13.8c2-3.6,4.1-8.2,4.8-10.2c0.7-2.2,4.2-7.1,8.5-11.7c5.6-6.1,8-9.6,10.1-15
			s4.5-9,10.3-15.4c5.7-6.3,8.2-9.9,10-14.7c1.3-3.5,3.7-8.4,5.2-10.9s3.5-6.5,4.5-9c2.5-6.5,4-8.7,11.4-16.5
			c5-5.3,7.2-8.7,9.4-14.2c2.1-5.5,4.5-9.1,9.6-14.7c4.7-5.2,7.7-9.6,9.6-14.3c1.6-3.7,4.3-9.3,6.1-12.3s4-7.7,4.9-10.3
			c1.1-3.3,3.8-7.2,8.6-12.3c5.3-5.7,8-9.8,11.3-16.8c2.4-5.1,4.3-10.6,4.3-12.2s-2-7.1-4.4-12.3c-3.4-7.3-5.9-11-11.2-16.5
			c-4.9-5.1-7.5-8.7-9.2-13c-2.8-7.2-6.5-12.8-11.5-17.5c-2.3-2.1-5.4-7.1-8-12.7c-3.2-6.8-6.1-11.1-11.3-16.7
			c-5.3-5.8-7.6-9.2-9.8-14.7c-2.1-5.4-4.5-9-9.2-14.1c-4.6-5-7.6-9.5-10.8-16.5c-4-8.6-5.5-10.6-15.1-20.2
			c-9.1-9.1-11.2-11.8-14.4-18.8c-2.7-5.8-5.8-10.3-10.8-15.7c-4-4.4-7.5-9.1-8.2-11.3c-2.3-7.2-5.2-11.8-12-18.9
			c-4-4.3-7.3-8.7-8-11c-2.4-7.3-5.3-11.9-12-19c-4-4.2-7.3-8.7-8-11c-2.2-6.9-5.7-12.8-10-16.9c-5.5-5.3-9.1-10.7-12-18
			c-1.7-4.1-4.4-8.1-9-13c-3.7-3.9-7.8-9.3-9.2-12c-4.6-9.1-4.1-9-27.1-9.3c-14.9-0.2-21.2-0.7-24.3-1.8c-2.9-1.1-7.4-4.9-15.5-13.2
			c-10-10.3-11.7-12.5-13.8-18.2c-3.1-8.6-8.4-14-17.1-17.1c-5.7-2.1-8-3.8-18.7-14.1c-10.7-10.3-13.2-12.3-20.8-15.8
			c-8.2-3.8-9.5-4.8-24.3-20.1c-14-14.4-16.2-17-19.8-24.6c-2.9-6-5.9-10.3-10.2-14.7c-6.6-6.6-9.4-12-9.4-17.6
			c0-6.2-1.7-11.9-5.4-17.4c-2.9-4.4-3.8-7-4.9-14.6c-1-6.6-2.1-10.4-3.9-13.1c-1.4-2.1-4.3-7.7-6.5-12.3
			C2590.3,912.5,2588.6,912,2575.8,917.3"/>
	</g>
	<g id="Layer_9">
		<path class="st0" d="M4553.8,1067.4c-1.6,0.7-5.8,3.2-9.3,5.4c-3.5,2.3-8,4.6-10,5.3c-2,0.6-6.6,2.9-10.2,5s-8.5,4.6-11,5.4
			c-2.5,0.9-6.6,2.9-9.1,4.6c-2.6,1.6-7.3,4-10.6,5.3c-3.3,1.3-8.3,4-11.2,6s-6,3.7-6.9,3.7c-10.3,0.3-17.2,1.9-21.4,4.8
			c-2.5,1.7-7,4-10,5.2c-3,1.1-7.4,3.4-9.7,5.1c-5.7,4.2-8.5,5.1-16.6,5.6c-5.3,0.3-8,1.1-11.3,3.1c-8.7,5.4-11.1,6.3-18.1,6.7
			c-6.8,0.4-11.7,2.1-15.2,5.2c-0.9,0.8-4.9,2.8-8.8,4.3c-3.9,1.6-9.2,4.4-11.8,6.2c-5.3,3.7-5.2,3.6-14.7,4.3
			c-5.8,0.4-8,1.2-13.5,4.5c-3.6,2.2-8.6,4.7-11,5.5c-2.5,0.9-6.8,3.2-9.7,5.1c-4.3,2.9-6.6,3.7-13,4.5c-10.6,1.2-11.4,1.5-15.9,4.6
			c-2.2,1.5-7,4-10.7,5.5s-8.9,4.3-11.5,6c-5.3,3.7-6.2,4-11.4,3.8c-5.8-0.2-12.8,1.8-16.5,4.6c-1.9,1.4-6.5,3.9-10.4,5.4
			s-8.5,4-10.3,5.3c-4.6,3.5-8.3,4.7-16,5.2c-6.5,0.4-11.4,2.1-14.9,5.1c-0.9,0.8-4.9,2.8-8.8,4.3c-3.9,1.6-9.2,4.3-11.7,6.1
			c-3.8,2.6-6.1,3.3-13.2,4.1c-8.6,0.9-9.5,1.3-20.1,8.1c-1.7,1.1-5.8,2-10.6,2.4c-7.7,0.6-12.2,2.1-15.6,5.1
			c-0.9,0.8-4.9,2.8-9,4.4c-4,1.6-8.8,4.1-10.5,5.4c-3,2.3-8.2,4.9-9.4,4.7c-0.3,0-3.7,0.3-7.6,0.7c-5.7,0.6-8.4,1.6-13.9,4.9
			c-3.8,2.3-7.6,4.1-8.5,4.1s-5,2-9.1,4.5s-9.8,5.2-12.7,6c-4.2,1.2-7.1,3.2-14.3,10c-5,4.7-9.5,8.5-10,8.5s-3.5,1-6.7,2.1
			c-5.2,1.9-8.1,4.4-28.3,24.4c-17.6,17.4-23.4,22.5-26.5,23.5c-8.8,2.8-12.6,5.8-34,27c-21.6,21.3-22.1,21.8-29.5,24.5
			s-7.9,3.2-30,25c-17.6,17.4-23.4,22.5-26.5,23.5c-8.8,2.8-12.6,5.8-34,27c-19.8,19.6-22.6,22-27.8,23.9c-3.2,1.2-6.1,2.1-6.5,2.1
			s-1.8,0.9-3.1,1.9c-4.8,3.7-2.7,12.3,6.1,25.9c2.6,4.1,4.1,7.5,4.2,9.8c0.1,1.9-0.1,3.4-0.4,3.4c-0.3,0-1.7,2.1-3.1,4.7
			c-3.3,5.9-3.1,9.6,0.8,15.9c1.7,2.7,3.8,7.2,4.7,10c2.3,7.1,9.3,15,39.9,45.1c22.4,22,26,26,28.2,31c4.9,11.3,6,12.9,16.9,24.1
			c11.8,12.1,12.6,13.2,15.1,20.5c1.1,3.2,4,7.3,8.9,12.7c5.9,6.4,7.9,9.5,10.6,16.2c3.1,7.6,4.3,9.3,14.3,19.4
			c6.9,7,12.1,13.3,14,17c4.2,7.9,6.8,8.8,13.3,4.6c2.7-1.7,7.3-4.1,10.3-5.2s7.5-3.4,10-5s6.5-3.6,8.9-4.4s6.9-3,10-4.8
			s8.8-4.6,12.7-6.3c3.9-1.7,8.5-4.1,10.2-5.3c1.7-1.2,5-2.9,7.4-3.7c2.4-0.8,6.9-3.1,10-5s7.6-4.2,10-5s6.8-3,9.9-4.9
			c3-1.9,8-4.4,11-5.5c3-1.2,7.5-3.4,10-4.9s6.5-3.5,9-4.5s7.4-3.5,11-5.6s8.1-4.3,10.1-5c2-0.6,5.8-2.6,8.5-4.3
			c2.7-1.7,7.5-4.2,10.8-5.4c3.2-1.3,8-3.7,10.5-5.3c2.6-1.6,6.6-3.7,9-4.5c2.4-0.8,6.9-3,10-4.8s8.4-4.4,11.8-5.9
			c3.4-1.4,7.6-3.6,9.3-4.8c1.7-1.2,5.9-3.3,9.3-4.7c3.4-1.4,7.4-3.3,8.7-4.3c5.3-3.7,9.4-5.2,17.2-6.1c6.6-0.8,9.2-1.6,13.7-4.4
			c3.1-1.9,7.8-4.4,10.6-5.5c4.4-1.8,22.4-10.8,34-16.9c2.2-1.2,11-5.5,19.5-9.7s17.5-8.7,20-10c6.8-3.7,29.5-14.5,30.4-14.5
			c0.4,0,2.8-1.4,5.3-3.1s7.2-4.2,10.5-5.4c3.3-1.3,8.1-3.6,10.7-5.2s6.7-3.7,9.2-4.6s7-3.3,10-5.1c3-1.9,7.8-4.3,10.5-5.4
			c4.6-1.9,24.4-11.8,34-17c2.2-1.2,6.5-3.3,9.5-4.6s7.1-3.3,9-4.4s6.4-3.4,10-5c3.6-1.7,8.5-4.1,11-5.5s7.2-3.8,10.5-5.4
			s7.8-3.8,10-5s7.5-2.5,11.8-3.1c6.2-0.8,9-1.7,13.5-4.5c3.1-1.9,8.2-4.5,11.2-5.7s7.5-3.4,10-5s6.5-3.6,9-4.5s6.9-3.1,10-5
			c3-1.9,8-4.4,11-5.5c3-1.2,7.5-3.4,10-5s6.5-3.6,9-4.5s6.9-3.1,10-5c3-1.9,8-4.4,11-5.5c3-1.2,7.5-3.4,10-5s6.5-3.6,9-4.5
			s6.9-3.1,10-4.9c3-1.9,8.3-4.5,11.7-5.9c3.4-1.4,7.5-3.4,9-4.5s5.6-3.1,9.2-4.6s8.5-3.9,11-5.6c2.6-1.6,6.7-3.7,9.1-4.5
			c2.5-0.9,6.9-3.1,10-4.9c3-1.9,8.2-4.5,11.5-5.8s8.2-3.9,10.9-5.6c2.7-1.7,6.5-3.7,8.5-4.3c2-0.6,6.5-2.9,10.1-5s8.4-4.3,10.8-4.9
			c5.5-1.4,11.9-7.2,13.3-12c1.2-4.1,1.1-4.4-4.5-13.5c-2.8-4.5-2.9-5.3-3-16.9s-0.2-12.3-3.1-17c-4.5-7.4-5.2-8.6-8.4-15.6
			c-1.6-3.6-3.9-8.1-5-10s-3.4-6.4-5-10c-1.7-3.6-4.1-8.5-5.5-11c-1.6-2.9-2.8-7.3-3.4-12.3c-0.8-6.3-1.7-9.1-4.9-14.5
			c-2.2-3.7-4.5-8.3-5.1-10.3s-2.5-5.7-4.1-8.3c-1.6-2.6-4.1-7.5-5.5-10.8s-3.8-8.2-5.5-10.7c-1.6-2.6-3.7-6.7-4.6-9.1
			c-0.9-2.5-3.3-7.4-5.4-11s-4.4-8.1-5-10.1s-2.5-5.7-4.2-8.4c-1.7-2.6-4.1-7.8-5.5-11.4c-3-7.9-6.1-11.9-17.3-22.6
			c-7.3-7-9-9.2-12.7-17.2c-3.2-6.8-6.1-11.1-11.1-16.6c-4.6-4.9-7.4-9-8.6-12.4c-1-2.8-3.3-7.5-5.2-10.4c-1.9-2.9-4.4-8.2-5.5-11.6
			c-1.2-3.5-2.5-6.1-3-5.8c-0.5,0.3-0.9,0.1-0.9-0.5C4561.3,1065.6,4557.4,1065.8,4553.8,1067.4"/>
	</g>
	<g id="Layer_8">
		<path class="st0" d="M3355.2,1292c-2.9,2.2-8.4,5.2-12.2,6.6c-5.3,2-8.6,4.2-14.6,9.9c-5.7,5.3-9.3,7.8-13.6,9.4
			c-3.2,1.2-8.4,3.7-11.4,5.6c-3.1,1.9-8.2,4.4-11.4,5.5c-4.3,1.6-7.9,4.1-13.6,9.4c-5.7,5.4-9.3,7.9-13.7,9.5
			c-3.3,1.2-8,3.5-10.5,5.1s-6.4,3.6-8.6,4.3c-7.4,2.6-10.7,4.8-17.8,11.6c-5.6,5.4-8.5,7.3-14.4,9.5c-5.9,2.3-8.8,4.2-14.7,9.7
			c-5.2,4.9-9,7.6-13.3,9.3c-3.3,1.3-8.7,4-11.8,5.9c-3.2,2-8.4,4.5-11.6,5.7c-4.3,1.6-8,4.2-14.1,9.8c-5.9,5.5-9.6,8.1-12.7,9
			c-2.4,0.7-6.9,2.8-9.9,4.6c-3,1.8-8.6,4.6-12.4,6.1c-5.3,2.1-8.7,4.4-14.2,9.7c-5.5,5.2-9,7.6-14.3,9.8
			c-8.1,3.3-19.4,10.6-18.5,12c0.3,0.5,0.1,0.9-0.5,0.9c-2.9,0,0.8,10.4,6.7,19.3c1.6,2.3,3.9,6.8,5.1,10c1.3,3.1,3.5,7.6,5,10
			s3.7,6.9,5,10s3.5,7.6,5,10s3.7,6.9,5,10s3.5,7.7,5.1,10.1c1.5,2.4,3.7,7,4.9,10.1c1.2,3.2,3.4,7.7,5,9.9c1.5,2.3,3.8,6.7,5.1,9.9
			c1.3,3.1,3.5,7.7,5,10.1s3.7,7,4.9,10.1c1.2,3.2,3.5,7.7,5.1,10.1s3,4.7,3,5.1c0,0.9,10.9,23.6,14.6,30.3c1.4,2.5,4.5,8.7,7,13.9
			c2.5,5.2,5.3,10.6,6.3,12s2.8,5.2,4,8.5c1.2,3.2,3.5,7.8,5.1,10.1c1.6,2.3,3.8,6.5,4.9,9.3c1.1,2.8,3.3,7.3,4.9,9.9
			c1.6,2.6,3.9,7.4,5.1,10.7c1.2,3.2,3.5,7.7,5,10s3.6,6.2,4.5,8.6c1,2.5,3.4,7.4,5.5,11s4.4,8.3,5.1,10.5c0.7,2.2,2.7,6.2,4.4,9
			s4.2,7.6,5.5,10.7s3.5,7.6,5,10s3.7,6.9,4.9,10.1s3.5,7.7,5,10s3.9,6.8,5.1,9.9c1.3,3.1,3.5,7.6,5,10s3.6,6.5,4.6,9.3
			c1,2.7,3.4,7.4,5.2,10.3s4.2,7.5,5.2,10.2s3.2,7,4.8,9.7c1.6,2.6,3.9,7.5,5.2,10.7c1.2,3.2,3.1,7.2,4.2,8.7
			c1.1,1.6,3.4,5.9,5.1,9.6s4.5,9.2,6.3,12.3s3.8,7.3,4.5,9.5s2.7,6.2,4.4,9s4.2,7.6,5.5,10.7s3.5,7.6,5,10s3.5,6.5,4.5,9.3
			s2.9,6.6,4.1,8.6c1.9,3,8.5,15.7,14.5,28.2c6.4,13.1,14,27.2,14.7,27.1c0.5-0.1,1.4,0.3,2.1,0.9c0.9,0.7,2.3,0.4,5-1.1
			c2.1-1.2,6.2-3.3,9.3-4.6c3-1.4,7.2-3.4,9.2-4.5c2.1-1.1,5.4-2.9,7.5-3.9c2.1-1.1,6.2-3.1,9.2-4.5s7.5-3.6,10-5s7.2-3.8,10.5-5.4
			s7.8-3.8,10-5c2.3-1.2,7.6-2.6,12.4-3.1c7.2-0.9,9.3-1.6,14.6-5c3.4-2.2,6.6-4,7.1-4c0.8,0,24.5-11.8,35.9-17.8
			c2.2-1.2,6.7-3.4,10-5s7.8-3.9,10.1-5.1c2.4-1.3,7.3-2.5,11.8-3c6.2-0.7,8.9-1.6,14.4-4.8c3.7-2.2,7.9-4.3,9.2-4.7
			c1.4-0.4,5.4-2.4,9-4.4s8.9-4.6,11.8-5.8c2.9-1.2,7.8-3.7,11-5.6s6.8-3.8,8.2-4.2c1.4-0.4,7-3.1,12.5-5.9s11.2-5.6,12.5-6.2
			c1.4-0.6,4.8-2.5,7.5-4.3c4-2.5,6.7-3.4,13.3-4.1c6.4-0.7,9.5-1.7,14-4.2c3.1-1.8,8.5-4.5,11.8-5.9c3.4-1.4,7.5-3.6,9.2-4.8
			s6.1-3.4,9.9-5c3.8-1.6,8.6-3.9,10.8-5.3s6-3.2,8.5-4.2s7.5-3.5,11.1-5.7c5.5-3.3,8-4.1,14.9-4.9c6.8-0.8,9.4-1.6,14.1-4.5
			c3.2-1.9,7.7-4.2,10.1-5.1c2.4-0.8,7.2-3.2,10.8-5.3s8.1-4.3,10.1-5c2-0.6,5.8-2.5,8.4-4.2c2.6-1.7,7.1-3.9,9.9-5
			c2.8-1.1,8.1-3.8,11.7-5.9c5.4-3.3,8-4.1,15-5c6.4-0.8,9.8-1.8,13.9-4.2c3-1.8,8.3-4.4,11.7-5.8s7.5-3.6,9.2-4.8s6.2-3.5,10.1-5.1
			s8.4-3.8,9.9-4.9c1.6-1.1,5-3,7.7-4.1c6.2-2.6,8.1-4.4,8.9-8.1c1.5-6.8-1.1-11.4-14.5-25.3c-11.2-11.6-12.9-13.8-15.4-20.3
			c-2.2-5.6-4.5-9-10.2-15.2c-5.8-6.3-7.9-9.5-10.1-15.2c-2.5-6.5-4-8.5-14.9-19.8c-11-11.3-12.4-13.3-15-19.9
			c-3.7-9.6-7-13.5-39.4-45.4c-26.1-25.7-27.4-27.1-31.2-35c-2.2-4.5-5.3-10.6-6.8-13.5c-3.2-5.9-3.2-8.9-0.3-15.5
			c2.4-5.4,2-11.1-1.1-17.2c-3.6-7.1-6-8.9-11.6-8.9c-3.6,0-5.7,0.7-9,3c-9.9,7-6.4,6.5-53.7,6.5c-23.6,0-44.3-0.4-46.1-0.9
			s-5.2-2.3-7.6-4c-4.4-3-12.2-5.4-16.1-5c-3.2,0.4-9.5-2.1-14.8-5.7c-2.6-1.8-6.4-3.8-8.5-4.4s-6.7-2.9-10.3-4.9
			c-3.6-2.1-8.7-4.6-11.3-5.6c-3-1.1-7.9-4.6-12.9-9.1c-6.3-5.7-9.7-7.9-15.2-10c-6.8-2.6-7.9-3.5-29.2-24.8
			c-21.5-21.5-22.1-22.3-24.9-29.5c-2.2-5.9-4.2-8.9-9.5-14.5c-5.5-5.8-7.9-9.6-13.4-20.7c-5.8-11.7-6.8-14.6-7.2-20.5
			c-0.4-5-1.2-8.1-3.1-11.4c-1.5-2.5-3.7-6.8-5-9.5c-2.6-5.5-4.9-10-8.1-16c-1.2-2.2-3.2-6.5-4.6-9.5c-1.3-3-3.6-7.5-5-10
			s-3.8-7.2-5.4-10.5c-5.7-12-11.3-21.5-13.2-22.5c-1-0.6-3.9-1-6.3-1C3361.3,1288,3359.5,1288.7,3355.2,1292"/>
	</g>
	<g id="Layer_7">
		<path class="st0" d="M4707.3,1405.9c-3.6,1.1-8.7,3.8-13.3,7.1c-2.2,1.6-6.5,3.8-9.6,5s-7.7,3.4-10.3,5.1c-2.5,1.6-7.5,4.1-11,5.4
			c-3.5,1.4-8.1,3.6-10.2,5.1c-2.1,1.4-5.7,3.2-8,4s-7.1,3.2-10.7,5.4c-3.6,2.2-8.4,4.6-10.7,5.4c-2.3,0.8-7.2,3.3-10.9,5.5
			c-3.7,2.2-7.5,4.1-8.4,4.1s-4.7,1.9-8.5,4.2c-3.8,2.3-9.6,5.2-12.9,6.5s-7.6,3.4-9.6,4.8c-2,1.3-6,3.4-9,4.6s-7.6,3.5-10.1,5.1
			s-7.4,4-10.7,5.3c-3.4,1.3-7.5,3.4-9.1,4.6s-5.8,3.2-9.1,4.6c-3.4,1.3-8.2,3.8-10.9,5.4c-2.6,1.7-7.6,4.2-11.1,5.5
			c-3.5,1.4-8,3.6-10.1,5s-6.2,3.4-9.2,4.5s-7.3,3.4-9.6,5c-4.3,3.1-8.9,5.4-10.4,5.1c-0.4-0.1-4.2,0.2-8.3,0.7
			c-5.7,0.7-8.3,1.6-11.1,3.7c-2,1.5-6.7,4-10.5,5.6c-3.8,1.5-8.8,4.1-11.1,5.7c-2.3,1.6-6,3.5-8.2,4.1c-2.2,0.7-6.9,3-10.5,5.1
			s-8.4,4.5-10.8,5.4s-6.9,3.1-10,5s-7.6,4.2-10,5s-6.9,3.1-10,5s-7.6,4.2-10,5s-6.9,3.1-10,5s-7.6,4.2-10,5s-6.9,3.1-10,5
			s-7.6,4.2-10,5s-6.9,3.1-10,5s-7.7,4.2-10.1,5.1c-2.5,0.9-6.6,2.9-9.1,4.6c-2.6,1.6-7.4,4.1-10.7,5.4c-3.3,1.3-8,3.7-10.4,5.3
			c-2.4,1.6-6.1,3.5-8.3,4.2c-2.2,0.7-6.6,2.8-9.8,4.7c-3.2,1.9-8.4,4.5-11.7,5.8c-3.2,1.3-7.8,3.6-10.2,5.3
			c-2.4,1.6-6.1,3.5-8.3,4.2c-2.2,0.7-6.6,2.8-9.8,4.7c-3.2,1.9-8.5,4.5-11.7,5.8s-7.4,3.4-9.2,4.8c-4.7,3.6-7.9,4.6-17.4,5.6
			c-6.8,0.7-9,1.4-11.9,3.6c-2,1.5-6.4,3.8-9.8,5.2c-3.4,1.4-8.7,4-11.7,5.9s-7.5,4.1-10,4.9c-2.5,0.9-6.5,2.9-9,4.5s-7,3.9-10,5
			s-7.6,3.5-10.1,5.1s-7.3,4-10.5,5.3s-8.5,4-11.8,6s-6.7,3.6-7.6,3.6c-0.9,0-4.7,1.9-8.5,4.2c-3.8,2.3-9.4,5.2-12.4,6.4
			c-3.1,1.2-8.2,3.9-11.5,5.8c-3.3,2-6.7,3.6-7.6,3.6c-0.9,0-4.7,1.9-8.6,4.2c-3.8,2.3-9.2,5-11.9,6.1c-2.8,1-7,3.2-9.5,4.8
			c-2.5,1.6-6.5,3.6-9,4.5s-7.4,3.3-11,5.5s-8.5,4.6-11,5.5s-6.5,2.9-9,4.5s-7,3.9-10,5c-3,1.2-8,3.7-11,5.6s-7.7,4.1-10.3,4.8
			c-10.6,3.2-12.3,6.7-8.2,16.5c2.2,5.2,2.6,7.9,2.8,17.5c0.2,10.9,0.4,11.6,3.3,15.7c5.9,8.3,6.4,10,6.6,22.6
			c0.2,11.7,0.2,11.9,3.9,17.8c5.4,8.7,5.8,10.4,5.8,22.7c0,13,1.7,17.8,7.9,22.8c5.1,4.1,9.5,10.5,11.1,15.9
			c0.7,2.5,1.3,8.8,1.3,14.1c0.1,9.6,0.1,9.7,4.1,15.5c6.4,9.2,6.2,8.2,6.3,28.3c0.1,18.2,0.2,17.9-4,24c-7.3,10.8-6.8,6.4-6.6,56.5
			c0.2,45.3,0.2,45.3,3.3,49.7c6.8,9.5,7.2,10.6,6.8,21.9c-0.4,13.4,0.5,16.7,6.1,21.8c2.5,2.3,4.6,4.2,4.7,4.2
			c0.1,0.1,6.4,0.4,13.9,0.8c13.2,0.6,13.7,0.8,19,4.1c11,6.9,7.4,6.5,52.9,6.5c46.1,0.1,41.3-0.6,52.8,6.7c2.6,1.7,5.8,2.3,15,2.9
			c13.8,0.9,43.2,1,51.7,0.1c3.3-0.4,9.9-0.4,14.7-0.1c7.8,0.5,9.2,0.9,13.2,3.8c7.9,5.6,10.4,6.2,29,6.9
			c24.1,0.8,28.7,0.2,37.9-5.3c5.3-3.2,9.5-4.8,14.8-5.8c8.2-1.5,10.1-3.1,15.2-12.2c1.5-2.7,3.4-6,4.2-7.4c0.8-1.4,2.9-5.4,4.5-9
			c1.7-3.6,4.1-8.5,5.5-11s3.6-7,5-10s3.6-7.5,5-10c1.6-2.9,2.8-7.3,3.4-12.3c0.8-6.5,1.7-9,5.3-15c4.3-7.2,4.3-7.2,4.5-17.4
			c0.2-12.8,0.5-14.2,5.7-22.8c4.2-7,4.2-7,4.7-29.5c0.5-23.8,0.6-24.3,6-32c0.9-1.4,2.5-4.8,3.6-7.5c1-2.8,3.3-7.4,5.2-10.3
			c1.9-2.9,4.3-7.8,5.4-10.8c2.2-5.8,10.6-15.8,16.3-19.3c1.9-1.2,6.7-2.5,11.2-3.1c4.3-0.6,9.6-1.9,11.6-3c2.1-1.1,5.4-2.8,7.5-3.9
			c3.4-1.8,6.1-2,29.8-2.2c28.8-0.3,24.7,0.5,40.9-8.1c3.7-1.9,5.6-2.1,29.5-2.1c28.4-0.1,24.3,0.7,40.4-7.8c3.7-2,5.3-2,41-1.9
			c20.4,0.1,39.5-0.2,42.3-0.7c3.1-0.5,7.9-2.5,12.1-5c5.5-3.4,8.3-4.3,14.4-5.1c8.8-1.1,9.5-1.4,16.6-5.6c3-1.8,7.6-4.1,10.4-5
			c5.1-1.8,8.6-4.7,9-7.4c0.6-4.7-0.5-6.4-9.1-14.8c-13.1-12.6-14.1-14.6-14.6-29.6c-0.4-12.7-0.5-13-6.6-23.2
			c-5.1-8.6-8.4-12.3-13.1-14.7c-2.3-1.1-9-6.9-15-12.7c-9.8-9.5-11.3-11.5-15.1-19.6c-3.1-6.5-6.2-11.1-11.3-16.8
			c-4.6-5.1-7.6-9.4-8.7-12.5c-0.9-2.6-3.3-7.7-5.5-11.2c-8.1-13.7-7.7-21.5,2-36.7c1.2-1.8,2.6-6.9,3.4-12.3
			c1-6.8,2.1-10.3,4.4-13.8c1.7-2.6,4.6-8.2,6.6-12.4c3.3-7,4.7-8.6,17.3-20c15.4-13.9,26.2-25.7,29.5-32.1
			c1.8-3.5,2.3-6.7,2.8-16.8c0.6-11.3,0.9-13,3.5-17.5c5.9-10.2,5.8-9.8,6.1-26.4c0.2-8.7,0.6-16.9,1-18.2c0.4-1.3,2.2-4.8,4.1-7.9
			c2.7-4.3,3.7-7.6,4.8-14.8c1.1-7.1,2.1-10.3,4.5-14.1c1.7-2.7,4.2-7.7,5.6-11.1c1.3-3.4,3.6-7.8,5-9.6c5.6-7.3,5.8-8.6,5.7-39
			c-0.1-23-0.4-28.8-1.6-31.8c-0.9-2-2-3.4-2.6-3.1s-1,0.2-1-0.4C4711.3,1404.9,4710.8,1404.9,4707.3,1405.9"/>
	</g>
	<g id="Layer_6">
		<path class="st0" d="M3042.4,1494.4c-4.1,2.3-11.9,12.6-14.6,19.4c-1.4,3.5-4.4,9.4-6.5,13c-2.2,3.6-3.9,7.2-3.9,7.9
			c0,2.8-3.5,8-10,14.9c-5.3,5.6-7.3,8.6-9.5,14.4c-2.2,5.9-4.3,8.9-10.1,15.1c-5.3,5.7-7.8,9.3-9.4,13.6c-1.2,3.2-3.7,8.4-5.7,11.6
			s-4.6,8.5-5.9,11.8c-1.7,4.3-4.3,8.1-9.3,13.3c-5.5,5.8-7.5,8.7-9.7,14.6s-4.3,8.9-10.1,15.1c-5.3,5.7-7.8,9.3-9.4,13.6
			c-1.2,3.2-3.6,8.3-5.5,11.3s-4.5,8.4-5.9,11.9c-1.9,4.6-4.5,8.4-9.5,13.6c-5.5,5.8-7.5,8.7-9.7,14.6s-4.3,8.9-10.1,15.1
			c-5.3,5.7-7.8,9.3-9.4,13.6c-1.2,3.2-3.7,8.4-5.7,11.6s-4.6,8.5-5.9,11.8c-1.7,4.3-4.3,8.1-9.3,13.3c-5.1,5.4-7.5,8.8-9.1,13.2
			c-1.2,3.2-3.7,8.4-5.6,11.6c-1.9,3.1-4.2,7.6-5,10s-3.3,7.2-5.4,10.8c-2.1,3.6-4.9,9.1-6,12.2c-1.2,3.2-2.6,6-3.1,6.3
			c-2.4,1.5-4.8,8.5-5.2,15.1c-0.4,7.1-1.4,9.7-7.2,19c-2.4,3.8-3,6-3.2,11.5c-0.3,7.3-1.7,11.5-5.7,16.8c-1.4,1.9-3.3,5.7-4.2,8.4
			c-0.9,2.8-3.4,7.7-5.5,10.9c-3.7,5.7-5.8,14.1-4.7,18.5c0.4,1.7-1,4.6-6.4,13.4c-2,3.3-2.8,6-3.2,11.3c-0.5,8.2-1.4,10.7-6,17.4
			c-2.7,3.9-3.6,6.4-4.1,11.5c-0.4,3.6-0.5,6.9-0.3,7.3c0.4,0.8-1.3,4.1-6.5,12.5c-2.1,3.4-2.9,6.4-3.6,13.1
			c-0.8,7.8-1.3,9.3-4.9,14.7c-3.9,5.8-6.2,14.3-5,18.1c0.6,1.7-1.8,7.4-4.8,11.3c-1.3,1.7-3.7,6.4-5.3,10.3c-1.6,4-4,8.7-5.4,10.5
			c-3.4,4.5-3.8,6.1-4.7,15.5c-0.7,7.3-1.2,8.9-4.8,14.3c-3.4,5-4.2,7.2-4.7,12.8c-0.4,3.7-1.6,8.7-2.7,11.2
			c-5.8,13-0.9,17.9,17.8,18c11.4,0,14.7,0.9,21.9,5.7c2.7,1.8,7.2,4.1,9.9,5c3.8,1.3,7.5,4.1,17,13.2
			c10.6,10.1,13.3,12.1,21.2,15.7c6.5,3,11,6,16.1,10.6c4.7,4.3,9,7.2,13,8.8c7.6,3,10.7,5.1,17,11.4c3.2,3.2,7.7,6.2,12.5,8.5
			c4.1,1.9,10,5,13.1,6.9c4.4,2.7,7,3.6,12,3.9c7.9,0.6,11.8,1.8,17.8,5.6c3.5,2.2,7.1,3.3,14,4.3c7.9,1.2,10.1,2,15.2,5.4
			c5.3,3.6,13,5.9,16.4,5c2.2-0.6,8.3,1.6,13.6,4.8c4.4,2.7,7.6,3.7,14.9,4.8c6.9,1,10.3,2.1,13.1,4.1c6.7,4.6,11.8,11.2,16.3,20.7
			c3.2,6.8,5.7,10.6,9.5,14.2c5.2,5,8.7,10.6,11,17.8c0.7,2.2,4.2,7,8.2,11.3c4.3,4.7,8,9.7,9.5,13.2c1.3,3.1,3.2,7.2,4.1,9.2
			c2.2,4.5,30.5,33.5,35.7,36.5c2.2,1.3,6.5,3.3,9.6,4.4c5.2,1.9,10.3,6.8,75,71.6c38.2,38.3,71.2,70.8,73.4,72.3s6.2,3.6,9,4.6
			s6.9,3.1,9.2,4.6c7.8,5.2,8.5,5.3,21.3,5.9c12.2,0.5,12.7,0.6,19.3,4.3c5.3,3,8.8,4.1,15.9,5.2c7.5,1.1,10,2,14.2,4.9
			c7.2,4.9,9.5,5.6,19.3,5.4c11.1-0.2,14.3,0.6,22,5.2c5.1,3,7.7,3.9,13.5,4.5c4,0.4,8.7,1.3,10.4,2c4.9,2,26.8,24.4,28.4,29.1
			c1,2.8,1.4,9.1,1.4,21.4c0,15.8-0.2,17.8-2,20.6c-8.8,13.9-8,8.3-8.1,54.4c-0.1,46,0.4,41.8-6.9,53.6c-3,4.8-3,4.8-3,46.9
			c0,46.8,0.6,42.4-7.1,52.8c-2.8,3.9-2.8,3.9-3.1,46.3c-0.3,46.3-0.1,44.8-6.4,53.1c-3.2,4.3-3.2,4.3-3.4,42
			c-0.1,41.5,0.2,38.8-6.7,48.1c-3.3,4.3-3.3,4.3-3.5,46.7c-0.2,46.4,0,44.8-6.5,53.3c-3.3,4.3-3.3,4.3-3.3,47.1s0,42.8-3.5,47.9
			c-7.2,10.7-6.7,6.8-6.9,52.6c-0.2,45.3,0,44-6.1,52c-3.1,4.1-3.1,4.1-3.6,20.3c-0.4,13.6-0.2,16.7,1.2,19.4
			c0.9,1.8,7.1,8.6,13.8,15.2c10.9,10.8,12.4,12.6,14.4,18.4c1.3,3.5,4.1,8.7,6.2,11.5c2.2,2.8,16.9,18,32.8,33.7
			c27.6,27.4,29,28.9,31.2,35c1.3,3.5,3.6,8.2,5.1,10.4s16.3,17.4,32.8,33.8c28.9,28.6,30.1,30,32.1,35.9c1.1,3.4,3.9,8.4,6.1,11.3
			c2.2,2.8,16.9,18,32.8,33.7c28.8,28.5,28.8,28.5,32.1,36.6c3.8,9.3,5.7,11.4,10.8,11.7c4,0.2,4,0.2,10-9.4
			c5.3-8.6,6.3-11.2,7.3-19.5c0.8-6.1,1.7-9,4.6-13.6c2-3.2,4.3-7.8,5.1-10.2s3.1-6.9,5.1-10.2c2.8-4.6,3.9-7.7,4.9-14.8
			c1.2-8.2,2.1-10.5,7.2-19.3c0.6-1.1,2.5-4.9,4.2-8.5s4.1-8.5,5.5-11c1.6-2.9,2.8-7.3,3.4-12.3c0.7-6,1.7-9.1,4.3-13.5
			c1.9-3.1,4.2-7.7,5.2-10.2s3.5-7.4,5.6-11c3.2-5.3,4-8,4.8-14.8s1.7-9.4,4.9-15c2.2-3.7,4.5-8.3,5.1-10.2s2.9-6.4,5.1-10
			c3.2-5.4,4.1-8,5-15c0.9-6.9,1.7-9.6,4.6-14.2c1.9-3.1,4.2-7.6,5-10s3.1-6.8,4.9-9.9c3.6-5.8,5.4-11.9,5.5-18c0-2,1.2-5.8,2.6-8.5
			c1.4-2.7,3.5-6.5,4.5-8.4s2.1-6.3,2.3-9.7c0.5-6.4,2.9-13.1,6.5-18.2c1.1-1.6,2.7-4.8,3.6-7.2c0.8-2.4,3.3-7.2,5.4-10.8
			c3.3-5.5,4.1-7.8,4.9-14.8c0.8-6.8,1.6-9.3,4.5-14c1.9-3.2,4.5-8.2,5.7-11.1s3.7-7.9,5.5-11c2.8-4.5,3.6-7.1,4.3-13.9
			c0.8-6.8,1.5-9.3,4.5-14c1.9-3.2,4.5-8.2,5.7-11.1s3.7-7.9,5.5-11c2.8-4.5,3.6-7.1,4.3-13.8c0.8-6.9,1.6-9.4,4.9-15
			c2.2-3.7,4.5-8.3,5.1-10.2s2.9-6.4,5.1-10c3.2-5.3,4-7.8,4.6-13.5c0.7-7.7,2.3-12.2,5.9-17.5c1.3-1.9,3.1-5.5,4-8s3.3-7.4,5.5-11
			c3.3-5.4,4.1-7.9,4.8-14.5c0.8-7.4,3.7-15.5,6.1-16.9c0.5-0.3,1.9-3.2,3.1-6.3c1.2-3.2,3.9-8.7,6.1-12.4c3.4-5.7,4-7.5,4-12.3
			s-0.6-6.6-4-12.3c-2.2-3.7-4.7-8.6-5.6-11s-3.2-7-5.2-10.3c-3.1-4.9-3.9-7.6-4.9-15c-1-7-1.9-10-4.3-13.8
			c-1.7-2.7-4.1-7.5-5.4-10.7c-1.3-3.2-3.7-8.1-5.4-10.8s-3.7-6.5-4.3-8.5s-2.9-6.6-5.1-10.3c-3.2-5.4-4.2-8.4-5.3-15.8
			c-1-6.8-2.1-10.4-4.3-13.8c-1.6-2.6-5.6-10.3-9-17.2c-4.9-10.2-6.2-13.8-6.7-19.4c-0.6-7-1.7-9.8-6-16.1c-1.3-2-3-5.2-3.6-7.3
			c-0.7-2-2.9-6.7-5.1-10.3c-3.1-5.3-4.2-8.4-5.3-15.8c-0.9-6.3-2.1-10.4-3.8-12.9c-1.3-2-5.9-10.9-10.2-19.7s-8.3-16.9-8.9-18
			c-0.6-1.1-2.2-4-3.6-6.5c-1.7-3-2.9-7.5-3.7-13.3c-0.9-6.7-1.9-9.9-4.2-13.5c-1.7-2.6-4-7.4-5.2-10.7s-2.8-6.9-3.6-8
			c-0.7-1.1-13.2-13.9-27.7-28.5c-26-26.2-26.4-26.6-29.2-34c-2.6-6.8-3.9-8.6-14.6-19.5c-10.3-10.5-12.2-13.1-15.7-20.6
			c-2.8-6.1-5.9-10.7-10.5-15.7c-4.5-4.9-7.2-8.9-8.7-12.9c-1.2-3.2-3.4-7.8-5-10.2c-1.6-2.5-4-7.3-5.4-10.7s-3.5-7.6-4.7-9.3
			s-3.4-5.9-4.8-9.3c-1.4-3.4-4.1-8.8-5.9-11.9c-2.5-4.3-3.7-8-4.7-14.7c-1.1-7.3-2.1-10.1-5.4-15.7c-2.2-3.7-4.1-7.5-4.1-8.3
			c-0.2-7.2-2.1-15.7-4.4-19.2c-1.5-2.2-4.1-7.5-6-11.8c-1.8-4.3-4.2-9.1-5.3-10.7c-1.1-1.6-3.2-5.6-4.6-9.1
			c-1.4-3.4-3.5-7.5-4.6-9.1s-3.6-6.5-5.4-10.9c-1.9-4.4-4.3-9.3-5.5-11s-3-5.4-4.2-8.3c-1.2-3-3.4-7.4-5-9.9s-3.8-6.9-4.9-9.8
			c-1.2-2.9-3.9-8.3-6.1-11.9c-2.2-3.6-4-7.3-4-8.2c-0.2-7.7-2.1-15.6-4.9-20c-1.7-2.7-4.2-7.6-5.5-11s-3.2-7.3-4.3-8.9
			c-1-1.5-5.2-9.5-9.1-17.8c-4-8.2-8.3-17-9.7-19.5s-3.8-7.4-5.5-11c-1.6-3.6-3.9-8.1-5-10s-3.2-6-4.5-9c-2.8-6.3-5-10.6-8.7-17
			c-1.8-3.1-2.9-7.1-3.5-12.7c-0.8-6.4-1.7-9.3-4-13c-1.7-2.6-4.2-7.6-5.6-11.1c-1.4-3.5-3.9-8.5-5.6-11c-1.6-2.6-3.7-6.6-4.5-9.1
			c-0.9-2.4-2.9-6.5-4.5-9s-3.9-7-5-10s-3.4-7.5-5-10s-3.8-7-5-10s-3.4-7.5-5-10s-3.8-7-5-10s-3.7-8-5.6-11.1
			c-2.7-4.5-3.8-7.6-4.9-14.8c-1.1-7.2-2.1-10.3-4.9-14.9c-2-3.2-4.2-7.7-5.1-10.1c-0.8-2.4-3.1-6.9-5-10s-4.2-7.7-5.2-10.2
			s-3-6.6-4.6-9.2c-1.6-2.6-3.9-7.4-5.2-10.7s-3.2-7.3-4.3-8.8c-1-1.5-5.2-9.5-9.1-17.8c-4-8.2-8.1-16.7-9.2-18.8
			c-1.1-2.1-2.8-5.4-3.9-7.5c-1.1-2.1-3.3-6.7-5-10.2c-1.7-3.6-3.9-8.1-5-10s-3.3-6.2-4.9-9.5c-7.1-14.7-10.4-21.2-12.3-24.5
			c-1.1-1.9-3.1-6-4.5-9s-3.6-7.5-5-10s-3.9-7.4-5.5-11c-1.7-3.6-3.9-8.1-5-10s-3.1-6-4.5-9s-3.6-7.5-4.9-10s-5.8-11.5-10-20
			s-8.7-17.5-10-20s-5.8-11.5-10-20s-8.7-17.5-10.1-20c-1.4-2.5-3.9-7.4-5.5-11c-1.7-3.6-3.9-8.1-5-10s-3.1-6-4.5-9s-3.6-7.5-5-10
			s-3.6-7-5-10s-3.5-7.3-4.7-9.5s-3.4-6.7-5-10s-3.9-8-5.3-10.5c-1.3-2.5-5.9-11.5-10-20c-4.2-8.5-8.7-17.5-10-20s-5.8-11.5-10-20
			s-8.7-17.5-10.1-20c-1.4-2.5-3.9-7.4-5.5-11c-1.7-3.6-3.9-8.1-5-10s-3.1-6-4.5-9s-3.6-7.5-5-10s-3.8-7.4-5.5-11
			c-1.6-3.6-3.9-8.1-5-10s-3.2-6-4.5-9c-1.4-3-3.6-7.5-4.9-10c-1.3-2.5-5.9-11.5-10-20c-4.2-8.5-8.7-17.5-10-20s-5.8-11.5-10-20
			s-8.5-17.3-9.7-19.5c-7.8-14.8-16.3-31.8-18-36.2c-2-5.3-5.8-9.3-8.7-9.2C3045.5,1493.1,3043.7,1493.7,3042.4,1494.4"/>
	</g>
	<g id="Layer_5">
		<path class="st0" d="M1939.1,1749.7c-1.8,0.8-11.4,9.4-21.3,19.2c-15.6,15.5-18.7,18-23.1,19.5c-2.8,0.9-7.1,2.9-9.5,4.4
			s-7.8,4.1-11.9,5.6c-6.4,2.4-8.6,4-15.2,10.5c-9.4,9.3-10.5,12.6-6.5,19.3c1.4,2.3,4.8,6.5,7.6,9.2c3.8,3.7,5.8,6.9,8.2,12.8
			c2.5,6.2,4.7,9.6,10.4,15.7c4.6,5,7.8,9.6,9,12.7c1,2.7,3.5,7.8,5.6,11.4s4.8,9.1,5.9,12.2c1.4,3.9,4.4,8.3,9.5,14
			c4,4.6,88.4,89.3,187.4,188.2c177.2,177.1,180,180,182.2,186c1.2,3.4,3.6,8.2,5.2,10.6c3.5,5.2,390.4,392.8,408,408.8
			c12.2,11.1,12.5,11.4,20,28.2c0.6,1.4,24.3,25.7,52.6,54.1c51.4,51.5,51.5,51.6,54.2,58.7c1.5,3.9,3.8,8.6,5,10.4
			c3.3,4.7,83,84.8,98,98.4c6.9,6.3,13.3,12.9,14.2,14.7s3,6.4,4.7,10.2c3,6.7,5.5,9.3,59.3,63.2c54.6,54.6,56.3,56.3,58.7,62.7
			c1.4,3.6,4.1,8.6,6,11.3c3.5,4.8,66.3,68.3,88.5,89.5c6.6,6.3,12.5,12.5,13.2,13.9s2.4,5.4,3.9,9c2.6,6.2,5.6,9.4,59.3,63.2
			c56.5,56.7,56.5,56.7,59.5,64.5c2.8,7.4,3.8,8.7,16,21.1c7.1,7.3,13.3,13,13.7,12.8c0.4-0.3,1,0.2,1.3,1c0.8,2,3.1,1.9,4.8-0.2
			c1.2-1.5,1.2-1.6-0.1-0.9c-1,0.5-1,0.3,0.2-0.6c0.9-0.8,2.1-3.2,2.7-5.4c0.6-2.2,2.5-6,4.2-8.4c6.2-8.5,6.1-7.7,5.8-49.4
			c-0.2-42.1-0.1-43.6,5.7-52.4c2.5-3.7,3.8-7.1,4.4-11.5c1.2-8.3,1.1-56.2-0.1-65.6c-1.2-9,0.1-14.2,5.7-23.3
			c3.8-6.2,3.8-6.2,4-45.2c0.1-21.5,0.4-40.9,0.8-43.1c0.3-2.2,2.5-7.1,4.8-10.8c5.3-8.8,5.7-12.5,5.5-52.2c-0.2-30-0.2-30,4.3-37.5
			s4.5-7.5,5-49.5c0.3-23.1,0.9-42.9,1.4-44s2.4-4.3,4.3-7.2c4.8-7.3,5.4-13.7,5-55.9c-0.3-36-0.3-36,4.1-43.3
			c4.4-7.3,4.4-7.3,4.3-46c-0.1-43.5,0.1-45.6,6.5-54.8c3.8-5.5,3.8-5.5,4.1-19.6c0.4-16.4-0.7-20.6-6.8-26.1
			c-3.9-3.5-10.9-5.7-17.5-5.5c-3.8,0.1-7.5-1.3-12.9-5.1c-5.3-3.7-12.1-5.4-18.6-4.8c-7.9,0.8-14.7-0.8-20.4-4.6
			c-6.2-4.1-7-4.4-17.1-5.7c-6.5-0.8-8.9-1.6-13.1-4.5c-6.7-4.6-9.7-5.4-21.2-5.3c-10.7,0.1-12.8-0.5-20.4-5.6
			c-2.9-1.9-7.5-4.2-10.2-5.1c-4.6-1.5-10.7-7.3-77.5-73.9c-72.5-72.2-72.5-72.2-79.8-75c-7.1-2.7-7.9-3.4-34.3-29.8
			c-26.4-26.3-27.1-27.2-31-35.4c-2.8-6-5.7-10.4-10.2-15.1c-4.8-5.1-6.9-8.4-9.2-14.1c-2.4-6-4.3-9-10.1-15.1
			c-4-4.2-8.3-9.8-9.7-12.5c-3.1-6-4.9-7.2-13-8.3c-6-0.8-9.9-2.5-17.3-7.2c-2.1-1.3-5.5-2.1-10.2-2.5c-8.1-0.5-10.8-1.4-16.7-5.5
			c-4.3-3-12.1-5.3-16-4.9c-3,0.3-9.6-2-13.2-4.8c-4.5-3.3-7.3-4.3-16.5-5.3c-6.7-0.8-8.9-1.5-13.2-4.4c-2.8-1.9-7.8-4.6-11.1-5.8
			c-4.2-1.6-8.1-4.3-13.3-9.1c-5.5-5.1-9.7-7.9-16.1-10.9c-6.2-2.9-10.4-5.7-14.8-9.9c-4.5-4.3-8.6-7.1-15-10
			c-7.8-3.6-10-5.3-19.2-14.6c-9.7-9.7-15.6-13.9-22.1-15.9c-1.4-0.4-5.6-2.6-9.4-4.8c-6.9-4.1-6.9-4.1-19.5-4.7
			c-11.4-0.5-13-0.8-17.1-3.3c-2.5-1.5-8.3-4.6-13-6.8c-8.5-4.1-8.8-4.4-69.5-64.9c-60.5-60.3-63.4-62.9-73-66
			c-2.9-0.9-7.1-4.4-15.2-12.6c-11-11.1-15.9-14.5-24.7-17.4c-2.8-0.9-7.5-4.7-16.2-13.1c-10.8-10.5-13.2-12.3-20.9-15.9
			s-9.9-5.2-19-14.5c-10-10.1-15.1-13.7-23.7-16.5c-2.1-0.7-7.1-4.3-11.7-8.5c-5.4-5-9.8-8-13.8-9.6c-7.9-3.2-10.6-5.2-19.2-14.2
			c-8.9-9.4-14.5-13.5-23.7-17.3c-5.9-2.5-8.6-4.5-18-13.8c-10.7-10.5-15.6-14-24-16.7c-2.9-0.9-6.4-3.8-12.5-10.2
			c-10.6-11.1-16.6-15.7-25.5-19.3c-6-2.5-8.7-4.5-18.6-14.2c-10.1-9.8-12.7-11.8-20.1-15.2c-7.4-3.4-9.8-5.2-19-14.5
			c-9.7-9.8-11.5-11-20.9-15.5c-7.8-3.7-11.6-6.1-15.3-10.1c-8.5-8.9-10.4-9.5-29.3-9.8c-17.7-0.3-17.4-0.2-30.2-7.4
			c-5.5-3.1-5.5-3.1-28-2.6c-12.4,0.3-24.8,0.1-27.5-0.4s-7.2-2.4-10-4.3c-2.8-1.8-5.7-3.7-6.5-4.2s-7.1-1.1-14-1.4
			c-12.6-0.6-12.6-0.6-20-5c-7.4-4.5-7.4-4.5-47.2-4.6C1950.5,1748.4,1941.7,1748.6,1939.1,1749.7"/>
	</g>
	<g id="Layer_4">
		<path class="st0" d="M3874.3,1807.8c-5.2,2.6-11.1,5.7-13,6.9c-1.9,1.2-5.5,2.9-8,3.8c-2.4,0.9-6.5,2.9-9.1,4.6
			c-2.6,1.6-7.4,4.1-10.7,5.4s-8,3.7-10.4,5.3c-5,3.4-8.4,4.7-11.5,4.4c-4.5-0.5-13.7,1.9-17.1,4.5c-1.9,1.5-6.6,4-10.4,5.5
			c-3.8,1.5-8.2,3.8-9.8,4.9s-5.7,3.2-9.2,4.6c-3.4,1.4-8.3,3.8-10.9,5.5c-2.5,1.6-7.3,4-10.7,5.3c-3.3,1.3-8,3.7-10.4,5.3
			c-4.5,3.1-8.6,4.8-10.3,4.4c-0.5-0.1-3.6,0-6.7,0.4c-4.2,0.5-7.3,1.7-11.6,4.4c-3.2,2.1-7.6,4.3-9.8,5s-6.5,2.8-9.7,4.7
			c-3.2,1.9-8.4,4.5-11.7,5.8c-3.2,1.3-7.8,3.6-10.2,5.3c-2.4,1.6-6.7,3.7-9.5,4.7c-2.8,0.9-7,3-9.3,4.7c-5.3,3.8-8.7,5.2-12.5,5
			c-6-0.3-13.5,1.8-18.5,5.3c-2.8,1.9-6.7,4-8.8,4.6c-2.1,0.7-6.7,2.9-10.3,5s-8.4,4.5-10.8,5.4c-2.4,0.8-6.9,3.1-10,5
			s-7.7,4.2-10.1,5.1c-2.5,0.9-6.6,2.9-9.1,4.6c-2.6,1.6-7.5,4.1-10.9,5.4s-7.7,3.6-9.6,5c-4.8,3.7-8.1,4.8-15.9,5.3
			c-5,0.3-8.1,1.1-11,2.8c-2.2,1.3-6.5,3.5-9.5,4.9s-7.5,3.7-10,5c-2.5,1.4-7,3.6-10,5s-7.3,3.5-9.5,4.6c-9.1,4.8-13.2,6.9-17.5,8.8
			c-2.5,1.1-6.5,3.3-9,4.9c-3.7,2.4-6.2,3.1-13.6,3.8c-8,0.8-9.7,1.4-14.2,4.5c-2.9,2-6.9,4.1-8.9,4.8c-2.1,0.7-6.7,2.9-10.3,5
			s-8.4,4.5-10.7,5.3s-7.2,3.3-10.9,5.5s-7.4,4.1-8.3,4.1c-3.8,0.1-9.7,3.8-11,6.9c-1.2,3-1.1,3.9,2,11.4c1.8,4.5,4.8,10.5,6.7,13.3
			s4.1,7.3,5,10s3.1,7.1,4.8,9.9s4.2,7.6,5.4,10.7c1.3,3.1,3.5,7.6,5,10s3.7,6.9,4.9,10.1c1.2,3.2,3.5,7.7,5,10
			c1.6,2.3,3.6,6.2,4.6,8.7s3.6,7.6,5.9,11.4c3.6,6,4.3,8,4.8,14.7c0.5,5.8,1.4,9,3.4,12.6c1.5,2.6,3.5,6.4,4.3,8.3
			c0.9,1.9,3.6,7.6,6.2,12.5s5.2,10.6,5.9,12.5c0.8,1.9,2.8,5.8,4.5,8.5c1.7,2.8,3.9,7,4.9,9.5s3.2,7,4.9,10s4.5,8.7,6.3,12.6
			c1.7,3.9,4,8.4,5.1,10s2.8,4.9,3.7,7.4s3.3,7,5.1,10.1c4.8,7.9,5.7,10.5,5.9,18.1c0.2,5.8,0.7,7.4,3.7,12c1.9,2.9,4.3,7.3,5.3,9.8
			s3.2,7,4.9,10s4.5,8.7,6.3,12.6c1.7,3.9,4.1,8.4,5.2,10.1c1.1,1.6,3,5.3,4,8.1c1.1,2.8,3.3,7.3,4.9,9.9c1.6,2.6,3.9,7.4,5.1,10.7
			c1.2,3.2,3.4,7.7,5,10c1.5,2.3,3.7,6.5,4.9,9.3c1.1,2.8,3.9,8.2,6.2,11.9c3.4,5.6,4.1,7.7,4.1,11.9c0,6.6,1.3,11.1,4.8,16.6
			c1.6,2.5,3.7,6.7,4.7,9.5c1,2.7,3.2,7.1,4.7,9.7c1.6,2.6,4,7.5,5.4,10.9c1.4,3.5,3.8,8.1,5.3,10.3s3.8,6.6,5,9.8
			c1.3,3.1,3.5,7.6,5,10s3.5,6.3,4.5,8.8s3.2,7,4.9,10s4.3,8.3,5.8,11.7c1.4,3.4,3.6,7.5,4.8,9.2c3.7,5.2,5.3,10.3,5.5,17.3
			c0.2,5.8,0.6,7.3,3.4,11.2c4.5,6.3,6.4,11.3,6.3,16.6c-0.1,5.7,1.4,10.4,5,15.7c1.6,2.3,2.9,4.5,2.9,5c0,0.9,12.2,26.2,15.1,31.3
			c1.1,1.9,3.4,6.4,5,10c5.6,12.1,6.2,13,12,19c5.9,6,8.6,10.4,10.9,17.5c0.9,2.8,4.7,7.5,13,16c12.1,12.4,13.5,14.4,17.1,24
			c1.7,4.4,4.2,7.9,11.8,15.7c12.6,13.1,16.2,15.8,21.8,15.8c4.2,0,4.8-0.4,16.1-11.2c6.5-6.2,18.9-18.5,27.7-27.4
			c15-15.1,16.5-16.4,23-18.9c3.9-1.5,9.5-4.5,12.5-6.8c3-2.2,24.7-23.3,48.1-46.8c40.5-40.7,43-43,50.5-46.8
			c9.7-4.9,13.4-8.5,15.8-15.4c1-2.9,3.3-7.7,5.1-10.8c4-6.7,4.3-7.6,5.4-16.8c0.7-5.6,1.8-8.8,4.8-14c2.2-3.7,4.7-8.9,5.7-11.6
			c1.4-3.7,4.7-8,14-17.6c10.6-11,12.6-13.6,14.9-19.6c1.5-3.8,4-8.9,5.6-11.4s3.8-7.1,5-10.3c2.9-7.9,11.9-17.5,20.4-21.7
			c3.7-1.8,6.9-4.3,7.7-5.7c2.2-4.2,1.7-17.9-0.8-22.7c-6.2-11.8-18.3-35.8-19.2-38.2c-0.6-1.5-2.7-5.5-4.6-8.8
			c-3.3-5.6-3.5-6.6-3.5-15c0-11.7-1.2-16.3-6-24.3c-3.7-6.1-4-7.1-4-14.1c0-4.2,0.4-9.2,1-11.1c1.2-4.2,5.2-8.2,9.9-9.8
			c5.4-1.8,16-1.4,21,0.9c12.6,5.7,19.2-1.6,17.8-19.7c-0.5-6.4-1.1-8.4-4.7-14.3c-3.4-5.7-4.4-8.4-5.5-15.9
			c-1.5-10.3-3.1-13.3-10.5-20.6c-5.7-5.6-7.5-8.4-9.6-15.7c-1.1-3.6-3.2-6.8-8.1-12c-4.5-4.8-8.2-10-11.3-16.2
			c-2.6-5-5.8-11.4-7.3-14.2c-2.4-4.5-2.7-6.3-2.9-16.6c-0.2-11.4-0.3-11.6-4-17.7c-6.4-10.3-6.4-10.3-6.5-57.9
			c-0.1-48.1,0-49,6.4-59.4c3.9-6.3,3.9-6.3,4.2-20.3c0.3-14.1,0.3-14.1-2.7-19.6c-5.9-10.6-7-13.6-7.4-20.3
			c-0.4-5.7-1.3-8.6-6.2-18.5c-3.2-6.4-6.7-13.1-7.9-14.7c-4.4-6.1-4.9-7.9-5.5-20.6c-0.6-12.6-0.6-12.6-4.7-19.5
			c-5-8.3-5.2-9-5.6-22.6c-0.4-10.6-0.4-10.7-4.7-17.9c-4.4-7.2-4.4-7.2-5-20.4c-0.7-14-1.3-16.1-5.5-19.4
			C3886.9,1802.2,3885.1,1802.5,3874.3,1807.8"/>
	</g>
	<g id="Layer_3">
		<path class="st0" d="M4715,1921.8c-1.8,1.8-6.5,4.6-10.5,6.2s-9.3,4.4-11.8,6.1c-3.8,2.6-6.2,3.4-14,4.4c-8.2,1-10.1,1.7-14.8,4.9
			c-3,2-6.9,4.2-8.8,4.7c-2.2,0.6-17,0.8-40.9,0.3c-41.2-0.7-42.6-0.6-50.7,4.9c-2.7,1.8-5.7,3.7-6.8,4.1c-1.1,0.4-13.2,0.8-27,0.7
			c-26.7-0.1-29.7,0.3-35.5,4.9c-7.2,5.6-6.5,5.5-36.2,5.5c-27.7,0-27.7,0-33.8,4.3c-5.2,3.6-7.3,4.5-13.3,5.3
			c-9.7,1.3-11.1,2.2-14.2,8.7c-1.5,3.1-3.5,6.8-4.6,8.4c-2.3,3.3-7,14.7-6,14.8c0.4,0,0.2,0.3-0.4,0.8c-0.6,0.4-2.6,2.9-4.5,5.6
			c-3.4,4.9-3.4,4.9-3.7,27.4c-0.2,24.4,0.1,23-6.8,34c-2.9,4.6-3,5.2-3,16.8c0,6.6-0.4,12.6-0.8,13.2c-0.4,0.7-0.4,1.3,0,1.3
			s0.3,0.3-0.3,0.8c-0.6,0.4-2.7,3.1-4.7,6c-3.5,5.1-5.7,13.8-4.5,17.4c0.6,1.8-1.8,7.4-4.9,11.5c-1.4,1.8-3.8,6.5-5.4,10.3
			c-1.6,3.9-4.2,9-5.8,11.3c-1.6,2.3-3.5,6-4.1,8.2s-3,6.9-5,10.5c-3.3,5.7-5.7,11.3-6.1,14.5c-0.2,1.9-14.1,15.4-17.3,16.8
			c-1.7,0.8-6.6,1.8-10.9,2.1c-6.8,0.6-8.5,1.2-13.8,4.7c-3.3,2.2-7.7,4.4-9.7,4.9c-4.8,1.1-46.9,1-54-0.1
			c-3.5-0.6-7.4-2.2-10.7-4.4c-2.9-1.9-7-3.9-9.3-4.5c-2.6-0.7-17.7-1.1-42.4-1c-21.1,0-39.8-0.4-41.5-0.9c-1.8-0.5-5.1-2.3-7.5-3.9
			c-2.4-1.6-6.1-3.5-8.3-4.1c-2.6-0.7-17.7-1.1-43.3-1.1c-39.3,0-39.3,0-48.3-4.7c-8.7-4.5-9.1-4.7-11.7-3.2
			c-2.2,1.2-2.6,2.2-2.4,4.8c0.4,5.4,4.9,12.9,12.8,21.2c8,8.5,9.1,11,9.9,21.8c0.4,5.3,1.1,7.3,4.3,12c2.1,3.1,4.1,5.9,4.3,6.1
			c1.1,1.1,1.4,4,1.6,16.9c0.2,14.5,0.4,14-6.3,22.9c-1.8,2.4-3.9,6.7-4.7,9.5c-1.3,4.4-6.6,13.5-6.6,11.3c0-0.4-1.6,0-3.6,0.8
			c-3.2,1.3-4.2,1.3-8.8,0c-2.8-0.8-6.2-2.3-7.5-3.4c-1.8-1.4-3.2-1.7-5.8-1.1c-1.8,0.4-3.4,0.4-3.4-0.1s1.2-1,2.8-1.2
			c2.8-0.4,2.8-0.4,0-0.6c-1.8-0.1-3.1,0.5-3.8,2c-0.9,1.6-0.9,1.9,0.1,1.4c0.9-0.5,1-0.1,0.5,1.5c-0.5,1.7-0.4,2.1,0.6,1.5
			c0.9-0.6,1.1-0.3,0.7,0.8c-0.3,0.9-0.3,1.9,0.2,2.1c0.5,0.3,1.7,2.2,2.7,4.3c1.4,2.8,2,7,2.4,16.3c0.5,12,0.7,12.7,3.8,17.6
			c1.8,2.8,4.4,7.9,5.8,11.4c1.4,3.5,3.8,8.2,5.3,10.4s3.6,6.3,4.6,9.1s3.5,7.6,5.6,10.8c3.7,5.7,5,10.3,5.3,18.4
			c0.1,2.7,1.3,5.8,3.4,9.1c1.7,2.7,3.2,5.7,3.2,6.6c0,0.9,0.4,1.7,1,1.7s1,1.2,1,2.6c0,1.6-0.4,2.3-1.1,1.9
			c-0.7-0.4-0.9-0.2-0.7,0.7c0.3,0.8-0.2,2-1.1,2.7c-0.9,0.8-1,1-0.2,0.6c0.9-0.5,1.2-0.3,0.7,0.4c-0.4,0.6-1.1,0.9-1.6,0.6
			c-0.5-0.3-1.6,0.2-2.4,1.1c-0.9,0.9-1.6,1.4-1.6,1.1c0-1.2-10.4,2.4-13.3,4.6c-1.8,1.3-6,3.9-9.4,5.7c-5.2,2.7-6.5,4-8.3,7.9
			c-1.2,2.6-3.5,6.7-5.1,9.3c-1.6,2.5-4.1,7.5-5.4,11c-2.1,5.3-4.2,8.1-13.8,17.9c-11.3,11.4-13.4,14.4-16.2,22.4
			c-0.8,2.3-3.1,6.5-5.1,9.4c-3.2,4.7-3.7,6.1-4,12.5c-0.4,9.9-0.4,10-4.5,15.9c-2,2.9-4.6,7.8-5.7,10.9c-1.2,3.1-3.5,7.5-5.2,9.9
			c-1.7,2.3-3.9,6.7-4.9,9.6c-2.2,6.4-5,11.4-6.1,10.8c-0.4-0.2-1.3,0.1-2.1,0.8c-1.5,1.4-3.7,1.9-8.8,1.8c-1.9,0-5.8,0.5-8.5,1.1
			c-4.8,1.1-6.7,2.8-53,48.9c-39.3,39.1-48.7,48-52,49c-2.2,0.7-5.8,2.1-8,3.2c-4.4,2.2-46.8,43.6-49.1,48c-2.1,4-1.8,6.1,1.9,11.4
			c1.8,2.7,4.1,6.9,5.1,9.4s3.2,7,5.1,10c4.8,8,6.3,12,5.8,16.2c-0.5,4.5,1.2,10,4.7,15.3c1.5,2.2,3.7,6.6,5,9.7
			c1.3,3.1,3.5,7.6,5,10s3.5,6.5,4.6,9.3c1,2.7,3.6,7.8,5.9,11.2c4.5,6.9,4.8,7.8,4.8,14.2c0,5.7,1.5,10.4,4.9,15.5
			c1.5,2.2,3.5,6,4.4,8.5s3.3,7.1,5.2,10.3c4.4,7.2,5.4,10.5,5.8,18.5c0.2,5.2,0.9,7.1,3.8,11.5c1.9,2.9,4.3,7.5,5.3,10.3
			s3.1,6.9,4.7,9.3c4.1,6.1,6,11.1,5.9,15.7c-0.1,5.6,1.3,10.3,4.6,15.5c1.6,2.5,3.7,6.7,4.7,9.5c1,2.7,3.3,7.2,5,10s3.9,7,4.9,9.5
			s3.3,7,5.2,10.1c4.6,7.6,5.8,10.7,5.6,15.1c-0.2,5,1.5,11.2,4.5,15.6c1.3,2,3.6,6.5,5,10.1s4,8.2,5.6,10.3
			c4,5.1,7.2,15.8,6.2,20.6c-0.4,2-0.8,4.1-0.8,4.8c0,0.6-2,4.1-4.3,7.6s-5.3,9.2-6.6,12.5s-3.5,7.6-4.9,9.4
			c-2.8,3.7-4.9,11.3-4.6,16.8c0.2,4.2-1.3,8.3-4.7,12.8c-1.4,1.8-3.6,6-4.8,9.2c-1.3,3.2-4,8.6-6,11.8c-3.1,5-3.7,7-4,12.8
			c-0.4,8-1.3,10.8-5.4,16.4c-1.7,2.3-4,6.7-5.1,9.7c-1.2,3.1-3.6,8.1-5.5,11.1c-2.8,4.7-3.5,6.9-4.1,13.9c-0.6,7.3-1.1,9-4.2,13.5
			c-1.9,2.9-4.8,8.2-6.3,12c-1.5,3.7-3.9,8.3-5.3,10.1c-2.8,3.7-4.9,11.1-4.5,16.6c0.2,4.2-1.2,7.9-4.7,12.5
			c-1.4,1.9-3.9,6.6-5.5,10.5s-4,8.5-5.3,10.3c-2.7,3.6-4.8,11.3-4.5,16.7c0.2,4.2-1.3,8.3-4.7,12.8c-1.4,1.8-3.6,6-4.8,9.2
			c-1.3,3.2-4,8.6-6,11.8c-3.1,5.1-3.7,7-4,12.9c-0.4,7.7-1.9,11.7-6.5,17.7c-2.7,3.5-3.2,5.2-3.9,13.3c-0.8,8.3-1.2,9.8-4.5,14.6
			c-2,2.9-4.4,7.5-5.3,10.2c-0.9,2.7-3.1,7-4.9,9.6c-3.8,5.4-5.6,11.1-5.3,17.1c0.2,4.4-0.2,6.9-1.2,7.7c-1.6,1.4-8.1,13.1-9.4,17
			c-0.9,2.5-3.2,6.8-5.1,9.7c-3.1,4.6-3.6,6.1-4,12.5c-0.6,10.2-0.5,10.1-4.6,16c-2,2.9-4.6,7.8-5.7,10.9c-1.2,3.1-3.4,7.4-5,9.7
			c-3.4,4.7-5.1,10.2-5,16.4c0.1,6-0.1,6.7-4,12.3c-1.9,2.7-4.7,8-6.2,11.8c-1.5,3.7-3.9,8.3-5.2,10c-3,3.9-4.8,10.3-4.5,16
			c0.2,4.9-1.2,8.9-4.7,13.5c-1.4,1.8-3.6,6-4.8,9.2c-1.3,3.2-4,8.6-6.1,12c-3.3,5.4-3.8,7-4.1,13.1c-0.3,7.3-0.7,8.6-6.7,18.3
			c-2,3.3-3.6,6.7-3.6,7.6s-2,4.7-4.5,8.5s-4.5,7.4-4.5,8.1c0,3.1,2.5,6.9,9.2,14.2c5.7,6.1,7.9,9.5,10.2,15.1
			c3.5,8.8,8.9,15.2,31.4,37.2c12,11.8,16.3,16.6,17.3,19.5c3.3,10.2,6.1,13.8,27.3,34.9c19,18.9,21.3,21.6,23,26.5
			c3.1,8.9,7.6,14.6,28.4,35.1c18.3,18.1,19.9,20,22.2,25.9c1.3,3.5,3.6,8.2,5.1,10.4s11.7,12.8,22.7,23.5
			c19.1,18.7,20.1,19.8,22.1,25.8c2.8,8.5,6.6,13.4,22.9,29.3c12.5,12.2,14.2,14.3,16.8,20.5c4.2,10.2,7.3,14,28.7,35
			c17.7,17.4,19.6,19.6,21.6,25c3.5,9.5,7,13.9,27.3,33.8c16,15.7,19.5,19.7,21.6,24.4c1.3,3.1,3.2,7.2,4.1,9.1
			c0.9,1.9,11.3,13.2,23.2,25c20.3,20.3,21.7,21.9,23.9,28c3.3,9,7.5,14.2,28.3,34.5c15.1,14.8,18.5,18.7,20.5,23.4
			c1.3,3.1,3.2,7.2,4.1,9.1c0.9,1.9,11.4,13.2,23.2,25.1c21.3,21.4,21.5,21.7,24.9,30c3.3,8.1,4,9,20,25.2
			c14.7,14.9,16.9,17.5,19.3,23.3c4,9.9,6.7,13.1,27,32.8c16.2,15.7,19.1,18.9,21.3,24.1c1.4,3.3,3.4,7.6,4.3,9.5
			s11.2,13.1,22.9,24.9c19.3,19.4,21.5,22,24,28c4.1,9.8,7.4,13.9,27.9,34c15.6,15.3,19.1,19.3,21.1,24c1.3,3.1,3.1,7,4,8.7
			c2.1,4.3,16.5,19.9,30.4,33c13.8,13,14.4,13.7,17,20.6c3.3,8.8,7.1,13.6,22.8,28.9c13.8,13.4,15,14.8,17.1,20.9
			c3.3,9.2,6.6,13.2,27.6,33.9c15.6,15.3,19.1,19.3,21.1,24c1.3,3.1,3.2,7.2,4.1,9.1s11.2,13.1,22.8,24.7s21.6,22.3,22.2,23.5
			s2.4,5.2,4,8.8c2.3,5.2,5.6,9.3,15.3,19.6c6.8,7.2,15.9,16.2,20.2,19.9c7.9,6.9,8.1,7.3,15.5,23.4c0.9,1.9,11.3,13.2,23.2,25
			c20.4,20.4,21.7,21.9,23.9,28c1.3,3.6,3.6,8.3,5.2,10.5c3.6,4.9,26.9,28.8,33.9,34.7c5.7,4.8,8.7,9.4,12,18.3
			c2,5.5,4,7.8,24.4,28.2c20.4,20.4,22.3,22.6,24.1,27.9c3,9,7.1,12.1,13,9.8c0.9-0.4,3.4-4.3,5.4-8.8c3.2-7,4.9-9.1,12.3-15.9
			c10.5-9.5,14.8-15.2,18.7-24.8c2.6-6.4,4.4-8.7,13.4-17.9c11.7-11.9,13.4-14.1,16.7-22.5c2-5,4-7.6,12.3-15.5
			c17.3-16.5,24-24.8,27.2-33.1c2.6-6.7,4-8.6,15-20s12.4-13.3,15-20c2.4-6.2,3.9-8.5,9.9-14.4c13.4-13.3,17.3-18.2,20.2-25.8
			c2.6-6.7,3.7-8.1,17.4-21.7c15.8-15.6,19.4-20.2,23-29.5c1.8-4.7,4-7.6,10.1-13.5c12.1-11.7,16.6-17.6,19.6-25.4
			c2.4-6.2,4-8.4,13.3-18.1c12.2-12.6,13.8-14.8,17-22.9c2-5,4.2-7.7,14.8-18c17-16.6,21.4-22,24.7-30.7c2.5-6.7,3.9-8.5,14.9-19.8
			c11.1-11.4,12.4-13.2,15-20s3.9-8.6,15-20s12.4-13.1,15-20c2.7-7.1,3.7-8.3,19.1-24.1c15.4-15.7,16.5-17.1,20.9-26.2
			c3.7-7.8,5.6-10.5,10.1-14.4c9.5-8.1,17-17.9,20-25.7c2.4-6.2,4-8.4,13.4-18.1c12.4-12.8,14.1-15.1,17.1-23.1
			c1.6-4.2,4.1-7.8,8.9-13c10.3-10.9,10.5-11.3,10.5-29c0-15,0-15-4.4-22.3c-3.8-6.4-4.5-8.3-5-14.7c-0.3-4.1-0.2-12,0.2-17.7
			c0.5-5.6,0.5-19.7,0.2-31.2c-0.6-19.2-0.8-22.7-1.3-28.4c-0.1-1-1.8-4.2-3.7-7c-5.4-7.8-6.8-13-5.5-19.9
			c0.6-3.4,0.9-18.9,0.8-38.3c-0.3-32.6-0.3-32.6-3-37.8c-7.7-14.6-7.6-14.5-7.7-21.2c0-3.6,0.2-18.9,0.5-34s0.1-33.2-0.4-40.3
			c-0.9-12.5-1.1-12.9-5-19c-5.2-8.1-5.6-9.6-5.1-19.7c0.5-11.1,0.5-61.1,0-72c-0.4-9.3-1.9-14.7-5.2-18.8c-4.4-5.6-5-8.8-4.8-24.7
			c0.7-42.4,0.2-70.9-1.2-76.5c-0.5-1.9-2.3-5.7-4-8.4c-5.1-8.1-6.3-12.8-5.1-20.5c1.2-8.1,1.3-52.3,0.1-64.5c-0.6-6-1.5-9.8-2.9-12
			c-1.1-1.8-3.2-5.6-4.7-8.6c-2.5-5-2.6-6.2-2.3-15.5c0.7-16.9,0.3-73.8-0.5-78.8c-0.4-2.8-2.2-6.8-4.2-9.8c-5-7.3-5.7-9.6-5.3-19
			c0.4-11.2,0.5-64.6,0.1-73.5c-0.4-8.5-1.6-12.8-5.2-18c-4.3-6.3-5.1-10.2-4.8-22.7c0.5-19.9,0.1-72.4-0.6-77.2
			c-0.4-2.8-2.1-6.6-4.1-9.6c-5.3-7.7-6.7-12.9-5.5-19.8c0.6-3.5,0.9-20.3,0.7-43.2c-0.3-40.2-0.4-41.1-5.7-47.8
			c-4.1-5.2-5-9-4.8-19.6c0.4-18.5,0.3-64-0.1-72.1c-0.5-10.2-1.2-12.5-5.7-19.1c-3.1-4.5-3.8-6.5-4.3-12.1c-0.3-3.7-0.2-9,0.3-11.7
			c0.7-4.1,0.6-19.8-0.3-72c-0.1-3.6-2.2-8.9-5.9-14.4c-3.2-4.9-3.6-6.2-4.1-14.4c-0.3-4.9-0.2-12.2,0.1-16.1
			c0.4-3.9,0.4-17.3,0.2-29.6c-0.3-12.4-0.5-23.4-0.5-24.5c0.1-4-2.1-10-5.7-15.4c-4.1-6.2-4.7-8-4.4-13.1c0.5-9.6,0.5-79.2,0-83.8
			c-0.4-3.6-1.7-7.2-4.2-11.2c-5.4-8.7-6.3-12.3-5.6-21.5c0.8-11.8,0.6-73.2-0.3-78.7c-0.5-2.9-2.4-7.1-5-11
			c-4.8-7.2-4.9-7.5-4.8-14.3c0.6-34.1,0.7-67.3,0.1-76.7c-0.7-11.4-0.9-11.9-4.8-18.5c-2.2-3.7-4.3-7.9-4.7-9.3
			c-0.3-1.4-0.7-13.8-0.8-27.5c-0.2-27,0.1-25.4-6.5-35.9c-2.5-4-3.3-6.7-4.1-13.3c-0.8-6.9-1.5-9.3-4.6-14.2
			c-3.4-5.5-4.3-8.8-6.1-21.5c-0.2-1.7-2-5.5-3.9-8.5c-4-6.1-5.1-9.8-5.9-18.4c-0.4-4.3-1.4-7.4-3.9-11.5c-1.9-3.1-4.1-7.6-5.1-10.1
			c-0.9-2.5-3.5-7.5-5.7-11.1s-3.9-7-3.9-7.5s-2.3-5.6-5.2-11.2c-5.2-10.2-5.2-10.2-4.8-21c0.8-21.2,0.2-57.9-1.1-61.7
			c-2.1-6.4-5.5-9.2-20.3-16.5c-11.5-5.7-15.4-7.1-20.7-7.6c-3.6-0.4-7.9-1.3-9.7-2.1c-4.7-2.2-16.5-15.1-18.1-19.8
			c-0.7-2.2-3-6.9-5.1-10.5c-4.8-8.3-4.8-8.3-5.5-22c-0.5-9.9-1-12.1-3.2-16c-6.3-10.9-6.4-11.3-6.7-23.9
			c-0.3-12.1-0.3-12.1-4.4-18.8c-2.2-3.7-5.1-9.4-6.3-12.6c-1.6-4.3-4.3-8.1-10-14.3c-9-9.7-9.4-10.8-9.2-27
			c0.1-11.7,0.5-12.9,7.4-25.4c3.3-5.9,2.7-12.5-2-20.2c-4.1-6.8-6-12.6-6-18.9c0-2-1.1-5.6-2.4-8s-3.3-6.2-4.5-8.4
			s-3.2-6.5-4.6-9.7c-1.5-3.5-5.1-8.5-9.4-13.2c-7.4-7.9-9.2-12.2-9.2-21.5c0-2.6-1.2-5.8-4.1-10.5c-2.2-3.7-4.7-8.6-5.5-10.9
			s-3.2-6.9-5.4-10.2c-6.3-9.7-6.2-16.1,0.4-24.8c3.2-4.2,9.6-19.2,9.6-22.4c0-1.7-2-4.6-6.6-9.4c-5.5-5.7-7.8-7.3-13.8-9.6
			c-3.9-1.5-8.4-3.6-10-4.7s-6.5-3.5-10.9-5.4s-9.2-4.2-10.7-5.3c-1.4-1-5.8-3.3-9.6-5c-6-2.7-9-5.1-20.2-16.3
			c-11.8-11.8-13.5-13.1-16.8-13.2C4719,1918.5,4717.5,1919.2,4715,1921.8"/>
	</g>
</g>
<circle class="st1" cx="508.2" cy="4144.2" r="129.8"/>
<circle class="st2" cx="508.2" cy="4506.8" r="129.8"/>
<circle class="st3" cx="508.2" cy="4869.4" r="129.8"/>
<text transform="matrix(1 0 0 1 720.8973 4169.1968)" class="st4 st5 st6">MULTI-PURPOSE BUILDINGS</text>
<text transform="matrix(1 0 0 1 729.0167 4549.4453)" class="st7 st5 st6">ROADS</text>
<text transform="matrix(1 0 0 1 740.0757 4912.0508)" class="st8 st5 st6">BRIDGES</text>
<text transform="matrix(1 0 0 1 378.4468 3856.5928)" class="st9 st5 st10">PROJECT EXISTENCE INDICATOR</text>
<text transform="matrix(1 0 0 1 241.4395 355.7739)" class="st5 st11">Gitagum</text>
</svg>
