<?xml version="1.0" encoding="utf-8"?>
<!-- Generator: Adobe Illustrator 27.1.0, SVG Export Plug-In . SVG Version: 6.00 Build 0)  -->
<svg version="1.1" id="Layer_1" xmlns="http://www.w3.org/2000/svg" xmlns:xlink="http://www.w3.org/1999/xlink" x="0px" y="0px"
	 viewBox="0 0 7631 5525.2" style="enable-background:new 0 0 7631 5525.2;" xml:space="preserve">
<style type="text/css">
	.st0{fill-rule:evenodd;clip-rule:evenodd;fill:#FBFAFB;}
	.st1{fill-rule:evenodd;clip-rule:evenodd;fill:#9C14E4;}
	.st2{font-family:'ArialMT';}
	.st3{font-size:200px;}
	.st4{fill:#0B0BF9;stroke:#FFFFFF;stroke-miterlimit:10;}
	.st5{fill:#F9F912;stroke:#FFFFFF;stroke-miterlimit:10;}
	.st6{fill:#F70D34;stroke:#FFFFFF;stroke-miterlimit:10;}
	.st7{fill:#8800FF;}
	.st8{font-size:140px;}
	.st9{fill:#7400EF;}
	.st10{fill:#7F00EF;}
	.st11{fill:#8703EF;}
	.st12{font-size:150px;}
</style>
<path class="st0" d="M3253.4,1206.2c-0.1,5.6-4.7,13.9-12.6,22.8c-5.8,6.5-8.7,11-11.2,17.7c-2.6,6.8-5.4,11.2-12.1,18.8
	c-6.7,7.6-9.4,11.8-11.9,18.6c-2.5,6.7-5.3,11.2-12.1,19c-5.9,6.8-9.8,12.6-11.6,17.3c-3.4,8.9-5.9,12.7-14.5,22.4
	c-4.9,5.5-7.9,10.3-10.3,16.8c-2.6,6.9-5.5,11.5-12.2,19.2c-6.6,7.6-9.6,12.3-12.1,18.9s-5.5,11.3-12.1,18.9
	c-6.7,7.7-9.6,12.2-12,18.7s-5.3,11-12.1,18.8c-5.9,6.8-9.8,12.6-11.6,17.3c-3.4,8.9-5.9,12.7-14.5,22.4c-5,5.6-7.9,10.3-10.4,16.9
	c-2.7,7.1-5.4,11.3-11.8,18.5c-5.4,6-9.5,12.2-11.9,17.5c-2,4.5-5.6,11.7-8.1,15.9c-4.4,7.3-4.5,8-4.5,19.1c0,11.5,0,11.5,5.4,20.1
	s5.4,8.6,6.3,24.7c0.8,15.9,0.9,16.3,6,25.7c5,9.5,5.1,9.9,6,25.8c0.9,16.1,0.9,16.1,6.2,24.6s5.3,8.5,6,24.3
	c0.7,16.3,0.8,16.8,7.8,29.4c2.7,4.8,3.5,8.2,4,16.5c0.8,13.7-0.9,19.2-6.6,21.7c-6,2.6-13.8,1.1-21.2-4.2
	c-7.5-5.4-10.1-6.3-21.9-7.8c-7.2-0.9-10.8-2.1-15.2-5c-3.2-2.1-8.2-4.7-11.2-5.8c-3-1.1-9.1-4.3-13.5-7.1c-6.4-4-10-5.3-16.9-6.2
	c-11.2-1.5-12.4-1.9-20.5-7c-5.4-3.4-8.7-4.5-16.6-5.4c-9.4-1.1-13.3-2.6-23-9c-2.3-1.5-8.4-3.3-15-4.3c-7.9-1.2-12.5-2.7-15.9-5
	c-6.7-4.6-10-5.7-20.9-7c-7.9-0.9-10.7-1.9-16.1-5.6c-3.6-2.5-9.3-5.6-12.8-7s-9.4-4.6-13.2-7c-5.7-3.6-8.8-4.7-17-5.6
	c-8.5-1-11.3-1.9-18.2-6.3c-6.7-4.2-10.1-5.4-19.1-6.8c-8.7-1.4-12.4-2.6-18-6.2c-5.8-3.7-8.8-4.7-17.1-5.7c-8.6-1-11.4-2-18.4-6.4
	c-6.6-4.1-10.1-5.4-17-6.3c-11.2-1.5-12.4-1.8-20.4-6.8c-3.7-2.3-8.6-4.8-11.1-5.6c-2.4-0.8-7.9-3.7-12.3-6.4
	c-6.3-4-10.1-5.3-19.1-6.8c-7.9-1.3-12.6-2.9-16-5.1c-6.7-4.6-10-5.7-20.9-7c-8.1-1-10.7-1.9-17-6.2c-6-4-9.2-5.3-16.5-6.4
	c-11.7-1.7-12.6-2-20.6-7.1c-5.3-3.4-8.7-4.5-16.4-5.4c-11.4-1.4-12.8-1.8-19.7-6.7c-2.9-2-8.1-4.9-11.5-6.4
	c-3.5-1.5-9.4-4.6-13.2-6.8c-5.3-3.2-9.1-4.4-16.8-5.3c-8.4-1-11.2-2-18.3-6.4c-7-4.4-9.8-5.4-18.1-6.3c-5.4-0.6-11.3-2-13.2-3
	c-3.7-2-9.7-8.8-9.7-11c0-0.8-0.3-1-0.8-0.6c-0.4,0.4,0.2,2.3,1.3,4.1c2,3.2,2,3.6-1,10.6c-1.7,4-3.1,7.9-3.1,8.6s-0.9,1.9-1.9,2.5
	c-1.5,0.9-0.1,2.2,6.6,6.4c7.3,4.6,9.8,5.5,18.3,6.3c8.4,0.9,11,1.8,18.1,6.3c7,4.4,9.9,5.4,18.2,6.4c9.4,1.1,14.2,2.8,20.8,7.5
	c1.7,1.2,5.5,3.1,8.5,4.3c3,1.2,9.1,4.5,13.7,7.3c7,4.4,9.7,5.3,18,6.1c8.4,0.9,11,1.8,18,6.2c7.1,4.4,9.7,5.3,18,6.2
	c8.4,0.9,11,1.8,18.2,6.3s9.8,5.4,18.2,6.3s11,1.8,18.3,6.4c7.4,4.6,9.9,5.5,18.4,6.4c8.2,0.9,11,1.8,16.9,5.5
	c3.9,2.5,9.4,5.4,12.3,6.4c2.9,1.1,8.9,4.2,13.3,7c6.9,4.3,9.5,5.2,17.9,6.1s11,1.8,18.2,6.3s9.8,5.4,18.2,6.3s11,1.8,18.2,6.3
	s9.8,5.4,18.2,6.3s11,1.8,18.3,6.4c7.3,4.5,10,5.5,17.9,6.4c8.2,0.9,11.3,2,25.7,9.7c9,4.8,18.4,9.9,20.8,11.5
	c3,1.9,7.6,3.2,14.2,3.9c8.4,0.9,10.9,1.8,18.3,6.4c7.4,4.6,9.9,5.5,18.3,6.4c8.4,0.9,11,1.8,18.2,6.3s9.8,5.4,18.2,6.3
	s11,1.8,18,6.2c7,4.4,9.7,5.3,17.8,6.2c9.2,1,14.4,2.9,21.2,7.9c1.8,1.3,5.6,3.2,8.5,4.3c2.9,1.1,8.9,4.2,13.4,7.1
	c7,4.4,9.6,5.3,17.9,6.2c18.3,1.9,34.8,14.7,27.3,21.2c-0.9,0.8-5,2.8-9,4.4s-9.7,4.7-12.6,6.7c-6.4,4.5-7.8,5-19.1,6.5
	c-6.8,0.9-10.5,2.2-15.8,5.6c-3.8,2.4-9.9,5.6-13.5,7.1s-9.6,4.6-13.4,7c-5.5,3.5-8.7,4.6-16.8,5.5c-7.8,0.9-11.6,2.1-16.9,5.3
	c-3.8,2.3-10.3,5.6-14.4,7.4c-4.1,1.8-9.2,4.5-11.2,6.1c-2.1,1.5-7.2,4.2-11.3,6c-4.2,1.7-10.6,5.1-14.3,7.5
	c-5.4,3.5-8.7,4.5-16.8,5.5c-8.5,1-11.4,2-18.1,6.2c-4.4,2.8-10.4,5.9-13.4,7s-7.9,3.6-11,5.7c-3.1,2-8,4.6-11,5.7s-9,4.2-13.4,7
	c-6.7,4.2-9.6,5.2-18.1,6.2c-8.3,1-11.4,2-18.1,6.1c-4.4,2.7-9.9,5.5-12.2,6.4c-2.3,0.8-7.8,3.7-12.2,6.5c-6.6,4.2-9.7,5.2-18.2,6.3
	c-8.2,1-11.6,2.2-17.1,5.7c-3.8,2.4-9.2,5.2-12.1,6.3c-2.9,1.1-8.8,4.1-13.1,6.8c-4.3,2.7-10.7,6.1-14.2,7.5s-8.4,4-10.9,5.7
	s-7.8,4.4-11.7,5.9c-9.7,3.8-21.3,15.1-25.5,24.7c-1.7,3.9-4.9,10.8-7.2,15.3s-5.3,11.4-6.8,15.4c-1.9,5.2-5.1,10-11.1,16.8
	c-5.9,6.6-9.9,12.6-13.2,19.8c-2.6,5.7-6.1,12.8-7.8,15.9s-7.2,14.7-12.3,25.8c-7.7,16.6-10.6,21.5-16.7,28.3
	c-5,5.5-8.4,10.7-10.3,15.8c-1.6,4.2-4.6,10.4-6.7,13.8c-2.1,3.5-5.3,10.1-7.1,14.6c-2.4,5.8-6.1,11.4-12.2,18.5
	c-5.5,6.4-9.6,12.4-11,16.2c-1.2,3.3-4.2,9.7-6.7,14.2s-5.2,10.2-6,12.7s-2.9,7-4.8,10.1c-6.9,11.4-15.9,31.5-15.9,35.8
	c0,3.9,3.2,7.5,38.4,43.9c38.4,39.6,38.4,39.6,48.2,43.6s9.8,4,84.3,81.2c41,42.5,75.4,77.8,76.4,78.4c1,0.7,5.6,2.7,10.3,4.6
	c8.1,3.2,9.8,4.7,34.1,29.7c16,16.4,26.6,28.3,28.1,31.6c1.4,2.9,4.1,8.9,6.1,13.4s4.7,10.2,6.1,12.6c1.3,2.4,6.1,12.3,10.5,22
	c4.5,9.7,10,20.8,12.3,24.8c3.5,5.9,4.4,9,5.2,17.3c0.8,8.4,1.8,11.7,5.9,19.4c2.7,5.1,5.7,11.6,6.7,14.5s3.5,7.7,5.5,10.8
	c5.1,7.7,9.7,18.2,9.7,22.2c0,5.6-2.5,6.9-14.6,7.8c-11.4,0.8-13.6,1.6-24.5,8.7c-8.4,5.4-15.6,6.1-64.5,5.7
	c-44.9-0.4-44.9-0.4-53.9,5.3s-9,5.7-60,6.3c-49.1,0.6-51.1,0.7-55.8,3.3c-17.7,9.8-15.4,9.2-37.6,10.3c-16.7,0.8-21.2,1.4-23.9,3.2
	c-3.8,2.6-6.2,9.1-8,21c-0.9,6.2-2.4,10.1-5.9,15.6c-4.7,7.3-4.7,7.3-5.3,35.7s-0.6,28.4-4.1,34.7c-8.1,14.4-8.4,15.6-9.1,30.3
	c-0.5,11.2-1.1,14.6-2.9,16.6c-2.8,3.2-23.8,15.5-31.5,18.4c-3.7,1.4-9.3,5.6-15.4,11.4c-7.2,6.8-11.7,10-17.9,12.6
	c-4.5,1.9-11.5,5.5-15.4,8c-7.2,4.6-7.2,4.6-32.7,4.6c-29.6,0-29.1,0.2-41.9-12.7c-5.8-5.7-10.7-9.2-18.3-12.8
	c-11.7-5.6-15.2-9.3-19.4-20.8c-1.8-4.9-5.4-10.5-11-16.9c-4.6-5.3-9.3-12-10.4-14.7c-2-4.9-5-10.9-11.6-23.8
	c-2.9-5.6-3.2-7.5-3.2-19.6c0-14.5,0.7-12.2-9.9-32.9c-2.2-4.3-2.3-6.8-2-30.2c0.4-25.6,0.4-25.6,5.5-33.5c2.8-4.4,5.4-9.7,5.8-11.9
	c0.4-2.2,0.5-21.8,0.3-43.6c-0.4-39.6-0.4-39.6-3.4-45c-9.2-16.4-8.5-12.3-8.5-50.2c0-22-0.4-34.3-1.2-34.3c-0.7,0-1.2,1-1.2,2.3
	c0,2.7-5.5,8.3-13.7,14c-5.9,4.1-5.9,4.1-8.8,1.2c-1.6-1.6-3.3-2.5-3.7-2s-0.2,0.8,0.6,0.8c3.5,0,4.5,6,5.1,31.5
	c0.6,25.7,0.6,25.8,4.1,32.1c9.2,16.5,8.6,12.5,8.6,52.8c0,36.5,0,36.5-5.5,46.5c-5.5,10.1-5.5,10.1-5.8,40.3
	c-0.4,30.3-0.4,30.3,4.8,40.3c5,9.7,5.2,10.5,6,25.1c0.9,16.5,1.2,17.6,6.3,25.5c1.9,2.9,4.3,7.7,5.3,10.7
	c2.8,8.1,7.4,15.6,11.5,18.7c5.3,4,10.2,11.4,13.8,21.2c2.7,7.3,4.9,10.4,16.1,22.4c12.6,13.4,17.6,17.2,27.3,20.4
	c2.7,0.9,8.7,5.5,14.7,11.3c7.3,7,11.6,10.2,15.4,11.3c3.6,1.1,13.5,1.4,31.4,1.1c26.2-0.4,26.2-0.4,33.7-5.2
	c4.2-2.7,10.8-6.2,14.9-7.8c5.2-2.1,9.8-5.4,16-11.6c6.2-6.1,10.8-9.5,15.9-11.5c4-1.6,10.1-4.9,13.5-7.3c7.2-5,11.6-5.5,15.2-1.8
	c3.9,4.1,4.6,23.2,4.3,111.2c-0.3,78.3-0.3,78.3-3.9,84.6c-9.1,16.2-8.3,4.4-8.1,113.6c0.1,56.6-0.3,99.9-1,102.7
	c-0.6,2.7-2.5,6.4-4.3,8.2c-3.1,3.3-3.1,3.3-82.3,3.3s-79.2,0-86.4-4.7c-9.7-6.2-14.8-7.2-29.8-6c-16.4,1.4-301.4,1.4-321.2,0
	c-16-1.1-17.4-1.6-28.7-9c-6.6-4.3-6.6-4.3-71-4.9c-59-0.6-64.7-0.8-67.7-2.9c-1.8-1.2-3.3-1.6-3.3-0.9c0,0.7,0.7,1.6,1.6,2
	c1.3,0.5,0.9,2.9-1.9,10.9c-4,11.7-5.1,13.4-8.7,13.8c-1.4,0.2,30,0.6,69.7,0.9c72.3,0.7,72.3,0.7,78.8,5.2c3.6,2.5,7.3,5,8.3,5.7
	c1,0.6,80.7,1.4,181.4,1.7c179.6,0.6,179.6,0.6,186.2,5.4c3.7,2.6,8.5,5.3,10.7,6c2.4,0.7,35.5,1.2,82.1,1.2
	c50.8,0,78.8,0.4,80.3,1.3c4.1,2.3,5.3,6.6,6.1,20.8c0.6,12.6,1,14.5,4.3,19.9c8.8,14.7,8.4,12.7,8.6,42.5c0.2,29.5,0,28.1,8,41.3
	c2.4,4,2.7,6.5,3.3,26.5c0.6,22.1,0.6,22.1,4.7,28.9c8.2,13.6,7.9,12.1,8.6,42.7c0.6,28.3,0.6,28.3,5.5,36.4
	c4.8,8.1,4.8,8.1,5.5,30.2c0.6,22.1,0.6,22.1,6.3,32c6.4,11.1,7.2,16.3,6.8,40.5c-0.2,11.7,0,13,3,18.2c8.9,15.4,8.7,14.5,8.8,43.6
	c0.1,26.6,0.1,26.6,4.2,33.3c8,13.1,7.9,12.7,8.6,36.3c0.6,22,0.6,22,5.5,30.1c4.8,8.1,4.8,8.1,5.5,39.6c0.4,17.4,0.3,32-0.1,32.5
	c-1.3,1.6-6.2-1-12.7-6.6c-3.3-2.9-11.2-7.8-17.4-10.9c-10-4.9-13-7.2-25.5-19.7c-11.4-11.4-15.5-14.8-21.4-17.2
	c-4-1.7-10.3-4.9-13.9-7.1c-3.7-2.2-9.1-5.1-12-6.3c-3-1.2-8.4-4.1-12-6.4c-3.7-2.3-8.3-4.4-10.4-4.7c-15.5-2.3-19.4-3.4-26-7.7
	c-5.5-3.5-9.1-4.8-16-5.7c-11.3-1.5-12.4-1.9-20.6-7c-5.3-3.3-9.2-4.7-17.6-6c-8.5-1.3-12.4-2.7-18.2-6.3c-5.9-3.6-9.8-5-18.5-6.3
	c-8.8-1.4-12.4-2.6-18.1-6.2c-5.6-3.6-9.3-4.9-17.9-6.2c-8.5-1.3-12.4-2.7-18.2-6.3c-5.9-3.6-9.7-5-18.4-6.3
	c-8.8-1.4-12.4-2.6-18.2-6.3s-9.4-5-18.3-6.3c-6.7-1-12.4-2.7-14.4-4.2c-6.7-4.9-11.8-6.8-22.3-8.5c-8.5-1.3-12.2-2.6-17.9-6.3
	c-5.8-3.7-9.1-4.8-16.7-5.8c-5.2-0.7-11.4-2.2-13.8-3.5c-2.3-1.3-6.9-3.8-10.2-5.6s-7.9-3.3-10.3-3.3c-7.4-0.1-14.8-2.4-22.2-7.1
	c-5.7-3.7-9.2-4.9-17.7-6.1c-8.4-1.2-12.1-2.5-18-6.1c-5.9-3.7-9.7-5-18.5-6.3c-6.1-1-12.6-2.7-14.4-4s-10.7-6.2-19.7-10.9
	c-13.9-7.3-18-8.9-26.9-10.3c-8.3-1.3-12-2.6-17.6-6.2c-5.7-3.7-9.3-4.9-18.2-6.3c-8.9-1.4-12.4-2.6-18.2-6.3c-5.7-3.7-9.4-5-18-6.3
	c-8.4-1.3-12.3-2.7-18-6.2c-3.9-2.5-8.9-4.8-10.9-5.1c-15.4-2.2-19.4-3.4-25.9-7.6c-5.3-3.4-9.2-4.8-16.1-5.8
	c-11.8-1.7-12.6-2-20.9-7.3c-5.6-3.6-9.1-4.8-17.8-6c-8.8-1.3-12.1-2.4-18-6.2c-5.7-3.7-9.4-5-18-6.3c-8.4-1.3-12.3-2.7-18-6.2
	c-3.9-2.5-8.9-4.8-10.9-5.1c-15.5-2.3-19.4-3.4-26-7.7c-5.5-3.5-9.1-4.8-16-5.7c-11.3-1.5-12.4-1.9-20.6-7c-5.3-3.3-9.2-4.7-17.6-6
	c-8.5-1.3-12.4-2.7-18.3-6.4c-6.3-3.9-9.4-4.9-19.1-6.2c-9.2-1.2-12.2-2.1-14.6-4.5c-1.7-1.6-3.1-3.9-3.1-4.9
	c-0.1-1.3-0.3-1.4-0.7-0.4c-0.3,0.9,0.5,3,1.8,4.7c2,2.6,2.2,4,1.4,8.5c-0.6,3-1,7.5-1.1,10c0,4-0.6,4.9-4.6,6.9
	c-2.6,1.4-6.2,4.9-8.6,8.6c-2.2,3.5-2.8,4.6-1.3,2.6c7-9.4,9.3-11,14.1-10.4c16.4,2.3,25.4,4.9,33.1,9.8c7,4.4,9.5,5.2,18.7,6.2
	c9.1,1,11.5,1.8,16.8,5.4c7.8,5.4,8.9,5.8,20.6,7.2c7.6,0.9,10.7,1.9,14.5,4.8c8.1,6,10.5,6.9,21.1,7.9c8.6,0.8,11.1,1.6,16.4,5.2
	c8.2,5.6,9.4,6,20.6,7.2c7.9,0.8,10.5,1.7,15.8,5.4c9.1,6.3,8.5,6.1,19.7,7.2c8.8,0.8,11.1,1.6,16.6,5.4c7.8,5.4,9.1,5.8,20.9,7.2
	c7.7,0.9,10.4,1.8,15.6,5.5c8,5.7,11.7,7.1,18.9,7.1c7.3,0,12.5,1.8,19.9,7.1c3.2,2.3,6.2,4.2,6.7,4.2c0.4,0,5.4,0.6,11,1.2
	c8.2,1,11.2,2,15.2,4.8c7.9,5.9,10,6.6,21,7.8c8.9,1,11.4,1.8,16.6,5.4c8.6,6,7.7,5.7,19.5,7.1c8.7,1,11.7,2,16.7,5.3
	c3.4,2.2,10.2,5.9,15.1,8.1c5,2.2,9.9,4.9,11,5.9c3.2,3,8.7,4.7,18.7,5.8c7.9,0.8,10.5,1.7,15.8,5.4c9,6.3,8.3,6,19.8,7.3
	c9,1,11.4,1.8,16.7,5.4c7.8,5.5,9,5.9,20.5,7.1c7.9,0.8,10.5,1.7,15.8,5.4c9.2,6.4,8.9,6.3,19.1,7.2c8.1,0.7,10.6,1.6,17.9,6.1
	c7.4,4.7,9.7,5.4,19.1,6.4c8.8,0.9,11.5,1.8,15.6,4.8c8,5.9,10,6.6,21,7.8c8.9,1,11.4,1.8,16.6,5.4c8.6,6,7.7,5.7,19.6,7.1
	c8.9,1.1,11.6,1.9,15.9,5.1c7.4,5.5,12.8,7.5,20.1,7.5c6.3,0,13.2,2.7,22.3,8.8c2.5,1.7,7.3,2.9,14.3,3.6c9.1,1,11.5,1.7,16.9,5.5
	c9,6.3,8.3,6,19.8,7.3c9,1,11.4,1.8,16.7,5.4c7.8,5.5,9,5.9,20.5,7.1c7.9,0.8,10.5,1.7,15.8,5.4c9.2,6.4,8.9,6.3,19.1,7.2
	c6.1,0.6,11,1.8,14,3.6c2.6,1.5,8.2,4.4,12.6,6.5c4.3,2.1,9.8,4.9,12.1,6.3c4.5,2.7,12.9,6.9,21.8,10.7c3.6,1.6,10.6,7.5,20.6,17.6
	c13,13.1,16.2,15.6,22.8,18.1c5.4,2.1,10.1,5.3,16.4,11.1c6,5.6,12.3,9.9,20.1,13.8c8.2,4.1,13.6,7.8,19.6,13.7
	c5.7,5.6,10.6,9.1,15.9,11.3c4.2,1.8,9.5,4.5,11.8,6.2c2.3,1.6,8.5,4.8,13.8,7c7.7,3.2,11.2,5.7,18.1,12.6
	c6.7,6.7,10.5,9.4,17.1,12.1c6.5,2.6,10.8,5.6,17.9,12.4c6.5,6.1,11.6,9.9,16.5,11.9c3.9,1.6,10.1,4.7,13.7,6.8
	c3.7,2.1,8.8,5,11.5,6.4c7.7,4,8.2,7.8,2.6,18.4c-3.7,7-4.8,10.7-5.6,18.8c-0.8,8.3-1.7,11.3-5.3,17.3c-2.4,4-5.4,10.1-6.7,13.7
	c-1.3,3.5-4.1,9.3-6.2,12.8c-2.9,4.8-4.2,9.2-5.4,17.8c-1,6.7-2.7,13.1-4.1,15.4c-6.1,10-7.6,14.1-8.6,23.9
	c-0.9,8.1-2,11.7-5.2,17.2c-5.2,8.9-5.6,10-6.9,21.4c-0.8,6.2-2.1,11-4,13.9c-1.6,2.5-6.4,12.1-10.8,21.4c-6.6,14-8.2,18.7-9.2,26.9
	c-1,7.8-2.2,11.4-5.6,17.2c-2.4,4-4.8,10-5.5,13.4s-1.7,9-2.3,12.4c-0.7,3.5-3.1,9.7-5.5,13.8c-2.4,4.1-4.4,8.3-4.4,9.4
	c-0.2,10.4-2.5,19.8-6.6,26.6c-2.7,4.5-4.9,10.2-5.6,14.7c-2.4,14.4-3.7,18.7-7.2,24.3c-1.9,3.1-4.4,8.2-5.4,11.3
	c-1,3.1-3.2,7.6-4.7,10c-5.3,8.4-6.7,12.3-8,22.7c-1,8.6-2.1,11.9-6.1,18.7c-3.9,6.7-5,10.1-5.9,17.9c-1.1,9.6-1.8,11.5-7.9,22.5
	c-2.1,3.9-3.6,9.1-4.4,15.7c-1.1,9.2-2.2,12.5-7.6,22.5c-1.1,2.1-3.7,7.5-5.7,12s-5,10.7-6.7,13.9c-2,3.7-3.4,9.1-4.1,15.1
	c-1.4,12.1-2.5,14.9-8.1,20c-9.5,8.6-2.8,8.1-112.9,8.6c-65.4,0.3-102.4,0-107.8-0.8c-9-1.5-12.5-3.9-15.8-11.3
	c-1.1-2.5-3.8-7.7-6-11.5s-4.9-9.6-6.1-12.9c-1.2-3.5-5.4-9.8-10-15.1c-5.1-6-9.6-12.8-12.8-19.8c-3.5-7.7-7.1-13.1-12.7-19.1
	c-12.2-13.1-18.7-14-32.6-4.6c-7.9,5.3-7.9,5.3-23.2,6.1c-15.6,0.8-18.9,1.8-27.2,7.9c-2.1,1.5-7.6,3.1-14.3,4.2
	c-7.2,1.1-12.6,2.8-16,4.9c-10.6,6.6-13.2,7.4-28.1,8.3c-15.8,0.9-17,1.3-24.2,6.3c-6,4.2-7.6,4.7-18.6,6.1
	c-7.1,0.9-10.5,2.2-17.5,6.6c-8.7,5.4-8.7,5.4-23.9,6.2c-15.5,0.7-18.7,1.6-27.1,7.8c-2.1,1.5-7.6,3.1-14.5,4.2
	c-8.8,1.4-12.5,2.6-18.1,6.2c-4.7,3-9.5,4.9-14.6,5.7c-13.2,2.2-18.3,3.7-22.1,6.7c-7,5.5-9.6,6.2-25,7c-15.3,0.8-15.4,0.8-23.6,6
	c-7.2,4.5-9.8,5.4-19,6.5c-8.9,1.1-11.8,2-17.8,5.8c-8.8,5.6-13.5,6.8-27.4,6.8c-10.6,0-11.2,0.2-19,5.1c-9.3,5.8-15,6.5-21.4,2.4
	c-2.3-1.4-14.9-13.7-28-27.4c-23.8-24.7-24-24.8-30-38c-6.1-13.2-6.1-13.2-24.9-31.2c-25.3-24.2-94-96.4-100.6-105.7
	c-2.9-4.1-6.6-11.1-8.2-15.5c-2.7-7.5-4.7-10-34.6-41.3c-17.4-18.3-32.7-35.3-33.9-37.7c-1.5-3-2.4-3.8-2.8-2.5
	c-1.2,4-11.7,13.8-14.8,13.9c-2.9,0-2.8,0.2,1.1,2.2c5,2.5,51,49.1,55.7,56.3c1.8,2.8,4.5,8.3,6.1,12.4c2.6,6.8,7.4,12.1,64.4,71.1
	c61.6,63.7,61.6,63.7,67.6,76.9c6,13.2,6,13.2,37.1,45.3c17.1,17.6,32.2,34,33.7,36.4c2.2,3.6,2.7,7,3.4,20.9
	c0.7,15.5,1,16.9,4.3,22.5c8.9,14.8,8.4,11.9,9,49.8c0.6,34.6,0.6,34.6,5.3,42.4c6.1,10.2,7,18.2,6.6,58.9
	c-0.3,31.5-0.3,31.5,5,40.7c3.3,5.7,5.7,11.7,6.4,15.7c0.6,3.6,0.9,19.2,0.8,34.8c-0.3,28.3-0.3,28.3,3,34
	c6.7,11.7,8.5,16.5,7.8,21.7c-0.8,6.1-4.2,10-13,14.9c-3.7,2-8,4.9-9.7,6.4c-3,2.6-3,2.6,0.6,0.4c2-1.3,6.9-4.2,10.9-6.5
	s8.3-5.2,9.5-6.5c1.9-1.9,3.2-2.1,9.1-1.1c3.8,0.6,9.2,0.8,12,0.5c2.8-0.4,5.4-0.1,5.8,0.5c0.4,0.7,1.9,1.9,3.4,2.7
	c2.2,1.2,2.1,0.9-0.6-1.7c-3.1-3.1-3.7-4.9-5.2-17.5c-0.4-3.2-2.1-8.1-3.9-10.7c-7.5-11.4-7.6-12.1-7.6-47c0-35.4,0.7-31.6-8.5-48
	c-3-5.4-3-5.6-3.6-45.7c-0.7-43.5-0.1-39.9-8-54.1c-3.5-6.3-3.5-6.3-4.1-40.9s-0.6-34.6-6.1-44c-4.8-8.2-5.5-10.2-5.4-16.5
	c0-8.4,4.7-17.5,11.4-22.2c3.7-2.6,5.5-2.9,18.4-2.9c15.8,0,18.3-0.6,27.3-7.1c5.6-4,7.4-4.5,17.2-5.4c9.4-0.8,11.7-1.5,15.9-4.6
	c9.9-7.4,11.9-8.1,25.7-8.1c14.4,0,17-0.7,26-7.1c5.5-3.9,7.5-4.5,17.2-5.5c10.2-1,11.5-1.4,18.3-6.4c6.7-4.9,8.1-5.4,17.6-6.3
	c11.3-1.1,10.7-0.8,20-7.4c6.5-4.5,6.5-4.5,23.2-5.2c15.3-0.6,17.1-0.9,20.8-3.7c2.2-1.7,5.4-4.1,7.1-5.4c2-1.5,6.7-2.7,13.6-3.5
	c11.6-1.2,10.9-1,20.1-7.4c6.5-4.5,6.5-4.5,23.1-5.2c16.1-0.6,16.8-0.7,21.7-4.4c8.9-6.6,12.6-8.2,19.8-8.2c8.3,0,11.7-1.2,20.2-7.3
	c6.5-4.6,6.5-4.6,22.4-5.3c16.4-0.6,18.7-1.3,25.4-7.1c4.1-3.5,10.5-3.9,13.2-0.8c1,1.2,2.8,4.1,3.9,6.3c1.1,2.3,6,8.7,10.9,14.2
	c6.1,6.9,9.8,12.3,11.6,17.2c1.5,4,4.8,11.2,7.3,16c3.4,6.5,4.9,11.4,5.9,18.8c1.6,12.1,4.1,16.9,10.4,20.2
	c4.7,2.5,7.5,2.5,120.2,2.8c80.3,0.2,116.2,0.7,117.9,1.6c4.3,2.4,5.8,7.6,6.4,21.6c0.5,13.1,0.7,13.6,5.6,22.2
	c6.9,11.9,7.7,18,7.2,58.1c-0.4,33.3-0.4,33.3,3.2,39.4c9.1,15.1,8.4,11.2,9.1,56.2c0.6,40.9,0.6,40.9,4.2,47.2
	c7.2,12.4,8,17.5,4.3,25c-2.1,4.4-2.2,4.6-0.2,2.8c2-1.9,2.6-1.9,7.5-0.1c3.1,1.1,8.7,1.9,13.2,1.8c4.3-0.1,9,0.2,10.3,0.7
	c2.2,0.8,2.2,0.7-0.2-1.1c-3-2.4-4.7-7.3-5.8-17.1c-0.6-4.9-2.2-9.4-5.9-15.7c-5.1-8.8-5.1-8.8-5.7-49.7
	c-0.6-39.5-0.7-41.1-3.3-45.3c-8.8-14.5-8.2-10.4-8.8-54.7c-0.6-38.9-0.7-40.4-3.3-45.3c-8.7-16-8.6-15.6-8.9-42.1
	c-0.3-25.8,0.3-29.4,5.7-34.1c3.3-2.9,6.5-11.4,6.5-17.5c0-8.1,2.1-14.6,6.7-21.6c2.2-3.4,4.7-8.2,5.5-10.8
	c0.8-2.6,3.6-8.5,6.3-13.2c4-6.9,5-10.2,5.9-18c1.3-12.3,1.8-13.8,6.8-20.9c3.6-5.2,4.4-7.5,5.7-18.3s2.1-13.2,5.9-19
	c4.4-6.7,5-8.7,6.2-22.2c0.5-5.8,1.7-9,4.8-13.8c2.3-3.5,5.3-9.4,6.7-13.2c1.4-3.8,4.5-10.1,6.9-14.1c3.4-5.8,4.5-9.1,5.3-16.8
	c1.3-12.4,1.8-13.9,6.9-21.1c3.7-5.3,4.4-7.6,5.8-18.6c1.3-10.1,2.2-13.4,4.8-16.9c4.6-6.2,6.7-12.2,6.7-19.1c0.1-7.5,2-13.3,7.1-21
	c3.3-5,4.2-7.8,5.1-16.3c1.3-12.7,1.7-14,6-20.4c1.9-2.8,4.4-7.9,5.7-11.3s4.5-10,7.2-14.6c4.2-7.3,5-9.8,5.7-18.3
	c0.6-7.1,1.6-11.2,3.8-14.8c5.8-9.8,7.8-15.2,7.8-20.7c0-7.6,2.1-14.9,5.4-19.5c4.7-6.5,6.7-11.6,6.8-17.2c0-8.3,2.1-15.9,6-21.7
	c1.9-2.9,4.7-8.4,6-12.1c1.4-3.7,4.4-9.7,6.8-13.2c4.3-6.5,6.6-15.5,6.6-25.8c0-6.2,4.3-12.4,11.6-16.6c5.1-3,7.1-3.4,13.5-3.1
	c6.2,0.3,8.6,1.2,13.9,4.9c3.5,2.5,7.3,5,8.3,5.6s17.2,1.4,35.9,1.7c34.1,0.6,34.1,0.6,40.6,5.2c3.6,2.5,7.3,5,8.3,5.7
	c1,0.6,19.9,1.4,42,1.7c40.2,0.6,40.2,0.6,46.7,5.2c3.6,2.5,7.3,5,8.3,5.7c1,0.6,17.2,1.4,35.9,1.7c34.1,0.6,34.1,0.6,40.6,5.2
	c3.6,2.5,7.3,5,8.3,5.7c1,0.6,17.1,1.4,35.8,1.7c34,0.6,34,0.6,42.4,6.3c8.4,5.7,8.4,5.7,42.5,6.3c34.2,0.6,34.2,0.6,40.7,5.2
	c3.6,2.5,7.3,5,8.3,5.7c1,0.6,19.9,1.4,42,1.7c40.2,0.6,40.2,0.6,46.8,5.4c3.7,2.6,8.5,5.3,10.7,6s18.1,1.2,35.2,1.2
	c31.1,0,31.1,0,37.6,4.5c3.6,2.5,7.6,5.2,8.9,6c1.6,1,14,1.7,36.5,2.1c34.1,0.6,34.1,0.6,40.6,5.2c3.6,2.5,7.3,5,8.3,5.7
	c1,0.6,19.9,1.4,42,1.7c40.2,0.6,40.2,0.6,46.7,5.2c3.6,2.5,7.3,5,8.3,5.7c1,0.6,17.2,1.4,35.9,1.7c34.1,0.6,34.1,0.6,40.6,5.2
	c3.6,2.5,7.3,5,8.3,5.7c1,0.6,17.2,1.4,35.9,1.7c34.1,0.6,34.1,0.6,40.6,5.2c3.6,2.5,7.3,5,8.3,5.7c1,0.6,17.1,1.4,35.8,1.7
	c34,0.6,34,0.6,42.4,6.3c8.4,5.7,8.4,5.7,48.6,6.3c40.2,0.6,40.2,0.6,46.7,5.2c3.6,2.5,7.3,5,8.3,5.7c1,0.6,17.1,1.4,35.9,1.7
	c34.1,0.6,34.1,0.6,41.1,5.5c5.9,4,8.6,5.1,15.9,5.9c15.3,1.8,16.3,3.1,17.6,22.2c0.7,10.5,1.6,15.8,3.3,19.1
	c10.2,19.8,9.3,14.2,9.3,57.6c0,39.2,0,39.2,4.1,45.9c8.5,14,7.9,9.9,8.2,60.7c0.3,46.4,0.3,46.4,5.2,54.9c6.7,11.4,7.5,18.2,7,58.6
	c-0.4,32.8-0.4,32.8,3.8,39.6c8.4,13.9,7.9,10.7,8.6,55.2c0.6,40.9,0.6,40.9,5.3,49.5c4.2,7.7,4.8,9.7,5.3,19.7s0.3,11.7-2.1,15.9
	c-2.4,4.2-2.4,4.5-0.4,2.6c2.1-1.9,3.2-2,9.5-0.8c3.9,0.8,9.4,1.1,12.2,0.7c3.4-0.5,5.7-0.1,7.3,1.1c1.3,1,3.1,1.8,4.1,1.8
	s0.4-0.8-1.4-1.8c-4.4-2.5-5.9-7.8-5.9-21.3c0-12.1-0.1-12.4-8-26.5c-3.5-6.3-3.5-6.3-4.1-47.3s-0.6-41-4.9-47.8
	c-2.4-3.7-4.8-7.9-5.4-9.3s-1.4-20.6-1.7-42.8c-0.6-40.3-0.6-40.3-4.1-46.5c-7.9-14.3-7.4-9.8-8-61c-0.6-49.9-0.5-48.5-6.7-57.2
	c-5-7.1-5.4-10.7-5.4-49.1c0-39-0.3-41.4-6.1-50.3c-5.2-8.1-6.1-12.4-6.1-30.9c0-18.7,0.6-21.7,6-28.8c1.9-2.5,4.7-7.7,6.1-11.4
	c1.4-3.7,4.4-9.9,6.7-13.7c2.3-3.8,4.9-9.4,6-12.4c1-3,3.7-8.6,6-12.6c2.3-3.9,5.4-10.5,6.8-14.5c1.9-5.4,4.8-9.8,10.9-16.5
	c6.4-6.9,9.2-11.2,11.9-18.2c2-5,5-11.2,6.6-13.7c1.7-2.5,4.7-8.8,6.7-13.9c2.8-7.2,5.4-11.2,12-18.2c6.3-6.8,9-10.9,11.1-16.5
	c1.5-4.2,4.3-10.1,6.2-13.2c1.9-3.1,4.6-8.8,6.1-12.5c1.4-3.8,4.4-10,6.7-13.8c2.3-3.8,5.3-10.3,6.7-14.3c1.9-5.4,4.9-9.9,11.4-17.1
	s9.5-11.7,11.5-17.2c1.5-4.1,4.3-10,6.2-13.2c1.9-3.1,4.3-8,5.3-10.9c3.2-9.4,5.8-13.5,13.6-21.8c5.7-6,8.5-10.3,10.8-16.2
	c1.7-4.4,4.7-10.7,6.7-14s5.1-9.6,6.7-14c1.7-4.4,4.3-10.1,6-12.6c1.6-2.6,4.3-8.1,6-12.3c3.8-9.6,6.8-14.2,14.6-22.1
	c4.5-4.6,6.9-8.4,8.9-14c1.5-4.2,4.1-9.9,5.9-12.6c1.8-2.7,4.7-8.7,6.6-13.4s4.6-10.2,6-12.3s3.9-7.2,5.5-11.4s4.6-10.4,6.6-13.7
	s5.1-9.6,6.7-14c1.7-4.4,4.4-10.1,6-12.7c1.7-2.6,4.1-7.8,5.5-11.6s3.9-9,5.6-11.6s4.7-8.7,6.6-13.4s4.6-10.2,6-12.3
	s3.9-7.2,5.5-11.4s4.6-10.4,6.6-13.7s5-9.4,6.6-13.7c1.6-4.2,4-9.2,5.3-11.2c1.3-1.9,4.1-7,6.1-11.2c2.1-4.2,4.7-8.2,5.9-8.8
	c1.2-0.6,13.9-1.4,28.2-1.7c26.1-0.7,26.1-0.7,31.9-4.4c13.7-8.8,8.5-8.2,63.9-8.2s51.7,0.5,63.2-8.2c5-3.8,5-3.8,63.3-4.4
	c58.3-0.6,58.3-0.6,64.1-4.4c13.9-9,5.6-8.2,87.6-8.1c81.6,0.1,76.9,0.5,87.6-7.9c5.3-4.1,5.3-4.1,100-4.8
	c94.7-0.6,94.7-0.6,100.6-4.4c13.9-9,3.6-8.2,106.3-8.2c103,0,92.8,0.8,106.2-8.5c5.9-4.1,5.9-4.1,98.4-4.1
	c101.6,0,95.5,0.4,106.6-7.8c5.5-4.1,5.5-4.1,106.9-4.8c101.4-0.6,101.4-0.6,109.2-6.3c7.8-5.7,7.8-5.7,102.4-6.3
	c94.7-0.6,94.7-0.6,100.5-4.4c13.9-9,3.6-8.2,106.3-8.2s93.9,0.7,105.7-8.2c5-3.8,5-3.8,42.1-4.4c20.4-0.4,36.5-0.8,35.7-0.9
	c-1.5-0.3-2.4-2.5-6.5-15.7c-2-6.5-2.3-9-1.3-10.3c0.9-1.1-0.4-0.8-3.2,0.7c-4.1,2.2-7.3,2.4-31.4,2.4c-29.6,0-34.1,0.8-43.3,7.3
	c-3,2.1-7.9,4.6-10.8,5.4c-3.9,1.1-29,1.6-96.4,1.7c-91.1,0.2-91.1,0.2-97,4.1c-3.2,2.1-8,4.5-10.7,5.2c-3.3,0.9-33.6,1.4-93.3,1.4
	c-54.8,0-90.1,0.5-92.8,1.3c-2.4,0.7-7,3.2-10.3,5.6c-10,7.4-11.3,7.5-98.2,7.5c-43.3,0-86-0.1-94.9-0.4c-16.1-0.5-16.1-0.5-24.8,5
	c-8.8,5.5-8.8,5.5-102.1,6.1c-104.3,0.7-92.8-0.3-108.9,9.4c-5.3,3.2-7.4,3.6-24.2,4.7c-10.1,0.6-52.5,1-94.2,0.8
	c-75.8-0.4-75.8-0.4-83.6,4.7c-7.8,5-7.8,5-101.9,5.7c-94.1,0.6-94.1,0.6-102.6,6c-11.1,6.9-16.5,7.9-45.2,7.9
	c-28.4,0-37-1.2-41.3-5.7c-3.1-3.2-3.1-3.3-3.7-31.3c-0.6-28.1-0.6-28.1-4.9-34.9c-2.4-3.7-4.8-7.9-5.5-9.3
	c-0.6-1.4-1.4-31.6-1.7-67.9c-0.6-65.4-0.6-65.4-4.1-71.7c-8-14.4-7.4-7.8-8-79.9c-0.6-66.1-0.6-66.1-6.1-74.8s-5.5-8.7-6.1-74.8
	c-0.3-36.7-1.1-67.2-1.7-68.6c-0.6-1.4-3.1-5.6-5.5-9.3c-4.3-6.8-4.3-6.8-4.9-73.7s-0.6-66.8-6.1-75.5s-5.5-8.7-5.8-32.5
	c-0.4-24.3,0.3-29,4.3-32.6c1.4-1.2,10.5-1.8,34.7-2.2c32.9-0.6,32.9-0.6,38.7-4.4c13.8-8.9,5.7-8.2,88.1-8.2s75.8,0.6,87.5-8.2
	c5-3.8,5-3.8,87.6-4.4c82.5-0.6,82.5-0.6,88.4-4.4c15-9.7,6-8.8,89.9-8.8c75.2,0,75.2,0,80.6-3.9c3-2.1,6.8-4.7,8.5-5.7
	c2.5-1.4,18-1.9,85.5-2.4c82.4-0.6,82.4-0.6,90.8-6.6c8.3-6,8.3-6,83.6-6c83.3,0,76.5,0.6,88.3-8.2c5-3.8,5-3.8,36.7-4.2
	c17.4-0.2,30.5-0.9,29.2-1.4c-1.7-0.7-3.5-4.4-6.1-12.4c-3.4-10.4-3.6-11.7-1.8-13.6c1.5-1.6,1.1-1.5-1.7,0.3c-3.1,2-6.9,2.4-27.9,3
	c-26.4,0.7-25,0.4-40,9.5c-6.1,3.7-6.1,3.7-77.6,3.9c-39.3,0.1-73.5,0.5-76,0.8s-7.9,2.8-12,5.4c-7.6,4.8-7.6,4.8-88.9,5.5
	c-90.8,0.7-80.8-0.3-97.1,9.5c-6.1,3.7-6.1,3.7-80.8,3.8c-74.8,0.1-74.8,0.1-83.6,5.7c-8.9,5.6-8.9,5.6-90.1,6.2
	c-81.3,0.6-81.3,0.6-87.3,4.1c-17.4,10-8.1,9.1-91.2,9.3c-74.3,0.2-74.3,0.2-82.4,5.3c-4.5,2.8-10.4,5.5-13.1,5.9
	c-2.7,0.5-48,0.9-100.7,1c-95.7,0.2-95.7,0.2-104.3,5.6c-5.7,3.6-11,5.8-15.7,6.6c-4.5,0.8-46.2,1.2-112.8,1
	c-105.6-0.3-105.6-0.3-114.2,5.1c-6.2,3.9-10.6,5.7-16.2,6.5c-4.3,0.6-56.9,1.2-118.1,1.1c-60.7,0-111.5,0.4-112.7,0.9
	c-1.3,0.5-5.1,2.8-8.6,5c-3.4,2.3-8.8,4.7-12,5.5c-3.8,0.9-41.6,1.3-112.9,1.2c-119.5-0.1-105.6-1.1-122.2,8.1c-6,3.3-6,3.3-53.6,3
	c-47.6-0.4-47.6-0.4-50.9-3.8c-3.4-3.5-3.4-3.5-4-43.4c-0.7-43.5-0.3-40.9-8.4-53.7c-3.1-4.9-3.1-4.9-3.8-109.6s-0.6-104.7-5-111.4
	c-2.4-3.7-4.9-7.6-5.5-8.6s-1.3-45.8-1.7-99.4c-0.6-97.5-0.6-97.5-4.1-103.8c-1.9-3.5-4.4-8-5.5-10.1c-1.7-3.4-2-15.3-2.6-107.7
	c-0.6-103.9-0.6-103.9-5.1-110.7c-2.5-3.7-5.1-8.4-5.8-10.3c-0.8-2.2-1.3-17-1.3-38.7c0-38.6,0.4-40.9,7-43.8
	c2.4-1.1,10.7-1.4,27.1-1.1c23.5,0.4,23.5,0.4,30.1,4.8c3.6,2.4,9.9,5.9,13.9,7.7s10.6,5.3,14.5,7.9c5.3,3.4,8.6,4.6,12.7,4.7
	c3,0.1,23.3,0.2,45,0.3c39.4,0.2,39.4,0.2,48.5,5.9c9,5.7,9,5.7,20.6,5.7c11.5,0,11.5,0,19.3-5.7c7.4-5.4,8.1-5.7,16.4-5.7
	c7.6,0,9.3,0.5,14.7,4c3.3,2.2,9.9,5.7,14.7,7.7s10.2,4.9,12.1,6.4c5.3,4.3,34.8,34.5,62.5,64c22.5,23.9,25.4,26.7,29,26.7
	c2.3,0,9.4-2.7,16.8-6.5c9.7-4.9,14.9-8.5,21.5-14.9c6.8-6.6,10.5-9.2,17.6-12s10.7-5.3,17.6-12c8.6-8.5,14.1-12,22.8-15
	c2.9-1,8.4-5.2,14.2-10.7c6.9-6.7,11.3-9.9,16.5-11.8c3.9-1.5,10.2-4.7,14.1-7.2s10.4-5.8,14.4-7.5c5.3-2.1,9.7-5.3,15.4-11
	c8-8.1,13.6-11.7,22.5-14.7c2.9-1,8.2-5,13.7-10.3c5.6-5.5,11.4-9.8,15.8-11.8c12.7-5.7,14.8-7.1,21.9-14.8c5-5.4,7.9-9.9,9.8-15.2
	c1.5-4.2,4.3-10.1,6.2-13.2c1.9-3.1,4.5-8.6,5.8-12.2c1.3-3.6,4.6-10,7.4-14.3c7.2-11.1,6.9-16.6-1.7-29.6c-4.4-6.7-4-12.2,1.5-20.5
	c4.5-6.8,4.5-6.8,4.9-35.2c0.3-18.4-0.1-30.1-1-33.2c-0.8-2.9-4.7-8.6-9.8-14.4c-4.8-5.4-9.7-12.6-11.5-16.6
	c-1.7-3.9-4.2-9.3-5.6-12.1c-8.7-16.7-8.3-15.3-8.3-29.5c0-13.9-1.2-18.1-8.4-29.7c-1.5-2.4-2.8-7.8-3.6-15
	c-1-9.5-1.9-12.2-5.5-17.9c-5.5-8.6-5.7-14.2-0.7-21.9c2-3,5-9.4,6.8-14.1c2.5-6.6,5.3-10.9,12.4-19c7.5-8.5,9.8-12,12.2-19
	c2.3-6.9,4.5-10.4,11.1-17.5c4.5-4.9,9.6-11.9,11.3-15.5c1.7-3.6,4.1-7.1,5.3-7.8c1.2-0.7,1.6-1.3,1-1.3s-2.4,1.2-3.9,2.7
	c-2.8,2.7-2.8,2.7-10.7,0c-4.4-1.5-9-2.7-10.2-2.7c-1.3,0-2.6-0.7-2.9-1.6s-0.7-0.2-0.7,1.6c-0.2,5.7-4.5,13.4-12.6,22.5
	c-5.9,6.7-8.7,11.2-11.3,18c-2.6,7-5.4,11.3-11.7,18.4c-5.6,6.3-9.8,12.6-13.1,19.6c-2.6,5.7-6.2,12.8-8,15.8
	c-4.8,8.3-4.3,14.6,2.1,24.7c4.4,7.1,5.2,9.4,6.2,18.4c1.1,10.4,1.6,11.7,7.7,22.9c3,5.5,3.5,7.7,4.1,22c0.6,13.5,1.2,16.6,3.5,20.3
	c1.5,2.4,5.1,9.6,8.1,16c4,8.7,7.7,14.1,14.4,21.6c6.9,7.6,9.3,11.3,10.4,15.7c1.7,7.1,1.8,42.6,0.2,48.8c-0.7,2.5-3.4,7.9-6,11.9
	c-7.9,12.1-7.8,15,1.9,33.3c3.5,6.6,3.2,9.3-1.9,17.6c-1.9,3.1-4.6,8.7-6,12.4s-4.6,10.3-7.1,14.7s-5.4,9.6-6.5,11.7
	c-1.2,2.2-5.4,5.8-10.3,8.8c-4.6,2.8-11,8-14.4,11.6c-4.4,4.8-9.1,8-17.2,12c-7.9,3.8-13.6,7.8-19.6,13.5s-10.9,9.1-16.6,11.5
	c-4.5,1.9-11.5,5.5-15.6,8.1s-9.8,5.5-12.7,6.5c-3.2,1.1-8.7,5.1-14.5,10.5c-6.5,6.2-12.2,10.2-19.2,13.5
	c-6.8,3.3-12.5,7.2-17.9,12.5c-5.6,5.4-11.1,9.2-18.2,12.6c-7.1,3.4-12.6,7.2-18.1,12.5c-5.3,5.1-11,9.1-17.2,12
	c-14.1,6.7-17.8,7.6-22.5,5.6c-2.4-1-20.6-19-46.4-45.9c-37.1-38.6-43.2-44.5-48.5-46.5c-3.3-1.3-9.9-4.6-14.5-7.5
	c-8.2-5-8.8-5.2-19.4-5.2c-10.8,0-11.1,0.1-19.9,5.6c-7.9,4.9-9.7,5.6-16.4,5.7c-6.6,0.1-8.4-0.5-14.7-4.4c-4-2.5-8.3-5-9.6-5.5
	s-21.8-1.1-45.5-1.2c-43.1-0.2-43.1-0.2-49.7-3.8c-41.1-22.3-38.1-21.4-68.4-21.1c-31.2,0.3-38.9-0.7-46.1-6
	c-4.4-3.3-10.4-6.6-30.9-17c-6.9-3.5-14.1-7.3-23.9-12.7c-3.2-1.7-8.2-4.2-11.2-5.6c-3-1.4-7.9-3.9-10.9-5.6c-3-1.7-9-4.9-13.3-6.9
	c-4.3-2.1-9.8-4.9-12.1-6.3c-2.3-1.4-7.5-4.1-11.5-6.1s-9.5-4.8-12.1-6.3c-2.7-1.5-7.8-4.1-11.5-5.8s-9.1-4.5-12.1-6.3
	c-3-1.7-8.7-4.8-12.7-6.8s-9.5-4.8-12.1-6.3c-2.7-1.5-8.4-4.4-12.7-6.5s-9.8-4.9-12.1-6.3s-7.5-4.2-11.5-6.2
	c-17-8.5-24.1-12.2-37.9-19.7c-3.2-1.7-8.5-4.5-11.8-6.1s-8.2-4.2-10.9-5.6s-8.4-4.4-12.7-6.4s-9.8-4.9-12.1-6.3s-7.5-4.2-11.5-6.2
	c-12-6-20.3-10.2-26.4-13.5c-3.2-1.7-8.3-4.5-11.5-6.1c-3.2-1.7-8.5-4.4-11.8-6.1s-8.2-4.2-10.9-5.7s-8.4-4.4-12.7-6.5
	s-9.8-4.9-12.1-6.3s-7.5-4.2-11.5-6.2c-12-6-20.3-10.2-26.4-13.5c-3.2-1.7-8.4-4.5-11.5-6.1c-3.2-1.7-8.5-4.4-11.8-6.1
	s-8.2-4.2-10.9-5.7s-8.4-4.4-12.7-6.5s-9.8-4.9-12.1-6.3s-7.5-4.1-11.5-6.1s-9.5-4.8-12.1-6.3c-2.7-1.5-8.4-4.4-12.7-6.5
	s-9.8-4.9-12.1-6.3s-7.5-4.2-11.5-6.1c-4-2-11.4-6-16.5-8.8c-8.5-4.8-9.6-5.9-13.7-13.7c-2.5-4.7-5.7-10.5-7.1-12.9
	c-2.3-3.8-2.7-6.8-3.3-20.8c-0.6-16.4-0.6-16.4-6-25.7c-5.4-9.3-5.4-9.3-6.1-25.9c-0.7-16.6-0.7-16.6-5.1-23.4
	c-6.3-9.6-7-12.2-7-26.6c0-13.5-1.2-17.5-8.7-29.7c-2.3-3.7-2.8-6.7-3.3-20.9c-0.7-16.5-0.7-16.5-5.7-24.4
	c-5.3-8.2-7.4-16.1-5.9-22.4c0.4-1.9,2.9-7.2,5.5-11.7s5.9-11.5,7.3-15.5c1.9-5.3,5-9.9,11.4-17.1c7-7.8,9.5-11.6,12.2-18.9
	s5.1-11.1,12.1-18.9c7-7.7,9.4-11.6,12.1-18.8c2.7-7.3,5.2-11.2,12.6-19.5c7.5-8.5,9.8-12,12.1-18.9s4.6-10.4,11.6-18.2
	c7-7.7,9.4-11.6,12.1-18.8c2.7-7.3,5.2-11.2,12.6-19.5c7.5-8.5,9.8-12,12.1-18.9s4.6-10.4,11.6-18.2c7-7.7,9.4-11.6,12.1-18.8
	c2.7-7.3,5.2-11.2,12.6-19.5c7.5-8.5,9.8-12,12.1-18.9s4.6-10.4,11.6-18.2c6.9-7.7,9.4-11.6,12.1-18.7c2.6-7,5.2-11.1,11.5-18.2
	c4.5-5,9.2-11.1,10.3-13.5c1.2-2.4,3.3-5.8,4.7-7.5c2.6-3.1,2.6-3.1-0.7-0.2c-3.2,3-3.2,3-10,0.3c-3.7-1.5-8.1-2.6-9.7-2.6
	c-1.6,0-3.5-1-4.2-2.2C3253.6,1203.3,3253.4,1203.4,3253.4,1206.2 M2452.5,1359c0,22.1,0.2,31,0.4,19.7s0.2-29.4,0-40.3
	C2452.7,1327.6,2452.5,1336.9,2452.5,1359 M3078.8,1838.4c-3.5,2.5-8.6,5.3-11.3,6.3c-2.8,1-8.6,4-12.9,6.7
	c-4.3,2.7-9.9,5.5-12.4,6.3s-7.9,3.8-11.9,6.6c-6.6,4.6-8.5,5.2-17.9,6.2c-8.8,0.9-11.6,1.8-17.2,5.4c-3.7,2.4-9.6,5.4-13.1,6.8
	c-3.6,1.4-9.4,4.6-13,7.2c-5.9,4.2-7.5,4.8-17.6,5.6c-9.9,0.9-11.7,1.4-17.3,5.4c-3.4,2.5-8.7,5.4-11.7,6.4c-3,1.1-8.5,3.9-12.1,6.3
	c-3.7,2.4-9.7,5.5-13.3,7s-9.7,4.7-13.6,7.2c-5.9,3.8-8.6,4.6-16.6,5.4c-8.3,0.8-10.7,1.6-17.9,6.1c-4.5,2.8-10.6,6-13.5,7.1
	s-8.3,3.9-12.1,6.3s-9.3,5.3-12.3,6.4s-8.3,4-11.8,6.5c-5.6,4-7.6,4.6-16.8,5.5c-9,0.9-11.5,1.6-17.6,5.5c-3.9,2.5-9.4,5.4-12.3,6.4
	c-2.9,1.1-8.9,4.2-13.5,7.1c-7.1,4.5-9.6,5.3-17.9,6.1c-8.1,0.7-10.7,1.6-16.8,5.5c-4,2.5-9.6,5.5-12.4,6.5
	c-2.9,1.1-8.8,4.1-13.1,6.8s-10.2,5.8-13,6.8s-8.6,4-12.9,6.7c-4.3,2.6-9.5,5.8-11.6,7s-4.7,3.9-5.9,6.1c-1.1,2.2-4.1,7.5-6.6,11.9
	s-5.7,11.2-7.1,15.2c-1.9,5.2-5,9.9-11.4,17c-6.5,7.2-9.5,11.7-11.4,17.1c-1.4,4-4.4,10.4-6.7,14.3c-2.3,3.8-5.3,10.1-6.7,13.8
	c-1.4,3.8-4.2,9.4-6.1,12.5c-1.9,3.1-4.7,9-6.1,13.1c-2,5.5-5,10-11.3,17.1c-6.3,7-9.4,11.7-11.4,17.1c-1.5,4.1-4.6,10.6-6.8,14.4
	c-2.3,3.8-5.3,10.4-6.8,14.5c-2,5.6-4.8,9.7-10.9,16.3c-5.5,5.9-9.3,11.3-11.4,16.4c-1.7,4.1-4.3,9.8-5.7,12.5
	c-1.4,2.8-3.9,7.9-5.5,11.3c-1.6,3.5-4.3,9.1-6.1,12.6c-8.4,16.6-13.9,29.1-14.5,32.7c-0.4,2.4,0.2,5.6,1.3,7.9
	c2.5,5,37.4,42.3,45.9,49c3.5,2.8,10.1,6.6,14.6,8.6c8.1,3.5,10.4,5.8,83,81.1c74.8,77.5,74.8,77.5,85.7,82.1s10.9,4.6,44.2,39
	c36,37.1,37.2,38,48.6,36.9c4.1-0.4,8.5-2.2,14.6-6.1c8.7-5.5,8.7-5.5,24-6.2c15.6-0.8,18.7-1.7,27-7.7c1.8-1.3,5.6-3.2,8.5-4.3
	s9-4.3,13.7-7.2c8.5-5.3,8.5-5.3,25.5-5.3s17,0,26,5.6s9,5.6,24.2,6.4c16.5,0.8,13.6-0.3,52.8,21c2.7,1.4,13,6.7,23,11.7
	s19.7,10.2,21.5,11.5s6.7,3.8,10.8,5.4c4.1,1.7,9.9,4.7,13,6.7s8.1,4.7,11.1,5.9c9.2,3.7,12.1,6.6,16.3,16.2
	c2.2,5,5.7,11.5,7.7,14.4c4.9,7,6.7,16.7,6,31c-0.6,11.9-1.6,14.8-8.4,24.3c-3.8,5.3-3.9,5.7-4.6,22c-0.4,9.1-1.2,17.5-1.7,18.5
	c-0.6,1-3,4.9-5.4,8.6c-4.4,6.8-4.4,6.8-4.8,26.4c-0.4,21.6-1.2,18.1,8,36c1.4,2.8,4,8.1,5.7,12c1.7,3.8,4.6,9.8,6.4,13.3
	c1.8,3.5,4.6,9.2,6.1,12.8c1.5,3.5,6.5,10.7,11,15.9c5.1,5.8,9.1,11.8,10.4,15.5c1.2,3.3,3.7,8.7,5.7,11.9c1.9,3.2,4.9,9.3,6.5,13.5
	c1.7,4.2,4.6,10.4,6.6,13.7c1.9,3.3,4.6,8.9,6,12.4c1.3,3.5,4.1,9.1,6.1,12.4c2,3.3,4.8,9.6,6.2,13.9c2.9,9.2,10.2,17.1,17.7,19.4
	c3.2,1,20.9,1.3,58,1c53.4-0.4,53.4-0.4,62.2-5.9s8.8-5.5,128.5-5.3c82.7,0.2,121.5-0.2,125.6-1.1c3.2-0.8,8.4-3.1,11.4-5.3
	c10-7.2,11.6-7.3,68.7-7.4c56.2,0,55.8,0,60.6-6.7c2.4-3.3,2.6-5.5,3-31.1c0.5-35.4-0.7-45.3-6.8-55.6c-4.6-7.7-4.6-7.7-5.2-111.5
	c-0.6-103.9-0.6-103.9-3.9-109.5c-9.4-16.3-8.4-3.9-8.7-111.2c-0.2-107,0.7-95.2-8.5-111.6c-3.2-5.8-3.2-5.8-3.5-108.8
	s-0.3-103-3.6-108.7c-9.4-16.3-8.6-10.8-8.7-59.7c-0.1-50.5,0-49.6-9.9-54.8c-3.4-1.8-9.1-5-12.7-7.1c-3.6-2.1-9.1-4.9-12.1-6.1
	c-3-1.2-7.6-3.6-10.3-5.4c-2.7-1.7-8.1-4.6-12.1-6.4c-4-1.8-10.3-5-13.9-7.2c-3.7-2.2-9.1-5-12.1-6.2s-7-3.3-8.9-4.7
	s-7.4-4.3-12.1-6.4c-4.7-2.1-11.7-5.7-15.4-8c-3.7-2.2-9.1-4.9-11.9-5.9c-2.8-1-8.2-3.8-12-6.2s-9.3-5.3-12.3-6.6
	c-3-1.2-8.1-3.8-11.3-5.9c-3.2-2-8.5-4.7-11.7-6c-3.3-1.3-8.8-4.2-12.4-6.6c-3.5-2.3-8.9-5.2-11.9-6.4c-3-1.2-9.3-4.3-13.9-6.9
	c-4.7-2.6-10.4-5.5-12.7-6.4s-6.4-3.1-9.1-4.8c-2.7-1.7-8.1-4.6-12.1-6.4s-10.3-5-13.9-7.2c-3.7-2.2-9.1-5-12.1-6.2s-7-3.3-8.9-4.7
	c-1.9-1.4-7.4-4.3-12.1-6.4c-4.7-2.1-11.7-5.7-15.4-8c-3.7-2.2-9.1-4.9-11.9-5.9c-2.8-1-8.2-3.8-12-6.2c-3.8-2.4-9.3-5.3-12.3-6.6
	c-3-1.2-8.1-3.8-11.3-5.9c-3.2-2-8.5-4.7-11.7-6c-3.3-1.3-8.9-4.3-12.6-6.8c-3.7-2.4-7.1-4.4-7.7-4.4c-1.1,0-28.7-13.8-36.7-18.3
	c-3-1.7-9-4.8-13.3-6.9s-9.8-4.9-12.1-6.3s-7.2-3.9-10.9-5.7c-3.7-1.7-9.1-4.5-12.1-6.3c-3-1.7-9-4.9-13.3-6.9
	c-4.3-2.1-9.8-4.9-12.1-6.3s-7.2-3.9-10.9-5.6s-9.1-4.5-12.1-6.2s-8.5-4.6-12.1-6.3c-3.7-1.7-9.1-4.6-12.1-6.3
	c-3-1.7-9.8-5.3-15.2-8c-5.3-2.7-11.8-6.3-14.4-8.2C3091.2,1832.6,3086.5,1832.9,3078.8,1838.4 M2904.4,2614
	c-1.5,0.6-4.7,2.6-6.9,4.4c-2.3,1.8-8,4.9-12.7,6.9s-11.1,5.5-14.1,7.7c-5.4,4-5.7,4.1-22.1,4.8c-16.1,0.7-16.8,0.8-23.2,4.9
	c-9.8,6.2-13.3,10-13.3,14.5c0,4.2,3.8,13.4,9.1,22.2c1.9,3.1,4.6,8.8,6.1,12.7s4.4,9.7,6.4,12.8c3.8,5.7,5.2,10.3,7.3,24.1
	c0.7,4.8,2.7,10.2,5.5,15c2.4,4.1,4.9,9.5,5.7,12s3.2,7.7,5.5,11.6c2.3,3.9,4.9,9.6,6,12.6c1,3,4.1,9.1,6.9,13.5
	c4.3,6.8,5.1,9,5.1,14.6c0,7.6-2.4,12.2-8.1,15.4c-3.2,1.8-8.1,2.3-25.9,2.9c-22,0.6-22,0.6-27.3,4.6c-10.6,7.8-7,7.4-62.3,7.4
	c-48.8,0-51.1,0.1-54.7,2.5c-16.8,11.1-9.9,10-67.8,10.7c-52.2,0.6-52.2,0.6-57.3,4.4c-10.1,7.6-12,8.2-25.8,8.2
	c-14.8,0-17.4,1.3-21.8,10.5c-1.4,2.9-4.5,8.3-6.9,12c-4.4,6.8-4.4,6.8-5,35.9c-0.3,16-1.1,29.9-1.7,31c-0.6,1-3,4.9-5.5,8.6
	c-4.4,6.8-4.4,6.8-4.6,132.1c-0.1,68.9-0.5,127.7-0.8,130.6c-0.3,3.5-2.1,7.5-5.1,11.8c-2.5,3.6-5,8.3-5.6,10.4
	c-1.7,6.3-1.4,235.1,0.3,239.1c1.6,3.7,19.9,15.6,32.5,21.1c5.1,2.2,10.2,5.8,14.6,10.2c8,8,12.1,11,19.4,13.9c3,1.2,8.5,4,12.1,6.2
	c3.7,2.2,9.6,5.3,13.2,6.8c3.6,1.6,9.1,4.5,12.1,6.5c3.1,2,8.8,4.9,12.7,6.5c5.2,2,9.7,5.2,16.3,11.6c5,4.9,11.1,9.6,13.5,10.6
	s12.5,6,22.5,11.1c12.9,6.6,19.6,10.8,23,14.5c6.1,6.6,13,11.5,20,14.3c3,1.2,8.6,4.1,12.3,6.5c3.8,2.4,9.2,5.2,12.1,6.3
	c2.9,1.1,8.8,4.1,13.1,6.7c4.3,2.6,10.6,5.9,13.9,7.1c3.8,1.5,9,5.2,14,10.2c7,6.8,18.1,14.3,21.4,14.3c0.6,0,4.6,2.1,8.9,4.8
	c4.3,2.6,11.1,6.1,15.1,7.8c5.1,2.1,10,5.7,16.1,11.7c5.6,5.4,11.4,9.8,15.8,11.8c10.9,4.9,36.8,18.3,41.5,21.4
	c2.3,1.6,7.4,4,11.2,5.5c5,1.9,9.7,5.3,16.5,11.8c6,5.8,11.8,10,15.5,11.4c3.2,1.3,11.6,5.3,18.5,9s13.3,6.7,14.2,6.7
	s5.3,3.6,9.8,7.9c10.3,10,14,12.6,22.2,16c3.6,1.5,9,4.2,12,6.1c3,1.9,7.9,4.4,10.9,5.6c3,1.2,8.5,4,12.1,6.3
	c3.7,2.2,9.9,5.4,13.7,7c4.5,1.9,10.1,5.8,15.4,10.9c8.5,8.1,12.5,10.8,20.7,13.8c2.6,1,7.1,3.4,10,5.5c7.7,5.5,10.7,5.9,14.9,2.2
	c3.4-3,3.5-3.6,4.2-17.6c0.6-13.8,0.9-14.8,5-21.8c2.4-4,5.1-8.8,6-10.5c1.3-2.5,1.8-15.3,2.3-62.9c0.6-59.8,0.6-59.8,5.3-67.5
	c2.6-4.3,5.1-9.9,5.7-12.6c0.6-2.7,1.1-29.5,1.1-59.6c0-54.7,0-54.7,5.8-66.7c5.8-11.9,5.8-11.9,5.9-75.7
	c0.2-70.8-0.6-63.5,8.4-79.6c3.5-6.3,3.5-6.3,4.1-66.1s0.6-59.8,4.5-66c7.2-11.7,7-9.2,7.6-73c0.6-59.2,0.6-59.2,5.1-66.2
	c6.9-10.7,7.3-13.4,6.8-45.8c-0.4-29-0.4-29-4.2-35.2c-2.1-3.4-8-15-13.1-25.7s-10.1-21.2-11.2-23.3c-6.3-11.9-19-38.7-21.2-44.6
	c-1.7-4.7-5.1-9.7-10.9-16.1c-5.4-5.9-9.5-11.8-11.4-16.4c-1.7-4-3.9-8.9-5-11s-6-12-10.9-22c-8.8-18.2-8.8-18.2-8.9-41.1
	c0-22.9,0-22.9,5-32.7c4.9-9.4,5.1-10.4,6-25.1c0.9-15,1-15.5,6.5-26.2c5.5-10.9,5.6-11,5.6-23.5c0-15.6-0.9-17.8-13.1-30.3
	c-7.8-8.1-11-10.4-19.1-13.9c-5.3-2.3-11.9-5.6-14.5-7.3c-2.7-1.7-7.5-4.2-10.8-5.5s-9-4.2-12.7-6.5s-9.2-5.1-12.2-6.3
	s-7.7-3.7-10.4-5.6c-2.7-1.9-8.4-4.9-12.6-6.7c-4.2-1.8-10.5-5.1-13.8-7.3c-6-4-6.7-4.1-21.9-4.7c-14.9-0.6-16.1-0.8-21.6-4.4
	c-12.5-8.1-12.8-8.2-25.7-8.1C2912.7,2612.8,2906,2613.3,2904.4,2614 M2101,2902.3c-43.6,45.6-43.6,45.6,0.3,0.3
	c40.8-42.1,44.5-45.9,43.6-45.9C2144.8,2856.7,2125,2877.2,2101,2902.3 M4613.7,2978.8c-1.6,0.7-5.7,3.3-9.1,5.9
	c-6.2,4.7-6.2,4.7-118.7,5c-112.6,0.3-112.6,0.3-118,3.8c-3,1.9-7.7,4.8-10.5,6.3c-5,2.8-5,2.8-121.5,2.8
	c-129.1,0-117.5-0.7-129.4,8.2c-5,3.8-5,3.8-118.7,4.4c-113.6,0.6-113.6,0.6-118.9,4.5c-2.9,2.1-6.7,4.7-8.3,5.7
	c-2.5,1.5-24.2,1.9-128,2.4c-125,0.6-125,0.6-132.7,6.3c-7.8,5.7-7.8,5.7-130.2,5.9c-67.3,0.1-124.2,0.6-126.2,1
	c-2.1,0.4-6.2,2.6-9.1,4.9c-9.2,7.2-9,7.2-67.9,7c-34.7-0.1-55,0.3-56.5,1.1c-5.3,3-5.7,4.7-6.4,27.7c-0.6,22.1-0.6,22.1-6.1,30.2
	s-5.5,8-6.1,68.6c-0.3,33.3-1.1,61.4-1.7,62.4c-0.6,1-3,4.9-5.5,8.6c-4.4,6.8-4.4,6.8-4.6,64.2c-0.1,31.6-0.5,59.2-0.8,61.5
	c-0.3,2.2-3,7.6-5.9,11.8c-5.2,7.7-5.2,7.7-5.8,74.5c-0.7,72.4-0.2,67.5-7.8,78.6c-3.8,5.5-3.8,5.5-4,61.6
	c-0.1,30.9-0.5,58.5-0.7,61.4c-0.3,3.6-2.2,7.7-5.8,13.1c-5.3,7.9-5.3,7.9-5.9,68.4c-0.6,64.4-0.4,61.7-6.7,70.6
	c-4.4,6.2-5.3,11.5-5.7,34.8c-0.4,25.8-0.2,26.4,11,32.6c3.5,2,10.4,7.4,15.3,12.2c6.9,6.7,10.9,9.4,17.7,12.2
	c7,2.8,10.9,5.5,18.2,12.7c7.5,7.3,11.1,9.8,18.2,12.6c6.6,2.6,10.7,5.3,16.2,10.6c9.1,8.9,12.7,11.4,21.8,15.1
	c4.7,1.9,9.8,5.4,14.5,10.1c9.4,9.2,13.3,11.9,21.6,15.1c4.7,1.8,9.7,5.4,16,11.3c5.1,4.8,11.5,9.7,14.3,10.9
	c6.5,2.9,15.5,7.7,23.3,12.4c6.1,3.7,6.1,3.7,107.3,4.1c55.7,0.2,104.6,0,108.7-0.4c5.9-0.6,9.4-2,17-6.7c9.5-5.9,9.5-5.9,236.9-6.5
	s227.4-0.6,235.2-5.6s7.8-5,99.9-4.7c50.7,0.2,100.7-0.1,111.2-0.7c22-1.1,23.8-1.9,28.8-12.4c1.7-3.5,4.8-9.1,6.9-12.6
	c2.1-3.4,4.7-8.7,5.8-11.8c1-3,3.5-8.3,5.6-11.7c2-3.4,4.8-9.1,6.1-12.6s4.3-9.6,6.6-13.4c2.3-3.8,4.9-9.4,6-12.4
	c1-3,3.7-8.6,6.1-12.6c2.3-3.9,5.1-9.7,6.1-12.8s3.5-8.2,5.5-11.5c2-3.2,5-9.5,6.8-13.9c1.7-4.4,4.2-9.6,5.5-11.5s3.9-7.3,5.7-12
	c1.9-4.7,5.1-11.3,7.2-14.7s4.4-8.2,5.2-10.7c0.8-2.5,3.4-8.2,6-12.7c2.5-4.5,5.6-11,6.8-14.3c2.4-6.8,12.6-19.1,19.7-23.7
	c4.2-2.7,6-2.9,31.8-3.5c27.4-0.6,27.4-0.6,35.2-5.7c7.8-5,7.8-5,56.3-5.1c52.6-0.1,55.1-0.3,64.4-7c9.7-6.9,8.1-6.7,69-7.4
	c57-0.6,57-0.6,66-6.3c9-5.6,9-5.6,29.2-6.3c22.4-0.7,23.9-1.2,27.3-9.7c1.9-4.7,2.3-38.1,0.5-46c-0.6-2.6-3.4-8.8-6.3-13.8
	c-5.3-9-5.3-9-4.9-68.2c0.2-36-0.1-62.1-0.9-66.6c-0.8-4.8-3-10.4-6.2-15.9c-4.9-8.5-4.9-8.5-4.9-70c0-33.8-0.5-63.9-1-66.8
	c-0.5-2.9-3.4-9.4-6.3-14.4c-5.3-9.1-5.3-9.1-5-68.3c0.2-36-0.2-62.2-0.9-66.7c-0.8-4.8-2.9-10.2-5.8-15.1
	c-4.6-7.6-4.6-7.6-5.2-73.7c-0.7-72.5,0-66.2-8.6-80.4c-4.1-6.8-4.1-6.8-3.8-28.2c0.4-24.9-0.9-33.5-5.4-37.3
	c-3-2.5-4.7-2.5-51.1-2.5C4637,2977.6,4615.3,2978.1,4613.7,2978.8 M1929.8,3217.8c-18.1,18.6-35.3,36.6-38.1,39.9
	c-2.8,3.3,12.2-11.8,33.3-33.6c35.1-36.2,39.1-40.4,38.1-40.2C1963,3183.8,1948,3199.1,1929.8,3217.8 M2500.2,3525.6
	c-0.3,0.5-0.2,15.1,0.2,32.5c0.7,31.3,0.7,31.6,3.9,36.5c7.5,11.8,7.6,12.3,8.3,35.9c0.6,22.1,0.6,22.1,5,28.9
	c6.8,10.6,7.2,12.9,7.2,40.7c0,27.5-0.5,25.2,8,40.3c3.4,6.1,3.5,6.8,4.1,28.4c0.6,22.1,0.6,22.1,6.1,30.8s5.5,8.7,6.1,31.5
	c0.6,21.9,0.7,23,3.8,27.7c7.8,12.3,7.7,11.5,8.3,42.1c0.6,28.4,0.6,28.4,6.1,37c5.5,8.7,5.5,8.7,6.1,30.8
	c0.6,21.5,0.7,22.2,4.1,28.4c7.8,14,7.4,11.9,8,42.1c0.5,24.2,0.9,28.8,2.8,32.1c1.2,2.1,3.5,6,5,8.7c1.7,2.9,3.2,8.1,3.7,12.6
	c1.5,13.7,1.7,13.9,27,27.3c11.2,5.9,18.6,10.7,22.6,14.8c7.7,7.7,11.6,10.3,20.6,14c5,2,9.9,5.5,15.5,11
	c5.9,5.8,11.2,9.4,18.8,13.1c5.8,2.8,12,6.2,13.9,7.5c1.9,1.4,6.7,3.8,10.8,5.5s9.1,4.4,11.2,6c8.1,6.4,10.8,7.1,25.4,7.1
	c12.6,0,14.3,0.3,19.8,3.3c17.2,9.5,12.5,8.6,48.4,9.3c32.8,0.6,32.8,0.6,41.3,6c5.7,3.6,11,5.8,15.7,6.6c3.9,0.7,21.9,1.1,40,1
	c32.9-0.3,32.9-0.3,41.8,5.3c8.9,5.6,8.9,5.6,42.3,6.2c35.5,0.7,34.2,0.4,44.5,7.7c7.7,5.4,14.1,6.3,46.5,6.6
	c29.7,0.2,29.7,0.2,37.5,5.2s7.8,5,41.3,5.7c33.5,0.6,33.5,0.6,42,6c5,3.1,11.2,5.9,15.1,6.6c3.6,0.7,18.9,1.2,33.9,1.1
	c42.1-0.4,39.3-0.6,47.1,4.3c3.8,2.4,8,4.8,9.3,5.4s17.2,1.4,35.2,1.8c32.8,0.7,32.8,0.7,41.6,6.2c4.8,3,11.1,6,13.9,6.5
	c2.8,0.6,18.2,1,34.3,1.1c29.2,0.1,29.2,0.1,35.1,3.9c10.2,6.7,10,6.7,51,7.4c38.8,0.7,38.8,0.7,47.5,6.1c11.2,7,17.9,8,50.7,7.5
	c25.5-0.4,25.5-0.4,30.9,3c12.8,8.1,11.3,7.8,46.7,8.5c34.8,0.7,33.6,0.5,43.7,7.6c8.1,5.8,13.3,6.5,46.1,6.7
	c30.4,0.2,30.4,0.2,35.6,3.7c10,6.9,11.9,7.1,51,7.1c36.1,0,36.1,0,42.6,3.8c17.5,10.1,14,9.4,49.3,9.6c31.9,0.2,31.9,0.2,38.8,4.6
	c9,5.8,16.4,7.6,27,6.9c9.8-0.7,12.4-2.5,16-11c1.3-3.1,3.9-7.9,5.8-10.7c1.8-2.8,4.8-8.6,6.6-13s4.5-10,6.1-12.6
	c1.6-2.5,4.1-7.9,5.6-11.9c1.9-5.1,5.3-10.3,11-16.8c4.5-5.2,9.5-12.3,11-15.9c1.5-3.5,4.2-9.3,6.1-12.8c1.8-3.5,5.5-11.2,8.2-17
	c3.4-7.3,7.2-13.1,12-18.2c7.7-8.3,7.6-8,18.2-31.5c4.1-9,8.8-18.9,10.4-22s5.2-10.3,7.8-16c2.6-5.7,7.4-13.3,10.6-17
	c8.1-9.2,10.7-13.4,13.7-21.2c1.4-3.7,4.4-9.9,6.6-13.7c2.2-3.8,5-9.7,6.2-13c1.3-3.7,5.4-9.7,10.5-15.5c4.6-5.2,9.5-12.4,11-15.9
	s4.2-9.3,6.1-12.8c1.8-3.5,5-10,7-14.5s4.2-9.2,4.9-10.5c6.9-12.8,7.3-16.7,1.8-20.4c-2.6-1.8-13.5-2-98.2-1.9
	c-62.9,0.1-96.4,0.6-98.6,1.4c-1.8,0.7-5.1,2.7-7.3,4.4c-9.1,7.2,7,6.8-237.6,6.8c-212.1,0-225.5,0.1-229.2,2.2
	c-2.2,1.2-6.2,3.9-9,6c-5,3.8-5,3.8-116.7,4.1c-61.4,0.2-113.4,0-115.5-0.4s-7-2.9-10.9-5.6c-3.9-2.7-10.2-6.1-14-7.6
	c-4.9-1.9-9.7-5.3-16.5-11.8c-7.4-7-11.5-9.9-18.3-12.7c-6.9-2.8-10.8-5.5-18.1-12.6c-7.4-7.1-11.2-9.8-17.9-12.5
	c-6.6-2.6-10.8-5.5-18.3-12.5c-7.4-6.9-11.8-10-18.3-12.6s-10.8-5.6-18-12.5c-7.4-7-11.5-9.9-18.3-12.6c-6.8-2.8-11-5.6-18.4-12.7
	c-7.1-6.8-11.5-9.9-17.2-12.1c-5.7-2.2-10-5.3-17.2-12.1c-7.3-6.9-11.7-10-18.8-13.1c-5.1-2.2-11.4-5.4-14-7.1
	c-2.6-1.7-6.8-3.9-9.3-4.8c-8.4-3.1-12.7-6-20.7-14.1c-6.2-6.2-10.2-9-17.8-12.2c-5.4-2.3-11.3-5.4-13.2-6.7
	c-1.9-1.4-6.9-4-11.1-5.8c-4.2-1.8-10.2-4.8-13.3-6.8s-8.8-4.9-12.7-6.5c-4.8-2-10.1-5.9-16.5-12c-6.7-6.4-11.5-9.8-16.6-11.8
	c-3.9-1.5-10.1-4.7-13.8-7.1c-3.7-2.4-9.8-5.5-13.6-7c-4.9-1.9-9.7-5.4-16.6-11.9c-6.7-6.4-11.5-9.9-15.5-11.2
	c-3.2-1.1-9.4-4.2-13.9-6.9s-10-5.5-12.2-6.3c-2.3-0.8-7.3-3.4-11.3-5.9c-3.9-2.5-10.6-5.9-14.8-7.7c-5.4-2.3-10.4-5.8-17.1-12.2
	c-6.8-6.4-11.5-9.9-16.6-11.8c-3.9-1.5-10.1-4.7-13.8-7.1c-3.7-2.4-9.7-5.4-13.4-6.9c-4.6-1.8-9.8-5.5-16.6-11.9
	c-7.1-6.7-11.9-10-17.2-12.1c-4-1.6-9.8-4.5-12.8-6.5s-8.9-5-12.9-6.8c-4.1-1.7-9.9-4.7-13-6.7s-8.8-4.9-12.6-6.5
	c-4.9-2-10-5.7-16.6-11.9c-7-6.6-11.5-9.8-16.9-11.9c-4-1.6-9.9-4.5-13-6.5s-9.1-5.1-13.4-6.9c-5.7-2.3-10.5-5.8-17.5-12.4
	c-5.3-5.1-10.9-9.6-12.4-10c-3.6-1.1-39.1-19.1-44.5-22.6c-2.3-1.5-7.4-4-11.3-5.6c-4.8-2-10.1-5.8-16.6-12
	c-7.6-7.3-11.7-10-20-13.7C2505.2,3524.8,2501.1,3523.8,2500.2,3525.6 M1584.7,4456.3c-12.6,13.5-24.8,25.7-27.2,27
	c-2.4,1.3-4,2.4-3.4,2.5c2.9,0.2,9.2-5.4,24.5-21.6c22.2-23.6,30.3-32.5,29.6-32.5C1607.8,4431.7,1597.3,4442.8,1584.7,4456.3
	 M1185.4,4720c-20.9,21.5-43.8,45.4-50.9,53.1s10.1-9.8,38.2-38.8c28.1-29.1,51.2-53,51.2-53.2
	C1223.9,4680.3,1221.1,4683.2,1185.4,4720"/>
<path class="st1" d="M2578.4,906.2c-1.5,1.1-3.9,4.4-5.3,7.3c-1.4,2.9-4,7.5-5.8,10.3s-4.5,8.3-6,12.3s-4.4,9.8-6.4,12.9
	c-2.9,4.6-3.9,7.8-4.8,16.6c-0.6,6-1.9,12.3-2.8,14.1c-0.9,1.8-7.5,9.4-14.8,16.9c-12.9,13.4-14.4,14.5-30.4,21.5
	c-7.6,3.3-22.4,19.9-24.4,27.1c-1.1,4-1.4,15.6-1.1,41.5c0.4,35.9,0.4,35.9,4.3,42.2c6.1,9.9,6.2,12.7,0.7,22.7
	c-4.7,8.6-4.7,8.6-5.3,37s-0.6,28.4-5.8,36.4c-2.8,4.4-5.2,8.9-5.2,10s-0.5,6.1-1.1,11.1c-0.8,7.4-1.8,10.4-5.4,15.7
	c-2.4,3.6-4.9,8.6-5.6,11c-0.8,2.8-0.9,26.7-0.4,67.3c0.4,34.6,0.4,66.1-0.1,70.1c-0.6,5.2-2.2,9.3-5.7,14.9
	c-2.7,4.3-5.9,10.7-7.2,14.3c-1.3,3.6-3.9,9.1-5.8,12.2s-4.7,9-6.2,13.1c-2,5.5-4.8,9.8-10.9,16.3c-4.5,4.8-8.9,10.1-9.7,11.8
	c-0.8,1.6-2.2,8.3-3.1,14.8c-1.4,10.1-2.2,12.9-6,18.4c-6.1,9.2-5.8,15.6,0.9,23.3c4.1,4.6,8.3,6.4,18.9,7.6
	c8.3,1,11.1,1.9,18.1,6.3s9.8,5.4,18.3,6.4c7.7,0.9,11.5,2.1,16.8,5.3c3.8,2.3,9.7,5.4,13.2,6.8c3.5,1.5,8.6,4.4,11.5,6.4
	c6.9,4.8,8.3,5.3,19.7,6.7c7.6,0.9,11,2,16.4,5.4c8,5.1,8.9,5.4,20.6,7.1c7.3,1.1,10.5,2.3,16.5,6.4c6.3,4.3,8.9,5.2,17,6.2
	c10.9,1.3,14.2,2.4,20.9,7c3.3,2.3,8.1,3.8,16,5.1c9,1.5,12.8,2.8,19.1,6.8c4.3,2.7,9.8,5.6,12.3,6.4c2.4,0.8,7.4,3.3,11.1,5.6
	c8.1,5,9.2,5.3,20.4,6.8c7,0.9,10.5,2.2,17,6.3c7,4.4,9.8,5.4,18.4,6.4c8.3,1,11.4,2,17.1,5.7c5.6,3.6,9.3,4.8,18,6.2
	c9,1.4,12.4,2.6,19.1,6.8c6.9,4.3,9.7,5.3,18.2,6.3c8.3,1,11.3,2,17,5.6c3.8,2.4,9.8,5.6,13.2,7c3.5,1.4,9.2,4.6,12.8,7
	c5.3,3.7,8.1,4.7,16.1,5.6c10.9,1.3,14.2,2.4,20.9,7c3.4,2.3,7.9,3.8,15.9,5c6.6,1,12.7,2.8,15,4.3c9.6,6.3,13.6,7.9,23,9
	c7.9,0.9,11.2,2,16.6,5.4c8.1,5.1,9.2,5.5,20.5,7c7,0.9,10.5,2.2,16.9,6.2c4.5,2.8,10.6,6,13.5,7.1c3,1.1,8,3.7,11.2,5.8
	c4.4,2.9,8,4.1,15.2,5c11.8,1.5,14.4,2.4,21.9,7.8c7.4,5.3,15.2,6.8,21.2,4.2c5.7-2.5,7.4-8.1,6.6-21.7c-0.5-8.3-1.3-11.7-4-16.5
	c-7-12.6-7.1-13.1-7.8-29.4c-0.7-15.8-0.7-15.8-6-24.3s-5.3-8.5-6.2-24.6c-0.9-15.9-0.9-16.3-6-25.8c-5-9.5-5.1-9.8-6-25.7
	c-0.8-16.1-0.8-16.1-6.3-24.7c-5.4-8.6-5.4-8.6-5.4-20.1c0-11.1,0.2-11.8,4.5-19.1c2.5-4.2,6.1-11.3,8.1-15.9
	c2.3-5.4,6.5-11.5,11.9-17.5c6.4-7.1,9.1-11.4,11.8-18.5c2.5-6.6,5.4-11.4,10.4-16.9c8.6-9.7,11.1-13.5,14.5-22.4
	c1.8-4.7,5.7-10.6,11.6-17.3c6.8-7.8,9.7-12.3,12.1-18.8c2.4-6.5,5.3-11,12-18.7c6.6-7.6,9.6-12.3,12.1-18.9s5.5-11.3,12.1-18.9
	c6.7-7.7,9.6-12.3,12.2-19.2c2.4-6.5,5.4-11.3,10.3-16.8c8.6-9.7,11.1-13.5,14.5-22.4c1.8-4.7,5.7-10.6,11.6-17.3
	c6.8-7.9,9.7-12.3,12.1-19c2.5-6.8,5.2-11,11.9-18.6c6.7-7.5,9.5-11.9,12.1-18.8c2.5-6.7,5.4-11.2,11.2-17.7
	c11.3-12.6,14.7-22,11.4-31c-1.5-4-7.7-6.9-14.9-6.9c-3.5,0-7.5-1.2-11.9-3.7c-3.6-2-9.6-5.2-13.2-7c-3.7-1.8-8.8-4.5-11.5-5.9
	c-2.7-1.5-6.8-3.7-9.1-5s-8.8-2.8-14.4-3.5c-8.7-1-11-1.8-16.6-5.8c-3.5-2.5-9.4-5.8-12.9-7.2c-3.5-1.4-9.5-4.5-13.1-6.8
	c-5.4-3.4-8.6-4.5-16.7-5.4c-8.5-1-11.3-1.9-18.2-6.3c-4.5-2.8-10.6-6-13.6-7.1s-7.9-3.6-11-5.7c-3.1-2-8-4.6-11-5.7
	s-8.4-3.9-12.1-6.2c-8.1-5.1-9.1-5.4-21.2-7c-7.8-1-10.8-2.1-15.7-5.6c-3.3-2.4-9-5.5-12.7-7c-3.6-1.5-9.6-4.6-13.3-7
	c-5.6-3.5-8.6-4.5-17.5-5.5c-9.1-1.1-11.8-1.9-17-5.5c-3.4-2.3-8.6-5.2-11.6-6.4c-3-1.2-8.5-4.1-12.2-6.4s-9.7-5.5-13.3-6.9
	c-3.6-1.5-9.6-4.6-13.3-7c-5.4-3.5-8.6-4.5-16.7-5.4c-8.5-1-11.3-1.9-18.2-6.3c-4.5-2.8-10.6-6-13.5-7.1s-8.1-3.7-11.5-5.9
	c-3.4-2.1-8.3-4.7-11-5.7s-8.5-4-12.8-6.8c-6.9-4.3-9.4-5.1-18.5-6.1c-9.3-1-11.4-1.7-18.1-6.2c-4.2-2.8-9.6-5.7-12-6.5
	s-7-3.2-10.3-5.4s-9.1-5.2-13-6.8s-9.7-4.6-13-6.7c-6.8-4.3-8.1-4.8-20.4-6.3c-7.3-0.9-10.1-2-15.4-5.7c-3.5-2.5-9.3-5.7-12.9-7.1
	c-3.5-1.4-9.5-4.5-13.1-6.8c-5.1-3.3-8.5-4.5-14.6-5c-10.5-1-15.2-2.6-22.1-7.5c-3.2-2.3-7.8-4.8-10.3-5.6s-8.1-3.6-12.4-6.2
	s-9.8-5.4-12.2-6.2s-6.9-3.1-10-5.2C2584.8,904.4,2581.7,903.7,2578.4,906.2 M3280.7,1208.8c-1.8,1.4-4.4,5-5.8,7.9
	c-1.4,2.9-6.3,9.3-10.8,14.4c-6.4,7.1-9,11.1-11.5,18.2c-2.6,7.2-5.1,11-12.1,18.7c-7.1,7.8-9.3,11.4-11.6,18.2
	c-2.3,6.9-4.6,10.5-12.1,18.9c-7.4,8.3-9.9,12.2-12.6,19.5c-2.7,7.2-5.1,11.1-12.1,18.8c-7.1,7.8-9.3,11.4-11.6,18.2
	c-2.3,6.9-4.6,10.5-12.1,18.9c-7.4,8.3-9.9,12.2-12.6,19.5c-2.7,7.2-5.1,11.1-12.1,18.8c-7.1,7.8-9.3,11.4-11.6,18.2
	c-2.3,6.9-4.6,10.5-12.1,18.9c-7.4,8.3-9.9,12.2-12.6,19.5c-2.7,7.2-5.1,11.1-12.1,18.8c-7,7.7-9.4,11.6-12.1,18.9
	c-2.7,7.3-5.1,11.1-12.2,18.9c-6.4,7.1-9.5,11.7-11.4,17.1c-1.4,4-4.7,11-7.3,15.5s-5.1,9.7-5.5,11.7c-1.5,6.3,0.6,14.2,5.9,22.4
	c5.1,7.9,5.1,7.9,5.7,24.4c0.6,14.2,1,17.1,3.3,20.9c7.6,12.3,8.7,16.3,8.7,29.7c0,14.4,0.7,17.1,7,26.6c4.5,6.7,4.5,6.7,5.1,23.4
	c0.7,16.6,0.7,16.6,6.1,25.9c5.4,9.3,5.4,9.3,6,25.7c0.5,14,1,17,3.3,20.8c1.5,2.4,4.7,8.2,7.1,12.9c4.1,7.9,5.2,8.9,13.7,13.7
	c5.1,2.9,12.5,6.8,16.5,8.8s9.2,4.8,11.5,6.1c2.3,1.4,7.8,4.2,12.1,6.3s10.1,5,12.7,6.5c2.7,1.5,8.1,4.3,12.1,6.3s9.2,4.7,11.5,6.1
	s7.8,4.2,12.1,6.3s10.1,5,12.7,6.5c2.7,1.5,7.6,4,10.9,5.7c3.3,1.7,8.7,4.4,11.8,6.1c3.2,1.7,8.4,4.5,11.5,6.1
	c6.1,3.2,14.3,7.5,26.4,13.5c4,2,9.2,4.8,11.5,6.2c2.3,1.4,7.8,4.2,12.1,6.3c4.3,2.1,10.1,5,12.7,6.5c2.7,1.5,7.6,4,10.9,5.7
	c3.3,1.7,8.7,4.4,11.8,6.1c3.2,1.7,8.3,4.5,11.5,6.1c6.1,3.2,14.3,7.5,26.4,13.5c4,2,9.2,4.8,11.5,6.2c2.3,1.4,7.8,4.2,12.1,6.3
	s10.1,5,12.7,6.4s7.6,4,10.9,5.6c3.3,1.6,8.7,4.4,11.8,6.1c13.8,7.5,20.9,11.2,37.9,19.7c4,2,9.2,4.8,11.5,6.2
	c2.3,1.4,7.8,4.2,12.1,6.3s10.1,5,12.7,6.5c2.7,1.5,8.1,4.3,12.1,6.3s9.7,5,12.7,6.8c3,1.7,8.5,4.6,12.1,6.3
	c3.7,1.7,8.9,4.3,11.5,5.8c2.7,1.5,8.1,4.3,12.1,6.3s9.2,4.7,11.5,6.1c2.3,1.4,7.8,4.2,12.1,6.3s10.3,5.2,13.3,6.9s7.9,4.3,10.9,5.6
	c3,1.4,8,3.9,11.2,5.6c9.8,5.3,17,9.1,23.9,12.7c20.5,10.4,26.5,13.7,30.9,17c7.1,5.3,14.8,6.3,46.1,6c30.3-0.3,27.3-1.2,68.4,21.1
	c6.6,3.6,6.6,3.6,49.7,3.8c23.7,0.1,44.2,0.6,45.5,1.2s5.7,3,9.6,5.5c6.3,4,8.1,4.5,14.7,4.4c6.7-0.1,8.5-0.7,16.4-5.7
	c8.8-5.5,9-5.6,19.9-5.6c10.7,0,11.2,0.1,19.4,5.2c4.7,2.8,11.2,6.2,14.5,7.5c5.3,2,11.4,7.9,48.5,46.5c25.8,26.9,44,44.8,46.4,45.9
	c4.7,2,8.5,1.1,22.5-5.6c6.1-2.9,11.9-6.9,17.2-12c5.5-5.3,11.1-9.2,18.1-12.5c7.1-3.4,12.6-7.2,18.2-12.6
	c5.5-5.3,11.1-9.2,17.9-12.5c7-3.3,12.7-7.3,19.2-13.5c5.8-5.4,11.2-9.4,14.5-10.5c2.9-1,8.6-3.9,12.7-6.5s11.2-6.2,15.6-8.1
	c5.8-2.4,10.6-5.7,16.6-11.5s11.7-9.7,19.6-13.5c8.1-4,12.8-7.2,17.2-12c3.3-3.6,9.8-8.8,14.4-11.6c4.9-3,9.1-6.6,10.3-8.8
	c1.1-2.1,4-7.3,6.5-11.7s5.7-11,7.1-14.7s4.1-9.3,6-12.4c5.1-8.3,5.4-11.1,1.9-17.6c-9.7-18.2-9.8-21.1-1.9-33.3
	c2.6-4,5.3-9.3,6-11.9c1.7-6.3,1.6-41.8-0.2-48.8c-1.1-4.4-3.5-8.1-10.4-15.7c-6.7-7.4-10.3-12.9-14.4-21.6c-3-6.4-6.6-13.6-8.1-16
	c-2.3-3.7-2.8-6.8-3.5-20.3c-0.7-14.3-1.1-16.5-4.1-22c-6.2-11.2-6.6-12.5-7.7-22.9c-1-9-1.8-11.4-6.2-18.4
	c-6.3-10.1-6.9-16.4-2.1-24.7c1.8-3,5.3-10.2,8-15.8c3.2-7,7.5-13.3,13.1-19.6c6.4-7.1,9.1-11.4,11.7-18.4c2.6-6.8,5.4-11.3,11.3-18
	c8.9-10,12.4-17,12.5-24.4c0-6.6-2.6-10.3-9.4-13.3c-3-1.3-8.5-4.4-12.3-6.8c-3.7-2.4-9.2-5.2-12-6.2c-2.9-1-8.4-3.9-12.3-6.4
	c-6.1-3.9-8.5-4.7-17.5-5.5c-9.2-0.9-11.3-1.5-17.1-5.6c-3.7-2.5-9.5-5.8-13-7.2c-3.5-1.4-9.4-4.5-13.1-7c-5.6-3.6-8.6-4.6-16.7-5.4
	c-8.4-0.9-11-1.8-18.1-6.2c-4.5-2.8-10.6-6-13.4-7.1c-2.9-1.1-8.3-3.9-12.1-6.3c-3.8-2.4-9.2-5.2-12.1-6.3c-2.9-1-8.3-3.9-12.1-6.3
	c-5.6-3.6-8.7-4.6-16.9-5.6c-8.5-1-11.3-1.9-18.2-6.3c-4.5-2.8-10.6-6-13.6-7.1s-7.9-3.6-11-5.7c-3.1-2-8-4.6-11-5.7
	s-9-4.2-13.3-6.9c-6.6-4.1-9.5-5.1-17.6-6.1c-9.5-1.1-15.2-3.3-21-7.9c-1.6-1.3-5.9-3.5-9.6-4.9c-3.7-1.5-9.8-4.6-13.5-6.9
	c-3.7-2.4-9.2-5.2-12.1-6.3c-3-1.1-7.9-3.6-10.9-5.6s-8.5-4.9-12.1-6.3c-3.6-1.5-9.7-4.7-13.4-7.1c-5.7-3.7-8.5-4.6-17.5-5.5
	c-9.3-1-11.5-1.7-17.3-5.7c-3.6-2.5-8.9-5.4-11.6-6.4c-2.8-1-8.6-4.1-12.9-6.8c-4.3-2.7-10.2-5.8-13.1-6.8
	c-2.9-1.1-8.3-3.9-12.1-6.3c-5.5-3.5-8.9-4.6-16.9-5.6c-8.4-1-11.3-2-18.2-6.3c-4.5-2.8-10.5-6-13.4-7c-2.9-1.1-8.3-3.9-12.1-6.3
	s-9.2-5.2-12.1-6.3c-2.9-1-8.3-3.9-12.1-6.3s-9.2-5.2-12.1-6.3c-2.9-1-8.3-3.9-12.1-6.3c-5.8-3.7-8.7-4.6-17.8-5.7
	c-9.4-1.1-11.7-1.9-17.1-5.7c-3.4-2.4-9.6-5.8-13.7-7.5c-4.1-1.7-9.1-4.2-11.1-5.7s-7.1-4.1-11.2-5.9c-4.2-1.7-10.6-5.1-14.4-7.5
	c-5.5-3.5-8.6-4.5-16.4-5.3c-9.3-1-14.5-2.9-21.3-7.9c-1.8-1.3-5.6-3.2-8.5-4.3c-2.9-1.1-8.8-4.2-13.2-6.9
	c-6.9-4.3-9.4-5.1-18.5-6.1c-9.2-1-11.4-1.7-17.3-5.8c-3.7-2.6-9-5.5-11.8-6.5s-8.6-4.1-12.9-6.8c-4.3-2.7-10.2-5.8-13.1-6.8
	c-2.9-1.1-8.6-4-12.6-6.7c-7.4-4.7-7.5-4.7-23.4-5.4c-16-0.6-16-0.6-22.5-5.3c-3.6-2.6-9-5.6-12-6.6c-3-1.1-8.5-3.9-12.1-6.3
	c-3.7-2.4-9.7-5.5-13.3-7s-9.1-4.4-12.2-6.4c-3.1-2-8.9-5.1-13-6.7c-4.1-1.7-9.1-4.2-11.1-5.7s-7-4.1-11.1-5.7
	c-4.1-1.7-9.9-4.7-13-6.7s-8.6-4.9-12.3-6.4s-9.1-4.3-12.1-6.3s-8.4-4.8-12.1-6.3c-3.6-1.5-9.6-4.6-13.3-7s-9.1-5.2-12.1-6.2
	c-3-1.1-7.9-3.6-10.9-5.6s-8.3-4.8-11.7-6.2c-3.4-1.4-8.8-4.3-12.1-6.4C3287,1205.5,3285.1,1205.3,3280.7,1208.8 M2378.7,1572.1
	c-6.5,4.2-41.5,40.9-44,46.2c-1.4,2.9-3,9.8-3.6,16.1c-1,9.4-1.8,12-5.4,17.5c-2.3,3.6-4.7,7.3-5.3,8.4c-0.6,1-1.4,11.8-1.7,23.9
	c-0.8,26.6-1.4,28.4-12.1,34c-4,2.1-8,5.1-9,6.6c-1,1.6-2.3,7-3,12.1c-0.9,7.1-2.2,10.8-5.3,15.7c-2.3,3.6-5.3,9.8-6.8,13.8
	s-4,9.2-5.6,11.4c-6.4,8.6-6.7,10.8-6.7,45.7c0,35.4,0.5,32.5-7.9,46.5c-3.6,6.1-3.6,6.1-3.6,27.5c0,15.8-0.4,22.2-1.7,24.5
	c-0.9,1.7-5.8,7.7-10.9,13.2c-6.3,6.9-9.7,11.7-10.7,15.2s-1.5,15.5-1.5,37.1c0,34.9,0.5,32.1-7.9,46c-3.6,6.1-3.6,6.1-3.6,38.9
	c0,32.8,0,32.8,4.4,40.3c2.4,4.1,5.9,10.8,7.6,15c1.8,4.1,5,10.4,7.1,13.8c3.9,6.3,3.9,6.3,4.2,118.3c0.3,124.3,1.1,111.5-7.6,126.1
	c-3.6,6.1-3.6,6.1-3.6,32.6s0,26.5,4.4,33.5c6.4,10,7.3,14.4,6.9,32.6c-0.4,15.7-0.5,16-4.4,21.6c-8,11.5-7.5,4.8-7.5,113.7
	c0,111-0.9,98.2,8.5,115c3,5.4,3,5.4,3.4,45c0.2,21.8,0.1,41.4-0.3,43.6c-0.4,2.2-3,7.6-5.8,11.9c-5.1,7.9-5.1,7.9-5.5,33.5
	c-0.4,23.4-0.2,25.9,2,30.2c10.6,20.7,9.9,18.4,9.9,32.9c0,12.1,0.3,14.1,3.2,19.6c6.6,12.9,9.6,18.9,11.6,23.8
	c1.1,2.8,5.8,9.4,10.4,14.7c5.6,6.5,9.2,12.1,11,16.9c4.2,11.5,7.7,15.2,19.4,20.8c7.6,3.6,12.5,7.1,18.3,12.8
	c12.8,12.8,12.3,12.7,41.9,12.7c25.5,0,25.5,0,32.7-4.6c4-2.5,10.9-6.1,15.4-8c6.1-2.5,10.7-5.8,17.9-12.6
	c6.1-5.8,11.7-10,15.4-11.4c7.7-2.9,28.7-15.2,31.5-18.4c1.7-2,2.3-5.4,2.9-16.6c0.7-14.7,1-15.9,9.1-30.3c3.5-6.3,3.5-6.3,4.1-34.7
	s0.6-28.4,5.3-35.7c3.5-5.5,5-9.4,5.9-15.6c1.7-11.9,4.2-18.4,8-21c2.6-1.8,7.2-2.4,23.9-3.2c22.2-1.1,19.9-0.4,37.6-10.3
	c4.7-2.6,6.7-2.7,55.8-3.3c51-0.6,51-0.6,60-6.3s9-5.7,53.9-5.3c48.9,0.4,56.1-0.2,64.5-5.7c11-7.1,13.2-7.9,24.5-8.7
	c12.2-0.9,14.7-2.2,14.6-7.8c0-4.1-4.6-14.5-9.7-22.2c-2.1-3.1-4.5-8-5.5-10.8c-1-2.9-4-9.4-6.7-14.5c-4.1-7.7-5.1-11-5.9-19.4
	c-0.8-8.3-1.8-11.4-5.2-17.3c-2.3-4-7.9-15.1-12.3-24.8c-4.5-9.7-9.2-19.6-10.5-22s-4.1-8.1-6.1-12.6s-4.8-10.5-6.1-13.4
	c-1.5-3.3-12.1-15.1-28.1-31.6c-24.3-25-26.1-26.5-34.1-29.7c-4.7-1.9-9.3-3.9-10.3-4.6c-1-0.7-35.4-36-76.4-78.4
	c-74.6-77.2-74.6-77.2-84.3-81.2c-9.8-4-9.8-4-48.2-43.6c-35.2-36.4-38.4-40-38.4-43.9c0-4.2,9-24.4,15.9-35.8
	c1.9-3.1,4-7.6,4.8-10.1s3.4-8.2,6-12.7c2.5-4.5,5.6-10.9,6.7-14.2c1.4-3.8,5.4-9.8,11-16.2c6.1-7.1,9.8-12.7,12.2-18.5
	c1.9-4.6,5.1-11.2,7.1-14.6c2.1-3.5,5.1-9.7,6.7-13.8c1.9-5.1,5.3-10.3,10.3-15.8c6.1-6.8,9.1-11.7,16.7-28.3
	c5.1-11.1,10.7-22.6,12.3-25.8s5.2-10.3,7.8-15.9c3.3-7.1,7.3-13.2,13.2-19.8c6-6.8,9.2-11.6,11.1-16.8c1.4-4,4.5-11,6.8-15.4
	c2.3-4.5,5.5-11.4,7.2-15.3c4.2-9.7,15.8-20.9,25.5-24.7c4-1.6,9.2-4.2,11.7-5.9c2.5-1.7,7.4-4.3,10.9-5.7c3.5-1.4,9.9-4.8,14.2-7.5
	s10.2-5.8,13.1-6.8c2.9-1.1,8.3-3.9,12.1-6.3c5.5-3.5,8.9-4.6,17.1-5.7c8.5-1.1,11.5-2.1,18.2-6.3c4.4-2.7,9.9-5.7,12.2-6.5
	s7.8-3.7,12.2-6.4c6.6-4,9.8-5.1,18.1-6.1c8.4-1,11.3-2,18.1-6.2c4.4-2.8,10.4-5.9,13.4-7s7.9-3.6,11-5.7c3.1-2,8-4.6,11-5.7
	s9-4.2,13.4-7c6.7-4.2,9.6-5.2,18.1-6.2c8.2-1,11.4-2,16.8-5.5c3.7-2.4,10.1-5.7,14.3-7.5c4.2-1.7,9.3-4.4,11.3-6
	c2.1-1.5,7.1-4.3,11.2-6.1c4.1-1.8,10.6-5.2,14.4-7.4c5.4-3.2,9.1-4.4,16.9-5.3c8.1-1,11.3-2,16.8-5.5c3.7-2.4,9.7-5.6,13.4-7
	c3.6-1.5,9.7-4.7,13.5-7.1c5.3-3.4,9-4.7,15.8-5.6c11.2-1.5,12.7-2,19.1-6.5c2.9-2.1,8.5-5.1,12.6-6.7c4-1.6,8.1-3.6,9-4.4
	c3.1-2.6,1.9-7-2.9-11.1c-7.2-6.2-13.9-8.9-24.5-10c-8.3-0.9-10.9-1.8-17.9-6.2c-4.5-2.8-10.6-6-13.4-7.1c-2.9-1.1-6.7-3-8.5-4.3
	c-6.8-5-12-6.9-21.2-7.9c-8.1-0.8-10.8-1.8-17.8-6.2c-7.1-4.4-9.7-5.3-18-6.2c-8.4-0.9-11-1.8-18.2-6.3s-9.8-5.4-18.2-6.3
	s-11-1.8-18.3-6.4c-7.4-4.6-9.9-5.5-18.3-6.4c-6.6-0.7-11.2-1.9-14.2-3.9c-2.5-1.6-11.8-6.7-20.8-11.5c-14.4-7.6-17.5-8.8-25.7-9.7
	c-8-0.8-10.7-1.8-17.9-6.4c-7.4-4.6-9.9-5.5-18.3-6.4c-8.4-0.9-11-1.8-18.2-6.3s-9.8-5.4-18.2-6.3s-11-1.8-18.2-6.3
	s-9.8-5.4-18.2-6.3c-8.3-0.9-11-1.8-17.9-6.1c-4.4-2.8-10.4-5.9-13.3-7c-2.9-1.1-8.4-3.9-12.3-6.4c-5.8-3.7-8.7-4.7-16.9-5.5
	c-8.5-0.9-11-1.8-18.4-6.4s-9.9-5.5-18.3-6.4c-8.4-0.9-11-1.8-18.2-6.3s-9.8-5.4-18.2-6.3s-11-1.8-18-6.2c-7.1-4.4-9.7-5.3-18-6.2
	c-8.3-0.9-11-1.8-18-6.1c-4.5-2.8-10.7-6.1-13.7-7.3c-3-1.2-6.8-3.1-8.5-4.3c-6.6-4.7-11.4-6.4-20.8-7.5c-8.3-1-11.1-2-18.2-6.4
	c-7.2-4.5-9.7-5.4-18.1-6.3c-8.3-0.9-11-1.8-17.9-6.1C2387.3,1569.2,2384,1568.6,2378.7,1572.1 M4372,1698.2
	c-1.2,0.7-3.6,4.2-5.3,7.8c-1.7,3.6-6.8,10.6-11.3,15.5c-6.5,7.2-8.7,10.6-11.1,17.5c-2.4,7-4.6,10.5-12.2,19
	c-7.2,8.1-10,12.4-12.4,19c-1.7,4.7-4.8,11-6.8,14.1c-5,7.7-4.9,13.3,0.7,21.9c3.6,5.7,4.5,8.3,5.5,17.9c0.8,7.2,2.1,12.6,3.6,15
	c7.2,11.6,8.4,15.8,8.4,29.7c0,14.1-0.4,12.7,8.3,29.5c1.4,2.8,4,8.2,5.6,12.1c1.7,4,6.7,11.2,11.5,16.6c5.1,5.8,9,11.5,9.8,14.4
	c0.9,3.1,1.2,14.7,1,33.2c-0.4,28.4-0.4,28.4-4.9,35.2c-5.5,8.3-5.9,13.8-1.5,20.5c8.5,13.1,8.9,18.5,1.7,29.6
	c-2.7,4.3-6.1,10.7-7.4,14.3s-3.9,9.1-5.8,12.2c-1.9,3.1-4.7,9.1-6.2,13.2c-1.9,5.3-4.8,9.8-9.8,15.2c-7.1,7.7-9.2,9.1-21.9,14.8
	c-4.4,2-10.2,6.3-15.8,11.8c-5.4,5.3-10.7,9.3-13.7,10.3c-8.9,3-14.4,6.6-22.5,14.7c-5.7,5.7-10.1,8.9-15.4,11
	c-4.1,1.7-10.6,5-14.4,7.5c-3.9,2.5-10.2,5.7-14.1,7.2c-5.2,2-9.6,5.1-16.5,11.8c-5.7,5.6-11.3,9.8-14.2,10.7
	c-8.8,2.9-14.2,6.5-22.8,15c-6.8,6.7-10.5,9.2-17.6,12s-10.8,5.3-17.6,12c-6.5,6.4-11.7,10-21.5,14.9c-7.4,3.8-14.5,6.5-16.8,6.5
	c-3.5,0-6.5-2.7-29-26.7c-27.7-29.5-57.2-59.7-62.5-64c-1.9-1.5-7.3-4.4-12.1-6.4s-11.4-5.5-14.7-7.7c-5.3-3.6-7-4-14.7-4
	c-8.3,0-9,0.2-16.4,5.7c-7.8,5.7-7.8,5.7-19.3,5.7s-11.6,0-20.6-5.7s-9-5.7-48.5-5.9c-21.7-0.1-41.9-0.2-45-0.3
	c-4.1-0.1-7.4-1.3-12.7-4.7c-4-2.5-10.5-6.1-14.5-7.9c-4-1.8-10.3-5.3-13.9-7.7c-6.6-4.4-6.6-4.4-30.1-4.8
	c-16.4-0.3-24.6,0.1-27.1,1.1c-6.7,2.9-7,5.2-7,43.8c0,21.8,0.5,36.6,1.3,38.7c0.7,1.9,3.3,6.6,5.8,10.3c4.5,6.8,4.5,6.8,5.1,110.7
	c0.5,92.5,0.8,104.4,2.6,107.7c1.1,2.1,3.5,6.6,5.5,10.1c3.5,6.3,3.5,6.3,4.1,103.8c0.3,53.6,1.1,98.3,1.7,99.4c0.6,1,3,4.9,5.5,8.6
	c4.4,6.8,4.4,6.8,5,111.4s0.6,104.7,3.8,109.6c8.1,12.7,7.7,10.1,8.4,53.7c0.6,39.9,0.6,39.9,4,43.4s3.4,3.5,50.9,3.8
	c47.6,0.4,47.6,0.4,53.6-3c16.6-9.2,2.7-8.3,122.2-8.1c71.3,0.1,109.1-0.3,112.9-1.2c3.1-0.7,8.5-3.2,12-5.5c3.4-2.3,7.3-4.5,8.6-5
	c1.3-0.5,52-0.9,112.7-0.9c61.2,0,113.9-0.5,118.1-1.1c5.6-0.8,10-2.6,16.2-6.5c8.5-5.3,8.5-5.3,114.2-5.1
	c66.5,0.2,108.3-0.2,112.8-1c4.7-0.8,10.1-3.1,15.7-6.6c8.6-5.4,8.6-5.4,104.3-5.6c52.6-0.1,97.9-0.6,100.7-1
	c2.7-0.4,8.7-3.1,13.1-5.9c8.2-5.1,8.2-5.1,82.4-5.3c83.2-0.2,73.9,0.7,91.2-9.3c6.1-3.5,6.1-3.5,87.3-4.1
	c81.3-0.6,81.3-0.6,90.1-6.2c8.9-5.6,8.9-5.6,83.6-5.7c74.8-0.1,74.8-0.1,80.8-3.8c16.3-9.8,6.3-8.8,97.1-9.5
	c81.3-0.6,81.3-0.6,88.9-5.5c4.2-2.7,9.6-5.1,12-5.4c2.5-0.3,36.6-0.7,76-0.8c71.5-0.2,71.5-0.2,77.6-3.9c15.1-9.1,13.7-8.8,40-9.5
	c28.6-0.8,30.9-1.5,30.9-10.2c0-4.6-0.9-6-8.9-14.8c-7.2-7.8-9.5-11.4-12.2-18.7c-3.5-9.4-6.1-13.5-15.3-23.2
	c-3.7-4-6.7-8.9-9.4-15.7c-3.1-7.9-5.6-11.8-12.3-19.1c-5.3-5.8-9.1-11.2-10.5-15.1c-1.2-3.3-4.7-11.1-7.7-17.4
	c-3.1-6.3-6.6-13.9-7.9-16.9s-5.5-8.7-9.4-12.7c-4.6-4.7-8.2-9.8-10.2-14.6c-5.7-13.7-7.2-16.1-14.3-23.6
	c-7.2-7.7-10.2-12.6-12.9-21.1c-0.9-2.8-5.1-8.8-10-14.3c-5.2-5.9-9.6-12.2-11.5-16.6c-5.4-12.9-6.6-14.9-14.3-23.2
	c-5.8-6.3-8.5-10.4-11.1-17.3c-2.6-6.9-5.5-11.4-12-18.7c-4.7-5.3-9.5-12.1-10.8-15.2c-5.5-13.5-7.4-16.7-14.3-24.2
	c-4.5-4.8-8.5-10.7-10.3-14.8c-1.6-3.8-4-8.9-5.3-11.3c-1.3-2.4-5.1-10.1-8.3-17c-4.5-9.7-7.7-14.6-13.6-20.9
	c-6.2-6.6-8.6-10.4-11.8-18.4c-2.8-7.2-5.8-12.1-10.1-16.9c-8.7-9.5-11.1-13.1-14.9-22.7c-2.5-6.3-5.5-10.8-11.6-17.4
	c-6.5-7-9-10.7-11.5-17.6c-3.2-8.6-8.3-16.5-12.7-19.8c-3.5-2.6-8.9-11.3-12.2-19.8c-2-5.3-5.5-10.4-11.6-17.2
	c-6.8-7.6-9.4-11.6-11.9-18.5c-3.4-9.3-6.1-13.3-15.4-23.2c-3.2-3.4-6.6-8.6-7.8-11.9c-1.2-3.3-4.4-10.5-7.2-16
	c-2.8-5.5-5.8-12.2-6.6-14.9c-0.9-2.9-4.9-8.7-10.1-14.5c-4.8-5.3-9.7-12.2-11-15.3c-5.5-13.7-7.4-16.9-14.1-23.9
	c-3.9-4.1-8.8-10.6-10.9-14.5s-5-7.9-6.4-9c-5.8-4.3-23.5-14.4-27.4-15.7c-2.3-0.8-7.8-3.6-12.1-6.2s-10.3-5.7-13.3-6.8
	s-7.5-3.4-9.9-5.2c-6.1-4.4-12.6-6.6-19.3-6.7c-7.1-0.1-12.4-2-19.6-7.1c-3.2-2.2-7.8-4.8-10.3-5.6s-8.1-3.7-12.4-6.3
	s-10.3-5.7-13.3-6.8s-7.9-3.6-10.9-5.6s-8.5-4.9-12.1-6.3c-3.6-1.5-9.6-4.6-13.3-7c-5.4-3.5-8.6-4.5-16.7-5.4
	c-8.5-1-11.3-1.9-18.2-6.3c-4.5-2.8-10.5-6-13.4-7c-2.9-1.1-8.3-3.9-12.1-6.3c-3.8-2.4-9.2-5.2-12.1-6.3c-2.9-1-8.3-3.9-12.1-6.3
	c-3.8-2.4-9.2-5.2-12.1-6.3c-2.9-1-8.3-3.9-12.1-6.3c-3.8-2.4-9.2-5.2-12.1-6.3c-2.9-1-8.3-3.9-12.1-6.3c-3.8-2.4-9.2-5.2-12.1-6.3
	c-2.9-1-8.3-3.9-12.1-6.3c-3.8-2.4-9.2-5.2-12.1-6.3c-2.9-1-8.3-3.9-12.1-6.3c-5.6-3.6-8.7-4.6-16.9-5.6c-8.5-1-11.3-1.9-18.2-6.3
	c-4.5-2.8-10.6-6-13.6-7.1s-7.9-3.6-10.9-5.6s-8.5-4.9-12.1-6.3c-3.6-1.5-9.6-4.6-13.3-7c-3.7-2.4-9.1-5.2-12.1-6.2
	c-3-1.1-7.9-3.6-10.9-5.6s-8.5-4.9-12.1-6.3c-3.6-1.5-9.6-4.6-13.3-7c-3.7-2.4-9.1-5.2-12.1-6.2c-3-1.1-7.9-3.6-10.9-5.6
	s-8.5-4.9-12.1-6.3c-3.6-1.5-9.7-4.7-13.5-7.1c-5.6-3.6-8.6-4.6-16.7-5.4c-8.4-0.9-11-1.8-18.1-6.2c-4.5-2.8-10.6-6-13.4-7.1
	c-2.9-1.1-8.3-3.9-12.1-6.3c-3.8-2.4-9.2-5.2-12.1-6.3c-2.9-1-8.3-3.9-12.1-6.3c-3.8-2.4-9.2-5.2-12.1-6.3c-2.9-1-8.3-3.9-12.1-6.3
	c-3.8-2.4-9.2-5.2-12.1-6.3c-2.9-1-8.3-3.9-12.1-6.3c-3.8-2.4-9.2-5.2-12.1-6.3c-2.9-1-8.3-3.9-12.1-6.3c-3.8-2.4-9.2-5.2-12.1-6.3
	c-2.9-1-8.3-3.9-12.1-6.3c-3.8-2.4-9.2-5.2-12.1-6.3c-2.9-1-8.5-4-12.4-6.5c-6-3.8-8.8-4.8-16.6-5.5c-10.7-1.1-12.4-1.6-19.2-6.4
	c-2.8-1.9-7.9-4.7-11.5-6.2s-9-4.3-12-6.3s-7.9-4.5-10.9-5.6s-8.4-3.9-12.1-6.2c-3.7-2.4-9.7-5.5-13.3-7c-3.6-1.5-9.1-4.4-12.2-6.4
	s-8.9-5.1-13-6.7c-4.1-1.7-9-4.2-11-5.7s-7.5-4.3-12.2-6.3s-10.1-4.8-12.1-6.2c-1.9-1.4-7.2-4.2-11.8-6.1c-4.6-1.9-10.4-5.1-13-6.9
	C4379,1696.6,4375.5,1696,4372,1698.2 M3078.8,1838.4c-3.5,2.5-8.6,5.3-11.3,6.3c-2.8,1-8.6,4-12.9,6.7c-4.3,2.7-9.9,5.5-12.4,6.3
	s-7.9,3.8-11.9,6.6c-6.6,4.6-8.5,5.2-17.9,6.2c-8.8,0.9-11.6,1.8-17.2,5.4c-3.7,2.4-9.6,5.4-13.1,6.8c-3.6,1.4-9.4,4.6-13,7.2
	c-5.9,4.2-7.5,4.8-17.6,5.6c-9.9,0.9-11.7,1.4-17.3,5.4c-3.4,2.5-8.7,5.4-11.7,6.4c-3,1.1-8.5,3.9-12.1,6.3c-3.7,2.4-9.7,5.5-13.3,7
	s-9.7,4.7-13.6,7.2c-5.9,3.8-8.6,4.6-16.6,5.4c-8.3,0.8-10.7,1.6-17.9,6.1c-4.5,2.8-10.6,6-13.5,7.1s-8.3,3.9-12.1,6.3
	s-9.3,5.3-12.3,6.4s-8.3,4-11.8,6.5c-5.6,4-7.6,4.6-16.8,5.5c-9,0.9-11.5,1.6-17.6,5.5c-3.9,2.5-9.4,5.4-12.3,6.4
	c-2.9,1.1-8.9,4.2-13.5,7.1c-7.1,4.5-9.6,5.3-17.9,6.1c-8.1,0.7-10.7,1.6-16.8,5.5c-4,2.5-9.6,5.5-12.4,6.5
	c-2.9,1.1-8.8,4.1-13.1,6.8s-10.2,5.8-13,6.8s-8.6,4-12.9,6.7c-4.3,2.6-9.5,5.8-11.6,7s-4.7,3.9-5.9,6.1c-1.1,2.2-4.1,7.5-6.6,11.9
	s-5.7,11.2-7.1,15.2c-1.9,5.2-5,9.9-11.4,17c-6.5,7.2-9.5,11.7-11.4,17.1c-1.4,4-4.4,10.4-6.7,14.3c-2.3,3.8-5.3,10.1-6.7,13.8
	c-1.4,3.8-4.2,9.4-6.1,12.5c-1.9,3.1-4.7,9-6.1,13.1c-2,5.5-5,10-11.3,17.1c-6.3,7-9.4,11.7-11.4,17.1c-1.5,4.1-4.6,10.6-6.8,14.4
	c-2.3,3.8-5.3,10.4-6.8,14.5c-2,5.6-4.8,9.7-10.9,16.3c-5.5,5.9-9.3,11.3-11.4,16.4c-1.7,4.1-4.3,9.8-5.7,12.5
	c-1.4,2.8-3.9,7.9-5.5,11.3c-1.6,3.5-4.3,9.1-6.1,12.6c-8.4,16.6-13.9,29.1-14.5,32.7c-0.4,2.4,0.2,5.6,1.3,7.9
	c2.5,5,37.4,42.3,45.9,49c3.5,2.8,10.1,6.6,14.6,8.6c8.1,3.5,10.4,5.8,83,81.1c74.8,77.5,74.8,77.5,85.7,82.1s10.9,4.6,44.2,39
	c36,37.1,37.2,38,48.6,36.9c4.1-0.4,8.5-2.2,14.6-6.1c8.7-5.5,8.7-5.5,24-6.2c15.6-0.8,18.7-1.7,27-7.7c1.8-1.3,5.6-3.2,8.5-4.3
	s9-4.3,13.7-7.2c8.5-5.3,8.5-5.3,25.5-5.3s17,0,26,5.6s9,5.6,24.2,6.4c16.5,0.8,13.6-0.3,52.8,21c2.7,1.4,13,6.7,23,11.7
	s19.7,10.2,21.5,11.5s6.7,3.8,10.8,5.4c4.1,1.7,9.9,4.7,13,6.7s8.1,4.7,11.1,5.9c9.2,3.7,12.1,6.6,16.3,16.2
	c2.2,5,5.7,11.5,7.7,14.4c4.9,7,6.7,16.7,6,31c-0.6,11.9-1.6,14.8-8.4,24.3c-3.8,5.3-3.9,5.7-4.6,22c-0.4,9.1-1.2,17.5-1.7,18.5
	c-0.6,1-3,4.9-5.4,8.6c-4.4,6.8-4.4,6.8-4.8,26.4c-0.4,21.6-1.2,18.1,8,36c1.4,2.8,4,8.1,5.7,12c1.7,3.8,4.6,9.8,6.4,13.3
	c1.8,3.5,4.6,9.2,6.1,12.8c1.5,3.5,6.5,10.7,11,15.9c5.1,5.8,9.1,11.8,10.4,15.5c1.2,3.3,3.7,8.7,5.7,11.9c1.9,3.2,4.9,9.3,6.5,13.5
	c1.7,4.2,4.6,10.4,6.6,13.7c1.9,3.3,4.6,8.9,6,12.4c1.3,3.5,4.1,9.1,6.1,12.4c2,3.3,4.8,9.6,6.2,13.9c2.9,9.2,10.2,17.1,17.7,19.4
	c3.2,1,20.9,1.3,58,1c53.4-0.4,53.4-0.4,62.2-5.9s8.8-5.5,128.5-5.3c82.7,0.2,121.5-0.2,125.6-1.1c3.2-0.8,8.4-3.1,11.4-5.3
	c10-7.2,11.6-7.3,68.7-7.4c56.2,0,55.8,0,60.6-6.7c2.4-3.3,2.6-5.5,3-31.1c0.5-35.4-0.7-45.3-6.8-55.6c-4.6-7.7-4.6-7.7-5.2-111.5
	c-0.6-103.9-0.6-103.9-3.9-109.5c-9.4-16.3-8.4-3.9-8.7-111.2c-0.2-107,0.7-95.2-8.5-111.6c-3.2-5.8-3.2-5.8-3.5-108.8
	s-0.3-103-3.6-108.7c-9.4-16.3-8.6-10.8-8.7-59.7c-0.1-50.5,0-49.6-9.9-54.8c-3.4-1.8-9.1-5-12.7-7.1c-3.6-2.1-9.1-4.9-12.1-6.1
	c-3-1.2-7.6-3.6-10.3-5.4c-2.7-1.7-8.1-4.6-12.1-6.4c-4-1.8-10.3-5-13.9-7.2c-3.7-2.2-9.1-5-12.1-6.2s-7-3.3-8.9-4.7
	s-7.4-4.3-12.1-6.4c-4.7-2.1-11.7-5.7-15.4-8c-3.7-2.2-9.1-4.9-11.9-5.9c-2.8-1-8.2-3.8-12-6.2s-9.3-5.3-12.3-6.6
	c-3-1.2-8.1-3.8-11.3-5.9c-3.2-2-8.5-4.7-11.7-6c-3.3-1.3-8.8-4.2-12.4-6.6c-3.5-2.3-8.9-5.2-11.9-6.4c-3-1.2-9.3-4.3-13.9-6.9
	c-4.7-2.6-10.4-5.5-12.7-6.4s-6.4-3.1-9.1-4.8c-2.7-1.7-8.1-4.6-12.1-6.4s-10.3-5-13.9-7.2c-3.7-2.2-9.1-5-12.1-6.2s-7-3.3-8.9-4.7
	c-1.9-1.4-7.4-4.3-12.1-6.4c-4.7-2.1-11.7-5.7-15.4-8c-3.7-2.2-9.1-4.9-11.9-5.9c-2.8-1-8.2-3.8-12-6.2c-3.8-2.4-9.3-5.3-12.3-6.6
	c-3-1.2-8.1-3.8-11.3-5.9c-3.2-2-8.5-4.7-11.7-6c-3.3-1.3-8.9-4.3-12.6-6.8c-3.7-2.4-7.1-4.4-7.7-4.4c-1.1,0-28.7-13.8-36.7-18.3
	c-3-1.7-9-4.8-13.3-6.9s-9.8-4.9-12.1-6.3s-7.2-3.9-10.9-5.7c-3.7-1.7-9.1-4.5-12.1-6.3c-3-1.7-9-4.9-13.3-6.9
	c-4.3-2.1-9.8-4.9-12.1-6.3s-7.2-3.9-10.9-5.6s-9.1-4.5-12.1-6.2s-8.5-4.6-12.1-6.3c-3.7-1.7-9.1-4.6-12.1-6.3
	c-3-1.7-9.8-5.3-15.2-8c-5.3-2.7-11.8-6.3-14.4-8.2C3091.2,1832.6,3086.5,1832.9,3078.8,1838.4 M2904.4,2614
	c-1.5,0.6-4.7,2.6-6.9,4.4c-2.3,1.8-8,4.9-12.7,6.9s-11.1,5.5-14.1,7.7c-5.4,4-5.7,4.1-22.1,4.8c-16.1,0.7-16.8,0.8-23.2,4.9
	c-9.8,6.2-13.3,10-13.3,14.5c0,4.2,3.8,13.4,9.1,22.2c1.9,3.1,4.6,8.8,6.1,12.7s4.4,9.7,6.4,12.8c3.8,5.7,5.2,10.3,7.3,24.1
	c0.7,4.8,2.7,10.2,5.5,15c2.4,4.1,4.9,9.5,5.7,12s3.2,7.7,5.5,11.6c2.3,3.9,4.9,9.6,6,12.6c1,3,4.1,9.1,6.9,13.5
	c4.3,6.8,5.1,9,5.1,14.6c0,7.6-2.4,12.2-8.1,15.4c-3.2,1.8-8.1,2.3-25.9,2.9c-22,0.6-22,0.6-27.3,4.6c-10.6,7.8-7,7.4-62.3,7.4
	c-48.8,0-51.1,0.1-54.7,2.5c-16.8,11.1-9.9,10-67.8,10.7c-52.2,0.6-52.2,0.6-57.3,4.4c-10.1,7.6-12,8.2-25.8,8.2
	c-14.8,0-17.4,1.3-21.8,10.5c-1.4,2.9-4.5,8.3-6.9,12c-4.4,6.8-4.4,6.8-5,35.9c-0.3,16-1.1,29.9-1.7,31c-0.6,1-3,4.9-5.5,8.6
	c-4.4,6.8-4.4,6.8-4.6,132.1c-0.1,68.9-0.5,127.7-0.8,130.6c-0.3,3.5-2.1,7.5-5.1,11.8c-2.5,3.6-5,8.3-5.6,10.4
	c-1.7,6.3-1.4,235.1,0.3,239.1c1.6,3.7,19.9,15.6,32.5,21.1c5.1,2.2,10.2,5.8,14.6,10.2c8,8,12.1,11,19.4,13.9c3,1.2,8.5,4,12.1,6.2
	c3.7,2.2,9.6,5.3,13.2,6.8c3.6,1.6,9.1,4.5,12.1,6.5c3.1,2,8.8,4.9,12.7,6.5c5.2,2,9.7,5.2,16.3,11.6c5,4.9,11.1,9.6,13.5,10.6
	s12.5,6,22.5,11.1c12.9,6.6,19.6,10.8,23,14.5c6.1,6.6,13,11.5,20,14.3c3,1.2,8.6,4.1,12.3,6.5c3.8,2.4,9.2,5.2,12.1,6.3
	c2.9,1.1,8.8,4.1,13.1,6.7c4.3,2.6,10.6,5.9,13.9,7.1c3.8,1.5,9,5.2,14,10.2c7,6.8,18.1,14.3,21.4,14.3c0.6,0,4.6,2.1,8.9,4.8
	c4.3,2.6,11.1,6.1,15.1,7.8c5.1,2.1,10,5.7,16.1,11.7c5.6,5.4,11.4,9.8,15.8,11.8c10.9,4.9,36.8,18.3,41.5,21.4
	c2.3,1.6,7.4,4,11.2,5.5c5,1.9,9.7,5.3,16.5,11.8c6,5.8,11.8,10,15.5,11.4c3.2,1.3,11.6,5.3,18.5,9s13.3,6.7,14.2,6.7
	s5.3,3.6,9.8,7.9c10.3,10,14,12.6,22.2,16c3.6,1.5,9,4.2,12,6.1c3,1.9,7.9,4.4,10.9,5.6c3,1.2,8.5,4,12.1,6.3
	c3.7,2.2,9.9,5.4,13.7,7c4.5,1.9,10.1,5.8,15.4,10.9c8.5,8.1,12.5,10.8,20.7,13.8c2.6,1,7.1,3.4,10,5.5c7.7,5.5,10.7,5.9,14.9,2.2
	c3.4-3,3.5-3.6,4.2-17.6c0.6-13.8,0.9-14.8,5-21.8c2.4-4,5.1-8.8,6-10.5c1.3-2.5,1.8-15.3,2.3-62.9c0.6-59.8,0.6-59.8,5.3-67.5
	c2.6-4.3,5.1-9.9,5.7-12.6c0.6-2.7,1.1-29.5,1.1-59.6c0-54.7,0-54.7,5.8-66.7c5.8-11.9,5.8-11.9,5.9-75.7
	c0.2-70.8-0.6-63.5,8.4-79.6c3.5-6.3,3.5-6.3,4.1-66.1s0.6-59.8,4.5-66c7.2-11.7,7-9.2,7.6-73c0.6-59.2,0.6-59.2,5.1-66.2
	c6.9-10.7,7.3-13.4,6.8-45.8c-0.4-29-0.4-29-4.2-35.2c-2.1-3.4-8-15-13.1-25.7s-10.1-21.2-11.2-23.3c-6.3-11.9-19-38.7-21.2-44.6
	c-1.7-4.7-5.1-9.7-10.9-16.1c-5.4-5.9-9.5-11.8-11.4-16.4c-1.7-4-3.9-8.9-5-11s-6-12-10.9-22c-8.8-18.2-8.8-18.2-8.9-41.1
	c0-22.9,0-22.9,5-32.7c4.9-9.4,5.1-10.4,6-25.1c0.9-15,1-15.5,6.5-26.2c5.5-10.9,5.6-11,5.6-23.5c0-15.6-0.9-17.8-13.1-30.3
	c-7.8-8.1-11-10.4-19.1-13.9c-5.3-2.3-11.9-5.6-14.5-7.3c-2.7-1.7-7.5-4.2-10.8-5.5s-9-4.2-12.7-6.5s-9.2-5.1-12.2-6.3
	s-7.7-3.7-10.4-5.6c-2.7-1.9-8.4-4.9-12.6-6.7c-4.2-1.8-10.5-5.1-13.8-7.3c-6-4-6.7-4.1-21.9-4.7c-14.9-0.6-16.1-0.8-21.6-4.4
	c-12.5-8.1-12.8-8.2-25.7-8.1C2912.7,2612.8,2906,2613.3,2904.4,2614 M2196.1,2667.4c-4.1,2.3-6.6,6.4-10.3,16.6
	c-1.6,4.5-4.6,10.6-6.5,13.6s-4.6,8.4-6,12.1c-1.4,3.7-4.1,9-6,11.8c-5.2,7.6-6.3,13.4-5.9,33.6c0.3,19.6,0.5,19-8.1,33.3
	c-3.6,6.1-3.6,6.1-4.2,34.4c-0.4,20.5-1.1,29.2-2.3,31.5c-0.9,1.7-21.7,24.1-46.2,49.7c-42,43.9-44.7,47-47.2,54.1
	c-1.5,4.2-4.7,11.2-7.3,15.7c-2.6,4.5-5.3,10.2-6,12.7c-0.8,2.5-3.1,7.3-5.2,10.7s-5.3,10-7.2,14.6c-1.9,4.7-4.7,10.3-6.4,12.6
	c-4.2,5.8-5.6,12.4-5.3,26.1c0.2,12.7,0,13.6-7.9,26.7c-2.5,4.1-3.5,8.1-4.4,16.4c-1,9.6-1.7,11.9-5.6,17.8
	c-5.5,8.3-6.7,13.2-6.7,28.5c0,15.2-1.9,19.4-10.7,24c-8.3,4.3-10.7,6.8-14.2,14.3c-2.2,4.9-11.6,15.3-40.6,45.3
	c-20.7,21.4-38.5,40.5-39.4,42.4c-0.9,1.8-2.9,6.7-4.3,10.7c-2.3,6.5-5,9.9-22.7,28.4c-17.2,18-21.1,21.5-26.6,23.6
	c-10.4,4.1-13.7,6.2-21.8,14.2c-12.2,12.1-12.8,13.7-13.4,32.9c-0.3,11-1.1,17.6-2.2,19.9c-1,2-6.9,8.8-13.2,15.1
	c-6.3,6.3-11.4,12.5-11.4,13.7s1.5,3.2,3.3,4.4c3,2,8.7,2.3,67.7,2.9c64.4,0.6,64.4,0.6,71,4.9c11.3,7.4,12.8,7.9,28.7,9
	c19.9,1.4,304.8,1.4,321.2,0c15-1.3,20.1-0.3,29.8,6c7.3,4.7,7.3,4.7,86.4,4.7c79.2,0,79.2,0,82.3-3.3c1.7-1.8,3.7-5.5,4.3-8.2
	c0.7-2.8,1.1-46.1,1-102.7c-0.2-109.1-1-97.3,8.1-113.6c3.5-6.3,3.5-6.3,3.9-84.6c0.4-88-0.4-107.2-4.3-111.2
	c-3.6-3.7-8.1-3.2-15.2,1.8c-3.5,2.4-9.5,5.7-13.5,7.3c-5.1,2.1-9.8,5.4-15.9,11.5c-6.2,6.2-10.8,9.4-16,11.6
	c-4,1.6-10.7,5.2-14.9,7.8c-7.6,4.8-7.6,4.8-33.7,5.2c-17.9,0.3-27.8-0.1-31.4-1.1c-3.8-1.1-8.1-4.3-15.4-11.3
	c-6-5.8-12-10.4-14.7-11.3c-9.7-3.2-14.7-7-27.3-20.4c-11.2-12-13.4-15.1-16.1-22.4c-3.6-9.8-8.4-17.2-13.8-21.2
	c-4.1-3.1-8.8-10.6-11.5-18.7c-1-2.9-3.4-7.7-5.3-10.7c-5.1-7.8-5.4-9-6.3-25.5c-0.8-14.6-1-15.4-6-25.1c-5.1-10-5.1-10-4.8-40.3
	c0.4-30.3,0.4-30.3,5.8-40.3c5.5-10.1,5.5-10.1,5.5-46.5c0-40.3,0.6-36.4-8.6-52.8c-3.5-6.3-3.5-6.4-3.9-30.2
	c-0.4-26.9-0.6-28.6-3.9-32.1C2204.3,2665.1,2200.5,2664.8,2196.1,2667.4 M5736.6,2901.9c-31.6,0.7-31.6,0.7-36.7,4.5
	c-11.7,8.8-5,8.2-88.3,8.2c-75.3,0-75.3,0-83.6,6c-8.3,6-8.3,6-90.8,6.6c-67.5,0.5-83,0.9-85.5,2.4c-1.7,1-5.5,3.5-8.5,5.7
	c-5.5,3.9-5.5,3.9-80.6,3.9c-83.9,0-75-0.9-89.9,8.8c-5.8,3.8-5.8,3.8-88.4,4.4c-82.5,0.6-82.5,0.6-87.6,4.4
	c-11.7,8.8-5.1,8.2-87.5,8.2s-74.3-0.8-88.1,8.2c-5.8,3.8-5.8,3.8-38.7,4.4c-24.2,0.5-33.3,1.1-34.7,2.2c-4.1,3.5-4.7,8.3-4.3,32.6
	c0.4,23.8,0.4,23.8,5.8,32.5s5.5,8.7,6.1,75.5s0.6,66.8,4.9,73.7c2.4,3.7,4.8,7.9,5.5,9.3c0.6,1.4,1.4,31.9,1.7,68.6
	c0.6,66.1,0.6,66.1,6.1,74.8s5.5,8.7,6.1,74.8c0.7,72.1,0,65.5,8,79.9c3.5,6.3,3.5,6.3,4.1,71.7c0.3,36.3,1.1,66.5,1.7,67.9
	s3.1,5.6,5.5,9.3c4.3,6.8,4.3,6.8,4.9,34.9c0.6,28,0.6,28.1,3.7,31.3c4.3,4.5,12.9,5.6,41.3,5.7c28.7,0,34.2-0.9,45.2-7.9
	c8.5-5.3,8.5-5.3,102.6-6c94.1-0.6,94.1-0.6,101.9-5.7c7.8-5,7.8-5,83.6-4.7c41.7,0.2,84.1-0.2,94.2-0.8c16.8-1.1,18.9-1.5,24.2-4.7
	c16.1-9.7,4.6-8.7,108.9-9.4c93.4-0.6,93.4-0.6,102.1-6.1c8.8-5.5,8.8-5.5,24.8-5c8.8,0.3,51.5,0.4,94.9,0.4
	c86.8-0.1,88.2-0.2,98.2-7.5c3.3-2.4,7.9-4.9,10.3-5.6c2.7-0.8,38.1-1.3,92.8-1.3c59.8,0,90.1-0.5,93.3-1.4
	c2.7-0.7,7.5-3.1,10.7-5.2c5.9-3.9,5.9-3.9,97-4.1c67.4-0.1,92.5-0.6,96.4-1.7c2.9-0.8,7.8-3.3,10.8-5.4c9.2-6.6,13.7-7.3,43-7.3
	c29.1,0,33.9-0.9,36.1-6.9c1.8-4.8-0.3-9-9.6-18.9c-6.1-6.6-8.9-10.7-10.9-16.4c-1.5-4.2-4.3-10.4-6.1-13.8
	c-1.9-3.5-4.9-10.2-6.7-14.9c-2.5-6.6-5.2-10.6-11.5-17.3c-6.7-7.1-9-10.6-12.3-19c-3.2-8.1-5.8-12.2-12.3-19.5
	c-5.9-6.6-9.1-11.4-11.2-17c-3.6-9.6-8-16.3-13.4-20.6c-4.5-3.6-9.1-11.1-11.9-19.2c-1-2.9-3.4-7.7-5.3-10.7
	c-1.9-2.9-5.3-9.6-7.4-14.9c-2.9-7.1-6.1-12.2-12.6-19.7s-9.6-12.4-12.1-19c-2.6-6.9-5.3-10.9-11.7-17.8
	c-5.4-5.7-9.1-11.1-10.5-14.9c-1.2-3.2-4.6-11-7.7-17.3c-3-6.3-6.5-13.7-7.6-16.5c-1.2-2.8-5.8-9.3-10.3-14.4
	c-6.2-7-9-11.5-11.6-18.5c-2.8-7.3-5.1-10.9-11.6-17.8c-6.7-7.1-8.9-10.5-12.2-19c-3.3-8.4-5.7-12.2-12.7-20
	c-6.3-7-9.4-11.7-11.4-17c-1.5-4-3.7-8.9-5.1-10.9c-1.3-1.9-4.8-8.8-7.7-15.3c-4-9-7.1-13.7-13-20c-6.1-6.5-8.5-10.3-11.7-18.4
	c-3.1-7.8-5.8-12.2-11.8-18.9c-5.5-6.2-9.2-11.9-12.5-19.3c-3.5-7.9-6.6-12.5-12.6-18.8c-5.9-6.2-8.6-10.2-10.6-15.7
	c-1.5-4.1-4.2-10-6-13.1s-4.6-9.1-6.2-13.2c-3.5-9.3-7.8-15.9-15-23.2c-4-4-6.6-8.3-9.4-15.5c-3.2-8.2-5.4-11.5-12.6-19.1
	c-6.6-6.9-9.3-10.8-10.8-15.5c-1.1-3.5-3.9-9.6-6.3-13.7c-2.4-4.1-6-11.6-8-16.7c-2.8-7.1-5.4-11-10.8-16.4
	c-3.9-3.9-8.8-10.4-11-14.5c-4.7-8.7-8.3-11.7-14.9-12.3C5770.5,2901.4,5754,2901.5,5736.6,2901.9 M4613.7,2978.8
	c-1.6,0.7-5.7,3.3-9.1,5.9c-6.2,4.7-6.2,4.7-118.7,5c-112.6,0.3-112.6,0.3-118,3.8c-3,1.9-7.7,4.8-10.5,6.3c-5,2.8-5,2.8-121.5,2.8
	c-129.1,0-117.5-0.7-129.4,8.2c-5,3.8-5,3.8-118.7,4.4c-113.6,0.6-113.6,0.6-118.9,4.5c-2.9,2.1-6.7,4.7-8.3,5.7
	c-2.5,1.5-24.2,1.9-128,2.4c-125,0.6-125,0.6-132.7,6.3c-7.8,5.7-7.8,5.7-130.2,5.9c-67.3,0.1-124.2,0.6-126.2,1
	c-2.1,0.4-6.2,2.6-9.1,4.9c-9.2,7.2-9,7.2-67.9,7c-34.7-0.1-55,0.3-56.5,1.1c-5.3,3-5.7,4.7-6.4,27.7c-0.6,22.1-0.6,22.1-6.1,30.2
	s-5.5,8-6.1,68.6c-0.3,33.3-1.1,61.4-1.7,62.4c-0.6,1-3,4.9-5.5,8.6c-4.4,6.8-4.4,6.8-4.6,64.2c-0.1,31.6-0.5,59.2-0.8,61.5
	c-0.3,2.2-3,7.6-5.9,11.8c-5.2,7.7-5.2,7.7-5.8,74.5c-0.7,72.4-0.2,67.5-7.8,78.6c-3.8,5.5-3.8,5.5-4,61.6
	c-0.1,30.9-0.5,58.5-0.7,61.4c-0.3,3.6-2.2,7.7-5.8,13.1c-5.3,7.9-5.3,7.9-5.9,68.4c-0.6,64.4-0.4,61.7-6.7,70.6
	c-4.4,6.2-5.3,11.5-5.7,34.8c-0.4,25.8-0.2,26.4,11,32.6c3.5,2,10.4,7.4,15.3,12.2c6.9,6.7,10.9,9.4,17.7,12.2
	c7,2.8,10.9,5.5,18.2,12.7c7.5,7.3,11.1,9.8,18.2,12.6c6.6,2.6,10.7,5.3,16.2,10.6c9.1,8.9,12.7,11.4,21.8,15.1
	c4.7,1.9,9.8,5.4,14.5,10.1c9.4,9.2,13.3,11.9,21.6,15.1c4.7,1.8,9.7,5.4,16,11.3c5.1,4.8,11.5,9.7,14.3,10.9
	c6.5,2.9,15.5,7.7,23.3,12.4c6.1,3.7,6.1,3.7,107.3,4.1c55.7,0.2,104.6,0,108.7-0.4c5.9-0.6,9.4-2,17-6.7c9.5-5.9,9.5-5.9,236.9-6.5
	s227.4-0.6,235.2-5.6s7.8-5,99.9-4.7c50.7,0.2,100.7-0.1,111.2-0.7c22-1.1,23.8-1.9,28.8-12.4c1.7-3.5,4.8-9.1,6.9-12.6
	c2.1-3.4,4.7-8.7,5.8-11.8c1-3,3.5-8.3,5.6-11.7c2-3.4,4.8-9.1,6.1-12.6s4.3-9.6,6.6-13.4c2.3-3.8,4.9-9.4,6-12.4
	c1-3,3.7-8.6,6.1-12.6c2.3-3.9,5.1-9.7,6.1-12.8s3.5-8.2,5.5-11.5c2-3.2,5-9.5,6.8-13.9c1.7-4.4,4.2-9.6,5.5-11.5s3.9-7.3,5.7-12
	c1.9-4.7,5.1-11.3,7.2-14.7s4.4-8.2,5.2-10.7c0.8-2.5,3.4-8.2,6-12.7c2.5-4.5,5.6-11,6.8-14.3c2.4-6.8,12.6-19.1,19.7-23.7
	c4.2-2.7,6-2.9,31.8-3.5c27.4-0.6,27.4-0.6,35.2-5.7c7.8-5,7.8-5,56.3-5.1c52.6-0.1,55.1-0.3,64.4-7c9.7-6.9,8.1-6.7,69-7.4
	c57-0.6,57-0.6,66-6.3c9-5.6,9-5.6,29.2-6.3c22.4-0.7,23.9-1.2,27.3-9.7c1.9-4.7,2.3-38.1,0.5-46c-0.6-2.6-3.4-8.8-6.3-13.8
	c-5.3-9-5.3-9-4.9-68.2c0.2-36-0.1-62.1-0.9-66.6c-0.8-4.8-3-10.4-6.2-15.9c-4.9-8.5-4.9-8.5-4.9-70c0-33.8-0.5-63.9-1-66.8
	c-0.5-2.9-3.4-9.4-6.3-14.4c-5.3-9.1-5.3-9.1-5-68.3c0.2-36-0.2-62.2-0.9-66.7c-0.8-4.8-2.9-10.2-5.8-15.1
	c-4.6-7.6-4.6-7.6-5.2-73.7c-0.7-72.5,0-66.2-8.6-80.4c-4.1-6.8-4.1-6.8-3.8-28.2c0.4-24.9-0.9-33.5-5.4-37.3
	c-3-2.5-4.7-2.5-51.1-2.5C4637,2977.6,4615.3,2978.1,4613.7,2978.8 M1722.2,3455.6c-10.8,1.4-16.5,7-21.3,20.7
	c-1.2,3.5-3.8,8.7-5.7,11.7c-2,3-4.8,8.9-6.4,13c-1.6,4.2-4.5,10.2-6.4,13.4c-2,3.2-4.6,8.9-5.8,12.7c-1.9,5.9-4.6,9.4-17.5,23.3
	c-13.9,15-15.5,17.2-18.7,25.8c-3.1,8.5-4.7,10.7-16.9,23.6c-9.2,9.8-15.7,15.5-20.7,18.2c-10.9,6-11.5,7.8-11.5,35.8
	c0,21.9-0.2,23.4-3.1,30.7c-3.6,9-3.3,14.2,1.3,18.7c2.4,2.3,5.4,3.3,14.6,4.5c9.7,1.3,12.8,2.3,19.1,6.2c5.9,3.7,9.8,5,18.3,6.4
	c8.4,1.3,12.3,2.7,17.6,6c8.2,5.2,9.3,5.6,20.6,7c6.9,0.9,10.5,2.2,16,5.7c6.7,4.3,10.6,5.4,26,7.7c2.1,0.3,7,2.6,10.9,5.1
	c5.6,3.5,9.5,4.9,18,6.2c8.6,1.4,12.3,2.6,18,6.3c5.9,3.8,9.2,4.9,18,6.2c8.6,1.2,12.1,2.4,17.8,6c8.3,5.3,9.2,5.6,20.9,7.3
	c6.9,1,10.8,2.4,16.1,5.8c6.5,4.1,10.5,5.3,25.9,7.6c2.1,0.3,7,2.6,10.9,5.1c5.6,3.5,9.5,4.9,18,6.2c8.6,1.4,12.3,2.6,18,6.3
	c5.8,3.7,9.4,5,18.2,6.3c8.9,1.4,12.4,2.6,18.2,6.3c5.6,3.6,9.4,4.9,17.6,6.2c8.9,1.4,13,3,26.9,10.3c9,4.7,17.9,9.7,19.7,10.9
	c1.8,1.3,8.3,3,14.4,4c8.8,1.4,12.6,2.7,18.5,6.3c5.9,3.7,9.5,4.9,18,6.1c8.5,1.2,12,2.4,17.7,6.1c7.4,4.7,14.7,7.1,22.2,7.1
	c2.4,0,7,1.5,10.3,3.3s7.9,4.3,10.2,5.6s8.5,2.9,13.8,3.5c7.6,1,10.9,2.1,16.7,5.8c5.7,3.7,9.4,5,17.9,6.3
	c10.5,1.6,15.5,3.6,22.3,8.5c2,1.5,7.7,3.1,14.4,4.2c8.9,1.4,12.5,2.6,18.3,6.3s9.4,5,18.2,6.3c8.7,1.3,12.5,2.7,18.4,6.3
	c5.8,3.6,9.7,5,18.2,6.3c8.6,1.3,12.3,2.6,17.9,6.2c5.6,3.6,9.3,4.9,18.1,6.2c8.7,1.4,12.6,2.7,18.5,6.3s9.8,5,18.2,6.3
	s12.3,2.7,17.6,6c8.2,5.2,9.3,5.6,20.6,7c6.9,0.9,10.5,2.2,16,5.7c6.7,4.3,10.6,5.4,26,7.7c2.1,0.3,6.7,2.4,10.4,4.7s9.1,5.1,12,6.4
	c3,1.2,8.4,4,12,6.3c3.7,2.2,9.9,5.4,13.9,7.1c5.9,2.4,10,5.8,21.4,17.2c12.4,12.5,15.5,14.8,25.5,19.7c6.2,3.1,14.1,7.9,17.4,10.9
	c6.5,5.7,11.4,8.3,12.7,6.6c0.4-0.5,0.5-15.2,0.1-32.5c-0.7-31.5-0.7-31.5-5.5-39.6s-4.8-8.1-5.5-30.1c-0.7-23.6-0.6-23.2-8.6-36.3
	c-4.1-6.8-4.1-6.8-4.2-33.3c-0.1-29.1,0.1-28.2-8.8-43.6c-3-5.3-3.3-6.6-3-18.2c0.5-24.1-0.4-29.4-6.8-40.5c-5.7-9.9-5.7-9.9-6.3-32
	s-0.6-22.1-5.5-30.2c-4.8-8.1-4.8-8.1-5.5-36.4c-0.7-30.6-0.3-29.1-8.6-42.7c-4.1-6.8-4.1-6.8-4.7-28.9c-0.5-20.1-0.9-22.5-3.3-26.5
	c-8.1-13.2-7.8-11.8-8-41.3c-0.2-29.8,0.2-27.8-8.6-42.5c-3.2-5.4-3.6-7.3-4.3-19.9c-0.7-14.2-2-18.5-6.1-20.8
	c-1.5-0.8-29.5-1.3-80.3-1.3c-46.6,0-79.6-0.5-82.1-1.2c-2.2-0.7-7.1-3.4-10.7-6c-6.7-4.8-6.7-4.8-186.2-5.4
	c-100.7-0.4-180.4-1.1-181.4-1.7c-1-0.6-4.7-3.2-8.3-5.7c-6.5-4.5-6.5-4.5-94.6-5.2C1767.3,3455.2,1725.2,3455.2,1722.2,3455.6
	 M2500.2,3525.6c-0.3,0.5-0.2,15.1,0.2,32.5c0.7,31.3,0.7,31.6,3.9,36.5c7.5,11.8,7.6,12.3,8.3,35.9c0.6,22.1,0.6,22.1,5,28.9
	c6.8,10.6,7.2,12.9,7.2,40.7c0,27.5-0.5,25.2,8,40.3c3.4,6.1,3.5,6.8,4.1,28.4c0.6,22.1,0.6,22.1,6.1,30.8s5.5,8.7,6.1,31.5
	c0.6,21.9,0.7,23,3.8,27.7c7.8,12.3,7.7,11.5,8.3,42.1c0.6,28.4,0.6,28.4,6.1,37c5.5,8.7,5.5,8.7,6.1,30.8
	c0.6,21.5,0.7,22.2,4.1,28.4c7.8,14,7.4,11.9,8,42.1c0.5,24.2,0.9,28.8,2.8,32.1c1.2,2.1,3.5,6,5,8.7c1.7,2.9,3.2,8.1,3.7,12.6
	c1.5,13.7,1.7,13.9,27,27.3c11.2,5.9,18.6,10.7,22.6,14.8c7.7,7.7,11.6,10.3,20.6,14c5,2,9.9,5.5,15.5,11
	c5.9,5.8,11.2,9.4,18.8,13.1c5.8,2.8,12,6.2,13.9,7.5c1.9,1.4,6.7,3.8,10.8,5.5s9.1,4.4,11.2,6c8.1,6.4,10.8,7.1,25.4,7.1
	c12.6,0,14.3,0.3,19.8,3.3c17.2,9.5,12.5,8.6,48.4,9.3c32.8,0.6,32.8,0.6,41.3,6c5.7,3.6,11,5.8,15.7,6.6c3.9,0.7,21.9,1.1,40,1
	c32.9-0.3,32.9-0.3,41.8,5.3c8.9,5.6,8.9,5.6,42.3,6.2c35.5,0.7,34.2,0.4,44.5,7.7c7.7,5.4,14.1,6.3,46.5,6.6
	c29.7,0.2,29.7,0.2,37.5,5.2s7.8,5,41.3,5.7c33.5,0.6,33.5,0.6,42,6c5,3.1,11.2,5.9,15.1,6.6c3.6,0.7,18.9,1.2,33.9,1.1
	c42.1-0.4,39.3-0.6,47.1,4.3c3.8,2.4,8,4.8,9.3,5.4s17.2,1.4,35.2,1.8c32.8,0.7,32.8,0.7,41.6,6.2c4.8,3,11.1,6,13.9,6.5
	c2.8,0.6,18.2,1,34.3,1.1c29.2,0.1,29.2,0.1,35.1,3.9c10.2,6.7,10,6.7,51,7.4c38.8,0.7,38.8,0.7,47.5,6.1c11.2,7,17.9,8,50.7,7.5
	c25.5-0.4,25.5-0.4,30.9,3c12.8,8.1,11.3,7.8,46.7,8.5c34.8,0.7,33.6,0.5,43.7,7.6c8.1,5.8,13.3,6.5,46.1,6.7
	c30.4,0.2,30.4,0.2,35.6,3.7c10,6.9,11.9,7.1,51,7.1c36.1,0,36.1,0,42.6,3.8c17.5,10.1,14,9.4,49.3,9.6c31.9,0.2,31.9,0.2,38.8,4.6
	c9,5.8,16.4,7.6,27,6.9c9.8-0.7,12.4-2.5,16-11c1.3-3.1,3.9-7.9,5.8-10.7c1.8-2.8,4.8-8.6,6.6-13s4.5-10,6.1-12.6
	c1.6-2.5,4.1-7.9,5.6-11.9c1.9-5.1,5.3-10.3,11-16.8c4.5-5.2,9.5-12.3,11-15.9c1.5-3.5,4.2-9.3,6.1-12.8c1.8-3.5,5.5-11.2,8.2-17
	c3.4-7.3,7.2-13.1,12-18.2c7.7-8.3,7.6-8,18.2-31.5c4.1-9,8.8-18.9,10.4-22s5.2-10.3,7.8-16c2.6-5.7,7.4-13.3,10.6-17
	c8.1-9.2,10.7-13.4,13.7-21.2c1.4-3.7,4.4-9.9,6.6-13.7c2.2-3.8,5-9.7,6.2-13c1.3-3.7,5.4-9.7,10.5-15.5c4.6-5.2,9.5-12.4,11-15.9
	s4.2-9.3,6.1-12.8c1.8-3.5,5-10,7-14.5s4.2-9.2,4.9-10.5c6.9-12.8,7.3-16.7,1.8-20.4c-2.6-1.8-13.5-2-98.2-1.9
	c-62.9,0.1-96.4,0.6-98.6,1.4c-1.8,0.7-5.1,2.7-7.3,4.4c-9.1,7.2,7,6.8-237.6,6.8c-212.1,0-225.5,0.1-229.2,2.2
	c-2.2,1.2-6.2,3.9-9,6c-5,3.8-5,3.8-116.7,4.1c-61.4,0.2-113.4,0-115.5-0.4s-7-2.9-10.9-5.6c-3.9-2.7-10.2-6.1-14-7.6
	c-4.9-1.9-9.7-5.3-16.5-11.8c-7.4-7-11.5-9.9-18.3-12.7c-6.9-2.8-10.8-5.5-18.1-12.6c-7.4-7.1-11.2-9.8-17.9-12.5
	c-6.6-2.6-10.8-5.5-18.3-12.5c-7.4-6.9-11.8-10-18.3-12.6s-10.8-5.6-18-12.5c-7.4-7-11.5-9.9-18.3-12.6c-6.8-2.8-11-5.6-18.4-12.7
	c-7.1-6.8-11.5-9.9-17.2-12.1c-5.7-2.2-10-5.3-17.2-12.1c-7.3-6.9-11.7-10-18.8-13.1c-5.1-2.2-11.4-5.4-14-7.1
	c-2.6-1.7-6.8-3.9-9.3-4.8c-8.4-3.1-12.7-6-20.7-14.1c-6.2-6.2-10.2-9-17.8-12.2c-5.4-2.3-11.3-5.4-13.2-6.7
	c-1.9-1.4-6.9-4-11.1-5.8c-4.2-1.8-10.2-4.8-13.3-6.8s-8.8-4.9-12.7-6.5c-4.8-2-10.1-5.9-16.5-12c-6.7-6.4-11.5-9.8-16.6-11.8
	c-3.9-1.5-10.1-4.7-13.8-7.1c-3.7-2.4-9.8-5.5-13.6-7c-4.9-1.9-9.7-5.4-16.6-11.9c-6.7-6.4-11.5-9.9-15.5-11.2
	c-3.2-1.1-9.4-4.2-13.9-6.9s-10-5.5-12.2-6.3c-2.3-0.8-7.3-3.4-11.3-5.9c-3.9-2.5-10.6-5.9-14.8-7.7c-5.4-2.3-10.4-5.8-17.1-12.2
	c-6.8-6.4-11.5-9.9-16.6-11.8c-3.9-1.5-10.1-4.7-13.8-7.1c-3.7-2.4-9.7-5.4-13.4-6.9c-4.6-1.8-9.8-5.5-16.6-11.9
	c-7.1-6.7-11.9-10-17.2-12.1c-4-1.6-9.8-4.5-12.8-6.5s-8.9-5-12.9-6.8c-4.1-1.7-9.9-4.7-13-6.7s-8.8-4.9-12.6-6.5
	c-4.9-2-10-5.7-16.6-11.9c-7-6.6-11.5-9.8-16.9-11.9c-4-1.6-9.9-4.5-13-6.5s-9.1-5.1-13.4-6.9c-5.7-2.3-10.5-5.8-17.5-12.4
	c-5.3-5.1-10.9-9.6-12.4-10c-3.6-1.1-39.1-19.1-44.5-22.6c-2.3-1.5-7.4-4-11.3-5.6c-4.8-2-10.1-5.8-16.6-12
	c-7.6-7.3-11.7-10-20-13.7C2505.2,3524.8,2501.1,3523.8,2500.2,3525.6 M6190.7,3656.7c-37.1,0.7-37.1,0.7-42.1,4.4
	c-11.8,8.9-3,8.2-105.7,8.2s-92.4-0.8-106.3,8.2c-5.8,3.8-5.8,3.8-100.5,4.4c-94.7,0.6-94.7,0.6-102.4,6.3
	c-7.8,5.7-7.8,5.7-109.2,6.3c-101.4,0.6-101.4,0.6-106.9,4.8c-11.1,8.3-5,7.8-106.6,7.8c-92.5,0-92.5,0-98.4,4.1
	c-13.3,9.3-3.2,8.5-106.2,8.5c-102.7,0-92.4-0.8-106.3,8.2c-5.8,3.8-5.8,3.8-100.6,4.4c-94.7,0.6-94.7,0.6-100,4.8
	c-10.7,8.4-6,8-87.6,7.9c-82-0.1-73.7-0.9-87.6,8.1c-5.8,3.8-5.8,3.8-64.1,4.4c-58.3,0.6-58.3,0.6-63.3,4.4
	c-11.5,8.7-7.8,8.2-63.2,8.2c-55.4,0-50.2-0.7-63.9,8.2c-5.8,3.8-5.8,3.8-31.9,4.4c-14.3,0.4-27,1.1-28.2,1.7
	c-1.2,0.6-3.9,4.5-5.9,8.8c-2.1,4.2-4.8,9.3-6.1,11.2c-1.3,1.9-3.7,6.9-5.3,11.2c-1.6,4.2-4.6,10.4-6.6,13.7s-5,9.4-6.6,13.7
	c-1.6,4.2-4.1,9.4-5.5,11.4c-1.4,2.1-4.1,7.6-6,12.3s-4.8,10.7-6.6,13.4c-1.7,2.6-4.3,7.9-5.6,11.6c-1.4,3.8-3.8,9-5.5,11.6
	s-4.4,8.3-6,12.7c-1.7,4.4-4.7,10.7-6.7,14s-5,9.4-6.6,13.7c-1.6,4.2-4.1,9.4-5.5,11.4c-1.4,2.1-4.1,7.6-6,12.3s-4.8,10.7-6.6,13.4
	c-1.8,2.7-4.4,8.3-5.9,12.6c-2,5.6-4.4,9.4-8.9,14c-7.8,7.9-10.9,12.5-14.6,22.1c-1.6,4.2-4.3,9.7-6,12.3c-1.6,2.6-4.3,8.2-6,12.6
	c-1.7,4.4-4.7,10.7-6.7,14s-5.1,9.6-6.7,14c-2.2,5.9-5,10.2-10.8,16.2c-7.8,8.3-10.4,12.4-13.6,21.8c-1,2.8-3.3,7.7-5.3,10.9
	c-1.9,3.1-4.7,9.1-6.2,13.2c-2,5.5-5,10-11.5,17.2s-9.5,11.7-11.4,17.1c-1.4,4-4.4,10.4-6.7,14.3c-2.3,3.8-5.3,10.1-6.7,13.8
	c-1.4,3.8-4.2,9.4-6.1,12.5s-4.7,9.1-6.2,13.2c-2,5.7-4.8,9.8-11.1,16.5c-6.6,7-9.2,11-12,18.2c-2,5.1-5,11.3-6.7,13.9
	c-1.7,2.5-4.7,8.7-6.6,13.7c-2.7,7-5.5,11.3-11.9,18.2c-6.1,6.7-9,11-10.9,16.5c-1.4,4.1-4.5,10.6-6.8,14.5s-5,9.6-6,12.6
	s-3.7,8.6-6,12.4c-2.3,3.8-5.3,10-6.7,13.7s-4.2,8.9-6.1,11.4c-5.4,7.1-6,10.1-6,28.8c0,18.5,0.9,22.9,6.1,30.9
	c5.8,8.9,6.1,11.3,6.1,50.3c0,38.3,0.4,42,5.4,49.1c6.2,8.8,6,7.3,6.7,57.2c0.7,51.2,0.1,46.7,8,61c3.5,6.3,3.5,6.3,4.1,46.5
	c0.3,22.1,1.1,41.4,1.7,42.8s3.1,5.6,5.4,9.3c4.3,6.8,4.3,6.8,4.9,47.8s0.6,41,4.1,47.3c7.9,14.1,8,14.4,8,26.5
	c0,6.3,0.6,13.3,1.3,15.5c2.9,8.8,14.7,10.3,25.7,3.4c3.8-2.4,8.1-4.8,9.6-5.3s14.7-0.8,29.4-0.6c31.4,0.4,36.9-0.5,48.2-7.6
	c8.3-5.2,8.3-5.2,46.1-5.3c40.9-0.1,41.6-0.2,50.8-7.5c6.3-4.9,11-5.6,34.9-4.9c23.1,0.6,37.4-0.6,43.2-3.8c1.9-1,6.1-3.5,9.4-5.5
	c6.1-3.6,6.1-3.6,29.7-3.2c26.9,0.4,42.2-1.1,47.8-4.7c12-7.9,10.1-7.6,44.6-7.9c35-0.3,31.8,0.3,47.5-9.1c5.9-3.5,5.9-3.5,43-3.7
	c39.8-0.2,41.1-0.4,50.5-7c7.8-5.5,12-6.1,36.1-5.4c30.1,0.9,38.5-0.3,49.7-7.3c8.7-5.5,8.7-5.5,39.1-5.5
	c32.8-0.1,35.2-0.4,45.6-7.2c7.9-5.1,12.4-5.7,30.9-4.5c9.2,0.6,23.6,0.5,34.9-0.2c20.1-1.3,22-1.8,34.5-9.6c5.2-3.2,5.2-3.2,37-3.4
	c35-0.2,32.8,0.2,48-9.2c5.4-3.3,5.4-3.3,55.2-3c52.2,0.3,63.7-0.5,70.4-4.9c12.8-8.5,5.9-7.8,81.1-8c76-0.2,68.4,0.6,84.2-9.2
	c5-3.1,6-3.3,18.8-2.8c23.3,0.8,96.8,0.4,105.2-0.6c6.4-0.8,9.9-2.1,17.3-6.7c9.3-5.7,9.3-5.7,71.3-5.9c67.6-0.2,65.4,0,75.1-7.5
	c2.2-1.7,5.3-3.5,7-4.1s24.6-0.9,50.9-0.7c26.3,0.2,51.8-0.2,56.6-0.9c8.7-1.2,10.5-1.9,21.4-8.4c5.9-3.5,5.9-3.5,55.2-3.7
	c53.2-0.2,52.1-0.1,63.4-7.4c7.8-5,12.2-5.7,30.7-4.4c17.2,1.2,54.6,0.2,64.2-1.7c3.3-0.6,9.7-3.5,14.3-6.3
	c8.3-5.2,8.3-5.2,58.2-5.3c54.3-0.2,53.4-0.1,63-7.5c6-4.6,11.1-5.9,23.9-5.9c10.1,0,12.6-0.4,17.8-3.2c8.3-4.3,10.7-7.3,15.6-19.5
	c2.3-5.7,5-11.4,6.1-12.6c1-1.2,3.7-6.7,6-12.3c2.2-5.6,5.1-11.7,6.4-13.7c1.3-1.9,3.6-6.8,5.1-10.7c1.5-4,4.3-9.8,6.3-13
	c1.9-3.2,4.9-9.3,6.6-13.6c1.7-4.3,4.4-9.9,6.1-12.5s4.1-7.7,5.4-11.3c1.3-3.6,4.6-10.3,7.3-14.8c2.7-4.5,4.9-8.7,4.9-9.4
	c0-1.6,16.8-37,19.5-40.9c1.2-1.7,3.5-6.8,5.3-11.2c1.7-4.4,4.7-10.7,6.7-13.8c1.9-3.2,4.1-7.8,4.9-10.3s3.6-8.4,6.3-13.1
	c4.1-7.1,5.1-10.2,6.1-18.7c0.9-8,2.2-12.1,5.8-19c3.5-6.6,5-11.3,6-18.8c1.1-8,2.3-11.7,6.1-18.2c2.6-4.5,5.6-10.7,6.7-13.8
	c1-3,3.5-8.2,5.4-11.5c4-6.8,6.1-13.7,6.1-20.2c0-5.9,2-11.9,6.1-18.1c3.9-6,5.6-11.4,6.5-20.8c0.5-5.3,2.8-11.4,9.6-25.2
	c4.9-10,9.8-19.9,10.9-21.9c1.1-2.1,3.6-7.5,5.6-12s4.4-9.6,5.4-11.3c1-1.7,3.8-7.4,6.2-12.6s5.7-12,7.3-15.1
	c1.6-3.1,4-8.2,5.3-11.3c1.3-3.1,3.5-7.6,4.8-10.1c1.3-2.4,4.4-8.6,6.7-13.8c2.3-5.2,5.4-11.4,6.7-13.8c1.4-2.4,4.1-8.1,6.1-12.6
	s4.7-10.2,6-12.6s4-7.8,5.9-12c1.9-4.2,5-10.4,6.7-13.8c6.4-12.8,18.9-40.4,20.3-45c0.8-2.6,1.1-6.3,0.7-8.2
	c-0.7-3.2-14.1-32.7-20.9-46.2c-1.8-3.5-5.8-11.8-9-18.5c-4.2-8.9-8.1-14.9-14.3-21.8c-4.7-5.2-8.5-10.2-8.5-11.1
	c0-0.9-2.8-7.1-6.1-13.9c-3.4-6.8-7.2-15.3-8.5-19c-1.6-4.5-5.2-9.9-11.3-16.7c-6.4-7.2-9.6-12.1-11.5-17.3c-1.4-4-3.6-8.7-4.8-10.5
	c-2.3-3.3-17.4-35.1-21.7-45.6c-1.4-3.3-5.8-9.4-10.2-14c-5.8-6-8.7-10.3-11.3-16.8c-1.9-4.8-5.2-11.5-7.2-15
	c-2.1-3.5-5.3-10.1-7.1-14.8c-2.3-5.8-5.8-11.2-11-17c-6.2-6.9-9.3-12.2-16.9-28.6c-5.2-11.1-10-21.3-10.7-22.6
	c-4.4-8.2-9.5-16.8-11.8-19.8c-2.6-3.4-9.4-6.2-14-5.7C6228.8,3655.9,6211.1,3656.4,6190.7,3656.7 M1581.4,3729.7
	c-1.1,0.7-4.1,4.2-6.6,7.9c-6.2,9-6.9,16-2.3,23c7.3,11.1,7.2,10,7.2,57.9c0,24.2,0.5,45.4,1.1,47.2s3,6.5,5.5,10.6
	c4.4,7.5,4.4,7.5,5,29.6c0.7,23.7,0.5,22.9,8.8,36.6c2.4,4,2.7,6.5,3.3,26.5c0.6,22.1,0.6,22.1,6,31.4c5.4,9.3,5.4,9.3,6.2,25.3
	c0.7,14.2,1.1,16.6,3.9,21.5c6.6,11.5,8.3,16.4,9,26.3c1,15.1-0.4,22.9-5.2,29.9c-5.9,8.5-7,11.4-7.1,18.6
	c-0.1,5.4,1.2,8.9,8.4,23.9c4.6,9.7,9.6,19.4,11.1,21.6s3.3,7.8,4,12.3c2,11.7,3.3,14,10.9,18.8c5.8,3.7,18.3,15.8,22.9,22.2
	c0.8,1.1,2.2,7.2,3.1,13.4c1.3,9.3,2.5,12.8,6.3,19.2c4.7,7.9,4.7,7.9,5.1,31.9s0.4,24-4.1,31.6c-2.4,4.2-5.9,11.3-7.7,15.8
	c-1.8,4.6-4.7,10.3-6.5,12.7c-1.8,2.4-4.3,7.7-5.7,11.8c-3,8.9-6,12.5-13.7,15.9c-7.1,3.2-9,6.7-10.5,18.6c-0.6,4.9-1.8,9.8-2.7,11
	c-0.9,1.2-18.5,19.8-39.2,41.4c-37.6,39.3-37.6,39.3-47.2,43.3c-7.6,3.2-11.4,5.8-18.3,12.6c-4.8,4.7-10.8,9.5-13.4,10.6
	c-5.9,2.5-10.2,6.5-10.2,9.6c0,5.3,5.4,11.9,35.7,43.7c29.9,31.4,31.9,33.8,34.6,41.3c1.6,4.4,5.2,11.4,8.2,15.5
	c6.6,9.3,75.3,81.5,100.6,105.7c18.8,18,18.8,18,24.9,31.2s6.2,13.3,30,38c13.2,13.6,25.8,25.9,28,27.4c6.4,4,12.1,3.4,21.4-2.4
	c7.8-4.9,8.4-5,19-5.1c14,0,18.6-1.2,27.4-6.8c6-3.8,8.8-4.8,17.8-5.8c9.2-1.1,11.8-2,19-6.5c8.3-5.2,8.4-5.2,23.6-6
	c15.5-0.8,18-1.5,25-7c3.8-3,8.9-4.5,22.1-6.7c5.1-0.8,9.9-2.7,14.6-5.7c5.6-3.6,9.3-4.9,18.1-6.2c6.8-1.1,12.4-2.7,14.5-4.2
	c8.4-6.1,11.6-7,27.1-7.8c15.2-0.7,15.2-0.7,23.9-6.2c7-4.4,10.4-5.7,17.5-6.6c11-1.4,12.6-2,18.6-6.1c7.3-5.1,8.5-5.4,24.2-6.3
	c14.9-0.9,17.5-1.6,28.1-8.3c3.4-2.1,8.7-3.7,16-4.9c6.7-1,12.2-2.7,14.3-4.2c8.3-6.1,11.6-7,27.2-7.9c15.3-0.8,15.3-0.8,23.2-6.1
	c13.9-9.4,20.5-8.5,32.6,4.6c5.6,6.1,9.2,11.5,12.7,19.1c3.2,7,7.6,13.9,12.8,19.8c4.6,5.3,8.8,11.6,10,15.1
	c1.2,3.3,3.9,9.1,6.1,12.9s4.8,9,6,11.5c3.3,7.4,6.7,9.9,15.8,11.3c5.3,0.9,42.3,1.2,107.8,0.8c110-0.5,103.4,0,112.9-8.6
	c5.6-5.1,6.7-7.9,8.1-20c0.7-6,2.1-11.4,4.1-15.1c1.7-3.1,4.7-9.4,6.7-13.9s4.6-9.9,5.7-12c5.4-10.1,6.5-13.4,7.6-22.5
	c0.8-6.6,2.3-11.8,4.4-15.7c6.1-11.1,6.8-12.9,7.9-22.5c0.9-7.8,2.1-11.3,5.9-17.9c4-6.8,5-10.1,6.1-18.7c1.3-10.4,2.6-14.3,8-22.7
	c1.5-2.4,3.7-6.9,4.7-10s3.5-8.2,5.4-11.3c3.5-5.6,4.7-9.9,7.2-24.3c0.7-4.4,3-10.2,5.6-14.7c4-6.8,6.4-16.2,6.6-26.6
	c0-1.1,2-5.3,4.4-9.4s4.8-10.2,5.5-13.4c0.6-3.3,1.7-8.9,2.3-12.4c0.7-3.5,3.2-9.7,5.6-13.7c3.4-5.7,4.6-9.4,5.6-17.2
	c1-8.1,2.6-12.9,9.2-26.9c4.4-9.3,9.2-19,10.8-21.4c1.9-2.9,3.2-7.7,4-13.9c1.4-11.4,1.7-12.5,6.9-21.4c3.2-5.6,4.3-9.1,5.2-17.2
	c1.1-9.8,2.6-13.8,8.6-23.9c1.4-2.4,3.1-8.7,4.1-15.4c1.2-8.6,2.6-13,5.4-17.8c2.1-3.5,4.9-9.3,6.2-12.8s4.4-9.7,6.7-13.7
	c3.6-6,4.5-9,5.3-17.3c0.8-8.1,1.9-11.8,5.6-18.8c5.6-10.6,5-14.4-2.6-18.4c-2.7-1.4-7.8-4.3-11.5-6.4s-9.8-5.2-13.7-6.8
	c-4.8-2-10-5.7-16.5-11.9c-7.2-6.8-11.5-9.8-17.9-12.4c-6.6-2.7-10.4-5.4-17.1-12.1c-6.9-6.9-10.5-9.4-18.1-12.6
	c-5.3-2.2-11.5-5.3-13.8-7c-2.3-1.6-7.7-4.4-11.8-6.2c-5.2-2.2-10.1-5.7-15.9-11.3c-6-5.9-11.4-9.6-19.6-13.7
	c-7.8-3.9-14-8.2-20.1-13.8c-6.3-5.8-10.9-9-16.4-11.1c-6.5-2.5-9.7-5-22.8-18.1c-10-10.1-17-16-20.6-17.6
	c-8.9-3.9-17.3-8-21.8-10.7c-2.3-1.4-7.8-4.3-12.1-6.3c-4.3-2.1-10-5-12.6-6.5c-3.1-1.8-7.9-3-14-3.6c-10.1-0.9-9.9-0.8-19.1-7.2
	c-5.2-3.7-7.9-4.6-15.8-5.4c-11.4-1.2-12.6-1.6-20.5-7.1c-5.2-3.7-7.7-4.5-16.7-5.4c-11.5-1.2-10.9-1-19.8-7.3
	c-5.4-3.8-7.7-4.5-16.9-5.5c-7-0.7-11.8-2-14.3-3.6c-9.1-6.1-15.9-8.8-22.3-8.8c-7.3,0-12.7-2-20.1-7.5c-4.3-3.2-7-4.1-15.9-5.1
	c-11.8-1.4-11-1.1-19.6-7.1c-5.2-3.6-7.7-4.5-16.6-5.4c-11-1.2-13-1.9-21-7.8c-4.1-3-6.8-3.8-15.6-4.8c-9.4-1-11.7-1.8-19.1-6.4
	c-7.3-4.6-9.7-5.4-17.9-6.1c-10.2-0.9-9.9-0.8-19.1-7.2c-5.2-3.7-7.9-4.6-15.8-5.4c-11.4-1.2-12.6-1.6-20.5-7.1
	c-5.2-3.7-7.7-4.5-16.7-5.4c-11.5-1.2-10.9-1-19.8-7.3c-5.2-3.7-7.8-4.6-15.8-5.4c-10.1-1.1-15.5-2.7-18.7-5.8
	c-1.1-1-6.1-3.7-11-5.9c-5-2.2-11.8-5.9-15.1-8.1c-5-3.3-8-4.3-16.7-5.3c-11.7-1.4-10.8-1.1-19.5-7.1c-5.2-3.6-7.7-4.5-16.6-5.4
	c-11-1.2-13-1.9-21-7.8c-3.9-2.9-7-3.9-15.2-4.8c-5.6-0.7-10.6-1.2-11-1.2s-3.4-1.9-6.7-4.2c-7.4-5.3-12.6-7.1-19.9-7.1
	c-7.1,0-10.8-1.4-18.9-7.1c-5.2-3.7-7.8-4.6-15.6-5.5c-11.8-1.4-13.1-1.8-20.9-7.2c-5.5-3.8-7.8-4.5-16.6-5.4
	c-11.2-1.1-10.6-0.9-19.7-7.2c-5.2-3.7-7.9-4.6-15.8-5.4c-11.2-1.2-12.4-1.6-20.6-7.2c-5.3-3.6-7.7-4.4-16.4-5.2
	c-10.6-1-13-1.9-21.1-7.9c-3.8-2.8-7-3.9-14.5-4.8c-11.7-1.4-12.9-1.8-20.6-7.2c-5.3-3.7-7.7-4.5-16.8-5.4c-9.3-1-11.7-1.8-18.7-6.2
	c-6-3.8-10.8-5.6-18.4-7.1C1587.5,3728.6,1583.7,3728.3,1581.4,3729.7 M2755.7,4226.3c-7.3,4.2-11.6,10.4-11.6,16.6
	c0,10.3-2.3,19.3-6.6,25.8c-2.4,3.6-5.4,9.5-6.8,13.2c-1.4,3.7-4.1,9.2-6,12.1c-3.9,5.9-6,13.4-6,21.7c0,5.6-2,10.7-6.8,17.2
	c-3.3,4.6-5.4,11.9-5.4,19.5c0,5.6-2,10.9-7.8,20.7c-2.1,3.6-3.2,7.7-3.8,14.8c-0.7,8.4-1.5,11-5.7,18.3c-2.7,4.6-5.9,11.2-7.2,14.6
	s-3.8,8.5-5.7,11.3c-4.2,6.4-4.6,7.8-6,20.4c-0.9,8.5-1.8,11.3-5.1,16.3c-5.1,7.7-7.1,13.5-7.1,21c-0.1,6.9-2.2,12.8-6.7,19.1
	c-2.5,3.5-3.5,6.8-4.8,16.9c-1.4,11.1-2.1,13.3-5.8,18.6c-5.1,7.2-5.6,8.7-6.9,21.1c-0.8,7.7-1.9,11.1-5.3,16.8
	c-2.4,4-5.5,10.3-6.9,14.1c-1.4,3.8-4.4,9.7-6.7,13.2c-3.2,4.8-4.3,8.1-4.8,13.8c-1.3,13.5-1.8,15.5-6.2,22.2
	c-3.8,5.8-4.6,8.2-5.9,19c-1.3,10.8-2.1,13.1-5.7,18.3c-5,7.1-5.5,8.6-6.8,20.9c-0.8,7.8-1.9,11.1-5.9,18
	c-2.7,4.7-5.5,10.6-6.3,13.2s-3.3,7.5-5.5,10.8c-4.6,7-6.7,13.5-6.7,21.6c0,6.2-3.2,14.7-6.5,17.5c-5.4,4.6-6,8.3-5.7,34.1
	c0.3,26.6,0.2,26.1,8.9,42.1c2.7,4.9,2.8,6.4,3.3,45.3c0.7,44.3,0,40.2,8.8,54.7c2.6,4.3,2.7,5.8,3.3,45.3
	c0.6,40.9,0.6,40.9,5.7,49.7c4,6.9,5.3,10.7,6.3,18c1.4,11,3.5,14.6,9.4,16.6c7,2.4,21.4,0.7,28.2-3.4c13.1-7.8,10.3-7.4,43.8-7
	c39.6,0.4,45.9-0.4,57.3-7.5c8.7-5.5,8.7-5.5,37.8-5.1c38,0.5,48.1-0.7,57.6-6.8c4-2.5,9.3-5,11.8-5.5s12.7-0.3,22.7,0.3
	c12,0.8,25.8,0.8,40.7-0.1c24.1-1.4,25.3-1.7,38.7-10.1c5.5-3.4,5.5-3.4,37-3c37.2,0.4,45.8-0.6,54.6-6.6c3.3-2.3,7.7-4.7,9.7-5.4
	c2.3-0.8,15.8-1.1,37-0.7c37.2,0.6,53.7-0.6,59.8-4.6c13.3-8.8,8.4-8.1,62.6-8.2c53-0.1,51.9,0,63.2-7.3c8.1-5.2,12.2-5.8,30.4-4.5
	c17.2,1.2,54.6,0.3,64.6-1.6c3.3-0.6,9.7-3.5,14.3-6.3c8.2-5.2,8.2-5.2,52.3-5c51.5,0.3,57-0.4,68.5-7.5c4.4-2.7,9.1-5.1,10.5-5.2
	s18.3-0.1,37.7,0.1c43.9,0.3,50-0.4,61.3-7.5c8.5-5.3,8.5-5.3,58.4-5.5c55.6-0.1,50.6,0.5,66.2-9.2c5.1-3.2,5.9-3.3,19.4-2.8
	c25.4,0.9,77.7,0.1,84.1-1.3c3.5-0.8,10.1-3.8,14.6-6.6c8.4-5.2,8.4-5.2,51.5-5.3c46.4-0.1,46.7-0.1,56.5-7c2.7-1.9,6.2-3.8,7.9-4.4
	c1.7-0.5,24.9-1.1,51.5-1.1c53.2-0.2,51.5,0,63.5-8.2c6.3-4.3,7-4.5,20.6-5.2c7.7-0.4,15.3-1.4,16.8-2.2c5.1-2.9,6.7-8.4,6.1-20.5
	c-0.5-9.8-1.1-11.9-5.3-19.6c-4.7-8.6-4.7-8.6-5.3-49.5c-0.7-44.6-0.2-41.3-8.6-55.2c-4.1-6.8-4.1-6.8-3.8-39.6
	c0.5-40.4-0.3-47.1-7-58.6c-5-8.5-5-8.5-5.2-54.9c-0.3-50.8,0.3-46.7-8.2-60.7c-4.1-6.8-4.1-6.8-4.1-45.9c0-43.4,0.9-37.7-9.3-57.6
	c-1.7-3.3-2.6-8.6-3.3-19.1c-1.2-19-2.3-20.4-17.6-22.2c-7.3-0.9-10.1-1.9-15.9-5.9c-7.1-4.9-7.1-4.9-41.1-5.5
	c-18.7-0.3-34.9-1.1-35.9-1.7s-4.7-3.2-8.3-5.7c-6.5-4.5-6.5-4.5-46.7-5.2c-40.2-0.6-40.2-0.6-48.6-6.3c-8.4-5.7-8.4-5.7-42.4-6.3
	c-18.7-0.3-34.8-1.1-35.8-1.7s-4.7-3.2-8.3-5.7c-6.5-4.5-6.5-4.5-40.6-5.2c-18.8-0.3-34.9-1.1-35.9-1.7s-4.7-3.2-8.3-5.7
	c-6.5-4.5-6.5-4.5-40.6-5.2c-18.8-0.3-34.9-1.1-35.9-1.7s-4.7-3.2-8.3-5.7c-6.5-4.5-6.5-4.5-46.7-5.2c-22.1-0.3-41-1.1-42-1.7
	s-4.7-3.2-8.3-5.7c-6.5-4.5-6.5-4.5-40.6-5.2c-22.6-0.4-34.9-1.1-36.5-2.1c-1.3-0.8-5.4-3.5-8.9-6c-6.5-4.5-6.5-4.5-37.6-4.5
	c-17.1,0-32.9-0.5-35.2-1.2c-2.2-0.7-7.1-3.4-10.7-6c-6.7-4.8-6.7-4.8-46.8-5.4c-22.1-0.3-41-1.1-42-1.7s-4.7-3.2-8.3-5.7
	c-6.5-4.5-6.5-4.5-40.7-5.2c-34.2-0.6-34.2-0.6-42.5-6.3c-8.4-5.7-8.4-5.7-42.4-6.3c-18.7-0.3-34.8-1.1-35.8-1.7s-4.7-3.2-8.3-5.7
	c-6.5-4.5-6.5-4.5-40.6-5.2c-18.8-0.3-34.9-1.1-35.9-1.7s-4.7-3.2-8.3-5.7c-6.5-4.5-6.5-4.5-46.7-5.2c-22.1-0.3-41-1.1-42-1.7
	s-4.7-3.2-8.3-5.7c-6.5-4.5-6.5-4.5-40.6-5.2c-18.8-0.3-34.9-1.1-35.9-1.7s-4.7-3.1-8.3-5.6c-5.3-3.7-7.7-4.6-13.9-4.9
	C2762.9,4222.9,2760.9,4223.3,2755.7,4226.3 M1472.5,4539.6c-2.3,1.2-11.4,9.3-20.1,18.1c-17.1,17.2-16.2,16.7-31.9,17.9
	c-6.3,0.5-8.9,1.4-13.9,5c-7.9,5.6-11.7,7.1-18.5,7.1c-7.9,0-12.4,2.9-15.3,9.8c-3.6,8.6-7.6,12.4-16.4,15.4
	c-6.6,2.3-9.5,4.4-18.5,13.2c-5.9,5.8-10.9,10.6-11.1,10.6c-20.7,2-23.4,2.5-26.9,5.2c-2.1,1.6-5.2,3.9-6.9,5.3
	c-2.2,1.6-6.6,2.8-13.7,3.5c-12.9,1.4-15.9,2.9-27.4,14.2c-6.5,6.4-10.7,9.5-14.5,10.7c-3,0.9-7.2,2.6-9.4,3.8
	c-4.8,2.5-103.8,104.8-106.7,110.2c-1.6,3-2.2,8.6-2.7,26.4c-0.5,16-1.2,23.7-2.4,26.2c-1.1,2.4-4.5,5-9.9,7.9
	c-4.5,2.4-8.9,5.6-9.8,7.1c-1.1,2.1-1.6,10-1.6,29.3c0,28.3,0,28.2-6.8,37.1c-1.8,2.4-3.9,6.7-4.6,9.4c-0.9,3.3-1.3,29.7-1.3,77.5
	c0,72.5,0,72.5,3.6,79.3c9.5,17.6,9.1,16,9.1,40.1s0.5,21.9-8.5,35.3c-3.6,5.4-3.6,5.4-4,48.5c-0.4,48.4-0.4,48.7,7.9,52.7
	c4,2,8.2,2.3,30.7,2.4c28.5,0.1,27.5,0.3,41.9-8.7c5.9-3.7,5.3-3.7,52-2.5c23,0.6,44.1,0.4,57.3-0.5c22.1-1.4,23.6-1.9,36.5-9.9
	c5.4-3.3,5.4-3.3,60.6-3.1c63.2,0.3,70.3-0.3,79.5-6.6c3.4-2.3,7.4-4.7,9.1-5.3c1.7-0.6,24-0.9,49.7-0.7c50.3,0.4,65.6-0.6,72-4.8
	c13.4-8.8,8.3-8.1,62.6-8.2c52.8-0.1,52.6-0.1,62.4-7c2.7-1.9,6.2-3.9,7.9-4.5c1.7-0.6,14.8-0.9,29.1-0.7
	c26.9,0.3,36.4-0.7,43.1-4.6c2-1.2,6.7-3.9,10.2-6c18.5-10.7,19.8-17.2,7.6-38.4c-3.3-5.7-3.3-5.7-3-34c0.2-15.6-0.2-31.2-0.8-34.8
	c-0.6-4-3.1-10-6.4-15.7c-5.3-9.2-5.3-9.2-5-40.7c0.5-40.7-0.4-48.7-6.6-58.9c-4.7-7.8-4.7-7.8-5.3-42.4c-0.7-37.9-0.1-35-9-49.8
	c-3.3-5.6-3.6-7-4.3-22.5c-0.6-13.9-1.2-17.2-3.4-20.9c-1.4-2.4-16.6-18.7-33.7-36.4c-31.1-32.1-31.1-32.1-37.1-45.3
	c-6-13.2-6-13.2-67.6-76.9c-57-59-61.8-64.3-64.4-71.1c-1.6-4.1-4.3-9.6-6.1-12.4c-4.9-7.5-50.9-53.9-56-56.4
	C1488.5,4536.8,1478,4536.8,1472.5,4539.6 M2218.4,4719c-6.7,5.8-9,6.5-25.4,7.1c-15.9,0.6-15.9,0.6-22.4,5.3
	c-8.5,6.1-11.9,7.3-20.2,7.3c-7.3,0-11,1.5-19.8,8.2c-4.9,3.7-5.6,3.8-21.7,4.4c-16.6,0.6-16.6,0.6-23.1,5.2
	c-9.2,6.5-8.5,6.2-20.1,7.4c-7,0.7-11.6,1.9-13.6,3.5c-1.7,1.3-4.9,3.7-7.1,5.4c-3.7,2.8-5.5,3.1-20.8,3.7
	c-16.7,0.6-16.7,0.6-23.2,5.2c-9.3,6.5-8.7,6.3-20,7.4c-9.5,0.9-10.9,1.4-17.6,6.3s-8,5.4-18.3,6.4c-9.7,0.9-11.7,1.6-17.2,5.5
	c-8.9,6.4-11.6,7.1-26,7.1c-13.9,0-15.8,0.6-25.7,8.1c-4.2,3.1-6.5,3.8-15.9,4.6c-9.9,0.8-11.7,1.4-17.2,5.4
	c-9.1,6.5-11.6,7.1-27.3,7.1c-12.8,0-14.7,0.3-18.4,2.9c-6.7,4.7-11.3,13.8-11.4,22.2c0,6.2,0.6,8.3,5.4,16.5
	c5.5,9.4,5.5,9.4,6.1,44s0.6,34.6,4.1,40.9c7.9,14.2,7.4,10.6,8,54.1c0.6,40.1,0.6,40.3,3.6,45.7c9.2,16.4,8.5,12.6,8.5,48
	c0,34.9,0.1,35.6,7.6,47c1.7,2.6,3.5,7.5,3.9,10.7c1.5,12.6,2.1,14.4,5.1,17.4c4.4,4.2,13.6,4.2,20.4-0.1c13.1-8.2,10-7.6,36.4-7.2
	c33.1,0.6,42.3-0.8,53.2-7.6c8.5-5.3,8.5-5.3,39.5-5.5c33.4-0.1,34.4-0.3,45.2-7.3c7.3-4.7,12.4-5.4,29.3-4.3
	c14.9,1,42.6,0.1,52.7-1.6c4.1-0.7,9.8-3.2,15.1-6.5c8.5-5.3,8.5-5.3,34-4.9c32.4,0.5,39.8-0.6,50.3-7.7c7.8-5.3,7.8-5.3,32.1-4.9
	c13.4,0.2,28.5-0.2,33.6-0.8c9.3-1.1,11-1.8,22.2-8.4c6-3.6,6-3.6,43-3.7c39.8-0.2,40.3-0.3,51.1-7.2c8.3-5.3,12.4-5.9,34.8-4.6
	c21.4,1.3,57.3,0.5,70.5-1.6c5.5-0.8,9.7-2.5,13.9-5.3c8.6-5.8,12.9-7.1,24.7-7.1c13.1,0,18.1-2.2,20.6-9.3c2.2-6.1,0.7-12.7-5-22.2
	c-4-6.6-4-6.6-4.6-47.6c-0.7-45.2,0-41.3-9.1-56.3c-3.6-6.1-3.6-6.1-3.2-39.4c0.5-40.2-0.3-46.2-7.2-58.1c-5-8.5-5.1-9.1-5.6-22.2
	c-0.6-14-2.1-19.3-6.4-21.6c-1.7-1-37.5-1.4-117.9-1.6c-112.8-0.2-115.5-0.3-120.2-2.8c-6.3-3.3-8.8-8.1-10.4-20.2
	c-1-7.4-2.5-12.3-5.9-18.8c-2.5-4.8-5.8-12-7.3-16c-1.9-5-5.5-10.3-11.6-17.2c-4.9-5.5-9.8-11.9-10.9-14.2c-1.1-2.3-2.9-5.1-3.9-6.3
	C2229,4715.1,2222.5,4715.4,2218.4,4719"/>
<text transform="matrix(1 0 0 1 221.8546 367.0747)" class="st2 st3">Initao</text>
<circle class="st4" cx="5023.4" cy="696.7" r="129.8"/>
<circle class="st5" cx="5023.4" cy="1059.3" r="129.8"/>
<circle class="st6" cx="5023.4" cy="1421.9" r="129.8"/>
<text transform="matrix(1 0 0 1 5236.0859 721.6768)" class="st7 st2 st8">MULTI-PURPOSE BUILDINGS</text>
<text transform="matrix(1 0 0 1 5244.2051 1101.9258)" class="st9 st2 st8">ROADS</text>
<text transform="matrix(1 0 0 1 5255.2642 1464.531)" class="st10 st2 st8">BRIDGES</text>
<text transform="matrix(1 0 0 1 4893.6357 409.0728)" class="st11 st2 st12">PROJECT EXISTENCE INDICATOR</text>
</svg>
