<?xml version="1.0" encoding="utf-8"?>
<svg version="1.1" id="Layer_1" xmlns="http://www.w3.org/2000/svg" xmlns:xlink="http://www.w3.org/1999/xlink" x="0px" y="0px"
	 viewBox="0 0 8192 5525.2" style="enable-background:new 0 0 8192 5525.2;" xml:space="preserve">
<style type="text/css">
	.st0{fill-rule:evenodd;clip-rule:evenodd;fill:#9C14E4;}
	.st1{font-family:'ArialMT';}
	.st2{font-size:191.7132px;}
	.st3{fill:#8703EF;}
	.st4{fill:#4472C4;stroke:#FFFFFF;stroke-width:0.9586;stroke-miterlimit:9.5857;}
	.st5{fill:#FF000D;stroke:#FFFFFF;stroke-width:0.9586;stroke-miterlimit:9.5857;}
	.st6{fill:#70AD47;stroke:#FFFFFF;stroke-width:0.9586;stroke-miterlimit:9.5857;}
	.st7{fill:#EA781B;stroke:#FFFFFF;stroke-width:0.9586;stroke-miterlimit:9.5857;}
	.st8{fill:#7030A0;stroke:#FFFFFF;stroke-width:0.9586;stroke-miterlimit:9.5857;}
	.st9{fill:#FFFF1A;stroke:#FFFFFF;stroke-width:0.9586;stroke-miterlimit:9.5857;}
	.st10{stroke:#FFFFFF;stroke-width:0.9586;stroke-miterlimit:9.5857;}
	.st11{fill:#843C0C;stroke:#FFFFFF;stroke-width:0.9586;stroke-miterlimit:9.5857;}
	.st12{fill:#FF73D8;stroke:#FFFFFF;stroke-width:0.9586;stroke-miterlimit:9.5857;}
	.st13{fill:#B1FFF7;stroke:#0031FF;stroke-width:0.9586;stroke-miterlimit:9.5857;}
	.st14{fill:#FFB1BC;stroke:#FFFFFF;stroke-width:0.9586;stroke-miterlimit:9.5857;}
	.st15{fill:#F6DB76;stroke:#FFFFFF;stroke-width:0.9586;stroke-miterlimit:9.5857;}
	.st16{fill:#A5A5A5;stroke:#FFFFFF;stroke-width:0.9586;stroke-miterlimit:9.5857;}
	.st17{fill:#0B0BF9;stroke:#FFFFFF;stroke-width:0.9586;stroke-miterlimit:9.5857;}
	.st18{fill:#E9816F;stroke:#FFFFFF;stroke-width:0.9586;stroke-miterlimit:9.5857;}
	.st19{fill:#4472C4;}
	.st20{font-size:143.7849px;}
	.st21{fill:#FF0000;}
	.st22{fill:#70AD47;}
	.st23{fill:#F9920B;}
	.st24{fill:#7030A0;}
	.st25{fill:#FFFF03;}
	.st26{fill:none;stroke:#0000FF;stroke-width:0.4793;stroke-miterlimit:9.5857;}
	.st27{fill:#843C0C;}
	.st28{fill:#FF73D8;}
	.st29{fill:#B1FFF7;}
	.st30{fill:#FFB1BC;}
	.st31{fill:#F6DB76;}
	.st32{fill:#A5A5A5;}
	.st33{fill:#410EFD;}
	.st34{fill:#E9816F;}
	.st35{font-size:120.8001px;}
	.st36{fill:none;stroke:#000000;stroke-width:19.4839;stroke-miterlimit:9.7419;}
	.st37{enable-background:new    ;}
	.st38{letter-spacing:-10;}
</style>
<g id="Initao">
	<g id="Layer_18">
		<path class="st0" d="M4012.7,590.1c-1.4,1.1-3.7,4.2-5.1,7c-1.3,2.8-3.8,7.2-5.6,9.9c-1.7,2.7-4.3,8-5.8,11.8
			c-1.4,3.8-4.2,9.4-6.1,12.4c-2.8,4.4-3.7,7.5-4.6,15.9c-0.6,5.8-1.8,11.8-2.7,13.5c-0.9,1.7-7.2,9-14.2,16.2
			c-12.4,12.8-13.8,13.9-29.1,20.6c-7.3,3.2-21.5,19.1-23.4,26c-1.1,3.8-1.3,15-1.1,39.8c0.4,34.4,0.4,34.4,4.1,40.5
			c5.8,9.5,5.9,12.2,0.7,21.8c-4.5,8.2-4.5,8.2-5.1,35.5c-0.6,27.2-0.6,27.2-5.6,34.9c-2.7,4.2-5,8.5-5,9.6c0,1.1-0.5,5.8-1.1,10.6
			c-0.8,7.1-1.7,10-5.2,15c-2.3,3.5-4.7,8.2-5.4,10.5c-0.8,2.7-0.9,25.6-0.4,64.5c0.4,33.2,0.4,63.4-0.1,67.2
			c-0.6,5-2.1,8.9-5.5,14.3c-2.6,4.1-5.7,10.3-6.9,13.7c-1.2,3.5-3.7,8.7-5.6,11.7c-1.8,3-4.5,8.6-5.9,12.6
			c-1.9,5.3-4.6,9.4-10.4,15.6c-4.3,4.6-8.5,9.7-9.3,11.3c-0.8,1.5-2.1,8-3,14.2c-1.3,9.7-2.1,12.4-5.8,17.6
			c-5.8,8.8-5.6,15,0.9,22.3c3.9,4.4,8,6.1,18.1,7.3c8,1,10.6,1.8,17.4,6c6.7,4.2,9.4,5.2,17.5,6.1c7.4,0.9,11,2,16.1,5.1
			c3.6,2.2,9.3,5.2,12.7,6.5c3.4,1.4,8.2,4.2,11,6.1c6.6,4.6,8,5.1,18.9,6.4c7.3,0.9,10.5,1.9,15.7,5.2c7.7,4.9,8.5,5.2,19.7,6.8
			c7,1.1,10.1,2.2,15.8,6.1c6,4.1,8.5,5,16.3,5.9c10.4,1.2,13.6,2.3,20,6.7c3.2,2.2,7.8,3.6,15.3,4.9c8.6,1.4,12.3,2.7,18.3,6.5
			c4.1,2.6,9.4,5.4,11.8,6.1c2.3,0.8,7.1,3.2,10.6,5.4c7.8,4.8,8.8,5.1,19.6,6.5c6.7,0.9,10.1,2.1,16.3,6c6.7,4.2,9.4,5.2,17.6,6.1
			c8,1,10.9,1.9,16.4,5.5c5.4,3.5,8.9,4.6,17.3,5.9c8.6,1.3,11.9,2.5,18.3,6.5c6.6,4.1,9.3,5.1,17.4,6c8,1,10.8,1.9,16.3,5.4
			c3.6,2.3,9.4,5.4,12.7,6.7c3.4,1.3,8.8,4.4,12.3,6.7c5.1,3.5,7.8,4.5,15.4,5.4c10.4,1.2,13.6,2.3,20,6.7c3.3,2.2,7.6,3.6,15.2,4.8
			c6.3,1,12.2,2.7,14.4,4.1c9.2,6,13,7.6,22,8.6c7.6,0.9,10.7,1.9,15.9,5.2c7.8,4.9,8.8,5.3,19.7,6.7c6.7,0.9,10.1,2.1,16.2,5.9
			c4.3,2.7,10.2,5.8,12.9,6.8c2.9,1.1,7.7,3.5,10.7,5.6c4.2,2.8,7.7,3.9,14.6,4.8c11.3,1.4,13.8,2.3,21,7.5c7.1,5.1,14.6,6.5,20.3,4
			c5.5-2.4,7.1-7.8,6.3-20.8c-0.5-8-1.2-11.2-3.8-15.8c-6.7-12.1-6.8-12.6-7.5-28.2c-0.7-15.1-0.7-15.1-5.8-23.3
			c-5.1-8.1-5.1-8.1-5.9-23.6c-0.9-15.2-0.9-15.6-5.8-24.7c-4.8-9.1-4.9-9.4-5.8-24.6c-0.8-15.4-0.8-15.4-6-23.7
			c-5.2-8.2-5.2-8.2-5.2-19.3c0-10.6,0.2-11.3,4.3-18.3c2.4-4,5.8-10.8,7.8-15.2c2.2-5.2,6.2-11,11.4-16.8
			c6.1-6.8,8.7-10.9,11.3-17.7c2.4-6.3,5.2-10.9,10-16.2c8.2-9.3,10.6-12.9,13.9-21.5c1.7-4.5,5.5-10.2,11.1-16.6
			c6.5-7.5,9.3-11.8,11.6-18c2.3-6.2,5.1-10.5,11.5-17.9c6.3-7.3,9.2-11.8,11.6-18.1c2.4-6.3,5.3-10.8,11.6-18.1
			c6.4-7.4,9.2-11.8,11.7-18.4c2.3-6.2,5.2-10.8,9.9-16.1c8.2-9.3,10.6-12.9,13.9-21.5c1.7-4.5,5.5-10.2,11.1-16.6
			c6.5-7.6,9.3-11.8,11.6-18.2c2.4-6.5,5-10.5,11.4-17.8c6.4-7.2,9.1-11.4,11.6-18c2.4-6.4,5.2-10.7,10.7-17
			c10.8-12.1,14.1-21.1,10.9-29.7c-1.4-3.8-7.4-6.6-14.3-6.6c-3.4,0-7.2-1.2-11.4-3.5c-3.5-1.9-9.2-5-12.7-6.7
			c-3.5-1.7-8.4-4.3-11-5.7c-2.6-1.4-6.5-3.5-8.7-4.8c-2.2-1.2-8.4-2.7-13.8-3.4c-8.3-1-10.5-1.7-15.9-5.6c-3.4-2.4-9-5.6-12.4-6.9
			s-9.1-4.3-12.6-6.5c-5.2-3.3-8.2-4.3-16-5.2c-8.1-1-10.8-1.8-17.4-6c-4.3-2.7-10.2-5.8-13-6.8c-2.9-1.1-7.6-3.5-10.5-5.5
			c-3-1.9-7.7-4.4-10.5-5.5c-2.9-1.1-8.1-3.7-11.6-5.9c-7.8-4.9-8.7-5.2-20.3-6.7c-7.5-1-10.4-2-15-5.4c-3.2-2.3-8.6-5.3-12.2-6.7
			c-3.5-1.4-9.2-4.4-12.7-6.7c-5.4-3.4-8.2-4.3-16.8-5.3c-8.7-1.1-11.3-1.8-16.3-5.3c-3.3-2.2-8.2-5-11.1-6.1
			c-2.9-1.2-8.1-3.9-11.7-6.1s-9.3-5.3-12.7-6.6c-3.5-1.4-9.2-4.4-12.7-6.7c-5.2-3.4-8.2-4.3-16-5.2c-8.1-1-10.8-1.8-17.4-6
			c-4.3-2.7-10.2-5.8-12.9-6.8c-2.8-1.1-7.8-3.5-11-5.7c-3.3-2-8-4.5-10.5-5.5s-8.1-3.8-12.3-6.5c-6.6-4.1-9-4.9-17.7-5.8
			c-8.9-1-10.9-1.6-17.4-5.9c-4-2.7-9.2-5.5-11.5-6.2s-6.7-3.1-9.9-5.2c-3.2-2.1-8.7-5-12.5-6.5s-9.3-4.4-12.5-6.4
			c-6.5-4.1-7.8-4.6-19.6-6c-7-0.9-9.7-1.9-14.8-5.5c-3.4-2.4-8.9-5.5-12.4-6.8c-3.4-1.3-9.1-4.3-12.6-6.5c-4.9-3.2-8.1-4.3-14-4.8
			c-10.1-1-14.6-2.5-21.2-7.2c-3.1-2.2-7.5-4.6-9.9-5.4s-7.8-3.5-11.9-5.9c-4.1-2.5-9.4-5.2-11.7-5.9c-2.3-0.8-6.6-3-9.6-5
			C4018.9,588.4,4015.9,587.7,4012.7,590.1"/>
	</g>
	<g id="Layer_17">
		<path class="st0" d="M4685.9,880.2c-1.7,1.3-4.2,4.8-5.6,7.6c-1.3,2.8-6,8.9-10.4,13.8c-6.1,6.8-8.6,10.6-11,17.4
			c-2.5,6.9-4.9,10.5-11.6,17.9c-6.8,7.5-8.9,10.9-11.1,17.4c-2.2,6.6-4.4,10.1-11.6,18.1c-7.1,8-9.5,11.7-12.1,18.7
			c-2.6,6.9-4.9,10.6-11.6,18c-6.8,7.5-8.9,10.9-11.1,17.4c-2.2,6.6-4.4,10.1-11.6,18.1c-7.1,8-9.5,11.7-12.1,18.7
			c-2.6,6.9-4.9,10.6-11.6,18c-6.8,7.5-8.9,10.9-11.1,17.4c-2.2,6.6-4.4,10.1-11.6,18.1c-7.1,8-9.5,11.7-12.1,18.7
			c-2.6,6.9-4.9,10.6-11.6,18s-9,11.1-11.6,18.1s-4.9,10.6-11.7,18.1c-6.1,6.8-9.1,11.2-10.9,16.4c-1.3,3.8-4.5,10.5-7,14.9
			c-2.5,4.3-4.9,9.3-5.3,11.2c-1.4,6,0.6,13.6,5.7,21.5c4.9,7.6,4.9,7.6,5.5,23.4c0.6,13.6,1,16.4,3.2,20
			c7.3,11.8,8.3,15.6,8.3,28.5c0,13.8,0.7,16.4,6.7,25.5c4.3,6.4,4.3,6.4,4.9,22.4c0.7,15.9,0.7,15.9,5.8,24.8
			c5.2,8.9,5.2,8.9,5.8,24.6c0.5,13.4,1,16.3,3.2,19.9c1.4,2.3,4.5,7.9,6.8,12.4c3.9,7.6,5,8.5,13.1,13.1c4.9,2.8,12,6.5,15.8,8.4
			c3.8,1.9,8.8,4.6,11,5.8c2.2,1.3,7.5,4,11.6,6c4.1,2,9.7,4.8,12.2,6.2c2.6,1.4,7.8,4.1,11.6,6c3.8,1.9,8.8,4.5,11,5.8
			c2.2,1.3,7.5,4,11.6,6c4.1,2,9.7,4.8,12.2,6.2c2.6,1.4,7.3,3.8,10.4,5.5s8.3,4.2,11.3,5.8c3.1,1.6,8.1,4.3,11,5.8
			c5.8,3.1,13.7,7.2,25.3,12.9c3.8,1.9,8.8,4.6,11,5.9c2.2,1.3,7.5,4,11.6,6c4.1,2,9.7,4.8,12.2,6.2c2.6,1.4,7.3,3.8,10.4,5.5
			s8.3,4.2,11.3,5.8c3.1,1.6,8,4.3,11,5.8c5.8,3.1,13.7,7.2,25.3,12.9c3.8,1.9,8.8,4.6,11,5.9c2.2,1.3,7.5,4,11.6,6
			c4.1,2,9.7,4.8,12.2,6.1s7.3,3.8,10.4,5.4c3.2,1.5,8.3,4.2,11.3,5.8c13.2,7.2,20,10.7,36.3,18.9c3.8,1.9,8.8,4.6,11,5.9
			c2.2,1.3,7.5,4,11.6,6c4.1,2,9.7,4.8,12.2,6.2c2.6,1.4,7.8,4.1,11.6,6c3.8,1.9,9.3,4.8,12.2,6.5c2.9,1.6,8.1,4.4,11.6,6
			c3.5,1.6,8.5,4.1,11,5.6c2.6,1.4,7.8,4.1,11.6,6c3.8,1.9,8.8,4.5,11,5.8c2.2,1.3,7.5,4,11.6,6c4.1,2,9.9,5,12.7,6.6
			c2.9,1.6,7.6,4.1,10.4,5.4c2.9,1.3,7.7,3.7,10.7,5.4c9.4,5.1,16.3,8.7,22.9,12.2c19.7,10,25.4,13.1,29.6,16.3
			c6.8,5.1,14.2,6,44.2,5.8c29-0.3,26.2-1.2,65.6,20.2c6.3,3.5,6.3,3.5,47.6,3.6c22.7,0.1,42.4,0.6,43.6,1.2s5.5,2.9,9.2,5.3
			c6,3.8,7.8,4.3,14.1,4.2c6.4-0.1,8.1-0.7,15.7-5.5c8.4-5.3,8.6-5.4,19.1-5.4c10.3,0,10.7,0.1,18.6,5c4.5,2.7,10.7,5.9,13.9,7.2
			c5.1,1.9,10.9,7.6,46.5,44.6c24.7,25.8,42.2,42.9,44.5,44c4.5,1.9,8.1,1.1,21.6-5.4c5.8-2.8,11.4-6.6,16.5-11.5
			c5.3-5.1,10.6-8.8,17.4-12c6.8-3.3,12.1-6.9,17.4-12.1c5.3-5.1,10.6-8.8,17.2-12c6.7-3.2,12.2-7,18.4-12.9
			c5.6-5.2,10.7-9,13.9-10.1c2.8-1,8.2-3.7,12.2-6.2c3.9-2.5,10.7-5.9,15-7.8c5.6-2.3,10.2-5.5,15.9-11c5.8-5.6,11.2-9.3,18.8-12.9
			c7.8-3.8,12.3-6.9,16.5-11.5c3.2-3.5,9.4-8.4,13.8-11.1c4.7-2.9,8.7-6.3,9.9-8.4c1.1-2,3.8-7,6.2-11.2s5.5-10.5,6.8-14.1
			c1.3-3.5,3.9-8.9,5.8-11.9c4.9-8,5.2-10.6,1.8-16.9c-9.3-17.4-9.4-20.2-1.8-31.9c2.5-3.8,5.1-8.9,5.8-11.4
			c1.6-6,1.5-40.1-0.2-46.8c-1.1-4.2-3.4-7.8-10-15c-6.4-7.1-9.9-12.4-13.8-20.7c-2.9-6.1-6.3-13-7.8-15.3
			c-2.2-3.5-2.7-6.5-3.4-19.5c-0.7-13.7-1.1-15.8-3.9-21.1c-5.9-10.7-6.3-12-7.4-22c-1-8.6-1.7-10.9-5.9-17.6
			c-6-9.7-6.6-15.7-2-23.7c1.7-2.9,5.1-9.8,7.7-15.1c3.1-6.7,7.2-12.7,12.6-18.8c6.1-6.8,8.7-10.9,11.2-17.6
			c2.5-6.5,5.2-10.8,10.8-17.3c8.5-9.6,11.9-16.3,12-23.4c0-6.3-2.5-9.9-9-12.7c-2.9-1.2-8.1-4.2-11.8-6.5c-3.5-2.3-8.8-5-11.5-5.9
			c-2.8-1-8.1-3.7-11.8-6.1c-5.8-3.7-8.1-4.5-16.8-5.3c-8.8-0.9-10.8-1.4-16.4-5.4c-3.5-2.4-9.1-5.6-12.5-6.9
			c-3.4-1.3-9-4.3-12.6-6.7c-5.4-3.5-8.2-4.4-16-5.2c-8.1-0.9-10.5-1.7-17.4-5.9c-4.3-2.7-10.2-5.8-12.8-6.8c-2.8-1.1-8-3.7-11.6-6
			c-3.6-2.3-8.8-5-11.6-6c-2.8-1-8-3.7-11.6-6c-5.4-3.5-8.3-4.4-16.2-5.4c-8.1-1-10.8-1.8-17.4-6c-4.3-2.7-10.2-5.8-13-6.8
			c-2.9-1.1-7.6-3.5-10.5-5.5c-3-1.9-7.7-4.4-10.5-5.5c-2.9-1.1-8.6-4-12.7-6.6c-6.3-3.9-9.1-4.9-16.9-5.8
			c-9.1-1.1-14.6-3.2-20.1-7.6c-1.5-1.2-5.7-3.4-9.2-4.7c-3.5-1.4-9.4-4.4-12.9-6.6c-3.5-2.3-8.8-5-11.6-6
			c-2.9-1.1-7.6-3.5-10.4-5.4c-2.9-1.9-8.1-4.7-11.6-6c-3.5-1.4-9.3-4.5-12.8-6.8c-5.5-3.5-8.1-4.4-16.8-5.3c-8.9-1-11-1.6-16.6-5.5
			c-3.5-2.4-8.5-5.2-11.1-6.1c-2.7-1-8.2-3.9-12.4-6.5s-9.8-5.6-12.6-6.5c-2.8-1.1-8-3.7-11.6-6c-5.3-3.4-8.5-4.4-16.2-5.4
			c-8.1-1-10.8-1.9-17.4-6c-4.3-2.7-10.1-5.8-12.8-6.7c-2.8-1.1-8-3.7-11.6-6s-8.8-5-11.6-6c-2.8-1-8-3.7-11.6-6
			c-3.6-2.3-8.8-5-11.6-6c-2.8-1-8-3.7-11.6-6c-5.6-3.5-8.3-4.4-17.1-5.5c-9-1.1-11.2-1.8-16.4-5.5c-3.3-2.3-9.2-5.6-13.1-7.2
			c-3.9-1.6-8.7-4-10.6-5.5c-1.9-1.4-6.8-3.9-10.7-5.7c-4-1.6-10.2-4.9-13.8-7.2c-5.3-3.4-8.2-4.3-15.7-5.1
			c-8.9-1-13.9-2.8-20.4-7.6c-1.7-1.2-5.4-3.1-8.1-4.1c-2.8-1.1-8.4-4-12.7-6.6c-6.6-4.1-9-4.9-17.7-5.8c-8.8-1-10.9-1.6-16.6-5.6
			c-3.5-2.5-8.6-5.3-11.3-6.2c-2.7-1-8.2-3.9-12.4-6.5s-9.8-5.6-12.6-6.5c-2.8-1.1-8.2-3.8-12.1-6.4c-7.1-4.5-7.2-4.5-22.4-5.2
			c-15.3-0.6-15.3-0.6-21.6-5.1c-3.5-2.5-8.6-5.4-11.5-6.3c-2.9-1.1-8.1-3.7-11.6-6c-3.5-2.3-9.3-5.3-12.7-6.7
			c-3.5-1.4-8.7-4.2-11.7-6.1c-3-1.9-8.5-4.9-12.5-6.4c-3.9-1.6-8.7-4-10.6-5.5s-6.7-3.9-10.6-5.5c-3.9-1.6-9.5-4.5-12.5-6.4
			s-8.2-4.7-11.8-6.1c-3.5-1.4-8.7-4.1-11.6-6c-2.9-1.9-8.1-4.6-11.6-6c-3.5-1.4-9.2-4.4-12.7-6.7c-3.5-2.3-8.7-5-11.6-5.9
			c-2.9-1.1-7.6-3.5-10.4-5.4c-2.9-1.9-8-4.6-11.2-5.9c-3.3-1.3-8.4-4.1-11.6-6.1C4692,877,4690.2,876.8,4685.9,880.2"/>
	</g>
	<g id="Layer_16">
		<path class="st0" d="M3821.3,1228.4c-6.2,4-39.8,39.2-42.2,44.3c-1.3,2.8-2.9,9.4-3.5,15.4c-1,9-1.7,11.5-5.2,16.8
			c-2.2,3.5-4.5,7-5.1,8.1c-0.6,1-1.3,11.3-1.6,22.9c-0.8,25.5-1.3,27.2-11.6,32.6c-3.8,2-7.7,4.9-8.6,6.3c-1,1.5-2.2,6.7-2.9,11.6
			c-0.9,6.8-2.1,10.4-5.1,15c-2.2,3.5-5.1,9.4-6.5,13.2c-1.4,3.8-3.8,8.8-5.4,10.9c-6.1,8.2-6.4,10.4-6.4,43.8
			c0,33.9,0.5,31.2-7.6,44.6c-3.5,5.8-3.5,5.8-3.5,26.4c0,15.1-0.4,21.3-1.6,23.5c-0.9,1.6-5.6,7.4-10.4,12.7
			c-6,6.6-9.3,11.2-10.3,14.6c-1,3.4-1.4,14.9-1.4,35.6c0,33.5,0.5,30.8-7.6,44.1c-3.5,5.8-3.5,5.8-3.5,37.3c0,31.4,0,31.4,4.2,38.6
			c2.3,3.9,5.7,10.4,7.3,14.4c1.7,3.9,4.8,10,6.8,13.2c3.7,6,3.7,6,4,113.4c0.3,119.1,1.1,106.9-7.3,120.9
			c-3.5,5.8-3.5,5.8-3.5,31.2c0,25.4,0,25.4,4.2,32.1c6.1,9.6,7,13.8,6.6,31.2c-0.4,15-0.5,15.3-4.2,20.7c-7.7,11-7.2,4.6-7.2,109
			c0,106.4-0.9,94.1,8.1,110.2c2.9,5.2,2.9,5.2,3.3,43.1c0.2,20.9,0.1,39.7-0.3,41.8c-0.4,2.1-2.9,7.3-5.6,11.4
			c-4.9,7.6-4.9,7.6-5.3,32.1c-0.4,22.4-0.2,24.8,1.9,28.9c10.2,19.8,9.5,17.6,9.5,31.5c0,11.6,0.3,13.5,3.1,18.8
			c6.3,12.4,9.2,18.1,11.1,22.8c1.1,2.7,5.6,9,10,14.1c5.4,6.2,8.8,11.6,10.5,16.2c4,11,7.4,14.6,18.6,19.9
			c7.3,3.5,12,6.8,17.5,12.3c12.3,12.3,11.8,12.2,40.2,12.2c24.4,0,24.4,0,31.3-4.4c3.8-2.4,10.4-5.8,14.8-7.7
			c5.8-2.4,10.3-5.6,17.2-12.1c5.8-5.6,11.2-9.6,14.8-10.9c7.4-2.8,27.5-14.6,30.2-17.6c1.6-1.9,2.2-5.2,2.8-15.9
			c0.7-14.1,1-15.2,8.7-29c3.4-6,3.4-6,3.9-33.3s0.6-27.2,5.1-34.2c3.4-5.3,4.8-9,5.7-15c1.6-11.4,4-17.6,7.7-20.1
			c2.5-1.7,6.9-2.3,22.9-3.1c21.3-1.1,19.1-0.4,36-9.9c4.5-2.5,6.4-2.6,53.5-3.2c48.9-0.6,48.9-0.6,57.5-6c8.6-5.5,8.6-5.5,51.7-5.1
			c46.9,0.4,53.8-0.2,61.8-5.5c10.5-6.8,12.7-7.6,23.5-8.3c11.7-0.9,14.1-2.1,14-7.5c0-3.9-4.4-13.9-9.3-21.3c-2-3-4.3-7.7-5.3-10.4
			c-1-2.8-3.8-9-6.4-13.9c-3.9-7.4-4.9-10.5-5.7-18.6c-0.8-8-1.7-10.9-5-16.6c-2.2-3.8-7.6-14.5-11.8-23.8
			c-4.3-9.3-8.8-18.8-10.1-21.1c-1.2-2.3-3.9-7.8-5.8-12.1c-1.9-4.3-4.6-10.1-5.8-12.8c-1.4-3.2-11.6-14.5-26.9-30.3
			c-23.3-24-25-25.4-32.7-28.5c-4.5-1.8-8.9-3.7-9.9-4.4c-1-0.7-33.9-34.5-73.2-75.2c-71.5-74-71.5-74-80.8-77.8
			c-9.4-3.8-9.4-3.8-46.2-41.8c-33.7-34.9-36.8-38.3-36.8-42.1c0-4,8.6-23.4,15.2-34.3c1.8-3,3.8-7.3,4.6-9.7
			c0.8-2.4,3.3-7.9,5.8-12.2c2.4-4.3,5.4-10.4,6.4-13.6c1.3-3.6,5.2-9.4,10.5-15.5c5.8-6.8,9.4-12.2,11.7-17.7
			c1.8-4.4,4.9-10.7,6.8-14c2-3.4,4.9-9.3,6.4-13.2c1.8-4.9,5.1-9.9,9.9-15.1c5.8-6.5,8.7-11.2,16-27.1
			c4.9-10.6,10.3-21.7,11.8-24.7c1.5-3.1,5-9.9,7.5-15.2c3.2-6.8,7-12.7,12.7-19c5.8-6.5,8.8-11.1,10.6-16.1
			c1.3-3.8,4.3-10.5,6.5-14.8c2.2-4.3,5.3-10.9,6.9-14.7c4-9.3,15.1-20,24.4-23.7c3.8-1.5,8.8-4,11.2-5.7c2.4-1.6,7.1-4.1,10.4-5.5
			c3.4-1.3,9.5-4.6,13.6-7.2c4.1-2.6,9.8-5.6,12.6-6.5c2.8-1.1,8-3.7,11.6-6c5.3-3.4,8.5-4.4,16.4-5.5c8.1-1.1,11-2,17.4-6
			c4.2-2.6,9.5-5.5,11.7-6.2c2.2-0.8,7.5-3.5,11.7-6.1c6.3-3.8,9.4-4.9,17.4-5.8c8.1-1,10.8-1.9,17.4-5.9c4.2-2.7,10-5.7,12.8-6.7
			c2.9-1.1,7.6-3.5,10.5-5.5c3-1.9,7.7-4.4,10.5-5.5c2.9-1.1,8.6-4,12.8-6.7c6.4-4,9.2-5,17.4-5.9c7.9-1,10.9-1.9,16.1-5.3
			c3.5-2.3,9.7-5.5,13.7-7.2c4-1.6,8.9-4.2,10.8-5.8c2-1.4,6.8-4.1,10.7-5.8c3.9-1.7,10.2-5,13.8-7.1c5.2-3.1,8.7-4.2,16.2-5.1
			c7.8-1,10.8-1.9,16.1-5.3c3.5-2.3,9.3-5.4,12.8-6.7c3.5-1.4,9.3-4.5,12.9-6.8c5.1-3.3,8.6-4.5,15.1-5.4
			c10.7-1.4,12.2-1.9,18.3-6.2c2.8-2,8.1-4.9,12.1-6.4c3.8-1.5,7.8-3.5,8.6-4.2c3-2.5,1.8-6.7-2.8-10.6c-6.9-5.9-13.3-8.5-23.5-9.6
			c-8-0.9-10.4-1.7-17.2-5.9c-4.3-2.7-10.2-5.8-12.8-6.8c-2.8-1.1-6.4-2.9-8.1-4.1c-6.5-4.8-11.5-6.6-20.3-7.6
			c-7.8-0.8-10.4-1.7-17.1-5.9c-6.8-4.2-9.3-5.1-17.3-5.9c-8.1-0.9-10.5-1.7-17.4-6c-6.9-4.3-9.4-5.2-17.4-6
			c-8.1-0.9-10.5-1.7-17.5-6.1c-7.1-4.4-9.5-5.3-17.5-6.1c-6.3-0.7-10.7-1.8-13.6-3.7c-2.4-1.5-11.3-6.4-19.9-11
			c-13.8-7.3-16.8-8.4-24.6-9.3c-7.7-0.8-10.3-1.7-17.2-6.1c-7.1-4.4-9.5-5.3-17.5-6.1c-8.1-0.9-10.5-1.7-17.4-6
			c-6.9-4.3-9.4-5.2-17.4-6c-8.1-0.9-10.5-1.7-17.4-6c-6.9-4.3-9.4-5.2-17.4-6c-8-0.9-10.5-1.7-17.2-5.8c-4.2-2.7-10-5.7-12.7-6.7
			c-2.8-1.1-8.1-3.7-11.8-6.1c-5.6-3.5-8.3-4.5-16.2-5.3c-8.1-0.9-10.5-1.7-17.6-6.1c-7.1-4.4-9.5-5.3-17.5-6.1
			c-8.1-0.9-10.5-1.7-17.4-6c-6.9-4.3-9.4-5.2-17.4-6c-8.1-0.9-10.5-1.7-17.3-5.9c-6.8-4.2-9.3-5.1-17.3-5.9
			c-8-0.9-10.5-1.7-17.3-5.8c-4.3-2.7-10.3-5.8-13.1-7c-2.9-1.2-6.5-3-8.1-4.1c-6.3-4.5-10.9-6.1-19.9-7.2c-8-1-10.6-1.9-17.4-6.1
			c-6.9-4.3-9.3-5.2-17.4-6c-8-0.9-10.5-1.7-17.2-5.8C3829.6,1225.6,3826.4,1225.1,3821.3,1228.4"/>
	</g>
	<g id="Layer_15">
		<path class="st0" d="M5732,1349.3c-1.2,0.7-3.5,4-5.1,7.5c-1.6,3.5-6.5,10.2-10.8,14.9c-6.2,6.9-8.3,10.2-10.6,16.8
			c-2.3,6.7-4.4,10.1-11.7,18.2c-6.9,7.8-9.6,11.9-11.9,18.2c-1.6,4.5-4.6,10.5-6.5,13.5c-4.8,7.4-4.7,12.7,0.7,21
			c3.5,5.5,4.3,8,5.3,17.2c0.8,6.9,2,12.1,3.5,14.4c6.9,11.1,8.1,15.1,8.1,28.5c0,13.5-0.4,12.2,8,28.3c1.3,2.7,3.8,7.9,5.4,11.6
			c1.6,3.8,6.4,10.7,11,15.9c4.9,5.6,8.6,11,9.4,13.8c0.9,3,1.2,14.1,1,31.8c-0.4,27.2-0.4,27.2-4.7,33.7c-5.3,8-5.7,13.2-1.4,19.7
			c8.1,12.6,8.5,17.7,1.6,28.4c-2.6,4.1-5.8,10.3-7.1,13.7s-3.7,8.7-5.6,11.7c-1.8,3-4.5,8.7-5.9,12.7c-1.8,5.1-4.6,9.4-9.4,14.6
			c-6.8,7.4-8.8,8.7-21,14.2c-4.2,1.9-9.8,6-15.1,11.3c-5.2,5.1-10.3,8.9-13.1,9.9c-8.5,2.9-13.8,6.3-21.6,14.1
			c-5.5,5.5-9.7,8.5-14.8,10.5c-3.9,1.6-10.2,4.8-13.8,7.2c-3.7,2.4-9.8,5.5-13.5,6.9c-5,1.9-9.2,4.9-15.8,11.3
			c-5.5,5.4-10.8,9.4-13.6,10.3c-8.4,2.8-13.6,6.2-21.9,14.4c-6.5,6.4-10.1,8.8-16.9,11.5c-6.8,2.7-10.4,5.1-16.9,11.5
			c-6.2,6.1-11.2,9.6-20.6,14.3c-7.1,3.6-13.9,6.2-16.1,6.2c-3.4,0-6.2-2.6-27.8-25.6c-26.6-28.3-54.8-57.2-59.9-61.3
			c-1.8-1.4-7-4.2-11.6-6.1c-4.6-1.9-10.9-5.3-14.1-7.4c-5.1-3.5-6.7-3.8-14.1-3.8c-8,0-8.6,0.2-15.7,5.5c-7.5,5.5-7.5,5.5-18.5,5.5
			s-11.1,0-19.7-5.5c-8.6-5.5-8.6-5.5-46.5-5.7c-20.8-0.1-40.2-0.2-43.1-0.3c-3.9-0.1-7.1-1.2-12.2-4.5c-3.8-2.4-10.1-5.8-13.9-7.6
			c-3.8-1.7-9.9-5.1-13.3-7.4c-6.3-4.2-6.3-4.2-28.9-4.6c-15.7-0.3-23.6,0.1-26,1.1c-6.4,2.8-6.7,5-6.7,42c0,20.9,0.5,35.1,1.2,37.1
			c0.7,1.8,3.2,6.3,5.6,9.9c4.3,6.5,4.3,6.5,4.9,106.1c0.5,88.7,0.8,100.1,2.5,103.2c1.1,2,3.4,6.3,5.3,9.7c3.4,6,3.4,6,3.9,99.5
			c0.3,51.4,1.1,94.2,1.6,95.3c0.6,1,2.9,4.7,5.3,8.2c4.2,6.5,4.2,6.5,4.8,106.8s0.6,100.4,3.6,105.1c7.8,12.2,7.4,9.7,8.1,51.5
			c0.6,38.2,0.6,38.2,3.8,41.6c3.3,3.4,3.3,3.4,48.8,3.6c45.6,0.4,45.6,0.4,51.4-2.9c15.9-8.8,2.6-8,117.1-7.8
			c68.3,0.1,104.6-0.3,108.2-1.2c3-0.7,8.1-3.1,11.5-5.3c3.3-2.2,7-4.3,8.2-4.8c1.2-0.5,49.8-0.9,108-0.9
			c58.7,0,109.2-0.5,113.2-1.1c5.4-0.8,9.6-2.5,15.5-6.2c8.1-5.1,8.1-5.1,109.5-4.9c63.7,0.2,103.8-0.2,108.1-1
			c4.5-0.8,9.7-3,15-6.3c8.2-5.2,8.2-5.2,100-5.4c50.4-0.1,93.8-0.6,96.5-1c2.6-0.4,8.3-3,12.6-5.7c7.9-4.9,7.9-4.9,79-5.1
			c79.8-0.2,70.8,0.7,87.4-8.9c5.8-3.4,5.8-3.4,83.7-3.9c77.9-0.6,77.9-0.6,86.4-5.9c8.5-5.4,8.5-5.4,80.1-5.5
			c71.7-0.1,71.7-0.1,77.5-3.6c15.6-9.4,6-8.4,93.1-9.1c77.9-0.6,77.9-0.6,85.2-5.3c4-2.6,9.2-4.9,11.5-5.2
			c2.4-0.3,35.1-0.7,72.9-0.8c68.5-0.2,68.5-0.2,74.4-3.7c14.5-8.7,13.1-8.4,38.3-9.1c27.4-0.8,29.6-1.4,29.6-9.8
			c0-4.4-0.9-5.8-8.5-14.2c-6.9-7.5-9.1-10.9-11.7-17.9c-3.4-9-5.8-12.9-14.7-22.2c-3.5-3.8-6.4-8.5-9-15c-3-7.6-5.4-11.3-11.8-18.3
			c-5.1-5.6-8.7-10.7-10.1-14.5c-1.2-3.2-4.5-10.6-7.4-16.7c-3-6-6.3-13.3-7.6-16.2s-5.3-8.3-9-12.2c-4.4-4.5-7.9-9.4-9.8-14
			c-5.5-13.1-6.9-15.4-13.7-22.6c-6.9-7.4-9.8-12.1-12.4-20.2c-0.9-2.7-4.9-8.4-9.6-13.7c-5-5.7-9.2-11.7-11-15.9
			c-5.2-12.4-6.3-14.3-13.7-22.2c-5.6-6-8.1-10-10.6-16.6c-2.5-6.6-5.3-10.9-11.5-17.9c-4.5-5.1-9.1-11.6-10.4-14.6
			c-5.3-12.9-7.1-16-13.7-23.2c-4.3-4.6-8.1-10.3-9.9-14.2c-1.5-3.6-3.8-8.5-5.1-10.8c-1.2-2.3-4.9-9.7-8-16.3
			c-4.3-9.3-7.4-14-13-20c-5.9-6.3-8.2-10-11.3-17.6c-2.7-6.9-5.6-11.6-9.7-16.2c-8.3-9.1-10.6-12.6-14.3-21.8
			c-2.4-6-5.3-10.4-11.1-16.7c-6.2-6.7-8.6-10.3-11-16.9c-3.1-8.2-8-15.8-12.2-19c-3.4-2.5-8.5-10.8-11.7-19
			c-1.9-5.1-5.3-10-11.1-16.5c-6.5-7.3-9-11.1-11.4-17.7c-3.3-8.9-5.8-12.7-14.8-22.2c-3.1-3.3-6.3-8.2-7.5-11.4
			c-1.2-3.2-4.2-10.1-6.9-15.3c-2.7-5.3-5.6-11.7-6.3-14.3c-0.9-2.8-4.7-8.3-9.7-13.9c-4.6-5.1-9.3-11.7-10.5-14.7
			c-5.3-13.1-7.1-16.2-13.5-22.9c-3.7-3.9-8.4-10.2-10.4-13.9s-4.8-7.6-6.1-8.6c-5.6-4.1-22.5-13.8-26.3-15
			c-2.2-0.8-7.5-3.5-11.6-5.9c-4.1-2.5-9.9-5.5-12.7-6.5c-2.9-1.1-7.2-3.3-9.5-5c-5.8-4.2-12.1-6.3-18.5-6.4
			c-6.8-0.1-11.9-1.9-18.8-6.8c-3.1-2.1-7.5-4.6-9.9-5.4c-2.4-0.8-7.8-3.5-11.9-6c-4.1-2.5-9.9-5.5-12.7-6.5
			c-2.9-1.1-7.6-3.5-10.4-5.4s-8.1-4.7-11.6-6c-3.5-1.4-9.2-4.4-12.7-6.7c-5.2-3.4-8.2-4.3-16-5.2c-8.1-1-10.8-1.8-17.4-6
			c-4.3-2.7-10.1-5.8-12.8-6.7c-2.8-1.1-8-3.7-11.6-6c-3.6-2.3-8.8-5-11.6-6c-2.8-1-8-3.7-11.6-6c-3.6-2.3-8.8-5-11.6-6
			c-2.8-1-8-3.7-11.6-6c-3.6-2.3-8.8-5-11.6-6c-2.8-1-8-3.7-11.6-6c-3.6-2.3-8.8-5-11.6-6c-2.8-1-8-3.7-11.6-6
			c-3.6-2.3-8.8-5-11.6-6c-2.8-1-8-3.7-11.6-6c-5.4-3.5-8.3-4.4-16.2-5.4c-8.1-1-10.8-1.8-17.4-6c-4.3-2.7-10.2-5.8-13-6.8
			c-2.9-1.1-7.6-3.5-10.4-5.4s-8.1-4.7-11.6-6c-3.5-1.4-9.2-4.4-12.7-6.7c-3.5-2.3-8.7-5-11.6-5.9c-2.9-1.1-7.6-3.5-10.4-5.4
			c-2.9-1.9-8.1-4.7-11.6-6c-3.5-1.4-9.2-4.4-12.7-6.7s-8.7-5-11.6-5.9c-2.9-1.1-7.6-3.5-10.4-5.4c-2.9-1.9-8.1-4.7-11.6-6
			c-3.5-1.4-9.3-4.5-12.9-6.8c-5.4-3.5-8.2-4.4-16-5.2c-8.1-0.9-10.5-1.7-17.4-5.9c-4.3-2.7-10.2-5.8-12.8-6.8
			c-2.8-1.1-8-3.7-11.6-6c-3.6-2.3-8.8-5-11.6-6c-2.8-1-8-3.7-11.6-6s-8.8-5-11.6-6c-2.8-1-8-3.7-11.6-6c-3.6-2.3-8.8-5-11.6-6
			c-2.8-1-8-3.7-11.6-6c-3.6-2.3-8.8-5-11.6-6c-2.8-1-8-3.7-11.6-6c-3.6-2.3-8.8-5-11.6-6c-2.8-1-8-3.7-11.6-6
			c-3.6-2.3-8.8-5-11.6-6c-2.8-1-8.1-3.8-11.9-6.2c-5.8-3.6-8.4-4.6-15.9-5.3c-10.3-1.1-11.9-1.5-18.4-6.1c-2.7-1.8-7.6-4.5-11-5.9
			c-3.5-1.4-8.6-4.1-11.5-6c-2.9-1.9-7.6-4.3-10.4-5.4c-2.9-1.1-8.1-3.7-11.6-5.9c-3.5-2.3-9.3-5.3-12.7-6.7
			c-3.5-1.4-8.7-4.2-11.7-6.1c-3-1.9-8.5-4.9-12.5-6.4c-3.9-1.6-8.6-4-10.5-5.5c-1.9-1.4-7.2-4.1-11.7-6c-4.5-1.9-9.7-4.6-11.6-5.9
			c-1.8-1.3-6.9-4-11.3-5.8c-4.4-1.8-10-4.9-12.5-6.6C5738.7,1347.8,5735.4,1347.2,5732,1349.3"/>
	</g>
	<g id="Layer_14">
		<path class="st0" d="M4492.4,1483.7c-3.4,2.4-8.2,5.1-10.8,6c-2.7,1-8.2,3.8-12.4,6.4c-4.1,2.6-9.5,5.3-11.9,6
			c-2.4,0.8-7.6,3.6-11.4,6.3c-6.3,4.4-8.1,5-17.2,5.9c-8.4,0.9-11.1,1.7-16.5,5.2c-3.5,2.3-9.2,5.2-12.6,6.5
			c-3.5,1.3-9,4.4-12.5,6.9c-5.7,4-7.2,4.6-16.9,5.4c-9.5,0.9-11.2,1.3-16.6,5.2c-3.3,2.4-8.3,5.2-11.2,6.1c-2.9,1.1-8.1,3.7-11.6,6
			c-3.5,2.3-9.3,5.3-12.7,6.7c-3.5,1.4-9.3,4.5-13,6.9c-5.7,3.6-8.2,4.4-15.9,5.2c-8,0.8-10.3,1.5-17.2,5.8
			c-4.3,2.7-10.2,5.8-12.9,6.8c-2.8,1.1-8,3.7-11.6,6c-3.6,2.3-8.9,5.1-11.8,6.1c-2.9,1.1-8,3.8-11.3,6.2c-5.4,3.8-7.3,4.4-16.1,5.3
			c-8.6,0.9-11,1.5-16.9,5.3c-3.7,2.4-9,5.2-11.8,6.1c-2.8,1.1-8.5,4-12.9,6.8c-6.8,4.3-9.2,5.1-17.2,5.8
			c-7.8,0.7-10.3,1.5-16.1,5.3c-3.8,2.4-9.2,5.3-11.9,6.2c-2.8,1.1-8.4,3.9-12.6,6.5c-4.1,2.6-9.8,5.6-12.5,6.5
			c-2.7,1-8.2,3.8-12.4,6.4c-4.1,2.5-9.1,5.6-11.1,6.7c-2,1.2-4.5,3.7-5.7,5.8c-1.1,2.1-3.9,7.2-6.3,11.4
			c-2.4,4.2-5.5,10.7-6.8,14.6c-1.8,5-4.8,9.5-10.9,16.3c-6.2,6.9-9.1,11.2-10.9,16.4c-1.3,3.8-4.2,10-6.4,13.7
			c-2.2,3.6-5.1,9.7-6.4,13.2c-1.3,3.6-4,9-5.8,12s-4.5,8.6-5.8,12.6c-1.9,5.3-4.8,9.6-10.8,16.4c-6,6.7-9,11.2-10.9,16.4
			c-1.4,3.9-4.4,10.2-6.5,13.8c-2.2,3.6-5.1,10-6.5,13.9c-1.9,5.4-4.6,9.3-10.4,15.6c-5.3,5.7-8.9,10.8-10.9,15.7
			c-1.6,3.9-4.1,9.4-5.5,12c-1.3,2.7-3.7,7.6-5.3,10.8c-1.5,3.4-4.1,8.7-5.8,12.1c-8.1,15.9-13.3,27.9-13.9,31.3
			c-0.4,2.3,0.2,5.4,1.2,7.6c2.4,4.8,35.9,40.5,44,47c3.4,2.7,9.7,6.3,14,8.2c7.8,3.4,10,5.6,79.6,77.7
			c71.7,74.3,71.7,74.3,82.1,78.7c10.4,4.4,10.4,4.4,42.4,37.4c34.5,35.6,35.7,36.4,46.6,35.4c3.9-0.4,8.1-2.1,14-5.8
			c8.3-5.3,8.3-5.3,23-5.9c15-0.8,17.9-1.6,25.9-7.4c1.7-1.2,5.4-3.1,8.1-4.1s8.6-4.1,13.1-6.9c8.1-5.1,8.1-5.1,24.4-5.1
			c16.3,0,16.3,0,24.9,5.4c8.6,5.4,8.6,5.4,23.2,6.1c15.8,0.8,13-0.3,50.6,20.1c2.6,1.3,12.5,6.4,22,11.2c9.6,4.8,18.9,9.8,20.6,11
			c1.7,1.2,6.4,3.6,10.4,5.2c3.9,1.6,9.5,4.5,12.5,6.4c3,1.9,7.8,4.5,10.6,5.7c8.8,3.5,11.6,6.3,15.6,15.5c2.1,4.8,5.5,11,7.4,13.8
			c4.7,6.7,6.4,16,5.8,29.7c-0.6,11.4-1.5,14.2-8.1,23.3c-3.6,5.1-3.7,5.5-4.4,21.1c-0.4,8.7-1.2,16.8-1.6,17.7
			c-0.6,1-2.9,4.7-5.2,8.2c-4.2,6.5-4.2,6.5-4.6,25.3c-0.4,20.7-1.2,17.4,7.7,34.5c1.3,2.7,3.8,7.8,5.5,11.5
			c1.6,3.6,4.4,9.4,6.1,12.7s4.4,8.8,5.8,12.3c1.4,3.4,6.2,10.3,10.5,15.2c4.9,5.6,8.7,11.3,10,14.9c1.2,3.2,3.5,8.3,5.5,11.4
			c1.8,3.1,4.7,8.9,6.2,12.9c1.6,4,4.4,10,6.3,13.1c1.8,3.2,4.4,8.5,5.8,11.9c1.2,3.4,3.9,8.7,5.8,11.9c1.9,3.2,4.6,9.2,5.9,13.3
			c2.8,8.8,9.8,16.4,17,18.6c3.1,1,20,1.2,55.6,1c51.2-0.4,51.2-0.4,59.6-5.7c8.4-5.3,8.4-5.3,123.2-5.1
			c79.3,0.2,116.5-0.2,120.4-1.1c3.1-0.8,8.1-3,10.9-5.1c9.6-6.9,11.1-7,65.9-7.1c53.9,0,53.5,0,58.1-6.4c2.3-3.2,2.5-5.3,2.9-29.8
			c0.5-33.9-0.7-43.4-6.5-53.3c-4.4-7.4-4.4-7.4-5-106.9c-0.6-99.6-0.6-99.6-3.7-105c-9-15.6-8.1-3.7-8.3-106.6
			c-0.2-102.6,0.7-91.3-8.1-107c-3.1-5.6-3.1-5.6-3.4-104.3c-0.3-98.7-0.3-98.7-3.5-104.2c-9-15.6-8.2-10.4-8.3-57.2
			c-0.1-48.4,0-47.5-9.5-52.5c-3.3-1.7-8.7-4.8-12.2-6.8c-3.5-2-8.7-4.7-11.6-5.8c-2.9-1.2-7.3-3.5-9.9-5.2
			c-2.6-1.6-7.8-4.4-11.6-6.1c-3.8-1.7-9.9-4.8-13.3-6.9c-3.5-2.1-8.7-4.8-11.6-5.9c-2.9-1.2-6.7-3.2-8.5-4.5
			c-1.8-1.3-7.1-4.1-11.6-6.1c-4.5-2-11.2-5.5-14.8-7.7c-3.5-2.1-8.7-4.7-11.4-5.7c-2.7-1-7.9-3.6-11.5-5.9
			c-3.6-2.3-8.9-5.1-11.8-6.3c-2.9-1.2-7.8-3.6-10.8-5.7c-3.1-1.9-8.1-4.5-11.2-5.8c-3.2-1.2-8.4-4-11.9-6.3
			c-3.4-2.2-8.5-5-11.4-6.1c-2.9-1.2-8.9-4.1-13.3-6.6c-4.5-2.5-10-5.3-12.2-6.1c-2.2-0.9-6.1-3-8.7-4.6c-2.6-1.6-7.8-4.4-11.6-6.1
			c-3.8-1.7-9.9-4.8-13.3-6.9c-3.5-2.1-8.7-4.8-11.6-5.9c-2.9-1.2-6.7-3.2-8.5-4.5c-1.8-1.3-7.1-4.1-11.6-6.1
			c-4.5-2-11.2-5.5-14.8-7.7c-3.5-2.1-8.7-4.7-11.4-5.7c-2.7-1-7.9-3.6-11.5-5.9c-3.6-2.3-8.9-5.1-11.8-6.3
			c-2.9-1.2-7.8-3.6-10.8-5.7c-3.1-1.9-8.1-4.5-11.2-5.8c-3.2-1.2-8.5-4.1-12.1-6.5c-3.5-2.3-6.8-4.2-7.4-4.2
			c-1.1,0-27.5-13.2-35.2-17.5c-2.9-1.6-8.6-4.6-12.7-6.6s-9.4-4.7-11.6-6c-2.2-1.3-6.9-3.7-10.4-5.5c-3.5-1.6-8.7-4.3-11.6-6
			c-2.9-1.6-8.6-4.7-12.7-6.6c-4.1-2-9.4-4.7-11.6-6c-2.2-1.3-6.9-3.7-10.4-5.4c-3.5-1.6-8.7-4.3-11.6-5.9c-2.9-1.6-8.1-4.4-11.6-6
			c-3.5-1.6-8.7-4.4-11.6-6c-2.9-1.6-9.4-5.1-14.6-7.7c-5.1-2.6-11.3-6-13.8-7.9C4504.3,1478.1,4499.8,1478.4,4492.4,1483.7"/>
	</g>
	<g id="Layer_13">
		<path class="st0" d="M4325.2,2227.1c-1.4,0.6-4.5,2.5-6.6,4.2c-2.2,1.7-7.7,4.7-12.2,6.6c-4.5,1.9-10.6,5.3-13.5,7.4
			c-5.2,3.8-5.5,3.9-21.2,4.6c-15.4,0.7-16.1,0.8-22.2,4.7c-9.4,5.9-12.7,9.6-12.7,13.9c0,4,3.6,12.8,8.7,21.3
			c1.8,3,4.4,8.4,5.8,12.2s4.2,9.3,6.1,12.3c3.6,5.5,5,9.9,7,23.1c0.7,4.6,2.6,9.8,5.3,14.4c2.3,3.9,4.7,9.1,5.5,11.5
			c0.8,2.4,3.1,7.4,5.3,11.1c2.2,3.7,4.7,9.2,5.8,12.1c1,2.9,3.9,8.7,6.6,12.9c4.1,6.5,4.9,8.6,4.9,14c0,7.3-2.3,11.7-7.8,14.8
			c-3.1,1.7-7.8,2.2-24.8,2.8c-21.1,0.6-21.1,0.6-26.2,4.4c-10.2,7.5-6.7,7.1-59.7,7.1c-46.8,0-49,0.1-52.4,2.4
			c-16.1,10.6-9.5,9.6-65,10.3c-50,0.6-50,0.6-54.9,4.2c-9.7,7.3-11.5,7.9-24.7,7.9c-14.2,0-16.7,1.2-20.9,10.1
			c-1.3,2.8-4.3,8-6.6,11.5c-4.2,6.5-4.2,6.5-4.8,34.4c-0.3,15.3-1.1,28.7-1.6,29.7c-0.6,1-2.9,4.7-5.3,8.2
			c-4.2,6.5-4.2,6.5-4.4,126.6c-0.1,66-0.5,122.4-0.8,125.2c-0.3,3.4-2,7.2-4.9,11.3c-2.4,3.5-4.8,8-5.4,10
			c-1.6,6-1.3,225.4,0.3,229.2c1.5,3.5,19.1,15,31.2,20.2c4.9,2.1,9.8,5.6,14,9.8c7.7,7.7,11.6,10.5,18.6,13.3
			c2.9,1.2,8.1,3.8,11.6,5.9c3.5,2.1,9.2,5.1,12.7,6.5c3.5,1.5,8.7,4.3,11.6,6.2c3,1.9,8.4,4.7,12.2,6.2c5,1.9,9.3,5,15.6,11.1
			c4.8,4.7,10.6,9.2,12.9,10.2s12,5.8,21.6,10.6c12.4,6.3,18.8,10.4,22,13.9c5.8,6.3,12.5,11,19.2,13.7c2.9,1.2,8.2,3.9,11.8,6.2
			c3.6,2.3,8.8,5,11.6,6c2.8,1.1,8.4,3.9,12.6,6.4c4.1,2.5,10.2,5.7,13.3,6.8c3.6,1.4,8.6,5,13.4,9.8c6.7,6.5,17.4,13.7,20.5,13.7
			c0.6,0,4.4,2,8.5,4.6c4.1,2.5,10.6,5.8,14.5,7.5c4.9,2,9.6,5.5,15.4,11.2c5.4,5.2,10.9,9.4,15.1,11.3
			c10.4,4.7,35.3,17.5,39.8,20.5c2.2,1.5,7.1,3.8,10.7,5.3c4.8,1.8,9.3,5.1,15.8,11.3c5.8,5.6,11.3,9.6,14.9,10.9
			c3.1,1.2,11.1,5.1,17.7,8.6c6.6,3.5,12.7,6.4,13.6,6.4c0.9,0,5.1,3.5,9.4,7.6c9.9,9.6,13.4,12.1,21.3,15.3c3.5,1.4,8.6,4,11.5,5.8
			c2.9,1.8,7.6,4.2,10.4,5.4s8.1,3.8,11.6,6c3.5,2.1,9.5,5.2,13.1,6.7c4.3,1.8,9.7,5.6,14.8,10.4c8.1,7.8,12,10.4,19.8,13.2
			c2.5,1,6.8,3.3,9.6,5.3c7.4,5.3,10.3,5.7,14.3,2.1c3.3-2.9,3.4-3.5,4-16.9c0.6-13.2,0.9-14.2,4.8-20.9c2.3-3.8,4.9-8.4,5.8-10.1
			c1.2-2.4,1.7-14.7,2.2-60.3c0.6-57.3,0.6-57.3,5.1-64.7c2.5-4.1,4.9-9.5,5.5-12.1c0.6-2.6,1.1-28.3,1.1-57.1
			c0-52.4,0-52.4,5.6-63.9c5.6-11.4,5.6-11.4,5.7-72.6c0.2-67.9-0.6-60.9,8.1-76.3c3.4-6,3.4-6,3.9-63.4s0.6-57.3,4.3-63.3
			c6.9-11.2,6.7-8.8,7.3-70c0.6-56.7,0.6-56.7,4.9-63.5c6.6-10.3,7-12.8,6.5-43.9c-0.4-27.8-0.4-27.8-4-33.7
			c-2-3.3-7.7-14.4-12.6-24.6c-4.9-10.3-9.7-20.3-10.7-22.3c-6-11.4-18.2-37.1-20.3-42.8c-1.6-4.5-4.9-9.3-10.4-15.4
			c-5.2-5.7-9.1-11.3-10.9-15.7c-1.6-3.8-3.7-8.5-4.8-10.5c-1.1-2-5.8-11.5-10.4-21.1c-8.4-17.4-8.4-17.4-8.5-39.4
			c0-22,0-22,4.8-31.3c4.7-9,4.9-10,5.8-24.1c0.9-14.4,1-14.9,6.2-25.1c5.3-10.4,5.4-10.5,5.4-22.5c0-15-0.9-17.1-12.6-29
			c-7.5-7.8-10.5-10-18.3-13.3c-5.1-2.2-11.4-5.4-13.9-7c-2.6-1.6-7.2-4-10.4-5.3c-3.2-1.2-8.6-4-12.2-6.2c-3.5-2.2-8.8-4.9-11.7-6
			c-2.9-1.2-7.4-3.5-10-5.4c-2.6-1.8-8.1-4.7-12.1-6.4c-4-1.7-10.1-4.9-13.2-7c-5.8-3.8-6.4-3.9-21-4.5c-14.3-0.6-15.4-0.8-20.7-4.2
			c-12-7.8-12.3-7.9-24.6-7.8C4333.2,2226,4326.8,2226.5,4325.2,2227.1"/>
	</g>
	<g id="Layer_12">
		<path class="st0" d="M3646.3,2278.3c-3.9,2.2-6.3,6.1-9.9,15.9c-1.5,4.3-4.4,10.2-6.2,13c-1.8,2.9-4.4,8.1-5.8,11.6
			c-1.3,3.5-3.9,8.6-5.8,11.3c-5,7.3-6,12.8-5.7,32.2c0.3,18.8,0.5,18.2-7.8,31.9c-3.5,5.8-3.5,5.8-4,33c-0.4,19.7-1.1,28-2.2,30.2
			c-0.9,1.6-20.8,23.1-44.3,47.6c-40.3,42.1-42.8,45.1-45.2,51.9c-1.4,4-4.5,10.7-7,15c-2.5,4.3-5.1,9.8-5.8,12.2
			c-0.8,2.4-3,7-5,10.3s-5.1,9.6-6.9,14c-1.8,4.5-4.5,9.9-6.1,12.1c-4,5.6-5.4,11.9-5.1,25c0.2,12.2,0,13-7.6,25.6
			c-2.4,3.9-3.4,7.8-4.2,15.7c-1,9.2-1.6,11.4-5.4,17.1c-5.3,8-6.4,12.7-6.4,27.3c0,14.6-1.8,18.6-10.3,23
			c-8,4.1-10.3,6.5-13.6,13.7c-2.1,4.7-11.1,14.7-38.9,43.4c-19.8,20.5-36.9,38.8-37.8,40.6c-0.9,1.7-2.8,6.4-4.1,10.3
			c-2.2,6.2-4.8,9.5-21.8,27.2c-16.5,17.3-20.2,20.6-25.5,22.6c-10,3.9-13.1,5.9-20.9,13.6c-11.7,11.6-12.3,13.1-12.8,31.5
			c-0.3,10.5-1.1,16.9-2.1,19.1c-1,1.9-6.6,8.4-12.7,14.5c-6,6-10.9,12-10.9,13.1c0,1.2,1.4,3.1,3.2,4.2c2.9,1.9,8.3,2.2,64.9,2.8
			c61.7,0.6,61.7,0.6,68.1,4.7c10.8,7.1,12.3,7.6,27.5,8.6c19.1,1.3,292.2,1.3,307.9,0c14.4-1.2,19.3-0.3,28.6,5.8
			c7,4.5,7,4.5,82.8,4.5c75.9,0,75.9,0,78.9-3.2c1.6-1.7,3.5-5.3,4.1-7.9c0.7-2.7,1.1-44.2,1-98.4c-0.2-104.6-1-93.3,7.8-108.9
			c3.4-6,3.4-6,3.7-81.1c0.4-84.4-0.4-102.8-4.1-106.6c-3.5-3.5-7.8-3.1-14.6,1.7c-3.4,2.3-9.1,5.5-12.9,7c-4.9,2-9.4,5.2-15.2,11
			c-5.9,5.9-10.4,9-15.3,11.1c-3.8,1.5-10.3,5-14.3,7.5c-7.3,4.6-7.3,4.6-32.3,5c-17.2,0.3-26.6-0.1-30.1-1.1
			c-3.6-1.1-7.8-4.1-14.8-10.8c-5.8-5.6-11.5-10-14.1-10.8c-9.3-3.1-14.1-6.7-26.2-19.6c-10.7-11.5-12.8-14.5-15.4-21.5
			c-3.5-9.4-8.1-16.5-13.2-20.3c-3.9-3-8.4-10.2-11-17.9c-1-2.8-3.3-7.4-5.1-10.3c-4.9-7.5-5.2-8.6-6-24.4c-0.8-14-1-14.8-5.8-24.1
			c-4.9-9.6-4.9-9.6-4.6-38.6c0.4-29,0.4-29,5.6-38.6c5.3-9.7,5.3-9.7,5.3-44.6c0-38.6,0.6-34.9-8.2-50.6c-3.4-6-3.4-6.1-3.7-28.9
			c-0.4-25.8-0.6-27.4-3.7-30.8C3654.1,2276.1,3650.5,2275.8,3646.3,2278.3"/>
	</g>
	<g id="Layer_11">
		<path class="st0" d="M7040.1,2503.1c-30.3,0.7-30.3,0.7-35.2,4.3c-11.2,8.4-4.8,7.9-84.6,7.9c-72.2,0-72.2,0-80.1,5.8
			c-8,5.8-8,5.8-87,6.3c-64.7,0.5-79.6,0.9-82,2.3c-1.6,1-5.3,3.4-8.1,5.5c-5.3,3.7-5.3,3.7-77.3,3.7c-80.4,0-71.9-0.9-86.2,8.4
			c-5.6,3.6-5.6,3.6-84.7,4.2c-79.1,0.6-79.1,0.6-84,4.2c-11.2,8.4-4.9,7.9-83.9,7.9c-79,0-71.2-0.8-84.4,7.9
			c-5.6,3.6-5.6,3.6-37.1,4.2c-23.2,0.5-31.9,1.1-33.3,2.1c-3.9,3.4-4.5,8-4.1,31.2c0.4,22.8,0.4,22.8,5.6,31.2
			c5.2,8.3,5.3,8.3,5.8,72.4s0.6,64,4.7,70.6c2.3,3.5,4.6,7.6,5.3,8.9c0.6,1.3,1.3,30.6,1.6,65.8c0.6,63.4,0.6,63.4,5.8,71.7
			c5.3,8.3,5.3,8.3,5.8,71.7c0.7,69.1,0,62.8,7.7,76.6c3.4,6,3.4,6,3.9,68.7c0.3,34.8,1.1,63.7,1.6,65.1c0.6,1.3,3,5.4,5.3,8.9
			c4.1,6.5,4.1,6.5,4.7,33.5c0.6,26.8,0.6,26.9,3.5,30c4.1,4.3,12.4,5.4,39.6,5.5c27.5,0,32.8-0.9,43.3-7.6
			c8.1-5.1,8.1-5.1,98.3-5.8c90.2-0.6,90.2-0.6,97.7-5.5c7.5-4.8,7.5-4.8,80.1-4.5c40,0.2,80.6-0.2,90.3-0.8
			c16.1-1.1,18.1-1.4,23.2-4.5c15.4-9.3,4.4-8.3,104.4-9c89.5-0.6,89.5-0.6,97.9-5.8c8.4-5.3,8.4-5.3,23.8-4.8
			c8.4,0.3,49.4,0.4,91,0.4c83.2-0.1,84.5-0.2,94.1-7.2c3.2-2.3,7.6-4.7,9.9-5.4c2.6-0.8,36.5-1.2,89-1.2c57.3,0,86.4-0.5,89.4-1.3
			c2.6-0.7,7.2-3,10.3-5c5.7-3.7,5.7-3.7,93-3.9c64.6-0.1,88.7-0.6,92.4-1.6c2.8-0.8,7.5-3.2,10.4-5.2c8.8-6.3,13.1-7,41.2-7
			c27.9,0,32.5-0.9,34.6-6.6c1.7-4.6-0.3-8.6-9.2-18.1c-5.8-6.3-8.5-10.3-10.4-15.7c-1.4-4-4.1-10-5.8-13.2
			c-1.8-3.4-4.7-9.8-6.4-14.3c-2.4-6.3-5-10.2-11-16.6c-6.4-6.8-8.6-10.2-11.8-18.2c-3.1-7.8-5.6-11.7-11.8-18.7
			c-5.7-6.3-8.7-10.9-10.7-16.3c-3.5-9.2-7.7-15.6-12.8-19.7c-4.3-3.5-8.7-10.6-11.4-18.4c-1-2.8-3.3-7.4-5.1-10.3
			c-1.8-2.8-5.1-9.2-7.1-14.3c-2.8-6.8-5.8-11.7-12.1-18.9s-9.2-11.9-11.6-18.2c-2.5-6.6-5.1-10.4-11.2-17.1
			c-5.2-5.5-8.7-10.6-10.1-14.3c-1.2-3.1-4.4-10.5-7.4-16.6c-2.9-6-6.2-13.1-7.3-15.8c-1.2-2.7-5.6-8.9-9.9-13.8
			c-5.9-6.7-8.6-11-11.1-17.7c-2.7-7-4.9-10.4-11.1-17.1c-6.4-6.8-8.5-10.1-11.7-18.2c-3.2-8.1-5.5-11.7-12.2-19.2
			c-6-6.7-9-11.2-10.9-16.3c-1.4-3.8-3.5-8.5-4.9-10.4c-1.2-1.8-4.6-8.4-7.4-14.7c-3.8-8.6-6.8-13.1-12.5-19.2
			c-5.8-6.2-8.1-9.9-11.2-17.6c-3-7.5-5.6-11.7-11.3-18.1c-5.3-5.9-8.8-11.4-12-18.5c-3.4-7.6-6.3-12-12.1-18
			c-5.7-5.9-8.2-9.8-10.2-15c-1.4-3.9-4-9.6-5.8-12.6s-4.4-8.7-5.9-12.7c-3.4-8.9-7.5-15.2-14.4-22.2c-3.8-3.8-6.3-8-9-14.9
			c-3.1-7.9-5.2-11-12.1-18.3c-6.3-6.6-8.9-10.4-10.4-14.9c-1.1-3.4-3.7-9.2-6-13.1c-2.3-3.9-5.8-11.1-7.7-16
			c-2.7-6.8-5.2-10.5-10.4-15.7c-3.7-3.7-8.4-10-10.5-13.9c-4.5-8.3-8-11.2-14.3-11.8C7072.6,2502.6,7056.8,2502.7,7040.1,2503.1"/>
	</g>
	<g id="Layer_10">
		<path class="st0" d="M5963.7,2576.8c-1.5,0.7-5.5,3.2-8.7,5.7c-5.9,4.5-5.9,4.5-113.8,4.8c-107.9,0.3-107.9,0.3-113.1,3.6
			c-2.9,1.8-7.4,4.6-10.1,6c-4.8,2.7-4.8,2.7-116.5,2.7c-123.8,0-112.6-0.7-124,7.9c-4.8,3.6-4.8,3.6-113.8,4.2
			c-108.9,0.6-108.9,0.6-114,4.3c-2.8,2-6.4,4.5-8,5.5c-2.4,1.4-23.2,1.8-122.7,2.3c-119.8,0.6-119.8,0.6-127.2,6
			c-7.5,5.5-7.5,5.5-124.8,5.7c-64.5,0.1-119.1,0.6-121,1c-2,0.4-5.9,2.5-8.7,4.7c-8.8,6.9-8.6,6.9-65.1,6.7
			c-33.3-0.1-52.7,0.3-54.2,1.1c-5.1,2.9-5.5,4.5-6.1,26.6c-0.6,21.2-0.6,21.2-5.8,28.9c-5.3,7.8-5.3,7.7-5.8,65.8
			c-0.3,31.9-1.1,58.9-1.6,59.8c-0.6,1-2.9,4.7-5.3,8.2c-4.2,6.5-4.2,6.5-4.4,61.5c-0.1,30.3-0.5,56.7-0.8,59
			c-0.3,2.1-2.9,7.3-5.7,11.3c-5,7.4-5,7.4-5.6,71.4c-0.7,69.4-0.2,64.7-7.5,75.3c-3.6,5.3-3.6,5.3-3.8,59
			c-0.1,29.6-0.5,56.1-0.7,58.9c-0.3,3.5-2.1,7.4-5.6,12.6c-5.1,7.6-5.1,7.6-5.7,65.6c-0.6,61.7-0.4,59.1-6.4,67.7
			c-4.2,5.9-5.1,11-5.5,33.4c-0.4,24.7-0.2,25.3,10.5,31.2c3.4,1.9,10,7.1,14.7,11.7c6.6,6.4,10.4,9,17,11.7
			c6.7,2.7,10.4,5.3,17.4,12.2c7.2,7,10.6,9.4,17.4,12.1c6.3,2.5,10.3,5.1,15.5,10.2c8.7,8.5,12.2,10.9,20.9,14.5
			c4.5,1.8,9.4,5.2,13.9,9.7c9,8.8,12.7,11.4,20.7,14.5c4.5,1.7,9.3,5.2,15.3,10.8c4.9,4.6,11,9.3,13.7,10.4
			c6.2,2.8,14.9,7.4,22.3,11.9c5.8,3.5,5.8,3.5,102.9,3.9c53.4,0.2,100.3,0,104.2-0.4c5.7-0.6,9-1.9,16.3-6.4
			c9.1-5.7,9.1-5.7,227.1-6.2c218-0.6,218-0.6,225.5-5.4c7.5-4.8,7.5-4.8,95.8-4.5c48.6,0.2,96.5-0.1,106.6-0.7
			c21.1-1.1,22.8-1.8,27.6-11.9c1.6-3.4,4.6-8.7,6.6-12.1c2-3.3,4.5-8.3,5.6-11.3c1-2.9,3.4-8,5.4-11.2c1.9-3.3,4.6-8.7,5.8-12.1
			c1.2-3.4,4.1-9.2,6.3-12.8c2.2-3.6,4.7-9,5.8-11.9c1-2.9,3.5-8.2,5.8-12.1c2.2-3.7,4.9-9.3,5.8-12.3s3.4-7.9,5.3-11
			c1.9-3.1,4.8-9.1,6.5-13.3c1.6-4.2,4-9.2,5.3-11c1.2-1.8,3.7-7,5.5-11.5c1.8-4.5,4.9-10.8,6.9-14.1s4.2-7.9,5-10.3
			c0.8-2.4,3.3-7.9,5.8-12.2c2.4-4.3,5.4-10.5,6.5-13.7c2.3-6.5,12.1-18.3,18.9-22.7c4-2.6,5.8-2.8,30.5-3.4
			c26.3-0.6,26.3-0.6,33.7-5.5c7.5-4.8,7.5-4.8,54-4.9c50.4-0.1,52.8-0.3,61.7-6.7c9.3-6.6,7.8-6.4,66.1-7.1
			c54.6-0.6,54.6-0.6,63.3-6c8.6-5.4,8.6-5.4,28-6c21.5-0.7,22.9-1.2,26.2-9.3c1.8-4.5,2.2-36.5,0.5-44.1c-0.6-2.5-3.3-8.4-6-13.2
			c-5.1-8.6-5.1-8.6-4.7-65.4c0.2-34.5-0.1-59.5-0.9-63.8c-0.8-4.6-2.9-10-5.9-15.2c-4.7-8.1-4.7-8.1-4.7-67.1c0-32.4-0.5-61.3-1-64
			c-0.5-2.8-3.3-9-6-13.8c-5.1-8.7-5.1-8.7-4.8-65.5c0.2-34.5-0.2-59.6-0.9-63.9c-0.8-4.6-2.8-9.8-5.6-14.5c-4.4-7.3-4.4-7.3-5-70.6
			c-0.7-69.5,0-63.5-8.2-77.1c-3.9-6.5-3.9-6.5-3.6-27c0.4-23.9-0.9-32.1-5.2-35.8c-2.9-2.4-4.5-2.4-49-2.4
			C5986.1,2575.7,5965.3,2576.2,5963.7,2576.8"/>
	</g>
	<g id="Layer_9">
		<path class="st0" d="M3192,3033.9c-10.4,1.3-15.8,6.7-20.4,19.8c-1.2,3.4-3.6,8.3-5.5,11.2c-1.9,2.9-4.6,8.5-6.1,12.5
			c-1.5,4-4.3,9.8-6.1,12.8c-1.9,3.1-4.4,8.5-5.6,12.2c-1.8,5.7-4.4,9-16.8,22.3c-13.3,14.4-14.9,16.5-17.9,24.7
			c-3,8.1-4.5,10.3-16.2,22.6c-8.8,9.4-15,14.9-19.8,17.4c-10.4,5.8-11,7.5-11,34.3c0,21-0.2,22.4-3,29.4
			c-3.5,8.6-3.2,13.6,1.2,17.9c2.3,2.2,5.2,3.2,14,4.3c9.3,1.2,12.3,2.2,18.3,5.9c5.7,3.5,9.4,4.8,17.5,6.1
			c8.1,1.2,11.8,2.6,16.9,5.8c7.9,5,8.9,5.4,19.7,6.7c6.6,0.9,10.1,2.1,15.3,5.5c6.4,4.1,10.2,5.2,24.9,7.4c2,0.3,6.7,2.5,10.4,4.9
			c5.4,3.4,9.1,4.7,17.3,5.9c8.2,1.3,11.8,2.5,17.3,6c5.7,3.6,8.8,4.7,17.3,5.9c8.2,1.2,11.6,2.3,17.1,5.8c8,5.1,8.8,5.4,20,7
			c6.6,1,10.4,2.3,15.4,5.6c6.2,3.9,10.1,5.1,24.8,7.3c2,0.3,6.7,2.5,10.4,4.9c5.4,3.4,9.1,4.7,17.3,5.9c8.2,1.3,11.8,2.5,17.3,6
			c5.6,3.5,9,4.8,17.4,6c8.5,1.3,11.9,2.5,17.4,6c5.4,3.5,9,4.7,16.9,5.9c8.5,1.3,12.5,2.9,25.8,9.9c8.6,4.5,17.2,9.3,18.9,10.4
			c1.7,1.2,8,2.9,13.8,3.8c8.4,1.3,12.1,2.6,17.7,6c5.7,3.5,9.1,4.7,17.3,5.8s11.5,2.3,17,5.8c7.1,4.5,14.1,6.8,21.3,6.8
			c2.3,0,6.7,1.4,9.9,3.2c3.2,1.7,7.6,4.1,9.8,5.4c2.2,1.2,8.1,2.8,13.2,3.4c7.3,1,10.4,2,16,5.6c5.5,3.5,9,4.8,17.2,6
			c10.1,1.5,14.9,3.5,21.4,8.1c1.9,1.4,7.4,3,13.8,4c8.5,1.3,12,2.5,17.5,6c5.6,3.5,9,4.8,17.4,6c8.3,1.2,12,2.6,17.6,6
			c5.6,3.5,9.3,4.8,17.4,6c8.2,1.2,11.8,2.5,17.2,5.9c5.4,3.5,8.9,4.7,17.4,5.9c8.3,1.3,12.1,2.6,17.7,6c5.7,3.5,9.4,4.8,17.4,6
			c8.1,1.2,11.8,2.6,16.9,5.8c7.9,5,8.9,5.4,19.7,6.7c6.6,0.9,10.1,2.1,15.3,5.5c6.4,4.1,10.2,5.2,24.9,7.4c2,0.3,6.4,2.3,10,4.5
			s8.7,4.9,11.5,6.1c2.9,1.2,8.1,3.8,11.5,6c3.5,2.1,9.5,5.2,13.3,6.8c5.7,2.3,9.6,5.6,20.5,16.5c11.9,12,14.9,14.2,24.4,18.9
			c5.9,3,13.5,7.6,16.7,10.4c6.2,5.5,10.9,8,12.2,6.3c0.4-0.5,0.5-14.6,0.1-31.2c-0.7-30.2-0.7-30.2-5.3-38
			c-4.6-7.8-4.6-7.8-5.3-28.9c-0.7-22.6-0.6-22.2-8.2-34.8c-3.9-6.5-3.9-6.5-4-31.9c-0.1-27.9,0.1-27-8.4-41.8
			c-2.9-5.1-3.2-6.3-2.9-17.4c0.5-23.1-0.4-28.2-6.5-38.8c-5.5-9.5-5.5-9.5-6-30.7c-0.6-21.2-0.6-21.2-5.3-28.9
			c-4.6-7.8-4.6-7.8-5.3-34.9c-0.7-29.3-0.3-27.9-8.2-40.9c-3.9-6.5-3.9-6.5-4.5-27.7c-0.5-19.3-0.9-21.6-3.2-25.4
			c-7.8-12.7-7.5-11.3-7.7-39.6c-0.2-28.6,0.2-26.6-8.2-40.7c-3.1-5.2-3.5-7-4.1-19.1c-0.7-13.6-1.9-17.7-5.8-19.9
			c-1.4-0.8-28.3-1.2-77-1.2c-44.7,0-76.3-0.5-78.7-1.2c-2.1-0.7-6.8-3.3-10.3-5.8c-6.4-4.6-6.4-4.6-178.5-5.2
			c-96.5-0.4-172.9-1.1-173.9-1.6s-4.5-3.1-8-5.5c-6.2-4.3-6.2-4.3-90.7-5C3235.3,3033.5,3194.9,3033.5,3192,3033.9"/>
	</g>
	<g id="Layer_8">
		<path class="st0" d="M3937.8,3101c-0.3,0.5-0.2,14.5,0.2,31.2c0.7,30,0.7,30.3,3.7,35c7.2,11.3,7.3,11.8,8,34.4
			c0.6,21.2,0.6,21.2,4.8,27.7c6.5,10.2,6.9,12.4,6.9,39c0,26.4-0.5,24.2,7.7,38.6c3.3,5.8,3.4,6.5,3.9,27.2
			c0.6,21.2,0.6,21.2,5.8,29.5c5.3,8.3,5.3,8.3,5.8,30.2c0.6,21,0.7,22,3.6,26.6c7.5,11.8,7.4,11,8,40.4c0.6,27.2,0.6,27.2,5.8,35.5
			c5.3,8.3,5.3,8.3,5.8,29.5c0.6,20.6,0.7,21.3,3.9,27.2c7.5,13.4,7.1,11.4,7.7,40.4c0.5,23.2,0.9,27.6,2.7,30.8
			c1.2,2,3.4,5.8,4.8,8.3c1.6,2.8,3.1,7.8,3.5,12.1c1.4,13.1,1.6,13.3,25.9,26.2c10.7,5.7,17.8,10.3,21.7,14.2
			c7.4,7.4,11.1,9.9,19.7,13.4c4.8,1.9,9.5,5.3,14.9,10.5c5.7,5.6,10.7,9,18,12.6c5.6,2.7,11.5,5.9,13.3,7.2
			c1.8,1.3,6.4,3.6,10.4,5.3c3.9,1.6,8.7,4.2,10.7,5.8c7.8,6.1,10.4,6.8,24.3,6.8c12.1,0,13.7,0.3,19,3.2c16.5,9.1,12,8.2,46.4,8.9
			c31.4,0.6,31.4,0.6,39.6,5.8c5.5,3.5,10.5,5.6,15,6.3c3.7,0.7,21,1.1,38.3,1c31.5-0.3,31.5-0.3,40.1,5.1s8.5,5.4,40.5,5.9
			c34,0.7,32.8,0.4,42.7,7.4c7.4,5.2,13.5,6,44.6,6.3c28.5,0.2,28.5,0.2,35.9,5c7.5,4.8,7.5,4.8,39.6,5.5
			c32.1,0.6,32.1,0.6,40.3,5.8c4.8,3,10.7,5.7,14.5,6.3c3.5,0.7,18.1,1.2,32.5,1.1c40.4-0.4,37.7-0.6,45.1,4.1
			c3.6,2.3,7.7,4.6,8.9,5.2c1.2,0.6,16.5,1.3,33.7,1.7c31.4,0.7,31.4,0.7,39.9,5.9c4.6,2.9,10.6,5.8,13.3,6.2
			c2.7,0.6,17.4,1,32.9,1.1c28,0.1,28,0.1,33.6,3.7c9.8,6.4,9.6,6.4,48.9,7.1c37.2,0.7,37.2,0.7,45.5,5.8
			c10.7,6.7,17.2,7.7,48.6,7.2c24.4-0.4,24.4-0.4,29.6,2.9c12.3,7.8,10.8,7.5,44.8,8.1c33.4,0.7,32.2,0.5,41.9,7.3
			c7.8,5.6,12.7,6.2,44.2,6.4c29.1,0.2,29.1,0.2,34.1,3.5c9.6,6.6,11.4,6.8,48.9,6.8c34.6,0,34.6,0,40.8,3.6
			c16.8,9.7,13.4,9,47.3,9.2c30.6,0.2,30.6,0.2,37.2,4.4c8.6,5.6,15.7,7.3,25.9,6.6c9.4-0.7,11.9-2.4,15.3-10.5
			c1.2-3,3.7-7.6,5.6-10.3c1.7-2.7,4.6-8.2,6.3-12.5c1.7-4.2,4.3-9.6,5.8-12.1c1.5-2.4,3.9-7.6,5.4-11.4c1.8-4.9,5.1-9.9,10.5-16.1
			c4.3-5,9.1-11.8,10.5-15.2c1.4-3.4,4-8.9,5.8-12.3c1.7-3.4,5.3-10.7,7.9-16.3c3.3-7,6.9-12.6,11.5-17.4c7.4-8,7.3-7.7,17.4-30.2
			c3.9-8.6,8.4-18.1,10-21.1c1.5-3,5-9.9,7.5-15.3s7.1-12.7,10.2-16.3c7.8-8.8,10.3-12.8,13.1-20.3c1.3-3.5,4.2-9.5,6.3-13.1
			c2.1-3.6,4.8-9.3,5.9-12.5c1.2-3.5,5.2-9.3,10.1-14.9c4.4-5,9.1-11.9,10.5-15.2s4-8.9,5.8-12.3c1.7-3.4,4.8-9.6,6.7-13.9
			c1.9-4.3,4-8.8,4.7-10.1c6.6-12.3,7-16,1.7-19.6c-2.5-1.7-12.9-1.9-94.1-1.8c-60.3,0.1-92.4,0.6-94.5,1.3c-1.7,0.7-4.9,2.6-7,4.2
			c-8.7,6.9,6.7,6.5-227.8,6.5c-203.3,0-216.2,0.1-219.7,2.1c-2.1,1.2-5.9,3.7-8.6,5.8c-4.8,3.6-4.8,3.6-111.9,3.9
			c-58.9,0.2-108.7,0-110.7-0.4s-6.7-2.8-10.4-5.4s-9.8-5.8-13.4-7.3c-4.7-1.8-9.3-5.1-15.8-11.3c-7.1-6.7-11-9.5-17.5-12.2
			c-6.6-2.7-10.4-5.3-17.4-12.1c-7.1-6.8-10.7-9.4-17.2-12c-6.3-2.5-10.4-5.3-17.5-12c-7.1-6.6-11.3-9.6-17.5-12.1
			c-6.2-2.5-10.4-5.4-17.3-12c-7.1-6.7-11-9.5-17.5-12.1c-6.5-2.7-10.5-5.4-17.6-12.2c-6.8-6.5-11-9.5-16.5-11.6s-9.6-5.1-16.5-11.6
			c-7-6.6-11.2-9.6-18-12.6c-4.9-2.1-10.9-5.2-13.4-6.8c-2.5-1.6-6.5-3.7-8.9-4.6c-8.1-3-12.2-5.8-19.8-13.5
			c-5.9-5.9-9.8-8.6-17.1-11.7c-5.2-2.2-10.8-5.2-12.7-6.4c-1.8-1.3-6.6-3.8-10.6-5.6c-4-1.7-9.8-4.6-12.7-6.5
			c-3-1.9-8.4-4.7-12.2-6.2c-4.6-1.9-9.7-5.7-15.8-11.5c-6.4-6.1-11-9.4-15.9-11.3c-3.7-1.4-9.7-4.5-13.2-6.8
			c-3.5-2.3-9.4-5.3-13-6.7c-4.7-1.8-9.3-5.2-15.9-11.4c-6.4-6.1-11-9.5-14.9-10.7c-3.1-1.1-9-4-13.3-6.6c-4.3-2.6-9.6-5.3-11.7-6
			c-2.2-0.8-7-3.3-10.8-5.7c-3.7-2.4-10.2-5.7-14.2-7.4c-5.2-2.2-10-5.6-16.4-11.7c-6.5-6.1-11-9.5-15.9-11.3
			c-3.7-1.4-9.7-4.5-13.2-6.8c-3.5-2.3-9.3-5.2-12.8-6.6c-4.4-1.7-9.4-5.3-15.9-11.4c-6.8-6.4-11.4-9.6-16.5-11.6
			c-3.8-1.5-9.4-4.3-12.3-6.2c-2.9-1.9-8.5-4.8-12.4-6.5c-3.9-1.6-9.5-4.5-12.5-6.4c-3-1.9-8.4-4.7-12.1-6.2
			c-4.7-1.9-9.6-5.5-15.9-11.4c-6.7-6.3-11-9.4-16.2-11.4c-3.8-1.5-9.5-4.3-12.5-6.2c-3-1.9-8.7-4.9-12.8-6.6
			c-5.5-2.2-10.1-5.6-16.8-11.9c-5.1-4.9-10.4-9.2-11.9-9.6c-3.5-1.1-37.5-18.3-42.7-21.7c-2.2-1.4-7.1-3.8-10.8-5.4
			c-4.6-1.9-9.7-5.6-15.9-11.5c-7.3-7-11.2-9.6-19.2-13.1C3942.6,3100.2,3938.7,3099.2,3937.8,3101"/>
	</g>
	<g id="Layer_7">
		<path class="st0" d="M7475.4,3226.6c-35.6,0.7-35.6,0.7-40.4,4.2c-11.3,8.5-2.9,7.9-101.3,7.9s-88.6-0.8-101.9,7.9
			c-5.6,3.6-5.6,3.6-96.3,4.2c-90.8,0.6-90.8,0.6-98.2,6c-7.5,5.5-7.5,5.5-104.7,6c-97.2,0.6-97.2,0.6-102.5,4.6
			c-10.6,8-4.8,7.5-102.2,7.5c-88.7,0-88.7,0-94.3,3.9c-12.7,8.9-3.1,8.1-101.8,8.1c-98.4,0-88.6-0.8-101.9,7.9
			c-5.6,3.6-5.6,3.6-96.4,4.2c-90.8,0.6-90.8,0.6-95.9,4.6c-10.3,8.1-5.8,7.7-84,7.6c-78.6-0.1-70.6-0.9-84,7.8
			c-5.6,3.6-5.6,3.6-61.4,4.2c-55.9,0.6-55.9,0.6-60.7,4.2c-11,8.3-7.5,7.9-60.6,7.9c-53.1,0-48.1-0.7-61.3,7.9
			c-5.6,3.6-5.6,3.6-30.6,4.2c-13.7,0.4-25.9,1.1-27,1.6c-1.2,0.6-3.7,4.3-5.7,8.4c-2,4-4.6,8.9-5.8,10.7c-1.2,1.8-3.5,6.6-5.1,10.7
			c-1.5,4-4.4,10-6.3,13.1c-1.9,3.2-4.8,9-6.3,13.1c-1.5,4-3.9,9-5.3,10.9c-1.3,2-3.9,7.3-5.8,11.8c-1.8,4.5-4.6,10.3-6.3,12.8
			c-1.6,2.5-4.1,7.6-5.4,11.1c-1.3,3.6-3.6,8.6-5.3,11.1c-1.6,2.5-4.2,8-5.8,12.2c-1.6,4.2-4.5,10.3-6.4,13.4s-4.8,9-6.3,13.1
			c-1.5,4-3.9,9-5.3,10.9c-1.3,2-3.9,7.3-5.8,11.8s-4.6,10.3-6.3,12.8c-1.7,2.6-4.2,8-5.7,12.1c-1.9,5.4-4.2,9-8.5,13.4
			c-7.5,7.6-10.4,12-14,21.2c-1.5,4-4.1,9.3-5.8,11.8c-1.5,2.5-4.1,7.9-5.8,12.1c-1.6,4.2-4.5,10.3-6.4,13.4
			c-1.9,3.2-4.9,9.2-6.4,13.4c-2.1,5.7-4.8,9.8-10.4,15.5c-7.5,8-10,11.9-13,20.9c-1,2.7-3.2,7.4-5.1,10.4c-1.8,3-4.5,8.7-5.9,12.7
			c-1.9,5.3-4.8,9.6-11,16.5c-6.2,6.9-9.1,11.2-10.9,16.4c-1.3,3.8-4.2,10-6.4,13.7c-2.2,3.6-5.1,9.7-6.4,13.2c-1.3,3.6-4,9-5.8,12
			c-1.8,3-4.5,8.7-5.9,12.7c-1.9,5.5-4.6,9.4-10.6,15.8c-6.3,6.7-8.8,10.5-11.5,17.4c-1.9,4.9-4.8,10.8-6.4,13.3
			c-1.6,2.4-4.5,8.3-6.3,13.1c-2.6,6.7-5.3,10.8-11.4,17.4c-5.8,6.4-8.6,10.5-10.4,15.8c-1.3,3.9-4.3,10.2-6.5,13.9
			s-4.8,9.2-5.8,12.1c-1,2.9-3.5,8.2-5.8,11.9c-2.2,3.6-5.1,9.6-6.4,13.1s-4,8.5-5.8,10.9c-5.2,6.8-5.8,9.7-5.8,27.6
			c0,17.7,0.9,22,5.8,29.6c5.6,8.5,5.8,10.8,5.8,48.2c0,36.7,0.4,40.3,5.2,47.1c5.9,8.4,5.8,7,6.4,54.8c0.7,49.1,0.1,44.8,7.7,58.5
			c3.4,6,3.4,6,3.9,44.6c0.3,21.2,1.1,39.7,1.6,41c0.6,1.3,3,5.4,5.2,8.9c4.1,6.5,4.1,6.5,4.7,45.8s0.6,39.3,3.9,45.3
			c7.6,13.5,7.7,13.8,7.7,25.4c0,6,0.6,12.7,1.2,14.9c2.8,8.4,14.1,9.9,24.6,3.3c3.6-2.3,7.8-4.6,9.2-5.1c1.4-0.5,14.1-0.8,28.2-0.6
			c30.1,0.4,35.4-0.5,46.2-7.3c8-5,8-5,44.2-5.1c39.2-0.1,39.9-0.2,48.7-7.2c6-4.7,10.5-5.4,33.5-4.7c22.1,0.6,35.9-0.6,41.4-3.6
			c1.8-1,5.8-3.4,9-5.3c5.8-3.5,5.8-3.5,28.5-3.1c25.8,0.4,40.5-1.1,45.8-4.5c11.5-7.6,9.7-7.3,42.8-7.6c33.5-0.3,30.5,0.3,45.5-8.7
			c5.7-3.4,5.7-3.4,41.2-3.5c38.2-0.2,39.4-0.4,48.4-6.7c7.5-5.3,11.5-5.8,34.6-5.2c28.9,0.9,36.9-0.3,47.6-7
			c8.3-5.3,8.3-5.3,37.5-5.3c31.4-0.1,33.7-0.4,43.7-6.9c7.6-4.9,11.9-5.5,29.6-4.3c8.8,0.6,22.6,0.5,33.5-0.2
			c19.3-1.2,21.1-1.7,33.1-9.2c5-3.1,5-3.1,35.5-3.3c33.5-0.2,31.4,0.2,46-8.8c5.2-3.2,5.2-3.2,52.9-2.9c50,0.3,61.1-0.5,67.5-4.7
			c12.3-8.1,5.7-7.5,77.7-7.7c72.9-0.2,65.6,0.6,80.7-8.8c4.8-3,5.8-3.2,18-2.7c22.3,0.8,92.8,0.4,100.8-0.6c6.1-0.8,9.5-2,16.6-6.4
			c8.9-5.5,8.9-5.5,68.3-5.7c64.8-0.2,62.7,0,72-7.2c2.1-1.6,5.1-3.4,6.7-3.9c1.6-0.6,23.6-0.9,48.8-0.7c25.2,0.2,49.7-0.2,54.3-0.9
			c8.3-1.2,10.1-1.8,20.5-8.1c5.7-3.4,5.7-3.4,52.9-3.5c51-0.2,49.9-0.1,60.8-7.1c7.5-4.8,11.7-5.5,29.4-4.2
			c16.5,1.2,52.3,0.2,61.5-1.6c3.2-0.6,9.3-3.4,13.7-6c8-5,8-5,55.8-5.1c52.1-0.2,51.2-0.1,60.4-7.2c5.8-4.4,10.6-5.7,22.9-5.7
			c9.7,0,12.1-0.4,17.1-3.1c8-4.1,10.3-7,15-18.7c2.2-5.5,4.8-10.9,5.8-12.1c1-1.2,3.5-6.4,5.8-11.8c2.1-5.4,4.9-11.2,6.1-13.1
			c1.2-1.8,3.5-6.5,4.9-10.3c1.4-3.8,4.1-9.4,6-12.5c1.8-3.1,4.7-8.9,6.3-13c1.6-4.1,4.2-9.5,5.8-12c1.6-2.5,3.9-7.4,5.2-10.8
			c1.2-3.5,4.4-9.9,7-14.2s4.7-8.3,4.7-9c0-1.5,16.1-35.5,18.7-39.2c1.2-1.6,3.4-6.5,5.1-10.7c1.6-4.2,4.5-10.3,6.4-13.2
			c1.8-3.1,3.9-7.5,4.7-9.9c0.8-2.4,3.5-8.1,6-12.6c3.9-6.8,4.9-9.8,5.8-17.9c0.9-7.7,2.1-11.6,5.6-18.2c3.4-6.3,4.8-10.8,5.8-18
			c1.1-7.7,2.2-11.2,5.8-17.4c2.5-4.3,5.4-10.3,6.4-13.2c1-2.9,3.4-7.9,5.2-11c3.8-6.5,5.8-13.1,5.8-19.4c0-5.7,1.9-11.4,5.8-17.4
			c3.7-5.8,5.4-10.9,6.2-19.9c0.5-5.1,2.7-10.9,9.2-24.2c4.7-9.6,9.4-19.1,10.4-21c1.1-2,3.5-7.2,5.4-11.5c1.9-4.3,4.2-9.2,5.2-10.8
			c1-1.6,3.6-7.1,5.9-12.1c2.3-5,5.5-11.5,7-14.5s3.8-7.9,5.1-10.8s3.4-7.3,4.6-9.7c1.2-2.3,4.2-8.2,6.4-13.2
			c2.2-5,5.2-10.9,6.4-13.2c1.3-2.3,3.9-7.8,5.8-12.1c1.9-4.3,4.5-9.8,5.8-12.1c1.2-2.3,3.8-7.5,5.7-11.5s4.8-10,6.4-13.2
			c6.1-12.3,18.1-38.7,19.5-43.1c0.8-2.5,1.1-6,0.7-7.9c-0.7-3.1-13.5-31.3-20-44.3c-1.7-3.4-5.6-11.3-8.6-17.7
			c-4-8.5-7.8-14.3-13.7-20.9c-4.5-5-8.1-9.8-8.1-10.6s-2.7-6.8-5.8-13.3c-3.3-6.5-6.9-14.7-8.1-18.2c-1.5-4.3-5-9.5-10.8-16
			c-6.1-6.9-9.2-11.6-11-16.6c-1.3-3.8-3.5-8.3-4.6-10.1c-2.2-3.2-16.7-33.6-20.8-43.7c-1.3-3.2-5.6-9-9.8-13.4
			c-5.6-5.8-8.3-9.9-10.8-16.1c-1.8-4.6-5-11-6.9-14.4c-2-3.4-5.1-9.7-6.8-14.2c-2.2-5.6-5.6-10.7-10.5-16.3
			c-5.9-6.6-8.9-11.7-16.2-27.4c-5-10.6-9.6-20.4-10.3-21.7c-4.2-7.9-9.1-16.1-11.3-19c-2.5-3.3-9-5.9-13.4-5.5
			C7511.9,3225.9,7494.9,3226.4,7475.4,3226.6"/>
	</g>
	<g id="Layer_6">
		<path class="st0" d="M3057.1,3296.6c-1.1,0.7-3.9,4-6.3,7.6c-5.9,8.6-6.6,15.3-2.2,22c7,10.6,6.9,9.6,6.9,55.5
			c0,23.2,0.5,43.5,1.1,45.2c0.6,1.7,2.9,6.2,5.3,10.2c4.2,7.2,4.2,7.2,4.8,28.4c0.7,22.7,0.5,22,8.4,35.1c2.3,3.8,2.6,6.2,3.2,25.4
			c0.6,21.2,0.6,21.2,5.8,30.1c5.2,8.9,5.2,8.9,5.9,24.3c0.7,13.6,1.1,15.9,3.7,20.6c6.3,11,8,15.7,8.6,25.2c1,14.5-0.4,22-5,28.7
			c-5.7,8.1-6.7,10.9-6.8,17.8c-0.1,5.2,1.2,8.5,8.1,22.9c4.4,9.3,9.2,18.6,10.6,20.7c1.4,2.1,3.2,7.5,3.8,11.8
			c1.9,11.2,3.2,13.4,10.4,18c5.6,3.5,17.5,15.1,22,21.3c0.8,1.1,2.1,6.9,3,12.8c1.2,8.9,2.4,12.3,6,18.4c4.5,7.6,4.5,7.6,4.9,30.6
			c0.4,23,0.4,23-3.9,30.3c-2.3,4-5.7,10.8-7.4,15.1c-1.7,4.4-4.5,9.9-6.2,12.2c-1.7,2.3-4.1,7.4-5.5,11.3
			c-2.9,8.5-5.8,12-13.1,15.2c-6.8,3.1-8.6,6.4-10.1,17.8c-0.6,4.7-1.7,9.4-2.6,10.5c-0.9,1.2-17.7,19-37.6,39.7
			c-36,37.7-36,37.7-45.2,41.5c-7.3,3.1-10.9,5.6-17.5,12.1c-4.6,4.5-10.4,9.1-12.8,10.2c-5.7,2.4-9.8,6.2-9.8,9.2
			c0,5.1,5.2,11.4,34.2,41.9c28.7,30.1,30.6,32.4,33.2,39.6c1.5,4.2,5,10.9,7.9,14.9c6.3,8.9,72.2,78.1,96.4,101.3
			c18,17.3,18,17.3,23.9,29.9c5.8,12.7,5.9,12.7,28.8,36.4c12.7,13,24.7,24.8,26.8,26.3c6.1,3.8,11.6,3.3,20.5-2.3
			c7.5-4.7,8.1-4.8,18.2-4.9c13.4,0,17.8-1.2,26.3-6.5c5.8-3.6,8.4-4.6,17.1-5.6c8.8-1.1,11.3-1.9,18.2-6.2c8-5,8.1-5,22.6-5.8
			c14.9-0.8,17.3-1.4,24-6.7c3.6-2.9,8.5-4.3,21.2-6.4c4.9-0.8,9.5-2.6,14-5.5c5.4-3.5,8.9-4.7,17.4-5.9c6.5-1.1,11.9-2.6,13.9-4
			c8.1-5.8,11.1-6.7,26-7.5c14.6-0.7,14.6-0.7,22.9-5.9c6.7-4.2,10-5.5,16.8-6.3c10.5-1.3,12.1-1.9,17.8-5.8c7-4.9,8.1-5.2,23.2-6
			c14.3-0.9,16.8-1.5,26.9-8c3.3-2,8.3-3.5,15.3-4.7c6.4-1,11.7-2.6,13.7-4c8-5.8,11.1-6.7,26.1-7.6c14.7-0.8,14.7-0.8,22.2-5.8
			c13.3-9,19.7-8.1,31.2,4.4c5.4,5.8,8.8,11,12.2,18.3c3.1,6.7,7.3,13.3,12.3,19c4.4,5.1,8.4,11.1,9.6,14.5
			c1.2,3.2,3.7,8.7,5.8,12.4c2.1,3.6,4.6,8.6,5.8,11c3.2,7.1,6.4,9.5,15.1,10.8c5.1,0.9,40.5,1.2,103.3,0.8
			c105.4-0.5,99.1,0,108.2-8.2c5.4-4.9,6.4-7.6,7.8-19.2c0.7-5.8,2-10.9,3.9-14.5c1.6-3,4.5-9,6.4-13.3c1.9-4.3,4.4-9.5,5.5-11.5
			c5.2-9.7,6.2-12.8,7.3-21.6c0.8-6.3,2.2-11.3,4.2-15c5.8-10.6,6.5-12.4,7.6-21.6c0.9-7.5,2-10.8,5.7-17.2
			c3.8-6.5,4.8-9.7,5.8-17.9c1.2-10,2.5-13.7,7.7-21.8c1.4-2.3,3.5-6.6,4.5-9.6c1-3,3.4-7.9,5.2-10.8c3.4-5.4,4.5-9.5,6.9-23.3
			c0.7-4.2,2.9-9.8,5.4-14.1c3.8-6.5,6.1-15.5,6.3-25.5c0-1.1,1.9-5.1,4.2-9s4.6-9.8,5.3-12.8c0.6-3.2,1.6-8.5,2.2-11.9
			c0.7-3.4,3.1-9.3,5.4-13.1c3.3-5.5,4.4-9,5.4-16.5c1-7.8,2.5-12.4,8.8-25.8c4.2-8.9,8.8-18.2,10.4-20.5c1.8-2.8,3.1-7.4,3.8-13.3
			c1.3-10.9,1.6-12,6.6-20.5c3.1-5.4,4.1-8.7,5-16.5c1.1-9.4,2.5-13.2,8.2-22.9c1.3-2.3,3-8.3,3.9-14.8c1.2-8.2,2.5-12.5,5.2-17.1
			c2-3.4,4.7-8.9,5.9-12.3c1.2-3.4,4.2-9.3,6.4-13.1c3.5-5.8,4.3-8.6,5.1-16.6c0.8-7.8,1.8-11.3,5.4-18c5.4-10.2,4.8-13.8-2.5-17.6
			c-2.6-1.3-7.5-4.1-11-6.1s-9.4-5-13.1-6.5c-4.6-1.9-9.6-5.5-15.8-11.4c-6.9-6.5-11-9.4-17.2-11.9c-6.3-2.6-10-5.2-16.4-11.6
			c-6.6-6.6-10.1-9-17.4-12.1c-5.1-2.1-11-5.1-13.2-6.7c-2.2-1.5-7.4-4.2-11.3-5.9c-5-2.1-9.7-5.5-15.2-10.8
			c-5.8-5.7-10.9-9.2-18.8-13.1c-7.5-3.7-13.4-7.9-19.3-13.2c-6-5.6-10.4-8.6-15.7-10.6c-6.2-2.4-9.3-4.8-21.9-17.4
			c-9.6-9.7-16.3-15.3-19.7-16.9c-8.5-3.7-16.6-7.7-20.9-10.3c-2.2-1.3-7.5-4.1-11.6-6c-4.1-2-9.6-4.8-12.1-6.2
			c-3-1.7-7.6-2.9-13.4-3.5c-9.7-0.9-9.5-0.8-18.3-6.9c-5-3.5-7.6-4.4-15.1-5.2c-10.9-1.2-12.1-1.5-19.7-6.8c-5-3.5-7.4-4.3-16-5.2
			c-11-1.2-10.4-1-19-7c-5.2-3.6-7.4-4.3-16.2-5.3c-6.7-0.7-11.3-1.9-13.7-3.5c-8.7-5.8-15.2-8.4-21.4-8.4c-7,0-12.2-1.9-19.3-7.2
			c-4.1-3.1-6.7-3.9-15.2-4.9c-11.3-1.3-10.5-1.1-18.8-6.8c-5-3.5-7.4-4.3-15.9-5.2c-10.5-1.2-12.5-1.8-20.1-7.5
			c-3.9-2.9-6.5-3.6-15-4.6c-9-1-11.2-1.7-18.3-6.1c-7-4.4-9.3-5.2-17.2-5.8c-9.8-0.9-9.5-0.8-18.3-6.9c-5-3.5-7.6-4.4-15.1-5.2
			c-10.9-1.2-12.1-1.5-19.7-6.8c-5-3.5-7.4-4.3-16-5.2c-11-1.2-10.4-1-19-7c-5-3.5-7.5-4.4-15.1-5.2c-9.7-1.1-14.9-2.6-17.9-5.6
			c-1.1-1-5.8-3.5-10.5-5.7c-4.8-2.1-11.3-5.7-14.5-7.8c-4.8-3.2-7.7-4.1-16-5.1c-11.2-1.3-10.4-1.1-18.7-6.8
			c-5-3.5-7.4-4.3-15.9-5.2c-10.5-1.2-12.5-1.8-20.1-7.5c-3.7-2.8-6.7-3.7-14.6-4.6c-5.4-0.7-10.2-1.2-10.5-1.2
			c-0.4,0-3.3-1.8-6.4-4c-7.1-5.1-12.1-6.8-19.1-6.8c-6.8,0-10.4-1.3-18.1-6.8c-5-3.5-7.5-4.4-15-5.3c-11.3-1.3-12.6-1.7-20-6.9
			c-5.3-3.6-7.5-4.3-15.9-5.2c-10.7-1.1-10.2-0.9-18.9-6.9c-5-3.5-7.6-4.4-15.1-5.2c-10.7-1.2-11.9-1.5-19.7-6.9
			c-5.1-3.5-7.4-4.2-15.7-5c-10.2-1-12.5-1.8-20.2-7.6c-3.6-2.7-6.7-3.7-13.9-4.6c-11.2-1.3-12.4-1.7-19.7-6.9
			c-5.1-3.5-7.4-4.3-16.1-5.2c-8.9-1-11.2-1.7-17.9-5.9c-5.8-3.6-10.4-5.4-17.6-6.8C3062.9,3295.6,3059.3,3295.3,3057.1,3296.6"/>
	</g>
	<g id="Layer_5">
		<path class="st0" d="M4182.7,3772.6c-7,4-11.1,10-11.1,15.9c0,9.9-2.2,18.5-6.3,24.7c-2.3,3.5-5.2,9.1-6.5,12.7s-3.9,8.8-5.8,11.6
			c-3.7,5.7-5.8,12.8-5.8,20.8c0,5.4-1.9,10.3-6.5,16.5c-3.2,4.4-5.2,11.4-5.2,18.7c0,5.4-1.9,10.4-7.5,19.8
			c-2,3.5-3.1,7.4-3.6,14.2c-0.7,8.1-1.4,10.5-5.5,17.5c-2.6,4.4-5.7,10.7-6.9,14c-1.2,3.3-3.6,8.1-5.5,10.8
			c-4,6.1-4.4,7.5-5.8,19.6c-0.9,8.1-1.7,10.8-4.9,15.6c-4.9,7.4-6.8,12.9-6.8,20.1c-0.1,6.6-2.1,12.3-6.4,18.3
			c-2.4,3.4-3.4,6.5-4.6,16.2c-1.3,10.6-2,12.7-5.6,17.8c-4.9,6.9-5.4,8.3-6.6,20.2c-0.8,7.4-1.8,10.6-5.1,16.1
			c-2.3,3.8-5.3,9.9-6.6,13.5c-1.3,3.6-4.2,9.3-6.4,12.7c-3.1,4.6-4.1,7.8-4.6,13.2c-1.2,12.9-1.7,14.9-5.9,21.3
			c-3.6,5.6-4.4,7.9-5.7,18.2c-1.2,10.4-2,12.6-5.5,17.5c-4.8,6.8-5.3,8.2-6.5,20c-0.8,7.5-1.8,10.6-5.7,17.3
			c-2.6,4.5-5.3,10.2-6,12.7c-0.8,2.5-3.2,7.2-5.3,10.4c-4.4,6.7-6.4,12.9-6.4,20.7c0,5.9-3.1,14.1-6.2,16.8
			c-5.2,4.4-5.8,8-5.5,32.7c0.3,25.5,0.2,25,8.5,40.4c2.6,4.7,2.7,6.1,3.2,43.4c0.7,42.5,0,38.5,8.4,52.4c2.5,4.1,2.6,5.6,3.2,43.4
			c0.6,39.2,0.6,39.2,5.5,47.6c3.8,6.6,5.1,10.3,6,17.3c1.3,10.5,3.4,14,9,15.9c6.7,2.3,20.5,0.7,27-3.3c12.6-7.5,9.9-7.1,42-6.7
			c38,0.4,44-0.4,54.9-7.2c8.3-5.3,8.3-5.3,36.2-4.9c36.4,0.5,46.1-0.7,55.2-6.5c3.8-2.4,8.9-4.8,11.3-5.3
			c2.4-0.5,12.2-0.3,21.8,0.3c11.5,0.8,24.7,0.8,39-0.1c23.1-1.3,24.3-1.6,37.1-9.7c5.3-3.3,5.3-3.3,35.5-2.9
			c35.7,0.4,43.9-0.6,52.3-6.3c3.2-2.2,7.4-4.5,9.3-5.2c2.2-0.8,15.1-1.1,35.5-0.7c35.7,0.6,51.5-0.6,57.3-4.4
			c12.7-8.4,8.1-7.8,60-7.9c50.8-0.1,49.7,0,60.6-7c7.8-5,11.7-5.6,29.1-4.3c16.5,1.2,52.3,0.3,61.9-1.5c3.2-0.6,9.3-3.4,13.7-6
			c7.9-5,7.9-5,50.1-4.8c49.4,0.3,54.6-0.4,65.7-7.2c4.2-2.6,8.7-4.9,10.1-5c1.3-0.1,17.5-0.1,36.1,0.1c42.1,0.3,47.9-0.4,58.8-7.2
			c8.1-5.1,8.1-5.1,56-5.3c53.3-0.1,48.5,0.5,63.5-8.8c4.9-3.1,5.7-3.2,18.6-2.7c24.3,0.9,74.5,0.1,80.6-1.2c3.4-0.8,9.7-3.6,14-6.3
			c8.1-5,8.1-5,49.4-5.1c44.5-0.1,44.8-0.1,54.2-6.7c2.6-1.8,5.9-3.6,7.6-4.2c1.6-0.5,23.9-1.1,49.4-1.1c51-0.2,49.4,0,60.9-7.9
			c6-4.1,6.7-4.3,19.7-5c7.4-0.4,14.7-1.3,16.1-2.1c4.9-2.8,6.4-8.1,5.8-19.7c-0.5-9.4-1.1-11.4-5.1-18.8c-4.5-8.2-4.5-8.2-5.1-47.4
			c-0.7-42.8-0.2-39.6-8.2-52.9c-3.9-6.5-3.9-6.5-3.6-38c0.5-38.7-0.3-45.1-6.7-56.2c-4.8-8.1-4.8-8.1-5-52.6
			c-0.3-48.7,0.3-44.8-7.9-58.2c-3.9-6.5-3.9-6.5-3.9-44c0-41.6,0.9-36.1-8.9-55.2c-1.6-3.2-2.5-8.2-3.2-18.3
			c-1.2-18.2-2.2-19.6-16.9-21.3c-7-0.9-9.7-1.8-15.2-5.7c-6.8-4.7-6.8-4.7-39.4-5.3c-17.9-0.3-33.5-1.1-34.4-1.6s-4.5-3.1-8-5.5
			c-6.2-4.3-6.2-4.3-44.8-5c-38.5-0.6-38.5-0.6-46.6-6s-8.1-5.5-40.6-6c-17.9-0.3-33.4-1.1-34.3-1.6c-1-0.6-4.5-3.1-8-5.5
			c-6.2-4.3-6.2-4.3-38.9-5c-18-0.3-33.5-1.1-34.4-1.6c-1-0.6-4.5-3.1-8-5.5c-6.2-4.3-6.2-4.3-38.9-5c-18-0.3-33.5-1.1-34.4-1.6
			c-1-0.6-4.5-3.1-8-5.5c-6.2-4.3-6.2-4.3-44.8-5c-21.2-0.3-39.3-1.1-40.3-1.6c-1-0.6-4.5-3.1-8-5.5c-6.2-4.3-6.2-4.3-38.9-5
			c-21.7-0.4-33.5-1.1-35-2c-1.2-0.8-5.2-3.4-8.5-5.8c-6.2-4.3-6.2-4.3-36-4.3c-16.4,0-31.5-0.5-33.7-1.2c-2.1-0.7-6.8-3.3-10.3-5.8
			c-6.4-4.6-6.4-4.6-44.9-5.2c-21.2-0.3-39.3-1.1-40.3-1.6s-4.5-3.1-8-5.5c-6.2-4.3-6.2-4.3-39-5c-32.8-0.6-32.8-0.6-40.7-6
			c-8.1-5.5-8.1-5.5-40.6-6c-17.9-0.3-33.4-1.1-34.3-1.6c-1-0.6-4.5-3.1-8-5.5c-6.2-4.3-6.2-4.3-38.9-5c-18-0.3-33.5-1.1-34.4-1.6
			c-1-0.6-4.5-3.1-8-5.5c-6.2-4.3-6.2-4.3-44.8-5c-21.2-0.3-39.3-1.1-40.3-1.6c-1-0.6-4.5-3.1-8-5.5c-6.2-4.3-6.2-4.3-38.9-5
			c-18-0.3-33.5-1.1-34.4-1.6s-4.5-3-8-5.4c-5.1-3.5-7.4-4.4-13.3-4.7C4189.6,3769.4,4187.7,3769.8,4182.7,3772.6"/>
	</g>
	<g id="Layer_4">
		<path class="st0" d="M2952.7,4073c-2.2,1.2-10.9,8.9-19.3,17.4c-16.4,16.5-15.5,16-30.6,17.2c-6,0.5-8.5,1.3-13.3,4.8
			c-7.6,5.4-11.2,6.8-17.7,6.8c-7.6,0-11.9,2.8-14.7,9.4c-3.5,8.2-7.3,11.9-15.7,14.8c-6.3,2.2-9.1,4.2-17.7,12.7
			c-5.7,5.6-10.4,10.2-10.6,10.2c-19.8,1.9-22.4,2.4-25.8,5c-2,1.5-5,3.7-6.6,5.1c-2.1,1.5-6.3,2.7-13.1,3.4
			c-12.4,1.3-15.2,2.8-26.3,13.6c-6.2,6.1-10.3,9.1-13.9,10.3c-2.9,0.9-6.9,2.5-9,3.6c-4.6,2.4-99.5,100.5-102.3,105.6
			c-1.5,2.9-2.1,8.2-2.6,25.3c-0.5,15.3-1.2,22.7-2.3,25.1c-1.1,2.3-4.3,4.8-9.5,7.6c-4.3,2.3-8.5,5.4-9.4,6.8
			c-1.1,2-1.5,9.6-1.5,28.1c0,27.1,0,27-6.5,35.6c-1.7,2.3-3.7,6.4-4.4,9c-0.9,3.2-1.2,28.5-1.2,74.3c0,69.5,0,69.5,3.5,76
			c9.1,16.9,8.7,15.3,8.7,38.4s0.5,21-8.1,33.8c-3.5,5.2-3.5,5.2-3.8,46.5c-0.4,46.4-0.4,46.7,7.6,50.5c3.8,1.9,7.9,2.2,29.4,2.3
			c27.3,0.1,26.4,0.3,40.2-8.3c5.7-3.5,5.1-3.5,49.8-2.4c22,0.6,42.3,0.4,54.9-0.5c21.2-1.3,22.6-1.8,35-9.5c5.2-3.2,5.2-3.2,58.1-3
			c60.6,0.3,67.4-0.3,76.2-6.3c3.3-2.2,7.1-4.5,8.7-5.1c1.6-0.6,23-0.9,47.6-0.7c48.2,0.4,62.9-0.6,69-4.6c12.8-8.4,8-7.8,60-7.9
			c50.6-0.1,50.4-0.1,59.8-6.7c2.6-1.8,5.9-3.7,7.6-4.3c1.6-0.6,14.2-0.9,27.9-0.7c25.8,0.3,34.9-0.7,41.3-4.4
			c1.9-1.2,6.4-3.7,9.8-5.8c17.7-10.3,19-16.5,7.3-36.8c-3.2-5.5-3.2-5.5-2.9-32.6c0.2-15-0.2-29.9-0.8-33.4c-0.6-3.8-3-9.6-6.1-15
			c-5.1-8.8-5.1-8.8-4.8-39c0.5-39-0.4-46.7-6.3-56.5c-4.5-7.5-4.5-7.5-5.1-40.6c-0.7-36.3-0.1-33.5-8.6-47.7
			c-3.2-5.4-3.5-6.7-4.1-21.6c-0.6-13.3-1.2-16.5-3.3-20c-1.3-2.3-15.9-17.9-32.3-34.9c-29.8-30.8-29.8-30.8-35.6-43.4
			c-5.8-12.7-5.8-12.7-64.8-73.7c-54.6-56.6-59.2-61.6-61.7-68.2c-1.5-3.9-4.1-9.2-5.8-11.9c-4.7-7.2-48.8-51.7-53.7-54.1
			C2968,4070.3,2957.9,4070.3,2952.7,4073"/>
	</g>
	<g id="Layer_3">
		<path class="st0" d="M3667.7,4244.9c-6.4,5.6-8.6,6.2-24.3,6.8c-15.2,0.6-15.2,0.6-21.5,5.1c-8.1,5.8-11.4,7-19.4,7
			c-7,0-10.5,1.4-19,7.9c-4.7,3.5-5.4,3.6-20.8,4.2c-15.9,0.6-15.9,0.6-22.1,5c-8.8,6.2-8.1,5.9-19.3,7.1c-6.7,0.7-11.1,1.8-13,3.4
			c-1.6,1.2-4.7,3.5-6.8,5.2c-3.5,2.7-5.3,3-19.9,3.5c-16,0.6-16,0.6-22.2,5c-8.9,6.2-8.3,6-19.2,7.1c-9.1,0.9-10.4,1.3-16.9,6
			c-6.4,4.7-7.7,5.2-17.5,6.1c-9.3,0.9-11.2,1.5-16.5,5.3c-8.5,6.1-11.1,6.8-24.9,6.8c-13.3,0-15.1,0.6-24.6,7.8
			c-4,3-6.2,3.6-15.2,4.4c-9.5,0.8-11.2,1.3-16.5,5.2c-8.7,6.2-11.1,6.8-26.2,6.8c-12.3,0-14.1,0.3-17.6,2.8
			c-6.4,4.5-10.8,13.2-10.9,21.3c0,5.9,0.6,8,5.2,15.8c5.3,9,5.3,9,5.8,42.2c0.6,33.2,0.6,33.2,3.9,39.2c7.6,13.6,7.1,10.2,7.7,51.9
			c0.6,38.4,0.6,38.6,3.5,43.8c8.8,15.7,8.1,12.1,8.1,46c0,33.5,0.1,34.1,7.3,45.1c1.6,2.5,3.4,7.2,3.7,10.3
			c1.4,12.1,2,13.8,4.9,16.7c4.2,4,13,4,19.6-0.1c12.6-7.9,9.6-7.3,34.9-6.9c31.7,0.6,40.5-0.8,51-7.3c8.1-5.1,8.1-5.1,37.9-5.3
			c32-0.1,33-0.3,43.3-7c7-4.5,11.9-5.2,28.1-4.1c14.3,1,40.8,0.1,50.5-1.5c3.9-0.7,9.4-3.1,14.5-6.2c8.1-5.1,8.1-5.1,32.6-4.7
			c31.1,0.5,38.2-0.6,48.2-7.4c7.5-5.1,7.5-5.1,30.8-4.7c12.8,0.2,27.3-0.2,32.2-0.8c8.9-1.1,10.5-1.7,21.3-8.1
			c5.8-3.5,5.8-3.5,41.2-3.5c38.2-0.2,38.6-0.3,49-6.9c8-5.1,11.9-5.7,33.4-4.4c20.5,1.2,54.9,0.5,67.6-1.5
			c5.3-0.8,9.3-2.4,13.3-5.1c8.2-5.6,12.4-6.8,23.7-6.8c12.6,0,17.4-2.1,19.7-8.9c2.1-5.8,0.7-12.2-4.8-21.3
			c-3.8-6.3-3.8-6.3-4.4-45.6c-0.7-43.3,0-39.6-8.7-54c-3.5-5.8-3.5-5.8-3.1-37.8c0.5-38.5-0.3-44.3-6.9-55.7
			c-4.8-8.1-4.9-8.7-5.4-21.3c-0.6-13.4-2-18.5-6.1-20.7c-1.6-1-35.9-1.3-113-1.5c-108.1-0.2-110.7-0.3-115.2-2.7
			c-6-3.2-8.4-7.8-10-19.4c-1-7.1-2.4-11.8-5.7-18c-2.4-4.6-5.6-11.5-7-15.3c-1.8-4.8-5.3-9.9-11.1-16.5
			c-4.7-5.3-9.4-11.4-10.4-13.6c-1.1-2.2-2.8-4.9-3.7-6C3677.8,4241.2,3671.6,4241.5,3667.7,4244.9"/>
	</g>
</g>
<text transform="matrix(1 0 0 1 217.7329 466.3311)" class="st1 st2">Initao</text>
<text transform="matrix(1 0 0 1 336.7871 2197.4038)" class="st3 st1 st2">LEGEND</text>
<ellipse class="st4" cx="277.2" cy="2490.8" rx="59.5" ry="58.2"/>
<ellipse class="st5" cx="277.2" cy="2680.4" rx="59.5" ry="58.2"/>
<ellipse class="st6" cx="277.2" cy="2870" rx="59.5" ry="58.2"/>
<ellipse class="st7" cx="277.2" cy="3059.5" rx="59.5" ry="58.2"/>
<ellipse class="st8" cx="277.2" cy="3249.1" rx="59.5" ry="58.2"/>
<ellipse class="st9" cx="277.2" cy="3438.6" rx="59.5" ry="58.2"/>
<ellipse class="st10" cx="277.2" cy="3628.2" rx="59.5" ry="58.2"/>
<ellipse class="st11" cx="277.2" cy="3817.7" rx="59.5" ry="58.2"/>
<ellipse class="st12" cx="277.2" cy="4007.3" rx="59.5" ry="58.2"/>
<ellipse class="st13" cx="277.2" cy="4196.8" rx="59.5" ry="58.2"/>
<ellipse class="st14" cx="277.2" cy="4386.3" rx="59.5" ry="58.2"/>
<ellipse class="st15" cx="277.2" cy="4575.9" rx="59.5" ry="58.2"/>
<ellipse class="st16" cx="277.2" cy="4765.4" rx="59.5" ry="58.2"/>
<ellipse class="st17" cx="277.2" cy="4955" rx="59.5" ry="58.2"/>
<ellipse class="st18" cx="277.2" cy="5144.5" rx="59.5" ry="58.2"/>
<text transform="matrix(1 0 0 1 405.1055 2536.082)" class="st19 st1 st20">Barangay Halls</text>
<text transform="matrix(1 0 0 1 405.3774 2720.9795)" class="st21 st1 st20">Health Centers</text>
<text transform="matrix(1 0 0 1 400.8276 2913.1582)" class="st22 st1 st20">Road (FMR)</text>
<text transform="matrix(1 0 0 1 404.7754 3095.2324)" class="st23 st1 st20">H20 System</text>
<text transform="matrix(1 0 0 1 414.1182 3286.2676)" class="st24 st1 st20">MOWDIR</text>
<text transform="matrix(1 0 0 1 414.1182 3478.8994)" class="st25 st1 st20">Market</text>
<text transform="matrix(1 0 0 1 414.1182 3478.8994)" class="st26 st1 st20">Market</text>
<text transform="matrix(1 0 0 1 413.5161 3666.3223)" class="st1 st20">Flood Control</text>
<text transform="matrix(1 0 0 1 422.2568 3859.5664)" class="st27 st1 st20">Streetlights</text>
<text transform="matrix(1 0 0 1 416.0352 4050.0977)" class="st28 st1 st20">Bridges</text>
<text transform="matrix(1 0 0 1 413.5161 4237.1357)" class="st29 st1 st20">Road Widening</text>
<text transform="matrix(1 0 0 1 413.5166 4422.9033)" class="st30 st1 st20">Hospitals</text>
<text transform="matrix(1 0 0 1 413.5161 4609.8525)" class="st31 st1 st20">Daycare Center</text>
<text transform="matrix(1 0 0 1 413.5161 4812.7891)" class="st32 st1 st20">Pedestrian Overpass</text>
<text transform="matrix(1 0 0 1 420.7896 4995.4648)" class="st33 st1 st20">Covered Courts</text>
<text transform="matrix(1 0 0 1 413.5166 5180.2891)" class="st34 st1 st20">School Buildings</text>
<text transform="matrix(1 0 0 1 2750.061 2648.2432)" class="st1 st35">Poblacion</text>
<text transform="matrix(1 0 0 1 2452.814 3100.1572)" class="st1 st35">San Pedro</text>
<text transform="matrix(1 0 0 1 2394.0576 3754.8916)" class="st1 st35">Gimampang</text>
<text transform="matrix(1 0 0 1 2400.4595 4946.208)" class="st1 st35">Pagahan</text>
<text transform="matrix(1 0 0 1 3443.3413 4841.4004)" class="st1 st35">Pontacon</text>
<text transform="matrix(1 0 0 1 4659.4014 4709.2749)" class="st1 st35">Aluna</text>
<text transform="matrix(1 0 0 1 6449.4976 4505.1777)" class="st1 st35">Sinalac</text>
<text transform="matrix(1 0 0 1 7321.4404 2762.6001)" class="st1 st35">Calacapan</text>
<text transform="matrix(1 0 0 1 6533.5747 1656.3121)" class="st1 st35">Oguis</text>
<text transform="matrix(1 0 0 1 5286.7891 1054.5474)" class="st1 st35">Andales</text>
<text transform="matrix(1 0 0 1 4192.7539 588.7294)" class="st1 st35">Tubigan</text>
<text transform="matrix(1 0 0 1 2987.4668 1568.3702)" class="st1 st35">Jampason</text>
<line class="st36" x1="3253.2" y1="2057.8" x2="4329.8" y2="2611.1"/>
<line class="st36" x1="3175.5" y1="796.7" x2="4401.7" y2="1775.6"/>
<line class="st36" x1="5042.3" y1="3739.1" x2="5659.2" y2="4896.8"/>
<line class="st36" x1="5508.1" y1="3176" x2="6500.8" y2="4971.6"/>
<text transform="matrix(1 0 0 1 2809.4199 725.1743)" class="st1 st35">Kanitoan</text>
<text transform="matrix(1 0 0 1 2927.5837 1998.4034)" class="st1 st35">Apas</text>
<text transform="matrix(1 0 0 1 5333.4858 5013.2168)" class="st37"><tspan x="0" y="0" class="st1 st35">Tawan</tspan><tspan x="362.6" y="0" class="st1 st35 st38">	</tspan><tspan x="385.8" y="0" class="st1 st35">tawan</tspan></text>
<text transform="matrix(1 0 0 1 6301.0205 5144.5405)" class="st1 st35">Kamelon</text>
<ellipse class="st6" cx="3835.7" cy="1714.5" rx="59.5" ry="58.2"/>
</svg>
