<?xml version="1.0" encoding="utf-8"?>
<svg version="1.1" id="Layer_1" xmlns="http://www.w3.org/2000/svg" xmlns:xlink="http://www.w3.org/1999/xlink" x="0px" y="0px"
	 viewBox="0 0 8186.1 5537.7" style="enable-background:new 0 0 8186.1 5537.7;" xml:space="preserve">
<style type="text/css">
	.st0{fill-rule:evenodd;clip-rule:evenodd;fill:#9C14E4;}
	.st1{font-family:'ArialMT';}
	.st2{font-size:200px;}
	.st3{fill:#8703EF;}
	.st4{fill:#4472C4;stroke:#FFFFFF;stroke-miterlimit:10;}
	.st5{fill:#FF000D;stroke:#FFFFFF;stroke-miterlimit:10;}
	.st6{fill:#70AD47;stroke:#FFFFFF;stroke-miterlimit:10;}
	.st7{fill:#EA781B;stroke:#FFFFFF;stroke-miterlimit:10;}
	.st8{fill:#7030A0;stroke:#FFFFFF;stroke-miterlimit:10;}
	.st9{fill:#FFFF1A;stroke:#FFFFFF;stroke-miterlimit:10;}
	.st10{stroke:#FFFFFF;stroke-miterlimit:10;}
	.st11{fill:#843C0C;stroke:#FFFFFF;stroke-miterlimit:10;}
	.st12{fill:#FF73D8;stroke:#FFFFFF;stroke-miterlimit:10;}
	.st13{fill:#B1FFF7;stroke:#0031FF;stroke-miterlimit:10;}
	.st14{fill:#FFB1BC;stroke:#FFFFFF;stroke-miterlimit:10;}
	.st15{fill:#F6DB76;stroke:#FFFFFF;stroke-miterlimit:10;}
	.st16{fill:#A5A5A5;stroke:#FFFFFF;stroke-miterlimit:10;}
	.st17{fill:#0B0BF9;stroke:#FFFFFF;stroke-miterlimit:10;}
	.st18{fill:#E9816F;stroke:#FFFFFF;stroke-miterlimit:10;}
	.st19{fill:#4472C4;}
	.st20{font-size:150px;}
	.st21{fill:#FF0000;}
	.st22{fill:#70AD47;}
	.st23{fill:#F9920B;}
	.st24{fill:#7030A0;}
	.st25{fill:#FFFF03;}
	.st26{fill:none;stroke:#0000FF;stroke-width:0.5;stroke-miterlimit:10;}
	.st27{fill:#843C0C;}
	.st28{fill:#FF73D8;}
	.st29{fill:#B1FFF7;}
	.st30{fill:#FFB1BC;}
	.st31{fill:#F6DB76;}
	.st32{fill:#A5A5A5;}
	.st33{fill:#410EFD;}
	.st34{fill:#E9816F;}
	.st35{font-size:120.8001px;}
	.st36{enable-background:new    ;}
	.st37{fill:none;stroke:#000000;stroke-width:19.4839;stroke-miterlimit:9.7419;}
</style>
<g id="Jasaan">
	<g id="Layer_17">
		<path class="st0" d="M3764.2,399.9c-2.7,1.1-3.7,3.5-4.7,11.5c-0.8,7.1-2.1,9.3-9.1,16.1c-7.1,6.8-10.1,13-11,22.7
			c-0.6,6.8-1.2,8.5-4.6,13.5c-5,7.3-5.8,10.6-5.7,22.2c0.1,7.3-0.3,10.4-1.6,13.2c-1,2.2-6.8,8.3-14.2,14.9
			c-15.5,13.9-19.6,19-23.1,28.7c-2.7,7.3-3.4,8.2-19.5,24.6c-9.6,9.7-17.6,18.8-18.8,21.1c-2.7,5.6-2.7,14.4,0.1,20.2
			c3.1,6.4,7.8,9.1,18.9,10.7c7.8,1.2,10.1,2,15.4,5.4c3.8,2.5,8.3,4.4,11.7,5.1c3.5,0.7,36.6,1,93.1,1c87.7-0.1,87.7-0.1,95.7,4.1
			c8.1,4.2,8.1,4.2,23.8,4.5c25.5,0.4,28,2.4,29.2,24.3c0.7,12.4,0.7,12.7,4.7,19c4,6.4,4,6.4,4.3,23.9c0.2,9.6,0.1,18.4-0.2,19.6
			c-0.3,1.1-2.1,4.5-4.1,7.5c-1.9,3-3.5,6.5-3.5,7.8c0,2.9,3.6,6.4,11.5,11c11.9,7,10.7,6.7,29.5,7.2c17.5,0.5,17.5,0.5,24.4,5
			s6.9,4.5,24.5,5.1c18.5,0.6,19.2,0.7,25.6,5c6.4,4.3,9.9,5,24.5,5c14.8,0,13.9,0.3,28.5-7.8c2.5-1.4,5.6-1.6,19-1.4
			c21,0.4,28.3-0.7,34.9-5c2.8-1.9,6-3.8,7.1-4.2c1.1-0.5,11.3-0.9,22.7-0.9c20.7-0.1,20.7-0.1,29.7-4.8s9-4.7,74.8-4.8
			c36.2,0,67.2-0.1,68.9,0c1.8,0,5.9,1.8,9.9,4.1c6.4,3.8,7.5,4.2,17.4,5c6,0.5,92.8,0.8,198.4,0.7c187.7-0.2,187.7-0.2,193,3.4
			c8.8,6.1,9,6.1,36.8,6.2c14,0.1,26.6,0.5,28,1s4.8,2.4,7.7,4.3c4.8,3.2,6.1,3.5,16.5,4.4c6.2,0.5,20.5,0.7,31.8,0.3
			c20.5-0.6,20.5-0.6,26,2.4c15.2,8.3,11.6,7.6,40.8,7.8c26.3,0.2,26.3,0.2,33.5,4.2c4,2.2,9,4.3,11.2,4.7s14.8,0.8,28.1,0.8
			c24.2,0.1,24.2,0.1,29.6,3.8c8.9,6.1,9.1,6.1,37.4,6.3c14.3,0.1,26.9,0.6,28,1c1.1,0.5,4.3,2.3,7.1,4.2c4.4,2.9,6.4,3.5,14.5,4.3
			c5.2,0.5,17.7,0.9,27.9,0.7c18.5-0.3,18.5-0.3,25.8,4.1c4,2.4,9.4,4.8,12,5.3s17.4,0.8,32.9,0.7c28.2-0.2,28.2-0.2,35.5,4.2
			s7.3,4.4,34,4.5s26.7,0.1,33.4,3.3c10.5,5.1,12.1,3.2,7.5-8.8c-3.6-9.4-5.6-11.8-30.1-36.6c-14.9-15.1-17.1-17.7-19.3-23.3
			c-3.6-9.2-7.4-13.8-28.4-34.3c-17.9-17.5-19.1-18.8-21.6-25.4c-4-10.2-6.5-13.3-27.5-33.9c-18.8-18.4-19.2-18.9-23.5-28.2
			c-4.3-9.2-4.7-9.7-25.3-30.2c-20.3-20.2-21.1-21.1-23.7-28c-1.5-4-4.1-9.1-5.8-11.5c-1.7-2.4-11.8-12.9-22.4-23.4
			c-17.8-17.5-19.6-19.6-21.9-25.5c-3.8-9.6-6.3-12.7-27.3-32.9c-18.6-18-19.4-18.9-22.3-26.1c-3.4-8.5-5.5-11-11.9-14.8
			c-4.5-2.7-4.5-2.7-557.1-3.2s-552.6-0.5-558.8-4.7c-6.5-4.4-13.5-6.1-20.4-5c-6.1,0.9-13.9-1-19.4-4.8c-4.5-3.1-6.6-3.8-14.7-4.9
			c-8-1.1-10.5-1.9-16.2-5.4c-4.1-2.5-8-4.1-10-4.1c-6.8,0-14-2.1-19-5.5c-5.7-3.9-13.8-6-19.8-5.1c-6.4,1-14.5-1-20.6-5.1
			c-4.5-3-6.8-3.8-13.5-4.6c-8-1-11.3-2.1-17.1-5.7C3769.4,399.4,3766.9,398.9,3764.2,399.9"/>
	</g>
	<g id="Layer_16">
		<path class="st0" d="M5794,448.1c-1.9,0.6-5.6,2.6-8.3,4.5c-2.8,2-6.4,3.7-8.5,3.9c-2.1,0.2-157.2,0.5-344.8,0.7
			c-324.6,0.2-341.2,0.3-343.7,2c-3.4,2.2-3.5,4.9-0.2,12.9c3.6,8.9,8.5,14.8,29.4,35.7c16.6,16.5,19,19.3,21.1,24.7
			c3.6,9.3,6.4,12.6,27.3,33.2c17.9,17.7,19.7,19.7,22.3,26c4.3,10.3,6.7,13.2,27.5,33.8c18.8,18.6,19.3,19.2,23.6,28.5
			c4.4,9.4,4.7,9.8,25.3,30.2c19.2,19.1,21.1,21.2,23.7,27.5c1.5,3.7,3.7,8.1,4.8,9.8c3.3,4.9,16,18.3,27.9,29.5
			c13.5,12.6,14.9,14.4,18.3,23.5c2.6,6.9,3.3,7.8,24.8,29.1c22.2,22,22.2,22,24.4,29.2c1.8,5.6,3.1,8,6.3,10.8
			c8.3,7.5,0.4,7,107.6,7.2c96.2,0.2,96.2,0.2,101,2.9c9.3,5.3,10.8,5.8,20.2,6.6c5.2,0.4,67,0.7,137.2,0.7
			c127.7-0.1,127.7-0.1,134.6,4c4.6,2.8,8.9,4.5,12.8,5.2c3.5,0.6,32.9,0.9,73.2,0.9c67.3-0.1,67.3-0.1,73,3.3
			c10.8,6.6,6,6.2,83.3,6.3c70.7,0.1,70.7,0.1,77.8,4.4c6.1,3.7,8.2,4.4,15.3,5.2c4.5,0.5,37.3,0.8,72.9,0.7
			c64.6-0.2,64.6-0.2,71.8,4.1c6.4,3.9,8.1,4.4,16.4,5.2c13.2,1.3,48.3,0.1,52.4-1.9c5.1-2.4,6.6-7,6.1-17.7
			c-0.4-8.4-0.8-9.8-4.6-16.9c-4.2-7.8-4.2-7.8-4.2-47c0-25-0.4-40.7-1.1-43.2c-0.6-2.2-2.7-6.4-4.7-9.3c-3.6-5.3-3.6-5.3-3.7-41
			c-0.1-39.2-0.2-39.8-6.3-49c-3.7-5.5-3.7-5.5-4.2-43.1c-0.3-20.7-0.9-38.5-1.4-39.6s-2.5-4.4-4.5-7.4c-4.2-6.2-4.2-6.7-2.7-39.6
			c0.8-18.2-0.4-42.6-2.6-50.9c-0.6-2.1-2.5-6.2-4.4-9c-3.8-5.7-5.4-12.5-5.4-22.3c0-7.5-1.8-11.6-6-13.8
			c-2.6-1.3-36.3-1.5-300.2-1.4C5899.7,447.1,5796.3,447.4,5794,448.1"/>
	</g>
	<g id="Layer_15">
		<path class="st0" d="M3640.9,627c-1,1.8-1.3,5-1.8,17.6c-0.1,1.8-1.8,5.7-4.2,9.2c-3.2,4.8-4.3,7.5-5,12.9
			c-1.9,14.2-1.1,12.8-14.9,26.3c-10.5,10.3-13,13.4-14.4,17.4c-1.5,4.5-1.7,18.4-1.6,173c0,133.1,0.3,168.8,1.3,171.6
			c0.7,2,2.8,5.7,4.6,8.4c2.7,4,3.5,6.4,4.3,13c1.5,12.3,0.3,20.6-3.9,26.3c-6.2,8.6-5.9,5.8-6,56.9c-0.1,52.3,0.7,46.1-7.9,59.7
			c-1.7,2.7-2.1,5.6-2.6,21.6c-0.3,10.2-0.7,18.6-0.8,18.8c-0.1,0.2-3.5,3.9-7.7,8.2c-4.1,4.4-8.3,9.6-9.2,11.7
			c-1.5,3.3-1.8,9.3-2.2,51.3c-0.5,47.6-0.5,47.6-4.7,53.9c-6.5,9.7-6.9,16.2-1.2,21.6c3,2.9,3.1,2.9,20.7,3.8
			c24.5,1.3,32,0.3,40.8-5.4c6.6-4.3,6.6-4.3,19.4-5c11.5-0.6,13.2-0.9,17.7-3.5c2.7-1.6,6.9-4,9.4-5.3c6.4-3.6,8.8-6,11.7-11.7
			c3.8-7.5,13.6-16.7,20.8-19.5c3.3-1.3,8.1-3.6,10.6-5.2c6.2-3.8,13.4-5.1,24.8-4.7c8.2,0.3,10.4,0.8,14.6,3.1
			c2.7,1.5,8.7,4.5,13.2,6.6c8.6,4.1,10.2,6,13.2,15.2c1.7,5.3,6.5,11.5,17.4,22.8c12.4,12.8,17.9,17.1,26.4,20.6
			c3.8,1.6,9.3,4.4,12.2,6.2c2.9,1.8,7.9,4.3,11,5.5c4.7,1.7,7.8,4.2,17.8,13.9c16.8,16.4,16.5,16.3,42.2,16
			c23.1-0.2,23.9,0,31.9,7.2c4.1,3.7,6.4,7,10.7,16c4.7,9.6,6.5,12.3,12.4,17.8c5.1,4.8,8.1,6.8,11.8,7.9c6.7,1.9,38.3,2,43.7,0.1
			c2.1-0.7,7.2-4.5,11.4-8.4c5-4.6,9.8-8,14.2-10c3.7-1.6,9.1-4.5,12.2-6.4c4.3-2.7,7.5-3.7,14.6-4.8c6.8-1,10.6-2.2,15.4-4.9
			c7.6-4.2,13.7-5.3,21.1-3.8c6.1,1.3,9.2,3.9,12.7,10.9c1.2,2.4,3.5,5.1,5.2,6s6.4,3.7,10.6,6.1c6.4,3.7,8.9,4.6,16.4,5.6
			c7.7,1.1,9.7,1.8,15.5,5.6c6.7,4.3,6.7,4.3,19.2,4.9c8.7,0.4,13.5,1,15.6,2.2c10.9,5.9,13.2,6.8,16.4,6.8c6.1,0,12.2,1.9,18.1,5.5
			c3.1,1.9,8,4.4,10.9,5.5s7.1,3.2,9.4,4.6c2.3,1.5,6.8,3.7,9.9,4.9c3.1,1.2,7.7,3.6,10.2,5.4c2.5,1.7,6.4,3.8,8.7,4.6
			c2.3,0.8,7.3,3.2,11.3,5.3c3.9,2.1,8.7,4.4,10.6,5.2c1.9,0.7,5.8,2.9,8.7,4.7c3.9,2.5,7.3,3.8,13.5,4.8c4.6,0.8,9.5,1.9,10.9,2.5
			c5.3,2.1,9,0.8,13.1-4.6c7.9-10.3,8.1-11.1,8.7-30.5c0.5-17.5,0.5-17.5,5-25c4.5-7.4,4.5-7.4,5-25s0.5-17.6,5-25s4.5-7.4,5.1-24.5
			c0.3-9.4,1-17.9,1.4-19s2.4-4.7,4.4-7.9c3.6-5.9,3.6-5.9,4.2-23c0.3-9.4,1-18,1.4-19.1s2.4-4.7,4.4-7.9c3.6-5.9,3.6-5.9,4.1-23.5
			s0.5-17.6,4.9-24.8c4.2-7,4.4-7.6,5.3-19c0.5-6.5,0.7-20.8,0.3-31.8c-0.6-20-0.6-20,2-24.8c5.2-9.5,7.1-13.4,9-17.8
			c1.2-2.9,4.6-7,9.4-11.5c10.9-10.2,15.7-16.6,18.8-24.6c2.1-5.6,4.2-8.7,9.9-14.8c5.7-6.1,7.8-9.2,10.1-15.2
			c2.6-6.6,4.2-8.8,14.4-19.5c11.1-11.6,12.5-13.5,16.8-23.6c1.1-2.6,4.9-7.8,8.5-11.6c4.8-5.1,7.6-9.3,10.5-15.5
			c2.8-6,5.8-10.6,10.4-15.6c4.8-5.3,7.2-8.8,9.1-14c2-5.3,4.3-8.8,9.7-14.7c5.1-5.6,8.1-10.1,10.9-16.2c3.4-7.3,5.4-10,15.2-20.1
			c9.9-10.3,11.7-12.5,14-18.7c2.1-5.4,4.2-8.6,9.7-14.4c5.6-5.9,7.7-9.1,10.2-15.4c2.5-6.2,4.8-9.7,10.3-15.7
			c5.3-5.8,7.7-9.3,9.4-14.1c2-5.5,3.9-8,14-18.3c11.3-11.6,15.1-17,17.9-25.8c0.7-2.2,4.2-7,8.1-11.2c5-5.4,8-9.8,10.8-15.8
			c2.7-5.8,5.8-10.5,10.4-15.5c5-5.4,7.2-8.8,9.3-14.4c2.5-6.5,4-8.5,14-18.8c6.2-6.3,11.7-12.5,12.3-13.7c1.9-3.7,1.4-7.8-1.4-10.4
			c-2.6-2.4-2.6-2.4-160.2-2.7c-203.4-0.3-184.6,0.1-191.4-4.5c-3-2.1-7-4.2-8.9-4.8c-4.6-1.3-126.3-1.3-130.9,0
			c-1.9,0.5-5.9,2.7-8.9,4.8c-5.4,3.8-5.4,3.8-28.5,4.3c-25.5,0.6-22.1-0.2-35.9,8.5c-2.9,1.8-4.9,2-25.1,2c-22,0-22,0-26.9,3
			c-11.3,6.9-9.6,6.5-28.7,6.5c-19.3,0-17.5,0.4-32.4-7.8c-2.5-1.4-6-1.7-19.5-1.7c-18.2,0-15.6,0.7-29.4-8
			c-2.7-1.7-5.4-2.1-20.6-2.5c-17-0.5-17.6-0.6-22.5-3.4c-8.9-5.1-9.9-5.5-17.9-6.5c-12.3-1.5-15.7-5.2-16.4-17.8
			c-0.4-7.6,0.4-10.2,6.6-20.4c2.6-4.3,2.7-5.3,3.1-19.2c0.3-14.2,0.2-14.9-2.3-20c-1.4-2.9-3.5-6.7-4.6-8.5s-2.5-6.3-3.1-10
			c-1.8-12-5-14.3-19.7-14.2c-9.6,0.1-10.5-0.2-20.8-6.6c-4.8-3-4.8-3-94.8-3.2c-49.5-0.1-91.5-0.4-93.4-0.7
			c-1.8-0.3-5.7-2.2-8.6-4.1c-4-2.7-6.9-3.8-12.1-4.6c-3.8-0.6-8.4-1.2-10.1-1.5c-2-0.3-5.4-2.5-9.3-5.9
			C3646.4,624.4,3642.8,623.4,3640.9,627"/>
	</g>
	<g id="Layer_14">
		<path class="st0" d="M4757.6,777.9c-4,1.2-6.5,3.7-9.4,9.5c-1.5,3-7.2,9.8-14.2,17c-10.7,11-11.9,12.6-14.1,19
			c-2,5.8-3.7,8.4-10.1,15.1c-6.2,6.6-8.2,9.5-10.4,15.4c-2.2,5.8-4.2,8.9-10,15c-5.8,6.2-7.8,9.1-10,15.1c-2.5,6.7-3.7,8.2-14,18.3
			c-11.5,11.3-12.9,13.2-16.6,23.1c-1.6,4.2-4.2,7.9-9.8,13.9c-6.3,6.6-8,9.3-10,14.9c-1.9,5.4-3.8,8.4-9.7,14.7
			c-5.8,6.3-7.8,9.4-10,15.2c-2.5,6.6-3.9,8.4-14.9,19.8c-10.2,10.4-12.5,13.5-14.3,18.3c-1.2,3.2-2.1,6.2-2.1,6.7s-3.6,4.7-7.9,9.4
			c-6.4,6.9-8.4,9.9-10.7,15.8c-2.2,5.8-4.2,8.8-10,15s-7.7,9-9.6,14.5s-3.8,8.3-10,15s-8.2,9.7-10.4,15.6
			c-2.5,6.6-3.9,8.5-14.9,19.8s-12.4,13.2-15,19.8c-2.2,5.9-4.2,8.9-10,15.1s-7.8,9.2-10.1,15.2c-2.6,6.8-3.9,8.5-14.7,19.6
			c-10.5,10.8-12.2,13-14.9,19.5c-1.6,4-4.7,9.8-6.7,12.7c-3.7,5.4-3.7,5.4-4.2,39s-0.5,33.6-4.8,40c-4.7,7-4.6,6.3-4.7,27.1
			c-0.1,15.7-0.1,16-6.8,24.8c-3.3,4.3-3.3,4.3-3.8,23s-0.5,18.7-4.1,23.7c-5.4,7.5-6,10.2-5.7,27.5c0.3,16.9,0.3,16.8-6.5,25.8
			c-3.3,4.3-3.3,4.3-3.8,22.5s-0.5,18.2-5,25.6s-4.5,7.4-4.6,24c-0.1,17.6-0.5,19.7-5.3,25.9c-3.6,4.6-4.1,6.1-5.2,15.1
			c-0.8,6.3-1.9,9.6-7.7,21c-3.8,7.4-7.6,14.6-8.5,16s-2.4,4.5-3.3,7s-3.3,7.4-5.4,11s-4.4,8.3-5.1,10.5s-2.8,6.2-4.6,9
			c-1.8,2.7-4.1,7.2-5,10s-2.9,6.9-4.5,9.2c-1.6,2.3-4.1,7.3-5.7,11.1c-1.5,3.8-3.9,8.4-5.3,10.3c-3.5,4.7-4,6.2-4.8,15.1
			c-0.6,6.5-1.4,8.8-4.8,14.5c-2.2,3.7-4.6,8.5-5.2,10.6c-0.7,2.1-2.7,5.9-4.5,8.5c-4.1,5.9-4.5,7.3-5.5,17.2
			c-0.7,6.9-1.3,8.7-4.6,13.5c-3.3,4.8-3.9,6.6-5,15.1c-1,7.9-1.8,10.3-4.2,13.8c-4.8,6.7-5.4,8.5-6.2,17.3c-0.7,7.4-1.2,9-4.5,13.8
			s-3.9,6.5-4.7,14.3c-0.5,5-1.7,10-2.6,11.5c-6.8,10.6-7.1,11.4-8,20.2c-0.8,7.7-1.4,9.5-4.6,14.1c-2,2.9-4.4,7.5-5.3,10.2
			s-3,6.9-4.6,9.3s-4,7-5.2,10.2c-1.3,3.2-3.9,8.5-5.8,11.7s-4.1,7.8-4.8,10.2c-0.9,3.1-3.5,6.8-9,12.7c-5.7,6.1-8.3,9.9-9.9,14.1
			c-1.2,3.2-3.9,8.7-6,12.3c-2.1,3.6-4.6,8.5-5.5,11s-2.9,6.5-4.4,9c-1.6,2.5-3.7,6.8-4.7,9.5c-1,2.8-3.1,6.9-4.7,9.2
			s-4.2,7.4-5.7,11.3c-1.6,3.9-3.5,7.9-4.3,8.8c-3.1,3.5-4.6,8.1-5.5,16.6c-0.8,7.6-1.4,9.5-4.5,14c-2,2.9-4.3,7.2-5.1,9.7
			c-0.9,2.5-3.4,7.4-5.5,11c-2.6,4.4-4,7.7-4,10.1c0,6.9-2,14.3-5.1,18.6c-1.7,2.4-4.1,7-5.5,10.4c-1.3,3.3-3.7,8.2-5.4,10.8
			c-1.6,2.6-3.7,6.7-4.6,9.1c-0.9,2.5-3.1,7-5.1,10.1c-1.9,3.1-4.2,7.6-5,10s-3.1,6.9-5.1,10.2c-3,4.9-3.8,7.3-4.5,14.5
			c-0.9,8.6-1.4,9.7-7.3,18.2c-3,4.3-3,4.3-3,40.9s0,36.6,3,41.4c7.2,11.6,7,10.6,7,29.7c0,15.8-0.2,17.8-2,20.6
			c-8.7,13.7-8,11.2-8,28.9c0,16,0,16,4.2,23c2.3,3.8,4.9,8.9,5.7,11.3c0.8,2.4,3.1,6.9,5,10s4.1,7.5,4.9,9.7
			c2.4,7,10.7,21.3,13.7,23.9c2,1.7,4.7,2.7,8.7,3.1c6.8,0.8,11,2.4,15.5,5.8c7.8,5.9,17.7,5.8,27.2-0.2c3.3-2.1,8.5-4.7,11.4-5.7
			c7-2.4,14.8-9,30.4-25.6c11.2-11.9,13.1-14.4,15.7-20.9c3.6-8.8,6.2-11.3,13.2-12.8c6.6-1.4,12.4-0.6,17.4,2.5
			c9,5.4,11.3,6.3,19.2,7.3c6.8,0.8,9.4,1.7,15,5c3.7,2.2,8.9,4.8,11.5,5.7c3,1.1,7.2,4.1,11.5,8.2c3.7,3.5,8.9,7.4,11.7,8.6
			c2.7,1.2,7.3,3.4,10,4.9c2.8,1.5,9.2,4.8,14.3,7.2c6.7,3.2,10.9,6.1,15.1,10.3c3.2,3.2,7.3,6.5,9.2,7.4s7.7,3.7,12.9,6.2
			c5.2,2.5,12,5.6,15,7c3,1.3,7.1,4.1,9,6.1c5.3,5.6,11.9,10.1,18.7,12.9c3.4,1.4,8.2,3.9,10.6,5.6c2.5,1.7,6.9,4,9.9,5.1
			s7.4,3.3,9.9,4.8c6,3.8,7.2,4.2,16.4,5.2c6.5,0.7,8.9,1.5,13.3,4.5c2.9,1.9,7.9,4.5,11.1,5.7s6.9,2.9,8.3,3.9
			c5.1,3.5,22.2,10.9,25.4,10.9c3.2,0,18.6-6.6,23.7-10.2c1.5-1,5.8-3.2,9.5-4.7c3.7-1.6,10.8-5.3,15.8-8.3
			c7.9-4.8,9.4-6.2,12.5-11.5c1.9-3.3,6.5-9.1,10.1-13c4.4-4.6,7.3-8.9,8.9-12.7c2-4.9,10.8-22.8,17.8-36.1c1.2-2.2,5.5-11,9.8-19.6
			c7.6-15.4,7.8-15.7,15.8-22.7c12.5-10.7,69.1-68.3,72.6-73.8c1.7-2.7,4.1-7.6,5.3-10.9c1.8-5.1,4-7.9,13.7-18
			c6.4-6.6,12.4-13.8,13.4-16s2.7-5.9,3.8-8.1c1.3-2.8,7.7-9.5,20.2-21.2c19.3-18.1,112-111.6,120.6-121.7c2.8-3.3,6-8.5,7.2-11.5
			c1.1-3,3.1-7.4,4.5-9.6c1.3-2.3,20.5-22,42.7-43.8s42.6-42.4,45.5-45.8c3.3-3.8,6.2-8.7,7.8-12.8c2.4-6.3,3.8-8,24.4-28.6
			c21.8-21.8,21.8-21.9,25.2-30.3c3.1-7.8,4.3-9.5,15.2-20.8c6.5-6.8,12.6-14,13.5-16.1c1.3-3,1.7-8.6,2.2-30.7
			c0.5-27,0.5-27,5-34.4c4.3-7.1,4.5-7.7,5.2-18.5c0.4-6.1,0.5-18.1,0.2-26.6c-0.6-15.5-0.6-15.5,2.7-21.5c1.8-3.3,4-7.6,4.8-9.5
			c0.9-1.9,3.6-7.6,6.2-12.5s5.2-10.6,6-12.5s2.8-5.8,4.5-8.5c1.7-2.8,3.7-6.6,4.3-8.6s3-6.7,5.3-10.4c3.4-5.7,4.3-8.3,5.3-15.6
			c1-7.2,1.9-9.9,4.9-14.8c2-3.3,4.4-7.9,5.2-10.3c0.8-2.4,3.1-6.9,5.1-10.1c2.9-4.7,3.8-7.5,4.8-15.1c1.1-7.9,1.9-10.2,5-14.8
			c3-4.6,3.9-7.1,5.1-14.7c1-6.9,2.2-10.7,4.9-15.4c1.9-3.4,4.5-8.7,5.6-11.6c1.2-2.9,3.4-7.2,5-9.5s3.9-6.8,5.1-10.1
			c1.9-5.3,4-7.8,17.3-21.4c14.8-15.1,15.3-15.5,25.6-20.3c10.5-4.9,10.5-4.9,30.8-25.4c19.7-19.8,20.6-20.6,29.5-24.9
			c8.8-4.2,9.9-5.2,30.7-25.7c20.6-20.5,21.8-21.5,28.7-24.1c9.9-3.8,13.7-6.7,30.3-23.5c12.9-13,15.2-14.9,20.6-16.9
			c4.5-1.7,8.3-4.3,14.3-9.7c5.7-5.2,9.9-8.1,13.9-9.5c3.1-1.2,8.1-3.6,11.2-5.5s8.1-4.3,11.3-5.5c4-1.5,7.9-4.1,12.9-8.6
			c5-4.6,9.6-7.7,15.7-10.5c6.4-2.9,10.4-5.7,15.7-10.7c4.7-4.5,8.8-7.4,12.1-8.6c2.7-1,7.9-3.6,11.5-5.7s8.5-4.6,11-5.6
			s6.5-3,9-4.5s7.5-3.9,11.2-5.4c4.8-1.9,8.7-4.5,13.5-9c4.5-4.1,9.9-7.8,15.8-10.7c4.9-2.5,15.5-7.7,23.4-11.7
			c14.4-7.3,14.4-7.3,26.6-7.9s12.2-0.6,19.5-5.1c7.3-4.4,7.3-4.4,24.4-5c17.9-0.6,17.3-0.4,27.7-6.4c3.3-1.9,7.1-2.9,12.9-3.6
			c6.9-0.8,9.3-1.6,14.8-4.9c3.6-2.2,8.6-4.8,11.1-5.7c2.5-1,6.6-3,9.1-4.6c2.5-1.5,6.6-3.5,9-4.4s7.5-3.4,11.2-5.7
			c6.8-4.1,7-4.1,19.1-4.8c9.8-0.5,13.1-1.1,16.4-2.8c2.3-1.2,6-3.1,8.2-4.3c4.1-2.1,4.5-2.2,60.8-2c34,0.1,59-0.2,62.5-0.8
			c3.9-0.7,8.3-2.4,12.8-5.2c6.9-4.2,6.9-4.2,60.7-4.2c53.9-0.1,53.9-0.1,61.1,4.3c7.3,4.4,7.3,4.4,19.9,5c13.3,0.7,14.5,1,20.1,4.6
			c1.9,1.3,6.3,3.4,9.7,4.7c3.4,1.3,8.1,3.8,10.6,5.5s7.1,4.1,10.3,5.3c4.9,1.8,7.8,4.1,17.9,13.9c10.8,10.6,12.7,12,19.5,14.6
			c7.1,2.7,8.4,3.8,23,18.3c18.5,18.3,19.3,19,29.2,23.1c7.3,3,8.4,3.9,20.5,16.8c19.5,20.7,29.8,29.5,38.6,32.9
			c5.1,2,9.1,4.5,13.6,8.6c8,7.2,10,7.5,21.1,3.1c3.5-1.4,10.5-4.7,15.5-7.2c5-2.6,10.4-5.2,12.1-5.8c3.4-1.3,14.6-8.1,18.6-11.1
			c1.4-1.1,5.1-6.2,8.3-11.4c6.2-10.3,7.6-15.4,7.7-28.2c0-6,0.5-7.8,3.1-12.5c6.1-10.8,6.1-10.9,6.8-23.9
			c0.6-12.4,0.7-12.7,4.4-18.7c2.9-4.7,4-7.8,4.8-13.4c1.2-9,2-10.9,5.7-15.2c5-5.7,5.5-7.7,6.2-21.9c0.6-13.1,0.7-13.7,4.3-20.5
			c2.9-5.4,3.9-8.8,4.6-15.2c0.7-6.5,1.6-9.3,4-13c1.7-2.6,4-7.3,5.2-10.4s3.3-7.4,4.7-9.5c1.4-2.1,3.9-6.8,5.4-10.5s4.1-8.7,5.7-11
			c4.4-6.4,5.2-10.6,5.2-28.3c0-18.1-0.6-21.4-5.8-29.3c-3.7-5.7-3.7-5.7-4.2-43.2c-0.6-41.4,0-37.6-7.4-49.6
			c-2.6-4.2-3-5.8-3.5-16.1c-0.6-11.2-0.7-11.5-3.8-14.6c-3.2-3.2-3.2-3.2-35-3.7c-31.7-0.5-31.7-0.5-37.8-4.3
			c-3.3-2.1-7.6-4.2-9.5-4.8c-2.3-0.7-27.5-1-72.5-0.8c-69,0.2-69,0.2-73.5-2c-2.5-1.2-6.5-3.4-9-4.9c-4.5-2.7-4.5-2.7-77-3.2
			s-72.5-0.5-78.5-4.3c-3.3-2.1-7.6-4.2-9.5-4.8c-2.2-0.6-28.8-1-72.8-0.9c-77.1,0.1-69,0.8-81.7-6.6c-5-2.9-5-2.9-142-3.4
			c-79.9-0.3-137.8-0.9-139-1.4c-1.1-0.5-3.8-2.1-6-3.6s-5.8-3.2-8-3.8c-2.8-0.8-35.2-1.1-110.5-1.1c-58.6,0-108.1,0-110.1,0
			c-2.5,0-5.7-1.4-11-4.8c-7.4-4.8-7.4-4.8-35.4-5.2c-28-0.5-28-0.5-34-4.3c-3.3-2.1-7.6-4.2-9.5-4.8c-2.1-0.6-15.2-1-32.5-0.9
			c-30.8,0.2-31.4,0.1-38.8-4.9c-7.1-4.8-9.3-5.2-35.7-5.2c-27.1,0-24.4,0.5-39.5-7.8c-2.6-1.4-6.7-1.7-29-1.8
			c-27.5-0.1-28.4-0.2-35.8-5.2c-2.3-1.6-5.1-3.2-6.2-3.7s-14.4-1.1-29.6-1.4c-27.6-0.6-27.6-0.6-33.1-4.2c-8.4-5.6-11.2-6-37.6-5.7
			c-25.2,0.2-26,0.1-33.5-4.9c-2.3-1.6-5.1-3.2-6.2-3.7s-16.6-1.1-34.5-1.4c-32.5-0.5-32.5-0.5-39.4-4.7c-4.1-2.5-8.8-4.5-11.5-4.9
			c-2.5-0.4-13.4-0.4-24.1-0.1c-22.2,0.7-26.2,0.1-33.7-4.8C4776.6,777.3,4765.7,775.5,4757.6,777.9"/>
	</g>
	<g id="Layer_13">
		<path class="st0" d="M5974.1,1218c-1.9,0.5-6.1,2.9-9.3,5.2c-5.9,4.2-5.9,4.2-65.6,3.8c-63.3-0.4-65.6-0.2-71.6,4.3
			c-6.4,4.8-9,5.6-19.2,5.6c-11.7,0-16,1.1-22.5,5.5c-2.7,1.8-6.5,3.9-8.6,4.5c-2.1,0.7-6.7,2.9-10.3,5c-3.6,2.1-8.5,4.6-11,5.4
			c-2.5,0.9-6.8,3.1-9.6,5.1c-6,4.1-10.1,5.4-16.9,5.5c-5,0-9,1.5-17,6.5c-3.8,2.3-4.8,2.5-19,2.5c-16.7,0-21.4,0.9-26.5,4.9
			c-6.4,5.1-7.9,5.5-20.7,5.7c-12.5,0.2-15.4,1-21.2,5.5c-1.3,1-4.8,2.7-7.8,3.9c-3,1.1-8.4,3.8-12,6s-8.8,4.7-11.5,5.6
			c-3.5,1.2-7.2,3.7-12.7,8.9c-5.7,5.3-9.3,7.8-13.7,9.5c-3.3,1.2-7.9,3.5-10.4,5.1s-7.6,4.2-11.5,5.8c-3.9,1.6-8.7,4.1-10.9,5.6
			c-2.1,1.5-6.6,3.7-9.9,4.9c-4.5,1.6-8,4.1-14.2,9.8c-6.6,6.2-9.5,8-15,10c-5.5,1.9-8.3,3.8-14.5,9.6c-5.6,5.3-9.3,7.8-13.6,9.4
			c-3.2,1.2-8.4,3.7-11.4,5.6c-3.1,1.9-8.2,4.4-11.5,5.6c-4.5,1.7-7.8,4-13.5,9.4c-5.6,5.3-9.1,7.8-13.4,9.4
			c-10.3,3.9-11.9,5.1-28.1,21.6c-15.5,15.8-16.2,16.4-23.5,19.1c-7.4,2.7-7.9,3.1-30,25c-22.2,21.9-22.6,22.2-30.6,25.4
			c-8,3.2-8.4,3.5-30,25c-21.3,21.1-22.1,21.8-29.4,24.6c-6.2,2.4-8.8,4.2-15.3,10.4c-6.8,6.6-8.3,8.7-11.2,15.8
			c-1.9,4.5-4.3,9.5-5.5,11.2c-1.2,1.6-3.4,6.1-4.9,9.9s-4,8.5-5.4,10.3c-3.2,4.3-3.7,6-4.7,15.9c-0.7,6.8-1.3,8.6-4.3,12.7
			c-4.3,5.8-4.7,7.1-5.7,17.4c-0.7,6.7-1.3,8.8-3.9,12.4c-1.7,2.4-4.4,7.5-5.9,11.3s-4,8.4-5.4,10.3c-3.2,4.3-3.7,6-4.7,15.8
			c-0.7,6.5-1.4,8.7-4,12.6c-1.8,2.6-4.3,7.5-5.6,10.8c-1.3,3.4-3.6,7.8-5,9.8s-3.9,6.9-5.5,10.9c-1.6,3.9-3.9,8.5-5,10.1
			c-1.2,1.6-3.2,5.7-4.5,9.1s-4.1,8.6-6.2,11.6c-3.8,5.5-3.8,5.5-4.3,34.1c-0.5,28.7-0.5,28.7-4.1,33.6c-5.7,7.8-5.9,9.3-5.9,37.1
			c0,15.4-0.4,26.4-1.1,28.1c-0.6,1.5-6.6,8.4-13.3,15.3c-8.4,8.6-12.8,13.9-14.1,17c-4.8,11.8-5.8,13.1-20.4,27
			c-22.2,21.3-27.4,27.4-30.6,36.1c-2.7,7.4-2.7,7.4-46.5,50.9c-24.1,23.9-45.2,45.2-47,47.2s-4.7,7.3-6.5,11.6
			c-3.3,7.9-3.3,7.9-73,77.3c-38.4,38.2-71,71.2-72.5,73.4s-3.8,6.9-5.1,10.5c-2.1,5.7-3.7,7.9-14.2,18.6
			c-10.7,11-12.2,12.9-15.2,20.2c-3.4,8.1-3.4,8.1-42,46.3c-21.3,21-40,39.9-41.7,42s-4.5,7.4-6.3,11.8c-1.8,4.4-4.3,9.3-5.5,11
			s-3.3,5.8-4.6,9.2c-1.3,3.4-3.7,8.2-5.4,10.8c-1.6,2.6-3.7,6.7-4.6,9.1c-0.9,2.5-3.3,7.4-5.4,11s-4.5,8.5-5.2,10.9
			c-0.9,3.1-3.5,6.8-9,12.7c-6.2,6.7-8.2,9.7-10.5,15.6c-3.7,9.8-13,19.4-21.9,22.7c-3.3,1.2-8.3,3.7-11,5.5
			c-2.8,1.8-7.9,4.4-11.4,5.6c-3.5,1.3-9,4.3-12.2,6.6c-7.7,5.6-7.8,8-1,15.8c3,3.5,5.7,7.9,7.1,11.8c3,8.3,4.5,10.4,17,23.2
			c8.6,8.9,11.1,12.1,13,17c1.3,3.3,3.6,7.8,5.1,10c3.1,4.4,14.1,16,23.1,24.3c7.3,6.7,9.9,10.3,12.8,17.5c1.6,4,4.6,8.3,9.6,13.7
			c4.9,5.3,7.8,9.5,8.9,12.6c0.9,2.6,3.3,7.7,5.5,11.3c2.1,3.6,4.4,8.2,5,10.1c0.6,2,2.6,5.8,4.3,8.5c1.7,2.7,4.2,7.5,5.4,10.8
			c1.3,3.2,3.6,8,5.3,10.5c1.6,2.5,3.9,7.1,5,10.2c1.1,3.1,3.4,7.7,5.1,10.4c1.7,2.6,3.9,7,4.9,9.7s3.1,7,4.7,9.6
			c1.5,2.6,4.2,8,5.9,11.9c1.7,3.9,4.1,8.5,5.3,10.2c1.2,1.7,2.9,5,3.7,7.4c0.8,2.4,3,6.8,4.9,9.9c1.9,3.1,4.3,8,5.5,11
			c1.1,3,3.5,7.7,5.2,10.4s3.8,6.7,4.5,9s2.9,6.5,4.8,9.6s4.3,8,5.5,11c1.1,3,3.5,7.7,5.2,10.4s3.7,6.6,4.4,8.6
			c2.4,6.8,4.7,10.4,11.3,17.4c5.1,5.4,7.3,8.6,9.5,14.4c2.2,5.7,4.4,9.1,9.6,14.6c4.8,5.1,7.5,9.2,9.5,14.1
			c3.9,9.5,5.3,11.3,17.5,23.9c8.9,9.2,11.1,12,12.9,17c2.5,6.7,5.4,10.9,11.8,17.3c2.8,2.8,5.8,7.3,8.3,13
			c2.9,6.3,5.7,10.4,10,14.9c5.4,5.6,10.9,14.8,10.9,18.2c0,2.6,10.4,11.7,14.9,13.2c2.4,0.8,7.1,3.2,10.4,5.3s8.5,4.8,11.6,5.9
			c4.6,1.7,7.9,4.3,17.6,13.7c10.2,9.9,13,12.1,19,14.5c3.8,1.6,9.2,4.3,12,6s6.6,3.7,8.5,4.5s7.6,3.4,12.5,6
			c4.9,2.5,10.6,5.3,12.5,6.2s5.8,3,8.5,4.8c4,2.6,6.7,3.4,13.3,4.1c5.9,0.7,9.6,1.7,13,3.6c9.2,5.3,10.7,5.8,20.6,6.6
			c5.5,0.5,42.5,0.8,82.1,0.6c72-0.2,72-0.2,76.5,2.5c2.4,1.5,6.5,3.7,9,4.9c4.5,2.3,4.5,2.3,288.5,2.6
			c181.8,0.2,286.3-0.1,290.4-0.7c4.5-0.7,8.3-2.2,13.1-5.1c6.8-4.1,6.8-4.1,350.6-4.1c189.1,0,349.6-0.4,356.6-0.8
			c12.2-0.7,12.8-0.9,15.8-3.7c4-3.8,4.6-6.7,6.1-28.4c1.8-26.7,0-61.6-3.5-67.9c-8.3-15.4-7.6-4.2-7.6-113.5
			c0-68-0.3-100.4-1.1-103.1c-0.6-2.2-2.7-6.3-4.6-9.2c-3.5-5.2-3.5-5.2-3.7-106c-0.2-110.4,0.2-104.2-6.3-113.9
			c-3.5-5.3-3.5-5.3-3.7-391.6c-0.1-306-0.4-387-1.4-389.8c-0.7-1.9-2.9-5.9-5-9c-3.8-5.5-3.8-5.5-3.3-18.5
			c0.9-22.2,0.4-77.7-0.7-85s-2.4-10.6-7.3-19c-2.9-5-2.9-5-3-54c0-28.5-0.5-50.8-1-53.3c-0.5-2.4-2.6-6.8-4.7-9.8
			c-3.7-5.6-3.7-5.6-3.8-56.2c-0.1-55.7,0-54.6-6.4-64.2c-3.7-5.5-3.7-5.5-4.2-58.5c-0.6-58.7,0.3-52-8.4-65.7
			c-1.7-2.7-1.9-5.2-1.8-31.1c0.2-37.5-1.2-75.4-2.9-79c-1.4-3.1-5.3-4.5-7.4-2.8c-0.8,0.6-1.9,3.4-2.6,6.1s-3.1,7.7-5.3,11.1
			c-4.2,6.2-4.2,6.2-4.3,19.5c-0.2,14.3,0.1,13.5-6.8,23.4c-2.9,4.1-3,4.8-3.5,17.9c-0.3,7.5-0.9,14.2-1.4,15.1
			c-0.5,0.8-2.1,3.1-3.6,5s-3.7,6.4-5,10c-3.4,9.4-12.7,18.6-22.6,22.4c-4,1.5-8.4,3.7-9.8,4.8c-1.4,1.1-6.2,3.5-10.7,5.4
			c-4.5,1.8-8.8,4-9.7,4.8c-1.7,1.5-20,10.5-24,11.8c-3.6,1.1-7.1-0.7-13.7-7.1c-4.3-4.2-8.4-7-14.5-9.8c-8.1-3.8-9.4-4.9-27.4-23.1
			c-20.3-20.6-23.7-23.4-33.1-27c-5.2-2-7.7-4.1-19-15.8c-15.2-15.7-21.9-21-30.6-24.3c-5.4-2-8.1-4.1-17.9-13.5
			c-11.6-11.1-11.6-11.1-36.5-23.5s-24.9-12.4-35.7-12.6c-11.4-0.2-13.5-0.9-23.8-7.1c-4.5-2.7-4.5-2.7-53.5-2.9
			C5996.4,1217.1,5976.2,1217.4,5974.1,1218"/>
	</g>
	<g id="Layer_12">
		<path class="st0" d="M3724,1368.1c-1.9,0.5-4.9,2-6.5,3.3c-1.7,1.2-5.2,3.4-8,4.8c-5.9,3-8.7,5.9-10.9,11
			c-3.2,7.8-15.5,18.4-24.6,21.2c-1.4,0.4-4.4,2.1-6.7,3.6c-6.4,4.4-8.9,5-21.4,5.2s-11.2-0.2-24.3,8.1c-3,1.9-4.6,2-32.6,1.7
			c-16.2-0.2-30.8,0.1-32.4,0.6c-1.6,0.5-3.9,2.1-5,3.6c-1.9,2.6-2.1,4.5-2.6,30c-0.5,27.2-0.5,27.2-4.3,32.7c-2.1,3-4,7-4.3,8.9
			s-0.6,25.9-0.7,53.4c-0.2,55.4,0.6,49-8.2,62.9c-1.8,2.8-2,5.4-2.5,26.3c-0.5,23.1-0.5,23.1-4.3,28.6c-4.8,7-6.1,11.5-4.7,16.5
			c1.2,4.4,3.3,6.6,9.9,10.2c9,4.9,11,11.9,9.8,34.2c-0.8,14.8,0.3,20.7,5.1,27.6c3.7,5.3,3.7,5.5,4.3,18.3
			c0.6,11.4,1,13.5,3.3,17.7c1.5,2.6,4.2,8.1,6.2,12.3s5,9.7,6.8,12.5c3.2,5,3.2,5,3.7,42.5c0.6,43.3,0.2,41.4,10.4,52
			c3.5,3.6,6.9,7.7,7.7,9c1.1,2,1.5,9.6,1.9,35c0.5,32.5,0.5,32.5,3.5,37.3c6.8,11,6.4,7,6.6,54.4c0.2,43.2,0.2,43.2-3.4,48.5
			c-4.8,7-5.4,9.7-2.9,12.9s16.8,12,24.9,15.2c3.4,1.4,7.5,3.4,9.1,4.6c1.6,1.1,5.3,3,8.3,4.1c3,1.2,8.3,4,11.8,6.3
			c6.4,4.1,6.4,4.1,19,4.7c10.8,0.5,13.3,0.9,17.1,3c11.1,5.9,11.2,6,22.5,6.4c11.6,0.4,16,1.7,21.7,6c5.9,4.5,8.2,4.9,30.3,5
			c19.7,0.1,21.3,0.3,25,2.4c14.8,8.3,10.6,7.7,56.1,7.8c41.2,0.1,41.2,0.1,47.5,4.2c3.5,2.3,8.4,4.6,10.8,5.2
			c2.5,0.6,17.2,1,33.4,1.1c28.9,0,28.9,0,36.3,4.1c7.3,4,7.7,4.1,20.2,4.8c12.8,0.7,12.8,0.7,19.7,5.2c6.8,4.5,6.8,4.5,24.9,5
			c18.1,0.5,18.1,0.5,24.1,4.2c7.6,4.7,11.4,4.9,17.7,0.7c5.6-3.7,7.3-7.2,8.6-17.5c1-8,3.3-13.2,17-39c1.2-2.2,3.2-6.5,4.6-9.5
			s3.4-7.1,4.5-9s3.4-6.4,5.1-10s4.2-8.5,5.5-11c1.6-2.9,2.8-7.3,3.4-12.3c0.8-6.3,1.7-9,4.6-13.7c2-3.2,4.3-7.8,5.1-10.2
			c0.8-2.4,3.4-7.4,5.6-11.1c3.4-5.6,4.2-7.9,4.6-13.5c0.4-5.7,1.5-8.8,7-20.2c3.6-7.4,7.4-14.7,8.5-16.3c1.1-1.5,3-5.5,4.3-8.9
			s3.7-8.2,5.4-10.8c1.6-2.6,3.7-6.7,4.6-9.1c0.9-2.5,3.3-7.4,5.4-11s4.6-8.7,5.6-11.3c1.1-3.1,4.2-7.4,8.5-12
			c6.4-6.8,9.8-12.1,11.5-17.7c0.4-1.4,2.3-5,4.1-8.1c1.9-3.1,4.1-7.6,4.9-10s3.1-6.9,4.9-9.9c1.9-3,4.4-8,5.5-11
			c1.2-3,3.5-7.6,5.1-10.1c2.3-3.5,3.3-6.9,4.4-13.8c1.1-7.5,2.1-10.4,5.4-15.8c3.3-5.6,4.1-8,5-15c0.8-6.8,1.6-9.4,4.6-14.2
			c2.9-4.7,3.9-7.7,5-15c1.1-7.4,2.1-10.3,5.1-15.1c3-4.9,4-7.8,5.1-15.1c1.1-7.3,2.1-10.3,5-15c3.3-5.4,5.2-12.7,5.4-20.8
			c0-0.9,1.7-4.2,3.7-7.5s4.7-8.6,6-11.8c1.3-3.2,3.8-8.1,5.5-10.7c2.4-3.8,3.4-7,4.5-14c1.1-7.5,2.1-10.3,5.3-15.8
			c2.2-3.6,4.3-7.5,4.7-8.6c1.2-3.6,13.7-28.9,15.6-31.7c1-1.5,3.1-5.8,4.7-9.5c1.6-3.8,3.9-8.6,5.3-10.8c1.3-2.2,3.4-6.6,4.6-9.7
			s3.6-7.9,5.4-10.5c2.7-3.9,3.3-5.9,3.6-11.2c0.5-9.4-0.9-10.9-12.2-12.5c-6.8-1-9.9-2-13.8-4.6c-2.8-1.8-8.4-4.7-12.3-6.4
			c-4-1.7-8.6-4.1-10.3-5.3c-1.7-1.2-5-2.9-7.4-3.7c-2.4-0.8-6.8-3-9.8-4.9s-7.9-4.3-10.7-5.4c-2.9-1.1-7.4-3.3-10-4.8
			c-2.6-1.6-7.5-4-10.8-5.4s-7.9-3.8-10.2-5.2c-4.8-3-6.2-3.4-16.2-4.7c-5.9-0.7-8.4-1.6-12.5-4.4c-6.2-4.3-13.1-6.1-19.7-5.3
			c-7.4,0.9-14.6-0.8-20.4-4.8c-5-3.4-12.1-5.5-18.9-5.5c-1.8,0-5.2-1.1-7.6-2.5s-8.1-4.3-12.6-6.4c-5.3-2.5-10.5-6.1-14.6-9.9
			c-11.3-10.5-16.5-11.7-24.8-5.6c-4.1,3-6.1,3.7-12.6,4.5c-10.9,1.3-11.1,1.4-17.2,5.4c-3,2-8.2,4.6-11.5,5.8
			c-4.5,1.7-7.8,3.9-13.5,9.3c-4.1,3.9-8.6,7.7-10,8.5c-1.9,1.1-7.7,1.3-25.2,1.3c-26.5-0.1-26.6-0.2-36-11
			c-2.9-3.4-9.3-9.8-14.3-14.3c-8.5-7.7-11.7-11.6-15.7-19c-2.9-5.2-6.5-6.1-26.5-6.1c-9.9,0-19.5-0.5-21.8-1.1
			c-3.1-0.9-6.1-3.4-13.4-10.9c-10.8-11.3-14.3-14-23.1-17.4c-3.5-1.4-8.4-3.8-11-5.4c-2.5-1.6-7.1-3.9-10-5.1
			c-7.1-2.8-8.2-3.7-19.9-17.1c-5.5-6.3-16.4-17.3-24.2-24.4c-7.8-7.2-17.4-16-21.4-19.7c-4.6-4.3-8.6-7.1-11.1-7.7
			C3742.6,1366.7,3728.7,1366.7,3724,1368.1"/>
	</g>
	<g id="Layer_11">
		<path class="st0" d="M3594.3,2140.4c-3.6,2.5-3.5,5.1,0.7,13.1c3.9,7.4,3.9,7.4,3.9,28.3c0,23.2-0.8,19.8,8,35.7
			c4.3,7.8,6.2,9.9,12.8,13.6c6,3.4,9.2,8.5,9.3,14.9c0.1,6.1,1.7,11.1,5.5,16.5c3.1,4.5,3.8,6.6,5,15s1.9,10.4,5,15s3.9,6.7,5,14.8
			c0.7,5.2,1.9,10.5,2.5,11.7c0.7,1.3,4,5.3,7.5,8.9c3.4,3.7,6.8,7.7,7.6,9.1c0.8,1.5,1.6,7.4,1.9,15c0.5,11.7,0.8,12.9,3.5,17.3
			c7.2,11.5,6.5,0.3,6.5,112.3c0,55.5,0,102,0,103.5s-1.9,5.4-4.1,8.7c-2.2,3.3-4.8,8.2-5.7,10.9c-0.9,2.6-3.2,7.1-5.1,10
			c-6.5,9.8-6.3,17.9,0.5,28.6c2.2,3.5,4.9,7.8,5.9,9.6c1.2,2.1,4.4,4.8,8.4,7.2c7.4,4.4,15.4,12.1,17,16.4c1,2.6,0.7,3.7-2.1,9.2
			c-2.9,5.7-3.6,8.8-4.9,22.4c0,0.3-1.9,3-4.1,6c-4.6,6.1-6.4,11.5-5.4,16.4c1.6,8.4,8.9,10.1,16.7,4c4-3.1,5.8-3.7,13.4-4.8
			c7.1-1,10-1.9,14.8-4.9c3.3-2,8-4.4,10.5-5.4s6.5-3,9-4.5s7-3.7,10-4.8c3.1-1.1,7.7-3.4,10.2-5c2.6-1.6,8-4.3,12-6
			c6.3-2.6,9.1-4.7,19.8-14.8c10.8-10.2,13.3-12.1,19.5-14.5c8.7-3.4,19.3-12.4,38-32.1c12.1-12.8,13.6-14.1,21.4-17.7
			c7.1-3.3,10.1-5.6,19.5-14.8c6.8-6.6,13.7-12.3,17.8-14.7c5.5-3.1,7.2-4.8,9.4-8.9c1.5-2.8,4-7.2,5.7-9.8
			c2.2-3.5,3.3-7.1,4.3-13.9c1.1-7.5,2.1-10.3,5.4-15.8c3.4-5.6,4.1-7.9,4.9-14.9c0.8-6.7,1.6-9.4,4.4-14c1.9-3.1,4.5-8.4,5.8-11.7
			c3.5-8.7,13.1-18.2,22.4-21.9c3.8-1.5,8.2-3.7,9.8-4.8c1.5-1.1,5.5-3.1,8.8-4.4c3.3-1.3,8.1-3.7,10.7-5.2c2.6-1.6,5.6-3.2,6.7-3.6
			c1.1-0.4,19.5-0.9,41-1.1c41.6-0.3,44.9-0.7,47.4-5.4c1.8-3.3,1.3-5.7-2.5-11.1c-2-2.9-4.2-7-5-9.2s-3.2-7.2-5.3-11.2
			c-2.1-3.9-4.2-8.2-4.6-9.6c-0.4-1.4-2.6-5.6-4.9-9.5c-4.2-7-4.2-7-4.2-26c0-18,0.1-19.2,2.2-22.5c1.2-1.9,3.4-5.9,4.8-8.8
			c2.5-5.1,2.6-5.8,2.3-20.6c-0.3-15.3-0.3-15.3-3.9-20.7c-5.5-8.3-6.3-11.6-5.5-24c0.4-5.9,0.4-16.5,0-23.4
			c-0.9-15.4-1.8-17.1-12.4-23.2c-13.8-7.9-12.8-7.7-31-7.7c-18.2-0.1-15.6,0.7-29.3-8c-2.5-1.6-5.6-2.1-16.1-2.5
			c-12.8-0.5-13.1-0.6-18-4c-8.6-5.9-9.7-6.1-42.7-6c-32.6,0.1-30.5,0.4-40.8-6.1c-5.4-3.4-5.4-3.4-48-3.9s-42.6-0.5-50.1-5
			s-7.5-4.5-29-4.5c-23.6,0-21.9,0.3-33.6-6.9c-4.3-2.7-5.6-3-17.8-3.6c-13.1-0.7-13.1-0.7-19.4-4.8c-6.7-4.4-13.9-6.1-20.5-4.9
			c-5.4,1-13.7-1.1-19.2-4.9c-2.8-1.9-6.8-4.1-9-4.9c-3.4-1.2-24.5-11.8-34-17C3597.8,2138.5,3597,2138.5,3594.3,2140.4"/>
	</g>
	<g id="Layer_10">
		<path class="st0" d="M4247.7,2421.8c-5.1,3.2-6,4.6-8.9,12.9c-2.6,7.4-4.8,9.6-13.3,12.8c-6.1,2.3-8.3,3.9-15.8,11.3
			c-6.7,6.7-8.9,9.5-9.6,12.6c-0.5,2.2-0.9,17.3-0.8,33.5c0.1,29.5,0.1,29.5,4.6,37s4.5,7.4,5,160c0.5,152.5,0.5,152.5,5.2,160.5
			c4.8,8,4.8,8,4.8,24c0,13.4,0.3,16.7,1.9,20c2.6,5.6,5.5,7.9,9.7,7.8c4.6-0.1,9.5-3.6,19.2-13.7c6.7-7,8.4-9.5,11.3-16.6
			c3.1-7.6,4.4-9.5,13.8-19.2c12.2-12.6,15.9-14.8,25.5-14.8c8.6,0,11.8,1.4,19.3,8.4c4.7,4.4,6.7,7.2,8.9,12.4
			c5.9,14.3,7,14.1,25.7-5.4c12.4-12.9,14.8-16,16.7-21c1.2-3.2,3.9-8.8,6-12.4c3.2-5.4,4-8,4.8-14.8c0.8-6.9,1.6-9.4,4.7-14.3
			c2.9-4.8,3.9-7.7,5-15c1.1-7.4,2.1-10.3,5.3-15.7c3.3-5.5,4.1-8.1,4.9-14.8c0.8-6.5,1.8-9.7,4.9-15.5c2.2-4,4.6-8.9,5.3-10.8
			c0.7-1.9,2.9-5.8,4.7-8.7c2.7-4.2,3.7-7,4.8-14.4c1.1-7.7,2.1-10.4,5.6-16.1c4.2-6.9,4.2-6.9,4.8-19.7c0.6-12.7,0.7-12.9,4.5-19
			c3.1-5.1,4.1-7.9,5.2-15.3c1.1-7,2.1-10.4,4.7-14.7c4.8-7.9,4.9-8.3,5.6-21.6c0.6-12,0.6-12.1,5.1-19.4c4.4-7.3,4.4-7.4,5.1-19.4
			c0.5-8.5,1.3-13.8,2.8-17.8c1.7-4.6,1.9-6.3,1.1-8.5c-1.7-4.4-4.8-7.1-10.3-8.9c-2.8-0.9-8-3.3-11.6-5.4
			c-3.6-2.1-8.7-4.6-11.3-5.6c-3-1.1-7.6-4.3-12.1-8.4c-4-3.6-8.3-7.1-9.7-7.7c-30.5-14.6-34.5-16.8-41.4-23.3
			c-5-4.7-8.7-7.3-13-8.9c-3.3-1.3-8.9-4-12.5-6.1s-8.7-4.7-11.4-5.7c-2.9-1.1-7.4-4.1-11-7.4c-7.4-6.9-10.8-9.1-16.6-11.4
			c-2.5-1-7.2-3.3-10.5-5.3c-4.8-2.9-7.9-3.8-15.4-4.9c-8-1.1-10.2-1.9-14.6-4.9C4258,2418,4254,2417.8,4247.7,2421.8"/>
	</g>
	<g id="Layer_9">
		<path class="st0" d="M4013.9,2478.2c-2,0.7-5.6,2.7-8,4.3c-2.4,1.7-7.1,4-10.3,5.2s-7.8,3.5-10.2,5.1s-5.4,3.4-6.7,3.9
			c-3.8,1.5-8.4,5.8-9.8,9.3c-0.7,1.8-2.9,5.6-4.8,8.5c-2.9,4.4-3.7,6.8-4.7,14.7c-1.1,8.3-1.7,10.1-5.3,15.6
			c-2.3,3.4-4.2,6.7-4.2,7.3c-0.5,11.1-1.9,17-5.1,21.9c-1.9,2.9-4.3,7.7-5.4,10.7c-3.5,10-14.8,20.1-26.9,24.1
			c-2.9,0.9-7.4,4.6-16.1,13.2c-10.8,10.6-13,12.2-19.5,14.9c-4,1.6-8.9,4.1-10.9,5.4c-1.9,1.3-12,11.3-22.4,22.2
			c-19.4,20.3-20,20.8-30,24.4c-5.1,1.8-7.7,3.9-18,14c-10,9.8-13,12.2-17.6,13.8c-3,1.1-7.1,2.9-9,4s-6.4,3.4-10,5s-8.5,4.1-11,5.5
			s-6.5,3.4-9,4.5c-9.4,4.1-11.5,5.4-11.8,7.5c-0.6,4,2.2,4.9,16.2,5.2c14.1,0.3,13.3,0.5,23.9-6.1c3.3-2.1,6.5-3,12.5-3.7
			c9.9-1.1,12.6-2.5,20.3-10.2c4.5-4.5,7.2-8.4,10.4-15.2c5.5-11.5,15.1-22.3,21.1-23.7c4.6-1.1,33.6-0.2,38,1.2
			c3.7,1.1,26.9,23.6,28.6,27.6c1.4,3.3,2,83.2,0.7,87.7c-0.5,1.6-2.4,5.3-4.3,8.1s-4.3,7.5-5.4,10.5c-1,3-3.3,7.6-5,10.3
			s-3.9,7.1-4.8,9.9c-1.2,3.6-3.6,7.1-8.7,12.4c-8.4,8.8-9.5,9.5-15.4,9.5c-3.7,0-5.6-0.7-10.4-4.1c-7.9-5.6-12.6-6.4-33.8-5.9
			c-13.7,0.3-18.3,0.8-20.6,2c-4.4,2.3-19.3,18-19.9,20.9c-0.3,1.3-0.8,3.6-1.1,5.1c-1,4.6,1,11.6,4.9,17.2c2.8,4.1,3.9,7,4.7,12.3
			c2,13.6,2.8,15.3,9.8,22.8c9.3,10,9,9.4,10.5,20.1c1.2,8.4,1.9,10.4,5,15s3.9,6.7,5,14.7c0.7,5.2,2.1,10.9,3,12.7
			c2.2,4.2,18.7,21.4,24,24.9c2.2,1.5,6.9,3.9,10.5,5.4c5.4,2.3,8.2,4.4,16.5,12.8c10.5,10.6,14.4,13.4,23.6,16.8
			c4.5,1.7,7.8,4.2,17.1,13.3c6.4,6.2,12.2,12.6,13,14.2c0.8,1.6,1.8,6.4,2.2,10.4c0.9,9.4,2.8,13,11.2,21.2
			c12.5,12.2,21,13.7,33.1,5.9c3.2-2,8-4.6,10.7-5.6s7.5-3.4,10.5-5.1c4-2.4,7.6-3.6,13.4-4.4c13.1-1.8,17.4-4.9,22.6-16.5
			c2.5-5.5,5.4-9.3,14.1-18.3c16-16.6,17.4-20.5,11.4-30.5c-1.9-3.1-4.4-8.3-5.6-11.4c-1.2-3.2-3.2-7.3-4.4-9.2
			c-1.3-1.9-4.1-7.4-6.3-12.2c-2.9-6.2-5.9-10.6-10.6-15.6c-7.3-7.8-9.2-12.5-8.3-20.4c1.3-10.8,9.4-19.6,25.5-27.6
			c15.1-7.5,15-7.5,28.1,5.6c5.9,5.9,11.2,11.5,11.9,12.4s1.9,6,2.6,11.3c1.1,7.5,2,10.6,4.4,14.3c1.7,2.6,4.3,8,5.9,11.9
			c3.5,8.6,4.2,9.6,19.2,25c13.3,13.8,16,15.2,19.7,10.9c2-2.3,2.3-3.8,2.4-10.9c0.1-14.6,1.6-27,3.9-31.5c1.2-2.3,4.7-7,8-10.4
			c3.2-3.5,6.4-7.4,7.1-8.7c0.7-1.4,1.6-8.1,2-15.5c0.4-7.5,1.2-14.1,2-15.6c2.1-4,21.2-23,25-25c1.9-1,6.2-2.1,9.5-2.5
			c13-1.6,13.8-3.3,13.3-29.5c-0.3-18.6-0.3-18.6-4.7-25.3s-4.4-6.7-4.2-150.4c0.1-80.1-0.3-147.8-0.8-152.9
			c-0.9-9-1.9-11.7-7.4-20.4c-2.1-3.3-2.2-4.9-2.7-27.5c-0.4-20.8-0.7-24.4-2.3-26.8c-2.1-3.2-5.1-3.5-10.5-1.1
			c-2.1,0.9-6.5,1.7-10.3,1.7c-6.8,0.1-6.9,0.1-19.3-7.8c-3-1.9-5.1-2-62.6-2.2C4030.5,2477,4016.7,2477.2,4013.9,2478.2"/>
	</g>
	<g id="Layer_8">
		<path class="st0" d="M4486.5,2543.3c-6.4,2.9-7,4.4-7.5,20.5c-0.4,11.9-0.8,15.2-2.3,17.1c-7.6,10.6-7.2,9.2-7.7,23.9
			c-0.5,13.6-0.5,13.6-4.3,19c-4.1,5.9-4.2,6.2-5.6,17.5c-0.8,6.1-1.6,8.8-3.9,12c-5.2,7.4-5.6,8.6-6.2,22.2
			c-0.6,13.1-0.6,13.1-4.5,18.8c-3.5,5.1-4.1,6.8-5.2,15.3c-1,8-1.7,10.3-4.3,13.9c-1.7,2.4-4.3,7.4-5.9,11.1c-1.6,3.7-4.2,9-6,11.8
			c-2.2,3.4-3.2,6.2-3.2,9c-0.1,8.4-1.6,13.6-5.5,19.2c-3.4,5-4,6.7-5.1,15s-1.6,10-5.3,15.5c-2.2,3.4-4.1,6.9-4.1,7.8
			c0,0.9-0.4,4.9-0.9,9c-0.7,6-1.5,8.3-4.4,12.5c-1.9,2.8-4.5,7.9-5.8,11.2c-1.9,5.1-4.1,7.9-14.3,18.5
			c-11.6,12-12.3,12.9-16.3,22.6c-2.3,5.5-4.2,10.9-4.2,12c0,3.7,9.1,23.8,12.8,28.3c7,8.6,35.7,37.4,46.2,46.3
			c12.2,10.5,13.3,11.7,16.1,18.8c1.9,4.8,5.2,10.9,11.5,20.9c2.5,4,16.6,13.2,25.7,16.7c3.2,1.2,7.5,3.3,9.7,4.7s6.6,3.6,9.9,4.9
			c3.3,1.3,8.1,3.9,10.7,5.7c3.8,2.6,6.4,3.5,14,4.5c5.1,0.7,10.1,1.7,11.1,2.3c1,0.5,18.3,17.5,38.6,37.8
			c33.5,33.5,37,37.3,38.9,42.4c1.1,3,3.4,7.6,5,10.2c1.6,2.5,4,7.4,5.3,10.7c1.3,3.4,3.4,7.5,4.6,9.2s3.7,6.7,5.5,11.1
			c2.6,6.3,4.8,9.6,10.2,15.2c5.2,5.4,7.4,8.8,9.2,13.5c1.3,3.4,3.6,8.1,5.2,10.3c4.2,5.8,4.8,8,5.1,18.1c0.3,8.1,0.5,9.2,2.7,11
			c2.6,2.1,3.8,2,12.4-1.2c8.9-3.3,14-7.5,33.4-27.2c18.1-18.4,19-19.1,27.9-23.3c9-4.2,9.9-5,30.4-25.4
			c19.2-19,21.8-21.3,27.8-23.8c3.6-1.5,8.4-3.9,10.6-5.2c5-3.1,24.4-22,33.8-33c6.5-7.6,8-8.8,16.4-12.7c5.1-2.4,9.7-5.3,10.2-6.3
			c1.9-3.6,1.1-8.2-3.2-17.8c-3.2-7.3-5.8-11.3-10.9-16.9c-5-5.5-7.4-9.2-9.5-14.6c-2.2-5.6-4.3-8.8-9.5-14.3
			c-5.2-5.4-7.7-9.3-11.2-16.8c-4.1-8.9-5.4-10.6-15.4-20.5c-9.8-9.7-11.2-11.5-13.6-17.9c-2.1-5.6-4.4-9-10.1-15.3
			c-5.6-6.2-8.1-9.9-10.2-15.3c-2.1-5.4-4.4-8.8-9.8-14.6c-4.9-5.3-7.8-9.3-9.4-13.5c-1.3-3.3-3.7-7.9-5.3-10.3
			c-1.6-2.4-4-7-5.4-10.4c-1.3-3.3-3.7-8.3-5.3-11.2c-1.6-2.8-3.8-7.6-5-10.5s-3.4-7.2-4.9-9.5s-3.4-5.7-4.1-7.6
			c-0.7-1.9-3-6.6-5.1-10.5s-4.7-9.4-5.9-12.4c-1.2-3-3.4-7.2-4.9-9.5s-3.4-5.7-4.2-7.6c-0.8-1.9-3.5-7.7-6.2-12.8
			c-2.6-5.1-4.8-9.9-4.8-10.6c0-0.7-1.8-4.2-4.1-7.6c-2.2-3.5-4.9-8.5-6-11.1c-1-2.7-3.2-7.2-4.9-10.1c-1.6-2.9-3.7-7.3-4.7-9.8
			s-3.3-7-5.2-9.9s-4.1-7.2-4.9-9.5c-0.8-2.2-2.9-6.8-4.8-10.1c-1.9-3.4-4.4-8.7-5.5-11.8c-1.5-4-4.3-8-9.3-13.5
			c-5.8-6.3-7.8-9.5-10.6-16.3c-3.3-8.3-3.7-8.7-19.7-24.4c-15.8-15.5-16.4-16.3-19.8-24.3c-4.3-10.2-6.3-12.9-17.1-22.8
			c-7.8-7.1-9-8.8-13.4-17.9c-4.1-8.5-5.9-11-11.5-16.2c-3.7-3.4-8.8-7.1-11.4-8.3s-10.9-5.2-18.6-9
			C4493.9,2542.2,4490.8,2541.3,4486.5,2543.3"/>
	</g>
	<g id="Layer_7">
		<path class="st0" d="M4866,3093.2c-1.4,0.7-5,3.8-8,6.8c-4.4,4.4-6.9,6-12.1,7.7c-8.5,2.8-15.2,8.4-35.1,29.3
			c-11.4,12-16.9,17-20,18.3c-14.6,6.2-13.9,5.7-35.4,27.4c-20.6,20.8-21,21.2-29.1,24.5c-10.3,4.3-13.9,7.3-34.6,28.9
			c-16.7,17.4-17.6,18.2-28.9,22.1c-3.1,1.1-5.8,3-7.8,5.5c-6,7.5-6.2,8.8-5.9,36.4c0.1,15.4-0.2,26.1-0.8,27.6
			c-0.6,1.4-13.5,15-28.7,30.2c-22,22.1-28.4,27.9-31.4,28.7c-2,0.6-8.3,1-14,1c-13.7,0-16.4,1.4-30.8,16.2
			c-13.1,13.5-13.9,15.1-13.9,29.8c0,8.6,0.4,11.3,2.1,15c3.3,7,9.8,14.3,22.6,25.1c13.4,11.3,15.2,14,14.5,21.1
			c-0.5,4.7-0.9,5.3-14,18.6c-16.4,16.7-16.1,15.8-15.6,42.7c0.3,18,0.3,18,4.5,25c2.3,3.8,4.7,8.7,5.3,10.7c0.7,2.1,3,6.5,5.2,9.8
			c7.2,10.8,6.2,16.6-4.9,27.3c-9.2,8.8-9.6,9.9-9.8,24.7c-0.2,13.1-0.6,14.6-5.5,21c-1.5,1.9-3.2,5-3.9,6.9
			c-1.5,4.5-1.6,47.1,0,52.6c1.8,6.6,5.8,11.3,31.7,37.1c18.5,18.5,25.6,26.2,27.5,30.1c3.8,7.5,5.8,8.3,21.9,8.3
			c12.5,0,13.7-0.2,18.3-2.6c14.2-7.6,9.1-6.9,47.4-6.6c41.5,0.3,47.2-0.2,57.3-5.8c7.3-4,7.3-4,25.7-4c10.1,0,20.4-0.5,22.9-1.1
			s7.6-2.9,11.4-5.2c6.9-4.2,6.9-4.2,24.5-4.7s17.6-0.5,25-5s7.4-4.5,20-5c12.6-0.6,12.6-0.6,20.1-5c7.4-4.5,7.4-4.5,24.5-5
			c15.2-0.4,17.5-0.7,21.3-2.8c2.3-1.2,6.1-3.2,8.4-4.4c3.4-1.8,6.5-2.3,16.3-2.8c12.1-0.6,12.2-0.6,19.1-4.8
			c3.8-2.3,8.9-4.9,11.4-5.8c2.5-0.9,6.5-2.9,9-4.5s7-3.9,10-5c3-1.2,8-3.7,11.2-5.7c5.7-3.5,5.7-3.5,64-3.6
			c32.1,0,59.5,0.3,60.8,0.7s4,1.9,5.8,3.2c7.1,5.3,9.2,5.7,31.8,5.8c21,0.1,21,0.1,26,3c2.8,1.6,6.3,3.6,8,4.4
			c4.7,2.4,22,3.4,49.5,2.7c25.5-0.6,25.5-0.6,31,2.4c15.7,8.5,8.8,7.6,60.8,7.8c46.3,0.2,46.3,0.2,51,2.9
			c9.2,5.3,10.5,5.7,21.5,6.5c6.1,0.5,68.2,0.8,137.9,0.7c126.8-0.2,126.8-0.2,131.2,3c9.2,6.6,8.9,6.6,43,6.6
			c31,0.1,31,0.1,38.9,4.4c7.9,4.3,7.9,4.3,25,5.2c9.4,0.5,35.1,0.8,57.1,0.6c40-0.3,40-0.3,47.3,4.1c4,2.4,9.2,4.8,11.5,5.2
			s30.7,0.8,63,0.8c58.8,0,58.8,0,65.7,4.1c6.6,4,7.5,4.2,18.2,5.1c6.2,0.5,23.2,0.8,37.8,0.7c26.5-0.3,26.5-0.3,33.8,4.1
			c6.2,3.7,8.4,4.5,15,5.2c11.2,1.2,101.4,1.1,109.7-0.1c4.9-0.7,8.6-2,12.5-4.3c3-1.8,6.4-3.7,7.5-4.1c1.1-0.4,29.5-0.7,63-0.6
			c34.2,0.1,63.8-0.3,67.4-0.8c4.5-0.7,8.2-2.1,12.5-4.8c6.1-3.8,6.1-3.8,58.1-4.3c57.9-0.6,52.5,0.1,65.2-7.6
			c4.2-2.5,4.2-2.5,73.2-2.7c69-0.1,69-0.1,74.3,3.2c11.3,7.1,2.9,6.5,93.2,6.7c81.9,0.2,81.9,0.2,88.7,4.4c6.5,4,7.4,4.2,18.6,5.1
			c7.3,0.6,20.7,0.7,35.6,0.1c23.8-0.9,23.8-0.9,26.2-3.7c2.8-3.3,3.1-7.2,0.7-10.7c-0.9-1.4-6.7-7.6-12.8-14
			c-7.9-8.1-11.6-12.7-12.5-15.5c-2.6-8.1-5.6-12.2-16.9-24c-10.4-10.7-11.9-12.8-14.5-19.3c-2.3-5.8-4.4-8.9-10.1-15.1
			c-5.8-6.2-7.8-9.2-10-15.1c-2.6-6.7-4-8.6-14.9-19.9c-11.4-11.8-12.3-13-15-20.5c-2.8-7.7-3.4-8.5-15.1-20
			c-11.2-11.1-12.4-12.6-14.9-19.3c-2.2-5.8-4.3-8.9-10.1-15.2c-4.2-4.6-7.8-9.6-8.5-11.7c-2.8-8.9-7.3-15.3-17.2-24.8
			c-8.8-8.4-10.4-10.5-13.9-18.1c-2.9-6.3-5.7-10.5-10.7-15.8c-5.2-5.5-7.3-8.6-9.1-13.7c-3.2-9-6.4-13.2-17.4-23.3
			c-8.8-8.1-9.7-9.3-12.8-17c-3.1-7.6-4.3-9.3-15.4-20.8c-10.8-11.2-12.4-13.3-14.9-19.8c-2.2-5.7-4.4-9-10-15.1
			c-5.5-6-7.8-9.5-10-14.9c-2.1-5.4-4.5-8.9-10-14.9c-5-5.4-8-9.7-9.6-13.8c-1.3-3.3-3.6-8-5.1-10.5s-3.9-7.6-5.4-11.3
			c-2-5.1-4.6-8.8-10-14.8c-4.2-4.6-7.8-9.5-8.5-11.7c-2.4-7.3-5.2-11.8-11.5-18.2c-4.8-4.9-7.1-8.3-9.4-13.8c-1.6-4-3.9-8.6-5-10.1
			c-1.1-1.6-3.6-6.6-5.5-11.1c-2.6-6.3-4.9-9.8-9.6-14.6c-4.4-4.6-7.2-8.7-10.1-15c-3-6.4-5.7-10.4-10.4-15.3
			c-4.4-4.6-7.6-9.1-10.4-15.1c-8.7-18.1-11.4-22.4-15.1-24.2c-3.3-1.7-22.6-1.7-360-1.7c-251.7,0-357.7,0.3-360.5,1.1
			c-2.2,0.6-5.6,2.3-7.5,3.8s-4.5,3.3-5.8,4c-1.8,0.9-68.7,1.2-296,1.2c-293.7,0-293.7,0-298.7-3.2c-11-6.9-2.9-6.3-93-6.9
			c-46.5-0.3-82.9-0.9-84-1.4s-3.8-2.1-6-3.6c-5-3.4-6.5-3.8-16-4.9c-6.2-0.7-8.6-1.5-12.8-4.3c-2.9-1.9-7.9-4.4-11.1-5.6
			c-3.2-1.2-7.1-3.1-8.7-4.2c-1.5-1.1-6.7-3.8-11.4-5.9c-4.7-2.1-9.9-4.8-11.3-5.8c-1.5-1-5.4-2.9-8.7-4.2c-4.9-1.9-7.8-4.2-15.5-12
			c-11.7-11.9-15.1-14.4-22.9-17.5c-3.4-1.3-8.3-3.7-10.9-5.3c-4.9-3-22.3-10.2-24.5-10.2C4869,3091.9,4867.3,3092.5,4866,3093.2"/>
	</g>
	<g id="Layer_6">
		<path class="st0" d="M5024,3738.1c-1.9,0.6-5.3,2.3-7.5,3.9c-2.2,1.6-6.9,4.1-10.4,5.5s-8,3.7-10,5s-6.4,3.5-9.7,4.8
			c-3.3,1.3-8.4,4-11.2,5.9c-5.7,4-12.9,5.4-20.5,4.3c-6.2-0.9-13.2,0.9-18.7,5c-5.8,4.3-6.9,4.5-25.9,4.7
			c-17.1,0.2-14.7-0.4-28.4,8.2c-2.6,1.7-5.2,2-15.6,2.3c-12.5,0.3-12.5,0.3-20,4.8s-7.5,4.5-22.5,4.5c-16.6,0-21.3,0.9-26.5,5
			c-6.9,5.4-7,5.4-31.2,5.5c-22.7,0-22.7,0-29,4.5s-6.3,4.5-49.3,5c-46.2,0.5-43.5,0.2-52.1,6.1c-2.3,1.5-6.3,3.3-9,4
			c-6.2,1.5-9.4,3.5-9.4,5.9c0,1,2.2,4.5,5,7.7c3,3.5,6,8.5,7.6,12.5c3,7.7,7,13.6,11.3,16.7c1.7,1.2,4.2,4.1,5.5,6.4
			c2.4,4.2,2.4,4.3,2.7,37.2c0.3,35.5,0.4,34.3-5.1,41.5c-1.5,1.9-3.1,4.6-3.6,6s-0.9,25.4-0.9,53.5c0,60.1,0.6,56.4-10.6,62.1
			c-3.8,1.9-7.4,4.5-8.1,5.7c-0.9,1.6-1.3,7-1.3,18.3c0,17.4,0.4,16-7,26.5c-2.8,4.1-3,4.8-3.5,17.9c-0.4,10.9-0.9,14.2-2.3,16.1
			c-8,11-7.2,6.3-7.2,47.9c0,43,0.6,39.7-9.5,49.6c-9.1,8.9-10.1,11.3-10.4,25.8c-0.3,13.1-0.6,14.2-6.9,22.5
			c-3.3,4.4-3.3,4.4-3.3,27c-0.1,24.4,0,23.9-6,31.8c-5.6,7.3-5.6,15.5-0.1,16.9c1.3,0.3,4.6,0,7.3-0.8c4.1-1.2,12.5-1.4,50.4-1
			c54.9,0.6,63.6,0,71.9-5.1c3.1-1.9,6.7-3.8,8-4.2c1.3-0.4,15.9-0.8,32.5-0.9c33.4-0.1,29,0.6,45.1-8c3.8-2,5.1-2.1,28-1.8
			c30.8,0.4,38.8-0.5,46.9-5.6c6.1-3.8,6.1-3.8,43.6-4.3s37.5-0.5,42.5-3.4c12.7-7.4,9.6-6.9,43.4-7c34-0.1,29.4,0.7,45.6-7.9
			c3.9-2.1,4.9-2.1,40.5-1.8c21.5,0.2,38.9-0.1,42.4-0.7c3.9-0.7,8.3-2.5,12.9-5.2c7-4.2,7-4.2,58.1-4.3c57-0.1,51.2,0.5,64.6-7
			c4.5-2.5,4.5-2.5,53-2.6c26.7,0,50.4-0.4,52.7-0.9c2.3-0.4,7.4-2.7,11.3-5.1c7.1-4.3,7.1-4.3,58.3-4.4c56.8-0.1,50,0.7,65.9-7.8
			c3.6-1.9,7-1.9,168-1.9c174,0,193.4-0.3,196.8-3.4s2.8-4.9-8.8-27c-1.2-2.2-11.6-23.4-23.3-47c-11.6-23.6-22.1-44.6-23.1-46.5
			c-1.1-1.9-3.9-7.6-6.3-12.5c-2.4-5-5.3-10.6-6.4-12.5s-3.6-6.9-5.5-11s-4.1-8.6-4.9-10s-4-7.7-7.1-14c-4.3-8.9-5.8-13.2-6.5-18.9
			c-0.7-5.6-1.8-8.8-4.4-13c-4.1-6.7-4.4-7.7-5.6-17c-0.7-5.6-1.8-8.7-4.6-13.5c-2.9-4.8-4-8.1-5-14.7c-1.5-10-1.9-11.2-5.5-16.5
			c-3.5-5.3-3.9-6.6-5.1-15.4c-0.8-5.9-1.8-8.8-4.9-14.1c-5.2-8.6-5.3-12.5-0.4-20.6c2-3.3,4.6-8.5,5.9-11.7s3.2-7,4.4-8.6
			c1.1-1.6,3.6-6.4,5.6-10.6c2.6-5.6,5.4-9.8,10.3-14.9c4.5-4.7,7.4-8.8,8.6-12.1c1-2.7,3.6-8.3,5.8-12.3c2.2-4,4.6-9.2,5.4-11.5
			s2.8-6.2,4.4-8.8s4.1-7.4,5.5-10.7s3.8-8.2,5.5-10.8c1.6-2.6,3.5-6.3,4.1-8.3s2.9-6.6,5.1-10.3c2.9-4.9,4.2-8.4,4.9-13.5
			c0.5-3.8,1.4-8.1,1.9-9.7c3-8.9,0.7-11.2-12.7-12.4c-7.4-0.7-11-1.5-13.5-3c-11.4-7.2-8.1-6.7-42.4-6.8
			c-34.2-0.1-32.2,0.3-44.5-7.2c-4.5-2.7-4.5-2.7-142.1-3.2s-137.6-0.5-143.1-4.2c-3-2-7.4-4.2-9.8-4.8c-2.9-0.8-17.9-1.1-47.9-1
			c-46.5,0.2-46,0.2-53.5-4.9c-7-4.8-9.6-5.1-46.3-5.1c-37.5,0-33.6,0.6-48.9-7.8c-2.5-1.4-6.2-1.7-22-1.7
			c-25.5,0-24.2,0.2-32.6-5.2c-7.4-4.8-7.4-4.8-61.9-4.9C5047.8,3737.1,5026.2,3737.4,5024,3738.1"/>
	</g>
	<g id="Layer_5">
		<path class="st0" d="M5833.2,3798.6c-2.3,0.8-6.3,3.4-8.9,5.7c-4.7,4.2-4.7,4.2-5.3,13.8c-0.6,8.8-0.9,10.1-4.3,15.6
			c-2,3.3-4.4,8-5.2,10.3c-0.8,2.4-3.1,6.9-5,10s-4.2,7.6-5,10s-3.1,6.9-5,10s-4.2,7.6-5,10s-3,6.8-4.9,9.9
			c-1.9,3.1-4.4,8.2-5.6,11.5c-1.6,4.4-4.1,7.9-9.4,13.4c-5.7,6-7.7,8.9-9.9,14.7c-1.5,4-3.7,8.4-4.8,9.8c-1.1,1.5-3.3,5.7-4.9,9.5
			c-1.5,3.7-4.4,9.2-6.4,12.2c-3.1,4.5-3.6,5.9-3.2,9.1c0.3,2.1,1.7,5.3,3.1,7.3c3.7,4.9,5.5,9.7,5.5,14.7c0,5.9,1.7,11.7,4.6,15.5
			c3.5,4.7,5.4,9.6,5.4,14.5c0,5.9,1.7,11.7,4.6,15.5c3.5,4.7,5.4,9.6,5.4,14.5c0,6,1.7,11.7,4.8,15.7c3.4,4.5,5.1,9.6,5.2,15.2
			s1.5,10,5.2,15.8c1.6,2.4,3.7,6.9,4.8,9.9c1.1,3,3.3,7.3,5,9.7s3.9,6.7,5,9.7s3.3,7.4,4.8,9.9c1.5,2.4,3.4,6,4.2,8
			c0.8,1.9,3.7,8,6.5,13.6s5.9,11.9,7,14c1,2.1,4.5,8.8,7.6,14.9c3.1,6,6.5,12.7,7.6,14.8s6.3,12.7,11.8,23.5
			c5.4,10.8,10.5,21.4,11.2,23.4c0.7,2.1,2.7,5.7,4.3,8c1.6,2.3,3.6,6.6,4.5,9.5c2.2,7.5,4.2,10.4,9.6,14.1
			c3.3,2.3,6.6,3.5,11.1,4.2c3.9,0.6,104.7,0.9,253.3,0.9c246.9,0,246.9,0,253.7,4.1c6.3,3.8,7.7,4.2,17.1,5.1
			c5.7,0.5,29.4,0.8,52.8,0.7c42.5-0.3,42.5-0.3,50,4.2c7.4,4.5,7.4,4.5,20,5.1c12.3,0.6,12.7,0.6,19.5,4.5
			c6.8,3.8,7.4,3.9,19.1,4.6c12.7,0.7,13.8,1,23.2,7c5.1,3.2,5.8,3.4,18,3.9c12.7,0.6,12.7,0.6,20.1,5.1s7.4,4.5,30,5
			c22.5,0.5,22.5,0.5,27.3,3.5c12.1,7.5,8.2,7,49.1,7.2c36.9,0.2,36.9,0.2,42.5,3.6c10.2,6.2,9,6.1,53.2,6.2
			c40.6,0.1,40.6,0.1,47.7,4.4c9.4,5.7,14.4,6.2,52.7,5.9c30-0.3,30-0.3,37.2,4.1c6.9,4.2,7.6,4.4,18.8,5.3
			c7.1,0.6,66.6,0.9,153.8,0.7c133.5-0.3,142.4-0.4,145.4-2.1c6.5-3.5,6.8-7.9,1.3-16.2c-2.2-3.3-4-6.5-4-7
			c0-3.1-5.5-11.8-10.8-17.2c-3.3-3.4-6.6-7.7-7.4-9.5s-3.8-8.2-6.9-14.3c-3-6.1-6.3-13-7.3-15.3c-1-2.4-4.9-7.6-8.6-11.6
			c-4.7-5.1-7.4-9-8.9-13c-1.2-3.1-3.2-7.4-4.6-9.6s-4.2-7.7-6.4-12.3c-2.7-5.8-5.6-10.1-9.6-14.2c-4.8-4.9-7.2-9-15.3-25.3
			c-8.1-16.5-10.5-20.5-15.7-26c-4.1-4.4-7-8.6-8.6-12.6c-1.3-3.3-3.6-7.9-5.1-10.3s-3.7-6.9-5-10s-3.5-7.7-5-10.2s-4-7.6-5.5-11.4
			c-2.1-5.2-4.5-8.7-9.9-14.5c-5-5.3-7.8-9.4-9.5-13.6c-1.3-3.3-3.6-8-5.1-10.5s-4-7.6-5.5-11.4c-2.1-5.2-4.5-8.7-10-14.6
			c-5.1-5.5-7.8-9.3-9.3-13.3c-1.1-3.1-3.5-7.8-5.1-10.5c-1.7-2.7-3.7-6.8-4.5-9c-2.5-7.2-4.7-10.5-11.6-17.7
			c-4.7-5-7.4-8.8-8.8-12.7c-1.1-3.1-3.5-7.7-5.1-10.4c-1.7-2.6-4.2-7.9-5.7-11.7c-2-5.2-4.3-8.7-9.3-14.1c-5.5-5.9-7.9-9.8-14-22.2
			c-4-8.2-8.4-17-9.8-19.5s-4.4-8.6-6.8-13.7c-3.1-6.6-6.2-11.1-10.7-16c-4.3-4.6-7.2-8.7-8.8-12.8c-1.3-3.3-3.7-8-5.2-10.5
			c-1.5-2.4-3.7-6.9-4.8-9.9c-1.1-3-2.9-6.7-4-8.2s-4-6.9-6.5-12.1c-6.8-14-12-22.8-14.6-24.7c-2.1-1.5-7.3-1.7-48.9-2.2
			c-46.5-0.5-46.5-0.5-54-5c-7.4-4.5-7.4-4.5-90-5c-82.5-0.5-82.5-0.5-86-2.7c-11.8-7.5-4.3-6.8-74.5-7.1c-43.7-0.2-64.4,0-67.5,0.8
			c-2.5,0.6-6.5,2.6-9,4.5c-2.5,1.8-5.9,3.7-7.4,4.1c-1.6,0.4-25.9,0.8-54.1,0.8c-51.2,0.1-51.2,0.1-56.6,3.7c-3,2-6.4,4.1-7.6,4.8
			c-1.5,0.8-21.4,1.1-67,1.1c-43.8,0-66.1,0.4-68.8,1.1c-2.2,0.6-6.6,3-9.8,5.2c-5.9,4.1-5.9,4.1-69.2,4
			c-70.8-0.2-62.7,0.6-75.6-7.1c-4.5-2.7-4.5-2.7-42.1-3.2s-37.6-0.5-43-4.1c-3-2-6.3-4-7.4-4.5s-29.2-1.1-64.6-1.4
			c-62.6-0.5-62.6-0.5-68-4.1c-8.8-5.8-9.6-5.9-39.8-5.8C5843.2,3797,5836.6,3797.4,5833.2,3798.6"/>
	</g>
	<g id="Layer_4">
		<path class="st0" d="M5496,4307.8c-1.9,0.4-6.6,2.6-10.4,4.9c-6.9,4.2-6.9,4.2-57,4.2c-32.6,0-51.5,0.4-54.1,1.1
			c-2.2,0.6-5.6,2.3-7.5,3.8c-7.3,5.7-4.5,5.5-58.1,5.2c-33.7-0.2-50.9,0.1-53.7,0.8c-2.2,0.6-6.5,2.8-9.4,4.8
			c-5.3,3.7-5.3,3.7-58.3,4.2s-53,0.5-57,2.8c-2.2,1.3-5.5,3.4-7.4,4.8c-4.1,3,0.1,2.7-48.6,2.9c-44.6,0.1-39.2-0.6-52,7.1
			c-4,2.4-4,2.4-34.6,2.4c-32.8,0-34.8,0.3-41.1,5.1c-2,1.6-5,3.4-6.5,4c-1.9,0.7-15.2,1.2-40,1.2c-37.2,0.1-37.2,0.1-43.5,4.6
			s-6.3,4.5-39.3,5c-36.6,0.6-32-0.3-45.9,8.5c-3,1.9-4.5,2-32.7,1.7c-33.1-0.4-35.6-0.1-43.4,5.7c-5,3.6-5,3.6-58,4.1
			c-53.1,0.5-53.1,0.5-60.2,4.8c-6.1,3.7-8.5,4.5-16.6,5.6c-10.6,1.5-12.5,2.2-16.1,6.5c-3.1,3.7-4.3,7.6-5.2,16.2
			c-0.7,6.8-1.8,9.5-7,16.9c-3,4.3-3,4.3-3,55.9s0,51.6,4.3,58.8c3.4,5.7,4.5,8.7,5.3,14.5c0.5,4,1.7,8.3,2.4,9.6
			c0.8,1.2,4.1,3.6,7.4,5.3c7.2,3.6,8.9,6.4,10.2,16.9c0.9,7.4,1.4,8.5,8.2,19.2c2.3,3.7,3.2,13.1,1.8,18.5
			c-0.6,2.3-2.6,6.1-4.4,8.5c-4.7,6.2-4.9,7.1-5.1,20.4c-0.2,14.1-0.7,15.4-9.6,24c-8.1,7.9-10.4,12.3-10.4,20
			c0.1,7.5,1.9,11.1,9.9,19.5c7.8,8.1,9,10.7,9.9,20c0.6,6.3,1.3,8.5,4.6,14c2.2,3.6,4.6,8.5,5.5,11s2.9,6.5,4.5,9s4.2,7.8,5.9,11.8
			c4,9.7,5.7,11.9,26.5,32.5c17.9,17.7,20.6,19.8,30.9,23.7c4.6,1.7,7.1,3.9,17,14.3c6.4,6.8,15.9,16.1,21.1,20.7
			c13.1,11.5,13.5,12.5,13.5,31.8c0,16.6,0.5,18.6,6.2,26.9c3.2,4.6,3.3,5.1,3.9,17.9c0.8,18.1,2,20.2,14.7,26.5
			c7.1,3.5,10.9,6.2,16.2,11.4c7.9,7.8,8.5,9.1,9.9,19.7c0.8,6.2,1.7,8.9,4.8,13.9c3.9,6.2,3.9,6.2,4.4,28.8
			c0.4,19,0.8,23.1,2.3,26.2c2.7,5.4,11.3,14.6,16.5,17.6c4.1,2.4,6,2.8,17.2,3.3c8.3,0.4,13.5,1.1,15.5,2.2
			c4.5,2.3,15.9,14.6,18.8,20.3c1.4,2.7,3.6,5.6,4.9,6.4c1.4,0.9,6.8,1.7,14,2.1c10.7,0.6,12,0.9,16.8,3.8c2.8,1.7,7.9,4.3,11.3,5.6
			c3.4,1.4,7.7,3.7,9.7,5.2c5.4,4.1,9.8,5.2,20.4,5.3c14.1,0.1,15.3,0.7,31.1,17.4c7.4,7.8,16.6,16.9,20.6,20.1
			c8.4,7,10.7,11.1,11.6,21c0.4,3.9,1.6,9,2.8,11.4c3.3,6.8,20.9,24.5,27.6,27.8c5.4,2.6,6.3,2.8,24.7,3.1c24.4,0.5,30.6-0.4,39.7-6
			c7-4.2,7-4.2,33.1-4.3c26.1-0.1,26.1-0.1,31.1-2.7c2.7-1.4,7.9-4.1,11.5-5.8c3.6-1.8,8.5-4.3,11-5.6c2.5-1.3,11.5-5.8,20-10
			c8.5-4.1,17.3-8.5,19.5-9.6c9.3-4.9,13.3-6.9,18.5-9.1c11.9-5.2,26.9-20.9,32.1-33.9c2.8-6.8,4.2-8.9,10.7-15.1
			c8.5-8.1,18-18,21.1-21.8c1.2-1.5,8.9-5.9,18.8-10.8c9.2-4.5,18.4-9.1,20.3-10.2s6-3.1,9-4.5s7.4-3.4,9.8-4.5s9-6.7,15-12.5
			c9.1-8.9,12-11.1,19.1-14.5c5.7-2.7,10.4-5.8,14.5-9.8c10.4-9.9,2.1-9.1,89.3-9.1c44.6,0,79.3-0.4,82.7-1c3.9-0.6,8.2-2.3,12.6-5
			c6.7-4,6.7-4,231.4-4.1c224.7,0,224.7,0,228.9,2.9c10.1,6.9,8.3,6.6,41.8,7c16.8,0.2,36.7-0.1,44.2-0.5c12.4-0.8,14-1.1,16.2-3.2
			c3.5-3.3,3.2-7.1-1.2-14.3c-3.7-6-3.8-6.1-3.8-17.2c-0.1-12.6-0.4-14.1-5.1-21.1c-3.6-5.5-5.9-14.7-5-20.3c1-5.9-1-14.1-4.8-19.6
			c-4.2-6.2-5.4-11.4-5.3-22.7c0-5.8-0.4-9.5-1.4-11.5c-0.8-1.6-2.9-5.5-4.6-8.7c-2.7-5-3.1-6.9-3.1-13c0-11.6-1.4-17.7-5.6-24.3
			c-3.7-5.8-3.8-6.1-4.5-18.4c-0.8-14-0.9-14.5-5.6-21.6c-3.4-5.2-5.7-14.9-4.6-19.2c1.2-4.5-1.5-15-5.6-21.7c-4-6.6-4.1-7-4.1-15.8
			c0-11.6-1.2-16.5-5.7-23.9c-3.6-5.8-3.7-6.4-4.3-18.1c-0.7-13-1.3-15.4-5.8-21.9c-3.8-5.6-4.3-7.5-4.3-16.5
			c0-10.9-1.4-16.9-5.4-23c-2-3-4.2-7.2-5-9.5s-3.3-7.1-5.4-10.7c-3.3-5.4-4.1-8-4.9-14.5c-0.9-7.3-1.8-9.6-13.1-31.9
			c-6.7-13.2-13-25.6-14-27.5s-2.3-7-2.8-11.3c-0.8-6.2-1.7-9-4.5-13.5c-1.9-3.1-4.4-8-5.5-10.8s-3.4-7.4-5.2-10.2
			c-2.5-4-3.4-7.2-4.5-14.7c-1-7.4-2-10.6-4.3-14.2c-1.6-2.6-4.6-8.1-6.5-12.2s-4.4-9.1-5.5-11s-3.4-6.4-5.1-10s-4.2-8.5-5.5-11
			c-1.6-2.9-2.9-7.4-3.5-12.4c-0.8-6.3-1.8-9.3-4.9-14.5c-2.1-3.6-4.4-8.1-5-10.1c-0.6-1.9-2.7-6-4.6-9.1
			c-3.6-5.9-5.5-11.9-5.5-18.1c0-2.5-1.7-6.8-4.9-13c-2.7-5.1-5.2-10.4-5.6-11.8s-2.3-4.9-4.2-7.9c-1.9-2.9-4.3-7.5-5.3-10.2
			c-1.1-2.7-3.3-7.3-5-10.3c-2.2-3.9-3.5-8-4.4-14.4c-1.1-7.3-2-9.9-4.9-14.3c-2-2.9-4.5-8.1-5.6-11.5c-1.5-4.5-3.2-7.2-6.1-9.9
			c-7.7-7,7.5-6.5-188-6.3C5579.2,4307.1,5497.9,4307.4,5496,4307.8"/>
	</g>
	<g id="Layer_3">
		<path class="st0" d="M5893.5,4307.6c-1.1,0.2-3,0.6-4.3,0.9s-2.7,1.5-3.3,2.8c-1.3,2.9,1.8,11.5,6.8,18.9
			c5.3,7.8,5.4,8.2,6.3,17.4c0.7,7,1.4,9.4,4.1,13.6c1.8,2.8,4.7,8.3,6.4,12.3c1.7,4,4.1,8.6,5.3,10.3c1.2,1.7,2.9,5,3.7,7.4
			c0.8,2.4,3.4,7.4,5.6,11.1c3.4,5.7,4.2,8,4.9,14.5c0.9,8.9,1.3,10.3,4.9,15.7c1.5,2.2,3.4,6,4.4,8.5s3.6,7.5,5.8,11.3
			c3.5,5.8,4.2,8,4.9,14.8c0.6,5.5,1.6,9.3,3.2,12.2c3.8,6.7,5.4,9.8,8.6,16.7c1.6,3.6,3.7,7.6,4.5,9s3.1,5.9,5.1,10
			c1.9,4.1,4.5,8.9,5.6,10.7c1.4,2.1,2.3,6,2.9,11.7c0.8,7.3,1.4,9.4,4.9,15.2c2.2,3.7,4.6,8.3,5.2,10.3s2.4,5.5,4,7.9
			c4.7,7,5.2,8.4,6,16.5c0.4,4.3,1.6,9.3,2.5,11c1,1.8,6.3,12.2,11.9,23.2s11.4,22.2,12.8,24.9c1.7,3.3,2.6,6.5,2.6,9.5
			c0,6.2,1.7,11.7,4.9,16.6c1.5,2.2,3.5,6,4.5,8.5s3.6,7.6,5.9,11.5c4.2,7,4.2,7,4.7,20.1s0.5,13.1,5,19.9s4.5,6.8,5,20.1
			c0.5,13.2,0.6,13.3,4.2,18.6c5.9,8.7,6.1,9.4,6,20.3s0.9,15.4,4.3,20.1c4.5,6.1,5,7.8,5.5,21.2c0.6,13.1,0.6,13.2,4.2,18.5
			c2,2.9,4,6,4.5,6.8s1.1,7.4,1.4,14.6c0.5,13.1,0.5,13.1,5,20s4.5,6.9,5,20.1c0.5,13.1,0.5,13.2,4.1,18.5c2,3,4,6,4.5,6.9
			c0.5,0.8,1.1,7.4,1.4,14.6c0.5,13.1,0.5,13.1,5,20s4.5,6.9,5,20.1c0.5,13.1,0.5,13.2,4.1,18.5c2,3,4,6,4.5,6.9
			c0.5,0.8,1.1,7.4,1.4,14.5c0.5,13,0.5,13,4.9,21c2.4,4.4,5.4,9.4,6.7,11.2c4.6,6.2,13.9,6.4,22.8,0.4c2.2-1.5,4.9-3.1,6-3.4
			c1-0.4,182.4-0.7,403-0.7c235.8,0,403.7-0.4,407.3-0.9c6.3-0.9,7.8-1.5,16.4-6.4c4.6-2.6,4.6-2.6,336.5-2.9
			c363.5-0.3,338.7,0.2,340.8-5.9c1.1-3.2-1.3-9.8-7.4-19.9c-3.2-5.3-4.1-8.1-5-14.5c-1.2-9.8-1.5-10.6-5.4-16.9
			c-1.8-2.8-3.8-6.7-4.5-8.6s-3.1-6.7-5.2-10.6c-2.9-5.3-4.1-9.1-4.9-15c-1.1-8-1.5-9.1-6.4-17.7c-1.9-3.3-3-7.1-3.6-12.3
			c-0.5-4.1-1.7-9.2-2.8-11.2c-1.1-2-4.2-8.2-7-13.7s-5.9-11.6-7-13.5s-5.7-11.1-10.2-20.5c-6.7-13.8-9.3-18.1-13.9-23
			c-4.4-4.7-7.3-9.4-13.3-21.5c-4.2-8.5-7.7-15.9-7.7-16.2c0-0.4-1.3-2.8-2.9-5.5s-4.2-7.9-5.7-11.7c-2.1-5.2-4.4-8.7-9.5-14
			c-5-5.3-7.7-9.3-10.8-15.9c-3-6.4-5.6-10.3-9.6-14.4c-4.7-4.7-7-8.5-15.1-24.9c-7.8-15.8-10.6-20.5-15.3-25.6
			c-5.4-5.9-9.7-13.6-22.5-40.7c-0.6-1.3-4.1-5.6-7.7-9.5c-4.9-5.4-7.2-8.8-9.4-14.5c-2.3-5.8-4.4-9-9.6-14.5
			c-5.7-6-7.8-9.5-14.4-23.1c-10.8-22.3-10.2-21.3-17.1-28.5c-4.3-4.5-6.8-8.2-8.3-12.2c-1.2-3.1-3.4-7.8-5.1-10.5
			c-1.6-2.7-4.2-7.9-5.7-11.7c-2.1-5.2-4.5-8.7-10-14.6c-5.1-5.4-7.8-9.3-9.3-13.2c-1.1-3-3.4-7.7-5.1-10.3
			c-1.7-2.6-4.2-7.9-5.7-11.7c-2-5.3-4.3-8.7-9.5-14.4c-5-5.3-8-9.8-10.7-15.7c-2.7-5.8-5.5-10-9.6-14.2s-7.1-8.6-10.1-15
			c-5.8-12-10.6-20.2-13.8-23.4c-2.6-2.6-2.6-2.6-169.4-3.1s-166.8-0.5-174.2-5c-7.5-4.5-7.5-4.5-41.5-4.6
			c-18.7-0.1-35.4-0.2-37.1-0.2c-1.7-0.1-6.6-2.3-11-4.9c-8-4.8-8-4.8-50.5-5.2s-42.5-0.5-48.5-4.3c-3.3-2.1-7.6-4.2-9.5-4.8
			c-2-0.6-18.1-1-38-1c-38.4,0-33.9,0.7-47.2-7c-4.1-2.4-5.2-2.5-26.8-3c-22.5-0.5-22.5-0.5-29.8-4.9s-7.3-4.4-20-5
			c-12.8-0.6-12.8-0.6-19.9-4.9s-7.1-4.3-20-5c-10.7-0.6-13.4-1.1-16.3-2.9c-9.8-6.2-11-6.5-22.9-6.9c-12-0.4-14-1-24.1-7.1
			c-4.5-2.7-4.5-2.7-57.1-3.2s-52.6-0.5-58.5-4.1c-3.3-2-7.7-4.1-9.9-4.7c-2.9-0.8-72.9-1.1-246.5-1
			C6004.6,4307.1,5894.6,4307.3,5893.5,4307.6"/>
	</g>
</g>
<text transform="matrix(1 0 0 1 233.4739 353.522)" class="st1 st2">Jasaan</text>
<text transform="matrix(1 0 0 1 463.1714 2150.5376)" class="st3 st1 st2">LEGEND</text>
<ellipse class="st4" cx="401.1" cy="2456.7" rx="62.1" ry="60.7"/>
<ellipse class="st5" cx="401.1" cy="2654.4" rx="62.1" ry="60.7"/>
<ellipse class="st6" cx="401.1" cy="2852.1" rx="62.1" ry="60.7"/>
<ellipse class="st7" cx="401.1" cy="3049.9" rx="62.1" ry="60.7"/>
<ellipse class="st8" cx="401.1" cy="3247.6" rx="62.1" ry="60.7"/>
<ellipse class="st9" cx="401.1" cy="3445.4" rx="62.1" ry="60.7"/>
<ellipse class="st10" cx="401.1" cy="3643.1" rx="62.1" ry="60.7"/>
<ellipse class="st11" cx="401.1" cy="3840.9" rx="62.1" ry="60.7"/>
<ellipse class="st12" cx="401.1" cy="4038.6" rx="62.1" ry="60.7"/>
<ellipse class="st13" cx="401.1" cy="4236.4" rx="62.1" ry="60.7"/>
<ellipse class="st14" cx="401.1" cy="4434.1" rx="62.1" ry="60.7"/>
<ellipse class="st15" cx="401.1" cy="4631.8" rx="62.1" ry="60.7"/>
<ellipse class="st16" cx="401.1" cy="4829.6" rx="62.1" ry="60.7"/>
<ellipse class="st17" cx="401.1" cy="5027.3" rx="62.1" ry="60.7"/>
<ellipse class="st18" cx="401.1" cy="5225.1" rx="62.1" ry="60.7"/>
<text transform="matrix(1 0 0 1 534.4437 2503.855)" class="st19 st1 st20">Barangay Halls</text>
<text transform="matrix(1 0 0 1 534.7269 2696.7446)" class="st21 st1 st20">Health Centers</text>
<text transform="matrix(1 0 0 1 529.9803 2897.23)" class="st22 st1 st20">Road (FMR)</text>
<text transform="matrix(1 0 0 1 534.099 3087.1753)" class="st23 st1 st20">H20 System</text>
<text transform="matrix(1 0 0 1 543.8456 3286.4683)" class="st24 st1 st20">MOWDIR</text>
<text transform="matrix(1 0 0 1 543.8456 3487.4258)" class="st25 st1 st20">Market</text>
<text transform="matrix(1 0 0 1 543.8456 3487.4258)" class="st26 st1 st20">Market</text>
<text transform="matrix(1 0 0 1 543.2177 3682.9504)" class="st1 st20">Flood Control</text>
<text transform="matrix(1 0 0 1 552.3363 3884.5476)" class="st27 st1 st20">Streetlights</text>
<text transform="matrix(1 0 0 1 545.8456 4083.3142)" class="st28 st1 st20">Bridges</text>
<text transform="matrix(1 0 0 1 543.2177 4278.4375)" class="st29 st1 st20">Road Widening</text>
<text transform="matrix(1 0 0 1 543.2177 4472.2344)" class="st30 st1 st20">Hospitals</text>
<text transform="matrix(1 0 0 1 543.2177 4667.2646)" class="st31 st1 st20">Daycare Center</text>
<text transform="matrix(1 0 0 1 543.2177 4878.9727)" class="st32 st1 st20">Pedestrian Overpass</text>
<text transform="matrix(1 0 0 1 550.8053 5069.5449)" class="st33 st1 st20">Covered Courts</text>
<text transform="matrix(1 0 0 1 543.2177 5262.3584)" class="st34 st1 st20">School Buildings</text>
<text transform="matrix(1 0 0 1 4201.7051 317.9397)" class="st1 st35">Danao</text>
<g>
	<g class="st36">
		<path d="M5633.9,317.9v-86.5h11.4v86.5H5633.9z"/>
		<path d="M5667.1,317.9v-12.1h12.1v12.1H5667.1z"/>
		<path d="M5698.2,290.2l10.8-0.9c0.5,4.3,1.7,7.9,3.6,10.6c1.9,2.8,4.8,5,8.7,6.7s8.4,2.6,13.3,2.6c4.4,0,8.2-0.6,11.6-1.9
			c3.3-1.3,5.8-3.1,7.5-5.3c1.6-2.3,2.4-4.7,2.4-7.4c0-2.7-0.8-5.1-2.4-7.1c-1.6-2-4.2-3.7-7.8-5.1c-2.3-0.9-7.5-2.3-15.4-4.2
			c-7.9-1.9-13.5-3.7-16.7-5.4c-4.1-2.2-7.2-4.8-9.2-8.1c-2-3.2-3-6.8-3-10.8c0-4.4,1.2-8.4,3.7-12.2c2.5-3.8,6.1-6.7,10.9-8.6
			c4.8-2,10-2.9,15.9-2.9c6.4,0,12.1,1,17,3.1s8.7,5.1,11.3,9.1c2.6,4,4,8.6,4.2,13.6l-11,0.8c-0.6-5.5-2.6-9.6-6-12.4
			c-3.4-2.8-8.4-4.2-15.1-4.2c-6.9,0-12,1.3-15.1,3.8c-3.2,2.5-4.7,5.6-4.7,9.2c0,3.1,1.1,5.7,3.4,7.7c2.2,2,8,4.1,17.3,6.2
			c9.3,2.1,15.7,3.9,19.1,5.5c5,2.3,8.7,5.3,11.1,8.8c2.4,3.6,3.6,7.7,3.6,12.3c0,4.6-1.3,8.9-4,13c-2.6,4.1-6.4,7.2-11.4,9.5
			c-4.9,2.3-10.5,3.4-16.7,3.4c-7.8,0-14.4-1.1-19.7-3.4c-5.3-2.3-9.4-5.7-12.4-10.3C5699.9,301.1,5698.3,295.9,5698.2,290.2z"/>
		<path d="M5784.3,317.9v-12.1h12.1v12.1H5784.3z"/>
		<path d="M5911.5,287.6l11.4,2.9c-2.4,9.4-6.7,16.6-12.9,21.5c-6.2,4.9-13.9,7.4-22.9,7.4c-9.3,0-16.9-1.9-22.7-5.7
			c-5.8-3.8-10.3-9.3-13.3-16.5c-3-7.2-4.6-14.9-4.6-23.2c0-9,1.7-16.9,5.2-23.6c3.4-6.7,8.3-11.8,14.7-15.3s13.3-5.2,21-5.2
			c8.7,0,15.9,2.2,21.8,6.6c5.9,4.4,10,10.6,12.3,18.6l-11.3,2.7c-2-6.3-4.9-10.9-8.7-13.7c-3.8-2.9-8.6-4.3-14.4-4.3
			c-6.6,0-12.2,1.6-16.7,4.8c-4.5,3.2-7.6,7.5-9.4,12.8c-1.8,5.4-2.7,10.9-2.7,16.6c0,7.4,1.1,13.8,3.2,19.3
			c2.1,5.5,5.5,9.6,10,12.3c4.5,2.7,9.4,4.1,14.7,4.1c6.4,0,11.8-1.8,16.3-5.5C5906.9,300.4,5909.9,294.9,5911.5,287.6z"/>
		<path d="M5935.5,317.9v-62.6h9.6v9.5c2.4-4.4,4.7-7.4,6.8-8.8s4.3-2.1,6.8-2.1c3.6,0,7.2,1.1,10.9,3.4l-3.7,9.9
			c-2.6-1.5-5.2-2.3-7.8-2.3c-2.3,0-4.4,0.7-6.3,2.1c-1.8,1.4-3.2,3.3-4,5.8c-1.2,3.8-1.8,7.9-1.8,12.4v32.8H5935.5z"/>
		<path d="M6016.9,317.9v-9.2c-4.9,7.1-11.5,10.6-19.9,10.6c-3.7,0-7.1-0.7-10.4-2.1c-3.2-1.4-5.6-3.2-7.1-5.3
			c-1.6-2.1-2.6-4.8-3.3-7.9c-0.4-2.1-0.6-5.4-0.6-9.9v-38.8h10.6V290c0,5.5,0.2,9.3,0.6,11.2c0.7,2.8,2.1,5,4.2,6.6
			c2.2,1.6,4.8,2.4,8,2.4c3.2,0,6.2-0.8,9-2.4c2.8-1.6,4.8-3.9,5.9-6.7c1.2-2.8,1.7-6.9,1.7-12.2v-33.6h10.6v62.6H6016.9z"/>
		<path d="M6037.4,317.9v-8.6l39.9-45.8c-4.5,0.2-8.5,0.4-12,0.4h-25.5v-8.6h51.2v7l-33.9,39.8l-6.5,7.3c4.8-0.4,9.2-0.5,13.4-0.5
			h29v9.1H6037.4z"/>
	</g>
</g>
<text transform="matrix(1 0 0 1 2815.1602 1003.0924)" class="st1 st35">San Antonio</text>
<text transform="matrix(1 0 0 1 6533.606 1133.1913)" class="st1 st35">San Nicolas</text>
<text transform="matrix(1 0 0 1 6634.5459 2286.5249)" class="st1 st35">Natubo</text>
<text transform="matrix(1 0 0 1 6830.0234 3450.7751)" class="st1 st35">Luz Banzon</text>
<text transform="matrix(1 0 0 1 7212.877 4038.6003)" class="st1 st35">San Isidro</text>
<text transform="matrix(1 0 0 1 6643.7256 5225.1006)" class="st1 st35">Corrales</text>
<text transform="matrix(1 0 0 1 5324.1943 5270.6187)" class="st1 st35">Aplaya</text>
<text transform="matrix(1 0 0 1 4062.6802 4114.8135)" class="st1 st35">Solana</text>
<text transform="matrix(1 0 0 1 4099.7021 3186.9004)" class="st1 st35">Kimaya</text>
<text transform="matrix(1 0 0 1 3062.0688 3118.6738)" class="st1 st35">Lower Jasaan</text>
<text transform="matrix(1 0 0 1 2734.5164 2456.7002)" class="st1 st35">Bonbontugan</text>
<text transform="matrix(1 0 0 1 2893.0173 1792.49)" class="st1 st35">Jampason</text>
<text transform="matrix(1 0 0 1 2364.4585 2768.8501)" class="st1 st35">Upper Jasaan</text>
<line class="st37" x1="3207.5" y1="2722.7" x2="4341.2" y2="2707.5"/>
<ellipse class="st6" cx="3845.7" cy="2370.2" rx="62.1" ry="60.7"/>
<ellipse class="st10" cx="5148.2" cy="4038.6" rx="62.1" ry="60.7"/>
</svg>
