<?xml version="1.0" encoding="utf-8"?>
<!-- Generator: Adobe Illustrator 27.1.0, SVG Export Plug-In . SVG Version: 6.00 Build 0)  -->
<svg version="1.1" id="Layer_1" xmlns="http://www.w3.org/2000/svg" xmlns:xlink="http://www.w3.org/1999/xlink" x="0px" y="0px"
	 viewBox="0 0 8186.1 5537.7" style="enable-background:new 0 0 8186.1 5537.7;" xml:space="preserve">
<style type="text/css">
	.st0{fill-rule:evenodd;clip-rule:evenodd;fill:#FBFAFB;}
	.st1{fill-rule:evenodd;clip-rule:evenodd;fill:#9C14E4;}
	.st2{fill:#0B0BF9;stroke:#FFFFFF;stroke-miterlimit:10;}
	.st3{fill:#F9F912;stroke:#FFFFFF;stroke-miterlimit:10;}
	.st4{fill:#F70D34;stroke:#FFFFFF;stroke-miterlimit:10;}
	.st5{fill:#8800FF;}
	.st6{font-family:'ArialMT';}
	.st7{font-size:140px;}
	.st8{fill:#7400EF;}
	.st9{fill:#7F00EF;}
	.st10{fill:#8703EF;}
	.st11{font-size:150px;}
	.st12{font-size:124px;}
	.st13{font-size:200px;}
</style>
<path class="st0" d="M3938.6,492.9c6.1,3.9,7.4,5.6,10.9,14.2c2.9,7.2,3.7,8.1,22.3,26.1c21,20.3,23.5,23.3,27.3,32.9
	c2.3,5.9,4.1,7.9,21.9,25.5c10.7,10.5,20.7,21,22.4,23.4c1.7,2.4,4.3,7.5,5.8,11.5c2.6,7,3.3,7.8,23.7,28c20.6,20.5,21,21,25.3,30.2
	c4.3,9.2,4.7,9.7,23.5,28.2c21,20.6,23.5,23.7,27.5,33.9c2.6,6.5,3.7,7.9,21.6,25.4c20.9,20.4,24.8,25,28.4,34.3
	c2.2,5.6,4.3,8.2,19.3,23.3c24.6,24.9,26.5,27.2,30.1,36.6c4.6,12,3,13.9-7.5,8.8c-6.7-3.2-6.7-3.2-33.4-3.3
	c-26.7-0.1-26.7-0.1-34-4.5c-7.3-4.4-7.3-4.4-35.5-4.2c-15.5,0.1-30.3-0.2-32.9-0.7c-2.6-0.5-8-2.9-12-5.3
	c-7.3-4.4-7.3-4.4-25.8-4.1c-10.2,0.2-22.7-0.2-27.9-0.7c-8.1-0.8-10.1-1.5-14.5-4.3c-2.8-1.9-6-3.7-7.1-4.2c-1.1-0.5-13.7-0.9-28-1
	c-28.3-0.2-28.5-0.2-37.4-6.3c-5.4-3.7-5.4-3.7-29.6-3.8c-13.3-0.1-26-0.4-28.1-0.8c-2.2-0.4-7.2-2.5-11.2-4.7
	c-7.2-4-7.2-4-33.5-4.2c-29.2-0.2-25.6,0.5-40.8-7.8c-5.5-3-5.5-3-26-2.4c-11.3,0.3-25.6,0.2-31.8-0.3c-10.5-0.9-11.7-1.2-16.5-4.4
	c-2.9-1.9-6.3-3.8-7.7-4.3c-1.4-0.5-13.9-0.9-28-1c-27.7-0.1-27.9-0.2-36.8-6.2c-5.3-3.6-5.3-3.6-193-3.4
	c-105.5,0.1-192.4-0.2-198.4-0.7c-9.9-0.8-11.1-1.2-17.4-5c-3.9-2.4-8.1-4.1-9.9-4.1c-1.7,0-32.7,0-68.9,0
	c-65.8,0.1-65.8,0.1-74.8,4.8s-9,4.7-29.7,4.8c-11.4,0-21.6,0.5-22.7,0.9c-1.1,0.5-4.3,2.4-7.1,4.2c-6.6,4.4-13.9,5.4-34.9,5
	c-13.4-0.2-16.5,0-19,1.4c-14.6,8.1-13.7,7.8-28.5,7.8c-14.6,0-18.1-0.7-24.5-5c-6.3-4.2-7.1-4.4-25.6-5
	c-17.6-0.6-17.6-0.6-24.5-5.1c-6.9-4.5-6.9-4.5-24.4-5c-18.8-0.5-17.6-0.2-29.5-7.2c-7.9-4.6-11.5-8.1-11.5-11
	c0-1.3,1.6-4.8,3.5-7.8c1.9-3,3.8-6.4,4.1-7.5c0.3-1.1,0.4-10,0.2-19.6c-0.3-17.5-0.3-17.5-4.3-23.9c-3.9-6.3-4-6.6-4.7-19
	c-1.2-21.9-3.6-23.9-29.2-24.3c-15.8-0.2-15.8-0.2-23.8-4.5c-8.1-4.2-8.1-4.2-95.7-4.1c-56.5,0-89.6-0.3-93.1-1
	c-3.4-0.6-7.8-2.6-11.7-5.1c-5.3-3.4-7.6-4.3-15.3-5.4c-10.1-1.5-14.8-3.8-17.9-8.8c-2-3.2-2-3.2-1.5,0.8c0.6,4.7-1.2,12.3-3.2,13.1
	c-2.2,0.8,10,11.2,13.8,11.8c1.7,0.3,6.3,0.9,10.1,1.5c5.3,0.8,8.2,1.9,12.1,4.6c2.9,2,6.7,3.8,8.6,4.1c1.8,0.3,43.9,0.6,93.4,0.7
	c90,0.2,90,0.2,94.8,3.2c10.3,6.4,11.3,6.7,20.8,6.6c14.7-0.1,17.9,2.2,19.7,14.2c0.6,3.7,2,8.2,3.1,10c1.1,1.8,3.2,5.6,4.6,8.5
	c2.5,5.1,2.6,5.8,2.3,20c-0.3,14-0.5,14.9-3.1,19.2c-6.1,10.1-7,12.8-6.6,20.4c0.7,12.6,4.1,16.2,16.4,17.8c8,1,9,1.4,17.9,6.5
	c4.9,2.8,5.5,2.9,22.5,3.4c15.3,0.4,17.9,0.8,20.6,2.5c13.7,8.7,11.1,8,29.4,8c13.5,0,17,0.3,19.5,1.7c14.9,8.3,13.1,7.8,32.4,7.8
	c19.1,0,17.4,0.4,28.7-6.5c4.9-3,4.9-3,26.9-3c20.3,0,22.2-0.2,25.1-2c13.8-8.7,10.4-7.9,35.9-8.5c23.1-0.5,23.1-0.5,28.5-4.3
	c3-2.1,7-4.2,8.9-4.8c4.6-1.3,126.3-1.4,130.9,0c1.9,0.5,5.8,2.7,8.9,4.8c6.8,4.7-12,4.2,191.4,4.5c157.7,0.2,157.7,0.2,160.2,2.7
	c2.8,2.6,3.4,6.7,1.4,10.4c-0.6,1.2-6.2,7.4-12.3,13.7c-10,10.3-11.5,12.3-14,18.8c-2.1,5.6-4.3,9-9.3,14.4
	c-4.6,5-7.7,9.7-10.4,15.5c-2.8,6-5.8,10.4-10.8,15.8c-4,4.3-7.4,9.1-8.1,11.2c-2.8,8.8-6.6,14.2-17.9,25.8
	c-10.1,10.4-12,12.9-14,18.3c-1.8,4.7-4.1,8.3-9.4,14.1c-5.5,6.1-7.8,9.5-10.3,15.7c-2.6,6.3-4.7,9.5-10.2,15.4
	c-5.5,5.8-7.6,9-9.7,14.4c-2.3,6.1-4.1,8.4-14,18.7c-9.8,10.1-11.9,12.8-15.2,20.1c-2.8,6.1-5.9,10.6-10.9,16.2
	c-5.4,5.9-7.7,9.4-9.7,14.7c-2,5.2-4.3,8.7-9.1,14c-4.6,5-7.7,9.6-10.4,15.6c-2.9,6.2-5.7,10.4-10.5,15.5c-3.6,3.8-7.5,9-8.5,11.6
	c-4.4,10.2-5.7,12.1-16.8,23.6c-10.3,10.7-11.8,12.8-14.4,19.5c-2.3,5.9-4.4,9-10.1,15.2c-5.7,6.1-7.8,9.2-9.9,14.8
	c-3.1,8-7.9,14.3-18.8,24.6c-4.7,4.5-8.1,8.6-9.4,11.5c-1.9,4.4-3.8,8.3-9,17.8c-2.6,4.8-2.6,4.8-2,24.8c0.3,11,0.2,25.3-0.3,31.8
	c-0.9,11.4-1.1,12-5.3,19c-4.4,7.2-4.4,7.2-4.9,24.8c-0.5,17.6-0.5,17.6-4.1,23.5c-2,3.3-4,6.8-4.4,7.9s-1.1,9.7-1.4,19.1
	c-0.6,17.1-0.6,17.1-4.2,23c-2,3.3-4,6.8-4.4,7.9s-1.1,9.7-1.4,19c-0.6,17-0.6,17-5.1,24.5c-4.5,7.4-4.5,7.4-5,25s-0.5,17.6-5,25
	c-4.5,7.4-4.5,7.4-5,25c-0.6,19.4-0.8,20.2-8.7,30.5c-4.2,5.4-7.9,6.7-13.1,4.6c-1.4-0.6-6.4-1.7-10.9-2.5
	c-6.2-1.1-9.6-2.3-13.5-4.8c-2.9-1.9-6.8-4-8.7-4.7c-1.9-0.7-6.7-3.1-10.6-5.2c-3.9-2.1-9-4.5-11.3-5.3c-2.3-0.8-6.2-2.9-8.7-4.6
	c-2.5-1.7-7.1-4.1-10.2-5.4c-3.1-1.2-7.6-3.4-9.9-4.9c-2.3-1.5-6.6-3.6-9.4-4.6c-2.9-1.1-7.8-3.6-10.9-5.5c-5.9-3.6-12-5.5-18.1-5.5
	c-3.2,0-5.5-1-16.4-6.8c-2.1-1.1-6.8-1.8-15.6-2.2c-12.6-0.6-12.6-0.6-19.2-4.9c-5.8-3.8-7.8-4.5-15.5-5.6c-7.5-1-10.1-1.9-16.4-5.6
	c-4.2-2.4-8.9-5.2-10.6-6.1c-1.7-0.9-4-3.6-5.2-6c-3.5-7-6.6-9.6-12.7-10.9c-7.4-1.5-13.5-0.5-21.1,3.8c-4.8,2.7-8.6,3.9-15.4,4.9
	c-7.1,1.1-10.3,2.1-14.6,4.8c-3.1,1.9-8.5,4.8-12.2,6.4c-4.4,2-9.2,5.4-14.2,10c-4.2,3.9-9.3,7.6-11.4,8.4c-5.4,1.9-37,1.8-43.7-0.1
	c-3.6-1.1-6.7-3.1-11.8-7.9c-5.8-5.5-7.7-8.1-12.4-17.8c-4.4-9-6.6-12.3-10.7-16c-8-7.3-8.8-7.4-31.9-7.2
	c-25.7,0.2-25.4,0.4-42.2-16c-10-9.8-13.1-12.2-17.8-13.9c-3.1-1.2-8.1-3.6-11-5.5c-2.9-1.8-8.4-4.6-12.2-6.2
	c-8.5-3.5-14-7.8-26.4-20.6c-10.9-11.3-15.7-17.5-17.4-22.8c-3-9.2-4.6-11.1-13.2-15.2c-4.5-2.1-10.4-5.1-13.2-6.6
	c-4.2-2.3-6.4-2.8-14.6-3.1c-11.5-0.5-18.6,0.9-24.8,4.7c-2.5,1.5-7.3,3.9-10.6,5.2c-7.2,2.9-17,12-20.8,19.5
	c-2.9,5.8-5.3,8.1-12.2,12c-2.8,1.5-7,3.9-9.4,5.3c-3.9,2.2-6,2.6-17.2,3.2c-12.7,0.6-12.7,0.6-19.4,5c-8.8,5.7-16.2,6.7-40.8,5.4
	c-17.7-0.9-17.7-0.9-20.9-3.9c-3.2-3-3.1-1.7,0.2,2c1.5,1.7,1.6,2.7,0.9,6c-0.5,2.2-0.9,5.6-0.9,7.7c0,2.7-0.5,3.8-1.8,4.1
	c-1,0.2,10.7,0.7,25.9,1c15.4,0.4,29.1,0.3,30.8-0.2c1.7-0.5,5.8-2.7,9.1-4.9c6.4-4.2,13.7-6,20.3-4.7c5.3,1,13.7-1.1,19.2-4.8
	c2.8-1.8,6.1-3.7,7.5-4.1c9.1-2.8,21.4-13.4,24.6-21.2c2.1-5.1,4.9-8,10.9-11c2.8-1.4,6.3-3.6,8-4.8c4.1-3.1,9.7-4.4,18.5-4.4
	c11.1,0,14.3,1.2,22.5,8.8c4,3.7,13.6,12.5,21.4,19.7c7.8,7.2,18.7,18.1,24.2,24.4c11.8,13.4,12.8,14.3,19.9,17.1
	c3,1.2,7.5,3.4,10,5.1c2.5,1.6,7.5,4.1,11,5.4c8.7,3.4,12.3,6.1,23.1,17.4c7.2,7.6,10.3,10.1,13.4,10.9c2.2,0.6,11.9,1.1,21.8,1.1
	c20,0,23.6,0.8,26.5,6.1c4.1,7.4,7.2,11.3,15.7,19c4.9,4.5,11.4,11,14.3,14.3c9.3,10.8,9.5,10.8,36,11c17.5,0.1,23.3-0.2,25.2-1.3
	c1.4-0.8,5.9-4.6,10-8.5c5.7-5.4,9-7.7,13.5-9.3c3.3-1.2,8.5-3.8,11.5-5.8c6.1-4,6.3-4,17.2-5.4c6.5-0.8,8.5-1.5,12.6-4.5
	c8.3-6.1,13.5-4.9,24.8,5.6c4.1,3.9,9.3,7.4,14.6,9.9c4.5,2.2,10.2,5.1,12.6,6.4c2.4,1.4,5.8,2.5,7.6,2.5c6.8,0,14,2.1,18.9,5.5
	c5.8,4,13.1,5.7,20.4,4.8c6.7-0.8,13.5,1,19.7,5.3c4.1,2.8,6.6,3.7,12.5,4.4c10,1.2,11.4,1.6,16.2,4.7c2.3,1.5,6.9,3.8,10.2,5.2
	c3.3,1.4,8.1,3.9,10.8,5.4c2.6,1.6,7.1,3.7,10,4.8c2.9,1.1,7.7,3.5,10.7,5.4c3,1.9,7.5,4.1,9.8,4.9c2.4,0.8,5.7,2.5,7.4,3.7
	c1.7,1.2,6.3,3.6,10.3,5.3c4,1.7,9.5,4.6,12.3,6.4c4,2.5,7.1,3.6,13.8,4.6c11.3,1.7,12.7,3.2,12.2,12.5c-0.3,5.4-0.9,7.3-3.6,11.2
	c-1.8,2.6-4.2,7.3-5.4,10.5s-3.3,7.6-4.6,9.7c-1.3,2.2-3.7,7-5.3,10.8c-1.6,3.8-3.7,8.1-4.7,9.5c-1.9,2.8-14.4,28.1-15.6,31.7
	c-0.4,1.1-2.5,5-4.7,8.6c-3.3,5.4-4.2,8.3-5.3,15.8c-1.1,7-2.1,10.3-4.5,14c-1.7,2.7-4.2,7.5-5.5,10.7c-1.3,3.2-4,8.5-6,11.8
	c-2,3.3-3.6,6.6-3.7,7.5c-0.2,8.1-2.1,15.4-5.4,20.8c-2.9,4.7-3.9,7.7-5,15c-1.1,7.4-2.1,10.3-5.1,15.1c-3,4.9-4,7.8-5.1,15.1
	c-1.1,7.3-2.1,10.3-5,15c-3,4.9-3.8,7.4-4.6,14.2c-0.8,6.9-1.6,9.4-5,15c-3.3,5.4-4.2,8.3-5.4,15.8c-1,6.9-2.1,10.3-4.4,13.8
	c-1.6,2.6-4,7.1-5.1,10.1c-1.2,3-3.7,8-5.5,11c-1.9,3-4.1,7.5-4.9,9.9c-0.8,2.4-3,6.9-4.9,10c-1.9,3.1-3.7,6.8-4.1,8.1
	c-1.6,5.5-5.1,10.8-11.5,17.7c-4.2,4.6-7.3,8.9-8.5,12c-1,2.7-3.5,7.8-5.6,11.3s-4.6,8.5-5.4,11c-0.9,2.5-2.9,6.6-4.6,9.1
	c-1.6,2.6-4.1,7.4-5.4,10.8c-1.3,3.4-3.3,7.3-4.3,8.9c-1.1,1.5-4.9,8.8-8.5,16.3c-5.5,11.4-6.6,14.5-7,20.2
	c-0.4,5.6-1.2,7.9-4.6,13.5c-2.2,3.7-4.8,8.7-5.6,11.1c-0.8,2.4-3.1,6.9-5.1,10.2c-2.9,4.7-3.8,7.4-4.6,13.7
	c-0.6,5-1.8,9.5-3.4,12.3c-1.4,2.5-3.8,7.4-5.5,11c-1.7,3.6-4,8.1-5.1,10c-1.1,1.9-3.1,6-4.5,9c-1.4,3-3.4,7.3-4.6,9.5
	c-13.7,25.8-16,31-17,39c-1.3,10.3-3,13.8-8.6,17.5c-6.3,4.2-10.1,4-17.7-0.7c-6-3.7-6-3.7-24.1-4.2c-18.1-0.5-18.1-0.5-24.9-5
	c-6.8-4.5-6.8-4.5-19.7-5.2c-12.6-0.7-13-0.8-20.2-4.8c-7.4-4.1-7.4-4.1-36.3-4.1c-16.1,0-30.9-0.5-33.4-1.1
	c-2.5-0.6-7.4-2.9-10.8-5.2c-6.3-4.1-6.3-4.1-47.5-4.2c-45.5-0.1-41.4,0.5-56.1-7.8c-3.7-2.1-5.3-2.2-25-2.4
	c-22.1-0.2-24.4-0.5-30.3-5c-5.7-4.4-10.1-5.6-21.7-6c-11.3-0.4-11.5-0.5-22.5-6.4c-3.8-2.1-6.3-2.5-17.1-3
	c-12.6-0.6-12.6-0.6-19-4.7c-3.5-2.3-8.8-5.1-11.8-6.3c-3-1.2-6.7-3-8.3-4.1c-1.6-1.1-5.6-3.2-9.1-4.5c-6.4-2.6-19.4-10.1-23.7-13.8
	c-2.1-1.8-2.2-1.8-1-0.2c0.8,1,3.1,2.9,5.2,4.2c3.7,2.3,3.7,2.3,3.1,9.6c-0.3,4-1.1,7.6-1.7,8c-0.6,0.4-0.9,0.8-0.6,1
	c4.8,3.1,31.7,16.7,36.5,18.4c2.2,0.8,6.2,3,9,4.9c5.5,3.8,13.8,5.9,19.2,4.9c6.6-1.2,13.8,0.5,20.5,4.9c6.3,4.1,6.3,4.1,19.4,4.8
	c12.2,0.6,13.5,0.9,17.8,3.6c11.6,7.2,10,6.9,33.6,6.9c21.5,0,21.5,0,29,4.5s7.5,4.5,50.1,5c42.6,0.5,42.6,0.5,48,3.9
	c10.3,6.5,8.2,6.2,40.8,6.1c33-0.1,34.1,0.1,42.7,6c4.9,3.4,5.2,3.4,18,4c10.6,0.4,13.6,0.9,16.1,2.5c13.8,8.7,11.1,8,29.3,8
	c18.1,0.1,17.2-0.2,31,7.7c10.7,6.1,11.6,7.8,12.4,23.2c0.4,6.9,0.4,17.5,0,23.4c-0.8,12.4,0,15.7,5.5,24c3.6,5.4,3.6,5.4,3.9,20.7
	c0.3,14.8,0.3,15.5-2.3,20.6c-1.4,2.9-3.6,6.9-4.8,8.8c-2.1,3.3-2.2,4.5-2.2,22.5c0,19,0,19,4.2,26c2.3,3.8,4.5,8.1,4.9,9.5
	c0.4,1.4,2.5,5.7,4.6,9.6c2.1,3.9,4.5,8.9,5.3,11.2c0.8,2.2,3,6.4,5,9.2c3.8,5.5,4.3,7.8,2.5,11.1c-2.5,4.7-5.8,5.1-47.4,5.4
	c-21.5,0.2-39.9,0.6-41,1.1c-1.1,0.4-4.1,2.1-6.7,3.6c-2.6,1.6-7.4,3.9-10.7,5.2c-3.3,1.3-7.3,3.3-8.8,4.4c-1.5,1.1-5.9,3.3-9.8,4.8
	c-9.3,3.7-19,13.2-22.4,21.9c-1.3,3.3-3.9,8.6-5.8,11.7c-2.8,4.6-3.6,7.3-4.4,14c-0.8,7-1.6,9.3-4.9,14.9c-3.3,5.4-4.2,8.2-5.4,15.8
	c-1,6.8-2.1,10.3-4.3,13.9c-1.6,2.6-4.2,7-5.7,9.8c-2.2,4.1-3.9,5.8-9.4,8.9c-4.1,2.3-11,8.1-17.8,14.7
	c-9.4,9.2-12.4,11.4-19.5,14.8c-7.8,3.6-9.3,4.9-21.4,17.7c-18.6,19.8-29.2,28.7-38,32.1c-6.1,2.4-8.7,4.3-19.5,14.5
	c-10.6,10.1-13.5,12.2-19.8,14.8c-4.1,1.7-9.5,4.4-12,6c-2.6,1.6-7.2,3.9-10.2,5c-3.1,1.1-7.6,3.3-10,4.8c-2.5,1.5-6.5,3.5-9,4.5
	c-2.5,1-7.5,3.5-11.1,5.7c-3.8,2.3-8,4-10,4.1c-3,0.1-3.1,0.2-0.7,0.6c1.8,0.3,2.8,1,2.8,2.2c0,1.1,1.5,2.5,4,3.6
	c5.2,2.3,6.5,4,6.5,8.3c0,2,0.6,3.7,1.3,4c1.1,0.4,1.1,0.1,0-1.7c-2-3.2-0.2-5.2,7.3-8.2c3.6-1.4,8.3-3.8,10.6-5.2
	c2.2-1.4,6.9-3.7,10.3-5.1c3.4-1.4,8.3-3.8,10.8-5.4c2.5-1.6,6.9-3.6,9.6-4.5c6.6-2.1,5.8-1.6,19.3-14.8c10-9.8,12.7-11.9,17.7-13.7
	c10.1-3.6,10.6-4.1,30-24.4c10.4-10.9,20.5-20.9,22.4-22.2c1.9-1.3,6.8-3.8,10.9-5.4c6.5-2.6,8.7-4.3,19.5-14.9
	c8.7-8.6,13.3-12.3,16.1-13.2c12.1-3.9,23.4-14,26.9-24.1c1.1-3,3.5-7.8,5.4-10.7c3.2-4.9,4.6-10.8,5.1-21.9c0-0.6,1.9-3.9,4.2-7.3
	c3.7-5.5,4.3-7.2,5.3-15.6c1-7.9,1.8-10.2,4.7-14.7c1.9-2.9,4.1-6.7,4.8-8.5c1.4-3.5,6-7.9,9.8-9.3c1.3-0.5,4.3-2.2,6.7-3.9
	c2.4-1.6,6.9-3.9,10.1-5.1c3.2-1.2,8.4-3.9,11.7-6c3.2-2.1,7.8-4.1,10.1-4.4c2.3-0.3,30-0.5,61.7-0.3c55.5,0.3,57.6,0.4,60.6,2.3
	c12.4,7.9,12.5,7.9,19.3,7.8c3.7,0,8.2-0.8,10.3-1.7c5.5-2.4,8.4-2.1,10.5,1.1c1.5,2.3,1.8,6,2.3,26.8c0.5,22.6,0.6,24.3,2.7,27.5
	c5.5,8.7,6.5,11.4,7.4,20.4c0.5,5.1,0.9,72.8,0.8,152.9c-0.1,143.7-0.1,143.7,4.2,150.4c4.4,6.7,4.4,6.7,4.7,25.6
	c0.2,11.6-0.1,20-0.7,21.9c-0.8,2.4-0.8,2.8,0.2,2c1.5-1.3,21.8-1.9,23.8-0.7c0.8,0.5,0.4-0.3-0.8-1.6c-4.5-5-5.3-8.8-5.3-25.6
	c0-15.8,0-15.8-4.8-23.8c-4.8-8-4.8-8-5.2-160.5c-0.5-152.5-0.5-152.5-5-160s-4.5-7.4-4.6-37c-0.1-16.2,0.3-31.3,0.8-33.5
	c0.7-3.1,2.9-5.9,9.6-12.6c7.4-7.4,9.7-9,15.8-11.3c8.5-3.2,10.7-5.4,13.3-12.8c2.8-8.3,3.8-9.6,8.9-12.9c6.3-4,10.2-3.9,16.7,0.6
	c4.4,3,6.6,3.8,14.6,4.9c7.6,1.1,10.6,2,15.4,4.9c3.3,2,8,4.3,10.5,5.3c5.8,2.2,9.1,4.5,16.6,11.4c3.6,3.3,8.1,6.3,11,7.4
	c2.7,1,7.9,3.5,11.4,5.7c3.6,2.1,9.2,4.9,12.5,6.1c4.3,1.6,8,4.2,13,8.9c6.9,6.5,10.9,8.7,41.4,23.3c1.3,0.6,5.7,4.1,9.7,7.7
	c4.4,4,9.1,7.3,12.1,8.4c2.7,1,7.8,3.5,11.3,5.6c3.6,2.1,8.8,4.5,11.6,5.4c5.5,1.8,8.6,4.5,10.3,8.9c0.8,2.2,0.6,3.9-1.1,8.5
	c-1.5,4-2.3,9.3-2.8,17.8c-0.7,12.1-0.7,12.1-5.1,19.4c-4.4,7.3-4.4,7.3-5.1,19.4c-0.7,13.4-0.8,13.7-5.6,21.6
	c-2.6,4.3-3.7,7.6-4.7,14.7c-1.1,7.4-2.1,10.2-5.2,15.3c-3.8,6.1-3.8,6.4-4.5,19c-0.6,12.8-0.6,12.8-4.8,19.7
	c-3.5,5.8-4.4,8.4-5.6,16.1c-1.1,7.4-2,10.2-4.8,14.4c-1.9,2.8-4,6.8-4.7,8.7c-0.7,1.9-3.1,6.8-5.3,10.8c-3.2,5.8-4.2,9-4.9,15.5
	c-0.8,6.8-1.6,9.3-4.9,14.8c-3.2,5.4-4.2,8.3-5.3,15.7c-1.1,7.3-2.1,10.2-5,15c-3,4.9-3.8,7.4-4.7,14.3c-0.8,6.9-1.7,9.5-4.8,14.8
	c-2.1,3.6-4.8,9.1-6,12.4c-1.9,5-4.3,8.1-16.7,21c-14,14.6-14.4,15.1-11.8,15.8c3,0.8,10.7,9,11.6,12.3c0.4,1.6,1.6-0.3,4.5-7.4
	c3.7-9,4.5-10.1,16-22c10.2-10.6,12.5-13.4,14.3-18.5c1.2-3.3,3.8-8.3,5.8-11.2c2.9-4.2,3.7-6.5,4.4-12.5c0.5-4,0.9-8.1,0.9-9
	c0-0.9,1.9-4.4,4.1-7.8c3.6-5.4,4.2-7.2,5.3-15.5c1-8.2,1.6-10,5.1-15c3.9-5.7,5.4-10.9,5.5-19.2c0-2.8,1.1-5.6,3.2-9
	c1.7-2.7,4.4-8,6-11.8s4.2-8.7,5.9-11.1c2.6-3.6,3.3-5.9,4.3-13.9c1.1-8.5,1.6-10.2,5.2-15.3c4-5.8,4-5.8,4.5-18.8
	c0.6-13.6,0.9-14.8,6.2-22.2c2.3-3.2,3.1-5.9,3.9-12c1.4-11.3,1.5-11.6,5.6-17.5c3.8-5.4,3.8-5.4,4.3-19c0.5-13.1,0.6-13.7,3.5-17.9
	c6.3-9,6.5-9.6,6.5-23.1c0-13.5,0.7-16,5.3-19.4c4.9-3.6,8.9-2.8,24.8,5.1c7.9,3.9,16.5,8.1,19.1,9.3c2.6,1.2,7.7,4.9,11.4,8.3
	c5.7,5.2,7.5,7.7,11.5,16.2c4.4,9.1,5.6,10.8,13.4,17.9c10.9,9.9,12.9,12.6,17.1,22.8c3.4,8.1,4,8.8,19.8,24.3
	c16,15.7,16.4,16.2,19.7,24.4c2.7,6.8,4.8,9.9,10.6,16.3c5,5.5,7.8,9.5,9.3,13.5c1.2,3.1,3.7,8.4,5.5,11.8c1.9,3.4,4.1,7.9,4.8,10.1
	c0.8,2.2,3,6.5,4.9,9.5s4.2,7.5,5.2,9.9c1,2.5,3.1,6.9,4.7,9.8c1.6,2.9,3.8,7.5,4.9,10.1c1,2.7,3.7,7.7,6,11.1
	c2.2,3.5,4.1,6.9,4.1,7.6c0,0.7,2.2,5.5,4.8,10.6c2.6,5.1,5.4,10.8,6.2,12.8c0.8,1.9,2.6,5.4,4.2,7.6s3.7,6.6,4.9,9.5
	s3.8,8.5,5.9,12.4c2.1,3.9,4.4,8.6,5.1,10.5c0.7,1.9,2.6,5.4,4.1,7.6s3.7,6.6,4.9,9.5c1.2,2.9,3.4,7.7,5,10.5
	c1.6,2.8,4,7.9,5.3,11.2c1.3,3.3,3.8,8,5.4,10.4c1.6,2.4,4,7,5.3,10.3c1.7,4.2,4.5,8.2,9.4,13.5c5.4,5.8,7.7,9.2,9.8,14.6
	c2.1,5.4,4.5,9,10.2,15.3c5.8,6.4,8,9.8,10.1,15.3c2.5,6.4,3.8,8.2,13.6,17.9c10,9.9,11.3,11.6,15.4,20.5c3.5,7.5,6,11.3,11.2,16.8
	c5.2,5.5,7.3,8.7,9.5,14.3c2.1,5.4,4.5,9.1,9.5,14.6c5.1,5.6,7.7,9.6,10.9,16.9c4.3,9.7,5.1,14.3,3.2,17.8
	c-0.6,1.1-5.2,3.9-10.2,6.3c-8.3,4-9.9,5.2-16.4,12.7c-9.4,11-28.8,29.9-33.8,33c-2.2,1.4-7,3.7-10.6,5.2c-6,2.5-8.6,4.7-27.8,23.8
	c-20.6,20.5-21.4,21.1-30.4,25.3c-8.7,4-10,5.1-21.7,17.2c-24.2,25.2-31.2,30.7-44.1,34.9c-3,1-4.9,2-4.2,2.2c0.7,0.2,1.2,2,1.2,4.1
	c0,2,0.4,5.2,1,7.1c0.9,3,0.7,3.8-1.3,6c-4.3,4.7-5.1,6.6-1.1,2.4c2.7-2.8,5.6-4.6,9.1-5.7c8.6-2.6,10.5-4,26.9-21.3
	c20.1-21.1,25.3-25.4,34.6-28.9c7.2-2.7,7.9-3.3,28.8-24.3c22-22.1,21.3-21.6,35.9-27.8c3.1-1.3,8.6-6.3,20-18.3
	c19.9-20.9,26.6-26.4,35-29.3c5.3-1.7,7.8-3.4,12.9-8.5c3.5-3.5,7.7-6.6,9.2-6.9c3.2-0.7,18.4,5,26.2,9.7c2.6,1.6,7.5,4,10.9,5.3
	c7.8,3.1,11.2,5.6,22.9,17.5c7.7,7.8,10.6,10,15.5,12c3.3,1.3,7.2,3.2,8.7,4.2c1.5,1,6.6,3.6,11.3,5.8s9.9,4.9,11.4,5.9
	c1.5,1.1,5.4,3,8.7,4.2c3.3,1.2,8.2,3.8,11.1,5.6c4.2,2.8,6.6,3.6,12.8,4.3c9.4,1.1,10.9,1.5,16,4.9c2.2,1.5,4.9,3.1,6,3.6
	c1.1,0.5,37.5,1.1,84,1.4c90.2,0.6,82.1,0,93,6.9c5,3.2,5,3.2,298.7,3.2c227.3,0,294.2-0.3,296-1.2c1.2-0.7,3.8-2.4,5.8-4
	c1.9-1.5,5.3-3.2,7.5-3.8c2.8-0.8,108.8-1.1,360.4-1.1c288.9,0,356.1-0.2,354.7-1.3c-1.2-0.9-2.1-3.7-2.8-8.6c-1-7-0.9-7.4,1.6-10.7
	c3.6-4.7,3.2-5.1-0.8-0.8c-3.4,3.7-3.4,3.7-16.2,4.4c-7.1,0.4-167.6,0.8-356.8,0.8c-343.9,0-343.9,0-350.6,4.1
	c-4.8,2.9-8.6,4.4-13.1,5.1c-4.1,0.6-108.6,0.9-290.4,0.7c-284-0.3-284-0.3-288.5-2.6c-2.5-1.2-6.5-3.5-9-4.9
	c-4.5-2.7-4.5-2.7-76.5-2.5c-39.6,0.1-76.6-0.2-82.1-0.6c-9.9-0.8-11.4-1.3-20.6-6.6c-3.3-1.9-7.1-2.9-13-3.6
	c-6.6-0.8-9.3-1.6-13.3-4.1c-2.8-1.8-6.6-3.9-8.5-4.8c-1.9-0.9-7.6-3.6-12.5-6.2c-4.9-2.5-10.6-5.2-12.5-6s-5.8-2.8-8.5-4.5
	c-2.8-1.7-8.2-4.4-12-6c-6-2.5-8.8-4.6-19-14.5c-9.8-9.5-13-12-17.6-13.7c-3.1-1.2-8.3-3.8-11.6-5.9c-3.3-2.1-7.9-4.5-10.4-5.3
	c-4.6-1.5-14.9-10.6-14.9-13.2c0-3.4-5.5-12.6-10.9-18.2c-4.3-4.5-7.1-8.6-10-14.9c-2.6-5.7-5.5-10.2-8.3-13
	c-6.4-6.3-9.4-10.6-11.8-17.3c-1.8-5-4-7.8-12.9-17c-12.2-12.5-13.6-14.4-17.5-23.9c-2-4.9-4.8-8.9-9.5-14.1
	c-5.1-5.5-7.3-8.9-9.6-14.6c-2.3-5.8-4.4-9-9.5-14.4c-6.6-7-8.9-10.6-11.3-17.4c-0.7-2-2.7-5.9-4.4-8.6c-1.7-2.7-4.1-7.4-5.2-10.4
	c-1.1-3-3.6-8-5.5-11c-1.9-3.1-4-7.4-4.8-9.6s-2.8-6.2-4.5-9c-1.7-2.7-4.1-7.4-5.2-10.4c-1.1-3-3.6-8-5.5-11
	c-1.9-3.1-4.1-7.5-4.9-9.9c-0.8-2.4-2.5-5.7-3.7-7.4c-1.2-1.7-3.6-6.3-5.3-10.2c-1.7-3.9-4.4-9.3-5.9-11.9c-1.5-2.6-3.7-7-4.7-9.6
	c-1-2.7-3.2-7.1-4.9-9.7c-1.7-2.6-4-7.3-5.1-10.4c-1.1-3.1-3.4-7.6-5-10.2c-1.6-2.5-4-7.3-5.3-10.5c-1.3-3.2-3.7-8.1-5.4-10.8
	c-1.7-2.7-3.7-6.5-4.3-8.5c-0.6-2-2.9-6.5-5-10.1c-2.1-3.6-4.6-8.7-5.5-11.3c-1.1-3.2-4-7.3-8.9-12.6c-5-5.4-8-9.7-9.6-13.7
	c-2.9-7.2-5.5-10.8-12.8-17.5c-9-8.3-20-19.9-23.1-24.3c-1.5-2.2-3.8-6.7-5.1-10c-1.9-4.9-4.4-8.1-13-17c-12.5-12.9-14-14.9-17-23.2
	c-1.4-3.9-4.1-8.3-7.1-11.8c-6.8-7.8-6.7-10.1,1-15.8c3.2-2.4,8.7-5.4,12.2-6.6c3.5-1.3,8.6-3.8,11.4-5.6c2.8-1.8,7.7-4.3,11-5.5
	c8.9-3.3,18.2-12.9,21.9-22.7c2.2-5.9,4.3-8.9,10.5-15.6c5.5-5.9,8.1-9.6,9-12.7c0.7-2.4,3-7.3,5.2-10.9c2.1-3.6,4.6-8.5,5.4-11
	c0.9-2.5,2.9-6.6,4.6-9.1c1.6-2.6,4.1-7.4,5.4-10.8c1.3-3.4,3.4-7.5,4.6-9.2s3.7-6.7,5.5-11c1.8-4.4,4.7-9.7,6.3-11.8
	c1.7-2.1,20.4-21,41.7-42c38.6-38.2,38.6-38.2,42-46.3c3-7.3,4.5-9.3,15.2-20.2c10.5-10.7,12.1-12.9,14.2-18.6
	c1.3-3.6,3.6-8.3,5.1-10.5s34.1-35.2,72.5-73.4c69.8-69.4,69.8-69.4,73-77.3c1.8-4.4,4.7-9.6,6.5-11.6s22.9-23.3,47-47.2
	c43.8-43.5,43.8-43.5,46.5-50.9c3.2-8.7,8.4-14.8,30.6-36.1c14.5-13.9,15.6-15.3,20.4-27c1.3-3.1,5.7-8.4,14.1-17
	c6.7-6.9,12.7-13.8,13.3-15.3c0.6-1.7,1.1-12.7,1.1-28.1c0-27.8,0.2-29.2,5.9-37.1c3.6-5,3.6-5,4.1-33.6c0.5-28.7,0.5-28.7,4.3-34.1
	c2.1-3,4.8-8.2,6.2-11.6c1.3-3.4,3.3-7.5,4.5-9.1c1.1-1.6,3.4-6.2,5-10.1c1.6-3.9,4.1-8.8,5.5-10.9c1.4-2,3.6-6.5,5-9.8
	c1.3-3.4,3.9-8.2,5.6-10.8c2.7-3.9,3.4-6.1,4-12.6c1-9.7,1.5-11.5,4.7-15.8c1.4-1.9,3.8-6.5,5.4-10.3c1.5-3.8,4.2-8.9,5.9-11.3
	c2.6-3.6,3.3-5.7,3.9-12.4c1-10.3,1.5-11.5,5.7-17.4c3-4.1,3.6-5.9,4.3-12.7c1-9.8,1.5-11.6,4.7-15.9c1.4-1.9,3.8-6.5,5.4-10.3
	c1.5-3.8,3.8-8.3,4.9-9.9c1.2-1.6,3.6-6.7,5.5-11.2c2.9-7.1,4.4-9.2,11.2-15.8c6.5-6.3,9.1-8.1,15.3-10.4c7.2-2.8,8.1-3.5,29.4-24.6
	c21.6-21.5,22-21.8,30-25c8-3.2,8.4-3.5,30.6-25.4c22.1-21.8,22.6-22.2,30-25c7.3-2.7,8-3.2,23.5-19.1
	c16.2-16.5,17.8-17.7,28.1-21.6c4.3-1.6,7.8-4.1,13.4-9.4c5.7-5.4,9-7.7,13.5-9.4c3.3-1.2,8.5-3.7,11.5-5.6
	c3.1-1.9,8.2-4.4,11.4-5.6c4.3-1.6,7.9-4.1,13.6-9.4c6.2-5.8,9-7.7,14.5-9.6c5.5-2,8.3-3.8,15-10c6.2-5.7,9.7-8.1,14.2-9.8
	c3.3-1.2,7.7-3.4,9.9-4.9c2.1-1.5,7-4,10.9-5.6c3.9-1.6,9-4.2,11.5-5.8s7.2-3.9,10.4-5.1c4.4-1.6,8-4.1,13.7-9.5
	c5.5-5.2,9.2-7.7,12.7-8.9c2.7-0.9,7.9-3.4,11.5-5.6c3.6-2.2,9-4.9,12-6c3-1.1,6.6-2.9,7.8-3.9c5.7-4.5,8.7-5.2,21.2-5.5
	c12.8-0.2,14.2-0.6,20.7-5.7c5.1-4,9.8-4.9,26.5-4.9c14.2,0,15.2-0.2,19-2.5c8-4.9,12-6.5,17-6.5c6.8,0,10.8-1.3,16.9-5.5
	c2.8-1.9,7.1-4.2,9.6-5.1c2.5-0.9,7.4-3.3,11-5.4c3.6-2.1,8.2-4.4,10.3-5c2.1-0.7,5.9-2.7,8.6-4.5c6.5-4.4,10.8-5.5,22.5-5.5
	c10.2,0,12.8-0.8,19.2-5.6c6-4.5,8.4-4.7,71.6-4.3c59.7,0.3,59.7,0.3,65.7-3.9c3.3-2.3,7.9-4.7,10.3-5.3c2.9-0.7,20.1-1,52.4-0.8
	c48,0.3,48,0.3,52.5,3c10.2,6.2,12.3,6.8,23.8,7.1c10.8,0.2,10.8,0.2,35.7,12.6c24.9,12.4,24.9,12.4,36.5,23.5
	c9.8,9.4,12.6,11.5,17.9,13.5c8.7,3.3,15.4,8.6,30.6,24.3c11.3,11.7,13.8,13.7,19,15.8c9.3,3.6,12.8,6.5,33.1,27
	c18,18.3,19.4,19.4,27.4,23.1c6.1,2.8,10.2,5.6,14.5,9.8c6.6,6.4,10.1,8.3,13.7,7.1c4-1.3,22.2-10.2,24-11.8
	c0.9-0.8,5.3-2.9,9.7-4.8c4.5-1.8,9.3-4.3,10.7-5.4c1.4-1.1,5.8-3.3,9.8-4.8c10-3.8,19.3-13,22.6-22.4c1.3-3.6,3.5-8.1,5-10
	c1.5-1.9,3.1-4.2,3.6-5c0.5-0.8,1.1-7.6,1.4-15.1c0.5-13.1,0.6-13.7,3.5-17.9c6.9-9.9,6.7-9.1,6.8-23.4c0.2-13.3,0.2-13.3,4.3-19.5
	c2.3-3.4,4.7-8.4,5.3-11.1c1.3-5.6,3.1-7.5,6-6.7c1.1,0.3,1.8,0.1,1.4-0.4c-0.9-1.5-3.7-1-6,1.1c-2.2,2-2.2,2-6.4-3.5
	c-2.3-3-4.9-5.5-5.6-5.5c-1.9,0-1.7-2.9,0.4-5.4c1.3-1.6,1.1-1.5-0.9,0.3c-3.8,3.3-5.5,7.5-6.7,16c-0.8,5.7-1.9,8.8-4.8,13.5
	c-3.7,6-3.8,6.4-4.4,18.7c-0.6,13-0.7,13.1-6.8,23.9c-2.6,4.7-3.1,6.5-3.1,12.5c0,12.8-1.4,17.9-7.7,28.2
	c-3.1,5.2-6.9,10.3-8.3,11.4c-3.9,3-15.2,9.8-18.6,11.1c-1.6,0.7-7.1,3.3-12.1,5.8c-5,2.6-12,5.8-15.5,7.2
	c-11,4.4-13.1,4.1-21.1-3.1c-4.5-4.1-8.5-6.6-13.6-8.6c-8.7-3.4-19.1-12.3-38.6-32.9c-12.1-12.8-13.2-13.8-20.5-16.8
	c-9.9-4.1-10.7-4.7-29.2-23.1c-14.6-14.5-15.9-15.5-23-18.3c-6.8-2.6-8.7-4-19.5-14.6c-10-9.8-13-12.1-17.9-13.9
	c-3.2-1.2-7.9-3.6-10.3-5.3c-2.5-1.7-7.2-4.2-10.6-5.5c-3.4-1.3-7.7-3.4-9.7-4.7c-5.6-3.7-6.8-4-20.1-4.6c-12.6-0.6-12.6-0.6-19.9-5
	c-7.3-4.4-7.3-4.4-61.1-4.3c-53.9,0.1-53.9,0.1-60.7,4.2c-4.5,2.7-8.9,4.5-12.8,5.2c-3.5,0.6-28.5,0.9-62.5,0.8
	c-63.2-0.2-55.3-0.9-69.2,6.4c-3,1.6-6.6,2.2-16.2,2.7c-12.1,0.7-12.4,0.7-19.1,4.8c-3.8,2.3-8.8,4.8-11.2,5.7
	c-2.4,0.9-6.5,2.8-9,4.4c-2.5,1.5-6.6,3.6-9.1,4.6c-2.5,1-7.5,3.5-11.1,5.7c-5.5,3.3-8,4.1-14.8,4.9c-5.8,0.7-9.6,1.7-12.9,3.6
	c-10.5,6-9.8,5.9-27.7,6.4c-17.1,0.5-17.1,0.5-24.4,5c-7.3,4.4-7.3,4.4-19.5,5.1c-12.2,0.6-12.2,0.6-26.6,7.9
	c-7.9,4-18.4,9.3-23.4,11.7c-5.9,2.9-11.3,6.6-15.8,10.7c-4.8,4.5-8.7,7.1-13.5,9c-3.7,1.5-8.8,3.9-11.2,5.4s-6.5,3.5-9,4.5
	c-2.5,1-7.4,3.5-11,5.6c-3.6,2.1-8.7,4.6-11.5,5.7c-3.3,1.2-7.4,4.1-12.1,8.6c-5.3,5-9.3,7.8-15.7,10.7c-6.1,2.8-10.6,5.8-15.7,10.5
	c-4.9,4.5-8.9,7.2-12.9,8.6c-3.2,1.2-8.2,3.6-11.3,5.5c-3.1,1.9-8.1,4.3-11.2,5.5c-3.9,1.5-8.1,4.4-13.9,9.5c-6,5.4-9.9,8-14.3,9.7
	c-5.4,2-7.7,3.9-20.6,16.9c-16.6,16.8-20.4,19.7-30.3,23.5c-6.9,2.7-8.1,3.7-28.7,24.1c-20.7,20.6-21.8,21.5-30.7,25.7
	c-8.9,4.2-9.8,5.1-29.5,24.9c-20.3,20.5-20.3,20.5-30.8,25.4c-10.3,4.8-10.8,5.2-25.6,20.3c-13.3,13.6-15.4,16.1-17.3,21.4
	c-1.2,3.3-3.5,7.8-5.1,10.1c-1.6,2.3-3.9,6.5-5,9.5c-1.2,2.9-3.7,8.2-5.6,11.6c-2.6,4.7-3.8,8.5-4.9,15.4c-1.1,7.6-2,10.1-5.1,14.7
	c-3.1,4.7-3.9,7-5,14.8c-1.1,7.6-2,10.4-4.8,15.1c-2,3.2-4.2,7.7-5.1,10.1c-0.8,2.4-3.2,7-5.2,10.3c-3,4.9-3.9,7.6-4.9,14.8
	c-1,7.3-1.9,9.9-5.3,15.6c-2.3,3.7-4.6,8.4-5.3,10.4c-0.6,2-2.6,5.9-4.3,8.6c-1.7,2.8-3.8,6.6-4.5,8.5c-0.8,1.9-3.4,7.6-6,12.5
	s-5.3,10.6-6.2,12.5c-0.9,1.9-3,6.2-4.8,9.5c-3.3,6-3.3,6-2.7,21.5c0.3,8.5,0.2,20.5-0.2,26.6c-0.8,10.8-0.9,11.4-5.2,18.5
	c-4.4,7.3-4.4,7.3-5,34.4c-0.4,22.1-0.8,27.7-2.2,30.7c-0.9,2-7,9.2-13.5,16.1c-10.9,11.4-12.1,13.1-15.2,20.8
	c-3.4,8.4-3.4,8.5-25.2,30.3c-20.6,20.6-22,22.3-24.4,28.6c-1.6,4.2-4.5,9-7.8,12.8c-2.9,3.4-23.4,24-45.5,45.8
	c-22.2,21.8-41.4,41.5-42.7,43.8c-1.3,2.3-3.3,6.6-4.5,9.6c-1.1,3-4.4,8.2-7.2,11.5c-8.6,10.1-101.3,103.6-120.6,121.7
	c-12.5,11.6-18.8,18.3-20.2,21.2c-1.1,2.3-2.8,5.9-3.8,8.1c-1,2.2-7,9.4-13.4,16c-9.7,10.1-11.9,12.9-13.7,18
	c-1.2,3.3-3.6,8.2-5.3,10.9c-3.5,5.5-60.2,63.1-72.6,73.8c-8.1,6.9-8.3,7.2-15.8,22.7c-4.2,8.6-8.6,17.4-9.8,19.6
	c-7,13.3-15.8,31.2-17.8,36.1c-1.6,3.8-4.5,8.1-8.9,12.7c-3.6,3.8-8.1,9.6-10.1,13c-3.1,5.3-4.6,6.7-12.5,11.5
	c-4.9,3-12.1,6.8-15.8,8.3c-3.7,1.6-8,3.7-9.5,4.7c-5.1,3.6-20.5,10.2-23.7,10.2c-3.2,0-20.3-7.3-25.4-10.9c-1.4-1-5.2-2.8-8.3-3.9
	c-3.2-1.2-8.1-3.7-11.1-5.7c-4.4-2.9-6.7-3.7-13.3-4.5c-9.1-1-10.3-1.4-16.4-5.2c-2.4-1.5-6.9-3.7-9.9-4.8c-3-1.1-7.4-3.4-9.9-5.1
	c-2.5-1.7-7.2-4.2-10.6-5.6c-6.8-2.8-13.3-7.3-18.7-12.9c-1.9-2-6-4.8-9-6.1c-3-1.3-9.8-4.5-15-7c-5.2-2.5-11-5.3-12.9-6.2
	c-1.9-0.9-6-4.2-9.2-7.4c-4.2-4.2-8.4-7-15.1-10.3c-5.1-2.5-11.6-5.7-14.3-7.2c-2.8-1.5-7.3-3.7-10-4.9c-2.7-1.2-8-5.1-11.7-8.6
	c-4.3-4.1-8.4-7-11.5-8.2c-2.6-1-7.8-3.6-11.5-5.7c-5.6-3.3-8.2-4.2-15-5c-7.9-1-10.2-1.8-19.2-7.3c-5.1-3.1-10.9-3.9-17.4-2.5
	c-7,1.5-9.6,4-13.2,12.8c-2.6,6.5-4.5,9-15.7,20.9c-15.6,16.6-23.4,23.2-30.4,25.6c-2.9,1-8.1,3.6-11.4,5.7
	c-9.5,6.1-19.4,6.2-27.2,0.2c-4.5-3.4-8.8-5-15.5-5.8c-3.9-0.5-6.7-1.5-8.7-3.1c-3-2.6-11.3-16.9-13.7-23.9c-0.8-2.2-3-6.6-4.9-9.7
	c-1.9-3.1-4.2-7.6-5-10s-3.4-7.5-5.7-11.3c-4.2-7-4.2-7-4.2-23c0-17.7-0.7-15.2,8-28.9c1.8-2.8,2-4.9,2-20.6c0-19.1,0.2-18.1-7-29.7
	c-3-4.8-3-4.8-3-41.4s0-36.6,3-40.9c5.9-8.5,6.4-9.6,7.3-18.2c0.8-7.2,1.5-9.6,4.5-14.5c2-3.2,4.3-7.8,5.1-10.2
	c0.8-2.4,3.1-6.9,5-10c1.9-3.1,4.2-7.7,5.1-10.1c0.9-2.5,2.9-6.6,4.6-9.1c1.6-2.6,4.1-7.4,5.4-10.8c1.3-3.3,3.8-8,5.5-10.4
	c3.1-4.3,5.1-11.7,5.1-18.6c0-2.4,1.3-5.7,4-10.1c2.2-3.6,4.7-8.6,5.5-11c0.9-2.5,3.2-6.8,5.1-9.7c3.1-4.5,3.7-6.4,4.5-14
	c0.9-8.5,2.5-13.1,5.5-16.6c0.8-0.9,2.8-4.9,4.3-8.8c1.6-3.9,4.2-9,5.7-11.3c1.6-2.3,3.7-6.5,4.7-9.2c1-2.8,3.1-7,4.7-9.5
	c1.6-2.5,3.6-6.5,4.4-9c0.9-2.5,3.3-7.4,5.5-11c2.1-3.6,4.9-9.1,6-12.3c1.6-4.2,4.2-8,9.9-14.1c5.5-5.9,8.1-9.6,9-12.7
	c0.7-2.4,2.9-7,4.8-10.2c1.9-3.2,4.6-8.4,5.8-11.7c1.3-3.2,3.6-7.8,5.2-10.2c1.6-2.4,3.7-6.6,4.6-9.3c0.9-2.7,3.3-7.3,5.3-10.2
	c3.1-4.6,3.7-6.4,4.6-14.1c1-8.8,1.3-9.6,8-20.2c1-1.5,2.1-6.5,2.6-11.5c0.8-7.8,1.4-9.5,4.7-14.3c3.3-4.8,3.8-6.4,4.5-13.8
	c0.8-8.8,1.4-10.5,6.2-17.3c2.4-3.4,3.2-5.9,4.2-13.8c1.1-8.4,1.7-10.2,5-15.1c3.3-4.8,3.9-6.6,4.6-13.5c1-10,1.4-11.3,5.5-17.2
	c1.8-2.6,3.8-6.5,4.5-8.5c0.7-2.1,3-6.8,5.2-10.6c3.4-5.7,4.2-8,4.8-14.5c0.8-8.9,1.3-10.4,4.8-15.1c1.4-1.9,3.8-6.5,5.3-10.3
	c1.5-3.8,4.1-8.8,5.7-11.1c1.6-2.3,3.6-6.5,4.5-9.2c0.9-2.8,3.2-7.3,5-10c1.8-2.7,3.9-6.8,4.6-9c0.7-2.2,3-6.9,5.1-10.5
	c2.1-3.6,4.6-8.5,5.4-11c0.9-2.5,2.3-5.6,3.3-7s4.8-8.6,8.5-16c5.8-11.4,7-14.7,7.7-21c1.1-9,1.6-10.5,5.2-15.1
	c4.8-6.2,5.3-8.3,5.3-25.9c0.1-16.5,0.1-16.5,4.6-24c4.5-7.4,4.5-7.4,5-25.6c0.5-18.2,0.5-18.2,3.8-22.5c6.7-9,6.7-8.9,6.5-25.8
	c-0.3-17.3,0.3-20,5.7-27.5c3.6-5,3.6-5,4.1-23.7c0.5-18.7,0.5-18.7,3.8-23c6.7-8.9,6.7-9.1,6.8-24.8c0.1-20.8,0-20.1,4.7-27.1
	c4.2-6.4,4.2-6.4,4.8-40s0.5-33.6,4.2-39c2-3,5-8.7,6.7-12.7c2.6-6.5,4.4-8.7,14.9-19.5c10.8-11.1,12.1-12.8,14.7-19.6
	c2.3-6,4.2-8.9,10.1-15.2c5.8-6.2,7.8-9.2,10-15.1c2.5-6.6,4-8.5,15-19.8c11-11.3,12.4-13.2,14.9-19.8c2.2-5.9,4.3-8.9,10.4-15.6
	c6.2-6.7,8.1-9.6,10-15c1.9-5.4,3.8-8.2,9.6-14.5c5.7-6.1,7.8-9.2,10-15c2.2-5.9,4.3-8.9,10.7-15.8c4.3-4.7,7.9-8.9,7.9-9.4
	c0-0.5,1-3.5,2.1-6.7c1.8-4.8,4.1-7.8,14.3-18.3c11.1-11.3,12.5-13.2,14.9-19.8c2.2-5.8,4.3-8.9,10-15.2c5.8-6.3,7.7-9.3,9.7-14.7
	c2-5.6,3.7-8.2,10-14.9c5.6-6,8.2-9.6,9.8-13.9c3.7-9.9,5.1-11.8,16.6-23.1c10.3-10.1,11.5-11.6,14-18.3c2.2-5.9,4.2-8.8,10-15.1
	c5.8-6.2,7.8-9.2,10-15c2.3-5.9,4.2-8.8,10.4-15.4c6.3-6.8,8-9.3,10.1-15.1c2.2-6.4,3.4-8,14-18.8c6.9-7.1,12.8-14.1,14.6-17.4
	c3.9-7.3,6.8-9.3,14.2-10c8.1-0.7,15.3,1,21.6,5.1c7.5,5,11.5,5.5,33.8,4.9c10.7-0.3,21.6-0.3,24.1,0.1c2.7,0.4,7.4,2.4,11.5,4.9
	c6.9,4.2,6.9,4.2,39.4,4.7c17.9,0.3,33.4,0.9,34.5,1.4c1.1,0.5,3.9,2.2,6.2,3.7c7.4,5,8.3,5.2,33.5,4.9c26.5-0.2,29.3,0.2,37.6,5.7
	c5.5,3.7,5.5,3.7,33.1,4.2c15.2,0.3,28.5,0.9,29.6,1.4c1.1,0.5,3.9,2.1,6.2,3.7c7.4,5,8.3,5.1,35.8,5.2c22.3,0.1,26.4,0.3,29,1.8
	c15.1,8.4,12.4,7.8,39.5,7.8c26.4,0,28.6,0.3,35.7,5.2c7.4,5,8,5.1,38.8,4.9c17.3-0.1,30.4,0.3,32.5,0.9c1.9,0.6,6.2,2.7,9.5,4.8
	c6,3.8,6,3.8,34,4.3c28,0.5,28,0.5,35.4,5.2c5.3,3.4,8.5,4.8,11,4.8c2,0,51.5,0,110.1,0c75.3,0,107.7,0.3,110.5,1.1
	c2.2,0.6,5.8,2.3,8,3.8c2.2,1.5,4.9,3.1,6,3.6c1.2,0.5,59.1,1.1,139,1.4c137,0.5,137,0.5,142,3.4c12.7,7.4,4.5,6.7,81.7,6.6
	c44-0.1,70.6,0.3,72.8,0.9c1.9,0.6,6.2,2.7,9.5,4.8c6,3.8,6,3.8,78.5,4.3s72.5,0.5,77,3.2c2.5,1.5,6.5,3.7,9,4.9
	c4.5,2.2,4.5,2.2,73.5,2c44.9-0.1,70.2,0.2,72.5,0.8c1.9,0.6,6.2,2.7,9.5,4.8c6,3.8,6,3.8,37.7,4.3c31.7,0.5,31.7,0.5,34.8,3.5
	c1.8,1.7,2.9,2.3,2.5,1.3c-0.4-0.9-1.7-2.4-3.1-3.3c-2.2-1.5-2.4-2.2-2.4-10s0.2-8.6,2.4-10c1.3-0.9,2.7-2.3,3.1-3.3
	c0.4-1.1-0.1-0.9-1.5,0.6c-1.2,1.3-3.2,2.7-4.4,3.2c-3.6,1.4-41,2.2-51.2,1.2c-8.3-0.8-9.9-1.4-16.4-5.2c-7.2-4.3-7.2-4.3-71.8-4.1
	c-35.6,0.1-68.3-0.2-72.9-0.7c-7.1-0.8-9.2-1.5-15.3-5.2c-7.1-4.3-7.1-4.3-77.8-4.4c-77.3-0.1-72.6,0.3-83.3-6.3
	c-5.7-3.5-5.7-3.5-73-3.3c-40.3,0.1-69.7-0.3-73.2-0.9c-3.9-0.7-8.2-2.4-12.8-5.2c-6.9-4.2-6.9-4.2-134.6-4
	c-70.2,0.1-132-0.2-137.2-0.7c-9.4-0.8-10.9-1.3-20.2-6.6c-4.8-2.7-4.8-2.7-101-2.9c-107.2-0.2-99.3,0.3-107.6-7.2
	c-3.2-2.9-4.6-5.2-6.3-10.8c-2.3-7.2-2.3-7.2-24.4-29.2c-21.5-21.3-22.2-22.2-24.8-29.1c-3.4-9.1-4.8-10.8-18.3-23.5
	c-11.9-11.1-24.6-24.5-27.9-29.5c-1.1-1.7-3.3-6.1-4.8-9.8c-2.6-6.2-4.4-8.4-23.7-27.5c-20.5-20.4-20.9-20.9-25.3-30.2
	c-4.3-9.3-4.8-9.9-23.6-28.5c-20.8-20.6-23.2-23.5-27.5-33.8c-2.6-6.3-4.4-8.3-22.3-26c-20.9-20.6-23.6-23.9-27.3-33.2
	c-2.1-5.3-4.5-8.1-21.2-24.8c-20.9-20.9-26.4-27.6-29.8-36.7c-1.8-4.8-2.5-5.8-3.2-4.6c-0.7,1.2-2.5,1.6-7.7,1.6
	c-5.7,0-7.1-0.3-8.7-2.1c-2.5-2.8-9.4-7.9-10.8-7.9C3934.7,490,3936.2,491.3,3938.6,492.9 M2708.7,2722c-5,1.2-20.1,18.1-20.1,22.5
	c0,0.6,0.8-0.4,1.7-2.2c2.3-4.2,13.7-16,17.4-17.9c1.6-0.8,5.7-1.9,9.1-2.3c6.2-0.8,6.2-0.8,0.7-0.8
	C2714.5,2721.2,2710.6,2721.6,2708.7,2722 M2656.3,2771.1c-4.7,0.5-8.2,1.7-11.3,3.6c-10.7,6.7-9.9,6.5-24.1,6.1
	c-7.3-0.2-12.3,0-11.1,0.5c3.2,1.2,23,1,26.3-0.3c1.6-0.6,4.5-2.3,6.4-3.7c4.4-3.4,9.5-5.1,15.1-5.3c2.5-0.1,5.4-0.5,6.5-1
	C2666.4,2770,2665.4,2770,2656.3,2771.1 M3241.6,2956.5c5.9,8.2,36.4,39,52.9,53.4c4,3.5,8.2,7.8,9.2,9.5c1,1.7,1.9,2.6,1.9,2
	c0-2.2-4.9-7.4-15-16.2c-10-8.6-31.9-30.3-44.5-44.3C3242.8,2957.4,3240.8,2955.4,3241.6,2956.5 M3432.6,3117.4
	c18.4,18.6,34.6,34.6,36,35.6s-13.4-14-32.8-33.3c-19.4-19.3-35.6-35.4-36-35.6C3399.4,3083.8,3414.1,3098.8,3432.6,3117.4
	 M3899.7,3753.1c-1.7,0.3-5.2,2-7.8,3.7c-2.6,1.7-7.3,4-10.3,5.2c-3,1.2-7.5,3.4-10,5c-2.5,1.6-6.5,3.6-9,4.5
	c-2.5,0.9-7.6,3.5-11.4,5.8c-6.9,4.2-7,4.2-19.1,4.8c-9.8,0.5-12.9,1-16.3,2.8c-2.3,1.2-6.1,3.2-8.4,4.4c-3.8,2-6.1,2.3-21.3,2.8
	c-17,0.5-17,0.5-24.5,5c-7.4,4.5-7.4,4.5-20.1,5c-12.7,0.6-12.7,0.6-20,5c-7.4,4.5-7.4,4.5-25,5c-17.6,0.5-17.6,0.5-24.5,4.7
	c-3.8,2.3-9,4.6-11.4,5.2c-2.5,0.6-12.8,1-22.9,1.1c-18.4,0-18.4,0-25.7,4c-10.1,5.6-15.8,6.1-57.3,5.8c-38.4-0.3-33.2-1-47.4,6.6
	c-4.4,2.3-6.1,2.6-16,2.8c-6.1,0.1-9.6,0.3-7.7,0.6c2.5,0.3,3.8,1.2,5,3.4c0.9,1.7,3.1,5.3,4.8,8.1c2.5,4,2.9,5.5,2.2,7
	c-0.9,1.7-0.8,1.8,1.3,0.4c1.3-0.8,4.5-2,7.2-2.6c2.7-0.6,6.7-2.4,9-4c8.6-5.9,5.9-5.6,52.1-6.1c43-0.5,43-0.5,49.3-5
	c6.3-4.5,6.3-4.5,29-4.5c24.2-0.1,24.2-0.1,31.2-5.5c5.2-4.1,9.9-5,26.5-5c15,0,15,0,22.5-4.5c7.5-4.5,7.5-4.5,20-4.8
	c10.4-0.2,13-0.6,15.6-2.3c13.6-8.7,11.3-8,28.4-8.2c19.1-0.3,20.1-0.4,25.9-4.7c5.5-4,12.5-5.9,18.7-5c7.6,1.1,14.8-0.3,20.5-4.3
	c2.9-2,7.9-4.6,11.2-5.9c3.3-1.3,7.7-3.5,9.7-4.8s6.5-3.6,10-5c3.5-1.4,8.2-3.9,10.4-5.5c2.2-1.6,6.1-3.4,8.5-4
	c3-0.8,21.4-1,57.9-0.8c53.5,0.3,53.5,0.3,60.9,5c8.4,5.4,7.1,5.2,32.6,5.2c15.8,0,19.5,0.3,22,1.7c15.3,8.5,11.4,7.8,48.9,7.8
	c36.6,0,39.3,0.3,46.3,5.1c7.5,5.2,7,5.1,53.5,4.9c30-0.1,45,0.2,47.9,1c2.3,0.6,6.7,2.8,9.8,4.8c5.5,3.7,5.5,3.7,143.1,4.2
	s137.6,0.5,142.1,3.2c12.3,7.5,10.3,7.1,44.5,7.2c34.2,0.1,30.9-0.5,42.4,6.8c2.5,1.5,6.1,2.4,13.5,3c13.4,1.2,15.7,3.5,12.7,12.4
	c-0.5,1.6-1.4,6-1.9,9.7c-0.7,5.1-2,8.6-4.9,13.5c-2.2,3.7-4.5,8.3-5.1,10.3c-0.6,2-2.5,5.7-4.1,8.3c-1.6,2.6-4.1,7.5-5.5,10.8
	c-1.4,3.3-3.8,8.2-5.5,10.7s-3.6,6.5-4.4,8.8c-0.8,2.3-3.2,7.4-5.4,11.5c-2.2,4-4.8,9.6-5.8,12.3c-1.2,3.3-4.1,7.4-8.6,12.1
	c-4.9,5.1-7.8,9.3-10.3,14.9c-2,4.3-4.5,9.1-5.6,10.6c-1.1,1.6-3.1,5.4-4.4,8.6c-1.3,3.2-4,8.4-5.9,11.7c-4.9,8.1-4.8,11.9,0.4,20.6
	c3.2,5.3,4.2,8.1,4.9,14.1c1.1,8.8,1.6,10.2,5.1,15.4c3.5,5.3,3.9,6.5,5.5,16.5c1,6.6,2.1,9.9,5,14.7c2.9,4.8,3.9,7.9,4.6,13.5
	c1.2,9.3,1.5,10.2,5.6,17c2.6,4.2,3.7,7.4,4.4,13c0.7,5.7,2.2,10,6.5,18.9c3.1,6.3,6.2,12.6,7.1,14c0.8,1.4,3,5.9,4.9,10
	c1.9,4.1,4.4,9.1,5.5,11c1.1,1.9,4,7.5,6.4,12.5c2.4,4.9,5.3,10.6,6.3,12.5c1.1,1.9,11.5,22.9,23.1,46.5
	c11.6,23.6,22.1,44.8,23.3,47c11.6,22.1,12.2,23.9,8.8,27c-3.4,3.1-22.8,3.4-196.8,3.4c-161,0-164.4,0-168,1.9
	c-15.9,8.5-9.1,7.7-65.9,7.8c-51.2,0.1-51.2,0.1-58.3,4.4c-3.9,2.4-9,4.6-11.3,5.1c-2.3,0.4-26,0.8-52.7,0.9c-48.5,0-48.5,0-53,2.6
	c-13.4,7.6-7.6,7-64.6,7c-51.1,0.1-51.1,0.1-58.1,4.3c-4.6,2.8-9,4.6-12.9,5.2c-3.5,0.6-20.9,0.9-42.4,0.7
	c-35.6-0.3-36.6-0.2-40.5,1.8c-16.2,8.6-11.6,7.8-45.6,7.9c-33.8,0.1-30.6-0.4-43.4,7c-5,2.9-5,2.9-42.5,3.4s-37.5,0.5-43.6,4.3
	c-8.1,5-16.2,6-46.9,5.6c-22.9-0.3-24.2-0.2-28,1.8c-16.1,8.6-11.7,7.8-45.1,8c-16.6,0.1-31.2,0.5-32.5,0.9c-1.3,0.4-4.9,2.3-8,4.2
	c-8.2,5-17,5.7-71.9,5.1c-36.6-0.4-46.4-0.2-50,0.9c-6.1,1.8-7.6,1.7-10-0.6c-1.1-1.1-2-1.5-2-1c0,0.6,1.3,1.8,3,2.7
	c3,1.7,3,1.7,2.4,9.2c-0.9,13.5-1.1,13.8-5,14.6c-6,1.1-3.1,1.5,4,0.5c5.1-0.7,8.4-2,13.9-5.3c7.1-4.3,7.1-4.3,60.2-4.8
	c53.1-0.5,53.1-0.5,58-4.1c7.8-5.8,10.4-6.1,43.4-5.7c28.1,0.3,29.7,0.3,32.7-1.7c13.8-8.8,9.3-7.9,45.9-8.5c33-0.5,33-0.5,39.3-5
	c6.3-4.5,6.3-4.5,43.5-4.6c24.8-0.1,38.1-0.5,40-1.2c1.5-0.6,4.5-2.4,6.5-4c6.3-4.9,8.3-5.1,41.1-5.1c30.6,0,30.6,0,34.6-2.4
	c12.8-7.8,7.4-7,52-7.1c48.7-0.1,44.5,0.1,48.6-2.9c1.9-1.4,5.2-3.5,7.4-4.8c4-2.3,4-2.3,57-2.8c53-0.5,53-0.5,58.3-4.2
	c2.9-2.1,7.2-4.2,9.4-4.8c2.8-0.7,19.9-1,53.7-0.8c53.6,0.3,50.8,0.6,58.1-5.2c1.9-1.5,5.3-3.2,7.5-3.8c2.6-0.7,21.4-1.1,54-1.1
	c50,0,50,0,58-4.8c8-4.8,8-4.8,187-5c122.4-0.2,180.1,0,182.6,0.7c2,0.6,5.7,2.9,8.2,5.1c3.5,3.1,5,5.4,6.6,10.3
	c1.1,3.4,3.7,8.6,5.7,11.6c2.9,4.4,3.8,6.9,4.9,14.3c1,6.4,2.2,10.5,4.4,14.4c1.7,3,4,7.7,5,10.3c1.1,2.7,3.5,7.3,5.3,10.2
	c1.9,2.9,3.8,6.5,4.2,7.9c0.4,1.4,3,6.7,5.6,11.8c3.2,6.2,4.9,10.5,4.9,13c0,6.2,1.9,12.2,5.5,18.1c1.9,3.1,4,7.2,4.6,9.1
	c0.6,1.9,2.9,6.5,5,10.1c3.1,5.2,4.1,8.2,4.9,14.5c0.6,5.1,1.9,9.6,3.5,12.4c1.4,2.5,3.9,7.4,5.5,11s4,8.1,5.1,10
	c1.1,1.9,3.6,6.9,5.5,11c1.9,4.1,4.9,9.6,6.5,12.2c2.3,3.7,3.3,6.8,4.3,14.2c1,7.5,2,10.6,4.5,14.7c1.7,2.8,4.1,7.4,5.2,10.2
	c1.1,2.8,3.6,7.7,5.5,10.8c2.8,4.5,3.7,7.3,4.5,13.5c0.5,4.3,1.8,9.4,2.8,11.3s7.3,14.3,14,27.5c11.3,22.3,12.2,24.6,13.1,31.9
	c0.8,6.5,1.6,9.1,4.9,14.5c2.2,3.6,4.6,8.5,5.4,10.7c0.8,2.3,3.1,6.6,5,9.5c4.1,6.1,5.5,12.1,5.4,23c0,8.9,0.5,10.9,4.3,16.5
	c4.4,6.5,5.1,9,5.8,21.9c0.6,11.7,0.8,12.3,4.3,18.1c4.5,7.4,5.7,12.2,5.7,23.9c0,8.8,0.1,9.3,4.1,15.8c4.1,6.8,6.8,17.2,5.6,21.7
	c-1.1,4.3,1.2,14.1,4.6,19.2c4.7,7.1,4.8,7.6,5.6,21.6c0.7,12.2,0.8,12.6,4.5,18.4c4.2,6.5,5.6,12.7,5.6,24.3c0,6.1,0.5,8,3.1,13
	c1.7,3.2,3.8,7.2,4.6,8.7c1,2,1.5,5.7,1.4,11.5c-0.1,11.4,1.1,16.6,5.3,22.7c3.7,5.5,5.7,13.7,4.8,19.6c-0.9,5.6,1.4,14.8,5,20.3
	c4.7,7,5,8.5,5.1,21.1c0.1,11,0.1,11.1,3.8,17.2c4.3,7,4.7,10.6,1.5,14.1c-2.2,2.5-2.2,2.5-0.1,1.3c1.2-0.6,2.5-1.6,2.8-2.1
	c0.3-0.5,4.8-1,9.9-1c7.8,0,9.7,0.3,11.8,2c3.6,2.8,4,2.5,0.9-0.8c-1.5-1.5-4.9-6.8-7.6-11.8c-4.9-9-4.9-9-5.5-22
	c-0.3-7.1-1-13.7-1.4-14.5c-0.5-0.8-2.5-3.9-4.5-6.9c-3.6-5.4-3.6-5.4-4.1-18.5c-0.5-13.2-0.5-13.2-5-20.1c-4.5-6.9-4.5-6.9-5-20
	c-0.3-7.2-0.9-13.7-1.4-14.6c-0.5-0.8-2.5-3.9-4.5-6.9c-3.6-5.4-3.6-5.4-4.1-18.5c-0.5-13.2-0.5-13.2-5-20.1c-4.5-6.9-4.5-6.9-5-20
	c-0.3-7.2-0.9-13.7-1.4-14.6c-0.5-0.8-2.5-3.9-4.5-6.8c-3.5-5.3-3.6-5.4-4.2-18.5c-0.6-13.4-1-15.1-5.5-21.2
	c-3.5-4.7-4.5-9.2-4.3-20.1c0.1-10.8-0.1-11.6-6-20.3c-3.6-5.3-3.6-5.4-4.2-18.6c-0.5-13.2-0.5-13.2-5-20.1c-4.5-6.8-4.5-6.8-5-19.9
	s-0.5-13.1-4.7-20.1c-2.3-3.8-5-9-5.9-11.5s-3-6.3-4.5-8.5c-3.3-4.8-4.9-10.4-4.9-16.6c0-3-0.9-6.2-2.6-9.5
	c-1.4-2.7-7.2-13.9-12.8-24.9c-5.6-11-11-21.5-11.9-23.2c-1-1.8-2.1-6.7-2.5-11c-0.8-8.1-1.3-9.5-6-16.5c-1.6-2.3-3.4-5.9-4-7.9
	c-0.6-2-3-6.6-5.2-10.3c-3.5-5.8-4.2-7.9-4.9-15.2c-0.6-5.7-1.6-9.6-2.9-11.7c-1.1-1.8-3.6-6.6-5.6-10.7c-1.9-4.1-4.2-8.6-5.1-10
	c-0.8-1.4-2.9-5.4-4.5-9c-3.2-6.9-4.8-10-8.6-16.7c-1.7-2.9-2.7-6.7-3.2-12.2c-0.7-6.8-1.4-9-4.9-14.8c-2.2-3.7-4.8-8.8-5.8-11.3
	s-2.9-6.3-4.4-8.5c-3.6-5.4-4-6.8-4.9-15.7c-0.7-6.5-1.4-8.8-4.9-14.5c-2.2-3.7-4.8-8.7-5.6-11.1c-0.8-2.4-2.5-5.7-3.7-7.4
	c-1.2-1.7-3.6-6.3-5.3-10.3c-1.7-4-4.6-9.5-6.4-12.3c-2.7-4.2-3.4-6.6-4.1-13.6c-0.9-9.2-1.1-9.6-6.3-17.4
	c-4.3-6.4-7.9-15.8-7.1-18.4c0.3-1,1.6-2.4,2.8-3.1c3-1.7,488.8-2.4,495.6-0.7c2.5,0.6,7.1,2.8,10.4,4.8c6,3.7,6,3.7,58.5,4.2
	c52.6,0.5,52.6,0.5,57.1,3.2c10.1,6.1,12.1,6.7,24.1,7.1c11.9,0.4,13.1,0.7,22.9,6.9c2.9,1.8,5.6,2.3,16.3,2.9
	c12.8,0.7,12.8,0.7,20,5c7.1,4.3,7.1,4.3,19.9,4.9c12.8,0.6,12.8,0.6,20,5c7.3,4.4,7.3,4.4,29.8,4.9c21.7,0.5,22.7,0.6,26.8,3
	c13.3,7.6,8.8,7,47.2,7c19.9,0,36,0.4,38,1c1.9,0.5,6.2,2.7,9.5,4.8c6,3.8,6,3.8,48.5,4.3s42.5,0.5,50.5,5.2c4.4,2.6,9.3,4.8,11,4.9
	c1.7,0.1,18.3,0.2,37.1,0.2c34,0.1,34,0.1,41.5,4.6c7.5,4.5,7.5,4.5,173,4.6c91,0.1,163.7-0.2,161.5-0.5c-3.2-0.5-4.1-1.1-4.3-2.9
	c-0.2-1.2-0.7-2.2-1.2-2.2c-0.5,0-0.9-0.6-0.9-1.4s-1.1-3.4-2.4-5.9c-2.1-4-2.3-4.8-1-6.4c0.8-1,1.4-2.3,1.4-2.8s-0.5-0.2-1,0.8
	c-0.6,1-2.5,2.5-4.2,3.5c-3,1.6-12.2,1.8-145.4,2.1c-87.2,0.2-146.7-0.1-153.8-0.7c-11.2-0.9-11.9-1.1-18.8-5.3
	c-7.2-4.3-7.2-4.3-37.2-4.1c-38.2,0.4-43.3-0.2-52.7-5.9c-7.1-4.3-7.1-4.3-47.7-4.4c-44.2-0.1-43,0-53.2-6.2
	c-5.6-3.4-5.6-3.4-42.5-3.6c-40.8-0.2-37,0.4-49.1-7.2c-4.8-3-4.8-3-27.3-3.5c-22.5-0.5-22.5-0.5-30-5c-7.4-4.5-7.4-4.5-20.1-5.1
	c-12.3-0.5-12.9-0.7-18-3.9c-9.5-6-10.5-6.3-23.2-7c-11.7-0.6-12.4-0.8-19.1-4.6c-6.8-3.8-7.2-3.9-19.5-4.5
	c-12.5-0.6-12.5-0.6-20-5.1c-7.4-4.5-7.4-4.5-50-4.2c-23.4,0.2-47.2-0.1-52.8-0.7c-9.5-0.9-10.8-1.3-17.1-5.1
	c-6.8-4.1-6.8-4.1-253.7-4.1c-148.6,0-249.4-0.3-253.3-0.9c-4.5-0.7-7.8-1.9-11.1-4.2c-5.4-3.7-7.4-6.6-9.6-14.1
	c-0.9-2.9-2.9-7.2-4.5-9.5c-1.6-2.3-3.5-6-4.3-8c-0.7-2.1-5.8-12.6-11.2-23.4c-5.4-10.8-10.7-21.4-11.8-23.5s-4.5-8.8-7.6-14.8
	c-3.1-6.1-6.5-12.8-7.6-14.9c-1-2.1-4.2-8.4-7-14c-2.8-5.6-5.7-11.7-6.5-13.6c-0.8-1.9-2.6-5.5-4.2-8c-1.5-2.4-3.7-6.9-4.8-9.9
	c-1.1-3-3.3-7.3-5-9.7s-3.9-6.7-5-9.7c-1.1-3-3.3-7.4-4.8-9.9c-3.7-5.9-5.2-10.3-5.2-15.8c-0.1-5.6-1.8-10.7-5.2-15.2
	c-3-4-4.8-9.7-4.8-15.7c0-4.9-1.8-9.8-5.4-14.5c-2.9-3.9-4.6-9.6-4.6-15.5c0-4.9-1.8-9.8-5.4-14.5c-2.9-3.9-4.6-9.6-4.6-15.5
	c0-5-1.8-9.8-5.5-14.7c-1.5-1.9-2.9-5.2-3.1-7.3c-0.4-3.2,0.1-4.6,3.2-9.1c2-2.9,4.9-8.4,6.4-12.2c1.5-3.7,3.7-8,4.9-9.5
	c1.1-1.5,3.3-5.9,4.8-9.8c2.2-5.8,4.2-8.7,9.9-14.7c5.3-5.6,7.7-9,9.4-13.4c1.2-3.3,3.8-8.4,5.6-11.5c1.9-3.1,4.1-7.5,4.9-9.9
	c0.8-2.4,3.1-6.9,5-10c1.9-3.1,4.2-7.6,5-10c0.8-2.4,3.1-6.9,5-10c1.9-3.1,4.2-7.6,5-10c0.8-2.4,3.2-7,5.2-10.3
	c3.4-5.5,3.8-6.8,4.3-15.6c0.6-9.6,0.6-9.6,5.3-13.8c7.7-7,10.2-7.4,41.2-7.4c29.7,0,30.6,0.1,39.4,5.9c5.4,3.6,5.4,3.6,68,4.1
	c35.4,0.3,63.5,0.9,64.6,1.4c1.1,0.5,4.4,2.5,7.4,4.5c5.4,3.6,5.4,3.6,43,4.1c37.6,0.5,37.6,0.5,42.1,3.2c12.9,7.7,4.7,6.9,75.6,7.1
	c63.3,0.2,63.3,0.2,69.2-4c3.2-2.3,7.6-4.6,9.8-5.2c2.7-0.7,24.9-1.1,68.8-1.1c45.6,0,65.5-0.3,67-1.1c1.2-0.6,4.6-2.8,7.6-4.8
	c5.4-3.6,5.4-3.6,56.6-3.7c28.2-0.1,52.5-0.4,54.1-0.8c1.6-0.4,4.9-2.2,7.4-4.1c2.5-1.8,6.6-3.9,9-4.5c3.1-0.8,23.8-1,67.5-0.8
	c70.2,0.3,62.7-0.4,74.5,7.1c3.5,2.2,3.5,2.2,86,2.7c82.5,0.5,82.5,0.5,90,5c7.4,4.5,7.4,4.5,50.5,4.7c28.9,0.2,42.5-0.1,41.4-0.8
	c-0.9-0.5-2.2-2.7-2.9-4.7c-0.7-2.1-2.2-5.6-3.5-7.9c-2.1-3.6-2.2-4.3-0.9-6c2.4-3.1,1.7-3.7-0.9-0.7c-2.4,2.8-2.4,2.8-26.2,3.7
	c-14.9,0.5-28.3,0.5-35.6-0.1c-11.2-0.9-12.1-1.2-18.6-5.1c-6.9-4.1-6.9-4.1-88.7-4.4c-90.3-0.2-81.9,0.4-93.2-6.7
	c-5.3-3.3-5.3-3.3-74.3-3.2c-69,0.1-69,0.1-73.2,2.7c-12.7,7.6-7.3,7-65.2,7.6c-52,0.5-52,0.5-58.1,4.3c-4.3,2.7-8,4.1-12.5,4.8
	c-3.6,0.5-33.2,0.9-67.4,0.8c-33.5-0.1-61.9,0.2-63,0.6c-1.1,0.4-4.5,2.3-7.5,4.1c-3.9,2.3-7.6,3.6-12.5,4.3
	c-8.3,1.2-98.6,1.3-109.7,0.1c-6.6-0.7-8.8-1.5-15-5.2c-7.3-4.4-7.3-4.4-33.8-4.1c-14.6,0.2-31.6-0.1-37.8-0.7
	c-10.7-0.9-11.6-1.2-18.2-5.1c-6.9-4.2-6.9-4.2-65.7-4.1c-32.4,0-60.7-0.3-63-0.8s-7.5-2.8-11.5-5.2c-7.3-4.4-7.3-4.4-47.3-4.1
	c-22,0.2-47.7-0.1-57.1-0.6c-17.1-0.9-17.1-0.9-25-5.2c-7.9-4.3-7.9-4.3-38.9-4.4c-34.1-0.1-33.8,0-43-6.6c-4.4-3.2-4.4-3.2-131.2-3
	c-69.7,0.1-131.8-0.2-137.9-0.7c-11-0.9-12.3-1.3-21.5-6.5c-4.7-2.7-4.7-2.7-51-2.9c-52-0.2-45.1,0.6-60.8-7.8c-5.5-3-5.5-3-31-2.4
	c-27.6,0.7-44.9-0.3-49.5-2.7c-1.6-0.8-5.2-2.8-8-4.4c-5-2.9-5-2.9-26-3c-22.5-0.1-24.7-0.5-31.8-5.8c-1.8-1.3-4.4-2.8-5.8-3.2
	C4014.6,3752.6,3904,3752.2,3899.7,3753.1 M3410.3,3773.9c1,1.9,13.3,14.9,27.4,29.1c18.6,18.6,26.4,27.1,28.2,30.8
	c2.5,4.9,5.9,8.3,8.1,8.2c0.6,0-0.2-0.7-1.7-1.5c-1.6-0.9-4-3.9-5.7-7.3c-2.2-4.4-6.3-9-16.7-19.1c-14.4-13.9-36.5-36.8-39.6-41.1
	C3408.6,3770.6,3408.6,3770.6,3410.3,3773.9 M3534,4909.3c18.1,18.3,32.1,31.5,29.1,27.5c-1.1-1.5-6.7-6.9-12.5-12.1
	c-5.8-5.2-14.7-14-19.9-19.6c-5.2-5.6-10.1-10.6-11.1-11.1C3518.7,4893.5,3525.2,4900.4,3534,4909.3 M4143.4,5176.3
	c-1.4,1.2-5.3,5.2-8.5,8.7s-9,9.4-12.9,13c-3.9,3.6-7.9,7.6-9,9c-1.1,1.4,3.3-2.3,9.7-8.3c6.4-6,11.8-11.3,12-11.7
	c0.2-0.5,3-3.6,6.2-6.9C4147.1,5173.8,4148,5172.3,4143.4,5176.3"/>
<path class="st1" d="M2641.8,432c-2.7,1.1-3.7,3.5-4.7,11.5c-0.8,7.1-2.1,9.3-9.1,16.1c-7.1,6.8-10.1,13-11,22.7
	c-0.6,6.8-1.2,8.5-4.6,13.5c-5,7.3-5.8,10.6-5.7,22.2c0.1,7.3-0.3,10.4-1.6,13.2c-1,2.2-6.8,8.3-14.2,14.9
	c-15.5,13.9-19.6,19-23.1,28.7c-2.7,7.3-3.4,8.2-19.5,24.6c-9.6,9.7-17.6,18.8-18.8,21.1c-2.7,5.6-2.7,14.4,0.1,20.2
	c3.1,6.4,7.8,9.1,18.9,10.7c7.8,1.2,10.1,2,15.4,5.4c3.8,2.5,8.3,4.4,11.7,5.1c3.5,0.7,36.6,1,93.1,1c87.7-0.1,87.7-0.1,95.7,4.1
	c8.1,4.2,8.1,4.2,23.8,4.5c25.5,0.4,28,2.4,29.2,24.3c0.7,12.4,0.7,12.7,4.7,19c4,6.4,4,6.4,4.3,23.9c0.2,9.6,0.1,18.4-0.2,19.6
	c-0.3,1.1-2.1,4.5-4.1,7.5c-1.9,3-3.5,6.5-3.5,7.8c0,2.9,3.6,6.4,11.5,11c11.9,7,10.7,6.7,29.5,7.2c17.5,0.5,17.5,0.5,24.4,5
	c6.9,4.5,6.9,4.5,24.5,5.1c18.5,0.6,19.2,0.7,25.6,5c6.4,4.3,9.9,5,24.5,5c14.8,0,13.9,0.3,28.5-7.8c2.5-1.4,5.6-1.6,19-1.4
	c21,0.4,28.3-0.7,34.9-5c2.8-1.9,6-3.8,7.1-4.2c1.1-0.5,11.3-0.9,22.7-0.9c20.7-0.1,20.7-0.1,29.7-4.8s9-4.7,74.8-4.8
	c36.2,0,67.2-0.1,68.9,0c1.8,0,5.9,1.8,9.9,4.1c6.4,3.8,7.5,4.2,17.4,5c6,0.5,92.8,0.8,198.4,0.7c187.7-0.2,187.7-0.2,193,3.4
	c8.8,6.1,9,6.1,36.8,6.2c14,0.1,26.6,0.5,28,1c1.4,0.5,4.8,2.4,7.7,4.3c4.8,3.2,6.1,3.5,16.5,4.4c6.2,0.5,20.5,0.7,31.8,0.3
	c20.5-0.6,20.5-0.6,26,2.4c15.2,8.3,11.6,7.6,40.8,7.8c26.3,0.2,26.3,0.2,33.5,4.2c4,2.2,9,4.3,11.2,4.7c2.2,0.4,14.8,0.8,28.1,0.8
	c24.2,0.1,24.2,0.1,29.6,3.8c8.9,6.1,9.1,6.1,37.4,6.3c14.3,0.1,26.9,0.6,28,1c1.1,0.5,4.3,2.3,7.1,4.2c4.4,2.9,6.4,3.5,14.5,4.3
	c5.2,0.5,17.7,0.9,27.9,0.7c18.5-0.3,18.5-0.3,25.8,4.1c4,2.4,9.4,4.8,12,5.3c2.6,0.5,17.4,0.8,32.9,0.7c28.2-0.2,28.2-0.2,35.5,4.2
	c7.3,4.4,7.3,4.4,34,4.5c26.7,0.1,26.7,0.1,33.4,3.3c10.5,5.1,12.1,3.2,7.5-8.8c-3.6-9.4-5.6-11.8-30.1-36.6
	c-14.9-15.1-17.1-17.7-19.3-23.3c-3.6-9.2-7.4-13.8-28.4-34.3c-17.9-17.5-19.1-18.8-21.6-25.4c-4-10.2-6.5-13.3-27.5-33.9
	c-18.8-18.4-19.2-18.9-23.5-28.2c-4.3-9.2-4.7-9.7-25.3-30.2c-20.3-20.2-21.1-21.1-23.7-28c-1.5-4-4.1-9.1-5.8-11.5
	c-1.7-2.4-11.8-12.9-22.4-23.4c-17.8-17.5-19.6-19.6-21.9-25.5c-3.8-9.6-6.3-12.7-27.3-32.9c-18.6-18-19.4-18.9-22.3-26.1
	c-3.4-8.5-5.5-11-11.9-14.8c-4.5-2.7-4.5-2.7-557.1-3.2s-552.6-0.5-558.8-4.7c-6.5-4.4-13.5-6.1-20.4-5c-6.1,0.9-13.9-1-19.4-4.8
	c-4.5-3.1-6.6-3.8-14.7-4.9c-8-1.1-10.5-1.9-16.2-5.4c-4.1-2.5-8-4.1-10-4.1c-6.8,0-14-2.1-19-5.5c-5.7-3.9-13.8-6-19.8-5.1
	c-6.4,1-14.5-1-20.6-5.1c-4.5-3-6.8-3.8-13.5-4.6c-8-1-11.3-2.1-17.1-5.7C2647,431.5,2644.5,431,2641.8,432 M4671.6,480.2
	c-1.9,0.6-5.6,2.6-8.3,4.5c-2.8,2-6.4,3.7-8.5,3.9c-2.1,0.2-157.2,0.5-344.8,0.7c-324.6,0.2-341.2,0.3-343.7,2
	c-3.4,2.2-3.5,4.9-0.2,12.9c3.6,8.9,8.5,14.8,29.4,35.7c16.6,16.5,19,19.3,21.1,24.7c3.6,9.3,6.4,12.6,27.3,33.2
	c17.9,17.7,19.7,19.7,22.3,26c4.3,10.3,6.7,13.2,27.5,33.8c18.8,18.6,19.3,19.2,23.6,28.5c4.4,9.4,4.7,9.8,25.3,30.2
	c19.2,19.1,21.1,21.2,23.7,27.5c1.5,3.7,3.7,8.1,4.8,9.8c3.3,4.9,16,18.3,27.9,29.5c13.5,12.6,14.9,14.4,18.3,23.5
	c2.6,6.9,3.3,7.8,24.8,29.1c22.2,22,22.2,22,24.4,29.2c1.8,5.6,3.1,8,6.3,10.8c8.3,7.5,0.4,7,107.6,7.2c96.2,0.2,96.2,0.2,101,2.9
	c9.3,5.3,10.8,5.8,20.2,6.6c5.2,0.4,67,0.7,137.2,0.7c127.7-0.1,127.7-0.1,134.6,4c4.6,2.8,8.9,4.5,12.8,5.2
	c3.5,0.6,32.9,0.9,73.2,0.9c67.3-0.1,67.3-0.1,73,3.3c10.8,6.6,6,6.2,83.3,6.3c70.7,0.1,70.7,0.1,77.8,4.4c6.1,3.7,8.2,4.4,15.3,5.2
	c4.5,0.5,37.3,0.8,72.9,0.7c64.6-0.2,64.6-0.2,71.8,4.1c6.4,3.9,8.1,4.4,16.4,5.2c13.2,1.3,48.3,0.1,52.4-1.9
	c5.1-2.4,6.6-7,6.1-17.7c-0.4-8.4-0.8-9.8-4.6-16.9c-4.2-7.8-4.2-7.8-4.2-47c0-25-0.4-40.7-1.1-43.2c-0.6-2.2-2.7-6.4-4.7-9.3
	c-3.6-5.3-3.6-5.3-3.7-41c-0.1-39.2-0.2-39.8-6.3-49c-3.7-5.5-3.7-5.5-4.2-43.1c-0.3-20.7-0.9-38.5-1.4-39.6
	c-0.5-1.1-2.5-4.4-4.5-7.4c-4.2-6.2-4.2-6.7-2.7-39.6c0.8-18.2-0.4-42.6-2.6-50.9c-0.6-2.1-2.5-6.2-4.4-9
	c-3.8-5.7-5.4-12.5-5.4-22.3c0-7.5-1.8-11.6-6-13.8c-2.6-1.3-36.3-1.5-300.2-1.4C4777.3,479.2,4673.9,479.5,4671.6,480.2
	 M2518.5,659.1c-1,1.8-1.3,5-1.8,17.6c-0.1,1.8-1.8,5.7-4.2,9.2c-3.2,4.8-4.3,7.5-5,12.9c-1.9,14.2-1.1,12.8-14.9,26.3
	c-10.5,10.3-13,13.4-14.4,17.4c-1.5,4.5-1.7,18.4-1.6,173c0,133.1,0.3,168.8,1.3,171.6c0.7,2,2.8,5.7,4.6,8.4c2.7,4,3.5,6.4,4.3,13
	c1.5,12.3,0.3,20.6-3.9,26.3c-6.2,8.6-5.9,5.8-6,56.9c-0.1,52.3,0.7,46.1-7.9,59.7c-1.7,2.7-2.1,5.6-2.6,21.6
	c-0.3,10.2-0.7,18.6-0.8,18.8c-0.1,0.2-3.5,3.9-7.7,8.2c-4.1,4.4-8.3,9.6-9.2,11.7c-1.5,3.3-1.8,9.3-2.2,51.3
	c-0.5,47.6-0.5,47.6-4.7,53.9c-6.5,9.7-6.9,16.2-1.2,21.6c3,2.9,3.1,2.9,20.7,3.8c24.5,1.3,32,0.3,40.8-5.4c6.6-4.3,6.6-4.3,19.4-5
	c11.5-0.6,13.2-0.9,17.7-3.5c2.7-1.6,6.9-4,9.4-5.3c6.4-3.6,8.8-6,11.7-11.7c3.8-7.5,13.6-16.7,20.8-19.5c3.3-1.3,8.1-3.6,10.6-5.2
	c6.2-3.8,13.4-5.1,24.8-4.7c8.2,0.3,10.4,0.8,14.6,3.1c2.7,1.5,8.7,4.5,13.2,6.6c8.6,4.1,10.2,6,13.2,15.2
	c1.7,5.3,6.5,11.5,17.4,22.8c12.4,12.8,17.9,17.1,26.4,20.6c3.8,1.6,9.3,4.4,12.2,6.2c2.9,1.8,7.9,4.3,11,5.5
	c4.7,1.7,7.8,4.2,17.8,13.9c16.8,16.4,16.5,16.3,42.2,16c23.1-0.2,23.9,0,31.9,7.2c4.1,3.7,6.4,7,10.7,16
	c4.7,9.6,6.5,12.3,12.4,17.8c5.1,4.8,8.1,6.8,11.8,7.9c6.7,1.9,38.3,2,43.7,0.1c2.1-0.7,7.2-4.5,11.4-8.4c5-4.6,9.8-8,14.2-10
	c3.7-1.6,9.1-4.5,12.2-6.4c4.3-2.7,7.5-3.7,14.6-4.8c6.8-1,10.6-2.2,15.4-4.9c7.6-4.2,13.7-5.3,21.1-3.8c6.1,1.3,9.2,3.9,12.7,10.9
	c1.2,2.4,3.5,5.1,5.2,6c1.7,0.9,6.4,3.7,10.6,6.1c6.4,3.7,8.9,4.6,16.4,5.6c7.7,1.1,9.7,1.8,15.5,5.6c6.7,4.3,6.7,4.3,19.2,4.9
	c8.7,0.4,13.5,1,15.6,2.2c10.9,5.9,13.2,6.8,16.4,6.8c6.1,0,12.2,1.9,18.1,5.5c3.1,1.9,8,4.4,10.9,5.5c2.9,1.1,7.1,3.2,9.4,4.6
	c2.3,1.5,6.8,3.7,9.9,4.9c3.1,1.2,7.7,3.6,10.2,5.4c2.5,1.7,6.4,3.8,8.7,4.6c2.3,0.8,7.3,3.2,11.3,5.3c3.9,2.1,8.7,4.4,10.6,5.2
	c1.9,0.7,5.8,2.9,8.7,4.7c3.9,2.5,7.3,3.8,13.5,4.8c4.6,0.8,9.5,1.9,10.9,2.5c5.3,2.1,9,0.8,13.1-4.6c7.9-10.3,8.1-11.1,8.7-30.5
	c0.5-17.5,0.5-17.5,5-25c4.5-7.4,4.5-7.4,5-25s0.5-17.6,5-25c4.5-7.4,4.5-7.4,5.1-24.5c0.3-9.4,1-17.9,1.4-19s2.4-4.7,4.4-7.9
	c3.6-5.9,3.6-5.9,4.2-23c0.3-9.4,1-18,1.4-19.1s2.4-4.7,4.4-7.9c3.6-5.9,3.6-5.9,4.1-23.5c0.5-17.6,0.5-17.6,4.9-24.8
	c4.2-7,4.4-7.6,5.3-19c0.5-6.5,0.7-20.8,0.3-31.8c-0.6-20-0.6-20,2-24.8c5.2-9.5,7.1-13.4,9-17.8c1.2-2.9,4.6-7,9.4-11.5
	c10.9-10.2,15.7-16.6,18.8-24.6c2.1-5.6,4.2-8.7,9.9-14.8c5.7-6.1,7.8-9.2,10.1-15.2c2.6-6.6,4.2-8.8,14.4-19.5
	c11.1-11.6,12.5-13.5,16.8-23.6c1.1-2.6,4.9-7.8,8.5-11.6c4.8-5.1,7.6-9.3,10.5-15.5c2.8-6,5.8-10.6,10.4-15.6
	c4.8-5.3,7.2-8.8,9.1-14c2-5.3,4.3-8.8,9.7-14.7c5.1-5.6,8.1-10.1,10.9-16.2c3.4-7.3,5.4-10,15.2-20.1c9.9-10.3,11.7-12.5,14-18.7
	c2.1-5.4,4.2-8.6,9.7-14.4c5.6-5.9,7.7-9.1,10.2-15.4c2.5-6.2,4.8-9.7,10.3-15.7c5.3-5.8,7.7-9.3,9.4-14.1c2-5.5,3.9-8,14-18.3
	c11.3-11.6,15.1-17,17.9-25.8c0.7-2.2,4.2-7,8.1-11.2c5-5.4,8-9.8,10.8-15.8c2.7-5.8,5.8-10.5,10.4-15.5c5-5.4,7.2-8.8,9.3-14.4
	c2.5-6.5,4-8.5,14-18.8c6.2-6.3,11.7-12.5,12.3-13.7c1.9-3.7,1.4-7.8-1.4-10.4c-2.6-2.4-2.6-2.4-160.2-2.7
	c-203.4-0.3-184.6,0.1-191.4-4.5c-3-2.1-7-4.2-8.9-4.8c-4.6-1.3-126.3-1.3-130.9,0c-1.9,0.5-5.9,2.7-8.9,4.8
	c-5.4,3.8-5.4,3.8-28.5,4.3c-25.5,0.6-22.1-0.2-35.9,8.5c-2.9,1.8-4.9,2-25.1,2c-22,0-22,0-26.9,3c-11.3,6.9-9.6,6.5-28.7,6.5
	c-19.3,0-17.5,0.4-32.4-7.8c-2.5-1.4-6-1.7-19.5-1.7c-18.2,0-15.6,0.7-29.4-8c-2.7-1.7-5.4-2.1-20.6-2.5c-17-0.5-17.6-0.6-22.5-3.4
	c-8.9-5.1-9.9-5.5-17.9-6.5c-12.3-1.5-15.7-5.2-16.4-17.8c-0.4-7.6,0.4-10.2,6.6-20.4c2.6-4.3,2.7-5.3,3.1-19.2
	c0.3-14.2,0.2-14.9-2.3-20c-1.4-2.9-3.5-6.7-4.6-8.5c-1.1-1.8-2.5-6.3-3.1-10c-1.8-12-5-14.3-19.7-14.2c-9.6,0.1-10.5-0.2-20.8-6.6
	c-4.8-3-4.8-3-94.8-3.2c-49.5-0.1-91.5-0.4-93.4-0.7c-1.8-0.3-5.7-2.2-8.6-4.1c-4-2.7-6.9-3.8-12.1-4.6c-3.8-0.6-8.4-1.2-10.1-1.5
	c-2-0.3-5.4-2.5-9.3-5.9C2524,656.5,2520.4,655.5,2518.5,659.1 M3635.2,810c-4,1.2-6.5,3.7-9.4,9.5c-1.5,3-7.2,9.8-14.2,17
	c-10.7,11-11.9,12.6-14.1,19c-2,5.8-3.7,8.4-10.1,15.1c-6.2,6.6-8.2,9.5-10.4,15.4c-2.2,5.8-4.2,8.9-10,15c-5.8,6.2-7.8,9.1-10,15.1
	c-2.5,6.7-3.7,8.2-14,18.3c-11.5,11.3-12.9,13.2-16.6,23.1c-1.6,4.2-4.2,7.9-9.8,13.9c-6.3,6.6-8,9.3-10,14.9
	c-1.9,5.4-3.8,8.4-9.7,14.7c-5.8,6.3-7.8,9.4-10,15.2c-2.5,6.6-3.9,8.4-14.9,19.8c-10.2,10.4-12.5,13.5-14.3,18.3
	c-1.2,3.2-2.1,6.2-2.1,6.7c0,0.5-3.6,4.7-7.9,9.4c-6.4,6.9-8.4,9.9-10.7,15.8c-2.2,5.8-4.2,8.8-10,15c-5.8,6.2-7.7,9-9.6,14.5
	c-1.9,5.5-3.8,8.3-10,15c-6.2,6.7-8.2,9.7-10.4,15.6c-2.5,6.6-3.9,8.5-14.9,19.8c-11,11.3-12.4,13.2-15,19.8
	c-2.2,5.9-4.2,8.9-10,15.1c-5.8,6.2-7.8,9.2-10.1,15.2c-2.6,6.8-3.9,8.5-14.7,19.6c-10.5,10.8-12.2,13-14.9,19.5
	c-1.6,4-4.7,9.8-6.7,12.7c-3.7,5.4-3.7,5.4-4.2,39s-0.5,33.6-4.8,40c-4.7,7-4.6,6.3-4.7,27.1c-0.1,15.7-0.1,16-6.8,24.8
	c-3.3,4.3-3.3,4.3-3.8,23c-0.5,18.7-0.5,18.7-4.1,23.7c-5.4,7.5-6,10.2-5.7,27.5c0.3,16.9,0.3,16.8-6.5,25.8
	c-3.3,4.3-3.3,4.3-3.8,22.5c-0.5,18.2-0.5,18.2-5,25.6c-4.5,7.4-4.5,7.4-4.6,24c-0.1,17.6-0.5,19.7-5.3,25.9
	c-3.6,4.6-4.1,6.1-5.2,15.1c-0.8,6.3-1.9,9.6-7.7,21c-3.8,7.4-7.6,14.6-8.5,16s-2.4,4.5-3.3,7c-0.9,2.5-3.3,7.4-5.4,11
	c-2.1,3.6-4.4,8.3-5.1,10.5c-0.7,2.2-2.8,6.2-4.6,9c-1.8,2.7-4.1,7.2-5,10c-0.9,2.8-2.9,6.9-4.5,9.2c-1.6,2.3-4.1,7.3-5.7,11.1
	c-1.5,3.8-3.9,8.4-5.3,10.3c-3.5,4.7-4,6.2-4.8,15.1c-0.6,6.5-1.4,8.8-4.8,14.5c-2.2,3.7-4.6,8.5-5.2,10.6c-0.7,2.1-2.7,5.9-4.5,8.5
	c-4.1,5.9-4.5,7.3-5.5,17.2c-0.7,6.9-1.3,8.7-4.6,13.5c-3.3,4.8-3.9,6.6-5,15.1c-1,7.9-1.8,10.3-4.2,13.8c-4.8,6.7-5.4,8.5-6.2,17.3
	c-0.7,7.4-1.2,9-4.5,13.8c-3.3,4.8-3.9,6.5-4.7,14.3c-0.5,5-1.7,10-2.6,11.5c-6.8,10.6-7.1,11.4-8,20.2c-0.8,7.7-1.4,9.5-4.6,14.1
	c-2,2.9-4.4,7.5-5.3,10.2c-0.9,2.7-3,6.9-4.6,9.3c-1.6,2.4-4,7-5.2,10.2c-1.3,3.2-3.9,8.5-5.8,11.7c-1.9,3.2-4.1,7.8-4.8,10.2
	c-0.9,3.1-3.5,6.8-9,12.7c-5.7,6.1-8.3,9.9-9.9,14.1c-1.2,3.2-3.9,8.7-6,12.3c-2.1,3.6-4.6,8.5-5.5,11c-0.9,2.5-2.9,6.5-4.4,9
	c-1.6,2.5-3.7,6.8-4.7,9.5c-1,2.8-3.1,6.9-4.7,9.2c-1.6,2.3-4.2,7.4-5.7,11.3c-1.6,3.9-3.5,7.9-4.3,8.8c-3.1,3.5-4.6,8.1-5.5,16.6
	c-0.8,7.6-1.4,9.5-4.5,14c-2,2.9-4.3,7.2-5.1,9.7c-0.9,2.5-3.4,7.4-5.5,11c-2.6,4.4-4,7.7-4,10.1c0,6.9-2,14.3-5.1,18.6
	c-1.7,2.4-4.1,7-5.5,10.4c-1.3,3.3-3.7,8.2-5.4,10.8c-1.6,2.6-3.7,6.7-4.6,9.1c-0.9,2.5-3.1,7-5.1,10.1c-1.9,3.1-4.2,7.6-5,10
	c-0.8,2.4-3.1,6.9-5.1,10.2c-3,4.9-3.8,7.3-4.5,14.5c-0.9,8.6-1.4,9.7-7.3,18.2c-3,4.3-3,4.3-3,40.9s0,36.6,3,41.4
	c7.2,11.6,7,10.6,7,29.7c0,15.8-0.2,17.8-2,20.6c-8.7,13.7-8,11.2-8,28.9c0,16,0,16,4.2,23c2.3,3.8,4.9,8.9,5.7,11.3s3.1,6.9,5,10
	c1.9,3.1,4.1,7.5,4.9,9.7c2.4,7,10.7,21.3,13.7,23.9c2,1.7,4.7,2.7,8.7,3.1c6.8,0.8,11,2.4,15.5,5.8c7.8,5.9,17.7,5.8,27.2-0.2
	c3.3-2.1,8.5-4.7,11.4-5.7c7-2.4,14.8-9,30.4-25.6c11.2-11.9,13.1-14.4,15.7-20.9c3.6-8.8,6.2-11.3,13.2-12.8
	c6.6-1.4,12.4-0.6,17.4,2.5c9,5.4,11.3,6.3,19.2,7.3c6.8,0.8,9.4,1.7,15,5c3.7,2.2,8.9,4.8,11.5,5.7c3,1.1,7.2,4.1,11.5,8.2
	c3.7,3.5,8.9,7.4,11.7,8.6c2.7,1.2,7.3,3.4,10,4.9c2.8,1.5,9.2,4.8,14.3,7.2c6.7,3.2,10.9,6.1,15.1,10.3c3.2,3.2,7.3,6.5,9.2,7.4
	c1.9,0.9,7.7,3.7,12.9,6.2c5.2,2.5,12,5.6,15,7c3,1.3,7.1,4.1,9,6.1c5.3,5.6,11.9,10.1,18.7,12.9c3.4,1.4,8.2,3.9,10.6,5.6
	c2.5,1.7,6.9,4,9.9,5.1c3,1.1,7.4,3.3,9.9,4.8c6,3.8,7.2,4.2,16.4,5.2c6.5,0.7,8.9,1.5,13.3,4.5c2.9,1.9,7.9,4.5,11.1,5.7
	c3.2,1.2,6.9,2.9,8.3,3.9c5.1,3.5,22.2,10.9,25.4,10.9c3.2,0,18.6-6.6,23.7-10.2c1.5-1,5.8-3.2,9.5-4.7c3.7-1.6,10.8-5.3,15.8-8.3
	c7.9-4.8,9.4-6.2,12.5-11.5c1.9-3.3,6.5-9.1,10.1-13c4.4-4.6,7.3-8.9,8.9-12.7c2-4.9,10.8-22.8,17.8-36.1c1.2-2.2,5.5-11,9.8-19.6
	c7.6-15.4,7.8-15.7,15.8-22.7c12.5-10.7,69.1-68.3,72.6-73.8c1.7-2.7,4.1-7.6,5.3-10.9c1.8-5.1,4-7.9,13.7-18
	c6.4-6.6,12.4-13.8,13.4-16c1-2.2,2.7-5.9,3.8-8.1c1.3-2.8,7.7-9.5,20.2-21.2c19.3-18.1,112-111.6,120.6-121.7
	c2.8-3.3,6-8.5,7.2-11.5c1.1-3,3.1-7.4,4.5-9.6c1.3-2.3,20.5-22,42.7-43.8c22.2-21.8,42.6-42.4,45.5-45.8c3.3-3.8,6.2-8.7,7.8-12.8
	c2.4-6.3,3.8-8,24.4-28.6c21.8-21.8,21.8-21.9,25.2-30.3c3.1-7.8,4.3-9.5,15.2-20.8c6.5-6.8,12.6-14,13.5-16.1
	c1.3-3,1.7-8.6,2.2-30.7c0.5-27,0.5-27,5-34.4c4.3-7.1,4.5-7.7,5.2-18.5c0.4-6.1,0.5-18.1,0.2-26.6c-0.6-15.5-0.6-15.5,2.7-21.5
	c1.8-3.3,4-7.6,4.8-9.5c0.9-1.9,3.6-7.6,6.2-12.5s5.2-10.6,6-12.5c0.8-1.9,2.8-5.8,4.5-8.5c1.7-2.8,3.7-6.6,4.3-8.6
	c0.6-2,3-6.7,5.3-10.4c3.4-5.7,4.3-8.3,5.3-15.6c1-7.2,1.9-9.9,4.9-14.8c2-3.3,4.4-7.9,5.2-10.3c0.8-2.4,3.1-6.9,5.1-10.1
	c2.9-4.7,3.8-7.5,4.8-15.1c1.1-7.9,1.9-10.2,5-14.8c3-4.6,3.9-7.1,5.1-14.7c1-6.9,2.2-10.7,4.9-15.4c1.9-3.4,4.5-8.7,5.6-11.6
	c1.2-2.9,3.4-7.2,5-9.5c1.6-2.3,3.9-6.8,5.1-10.1c1.9-5.3,4-7.8,17.3-21.4c14.8-15.1,15.3-15.5,25.6-20.3
	c10.5-4.9,10.5-4.9,30.8-25.4c19.7-19.8,20.6-20.6,29.5-24.9c8.8-4.2,9.9-5.2,30.7-25.7c20.6-20.5,21.8-21.5,28.7-24.1
	c9.9-3.8,13.7-6.7,30.3-23.5c12.9-13,15.2-14.9,20.6-16.9c4.5-1.7,8.3-4.3,14.3-9.7c5.7-5.2,9.9-8.1,13.9-9.5
	c3.1-1.2,8.1-3.6,11.2-5.5c3.1-1.9,8.1-4.3,11.3-5.5c4-1.5,7.9-4.1,12.9-8.6c5-4.6,9.6-7.7,15.7-10.5c6.4-2.9,10.4-5.7,15.7-10.7
	c4.7-4.5,8.8-7.4,12.1-8.6c2.7-1,7.9-3.6,11.5-5.7c3.6-2.1,8.5-4.6,11-5.6c2.5-1,6.5-3,9-4.5s7.5-3.9,11.2-5.4
	c4.8-1.9,8.7-4.5,13.5-9c4.5-4.1,9.9-7.8,15.8-10.7c4.9-2.5,15.5-7.7,23.4-11.7c14.4-7.3,14.4-7.3,26.6-7.9
	c12.2-0.6,12.2-0.6,19.5-5.1c7.3-4.4,7.3-4.4,24.4-5c17.9-0.6,17.3-0.4,27.7-6.4c3.3-1.9,7.1-2.9,12.9-3.6c6.9-0.8,9.3-1.6,14.8-4.9
	c3.6-2.2,8.6-4.8,11.1-5.7c2.5-1,6.6-3,9.1-4.6c2.5-1.5,6.6-3.5,9-4.4c2.4-0.9,7.5-3.4,11.2-5.7c6.8-4.1,7-4.1,19.1-4.8
	c9.8-0.5,13.1-1.1,16.4-2.8c2.3-1.2,6-3.1,8.2-4.3c4.1-2.1,4.5-2.2,60.8-2c34,0.1,59-0.2,62.5-0.8c3.9-0.7,8.3-2.4,12.8-5.2
	c6.9-4.2,6.9-4.2,60.7-4.2c53.9-0.1,53.9-0.1,61.1,4.3c7.3,4.4,7.3,4.4,19.9,5c13.3,0.7,14.5,1,20.1,4.6c1.9,1.3,6.3,3.4,9.7,4.7
	c3.4,1.3,8.1,3.8,10.6,5.5c2.5,1.7,7.1,4.1,10.3,5.3c4.9,1.8,7.8,4.1,17.9,13.9c10.8,10.6,12.7,12,19.5,14.6
	c7.1,2.7,8.4,3.8,23,18.3c18.5,18.3,19.3,19,29.2,23.1c7.3,3,8.4,3.9,20.5,16.8c19.5,20.7,29.8,29.5,38.6,32.9
	c5.1,2,9.1,4.5,13.6,8.6c8,7.2,10,7.5,21.1,3.1c3.5-1.4,10.5-4.7,15.5-7.2c5-2.6,10.4-5.2,12.1-5.8c3.4-1.3,14.6-8.1,18.6-11.1
	c1.4-1.1,5.1-6.2,8.3-11.4c6.2-10.3,7.6-15.4,7.7-28.2c0-6,0.5-7.8,3.1-12.5c6.1-10.8,6.1-10.9,6.8-23.9c0.6-12.4,0.7-12.7,4.4-18.7
	c2.9-4.7,4-7.8,4.8-13.4c1.2-9,2-10.9,5.7-15.2c5-5.7,5.5-7.7,6.2-21.9c0.6-13.1,0.7-13.7,4.3-20.5c2.9-5.4,3.9-8.8,4.6-15.2
	c0.7-6.5,1.6-9.3,4-13c1.7-2.6,4-7.3,5.2-10.4c1.2-3.1,3.3-7.4,4.7-9.5c1.4-2.1,3.9-6.8,5.4-10.5c1.5-3.7,4.1-8.7,5.7-11
	c4.4-6.4,5.2-10.6,5.2-28.3c0-18.1-0.6-21.4-5.8-29.3c-3.7-5.7-3.7-5.7-4.2-43.2c-0.6-41.4,0-37.6-7.4-49.6c-2.6-4.2-3-5.8-3.5-16.1
	c-0.6-11.2-0.7-11.5-3.8-14.6c-3.2-3.2-3.2-3.2-35-3.7c-31.7-0.5-31.7-0.5-37.8-4.3c-3.3-2.1-7.6-4.2-9.5-4.8
	c-2.3-0.7-27.5-1-72.5-0.8c-69,0.2-69,0.2-73.5-2c-2.5-1.2-6.5-3.4-9-4.9c-4.5-2.7-4.5-2.7-77-3.2s-72.5-0.5-78.5-4.3
	c-3.3-2.1-7.6-4.2-9.5-4.8c-2.2-0.6-28.8-1-72.8-0.9c-77.1,0.1-69,0.8-81.7-6.6c-5-2.9-5-2.9-142-3.4c-79.9-0.3-137.8-0.9-139-1.4
	c-1.1-0.5-3.8-2.1-6-3.6c-2.2-1.5-5.8-3.2-8-3.8c-2.8-0.8-35.2-1.1-110.5-1.1c-58.6,0-108.1,0-110.1,0c-2.5,0-5.7-1.4-11-4.8
	c-7.4-4.8-7.4-4.8-35.4-5.2c-28-0.5-28-0.5-34-4.3c-3.3-2.1-7.6-4.2-9.5-4.8c-2.1-0.6-15.2-1-32.5-0.9c-30.8,0.2-31.4,0.1-38.8-4.9
	c-7.1-4.8-9.3-5.2-35.7-5.2c-27.1,0-24.4,0.5-39.5-7.8c-2.6-1.4-6.7-1.7-29-1.8c-27.5-0.1-28.4-0.2-35.8-5.2
	c-2.3-1.6-5.1-3.2-6.2-3.7c-1.1-0.5-14.4-1.1-29.6-1.4c-27.6-0.6-27.6-0.6-33.1-4.2c-8.4-5.6-11.2-6-37.6-5.7
	c-25.2,0.2-26,0.1-33.5-4.9c-2.3-1.6-5.1-3.2-6.2-3.7c-1.1-0.5-16.6-1.1-34.5-1.4c-32.5-0.5-32.5-0.5-39.4-4.7
	c-4.1-2.5-8.8-4.5-11.5-4.9c-2.5-0.4-13.4-0.4-24.1-0.1c-22.2,0.7-26.2,0.1-33.7-4.8C3654.2,809.4,3643.3,807.6,3635.2,810
	 M4851.7,1250.1c-1.9,0.5-6.1,2.9-9.3,5.2c-5.9,4.2-5.9,4.2-65.6,3.8c-63.3-0.4-65.6-0.2-71.6,4.3c-6.4,4.8-9,5.6-19.2,5.6
	c-11.7,0-16,1.1-22.5,5.5c-2.7,1.8-6.5,3.9-8.6,4.5c-2.1,0.7-6.7,2.9-10.3,5c-3.6,2.1-8.5,4.6-11,5.4c-2.5,0.9-6.8,3.1-9.6,5.1
	c-6,4.1-10.1,5.4-16.9,5.5c-5,0-9,1.5-17,6.5c-3.8,2.3-4.8,2.5-19,2.5c-16.7,0-21.4,0.9-26.5,4.9c-6.4,5.1-7.9,5.5-20.7,5.7
	c-12.5,0.2-15.4,1-21.2,5.5c-1.3,1-4.8,2.7-7.8,3.9c-3,1.1-8.4,3.8-12,6c-3.6,2.2-8.8,4.7-11.5,5.6c-3.5,1.2-7.2,3.7-12.7,8.9
	c-5.7,5.3-9.3,7.8-13.7,9.5c-3.3,1.2-7.9,3.5-10.4,5.1s-7.6,4.2-11.5,5.8c-3.9,1.6-8.7,4.1-10.9,5.6c-2.1,1.5-6.6,3.7-9.9,4.9
	c-4.5,1.6-8,4.1-14.2,9.8c-6.6,6.2-9.5,8-15,10c-5.5,1.9-8.3,3.8-14.5,9.6c-5.6,5.3-9.3,7.8-13.6,9.4c-3.2,1.2-8.4,3.7-11.4,5.6
	c-3.1,1.9-8.2,4.4-11.5,5.6c-4.5,1.7-7.8,4-13.5,9.4c-5.6,5.3-9.1,7.8-13.4,9.4c-10.3,3.9-11.9,5.1-28.1,21.6
	c-15.5,15.8-16.2,16.4-23.5,19.1c-7.4,2.7-7.9,3.1-30,25c-22.2,21.9-22.6,22.2-30.6,25.4c-8,3.2-8.4,3.5-30,25
	c-21.3,21.1-22.1,21.8-29.4,24.6c-6.2,2.4-8.8,4.2-15.3,10.4c-6.8,6.6-8.3,8.7-11.2,15.8c-1.9,4.5-4.3,9.5-5.5,11.2
	c-1.2,1.6-3.4,6.1-4.9,9.9c-1.5,3.8-4,8.5-5.4,10.3c-3.2,4.3-3.7,6-4.7,15.9c-0.7,6.8-1.3,8.6-4.3,12.7c-4.3,5.8-4.7,7.1-5.7,17.4
	c-0.7,6.7-1.3,8.8-3.9,12.4c-1.7,2.4-4.4,7.5-5.9,11.3c-1.5,3.8-4,8.4-5.4,10.3c-3.2,4.3-3.7,6-4.7,15.8c-0.7,6.5-1.4,8.7-4,12.6
	c-1.8,2.6-4.3,7.5-5.6,10.8c-1.3,3.4-3.6,7.8-5,9.8c-1.4,2-3.9,6.9-5.5,10.9c-1.6,3.9-3.9,8.5-5,10.1c-1.2,1.6-3.2,5.7-4.5,9.1
	c-1.3,3.4-4.1,8.6-6.2,11.6c-3.8,5.5-3.8,5.5-4.3,34.1c-0.5,28.7-0.5,28.7-4.1,33.6c-5.7,7.8-5.9,9.3-5.9,37.1
	c0,15.4-0.4,26.4-1.1,28.1c-0.6,1.5-6.6,8.4-13.3,15.3c-8.4,8.6-12.8,13.9-14.1,17c-4.8,11.8-5.8,13.1-20.4,27
	c-22.2,21.3-27.4,27.4-30.6,36.1c-2.7,7.4-2.7,7.4-46.5,50.9c-24.1,23.9-45.2,45.2-47,47.2s-4.7,7.3-6.5,11.6
	c-3.3,7.9-3.3,7.9-73,77.3c-38.4,38.2-71,71.2-72.5,73.4s-3.8,6.9-5.1,10.5c-2.1,5.7-3.7,7.9-14.2,18.6
	c-10.7,11-12.2,12.9-15.2,20.2c-3.4,8.1-3.4,8.1-42,46.3c-21.3,21-40,39.9-41.7,42c-1.7,2.1-4.5,7.4-6.3,11.8
	c-1.8,4.4-4.3,9.3-5.5,11s-3.3,5.8-4.6,9.2c-1.3,3.4-3.7,8.2-5.4,10.8c-1.6,2.6-3.7,6.7-4.6,9.1c-0.9,2.5-3.3,7.4-5.4,11
	c-2.1,3.6-4.5,8.5-5.2,10.9c-0.9,3.1-3.5,6.8-9,12.7c-6.2,6.7-8.2,9.7-10.5,15.6c-3.7,9.8-13,19.4-21.9,22.7
	c-3.3,1.2-8.3,3.7-11,5.5c-2.8,1.8-7.9,4.4-11.4,5.6c-3.5,1.3-9,4.3-12.2,6.6c-7.7,5.6-7.8,8-1,15.8c3,3.5,5.7,7.9,7.1,11.8
	c3,8.3,4.5,10.4,17,23.2c8.6,8.9,11.1,12.1,13,17c1.3,3.3,3.6,7.8,5.1,10c3.1,4.4,14.1,16,23.1,24.3c7.3,6.7,9.9,10.3,12.8,17.5
	c1.6,4,4.6,8.3,9.6,13.7c4.9,5.3,7.8,9.5,8.9,12.6c0.9,2.6,3.3,7.7,5.5,11.3c2.1,3.6,4.4,8.2,5,10.1c0.6,2,2.6,5.8,4.3,8.5
	c1.7,2.7,4.2,7.5,5.4,10.8c1.3,3.2,3.6,8,5.3,10.5c1.6,2.5,3.9,7.1,5,10.2c1.1,3.1,3.4,7.7,5.1,10.4c1.7,2.6,3.9,7,4.9,9.7
	c1,2.7,3.1,7,4.7,9.6c1.5,2.6,4.2,8,5.9,11.9c1.7,3.9,4.1,8.5,5.3,10.2c1.2,1.7,2.9,5,3.7,7.4c0.8,2.4,3,6.8,4.9,9.9
	c1.9,3.1,4.3,8,5.5,11c1.1,3,3.5,7.7,5.2,10.4c1.7,2.7,3.8,6.7,4.5,9s2.9,6.5,4.8,9.6c1.9,3.1,4.3,8,5.5,11c1.1,3,3.5,7.7,5.2,10.4
	c1.7,2.7,3.7,6.6,4.4,8.6c2.4,6.8,4.7,10.4,11.3,17.4c5.1,5.4,7.3,8.6,9.5,14.4c2.2,5.7,4.4,9.1,9.6,14.6c4.8,5.1,7.5,9.2,9.5,14.1
	c3.9,9.5,5.3,11.3,17.5,23.9c8.9,9.2,11.1,12,12.9,17c2.5,6.7,5.4,10.9,11.8,17.3c2.8,2.8,5.8,7.3,8.3,13c2.9,6.3,5.7,10.4,10,14.9
	c5.4,5.6,10.9,14.8,10.9,18.2c0,2.6,10.4,11.7,14.9,13.2c2.4,0.8,7.1,3.2,10.4,5.3c3.3,2.1,8.5,4.8,11.6,5.9
	c4.6,1.7,7.9,4.3,17.6,13.7c10.2,9.9,13,12.1,19,14.5c3.8,1.6,9.2,4.3,12,6c2.8,1.7,6.6,3.7,8.5,4.5s7.6,3.4,12.5,6
	c4.9,2.5,10.6,5.3,12.5,6.2c1.9,0.9,5.8,3,8.5,4.8c4,2.6,6.7,3.4,13.3,4.1c5.9,0.7,9.6,1.7,13,3.6c9.2,5.3,10.7,5.8,20.6,6.6
	c5.5,0.5,42.5,0.8,82.1,0.6c72-0.2,72-0.2,76.5,2.5c2.4,1.5,6.5,3.7,9,4.9c4.5,2.3,4.5,2.3,288.5,2.6c181.8,0.2,286.3-0.1,290.4-0.7
	c4.5-0.7,8.3-2.2,13.1-5.1c6.8-4.1,6.8-4.1,350.6-4.1c189.1,0,349.6-0.4,356.6-0.8c12.2-0.7,12.8-0.9,15.8-3.7
	c4-3.8,4.6-6.7,6.1-28.4c1.8-26.7,0-61.6-3.5-67.9c-8.3-15.4-7.6-4.2-7.6-113.5c0-68-0.3-100.4-1.1-103.1c-0.6-2.2-2.7-6.3-4.6-9.2
	c-3.5-5.2-3.5-5.2-3.7-106c-0.2-110.4,0.2-104.2-6.3-113.9c-3.5-5.3-3.5-5.3-3.7-391.6c-0.1-306-0.4-387-1.4-389.8
	c-0.7-1.9-2.9-5.9-5-9c-3.8-5.5-3.8-5.5-3.3-18.5c0.9-22.2,0.4-77.7-0.7-85c-1.1-7.3-2.4-10.6-7.3-19c-2.9-5-2.9-5-3-54
	c0-28.5-0.5-50.8-1-53.3c-0.5-2.4-2.6-6.8-4.7-9.8c-3.7-5.6-3.7-5.6-3.8-56.2c-0.1-55.7,0-54.6-6.4-64.2c-3.7-5.5-3.7-5.5-4.2-58.5
	c-0.6-58.7,0.3-52-8.4-65.7c-1.7-2.7-1.9-5.2-1.8-31.1c0.2-37.5-1.2-75.4-2.9-79c-1.4-3.1-5.3-4.5-7.4-2.8c-0.8,0.6-1.9,3.4-2.6,6.1
	c-0.7,2.7-3.1,7.7-5.3,11.1c-4.2,6.2-4.2,6.2-4.3,19.5c-0.2,14.3,0.1,13.5-6.8,23.4c-2.9,4.1-3,4.8-3.5,17.9
	c-0.3,7.5-0.9,14.2-1.4,15.1c-0.5,0.8-2.1,3.1-3.6,5c-1.5,1.9-3.7,6.4-5,10c-3.4,9.4-12.7,18.6-22.6,22.4c-4,1.5-8.4,3.7-9.8,4.8
	c-1.4,1.1-6.2,3.5-10.7,5.4c-4.5,1.8-8.8,4-9.7,4.8c-1.7,1.5-20,10.5-24,11.8c-3.6,1.1-7.1-0.7-13.7-7.1c-4.3-4.2-8.4-7-14.5-9.8
	c-8.1-3.8-9.4-4.9-27.4-23.1c-20.3-20.6-23.7-23.4-33.1-27c-5.2-2-7.7-4.1-19-15.8c-15.2-15.7-21.9-21-30.6-24.3
	c-5.4-2-8.1-4.1-17.9-13.5c-11.6-11.1-11.6-11.1-36.5-23.5c-24.9-12.4-24.9-12.4-35.7-12.6c-11.4-0.2-13.5-0.9-23.8-7.1
	c-4.5-2.7-4.5-2.7-53.5-2.9C4874,1249.2,4853.8,1249.5,4851.7,1250.1 M2601.6,1400.2c-1.9,0.5-4.9,2-6.5,3.3c-1.7,1.2-5.2,3.4-8,4.8
	c-5.9,3-8.7,5.9-10.9,11c-3.2,7.8-15.5,18.4-24.6,21.2c-1.4,0.4-4.4,2.1-6.7,3.6c-6.4,4.4-8.9,5-21.4,5.2
	c-12.5,0.2-11.2-0.2-24.3,8.1c-3,1.9-4.6,2-32.6,1.7c-16.2-0.2-30.8,0.1-32.4,0.6c-1.6,0.5-3.9,2.1-5,3.6c-1.9,2.6-2.1,4.5-2.6,30
	c-0.5,27.2-0.5,27.2-4.3,32.7c-2.1,3-4,7-4.3,8.9c-0.3,1.9-0.6,25.9-0.7,53.4c-0.2,55.4,0.6,49-8.2,62.9c-1.8,2.8-2,5.4-2.5,26.3
	c-0.5,23.1-0.5,23.1-4.3,28.6c-4.8,7-6.1,11.5-4.7,16.5c1.2,4.4,3.3,6.6,9.9,10.2c9,4.9,11,11.9,9.8,34.2
	c-0.8,14.8,0.3,20.7,5.1,27.6c3.7,5.3,3.7,5.5,4.3,18.3c0.6,11.4,1,13.5,3.3,17.7c1.5,2.6,4.2,8.1,6.2,12.3s5,9.7,6.8,12.5
	c3.2,5,3.2,5,3.7,42.5c0.6,43.3,0.2,41.4,10.4,52c3.5,3.6,6.9,7.7,7.7,9c1.1,2,1.5,9.6,1.9,35c0.5,32.5,0.5,32.5,3.5,37.3
	c6.8,11,6.4,7,6.6,54.4c0.2,43.2,0.2,43.2-3.4,48.5c-4.8,7-5.4,9.7-2.9,12.9c2.5,3.2,16.8,12,24.9,15.2c3.4,1.4,7.5,3.4,9.1,4.6
	c1.6,1.1,5.3,3,8.3,4.1c3,1.2,8.3,4,11.8,6.3c6.4,4.1,6.4,4.1,19,4.7c10.8,0.5,13.3,0.9,17.1,3c11.1,5.9,11.2,6,22.5,6.4
	c11.6,0.4,16,1.7,21.7,6c5.9,4.5,8.2,4.9,30.3,5c19.7,0.1,21.3,0.3,25,2.4c14.8,8.3,10.6,7.7,56.1,7.8c41.2,0.1,41.2,0.1,47.5,4.2
	c3.5,2.3,8.4,4.6,10.8,5.2c2.5,0.6,17.2,1,33.4,1.1c28.9,0,28.9,0,36.3,4.1c7.3,4,7.7,4.1,20.2,4.8c12.8,0.7,12.8,0.7,19.7,5.2
	c6.8,4.5,6.8,4.5,24.9,5c18.1,0.5,18.1,0.5,24.1,4.2c7.6,4.7,11.4,4.9,17.7,0.7c5.6-3.7,7.3-7.2,8.6-17.5c1-8,3.3-13.2,17-39
	c1.2-2.2,3.2-6.5,4.6-9.5c1.4-3,3.4-7.1,4.5-9c1.1-1.9,3.4-6.4,5.1-10c1.7-3.6,4.2-8.5,5.5-11c1.6-2.9,2.8-7.3,3.4-12.3
	c0.8-6.3,1.7-9,4.6-13.7c2-3.2,4.3-7.8,5.1-10.2c0.8-2.4,3.4-7.4,5.6-11.1c3.4-5.6,4.2-7.9,4.6-13.5c0.4-5.7,1.5-8.8,7-20.2
	c3.6-7.4,7.4-14.7,8.5-16.3c1.1-1.5,3-5.5,4.3-8.9c1.3-3.4,3.7-8.2,5.4-10.8c1.6-2.6,3.7-6.7,4.6-9.1c0.9-2.5,3.3-7.4,5.4-11
	s4.6-8.7,5.6-11.3c1.1-3.1,4.2-7.4,8.5-12c6.4-6.8,9.8-12.1,11.5-17.7c0.4-1.4,2.3-5,4.1-8.1c1.9-3.1,4.1-7.6,4.9-10
	c0.8-2.4,3.1-6.9,4.9-9.9c1.9-3,4.4-8,5.5-11c1.2-3,3.5-7.6,5.1-10.1c2.3-3.5,3.3-6.9,4.4-13.8c1.1-7.5,2.1-10.4,5.4-15.8
	c3.3-5.6,4.1-8,5-15c0.8-6.8,1.6-9.4,4.6-14.2c2.9-4.7,3.9-7.7,5-15c1.1-7.4,2.1-10.3,5.1-15.1c3-4.9,4-7.8,5.1-15.1
	c1.1-7.3,2.1-10.3,5-15c3.3-5.4,5.2-12.7,5.4-20.8c0-0.9,1.7-4.2,3.7-7.5c2-3.3,4.7-8.6,6-11.8c1.3-3.2,3.8-8.1,5.5-10.7
	c2.4-3.8,3.4-7,4.5-14c1.1-7.5,2.1-10.3,5.3-15.8c2.2-3.6,4.3-7.5,4.7-8.6c1.2-3.6,13.7-28.9,15.6-31.7c1-1.5,3.1-5.8,4.7-9.5
	c1.6-3.8,3.9-8.6,5.3-10.8c1.3-2.2,3.4-6.6,4.6-9.7s3.6-7.9,5.4-10.5c2.7-3.9,3.3-5.9,3.6-11.2c0.5-9.4-0.9-10.9-12.2-12.5
	c-6.8-1-9.9-2-13.8-4.6c-2.8-1.8-8.4-4.7-12.3-6.4c-4-1.7-8.6-4.1-10.3-5.3c-1.7-1.2-5-2.9-7.4-3.7c-2.4-0.8-6.8-3-9.8-4.9
	c-3-1.9-7.9-4.3-10.7-5.4c-2.9-1.1-7.4-3.3-10-4.8c-2.6-1.6-7.5-4-10.8-5.4c-3.3-1.4-7.9-3.8-10.2-5.2c-4.8-3-6.2-3.4-16.2-4.7
	c-5.9-0.7-8.4-1.6-12.5-4.4c-6.2-4.3-13.1-6.1-19.7-5.3c-7.4,0.9-14.6-0.8-20.4-4.8c-5-3.4-12.1-5.5-18.9-5.5
	c-1.8,0-5.2-1.1-7.6-2.5c-2.4-1.4-8.1-4.3-12.6-6.4c-5.3-2.5-10.5-6.1-14.6-9.9c-11.3-10.5-16.5-11.7-24.8-5.6
	c-4.1,3-6.1,3.7-12.6,4.5c-10.9,1.3-11.1,1.4-17.2,5.4c-3,2-8.2,4.6-11.5,5.8c-4.5,1.7-7.8,3.9-13.5,9.3c-4.1,3.9-8.6,7.7-10,8.5
	c-1.9,1.1-7.7,1.3-25.2,1.3c-26.5-0.1-26.6-0.2-36-11c-2.9-3.4-9.3-9.8-14.3-14.3c-8.5-7.7-11.7-11.6-15.7-19
	c-2.9-5.2-6.5-6.1-26.5-6.1c-9.9,0-19.5-0.5-21.8-1.1c-3.1-0.9-6.1-3.4-13.4-10.9c-10.8-11.3-14.3-14-23.1-17.4
	c-3.5-1.4-8.4-3.8-11-5.4c-2.5-1.6-7.1-3.9-10-5.1c-7.1-2.8-8.2-3.7-19.9-17.1c-5.5-6.3-16.4-17.3-24.2-24.4
	c-7.8-7.2-17.4-16-21.4-19.7c-4.6-4.3-8.6-7.1-11.1-7.7C2620.2,1398.8,2606.3,1398.8,2601.6,1400.2 M2471.9,2172.5
	c-3.6,2.5-3.5,5.1,0.7,13.1c3.9,7.4,3.9,7.4,3.9,28.3c0,23.2-0.8,19.8,8,35.7c4.3,7.8,6.2,9.9,12.8,13.6c6,3.4,9.2,8.5,9.3,14.9
	c0.1,6.1,1.7,11.1,5.5,16.5c3.1,4.5,3.8,6.6,5,15c1.2,8.4,1.9,10.4,5,15c3.1,4.6,3.9,6.7,5,14.8c0.7,5.2,1.9,10.5,2.5,11.7
	c0.7,1.3,4,5.3,7.5,8.9c3.4,3.7,6.8,7.7,7.6,9.1c0.8,1.5,1.6,7.4,1.9,15c0.5,11.7,0.8,12.9,3.5,17.3c7.2,11.5,6.5,0.3,6.5,112.3
	c0,55.5,0,102,0,103.5s-1.9,5.4-4.1,8.7c-2.2,3.3-4.8,8.2-5.7,10.9c-0.9,2.6-3.2,7.1-5.1,10c-6.5,9.8-6.3,17.9,0.5,28.6
	c2.2,3.5,4.9,7.8,5.9,9.6c1.2,2.1,4.4,4.8,8.4,7.2c7.4,4.4,15.4,12.1,17,16.4c1,2.6,0.7,3.7-2.1,9.2c-2.9,5.7-3.6,8.8-4.9,22.4
	c0,0.3-1.9,3-4.1,6c-4.6,6.1-6.4,11.5-5.4,16.4c1.6,8.4,8.9,10.1,16.7,4c4-3.1,5.8-3.7,13.4-4.8c7.1-1,10-1.9,14.8-4.9
	c3.3-2,8-4.4,10.5-5.4c2.5-1,6.5-3,9-4.5c2.5-1.5,7-3.7,10-4.8c3.1-1.1,7.7-3.4,10.2-5c2.6-1.6,8-4.3,12-6
	c6.3-2.6,9.1-4.7,19.8-14.8c10.8-10.2,13.3-12.1,19.5-14.5c8.7-3.4,19.3-12.4,38-32.1c12.1-12.8,13.6-14.1,21.4-17.7
	c7.1-3.3,10.1-5.6,19.5-14.8c6.8-6.6,13.7-12.3,17.8-14.7c5.5-3.1,7.2-4.8,9.4-8.9c1.5-2.8,4-7.2,5.7-9.8c2.2-3.5,3.3-7.1,4.3-13.9
	c1.1-7.5,2.1-10.3,5.4-15.8c3.4-5.6,4.1-7.9,4.9-14.9c0.8-6.7,1.6-9.4,4.4-14c1.9-3.1,4.5-8.4,5.8-11.7c3.5-8.7,13.1-18.2,22.4-21.9
	c3.8-1.5,8.2-3.7,9.8-4.8c1.5-1.1,5.5-3.1,8.8-4.4c3.3-1.3,8.1-3.7,10.7-5.2c2.6-1.6,5.6-3.2,6.7-3.6c1.1-0.4,19.5-0.9,41-1.1
	c41.6-0.3,44.9-0.7,47.4-5.4c1.8-3.3,1.3-5.7-2.5-11.1c-2-2.9-4.2-7-5-9.2c-0.8-2.2-3.2-7.2-5.3-11.2c-2.1-3.9-4.2-8.2-4.6-9.6
	c-0.4-1.4-2.6-5.6-4.9-9.5c-4.2-7-4.2-7-4.2-26c0-18,0.1-19.2,2.2-22.5c1.2-1.9,3.4-5.9,4.8-8.8c2.5-5.1,2.6-5.8,2.3-20.6
	c-0.3-15.3-0.3-15.3-3.9-20.7c-5.5-8.3-6.3-11.6-5.5-24c0.4-5.9,0.4-16.5,0-23.4c-0.9-15.4-1.8-17.1-12.4-23.2
	c-13.8-7.9-12.8-7.7-31-7.7c-18.2-0.1-15.6,0.7-29.3-8c-2.5-1.6-5.6-2.1-16.1-2.5c-12.8-0.5-13.1-0.6-18-4c-8.6-5.9-9.7-6.1-42.7-6
	c-32.6,0.1-30.5,0.4-40.8-6.1c-5.4-3.4-5.4-3.4-48-3.9c-42.6-0.5-42.6-0.5-50.1-5s-7.5-4.5-29-4.5c-23.6,0-21.9,0.3-33.6-6.9
	c-4.3-2.7-5.6-3-17.8-3.6c-13.1-0.7-13.1-0.7-19.4-4.8c-6.7-4.4-13.9-6.1-20.5-4.9c-5.4,1-13.7-1.1-19.2-4.9c-2.8-1.9-6.8-4.1-9-4.9
	c-3.4-1.2-24.5-11.8-34-17C2475.4,2170.6,2474.6,2170.6,2471.9,2172.5 M3125.3,2453.9c-5.1,3.2-6,4.6-8.9,12.9
	c-2.6,7.4-4.8,9.6-13.3,12.8c-6.1,2.3-8.3,3.9-15.8,11.3c-6.7,6.7-8.9,9.5-9.6,12.6c-0.5,2.2-0.9,17.3-0.8,33.5
	c0.1,29.5,0.1,29.5,4.6,37s4.5,7.4,5,160c0.5,152.5,0.5,152.5,5.2,160.5c4.8,8,4.8,8,4.8,24c0,13.4,0.3,16.7,1.9,20
	c2.6,5.6,5.5,7.9,9.7,7.8c4.6-0.1,9.5-3.6,19.2-13.7c6.7-7,8.4-9.5,11.3-16.6c3.1-7.6,4.4-9.5,13.8-19.2
	c12.2-12.6,15.9-14.8,25.5-14.8c8.6,0,11.8,1.4,19.3,8.4c4.7,4.4,6.7,7.2,8.9,12.4c5.9,14.3,7,14.1,25.7-5.4
	c12.4-12.9,14.8-16,16.7-21c1.2-3.2,3.9-8.8,6-12.4c3.2-5.4,4-8,4.8-14.8c0.8-6.9,1.6-9.4,4.7-14.3c2.9-4.8,3.9-7.7,5-15
	c1.1-7.4,2.1-10.3,5.3-15.7c3.3-5.5,4.1-8.1,4.9-14.8c0.8-6.5,1.8-9.7,4.9-15.5c2.2-4,4.6-8.9,5.3-10.8c0.7-1.9,2.9-5.8,4.7-8.7
	c2.7-4.2,3.7-7,4.8-14.4c1.1-7.7,2.1-10.4,5.6-16.1c4.2-6.9,4.2-6.9,4.8-19.7c0.6-12.7,0.7-12.9,4.5-19c3.1-5.1,4.1-7.9,5.2-15.3
	c1.1-7,2.1-10.4,4.7-14.7c4.8-7.9,4.9-8.3,5.6-21.6c0.6-12,0.6-12.1,5.1-19.4c4.4-7.3,4.4-7.4,5.1-19.4c0.5-8.5,1.3-13.8,2.8-17.8
	c1.7-4.6,1.9-6.3,1.1-8.5c-1.7-4.4-4.8-7.1-10.3-8.9c-2.8-0.9-8-3.3-11.6-5.4c-3.6-2.1-8.7-4.6-11.3-5.6c-3-1.1-7.6-4.3-12.1-8.4
	c-4-3.6-8.3-7.1-9.7-7.7c-30.5-14.6-34.5-16.8-41.4-23.3c-5-4.7-8.7-7.3-13-8.9c-3.3-1.3-8.9-4-12.5-6.1c-3.6-2.1-8.7-4.7-11.4-5.7
	c-2.9-1.1-7.4-4.1-11-7.4c-7.4-6.9-10.8-9.1-16.6-11.4c-2.5-1-7.2-3.3-10.5-5.3c-4.8-2.9-7.9-3.8-15.4-4.9c-8-1.1-10.2-1.9-14.6-4.9
	C3135.6,2450.1,3131.6,2449.9,3125.3,2453.9 M2891.5,2510.3c-2,0.7-5.6,2.7-8,4.3c-2.4,1.7-7.1,4-10.3,5.2
	c-3.2,1.2-7.8,3.5-10.2,5.1c-2.4,1.6-5.4,3.4-6.7,3.9c-3.8,1.5-8.4,5.8-9.8,9.3c-0.7,1.8-2.9,5.6-4.8,8.5c-2.9,4.4-3.7,6.8-4.7,14.7
	c-1.1,8.3-1.7,10.1-5.3,15.6c-2.3,3.4-4.2,6.7-4.2,7.3c-0.5,11.1-1.9,17-5.1,21.9c-1.9,2.9-4.3,7.7-5.4,10.7
	c-3.5,10-14.8,20.1-26.9,24.1c-2.9,0.9-7.4,4.6-16.1,13.2c-10.8,10.6-13,12.2-19.5,14.9c-4,1.6-8.9,4.1-10.9,5.4
	c-1.9,1.3-12,11.3-22.4,22.2c-19.4,20.3-20,20.8-30,24.4c-5.1,1.8-7.7,3.9-18,14c-10,9.8-13,12.2-17.6,13.8c-3,1.1-7.1,2.9-9,4
	c-1.9,1.1-6.4,3.4-10,5c-3.6,1.6-8.5,4.1-11,5.5c-2.5,1.4-6.5,3.4-9,4.5c-9.4,4.1-11.5,5.4-11.8,7.5c-0.6,4,2.2,4.9,16.2,5.2
	c14.1,0.3,13.3,0.5,23.9-6.1c3.3-2.1,6.5-3,12.5-3.7c9.9-1.1,12.6-2.5,20.3-10.2c4.5-4.5,7.2-8.4,10.4-15.2
	c5.5-11.5,15.1-22.3,21.1-23.7c4.6-1.1,33.6-0.2,38,1.2c3.7,1.1,26.9,23.6,28.6,27.6c1.4,3.3,2,83.2,0.7,87.7
	c-0.5,1.6-2.4,5.3-4.3,8.1s-4.3,7.5-5.4,10.5c-1,3-3.3,7.6-5,10.3c-1.7,2.7-3.9,7.1-4.8,9.9c-1.2,3.6-3.6,7.1-8.7,12.4
	c-8.4,8.8-9.5,9.5-15.4,9.5c-3.7,0-5.6-0.7-10.4-4.1c-7.9-5.6-12.6-6.4-33.8-5.9c-13.7,0.3-18.3,0.8-20.6,2
	c-4.4,2.3-19.3,18-19.9,20.9c-0.3,1.3-0.8,3.6-1.1,5.1c-1,4.6,1,11.6,4.9,17.2c2.8,4.1,3.9,7,4.7,12.3c2,13.6,2.8,15.3,9.8,22.8
	c9.3,10,9,9.4,10.5,20.1c1.2,8.4,1.9,10.4,5,15c3.1,4.6,3.9,6.7,5,14.7c0.7,5.2,2.1,10.9,3,12.7c2.2,4.2,18.7,21.4,24,24.9
	c2.2,1.5,6.9,3.9,10.5,5.4c5.4,2.3,8.2,4.4,16.5,12.8c10.5,10.6,14.4,13.4,23.6,16.8c4.5,1.7,7.8,4.2,17.1,13.3
	c6.4,6.2,12.2,12.6,13,14.2c0.8,1.6,1.8,6.4,2.2,10.4c0.9,9.4,2.8,13,11.2,21.2c12.5,12.2,21,13.7,33.1,5.9c3.2-2,8-4.6,10.7-5.6
	c2.7-1,7.5-3.4,10.5-5.1c4-2.4,7.6-3.6,13.4-4.4c13.1-1.8,17.4-4.9,22.6-16.5c2.5-5.5,5.4-9.3,14.1-18.3
	c16-16.6,17.4-20.5,11.4-30.5c-1.9-3.1-4.4-8.3-5.6-11.4c-1.2-3.2-3.2-7.3-4.4-9.2c-1.3-1.9-4.1-7.4-6.3-12.2
	c-2.9-6.2-5.9-10.6-10.6-15.6c-7.3-7.8-9.2-12.5-8.3-20.4c1.3-10.8,9.4-19.6,25.5-27.6c15.1-7.5,15-7.5,28.1,5.6
	c5.9,5.9,11.2,11.5,11.9,12.4c0.7,0.9,1.9,6,2.6,11.3c1.1,7.5,2,10.6,4.4,14.3c1.7,2.6,4.3,8,5.9,11.9c3.5,8.6,4.2,9.6,19.2,25
	c13.3,13.8,16,15.2,19.7,10.9c2-2.3,2.3-3.8,2.4-10.9c0.1-14.6,1.6-27,3.9-31.5c1.2-2.3,4.7-7,8-10.4c3.2-3.5,6.4-7.4,7.1-8.7
	c0.7-1.4,1.6-8.1,2-15.5c0.4-7.5,1.2-14.1,2-15.6c2.1-4,21.2-23,25-25c1.9-1,6.2-2.1,9.5-2.5c13-1.6,13.8-3.3,13.3-29.5
	c-0.3-18.6-0.3-18.6-4.7-25.3c-4.4-6.7-4.4-6.7-4.2-150.4c0.1-80.1-0.3-147.8-0.8-152.9c-0.9-9-1.9-11.7-7.4-20.4
	c-2.1-3.3-2.2-4.9-2.7-27.5c-0.4-20.8-0.7-24.4-2.3-26.8c-2.1-3.2-5.1-3.5-10.5-1.1c-2.1,0.9-6.5,1.7-10.3,1.7
	c-6.8,0.1-6.9,0.1-19.3-7.8c-3-1.9-5.1-2-62.6-2.2C2908.1,2509.1,2894.3,2509.3,2891.5,2510.3 M3364.1,2575.4
	c-6.4,2.9-7,4.4-7.5,20.5c-0.4,11.9-0.8,15.2-2.3,17.1c-7.6,10.6-7.2,9.2-7.7,23.9c-0.5,13.6-0.5,13.6-4.3,19
	c-4.1,5.9-4.2,6.2-5.6,17.5c-0.8,6.1-1.6,8.8-3.9,12c-5.2,7.4-5.6,8.6-6.2,22.2c-0.6,13.1-0.6,13.1-4.5,18.8
	c-3.5,5.1-4.1,6.8-5.2,15.3c-1,8-1.7,10.3-4.3,13.9c-1.7,2.4-4.3,7.4-5.9,11.1s-4.2,9-6,11.8c-2.2,3.4-3.2,6.2-3.2,9
	c-0.1,8.4-1.6,13.6-5.5,19.2c-3.4,5-4,6.7-5.1,15c-1.1,8.3-1.6,10-5.3,15.5c-2.2,3.4-4.1,6.9-4.1,7.8c0,0.9-0.4,4.9-0.9,9
	c-0.7,6-1.5,8.3-4.4,12.5c-1.9,2.8-4.5,7.9-5.8,11.2c-1.9,5.1-4.1,7.9-14.3,18.5c-11.6,12-12.3,12.9-16.3,22.6
	c-2.3,5.5-4.2,10.9-4.2,12c0,3.7,9.1,23.8,12.8,28.3c7,8.6,35.7,37.4,46.2,46.3c12.2,10.5,13.3,11.7,16.1,18.8
	c1.9,4.8,5.2,10.9,11.5,20.9c2.5,4,16.6,13.2,25.7,16.7c3.2,1.2,7.5,3.3,9.7,4.7c2.2,1.4,6.6,3.6,9.9,4.9c3.3,1.3,8.1,3.9,10.7,5.7
	c3.8,2.6,6.4,3.5,14,4.5c5.1,0.7,10.1,1.7,11.1,2.3c1,0.5,18.3,17.5,38.6,37.8c33.5,33.5,37,37.3,38.9,42.4c1.1,3,3.4,7.6,5,10.2
	c1.6,2.5,4,7.4,5.3,10.7c1.3,3.4,3.4,7.5,4.6,9.2s3.7,6.7,5.5,11.1c2.6,6.3,4.8,9.6,10.2,15.2c5.2,5.4,7.4,8.8,9.2,13.5
	c1.3,3.4,3.6,8.1,5.2,10.3c4.2,5.8,4.8,8,5.1,18.1c0.3,8.1,0.5,9.2,2.7,11c2.6,2.1,3.8,2,12.4-1.2c8.9-3.3,14-7.5,33.4-27.2
	c18.1-18.4,19-19.1,27.9-23.3c9-4.2,9.9-5,30.4-25.4c19.2-19,21.8-21.3,27.8-23.8c3.6-1.5,8.4-3.9,10.6-5.2c5-3.1,24.4-22,33.8-33
	c6.5-7.6,8-8.8,16.4-12.7c5.1-2.4,9.7-5.3,10.2-6.3c1.9-3.6,1.1-8.2-3.2-17.8c-3.2-7.3-5.8-11.3-10.9-16.9c-5-5.5-7.4-9.2-9.5-14.6
	c-2.2-5.6-4.3-8.8-9.5-14.3c-5.2-5.4-7.7-9.3-11.2-16.8c-4.1-8.9-5.4-10.6-15.4-20.5c-9.8-9.7-11.2-11.5-13.6-17.9
	c-2.1-5.6-4.4-9-10.1-15.3c-5.6-6.2-8.1-9.9-10.2-15.3c-2.1-5.4-4.4-8.8-9.8-14.6c-4.9-5.3-7.8-9.3-9.4-13.5
	c-1.3-3.3-3.7-7.9-5.3-10.3c-1.6-2.4-4-7-5.4-10.4c-1.3-3.3-3.7-8.3-5.3-11.2c-1.6-2.8-3.8-7.6-5-10.5c-1.2-2.9-3.4-7.2-4.9-9.5
	s-3.4-5.7-4.1-7.6c-0.7-1.9-3-6.6-5.1-10.5c-2.1-3.9-4.7-9.4-5.9-12.4s-3.4-7.2-4.9-9.5s-3.4-5.7-4.2-7.6c-0.8-1.9-3.5-7.7-6.2-12.8
	c-2.6-5.1-4.8-9.9-4.8-10.6c0-0.7-1.8-4.2-4.1-7.6c-2.2-3.5-4.9-8.5-6-11.1c-1-2.7-3.2-7.2-4.9-10.1c-1.6-2.9-3.7-7.3-4.7-9.8
	c-1-2.5-3.3-7-5.2-9.9s-4.1-7.2-4.9-9.5c-0.8-2.2-2.9-6.8-4.8-10.1c-1.9-3.4-4.4-8.7-5.5-11.8c-1.5-4-4.3-8-9.3-13.5
	c-5.8-6.3-7.8-9.5-10.6-16.3c-3.3-8.3-3.7-8.7-19.7-24.4c-15.8-15.5-16.4-16.3-19.8-24.3c-4.3-10.2-6.3-12.9-17.1-22.8
	c-7.8-7.1-9-8.8-13.4-17.9c-4.1-8.5-5.9-11-11.5-16.2c-3.7-3.4-8.8-7.1-11.4-8.3c-2.6-1.2-10.9-5.2-18.6-9
	C3371.5,2574.3,3368.4,2573.4,3364.1,2575.4 M3743.6,3125.3c-1.4,0.7-5,3.8-8,6.8c-4.4,4.4-6.9,6-12.1,7.7
	c-8.5,2.8-15.2,8.4-35.1,29.3c-11.4,12-16.9,17-20,18.3c-14.6,6.2-13.9,5.7-35.4,27.4c-20.6,20.8-21,21.2-29.1,24.5
	c-10.3,4.3-13.9,7.3-34.6,28.9c-16.7,17.4-17.6,18.2-28.9,22.1c-3.1,1.1-5.8,3-7.8,5.5c-6,7.5-6.2,8.8-5.9,36.4
	c0.1,15.4-0.2,26.1-0.8,27.6c-0.6,1.4-13.5,15-28.7,30.2c-22,22.1-28.4,27.9-31.4,28.7c-2,0.6-8.3,1-14,1
	c-13.7,0-16.4,1.4-30.8,16.2c-13.1,13.5-13.9,15.1-13.9,29.8c0,8.6,0.4,11.3,2.1,15c3.3,7,9.8,14.3,22.6,25.1
	c13.4,11.3,15.2,14,14.5,21.1c-0.5,4.7-0.9,5.3-14,18.6c-16.4,16.7-16.1,15.8-15.6,42.7c0.3,18,0.3,18,4.5,25
	c2.3,3.8,4.7,8.7,5.3,10.7c0.7,2.1,3,6.5,5.2,9.8c7.2,10.8,6.2,16.6-4.9,27.3c-9.2,8.8-9.6,9.9-9.8,24.7c-0.2,13.1-0.6,14.6-5.5,21
	c-1.5,1.9-3.2,5-3.9,6.9c-1.5,4.5-1.6,47.1,0,52.6c1.8,6.6,5.8,11.3,31.7,37.1c18.5,18.5,25.6,26.2,27.5,30.1
	c3.8,7.5,5.8,8.3,21.9,8.3c12.5,0,13.7-0.2,18.3-2.6c14.2-7.6,9.1-6.9,47.4-6.6c41.5,0.3,47.2-0.2,57.3-5.8c7.3-4,7.3-4,25.7-4
	c10.1,0,20.4-0.5,22.9-1.1c2.5-0.6,7.6-2.9,11.4-5.2c6.9-4.2,6.9-4.2,24.5-4.7c17.6-0.5,17.6-0.5,25-5c7.4-4.5,7.4-4.5,20-5
	c12.6-0.6,12.6-0.6,20.1-5c7.4-4.5,7.4-4.5,24.5-5c15.2-0.4,17.5-0.7,21.3-2.8c2.3-1.2,6.1-3.2,8.4-4.4c3.4-1.8,6.5-2.3,16.3-2.8
	c12.1-0.6,12.2-0.6,19.1-4.8c3.8-2.3,8.9-4.9,11.4-5.8c2.5-0.9,6.5-2.9,9-4.5c2.5-1.6,7-3.9,10-5c3-1.2,8-3.7,11.2-5.7
	c5.7-3.5,5.7-3.5,64-3.6c32.1,0,59.5,0.3,60.8,0.7s4,1.9,5.8,3.2c7.1,5.3,9.2,5.7,31.8,5.8c21,0.1,21,0.1,26,3
	c2.8,1.6,6.3,3.6,8,4.4c4.7,2.4,22,3.4,49.5,2.7c25.5-0.6,25.5-0.6,31,2.4c15.7,8.5,8.8,7.6,60.8,7.8c46.3,0.2,46.3,0.2,51,2.9
	c9.2,5.3,10.5,5.7,21.5,6.5c6.1,0.5,68.2,0.8,137.9,0.7c126.8-0.2,126.8-0.2,131.2,3c9.2,6.6,8.9,6.6,43,6.6c31,0.1,31,0.1,38.9,4.4
	c7.9,4.3,7.9,4.3,25,5.2c9.4,0.5,35.1,0.8,57.1,0.6c40-0.3,40-0.3,47.3,4.1c4,2.4,9.2,4.8,11.5,5.2s30.7,0.8,63,0.8
	c58.8,0,58.8,0,65.7,4.1c6.6,4,7.5,4.2,18.2,5.1c6.2,0.5,23.2,0.8,37.8,0.7c26.5-0.3,26.5-0.3,33.8,4.1c6.2,3.7,8.4,4.5,15,5.2
	c11.2,1.2,101.4,1.1,109.7-0.1c4.9-0.7,8.6-2,12.5-4.3c3-1.8,6.4-3.7,7.5-4.1c1.1-0.4,29.5-0.7,63-0.6c34.2,0.1,63.8-0.3,67.4-0.8
	c4.5-0.7,8.2-2.1,12.5-4.8c6.1-3.8,6.1-3.8,58.1-4.3c57.9-0.6,52.5,0.1,65.2-7.6c4.2-2.5,4.2-2.5,73.2-2.7c69-0.1,69-0.1,74.3,3.2
	c11.3,7.1,2.9,6.5,93.2,6.7c81.9,0.2,81.9,0.2,88.7,4.4c6.5,4,7.4,4.2,18.6,5.1c7.3,0.6,20.7,0.7,35.6,0.1
	c23.8-0.9,23.8-0.9,26.2-3.7c2.8-3.3,3.1-7.2,0.7-10.7c-0.9-1.4-6.7-7.6-12.8-14c-7.9-8.1-11.6-12.7-12.5-15.5
	c-2.6-8.1-5.6-12.2-16.9-24c-10.4-10.7-11.9-12.8-14.5-19.3c-2.3-5.8-4.4-8.9-10.1-15.1c-5.8-6.2-7.8-9.2-10-15.1
	c-2.6-6.7-4-8.6-14.9-19.9c-11.4-11.8-12.3-13-15-20.5c-2.8-7.7-3.4-8.5-15.1-20c-11.2-11.1-12.4-12.6-14.9-19.3
	c-2.2-5.8-4.3-8.9-10.1-15.2c-4.2-4.6-7.8-9.6-8.5-11.7c-2.8-8.9-7.3-15.3-17.2-24.8c-8.8-8.4-10.4-10.5-13.9-18.1
	c-2.9-6.3-5.7-10.5-10.7-15.8c-5.2-5.5-7.3-8.6-9.1-13.7c-3.2-9-6.4-13.2-17.4-23.3c-8.8-8.1-9.7-9.3-12.8-17
	c-3.1-7.6-4.3-9.3-15.4-20.8c-10.8-11.2-12.4-13.3-14.9-19.8c-2.2-5.7-4.4-9-10-15.1c-5.5-6-7.8-9.5-10-14.9
	c-2.1-5.4-4.5-8.9-10-14.9c-5-5.4-8-9.7-9.6-13.8c-1.3-3.3-3.6-8-5.1-10.5c-1.5-2.5-3.9-7.6-5.4-11.3c-2-5.1-4.6-8.8-10-14.8
	c-4.2-4.6-7.8-9.5-8.5-11.7c-2.4-7.3-5.2-11.8-11.5-18.2c-4.8-4.9-7.1-8.3-9.4-13.8c-1.6-4-3.9-8.6-5-10.1
	c-1.1-1.6-3.6-6.6-5.5-11.1c-2.6-6.3-4.9-9.8-9.6-14.6c-4.4-4.6-7.2-8.7-10.1-15c-3-6.4-5.7-10.4-10.4-15.3
	c-4.4-4.6-7.6-9.1-10.4-15.1c-8.7-18.1-11.4-22.4-15.1-24.2c-3.3-1.7-22.6-1.7-360-1.7c-251.7,0-357.7,0.3-360.5,1.1
	c-2.2,0.6-5.6,2.3-7.5,3.8c-1.9,1.5-4.5,3.3-5.8,4c-1.8,0.9-68.7,1.2-296,1.2c-293.7,0-293.7,0-298.7-3.2c-11-6.9-2.9-6.3-93-6.9
	c-46.5-0.3-82.9-0.9-84-1.4c-1.1-0.5-3.8-2.1-6-3.6c-5-3.4-6.5-3.8-16-4.9c-6.2-0.7-8.6-1.5-12.8-4.3c-2.9-1.9-7.9-4.4-11.1-5.6
	c-3.2-1.2-7.1-3.1-8.7-4.2c-1.5-1.1-6.7-3.8-11.4-5.9s-9.9-4.8-11.3-5.8c-1.5-1-5.4-2.9-8.7-4.2c-4.9-1.9-7.8-4.2-15.5-12
	c-11.7-11.9-15.1-14.4-22.9-17.5c-3.4-1.3-8.3-3.7-10.9-5.3c-4.9-3-22.3-10.2-24.5-10.2C3746.6,3124,3744.9,3124.6,3743.6,3125.3
	 M3901.6,3770.2c-1.9,0.6-5.3,2.3-7.5,3.9c-2.2,1.6-6.9,4.1-10.4,5.5c-3.5,1.4-8,3.7-10,5s-6.4,3.5-9.7,4.8c-3.3,1.3-8.4,4-11.2,5.9
	c-5.7,4-12.9,5.4-20.5,4.3c-6.2-0.9-13.2,0.9-18.7,5c-5.8,4.3-6.9,4.5-25.9,4.7c-17.1,0.2-14.7-0.4-28.4,8.2
	c-2.6,1.7-5.2,2-15.6,2.3c-12.5,0.3-12.5,0.3-20,4.8c-7.5,4.5-7.5,4.5-22.5,4.5c-16.6,0-21.3,0.9-26.5,5c-6.9,5.4-7,5.4-31.2,5.5
	c-22.7,0-22.7,0-29,4.5c-6.3,4.5-6.3,4.5-49.3,5c-46.2,0.5-43.5,0.2-52.1,6.1c-2.3,1.5-6.3,3.3-9,4c-6.2,1.5-9.4,3.5-9.4,5.9
	c0,1,2.2,4.5,5,7.7c3,3.5,6,8.5,7.6,12.5c3,7.7,7,13.6,11.3,16.7c1.7,1.2,4.2,4.1,5.5,6.4c2.4,4.2,2.4,4.3,2.7,37.2
	c0.3,35.5,0.4,34.3-5.1,41.5c-1.5,1.9-3.1,4.6-3.6,6c-0.5,1.4-0.9,25.4-0.9,53.5c0,60.1,0.6,56.4-10.6,62.1
	c-3.8,1.9-7.4,4.5-8.1,5.7c-0.9,1.6-1.3,7-1.3,18.3c0,17.4,0.4,16-7,26.5c-2.8,4.1-3,4.8-3.5,17.9c-0.4,10.9-0.9,14.2-2.3,16.1
	c-8,11-7.2,6.3-7.2,47.9c0,43,0.6,39.7-9.5,49.6c-9.1,8.9-10.1,11.3-10.4,25.8c-0.3,13.1-0.6,14.2-6.9,22.5c-3.3,4.4-3.3,4.4-3.3,27
	c-0.1,24.4,0,23.9-6,31.8c-5.6,7.3-5.6,15.5-0.1,16.9c1.3,0.3,4.6,0,7.3-0.8c4.1-1.2,12.5-1.4,50.4-1c54.9,0.6,63.6,0,71.9-5.1
	c3.1-1.9,6.7-3.8,8-4.2c1.3-0.4,15.9-0.8,32.5-0.9c33.4-0.1,29,0.6,45.1-8c3.8-2,5.1-2.1,28-1.8c30.8,0.4,38.8-0.5,46.9-5.6
	c6.1-3.8,6.1-3.8,43.6-4.3s37.5-0.5,42.5-3.4c12.7-7.4,9.6-6.9,43.4-7c34-0.1,29.4,0.7,45.6-7.9c3.9-2.1,4.9-2.1,40.5-1.8
	c21.5,0.2,38.9-0.1,42.4-0.7c3.9-0.7,8.3-2.5,12.9-5.2c7-4.2,7-4.2,58.1-4.3c57-0.1,51.2,0.5,64.6-7c4.5-2.5,4.5-2.5,53-2.6
	c26.7,0,50.4-0.4,52.7-0.9c2.3-0.4,7.4-2.7,11.3-5.1c7.1-4.3,7.1-4.3,58.3-4.4c56.8-0.1,50,0.7,65.9-7.8c3.6-1.9,7-1.9,168-1.9
	c174,0,193.4-0.3,196.8-3.4c3.4-3.1,2.8-4.9-8.8-27c-1.2-2.2-11.6-23.4-23.3-47c-11.6-23.6-22.1-44.6-23.1-46.5
	c-1.1-1.9-3.9-7.6-6.3-12.5c-2.4-5-5.3-10.6-6.4-12.5c-1.1-1.9-3.6-6.9-5.5-11c-1.9-4.1-4.1-8.6-4.9-10c-0.8-1.4-4-7.7-7.1-14
	c-4.3-8.9-5.8-13.2-6.5-18.9c-0.7-5.6-1.8-8.8-4.4-13c-4.1-6.7-4.4-7.7-5.6-17c-0.7-5.6-1.8-8.7-4.6-13.5c-2.9-4.8-4-8.1-5-14.7
	c-1.5-10-1.9-11.2-5.5-16.5c-3.5-5.3-3.9-6.6-5.1-15.4c-0.8-5.9-1.8-8.8-4.9-14.1c-5.2-8.6-5.3-12.5-0.4-20.6
	c2-3.3,4.6-8.5,5.9-11.7c1.3-3.2,3.2-7,4.4-8.6c1.1-1.6,3.6-6.4,5.6-10.6c2.6-5.6,5.4-9.8,10.3-14.9c4.5-4.7,7.4-8.8,8.6-12.1
	c1-2.7,3.6-8.3,5.8-12.3c2.2-4,4.6-9.2,5.4-11.5c0.8-2.3,2.8-6.2,4.4-8.8s4.1-7.4,5.5-10.7c1.4-3.3,3.8-8.2,5.5-10.8
	c1.6-2.6,3.5-6.3,4.1-8.3c0.6-2,2.9-6.6,5.1-10.3c2.9-4.9,4.2-8.4,4.9-13.5c0.5-3.8,1.4-8.1,1.9-9.7c3-8.9,0.7-11.2-12.7-12.4
	c-7.4-0.7-11-1.5-13.5-3c-11.4-7.2-8.1-6.7-42.4-6.8c-34.2-0.1-32.2,0.3-44.5-7.2c-4.5-2.7-4.5-2.7-142.1-3.2s-137.6-0.5-143.1-4.2
	c-3-2-7.4-4.2-9.8-4.8c-2.9-0.8-17.9-1.1-47.9-1c-46.5,0.2-46,0.2-53.5-4.9c-7-4.8-9.6-5.1-46.3-5.1c-37.5,0-33.6,0.6-48.9-7.8
	c-2.5-1.4-6.2-1.7-22-1.7c-25.5,0-24.2,0.2-32.6-5.2c-7.4-4.8-7.4-4.8-61.9-4.9C3925.4,3769.2,3903.8,3769.5,3901.6,3770.2
	 M4710.8,3830.7c-2.3,0.8-6.3,3.4-8.9,5.7c-4.7,4.2-4.7,4.2-5.3,13.8c-0.6,8.8-0.9,10.1-4.3,15.6c-2,3.3-4.4,8-5.2,10.3
	c-0.8,2.4-3.1,6.9-5,10c-1.9,3.1-4.2,7.6-5,10c-0.8,2.4-3.1,6.9-5,10c-1.9,3.1-4.2,7.6-5,10c-0.8,2.4-3,6.8-4.9,9.9
	c-1.9,3.1-4.4,8.2-5.6,11.5c-1.6,4.4-4.1,7.9-9.4,13.4c-5.7,6-7.7,8.9-9.9,14.7c-1.5,4-3.7,8.4-4.8,9.8c-1.1,1.5-3.3,5.7-4.9,9.5
	c-1.5,3.7-4.4,9.2-6.4,12.2c-3.1,4.5-3.6,5.9-3.2,9.1c0.3,2.1,1.7,5.3,3.1,7.3c3.7,4.9,5.5,9.7,5.5,14.7c0,5.9,1.7,11.7,4.6,15.5
	c3.5,4.7,5.4,9.6,5.4,14.5c0,5.9,1.7,11.7,4.6,15.5c3.5,4.7,5.4,9.6,5.4,14.5c0,6,1.7,11.7,4.8,15.7c3.4,4.5,5.1,9.6,5.2,15.2
	c0.1,5.6,1.5,10,5.2,15.8c1.6,2.4,3.7,6.9,4.8,9.9c1.1,3,3.3,7.3,5,9.7s3.9,6.7,5,9.7c1.1,3,3.3,7.4,4.8,9.9c1.5,2.4,3.4,6,4.2,8
	c0.8,1.9,3.7,8,6.5,13.6c2.8,5.6,5.9,11.9,7,14c1,2.1,4.5,8.8,7.6,14.9c3.1,6,6.5,12.7,7.6,14.8s6.3,12.7,11.8,23.5
	c5.4,10.8,10.5,21.4,11.2,23.4c0.7,2.1,2.7,5.7,4.3,8c1.6,2.3,3.6,6.6,4.5,9.5c2.2,7.5,4.2,10.4,9.6,14.1c3.3,2.3,6.6,3.5,11.1,4.2
	c3.9,0.6,104.7,0.9,253.3,0.9c246.9,0,246.9,0,253.7,4.1c6.3,3.8,7.7,4.2,17.1,5.1c5.7,0.5,29.4,0.8,52.8,0.7
	c42.5-0.3,42.5-0.3,50,4.2c7.4,4.5,7.4,4.5,20,5.1c12.3,0.6,12.7,0.6,19.5,4.5c6.8,3.8,7.4,3.9,19.1,4.6c12.7,0.7,13.8,1,23.2,7
	c5.1,3.2,5.8,3.4,18,3.9c12.7,0.6,12.7,0.6,20.1,5.1c7.4,4.5,7.4,4.5,30,5c22.5,0.5,22.5,0.5,27.3,3.5c12.1,7.5,8.2,7,49.1,7.2
	c36.9,0.2,36.9,0.2,42.5,3.6c10.2,6.2,9,6.1,53.2,6.2c40.6,0.1,40.6,0.1,47.7,4.4c9.4,5.7,14.4,6.2,52.7,5.9c30-0.3,30-0.3,37.2,4.1
	c6.9,4.2,7.6,4.4,18.8,5.3c7.1,0.6,66.6,0.9,153.8,0.7c133.5-0.3,142.4-0.4,145.4-2.1c6.5-3.5,6.8-7.9,1.3-16.2c-2.2-3.3-4-6.5-4-7
	c0-3.1-5.5-11.8-10.8-17.2c-3.3-3.4-6.6-7.7-7.4-9.5s-3.8-8.2-6.9-14.3c-3-6.1-6.3-13-7.3-15.3c-1-2.4-4.9-7.6-8.6-11.6
	c-4.7-5.1-7.4-9-8.9-13c-1.2-3.1-3.2-7.4-4.6-9.6c-1.4-2.2-4.2-7.7-6.4-12.3c-2.7-5.8-5.6-10.1-9.6-14.2c-4.8-4.9-7.2-9-15.3-25.3
	c-8.1-16.5-10.5-20.5-15.7-26c-4.1-4.4-7-8.6-8.6-12.6c-1.3-3.3-3.6-7.9-5.1-10.3c-1.5-2.4-3.7-6.9-5-10c-1.3-3.1-3.5-7.7-5-10.2
	c-1.5-2.5-4-7.6-5.5-11.4c-2.1-5.2-4.5-8.7-9.9-14.5c-5-5.3-7.8-9.4-9.5-13.6c-1.3-3.3-3.6-8-5.1-10.5c-1.5-2.5-4-7.6-5.5-11.4
	c-2.1-5.2-4.5-8.7-10-14.6c-5.1-5.5-7.8-9.3-9.3-13.3c-1.1-3.1-3.5-7.8-5.1-10.5c-1.7-2.7-3.7-6.8-4.5-9
	c-2.5-7.2-4.7-10.5-11.6-17.7c-4.7-5-7.4-8.8-8.8-12.7c-1.1-3.1-3.5-7.7-5.1-10.4c-1.7-2.6-4.2-7.9-5.7-11.7
	c-2-5.2-4.3-8.7-9.3-14.1c-5.5-5.9-7.9-9.8-14-22.2c-4-8.2-8.4-17-9.8-19.5c-1.4-2.5-4.4-8.6-6.8-13.7c-3.1-6.6-6.2-11.1-10.7-16
	c-4.3-4.6-7.2-8.7-8.8-12.8c-1.3-3.3-3.7-8-5.2-10.5c-1.5-2.4-3.7-6.9-4.8-9.9c-1.1-3-2.9-6.7-4-8.2c-1.1-1.5-4-6.9-6.5-12.1
	c-6.8-14-12-22.8-14.6-24.7c-2.1-1.5-7.3-1.7-48.9-2.2c-46.5-0.5-46.5-0.5-54-5c-7.4-4.5-7.4-4.5-90-5c-82.5-0.5-82.5-0.5-86-2.7
	c-11.8-7.5-4.3-6.8-74.5-7.1c-43.7-0.2-64.4,0-67.5,0.8c-2.5,0.6-6.5,2.6-9,4.5c-2.5,1.8-5.9,3.7-7.4,4.1
	c-1.6,0.4-25.9,0.8-54.1,0.8c-51.2,0.1-51.2,0.1-56.6,3.7c-3,2-6.4,4.1-7.6,4.8c-1.5,0.8-21.4,1.1-67,1.1c-43.8,0-66.1,0.4-68.8,1.1
	c-2.2,0.6-6.6,3-9.8,5.2c-5.9,4.1-5.9,4.1-69.2,4c-70.8-0.2-62.7,0.6-75.6-7.1c-4.5-2.7-4.5-2.7-42.1-3.2c-37.6-0.5-37.6-0.5-43-4.1
	c-3-2-6.3-4-7.4-4.5c-1.1-0.5-29.2-1.1-64.6-1.4c-62.6-0.5-62.6-0.5-68-4.1c-8.8-5.8-9.6-5.9-39.8-5.8
	C4720.8,3829.1,4714.2,3829.5,4710.8,3830.7 M4373.6,4339.9c-1.9,0.4-6.6,2.6-10.4,4.9c-6.9,4.2-6.9,4.2-57,4.2
	c-32.6,0-51.5,0.4-54.1,1.1c-2.2,0.6-5.6,2.3-7.5,3.8c-7.3,5.7-4.5,5.5-58.1,5.2c-33.7-0.2-50.9,0.1-53.7,0.8
	c-2.2,0.6-6.5,2.8-9.4,4.8c-5.3,3.7-5.3,3.7-58.3,4.2c-53,0.5-53,0.5-57,2.8c-2.2,1.3-5.5,3.4-7.4,4.8c-4.1,3,0.1,2.7-48.6,2.9
	c-44.6,0.1-39.2-0.6-52,7.1c-4,2.4-4,2.4-34.6,2.4c-32.8,0-34.8,0.3-41.1,5.1c-2,1.6-5,3.4-6.5,4c-1.9,0.7-15.2,1.2-40,1.2
	c-37.2,0.1-37.2,0.1-43.5,4.6c-6.3,4.5-6.3,4.5-39.3,5c-36.6,0.6-32-0.3-45.9,8.5c-3,1.9-4.5,2-32.7,1.7
	c-33.1-0.4-35.6-0.1-43.4,5.7c-5,3.6-5,3.6-58,4.1c-53.1,0.5-53.1,0.5-60.2,4.8c-6.1,3.7-8.5,4.5-16.6,5.6
	c-10.6,1.5-12.5,2.2-16.1,6.5c-3.1,3.7-4.3,7.6-5.2,16.2c-0.7,6.8-1.8,9.5-7,16.9c-3,4.3-3,4.3-3,55.9c0,51.6,0,51.6,4.3,58.8
	c3.4,5.7,4.5,8.7,5.3,14.5c0.5,4,1.7,8.3,2.4,9.6c0.8,1.2,4.1,3.6,7.4,5.3c7.2,3.6,8.9,6.4,10.2,16.9c0.9,7.4,1.4,8.5,8.2,19.2
	c2.3,3.7,3.2,13.1,1.8,18.5c-0.6,2.3-2.6,6.1-4.4,8.5c-4.7,6.2-4.9,7.1-5.1,20.4c-0.2,14.1-0.7,15.4-9.6,24
	c-8.1,7.9-10.4,12.3-10.4,20c0.1,7.5,1.9,11.1,9.9,19.5c7.8,8.1,9,10.7,9.9,20c0.6,6.3,1.3,8.5,4.6,14c2.2,3.6,4.6,8.5,5.5,11
	c0.9,2.5,2.9,6.5,4.5,9c1.6,2.5,4.2,7.8,5.9,11.8c4,9.7,5.7,11.9,26.5,32.5c17.9,17.7,20.6,19.8,30.9,23.7c4.6,1.7,7.1,3.9,17,14.3
	c6.4,6.8,15.9,16.1,21.1,20.7c13.1,11.5,13.5,12.5,13.5,31.8c0,16.6,0.5,18.6,6.2,26.9c3.2,4.6,3.3,5.1,3.9,17.9
	c0.8,18.1,2,20.2,14.7,26.5c7.1,3.5,10.9,6.2,16.2,11.4c7.9,7.8,8.5,9.1,9.9,19.7c0.8,6.2,1.7,8.9,4.8,13.9
	c3.9,6.2,3.9,6.2,4.4,28.8c0.4,19,0.8,23.1,2.3,26.2c2.7,5.4,11.3,14.6,16.5,17.6c4.1,2.4,6,2.8,17.2,3.3c8.3,0.4,13.5,1.1,15.5,2.2
	c4.5,2.3,15.9,14.6,18.8,20.3c1.4,2.7,3.6,5.6,4.9,6.4c1.4,0.9,6.8,1.7,14,2.1c10.7,0.6,12,0.9,16.8,3.8c2.8,1.7,7.9,4.3,11.3,5.6
	c3.4,1.4,7.7,3.7,9.7,5.2c5.4,4.1,9.8,5.2,20.4,5.3c14.1,0.1,15.3,0.7,31.1,17.4c7.4,7.8,16.6,16.9,20.6,20.1
	c8.4,7,10.7,11.1,11.6,21c0.4,3.9,1.6,9,2.8,11.4c3.3,6.8,20.9,24.5,27.6,27.8c5.4,2.6,6.3,2.8,24.7,3.1c24.4,0.5,30.6-0.4,39.7-6
	c7-4.2,7-4.2,33.1-4.3c26.1-0.1,26.1-0.1,31.1-2.7c2.7-1.4,7.9-4.1,11.5-5.8c3.6-1.8,8.5-4.3,11-5.6c2.5-1.3,11.5-5.8,20-10
	c8.5-4.1,17.3-8.5,19.5-9.6c9.3-4.9,13.3-6.9,18.5-9.1c11.9-5.2,26.9-20.9,32.1-33.9c2.8-6.8,4.2-8.9,10.7-15.1
	c8.5-8.1,18-18,21.1-21.8c1.2-1.5,8.9-5.9,18.8-10.8c9.2-4.5,18.4-9.1,20.3-10.2c1.9-1.1,6-3.1,9-4.5c3-1.4,7.4-3.4,9.8-4.5
	c2.4-1.1,9-6.7,15-12.5c9.1-8.9,12-11.1,19.1-14.5c5.7-2.7,10.4-5.8,14.5-9.8c10.4-9.9,2.1-9.1,89.3-9.1c44.6,0,79.3-0.4,82.7-1
	c3.9-0.6,8.2-2.3,12.6-5c6.7-4,6.7-4,231.4-4.1c224.7,0,224.7,0,228.9,2.9c10.1,6.9,8.3,6.6,41.8,7c16.8,0.2,36.7-0.1,44.2-0.5
	c12.4-0.8,14-1.1,16.2-3.2c3.5-3.3,3.2-7.1-1.2-14.3c-3.7-6-3.8-6.1-3.8-17.2c-0.1-12.6-0.4-14.1-5.1-21.1c-3.6-5.5-5.9-14.7-5-20.3
	c1-5.9-1-14.1-4.8-19.6c-4.2-6.2-5.4-11.4-5.3-22.7c0-5.8-0.4-9.5-1.4-11.5c-0.8-1.6-2.9-5.5-4.6-8.7c-2.7-5-3.1-6.9-3.1-13
	c0-11.6-1.4-17.7-5.6-24.3c-3.7-5.8-3.8-6.1-4.5-18.4c-0.8-14-0.9-14.5-5.6-21.6c-3.4-5.2-5.7-14.9-4.6-19.2
	c1.2-4.5-1.5-15-5.6-21.7c-4-6.6-4.1-7-4.1-15.8c0-11.6-1.2-16.5-5.7-23.9c-3.6-5.8-3.7-6.4-4.3-18.1c-0.7-13-1.3-15.4-5.8-21.9
	c-3.8-5.6-4.3-7.5-4.3-16.5c0-10.9-1.4-16.9-5.4-23c-2-3-4.2-7.2-5-9.5c-0.8-2.3-3.3-7.1-5.4-10.7c-3.3-5.4-4.1-8-4.9-14.5
	c-0.9-7.3-1.8-9.6-13.1-31.9c-6.7-13.2-13-25.6-14-27.5s-2.3-7-2.8-11.3c-0.8-6.2-1.7-9-4.5-13.5c-1.9-3.1-4.4-8-5.5-10.8
	c-1.1-2.8-3.4-7.4-5.2-10.2c-2.5-4-3.4-7.2-4.5-14.7c-1-7.4-2-10.6-4.3-14.2c-1.6-2.6-4.6-8.1-6.5-12.2c-1.9-4.1-4.4-9.1-5.5-11
	c-1.1-1.9-3.4-6.4-5.1-10s-4.2-8.5-5.5-11c-1.6-2.9-2.9-7.4-3.5-12.4c-0.8-6.3-1.8-9.3-4.9-14.5c-2.1-3.6-4.4-8.1-5-10.1
	c-0.6-1.9-2.7-6-4.6-9.1c-3.6-5.9-5.5-11.9-5.5-18.1c0-2.5-1.7-6.8-4.9-13c-2.7-5.1-5.2-10.4-5.6-11.8c-0.4-1.4-2.3-4.9-4.2-7.9
	c-1.9-2.9-4.3-7.5-5.3-10.2c-1.1-2.7-3.3-7.3-5-10.3c-2.2-3.9-3.5-8-4.4-14.4c-1.1-7.3-2-9.9-4.9-14.3c-2-2.9-4.5-8.1-5.6-11.5
	c-1.5-4.5-3.2-7.2-6.1-9.9c-7.7-7,7.5-6.5-188-6.3C4456.8,4339.2,4375.5,4339.5,4373.6,4339.9 M4771.1,4339.7
	c-1.1,0.2-3,0.6-4.3,0.9c-1.3,0.3-2.7,1.5-3.3,2.8c-1.3,2.9,1.8,11.5,6.8,18.9c5.3,7.8,5.4,8.2,6.3,17.4c0.7,7,1.4,9.4,4.1,13.6
	c1.8,2.8,4.7,8.3,6.4,12.3c1.7,4,4.1,8.6,5.3,10.3c1.2,1.7,2.9,5,3.7,7.4c0.8,2.4,3.4,7.4,5.6,11.1c3.4,5.7,4.2,8,4.9,14.5
	c0.9,8.9,1.3,10.3,4.9,15.7c1.5,2.2,3.4,6,4.4,8.5s3.6,7.5,5.8,11.3c3.5,5.8,4.2,8,4.9,14.8c0.6,5.5,1.6,9.3,3.2,12.2
	c3.8,6.7,5.4,9.8,8.6,16.7c1.6,3.6,3.7,7.6,4.5,9c0.8,1.4,3.1,5.9,5.1,10c1.9,4.1,4.5,8.9,5.6,10.7c1.4,2.1,2.3,6,2.9,11.7
	c0.8,7.3,1.4,9.4,4.9,15.2c2.2,3.7,4.6,8.3,5.2,10.3c0.6,2,2.4,5.5,4,7.9c4.7,7,5.2,8.4,6,16.5c0.4,4.3,1.6,9.3,2.5,11
	c1,1.8,6.3,12.2,11.9,23.2c5.6,11,11.4,22.2,12.8,24.9c1.7,3.3,2.6,6.5,2.6,9.5c0,6.2,1.7,11.7,4.9,16.6c1.5,2.2,3.5,6,4.5,8.5
	s3.6,7.6,5.9,11.5c4.2,7,4.2,7,4.7,20.1s0.5,13.1,5,19.9c4.5,6.8,4.5,6.8,5,20.1c0.5,13.2,0.6,13.3,4.2,18.6c5.9,8.7,6.1,9.4,6,20.3
	c-0.1,10.9,0.9,15.4,4.3,20.1c4.5,6.1,5,7.8,5.5,21.2c0.6,13.1,0.6,13.2,4.2,18.5c2,2.9,4,6,4.5,6.8c0.5,0.8,1.1,7.4,1.4,14.6
	c0.5,13.1,0.5,13.1,5,20c4.5,6.9,4.5,6.9,5,20.1c0.5,13.1,0.5,13.2,4.1,18.5c2,3,4,6,4.5,6.9c0.5,0.8,1.1,7.4,1.4,14.6
	c0.5,13.1,0.5,13.1,5,20c4.5,6.9,4.5,6.9,5,20.1c0.5,13.1,0.5,13.2,4.1,18.5c2,3,4,6,4.5,6.9c0.5,0.8,1.1,7.4,1.4,14.5
	c0.5,13,0.5,13,4.9,21c2.4,4.4,5.4,9.4,6.7,11.2c4.6,6.2,13.9,6.4,22.8,0.4c2.2-1.5,4.9-3.1,6-3.4c1-0.4,182.4-0.7,403-0.7
	c235.8,0,403.7-0.4,407.3-0.9c6.3-0.9,7.8-1.5,16.4-6.4c4.6-2.6,4.6-2.6,336.5-2.9c363.5-0.3,338.7,0.2,340.8-5.9
	c1.1-3.2-1.3-9.8-7.4-19.9c-3.2-5.3-4.1-8.1-5-14.5c-1.2-9.8-1.5-10.6-5.4-16.9c-1.8-2.8-3.8-6.7-4.5-8.6c-0.7-1.9-3.1-6.7-5.2-10.6
	c-2.9-5.3-4.1-9.1-4.9-15c-1.1-8-1.5-9.1-6.4-17.7c-1.9-3.3-3-7.1-3.6-12.3c-0.5-4.1-1.7-9.2-2.8-11.2c-1.1-2-4.2-8.2-7-13.7
	c-2.8-5.5-5.9-11.6-7-13.5s-5.7-11.1-10.2-20.5c-6.7-13.8-9.3-18.1-13.9-23c-4.4-4.7-7.3-9.4-13.3-21.5c-4.2-8.5-7.7-15.9-7.7-16.2
	c0-0.4-1.3-2.8-2.9-5.5s-4.2-7.9-5.7-11.7c-2.1-5.2-4.4-8.7-9.5-14c-5-5.3-7.7-9.3-10.8-15.9c-3-6.4-5.6-10.3-9.6-14.4
	c-4.7-4.7-7-8.5-15.1-24.9c-7.8-15.8-10.6-20.5-15.3-25.6c-5.4-5.9-9.7-13.6-22.5-40.7c-0.6-1.3-4.1-5.6-7.7-9.5
	c-4.9-5.4-7.2-8.8-9.4-14.5c-2.3-5.8-4.4-9-9.6-14.5c-5.7-6-7.8-9.5-14.4-23.1c-10.8-22.3-10.2-21.3-17.1-28.5
	c-4.3-4.5-6.8-8.2-8.3-12.2c-1.2-3.1-3.4-7.8-5.1-10.5c-1.6-2.7-4.2-7.9-5.7-11.7c-2.1-5.2-4.5-8.7-10-14.6
	c-5.1-5.4-7.8-9.3-9.3-13.2c-1.1-3-3.4-7.7-5.1-10.3c-1.7-2.6-4.2-7.9-5.7-11.7c-2-5.3-4.3-8.7-9.5-14.4c-5-5.3-8-9.8-10.7-15.7
	c-2.7-5.8-5.5-10-9.6-14.2c-4.1-4.2-7.1-8.6-10.1-15c-5.8-12-10.6-20.2-13.8-23.4c-2.6-2.6-2.6-2.6-169.4-3.1s-166.8-0.5-174.2-5
	c-7.5-4.5-7.5-4.5-41.5-4.6c-18.7-0.1-35.4-0.2-37.1-0.2c-1.7-0.1-6.6-2.3-11-4.9c-8-4.8-8-4.8-50.5-5.2s-42.5-0.5-48.5-4.3
	c-3.3-2.1-7.6-4.2-9.5-4.8c-2-0.6-18.1-1-38-1c-38.4,0-33.9,0.7-47.2-7c-4.1-2.4-5.2-2.5-26.8-3c-22.5-0.5-22.5-0.5-29.8-4.9
	c-7.3-4.4-7.3-4.4-20-5c-12.8-0.6-12.8-0.6-19.9-4.9c-7.1-4.3-7.1-4.3-20-5c-10.7-0.6-13.4-1.1-16.3-2.9c-9.8-6.2-11-6.5-22.9-6.9
	c-12-0.4-14-1-24.1-7.1c-4.5-2.7-4.5-2.7-57.1-3.2c-52.6-0.5-52.6-0.5-58.5-4.1c-3.3-2-7.7-4.1-9.9-4.7c-2.9-0.8-72.9-1.1-246.5-1
	C4882.2,4339.2,4772.2,4339.4,4771.1,4339.7"/>
<circle class="st2" cx="651.2" cy="4346.7" r="129.8"/>
<circle class="st3" cx="651.2" cy="4709.3" r="129.8"/>
<circle class="st4" cx="651.2" cy="5071.9" r="129.8"/>
<text transform="matrix(1 0 0 1 863.8757 4371.6509)" class="st5 st6 st7">MULTI-PURPOSE BUILDINGS</text>
<text transform="matrix(1 0 0 1 871.9954 4751.8994)" class="st8 st6 st7">ROADS</text>
<text transform="matrix(1 0 0 1 883.0544 5114.5049)" class="st9 st6 st7">BRIDGES</text>
<text transform="matrix(1 0 0 1 521.4255 4059.0471)" class="st10 st6 st11">PROJECT EXISTENCE INDICATOR</text>
<text transform="matrix(1 0 0 1 723.4314 964.4531)" class="st6 st12">Poblacion</text>
<text transform="matrix(1 0 0 1 233.4739 353.5219)" class="st6 st13">Jasaan</text>
</svg>
