<?xml version="1.0" encoding="utf-8"?>
<!-- Generator: Adobe Illustrator 27.1.0, SVG Export Plug-In . SVG Version: 6.00 Build 0)  -->
<svg version="1.1" id="Layer_1" xmlns="http://www.w3.org/2000/svg" xmlns:xlink="http://www.w3.org/1999/xlink" x="0px" y="0px"
	 viewBox="0 0 7307.4 5280" style="enable-background:new 0 0 7307.4 5280;" xml:space="preserve">
<style type="text/css">
	.st0{fill-rule:evenodd;clip-rule:evenodd;fill:#9C14E4;}
	.st1{fill:#0B0BF9;stroke:#FFFFFF;stroke-miterlimit:10;}
	.st2{fill:#F9F912;stroke:#FFFFFF;stroke-miterlimit:10;}
	.st3{fill:#F70D34;stroke:#FFFFFF;stroke-miterlimit:10;}
	.st4{fill:#8800FF;}
	.st5{font-family:'ArialMT';}
	.st6{font-size:140px;}
	.st7{fill:#7400EF;}
	.st8{fill:#7F00EF;}
	.st9{fill:#8703EF;}
	.st10{font-size:150px;}
</style>
<g id="Layer_9">
	<g id="Layer_21">
		<path class="st0" d="M4626.2,264.2c-2.3,2.3-4.2,5.7-5.6,10.2c-3.5,11-8.7,14.3-22.1,14.3c-7.4,0-12-1.2-16.4-4.5
			c-7.8-5.7-5.3-5.5-58.8-5.5c-39.7,0-50.3-0.3-54.1-1.4c-3.4-1-6.7-3.3-12.2-8.6c-6.9-6.5-7.8-7.1-11.2-6.8
			c-3.4,0.3-3.9,0.8-6.7,6.3c-3.9,7.7-6.8,9.4-17.6,10.2c-11.8,0.9-12.3,1.2-11.3,8.2c0.5,3.1,0.9,16.7,0.9,30.3
			c0,24.6,0,24.6,3.7,30c6.6,9.6,6.3,6,6.4,68.2c0.1,56.8,0.1,56.8,3.3,61c6.8,9.1,6.6,8.1,6.6,32.4c0,20,0.2,22.4,1.8,24
			c1.6,1.6,4.4,1.8,24.6,2.3c22.8,0.5,22.8,0.5,28.2,4.1c3,2,6,4,6.9,4.5c0.8,0.5,25.4,1.1,54.6,1.4c53.1,0.5,53.1,0.5,58.5,4.1
			c3,2,6,4,6.9,4.5c0.8,0.5,25.4,1.1,54.6,1.4c53.1,0.5,53.1,0.5,58.5,4.1c3,2,6.5,4.2,7.9,5c2,1.1,12.4,1.4,53.5,1.4
			c28,0,52.1,0.4,53.5,0.9c1.4,0.4,4.9,2.4,7.9,4.4c5.4,3.6,5.4,3.6,58.7,4.1c53.2,0.5,53.2,0.5,58.6,4.1c3,2,6,4,6.9,4.5
			c0.8,0.5,27.7,1.1,59.6,1.4c58.1,0.5,58.1,0.5,63.5,4.1c3,2,6,4,6.9,4.5c0.8,0.5,25.4,1.1,54.6,1.4c53.1,0.5,53.1,0.5,59.3,4.8
			c5.2,3.7,7.3,4.5,13.4,5.3c4,0.5,27.4,0.8,53.2,0.7c46-0.3,46-0.3,53.5,4.2c7.4,4.5,7.4,4.5,60,5c52.6,0.5,52.6,0.5,60,5
			c7.4,4.5,7.4,4.5,30.4,4.8c16,0.2,23.8-0.1,25.8-0.9c2.2-0.9,4-3.5,7.9-11.3c2.8-5.6,5.7-11.9,6.5-14.1c0.8-2.2,3.4-7.1,5.7-11
			c4.2-7,4.2-7,4.2-31c0-21.5-0.2-24.4-1.9-28c-1.1-2.4-8.6-10.5-18.7-20.5c-15.7-15.4-17-17-19.7-23.7c-3.3-8.1-7.1-13.4-13.4-18.5
			c-6.4-5.2-9.5-6.5-18-7.3c-6.6-0.6-8.7-1.3-14.5-4.8c-6.8-4.1-6.8-4.1-19.3-4.7c-11.4-0.5-13-0.8-17.5-3.4
			c-9.9-5.7-12-6.5-15.9-6.6c-6.5,0-11.1-1.5-18.3-5.8c-5.1-3-7.9-4.1-11.7-4.3c-11.7-0.6-14-0.1-20.3,4.1
			c-3.3,2.2-8.2,4.8-10.9,5.7c-2.6,0.9-7.3,3.4-10.4,5.5c-5.1,3.6-6.3,4-14.9,4.8c-8.6,0.8-9.8,1.2-15,4.8
			c-9.3,6.6-16.2,6.7-25.3,0.5c-2.8-2-7.8-4.6-10.9-5.9c-3.2-1.3-7.9-3.7-10.5-5.3c-4.8-3-6.3-3.5-16.5-4.5
			c-4.2-0.4-7.5-1.7-12.4-4.7c-5.6-3.4-8-4.2-14.7-5c-4.4-0.5-8.9-1.4-10.1-2c-1.2-0.6-5.3-4.1-9.2-7.8
			c-10.7-10.2-11.2-10.4-29.3-10.2c-17.2,0.3-19.6-0.2-28.5-6c-6-3.9-6-3.9-20.7-3.9c-16,0-14.9-0.3-24.7,7
			c-3.7,2.8-12.6,4.1-20.2,3c-4.6-0.7-7.8-2-13.3-5.4c-7.1-4.6-7.1-4.6-21.7-4.6c-17.5,0-20.1-0.6-28.9-5.9
			c-6.8-4.1-6.8-4.1-22.2-4.1c-17.2,0-18.9-0.4-29.3-6.7c-3.8-2.3-8.2-4.4-9.9-4.8c-1.9-0.4-6.1-3.6-10.9-8.2
			c-6.8-6.5-8.1-8.3-9.5-13.1c-2.6-8.9-1.5-18.4,3-26.5c4.1-7.4,4.5-9.9,1.8-14.2c-3.1-5-20.8-22.3-25.1-24.5c-3.8-1.9-5.8-2-43.9-2
			c-39.9,0-39.9,0-45.3,3.6c-2.9,2-7.8,4.5-10.8,5.6c-3,1.1-8.1,3.8-11.4,5.9c-3.3,2.1-6.5,3.9-7.1,3.9c-0.6,0-3.6,1.1-6.6,2.5
			c-4.2,1.9-8.1,5.3-16.5,14.1c-10.5,11-11.3,11.6-15.8,12.1c-4.2,0.5-5.4,0.1-10.6-3.1c-3.2-2-8-4.5-10.6-5.6
			c-3.6-1.6-9.7-7-25.9-23.3c-21.3-21.4-22.2-22.2-35.6-28c-3.2-1.4-8.5-5.1-12.8-9c-6.4-5.9-7.7-6.7-11.2-6.7
			C4630.4,260.7,4629,261.4,4626.2,264.2"/>
	</g>
	<g id="Layer_20">
		<path class="st0" d="M4362.1,288.6c-5.5,0.3-10.9,1.2-12,1.8c-1.1,0.6-4.7,3.9-8,7.3c-11.1,11.4-4.1,10.5-79.7,10.7
			c-47.1,0.1-66.3,0.5-67.8,1.3c-1.2,0.6-3.3,3.7-4.6,6.8c-3.4,7.6-4.5,8.7-11.9,11.2c-3.5,1.2-8.3,3.6-10.6,5.4
			c-5.5,4.2-9.7,5.6-16.5,5.6c-7.7,0-11.6,2-19.8,10.2c-5.7,5.7-7.7,8.5-9.4,13.3c-4.6,12.8-6.4,14.3-18.8,15.7
			c-8.8,1-10,1.4-18.2,7.2c-3.4,2.4-5.5,3-13.1,3.6c-7.7,0.6-9.6,1.2-13.1,3.7c-8.1,5.8-8.4,5.9-27.6,6.4
			c-15.1,0.4-18.5,0.8-20.5,2.3c-10.5,7.6-9.4,7.2-22.5,7.7c-13.9,0.6-16,1.6-18.4,9c-1.6,5-5.4,8.5-10.5,9.9
			c-2.3,0.6-12.9,1.1-24.6,1.1c-20.6,0-20.6,0-25.5,3.5c-7.9,5.7-8.7,5.9-28,6.5c-16.8,0.5-18.4,0.7-21.2,2.8
			c-1.7,1.2-4.3,3.2-5.9,4.3c-1.8,1.3-5.4,2.3-10.5,2.9c-4.3,0.5-8.5,1.5-9.4,2.2c-0.9,0.7-2.7,3.6-3.9,6.4
			c-2.7,6-14.2,17.7-19.6,20c-2,0.8-6.3,1.5-9.5,1.5c-6,0-8.5,1-16.2,6.4c-3.5,2.5-5.5,3-13,3.6c-4.9,0.4-9.9,1.3-11.2,2
			c-1.3,0.7-7.8,6.6-14.4,13c-10.2,10-12.9,12.1-18,14c-3.3,1.2-8.2,3.7-11,5.6c-2.7,1.8-7.9,4.3-11.5,5.5
			c-5.5,1.8-7.6,3.3-13.2,8.9c-7.1,7.2-9.3,8.7-17.4,11.3c-7,2.3-10.8,6.4-13.5,14.4c-1.9,5.7-3.4,7.9-9.8,14.5
			c-6.1,6.3-8.7,8.2-13.5,9.9c-3.3,1.2-8,3.6-10.6,5.3c-7.6,5.2-9.3,5.5-36.5,5.5c-28.6,0-28.4-0.1-31,7.9c-0.9,2.7-2.6,5.8-3.8,6.9
			c-4.4,4.1-7.4,4.6-30,4.9c-17.8,0.2-22.3,0.6-25,1.9c-4.4,2.2-44.3,41.8-47.3,47c-1.7,2.9-2.7,6.5-3.3,12.9
			c-1.2,11.7-2.4,13.3-13.4,18.2c-2.1,0.9-4.3,2.6-5,3.8c-0.7,1.3-1.2,7-1.2,15.1c0,15.5,0.8,17.7,10.5,27c8.3,8,9.9,11.8,9.9,22.6
			c0,7.1-0.4,9.3-2.2,12.6c-1.2,2.2-9.7,11.2-18.8,20.2c-14.5,14.2-17.3,16.4-22.2,18.1c-3.1,1.1-8.3,3.8-11.5,6.1
			c-5.5,3.8-6.5,4.2-15.2,5c-8.1,0.8-9.9,1.3-13.6,3.9c-2.3,1.7-6.2,3.9-8.6,4.9c-5.1,2.2-6.3,3.5-10.3,11
			c-4.6,8.6-7.1,9.5-27.7,9.7c-18.1,0.2-16.7-0.2-26.8,6.9c-4.3,3-4.3,3-27.9,3.5c-19.4,0.4-24.1,0.8-26.6,2.2
			c-1.6,0.9-12.6,11.4-24.4,23.3c-11.8,11.9-22.6,22.1-24,22.7c-1.4,0.5-6.3,1.3-10.9,1.8c-7,0.7-9,1.3-12.7,3.9
			c-2.4,1.7-7.5,4.4-11.3,6c-3.8,1.5-8.4,4-10.3,5.4c-4.1,3.1-9.7,4.8-16.2,4.8c-6.7,0-10.4,1.8-18,8.9c-6.4,6-8.6,9.5-12.1,19.1
			c-1.3,3.6-5.2,8.2-18.9,21.9c-9.5,9.5-18.7,17.9-20.4,18.7c-2,0.9-7.2,1.3-14.2,1.3c-12.1,0-14.4,0.6-19.9,4.9
			c-4.4,3.5-9.8,5.1-17.3,5.1c-5.7,0-7,0.6-16,7.2c-2.7,2-4.5,2.3-16.9,2.8c-13.8,0.5-13.8,0.5-19.3,4.3c-3,2.1-8.3,4.7-11.9,5.9
			c-6.2,2-7.2,3-29.3,25c-17.6,17.6-23.7,23.1-26.5,23.9c-2,0.5-7.9,1-13.1,1c-11.3,0-13,0.9-16.4,8.4c-2.8,6.2-15.4,18.9-20.5,20.5
			c-2,0.6-10.3,1.1-19.5,1.1c-17.4,0-15.8-0.4-25.4,6.3c-3.3,2.3-5.6,3-12.6,3.6c-7.5,0.7-9.3,1.3-15.4,4.9
			c-3.8,2.3-7.3,4.1-7.9,4.1c-2.4,0-6.6,4.5-9.4,10.1c-1.6,3.2-4.1,6.6-5.4,7.5s-6.7,2.1-11.9,2.8c-8,1-10.2,1.7-14,4.4
			c-2.5,1.8-7.6,4.5-11.4,6c-3.8,1.5-8.4,4-10.3,5.3c-5.2,3.9-9.3,4.8-21.1,4.8c-7.4,0-11.8,0.4-13.6,1.4
			c-4.6,2.4-8.1,6.9-10.2,13.1c-1.1,3.3-3.5,8.2-5.4,11c-1.8,2.8-3.9,6.8-4.6,9c-2,6.2-5.6,11.9-9.4,14.8c-4.7,3.6-7.3,7.4-11,16.3
			c-3,7.2-4,8.4-30.5,34.9c-21.3,21.3-28.2,27.7-31,28.4c-2,0.6-11,1-20.1,1c-13.7,0-17.4-0.4-22-2c-9.1-3.2-11.3-2.8-17.9,3.4
			c-3.1,3-7.8,6.3-10.4,7.4c-8.5,3.6-7.9-3.6-7.8,90.3c0.1,83.4,0.1,83.4,3.4,88.9c1.9,3,4.5,8.4,6,11.9
			c4.1,10.1,6.5,12.6,15.3,15.8c6.3,2.3,9.1,4.1,15.5,10c5.4,5,9.6,7.8,13.4,9.3c8.2,3.1,10.5,4.4,16.3,9.6
			c9.4,8.5,10.5,13.9,4.4,22.6c-3.8,5.4-3.8,5.4-4,29.7c-0.3,26.4-0.6,24.8,5.9,35.1c3.4,5.4,3.4,5.4,3.9,23.5
			c0.5,18.1,0.5,18.1,4.8,24.5c2.3,3.5,4.3,6.9,4.3,7.5c0.5,11.2,1.8,16.5,5.4,21.8c4.9,7.4,5.5,10.5,5.5,28.3
			c0,17.2-0.6,20.3-5.7,27.6c-5.9,8.6-5.5,17.9,0.7,17.9c2.1,0,12.1-8.4,21.4-17.9c4.7-4.8,7.4-6.7,12.9-8.7
			c6.3-2.4,17-10.2,21.5-15.6c0.7-0.9,4.5-2.8,8.5-4.3c6.4-2.4,8.5-4,19.4-14.6c9.3-9.1,13.5-12.4,18-14.4
			c10.5-4.6,12.3-5.7,19.6-12.4c5.4-4.9,9-7.3,14.6-9.5c6.5-2.6,8.8-4.2,20.1-15c11-10.5,13.7-12.5,19.7-14.9c5.1-2,9.1-4.7,15.1-10
			c5.9-5.2,9.9-7.9,14.4-9.7c5.3-2,8.2-4.2,18.6-14.3c10.9-10.5,13.4-12.4,21.6-16.2c6.7-3.1,11-6,15.6-10.4c4.6-4.4,8.2-6.8,13-8.7
			c8.2-3.3,10.9-5.3,24.2-17.9c8.9-8.5,11.6-10.5,17.6-12.8c5.4-2.1,8.7-4.4,14.5-9.7c5-4.7,9.3-7.7,12.9-9.2
			c7.8-3.1,10.2-4.9,22.1-16.5c8-7.8,12-10.9,16.5-12.9c11.5-5,13-6.1,24.9-17.5c10.2-9.8,13-11.9,18.4-13.9
			c4.8-1.8,8.3-4.2,14.1-9.5c6.2-5.7,9.4-7.8,16.1-10.5c7.7-3.1,9.3-4.4,20.4-15.2c10.3-10.1,13.1-12.3,19.9-15.3
			c5.5-2.5,9.9-5.5,14.6-9.9c4.9-4.6,8.6-7.1,13.6-9.1c9.1-3.6,11.1-5.1,24-17.6c9.3-9.1,11.9-11,17.3-13c4.7-1.7,8.3-4.1,14.2-9.4
			c6.2-5.6,9.7-7.9,16.1-10.5c7.5-3.1,9.3-4.4,20.3-15.1c10.4-10.1,13.2-12.3,20-15.4c5.5-2.5,9.8-5.4,14-9.4
			c6.5-6.2,9.1-7.9,18-11.2c4.6-1.7,8-4.4,18.3-14.3c10.9-10.4,13.6-12.5,18.8-14.4c4.5-1.7,8.2-4.1,14.2-9.5
			c6.3-5.7,9.8-8,16.3-10.7c7.6-3.1,9.3-4.4,20.8-15.6c11-10.7,13.3-12.5,18.9-14.5c4.8-1.8,8.2-4,13.8-9.2
			c5.5-5.1,9.7-7.9,16.1-10.9c6.2-2.9,10.4-5.7,14.8-9.9c4.5-4.3,8.6-7.1,15-10c6.4-2.9,10.5-5.7,15-10c3.8-3.7,8.5-6.9,12-8.5
			c10.4-4.5,11.9-5.5,18.4-11.6c4.5-4.3,8.8-7.2,14.8-10c6-2.8,10.3-5.7,15.2-10.2c5.1-4.8,8.5-7.1,14-9.2c5.4-2.1,9.1-4.5,14.4-9.5
			c5.8-5.3,10-7.9,21.6-13.6c7.9-3.9,16-7.6,17.9-8.4c1.9-0.7,7-4.6,11.3-8.6c6-5.5,9.5-7.9,14.9-10c5.4-2.1,8.9-4.5,14.9-10
			c6.1-5.6,9.4-7.8,14.9-9.9c5.5-2.1,8.8-4.3,15-10c6.1-5.6,9.6-8,15.1-10.1c5.4-2.1,9.1-4.5,15-9.9c6-5.4,9.6-7.8,15.1-10
			c5.6-2.2,8.9-4.4,14.8-10c5.4-5,9.4-7.9,13.5-9.5c7.3-2.9,10.3-4.9,18-12.1c4.5-4.1,8.1-6.4,13.3-8.4c5.6-2.1,8.8-4.3,15.1-10
			c6.1-5.6,9.6-8,15.1-10.1c5.4-2.1,9.1-4.5,15-9.9c6-5.4,9.6-7.8,15.1-10c5.6-2.2,8.8-4.4,14.5-9.7c4.7-4.4,9.3-7.8,13-9.3
			c8.9-3.8,11.3-5.3,18.4-11.9c4.9-4.5,8.6-6.9,14-9c5.7-2.2,8.9-4.4,15-10c5.8-5.4,9.4-7.9,14.5-9.9c3.8-1.5,8-3.6,9.5-4.7
			c1.5-1.1,6.7-3.8,11.5-6c6.4-2.9,10.5-5.7,15-10c4.4-4.2,8.6-7.1,14.7-9.9c5.9-2.7,10.5-5.8,15-9.9c6.5-6.1,11.1-8.9,17.9-11.1
			c2.2-0.7,7-4.2,11.3-8.2c5.6-5.2,9.8-8,16.2-11c6.1-2.8,10.4-5.7,14.7-9.8c6.1-5.8,10.8-8.8,17.8-11c2.2-0.7,7-4.2,11.3-8.2
			c5.5-5.1,9.8-8,15.9-10.8c5.8-2.7,10.4-5.7,15-10c4.6-4.3,9.2-7.3,15.3-10.1c6.2-2.9,10.4-5.7,14.9-9.9c4.4-4.2,8.6-7.1,14.7-9.9
			c6-2.7,10.5-5.8,15.1-10.1c4.6-4.3,9.2-7.3,15.3-10.1c6.2-2.9,10.4-5.7,14.9-9.9c4.4-4.3,8.6-7.1,14.8-9.9
			c6.2-2.8,10.5-5.7,15.4-10.3c5.1-4.8,8.6-7.1,14.1-9.3c5.8-2.3,9.1-4.6,15.7-10.6c5-4.6,9.9-8.1,12.1-8.9c2.1-0.7,7-2.9,11-5.1
			c4-2.1,9.7-4.8,12.8-6c3.9-1.5,7.9-4.2,13.2-9.1c4.6-4.3,9.8-8,13.2-9.5c9.2-4,11.3-5.4,18.3-11.8c4.9-4.5,8.6-6.9,13.9-9
			c5.6-2.2,8.8-4.3,14.4-9.7c5.4-5.1,9.3-7.8,16-10.9c6.2-2.9,10.7-5.8,15.6-10.3c5.1-4.7,8.7-7,14.1-9.1c5.7-2.2,8.8-4.3,14.7-9.9
			c4.4-4.2,10-8.3,13.6-10.1c3.7-1.8,6.6-4,7.4-5.5c1.6-3.3,1.7-43.3,0.1-48.1c-0.6-1.9-2.1-4.7-3.3-6.4c-5.2-7.1-5-4.2-5.5-65.5
			c-0.5-57.5-0.5-57.5-5-65s-4.5-7.4-4.7-32.2c-0.2-24.6-0.8-30.3-3.8-32.8C4382.3,288.2,4374.4,287.8,4362.1,288.6"/>
	</g>
	<g id="Layer_19">
		<path class="st0" d="M4448.6,558.5c-3.6,0.6-5,2.1-5,5.3c0,2.3,2.4,5.2,12.4,15.1c11.3,11.2,12.5,12.9,14.5,18.7
			c2.6,7.8,7.7,14.5,17.7,23.5c7.4,6.7,10.8,11.6,13.5,20c0.8,2.4,3.9,6.8,8,11.1c7.2,7.6,8.7,10,12.1,19.1c1.8,4.9,4,7.6,13.5,17.1
			c11.8,11.7,12.9,13.3,16.4,22.7c1.5,4.1,4,7.5,9.4,13.1c6,6.2,7.7,8.7,9.7,14.1c2.6,7.2,10.8,17.8,19.2,24.7
			c5.2,4.2,8.5,9.3,11.7,18.1c1.9,5,4,7.8,14.4,18.3c11.1,11.2,12.4,13,14.6,19.1c1.9,5.5,3.8,8.2,10.1,14.9
			c5.9,6.3,8.1,9.4,9.4,13.5c2.8,8.7,5.8,12.9,16.3,23c9.7,9.3,12.6,13.3,15.1,21.2c0.7,2.2,4.1,6.9,8.1,11.2
			c7.3,7.9,8.7,10.1,12.1,19.2c1.8,4.9,4.1,7.8,14.5,18.3c11.1,11.3,12.5,13.1,14.4,18.8c2.5,7.4,6.7,13,17.8,23.5
			c6.2,5.8,8.8,9.2,10.7,13.5c1.4,3.2,3.3,7.3,4.2,9.2c2.9,6,81.3,85.9,92.9,94.8c1.8,1.4,6.5,3.8,10.5,5.4
			c7.3,2.9,7.3,2.9,99.3,94.8s92,91.8,99.5,94.6c7.5,2.8,7.5,2.8,46.6,42.1c26.1,26.2,40.3,39.8,42.8,40.8c3.3,1.4,4,1.4,7.3,0
			c2.5-1,15.1-13,38.1-36c18.9-19,34.9-34.5,35.5-34.5c0.6,0,4.9-1.9,9.7-4.1c8.3-4,9.6-5.1,36.1-31.8
			c27.6-27.6,33.6-34.7,34.4-40.5c2.1-15.3,2.6-17,6-22c4.7-6.8,5.6-11.8,5.4-28.4c-0.2-13.9-0.2-13.9,3.2-19.3
			c6.6-10.4,6.5-10.2,7.1-28.4c0.5-17,0.5-17,5-24.4c4.4-7.3,4.4-7.4,4.3-16c-0.3-14.7,0.9-18.2,8.7-26.5c8.5-9,10.1-12.1,11.2-22.1
			c0.6-5.5,1.7-9.2,3.3-12c1.3-2.2,3.6-6.5,5-9.6c1.4-3,3.5-7.3,4.7-9.5s3.2-6,4.5-8.4c1.6-3,2.3-6.1,2.3-9.6c0-6.2,1.4-10.6,5.1-16
			c1.5-2.2,3.9-6.9,5.3-10.4c1.9-4.7,4.4-8.3,9.6-13.6c8.2-8.4,9.6-11.4,10.9-22.5c0.8-6.9,1.5-8.9,4.5-13.4c2-2.9,4.1-6.8,4.6-8.6
			c0.5-1.9,1-12.1,1-22.7c0-22.7,0.2-23.5,9.1-33c7.1-7.6,9.8-12.9,9.9-19.2c0-8.1,1.8-11.8,9-19.5c8.5-9,10.1-12,11.2-21.8
			c1.1-9.6,1.5-10.5,9.3-18.7c8-8.4,9.5-11.4,10.5-21.7c0.8-7.3,1.4-9.3,4.4-13.8c1.9-2.9,4.7-8.1,6.1-11.6
			c1.9-4.7,4.4-8.2,9.4-13.3c10.6-10.8,11.2-12.5,11-31.3c-0.2-16.5,0.2-18.4,4.6-25.1c1.8-2.7,2.5-5,2.3-7.3
			c-0.3-3.3-0.3-3.3-6.8-2.8c-3.6,0.3-18.2,0.5-32.5,0.5c-26,0-26,0-30.5-2.7c-13.2-7.9-6.8-7.2-60-7c-29.5,0.1-49.6-0.2-53-0.9
			c-3.2-0.6-7.6-2.5-10.7-4.5c-2.9-1.9-6.4-3.7-7.8-4.1c-1.4-0.4-25.4-0.7-53.3-0.8c-55.6-0.1-52.2,0.2-60.7-6.2
			c-5.8-4.3-9-4.6-60.3-4.4c-34,0.1-49.5-0.2-51.5-0.9c-1.6-0.6-4.8-2.5-7.2-4.1c-2.4-1.7-5.7-3.3-7.2-3.6
			c-1.6-0.3-27.8-0.6-58.3-0.7c-60.8-0.2-56.8,0.2-65.4-6.2c-1.6-1.2-3.9-2.6-5-3c-1.1-0.4-23.4-0.7-49.5-0.6
			c-30.5,0.1-49.5-0.2-53-0.9c-3.2-0.6-7.7-2.5-10.8-4.6c-2.9-1.9-6.6-3.8-8.1-4.1c-1.5-0.3-25.5-0.6-53.3-0.7
			c-50.5-0.2-50.5-0.2-55.9-3.6c-11.3-7.1-6.3-6.6-62.4-6.7c-34.2-0.1-51.9-0.5-53.7-1.2c-1.5-0.6-5-2.7-7.9-4.6
			c-2.8-1.9-6.3-3.6-7.8-3.6c-1.5,0-24,0-50.1,0c-52.2,0.1-52.7,0.1-61.5-5.9c-2.6-1.8-6.4-3.4-8.4-3.6
			C4464.7,558.5,4451.1,558.1,4448.6,558.5"/>
	</g>
	<g id="Layer_18">
		<path class="st0" d="M4410.6,565.4c-6.2,2.3-12.6,6.5-19,12.7c-6.2,6-8.8,7.7-15,10.1c-6.1,2.3-8.8,4.1-14.5,9.5
			c-7.7,7.4-9.3,8.4-16.7,10.6c-4,1.2-6.8,3.2-13.2,9.2c-6.7,6.4-9.3,8.2-15.6,10.6c-6.1,2.3-8.9,4.2-15,10
			c-5.5,5.2-9.1,7.7-13.3,9.3c-3.2,1.2-6.2,2.2-6.7,2.2c-0.5,0-4.9,3.7-9.8,8.3c-6.5,6-10.1,8.6-13.3,9.6c-2.4,0.7-7.3,3-10.9,5.1
			c-3.6,2.1-8.9,4.6-11.9,5.7c-4,1.4-7.6,3.9-13.7,9.5c-6.9,6.4-9.4,8-15.1,9.9c-5.7,1.9-8,3.4-14.8,9.9c-6.6,6.3-9.3,8.1-15.5,10.5
			c-6,2.3-9,4.2-15.2,10.1c-6.4,5.9-8.9,7.6-14.4,9.4c-5.6,1.9-8,3.5-14.8,9.9c-6.8,6.4-9.3,8.1-15.1,10.1c-5.7,2-8.4,3.8-15.2,10.1
			c-6.9,6.4-9.4,8-15,9.9c-5.7,1.9-8,3.4-14.8,9.9c-6.6,6.3-9.3,8.1-15.5,10.5c-6,2.3-9,4.2-15.2,10.1c-6.4,5.9-8.9,7.6-14.4,9.4
			c-5.6,1.9-8,3.5-14.9,10c-6.1,5.7-9.7,8.3-13.9,9.9c-3.1,1.2-6.1,2.1-6.6,2.1s-4.7,3.6-9.4,7.9c-7.2,6.6-9.6,8.3-15.3,10.2
			c-5.7,1.9-8,3.4-14.8,9.9c-6.6,6.3-9.3,8.1-15.5,10.5c-6,2.3-9,4.2-15.1,10c-5.9,5.6-9.1,7.7-14.1,9.5c-3.5,1.3-7.9,3.4-9.8,4.8
			c-1.8,1.4-7,4-11.4,5.9c-6.4,2.7-9.5,4.7-15.1,10.2c-5.8,5.6-8.5,7.4-14.6,9.7c-6.1,2.3-8.8,4.1-14.5,9.5c-7.3,7-9.9,8.6-17.5,11
			c-3.1,1-6.9,3.7-12.5,9c-6.6,6.2-9.4,8.1-15.5,10.4c-6.1,2.3-8.9,4.2-15,10c-5.5,5.2-9.1,7.7-13.3,9.3c-3.2,1.2-6.2,2.2-6.7,2.2
			c-0.5,0-4.7,3.5-9.2,7.8c-6.9,6.5-9.6,8.3-15.8,10.7c-6,2.3-8.8,4.2-14.5,9.5c-7.2,6.9-9.9,8.6-17.4,11c-3.1,1-7.1,3.9-13.3,9.7
			c-4.9,4.6-9.3,8.3-9.8,8.3c-0.5,0-3.5,1-6.7,2.2c-4.2,1.6-7.8,4.1-13.3,9.3c-6.1,5.8-8.9,7.7-15,10c-6.1,2.3-8.9,4.2-15,10
			c-6.1,5.8-8.9,7.7-15,10c-6,2.3-8.9,4.2-14.5,9.6c-7.2,6.9-9.9,8.6-17.4,11c-3.1,1-7,3.8-13.1,9.5c-6.3,5.8-9.9,8.4-13.1,9.4
			c-2.4,0.7-7.3,3-10.9,5.1c-3.6,2.1-8.9,4.6-11.9,5.7c-4,1.4-7.6,3.8-13.7,9.5c-6.7,6.2-9.5,8.1-15,10c-5.5,1.9-8.3,3.8-15,10
			c-6.7,6.2-9.5,8.1-15,10c-5.5,1.9-8.3,3.8-15.1,10c-6.8,6.3-9.4,8-14.9,9.9c-5.5,1.8-8,3.5-14.8,9.9c-6.8,6.4-9.3,8.1-15.1,10.1
			c-5.4,1.9-8.5,3.9-14.1,8.9c-3.9,3.6-8.8,7.9-10.8,9.6c-2.8,2.4-3.6,3.9-3.6,6.3c0,5,5.5,14.6,12.5,21.8c4.6,4.7,7.1,8.3,8.5,12.2
			c3.4,9,6.2,13,17.3,24c9.5,9.4,10.8,11.2,13.7,18.3c2.5,6.3,4.5,9.3,10,14.9c5.3,5.5,7.4,8.6,9.4,13.9c2.7,7.2,5,10.4,12.7,18.2
			c2.9,3,5.5,6.8,6.8,10.3c3.6,9.6,5,11.6,16.7,23.4c9.5,9.7,11.8,12.5,13.8,17.8c3.3,8.4,5.5,11.8,11.6,17.6
			c2.8,2.7,6.4,7.5,8,10.6c3.1,6.2,5,7.4,13.5,8.6c5.6,0.8,9,2.3,15.4,6.8c4.4,3.1,4.4,3.1,22.5,3.6c18.2,0.5,18.2,0.5,25.6,5
			s7.4,4.5,30,5c24.9,0.6,21.5-0.3,35.4,8.5c2.8,1.8,4.9,2,20.2,2c17,0,17,0,24.5,4.5c7.4,4.5,7.4,4.5,25,5
			c18.6,0.5,18.5,0.5,27,6.4c4.5,3.1,4.5,3.1,22.5,3.6s18,0.5,25.5,5s7.4,4.5,30,5c24.1,0.5,23.5,0.4,31.9,6.4
			c4.4,3.1,4.4,3.1,22.5,3.6c18.2,0.5,18.2,0.5,25.6,5c7.4,4.5,7.4,4.5,25,5c18.6,0.5,18.7,0.6,26.9,6.4c4.4,3.1,4.4,3.1,22.5,3.6
			c18.2,0.5,18.2,0.5,25.6,5s7.4,4.5,30,5s22.5,0.5,27.3,3.5c11.5,7.2,10.7,7,28.7,7c16.5,0,16.5,0,23.7,4.3c4,2.4,9,4.6,11.1,4.9
			c8.4,1.1,8.5,1,59.6-49.6c48-47.5,48.1-47.6,55.4-50.5c10.1-3.9,14.3-8,111.3-105.3c81.6-81.9,81.6-81.9,89-84.8
			c7.3-2.9,7.6-3.1,52.4-47.6c88.7-88.1,106.3-105.7,122.1-122c14.3-14.8,16.6-16.8,21.8-18.8c3.2-1.2,7.2-2.9,9-3.8
			c3.8-1.9,70.2-67.7,72.2-71.6c2.2-4.1,1.8-6.2-2.7-16.4c-3.8-8.8-4.9-10.2-15.8-21.1c-10.8-10.8-11.9-12.3-13.9-18.4
			c-2.7-8.2-6.1-12.7-18.3-24.3c-8.4-8.1-9.7-9.8-12.3-16.4c-2.2-5.8-4.4-9.1-9.6-14.6c-4.8-5.1-7.5-9.2-9.5-14.1
			c-3.7-9-7.5-14-18-24.4c-7.3-7.1-9.3-9.9-12.6-16.9c-2.9-6.2-5.7-10.3-10.7-15.6c-5.4-5.7-7.4-8.7-9.6-14.4
			c-3.1-8.2-8.9-15.6-18.8-24.3c-6.5-5.7-8.5-8.9-12.3-19.2c-1.4-4-4.2-7.4-13.9-17.1c-11-11-12.4-12.7-15-19.4
			c-2.2-5.5-4.5-9.1-9.4-14.4c-4.7-5.1-7.7-9.6-10.7-16.2c-3.7-8-5.5-10.4-14.9-20c-10.6-10.8-13.1-14.3-15.5-21.6
			c-0.7-2.2-4.5-7.4-9.1-12.4c-6.4-7-8.3-9.8-10-15c-2.6-7.8-6.1-12.5-18.2-24c-8.6-8.2-9.7-9.7-12.3-16.5c-2.5-6.7-4-8.7-14.4-19.7
			c-6.4-6.7-13-13.8-14.7-15.8C4415,564.8,4413.7,564.3,4410.6,565.4"/>
	</g>
	<g id="Layer_17">
		<path class="st0" d="M4715.3,1074.5c-41.2,41-41.2,41-48.7,43.8c-7.5,2.8-7.5,2.8-100.5,95.6c-51.2,51.1-93.6,92.9-94.2,92.9
			c-0.7,0-3.8,0.9-7,2.1c-5.5,2-10,6.4-98.3,94.4c-92.5,92.3-92.5,92.3-100,95c-7.5,2.7-7.5,2.7-49.3,44.4c-23,22.9-42.8,43-44,44.6
			c-2.1,2.9-2.2,4-2.2,26.6c0,26.1,0.6,23.5-7.8,34.2c-2.2,2.8-2.2,2.8-2.2,55.5c0,58.3,0.5,53.4-6.7,62.9
			c-3.2,4.2-3.2,4.2-2.9,55.7c0.2,49.8,0.2,51.6-1.8,55.8c-1.1,2.4-3.5,6.2-5.3,8.6c-3.2,4.3-3.2,4.3-3.4,21.5
			c-0.2,19.8,0.5,24.4,4.4,30.1c1.5,2.3,4.1,7.5,5.6,11.6c2.6,6.9,3.7,8.4,14.2,18.9c11.2,11.2,13.8,14.8,16.3,22.6
			c0.9,2.8,4.9,7.7,14,17.1c11.7,12.1,12.9,13.7,15,19.8c2.2,6.7,8.3,15.7,12,17.6c2.5,1.3,6.2,7.7,9.1,15.5
			c1.9,5.1,3.9,7.7,13.6,17.3c11.8,11.8,12.9,13.3,16.4,22.8c1.7,4.7,4.4,8,14.8,18.8c11.3,11.7,12.8,13.8,14.5,19.1
			c1.7,5.3,3.2,7.3,13.6,18c11.4,11.6,14.4,15.9,16.9,23.8c0.7,2.2,4.3,7.1,8.5,11.7c5.7,6.2,7.9,9.5,10,15.1
			c3,7.9,6.6,12.6,19.4,24.9c7.8,7.6,9,9.2,10.9,15.1c2.7,8.2,4,10,18,24.4c13.4,13.9,14.1,14.1,18.8,4.5c2.7-5.6,5.8-9,22.9-25.5
			c26.4-25.3,33.5-33.6,37-42.7c2.5-6.4,4-8.5,14.9-19.8c11-11.4,12.4-13.3,15.1-20c2.4-6.2,4.1-8.7,9.9-14.5
			c13.8-13.8,17.1-18,20.1-25.7c2.4-6.1,4-8.5,9.6-13.8c12.5-12.1,17.7-18.7,20.6-26.2c2.7-7,3.5-7.8,33.9-38.2
			c22.3-22.3,31.7-32.3,33.2-35.6c1.2-2.5,3.3-7,4.7-10.1c2.1-4.6,5-7.8,16.2-18c19.6-17.8,27.5-27.1,31.6-37.2
			c3.3-8.1,3.3-8.1,29.5-34.2c22.9-22.7,26.5-26.8,28.9-32c1.5-3.3,3.5-7.8,4.5-10c1.2-2.6,6.9-8.7,16.5-17.5
			c8.1-7.4,19.7-19.1,26-25.8c10-10.9,11.7-13.3,14.6-20.5c3.2-8,3.7-8.6,25.3-30.7c21.3-21.8,22.1-22.7,24.9-30
			c2.7-6.9,3.7-8.2,13.5-17.5c15-14.1,35-34.2,39.4-39.7c2.1-2.6,5.3-8.3,7.1-12.7c3.3-8,3.6-8.3,26.3-30.5
			c25.8-25.2,29.9-30.1,33.8-39.9c2.6-6.4,4-8.1,21.7-25.5c10.4-10.2,20.3-20.3,21.9-22.4c1.6-2.1,4.5-7.5,6.4-12
			c3.3-8.2,3.6-8.4,23.8-28.2c28.5-27.9,32.8-32.8,36.2-41.7c2.4-6.3,3.8-8.3,11-15.3c12.7-12.3,16-16.6,19-24.7
			c2.4-6.5,3.7-8.3,11.5-15.8c4.8-4.7,11.7-11.7,15.4-15.7c9.6-10.4,9.5-11.3-3.3-25.1c-12.9-13.9-55.7-56.2-59.8-59.1
			c-1.8-1.2-6.4-3.5-10.4-5.2c-7.1-2.9-7.3-3.1-83.3-79.6c-41.9-42.1-83.4-83.5-92.3-91.9c-14.9-14.1-16.7-15.5-23.5-18
			c-7.4-2.8-7.4-2.8-45.5-41.4c-21-21.2-41.5-41.6-45.7-45.3C4757.7,1030.1,4763,1026.9,4715.3,1074.5"/>
	</g>
	<g id="Layer_16">
		<path class="st0" d="M3354.7,1258.3c-3.9,1.8-9.2,6.2-18.5,15.3c-12.2,12-13.5,13-19.9,15.1c-5.8,1.9-8.1,3.4-15.2,10.1
			c-4.6,4.3-8.8,7.9-9.4,7.9c-0.5,0-3.6,1-6.8,2.2c-4.8,1.8-7.9,4.2-18.3,14.3c-11.4,11.1-13.2,12.4-20,15
			c-6.2,2.3-8.9,4.2-15.8,10.7c-4.6,4.3-8.7,7.8-9.2,7.8c-0.5,0-3.5,1-6.7,2.1c-4.9,1.8-7.8,4.2-18.8,14.9
			c-12.1,11.8-13.5,12.9-19.8,15c-5.8,1.9-8.1,3.4-15.2,10.1c-4.6,4.3-8.8,7.9-9.4,7.9c-0.5,0-3.6,1-6.8,2.1
			c-4.8,1.8-7.8,4.2-18.3,14.3c-11.4,11.1-13.2,12.4-19.8,15c-5.9,2.2-8.9,4.2-15.1,10c-6.2,5.8-9.1,7.8-15.2,10
			c-6.8,2.6-8.5,3.8-20.4,15.5c-12.1,11.8-13.5,12.9-19.8,15c-5.8,1.9-8.1,3.4-15.2,10.1c-4.6,4.3-8.8,7.9-9.4,7.9
			c-0.5,0-3.6,1-6.8,2.2c-4.8,1.8-7.9,4.2-18.3,14.3c-11.5,11.1-13.2,12.4-20,15c-6.9,2.6-8.5,3.8-20.1,15.2
			c-10.8,10.6-13.4,12.6-18.4,14.3c-7.8,2.7-11.1,4.9-17.8,11.9c-3.9,4.1-7.2,6.5-10.5,7.7c-2.6,0.9-6.1,2.2-7.8,2.8
			c-1.6,0.6-8.9,6.9-16.2,13.9c-7.3,7-13.7,12.8-14.2,12.8c-0.6,0-3.5,0.9-6.6,2.1c-4,1.5-7.8,4.2-13.3,9.3
			c-6.2,5.8-9.2,7.8-15.2,10.1c-6.8,2.6-8.5,3.9-20.6,15.7c-7.2,7-13.6,12.8-14.2,12.8c-0.6,0-3.6,0.9-6.7,2.1
			c-4.1,1.5-7.8,4.2-13.9,9.9c-7,6.6-9.3,8.1-15.1,10c-6.4,2.1-7.8,3.2-20.1,15.1c-7.3,7.1-13.7,12.9-14.3,12.9
			c-0.6,0-3.5,0.9-6.6,2.1c-4,1.5-7.8,4.2-13.3,9.3c-6.2,5.8-9.2,7.8-15.2,10.1c-6.8,2.6-8.6,3.9-20.4,15.4
			c-12,11.6-13.5,12.8-20,15c-5.9,2-8,3.5-13.7,9.1c-7.1,7.2-9.3,8.6-17.8,11.4c-4.7,1.5-7.3,3.6-18,14
			c-6.9,6.7-14.2,12.9-16.2,13.8c-2,0.8-4.3,2.6-5.2,4c-1.7,2.6-2.2,1.4,7.9,21.7c0.7,1.4,2.6,4.8,4.3,7.5c2.5,4,3.3,6.7,4,13.7
			c0.8,7.8,1.4,9.4,5,14.9c2.3,3.4,4.1,6.9,4.2,7.8c0.2,9.3,2,16.3,5.3,21.8c2,3.2,4.3,7.8,5.1,10.2c0.8,2.4,3.1,6.9,5,10
			c1.9,3.1,4.4,8.3,5.6,11.4c2.2,5.9,8.1,13.2,20.5,25.3c4.7,4.5,6.7,7.5,8.4,12c1.2,3.3,3.5,8,5.1,10.4c1.6,2.4,3.8,6.7,4.9,9.6
			c1.1,2.9,3.7,8,5.9,11.4c4.4,6.9,5.3,11,5,23.7c-0.2,7.9-0.1,8.3,3.9,15c2.3,3.8,5.2,9.6,6.4,12.9c1.9,5.1,4,7.8,14.5,18.5
			c6.8,6.9,12.8,13.8,13.3,15.3c0.6,1.5,1.5,6.3,1.9,10.6c0.7,6.3,1.6,8.9,4.5,13.7c2,3.2,4.4,8.1,5.3,10.8
			c2.5,7.5,5.8,11.7,20.7,26.2c15.2,14.9,16.4,15.4,23.3,10.4c5.4-4,26.5-25.9,29.1-30.1c1.1-1.9,2.9-5.8,3.9-8.5
			c1.6-4.4,6-9.1,35.8-38.5c44.1-43.5,49.4-49.4,53.7-60.2c3.3-8.3,3.3-8.3,39.6-44.5c35.6-35.5,36.4-36.2,43.3-38.8
			c10-3.8,13.3-6.5,35.1-28.5c18-18.1,20-19.8,25.7-22c7.2-2.7,15.3-9.3,31.6-25.8c7-7.2,12.3-11.6,15-12.8
			c14.2-6,14.7-6.4,36.2-27.9c19.7-19.8,21.4-21.2,27.5-23.5c6.1-2.3,8-3.9,29-24.5c16.8-16.5,23.6-22.6,27-24
			c13.4-5.5,14.8-6.5,31.2-23c14.5-14.5,17-16.6,22.2-18.5c3.2-1.2,7.3-3.1,9-4.3c1.7-1.2,12.5-11.4,24.1-22.8
			c19.4-19.1,21.5-20.8,27.3-22.9c5.1-1.8,8.4-4.2,18-12.8c20.4-18.4,179.7-178.5,181.6-182.4c1.5-3.2,1.5-4.1,0.3-7.6
			c-3.1-8.8-8.2-17.2-14.6-23.9c-5.3-5.6-7.3-8.7-9.5-14.2c-3.1-8.1-8.4-15-18-23.5c-6.4-5.7-9.9-10.9-12.5-18.9
			c-0.7-2.2-4.5-7.3-9-12.2c-6.1-6.6-8.4-10.1-10.6-15.6c-2.2-5.5-4.4-8.8-9.9-14.8c-5.6-6-7.7-9.1-9.5-14.2
			c-3-8.2-5.2-11.2-17.6-23.5c-9.1-9-10.4-10.8-13-17.4c-2.2-5.7-4.5-9.2-9.8-15C3363.9,1254.1,3363.8,1254,3354.7,1258.3"/>
	</g>
	<g id="Layer_15">
		<path class="st0" d="M3530.2,1480.6c-1.6,1.1-41.3,40.3-88.2,87.2c-73.5,73.5-85.4,85.7-85.4,88.2c0,3,6.7,10.8,23,26.8
			c6.2,6,8.2,8.8,9.9,13.5c1.2,3.3,3.3,7.7,4.6,9.9s20.4,22,42.5,44s40.8,41.2,41.6,42.7c0.8,1.5,2.4,5.3,3.6,8.5
			c2,5.4,4.9,8.6,44.4,48.3c40,40.3,42.4,42.8,44.4,48.5c1.2,3.3,3.6,7.8,5.4,10c1.7,2.2,20.6,21.2,41.9,42.3
			c39.5,39.1,40.1,39.8,44.3,51.7c1.6,4.4,6.5,9.7,43.2,46.5c22.8,22.8,41.8,42.2,42.4,43c0.5,0.8,2.1,4.6,3.6,8.5
			c2.6,7,2.9,7.3,44.8,49.1c42.1,42.1,42.1,42.1,45,49.9c2.7,7.4,3.6,8.5,17,22.2c13.4,13.7,17.7,17.2,21,17.2
			c2.5,0,5.6-4.2,8.7-11.4c2.5-5.9,4.6-8.7,14.4-18.6c9.9-10.1,12-12.7,15.1-19.6c3.3-7.2,5.1-9.4,20.4-24.9
			c14.7-14.9,17-17.7,18.9-22.8c3.5-9.3,4.4-10.6,15.9-22.4c7-7.2,11.8-13,13.2-16c1.2-2.6,2.9-6.4,3.8-8.5c1-2.1,8.6-10.8,17.8-20
			c15.9-16.1,16.8-17.3,22-29.8c1.3-3.2,6.7-9.5,19-22c12.9-13.2,17.4-18.5,18.4-21.5c2.4-7.4,6.2-13.2,12.2-18.5
			c9.5-8.4,16.4-17.3,19-24.9c1.8-5.2,3.7-8.1,8.9-13.6c10.5-11.2,10.4-10.6,10.5-35.2c0.1-20.9,0.1-21.2,2.8-26.2
			c9.1-17.4,8.2-9.6,8.2-66.6c0-51,0-51,4.5-58.5c4.5-7.4,4.5-7.4,5-60c0.5-52.6,0.5-52.6,5-60c4.5-7.4,4.5-7.4,4.8-19.1
			c0.4-14.8-0.6-17.7-7.5-21c-2.7-1.3-7.5-3.9-10.8-5.9c-5.9-3.6-5.9-3.6-20.5-3.3c-16.7,0.3-20.9-0.6-28.9-6.1
			c-6.6-4.5-10.8-5.2-28.4-4.4c-18,0.8-23.5-0.2-31.1-5.3c-3.3-2.2-7.2-4.1-8.6-4.1c-1.4-0.1-9.4-0.2-17.7-0.2
			c-15.1-0.1-15.1-0.1-20.5-3.5c-10.5-6.6-10.4-6.6-23.9-6.3c-16.2,0.3-21.9-0.8-29.4-5.8c-3.5-2.3-7.2-4-9-4.1
			c-1.7-0.1-9.7-0.2-17.7-0.2c-14.6-0.1-14.6-0.1-20-3.6c-10.9-6.8-9.8-6.6-28.9-6.3c-21.3,0.3-26.7-0.6-34-5.5
			c-5.5-3.7-5.5-3.7-23.5-4.2c-19.8-0.6-17.2,0.2-30.9-8.5c-2.8-1.8-4.6-2-16.1-1.8c-16.9,0.3-22.4-0.7-29.9-5.8
			c-3.5-2.3-7.2-4-9-4.1c-1.7-0.1-9.6-0.2-17.6-0.2c-15.9-0.2-13.8,0.5-27.4-8.1c-2.9-1.8-4.9-2-24.6-2c-23.4,0-22.1,0.2-32.8-6.5
			c-5.3-3.3-5.3-3.3-22.5-3.4c-18.6-0.1-19.5-0.3-27.6-6.4C3544.1,1478.4,3534.5,1477.7,3530.2,1480.6"/>
	</g>
	<g id="Layer_14">
		<path class="st0" d="M3329.7,1680.1c-5.5,5.2-8.1,6.8-13.7,8.6c-6.8,2.2-7.3,2.6-29.4,24.5c-22.1,21.8-22.6,22.3-30,25
			c-7.2,2.7-8.2,3.5-25,20c-16.8,16.5-17.8,17.3-25,20c-7.4,2.8-7.9,3.2-30.6,25.6c-12.7,12.6-23.6,22.8-24.2,22.8
			c-0.6,0-3.7,1-6.9,2.1c-5.2,1.9-8.1,4.5-28.3,24.4c-22,21.7-22.7,22.3-30,25c-7.2,2.7-8.3,3.6-25,20c-16.8,16.5-17.8,17.3-25,20
			c-7.4,2.7-7.9,3.2-30.5,25.6c-20.1,19.9-23.6,22.9-27.5,24c-14.6,3.9-19.6,11.7-13.1,20.6c1.6,2.2,3.9,6.5,5,9.6
			c1.2,3.1,3.3,7.3,4.7,9.5c1.4,2.1,3.7,6.5,4.9,9.7c1.3,3.2,3.6,8,5.3,10.5c1.6,2.5,3.9,7.2,5.1,10.3c1.2,3.1,3.3,7.4,4.7,9.5
			c1.4,2.1,3.7,6.5,5,9.8c1.3,3.3,3.9,8.5,5.7,11.5c1.8,3,4.2,8,5.2,11c1.4,4,3.7,7.4,8.7,12.6c4.6,4.8,7.8,9.3,9.9,14
			c1.7,3.8,4.6,9.4,6.4,12.4c1.8,3,4.3,8.1,5.5,11.2c1.5,4.1,4.2,8,9.4,13.7c5,5.4,7.9,9.5,9,12.8c0.9,2.6,3.2,7.4,5.1,10.5
			c1.9,3.1,4.4,8.3,5.5,11.4c3,8.6,4.6,10.8,21.7,27.5c13.8,13.6,16.6,15.9,21.7,17.8c9.2,3.4,11.5,4.9,19.1,12.1
			c5.2,4.9,8.7,7.3,13.1,9c3.3,1.2,8.2,3.5,11,5.1s7,3.6,9.5,4.6c2.5,1,6.8,3.2,9.5,5c5.6,3.7,7,4.1,17.3,5.3
			c5.7,0.7,8.6,1.7,13,4.4c3.1,1.9,8.1,4.5,11,5.6c2.9,1.2,7.3,3.5,9.7,5.1c2.4,1.7,6.3,3.7,8.6,4.5c2.3,0.8,7.1,3.1,10.5,5
			c4.8,2.7,8.5,3.9,15.3,4.9c7.5,1.1,10,2,15.2,5.3c3.4,2.2,7.8,4.5,9.8,5.1c2,0.6,6.3,2.8,9.5,4.7c4.4,2.7,7.6,3.8,12.9,4.4
			c10.2,1.3,11.4,1.7,18.1,6c5.3,3.5,7.1,4,14.8,4.8c7.4,0.7,9.6,1.4,14.4,4.4c3.1,1.9,8.2,4.6,11.2,6c3,1.3,7.7,3.8,10.3,5.5
			c3.9,2.5,6.4,3.2,12.5,3.8c7.5,0.7,12.4,2.4,18.8,6.5c1.9,1.2,6.8,2.6,12.4,3.4c7.5,1.1,10.1,2,14.3,4.8c8.5,5.7,9.1,5.9,19.6,5.5
			c8.9-0.3,10.1-0.6,13.4-3.1c4.9-3.7,7.5-9.2,8.6-18c0.5-4,1.4-8.4,1.9-9.8c2.3-6,11-9.9,18.4-8.3c1.8,0.4,5.8,2.3,8.9,4.2
			c4.4,2.7,7.4,3.7,13.3,4.4c9,1.1,11.3,1.9,17.1,5.9c2.4,1.7,6.1,3.7,8.2,4.4c2.1,0.8,9.6,4.3,16.6,7.9
			c12.9,6.5,12.9,6.5,39.2,32.8c23.4,23.3,26.6,26.9,28.4,31.7c3.4,9,4.9,11.2,14.3,21c10.7,11,14.9,14.1,23.4,17.2
			c4.4,1.6,7.5,3.6,10.5,6.7c4.4,4.6,8.5,7.3,11.2,7.3c2.6,0,6.1-4.6,8.5-11.3c2.1-5.8,3.8-7.9,24.9-29.2
			c21.7-22,22.7-23.3,25.4-30.2c2.6-6.7,3.7-8.1,15.5-19.3c21.1-20.1,30.7-31.2,33.6-38.9c1.4-3.6,3.3-7.8,4.3-9.2
			c1-1.4,9.4-10.1,18.9-19.2c19.9-19.3,24.1-24.6,27.8-34.2c1.8-4.9,3.9-8.3,6.7-11c5.1-4.9,7.2-8.9,6.3-11.7
			c-0.4-1.2-9.8-11.4-20.9-22.7c-19.7-19.9-20.3-20.7-23.1-28c-3.5-9.3-9.3-15.7-54.7-60.7c-32.1-31.8-32.5-32.3-35.3-39.4
			c-3.5-8.9-4-9.4-51.1-56.4c-35.4-35.3-36.1-36.1-38.3-42.5c-1.2-3.6-3.5-8.2-5-10.3c-2.9-4-55.4-57.2-72.7-73.7
			c-9.2-8.7-10.2-10.1-12.8-17c-2.8-7.5-2.8-7.5-45-50c-41.5-41.8-42.3-42.6-44.3-48.8c-1.1-3.5-3.6-8.4-5.6-11
			c-1.9-2.6-21.2-22.4-43-44c-39.5-39.3-39.5-39.3-42.2-46.5c-2.4-6.5-3.8-8.3-13.9-18.5C3339.5,1671.2,3339.3,1671.1,3329.7,1680.1
			"/>
	</g>
	<g id="Layer_13">
		<path class="st0" d="M4122.2,1961c-0.8,1.2-2,4.1-2.7,6.2c-0.9,2.9-4.6,7.4-13.5,16.5c-10.1,10.4-12.6,13.5-14.3,18.3
			c-1.2,3.2-2.2,6.3-2.2,6.9c0,0.6-8,9.3-17.8,19.2c-15.7,15.9-18.1,18.8-20,23.9c-1.2,3.2-2.2,6.3-2.2,6.9c0,0.6-8,9.2-17.9,19.2
			c-15.7,15.9-18.1,18.8-20,23.9c-1.2,3.2-2.1,6.3-2.1,6.9c0,0.6-5.8,7-12.9,14.2c-10.9,11.1-13.2,14-15,18.9
			c-1.2,3.2-2.1,6.3-2.1,6.9c0,0.6-8.2,9.5-18.3,19.7c-15.2,15.4-18.5,19.4-19.7,23.1c-2.5,8-4.1,10.3-16,22.5
			c-10.6,10.9-12,12.7-14.5,19.4c-2.5,6.6-4.1,8.8-14,19.3c-6.2,6.5-13.3,13.7-15.9,15.9c-5.3,4.6-8.8,10.3-10.7,16.9
			c-1.1,3.9-4.4,7.7-23.9,27.5c-19.4,19.7-22.9,23.7-24.4,28c-1,2.8-2.2,6.2-2.8,7.7c-0.6,1.5-10.7,12.3-22.5,24
			c-11.8,11.7-22.2,22.6-23,24.2c-0.8,1.6-2.4,5.4-3.4,8.5c-1.7,5.1-4,7.7-23.8,27.6c-12,12.1-22.5,23.4-23.3,25
			c-0.8,1.6-2.3,5.4-3.2,8.3c-1.4,4.2-3.4,6.9-9.4,13c-6.5,6.5-8,8.6-9.5,13.6c-1,3.3-3.5,8.4-5.5,11.4c-3.2,4.8-3.7,6.5-4.3,13.6
			c-0.7,9.1-1.5,11.2-6.2,17.7c-2.9,4.1-3.4,5.7-4,13c-0.7,8.5-2.1,12-7.9,19.2c-2,2.6-2.2,3.8-2,13.4c0.3,12.7-0.5,16-5.7,23.6
			c-3.5,5.1-4,6.6-4,11.5c0,7.5-1.3,11.5-5.6,17.9c-3.2,4.6-3.7,6.3-4.4,13.6c-0.8,8.8-1.3,10.2-6.6,17.9c-2.7,3.9-3.3,5.8-3.4,10
			c0,7.8-1.4,12.3-5.6,18.4c-3.4,4.9-3.9,6.4-4.5,13.8c-0.8,8.9-1.5,10.8-5.9,16.5c-3.4,4.3-5.1,11.2-4.3,17.3
			c1.1,8.3-0.4,14.8-5.1,22c-3.9,6-4.4,7.3-4.8,14.4c-0.6,8.8-1.3,10.7-6.3,17.7c-2.9,4-3.5,5.7-3.5,10c0,7.8-1.4,12.2-5.9,18.9
			c-3.3,4.9-4.1,7-4.1,10.7c-0.1,7.9-1.6,13-5.6,18.8c-3.4,5-3.9,6.5-4.6,14c-0.8,8.6-0.9,8.9-8.3,20.6c-1.7,2.7-2,4.6-1.7,13.9
			c0.3,11.9-0.3,14.3-6.2,22.8c-2.8,4.1-3.6,6.2-3.6,9.9c-0.1,8-1.6,12.9-5.8,19.3c-3.3,4.9-4.1,7.1-4.2,10.8
			c-0.1,8-1.6,12.9-5.8,19.2c-3.5,5.2-4.1,7-4.2,11.3c0,7.7-1.4,12.3-5.6,18.4c-3.4,4.9-3.9,6.4-4.5,14c-0.8,8.6-0.9,8.9-8.3,20.6
			c-1.6,2.5-2,4.6-1.8,10.6c0.4,13.3-0.4,17.4-5,24.2c-3.5,5.2-4.3,7.5-5.3,14.3c-0.6,4.4-2,10.1-2.9,12.6
			c-3.1,8-1.2,10.6,10.1,14.5c2.6,0.9,6.4,2.7,8.3,4c2,1.3,6.5,3.6,10,5c3.5,1.4,8.4,3.9,10.7,5.6c2.4,1.6,6.2,3.6,8.5,4.4
			c2.3,0.8,7,3.1,10.5,5c4.8,2.7,8.5,3.9,15.3,4.9c7.6,1.1,10,2,15.2,5.4c3.4,2.2,8,4.7,10.2,5.5c4.3,1.6,26.7,12.8,32.5,16.4
			c2.3,1.4,6.5,2.4,12.2,3.1c7.6,0.8,9.7,1.5,15.5,5c3.7,2.2,8.7,4.8,11,5.6s6.3,2.9,8.7,4.6c2.5,1.7,6.4,3.8,8.7,4.6
			c2.3,0.8,7,3,10.3,4.9c3.3,1.9,8.5,4.4,11.4,5.5c2.9,1.2,7.2,3.4,9.5,5c4,2.9,11.6,5,18,5c1.7,0,4.9,1,7.1,2.2
			c2.2,1.2,8.5,4.5,14,7.3c34.4,17.8,36.1,18.5,45.8,20c7.2,1.1,9.8,2,14.4,5c3,2,7.4,4.3,9.6,5.1c2.3,0.8,6.8,3,10.2,4.8
			c3.3,1.9,8.5,4.3,11.4,5.5c2.9,1.2,7.3,3.5,9.7,5.1c5.2,3.6,17.4,8.9,20.4,8.9c5.4,0,9-5.3,9-13.2c0-6,1.7-11.5,5.1-16.9
			c1.6-2.5,4-7.4,5.3-10.7c1.3-3.3,3.8-8.1,5.6-10.5c2.5-3.5,3.4-6,4.1-11.8c1.3-10.4,1.7-11.6,5.6-18c2.9-4.7,3.7-7.2,4.5-14
			c0.8-7,1.6-9.3,4.9-14.9c2.2-3.6,4.7-8.6,5.7-11c0.9-2.4,3.2-6.8,5.1-9.8c2.7-4.3,3.6-7,4.3-13.5c0.5-4.5,1.8-9.7,2.8-11.6
			s3-5.7,4.4-8.4c1.6-3,2.6-6.5,2.6-9c0-5.8,1.7-11.4,5.1-16.7c1.6-2.5,4-7.3,5.3-10.7c1.3-3.3,3.8-8.1,5.6-10.7
			c2.5-3.6,3.4-6.3,4.1-11.8c1.2-10.1,1.6-11.4,5.6-17.9c2.9-4.8,3.7-7.1,4.4-13.9c0.7-6.9,1.4-9.1,4.8-14.8
			c2.2-3.7,4.8-8.7,5.8-11.2c1-2.5,3.3-6.9,5.2-9.9c2.8-4.4,3.6-6.9,4.3-13.5c0.5-4.5,1.7-9.7,2.7-11.6c6.3-12,7-14,7.9-21.1
			c0.7-6.1,1.7-8.9,4.7-13.7c3-4.8,3.9-7.6,4.7-13.6c1.1-8.9,1.9-11.3,5.7-16.9c1.6-2.3,3.6-6.2,4.6-8.7s3.4-7.4,5.3-10.9
			c2.8-5.1,3.7-8,4.4-14.3c0.7-6.8,1.4-8.9,4.9-14.8c3.3-5.5,4.3-8.3,5.1-14.1c1.2-9.3,1.5-10.2,5.5-16.8c1.8-3,4-7.4,4.9-9.8
			c0.8-2.4,3.1-7,5.1-10.2c2.9-4.7,3.8-7.4,4.5-13.6c0.5-4.2,1.7-9.3,2.8-11.3c1.1-2,3.1-5.8,4.5-8.5c1.6-3,2.6-6.5,2.6-9.1
			c0-5.8,2.2-12.4,5.9-17.8c1.7-2.5,3.8-6.5,4.7-8.9s3.1-6.9,5.1-10.1c3-4.9,3.7-7.3,4.4-13.8c0.5-4.5,1.6-9.6,2.7-11.6
			c1.1-2,3.1-5.9,4.6-8.6c1.4-2.7,2.6-6.5,2.6-8.5c0-6.1,1.9-12.2,5.5-18c1.9-3.1,4.1-7.5,4.9-9.9c0.8-2.4,3.1-6.9,5.1-10.2
			c2.8-4.6,3.8-7.5,4.6-13.4c1.1-8.9,1.7-10.6,5.7-17c1.7-2.6,3.8-7.1,4.8-9.9c1.3-3.6,4.1-7.6,9.5-13.4c6.1-6.6,8.2-9.7,10.4-15.4
			c2.5-6.5,3.8-8.3,14-18.3c11-10.9,14.6-16,17.4-24.8c0.9-2.7,5.9-8.4,18-20.5c16.4-16.4,16.9-17,20.2-25.3
			c3.3-8.3,3.8-8.8,18.2-22.9c16-15.6,19.6-20.3,23-29.6c2-5.5,3.7-7.5,17-20.4c16-15.6,19.7-20.3,23-29.6c2-5.6,3.6-7.4,20.6-24
			c20.6-20.1,25.8-26.4,28.7-35c1.4-4,3.6-7.6,7.1-11.5c5.5-6,7.4-9,7.4-11.6c0-0.9-1.7-5.5-3.7-10.3c-3.4-7.9-4.8-9.8-15.9-21.3
			c-8.5-8.8-12.5-13.7-13.4-16.5c-2.6-8.1-5.6-12.2-17-23.9c-8.4-8.6-12.1-13.1-13-16c-2.4-7.5-5.3-12-12-19
			c-5.3-5.6-7.3-8.5-9.5-14.3c-3.1-8.1-5-10.6-18.2-23.7c-8-8-9.4-9.9-11.9-16.5c-2.6-6.9-3.9-8.6-15-20c-11.1-11.5-12.4-13.1-15-20
			c-2.6-6.9-3.8-8.5-14.6-19.5c-10.6-10.7-12.2-12.9-15.9-20.9c-3-6.5-5.8-10.7-10.5-15.7c-3.7-3.9-6.9-8.4-7.6-10.6
			c-2.8-8.6-6.4-13.9-16.3-23.7c-8.7-8.7-10.8-11.4-14.7-19.3c-4-8.1-6-10.8-17.2-22.3c-7.9-8.1-13.5-13.1-14.7-13.1
			C4124.5,1958.7,4123,1959.7,4122.2,1961"/>
	</g>
	<g id="Layer_12">
		<path class="st0" d="M2926,2014c-10.5,10.7-13.3,14.1-14.4,17.8c-0.8,2.5-2.2,6.1-3.1,8c-1,1.9-20.1,21.7-42.4,44
			c-22.3,22.3-41.3,41.8-42.2,43.4c-0.8,1.6-2.4,5.4-3.5,8.5c-1.7,5.1-4,7.7-23.8,27.6c-12,12.1-22.4,23.2-22.9,24.7
			c-1.2,3.2-0.8,4.5,3.6,11.8c2.8,4.6,3.5,7,4.2,14.3c0.7,7,1.4,9.6,3.6,12.7c1.5,2.1,4,7,5.5,10.7c1.5,3.8,4.4,9.3,6.4,12.2
			c2,2.9,3.6,5.9,3.7,6.5c0.5,10.9,1.9,16.8,5.3,22.3c2,3.2,4.3,7.7,5,9.9s3,6.6,5,9.9c2,3.2,4.1,7.5,4.7,9.5s2.7,6.1,4.5,9.1
			s4.4,8.2,5.7,11.5c1.3,3.3,4,8.4,6,11.4c2,2.9,3.7,6.1,3.7,7c0,0.9,0.4,4.9,0.9,8.8c0.7,6,1.5,8.2,4.9,13.3
			c2.4,3.6,4.3,7.8,4.7,10.3c0.3,2.3,0.5,16.4,0.3,31.3c-0.3,27.1-0.3,27.1-3.3,31.4c-7.2,10.3-6.8,8.7-6.9,28
			c-0.1,19.5,0.5,17.1-7.3,28c-1.4,1.9-1.9,5.2-2.3,16.2c-0.5,13.8-0.5,13.8-5,20.1c-4.5,6.3-4.5,6.3-5,19.9
			c-0.6,14.6-0.2,13.5-7.6,23.7c-1,1.4-2,5.7-2.5,11.5c-0.8,8.2-1.2,9.8-4.4,14.4c-2,2.8-4.7,8.1-6.1,11.8c-2.3,6-4,8-19.8,23.9
			c-16.5,16.5-17.4,17.6-19.4,23.8c-1.2,3.6-3.9,9.1-6,12.2c-6.7,9.9-6.8,21.4-0.1,32.8c2.1,3.6,4.8,9.1,6,12.3
			c1.6,4.2,4.1,7.9,9.4,13.6c5.8,6.2,7.8,9.2,10.1,15.2c3.5,9.3,7,12.9,16.1,16.3c8.4,3.2,9.6,4.4,12.7,12.3c1.3,3.3,4,8.1,5.9,10.7
			c4.7,6.2,5.7,10,5.7,22.3c0,8.9,0.3,10.6,2.5,14.5c2.8,4.9,6.2,12,9.1,18.9c1.3,3,5.5,8.1,12.9,15.6c10,10.1,11.7,11.4,19,14.4
			c4.4,1.8,9.8,4.5,12,6c2.2,1.5,6.7,3.7,10,4.9c3.3,1.2,7.7,3.3,9.8,4.7c2.1,1.4,6.1,3.4,9,4.5c2.9,1.1,7.9,3.8,11.3,5.9
			c3.3,2.1,8,4.6,10.5,5.4c7.3,2.5,9.1,3.8,11.3,8c1.9,3.6,2.2,5.6,2.2,19.1c0,15.1,0,15.1-3,19.4c-6.9,9.9-6.5,8.4-6.5,24.4
			c0,11.6,0.3,15.5,1.6,18c0.9,1.8,6.9,8.6,13.3,15.2c9.7,9.9,12.1,13.1,14.1,18c1.3,3.3,3.9,8.4,5.8,11.2
			c3.6,5.5,5.1,10.7,5.1,18.3c0,3.7,0.9,5.9,4.5,11.3c5.4,8.3,5.8,10.4,5.4,32.2c-0.3,17.1-0.3,17.1-4,22.5c-6,8.9-5.7,11,3.3,20.4
			c5.4,5.6,7.8,9.2,9.9,14.4c1.5,3.8,4.2,8.8,5.9,11.2c4.7,6.5,5.3,10.2,4.9,31.9c-0.3,19.6-0.3,19.6,3.9,26.6
			c2.3,3.8,4.9,9,5.8,11.5c4.3,12.4,8.7,15,25.1,15.5c15,0.4,17,1.4,31.6,16.2c9.5,9.6,11.8,12.6,12.8,16.2c0.8,3.1,1.1,13.4,0.9,34
			c-0.3,29.6-0.3,29.6,3.9,36.6c2.3,3.8,4.8,8.8,5.6,11c0.8,2.2,2.8,6.2,4.4,8.8c1.7,2.6,4.1,7.3,5.3,10.5c1.3,3.1,3.6,7.7,5.3,10.2
			c4.6,6.8,5.5,10.5,5.6,22.6c0,11,0,11,4.4,17.7c4.9,7.5,5.9,11.7,5.1,21.5c-0.7,8.4,0.7,11.6,5.2,12.1c2.8,0.3,4.6-1.1,17.5-13.1
			c23.4-22,326.6-326.6,329.8-331.5c1.6-2.4,3.7-6.6,4.6-9.3c0.9-2.7,3.2-7.5,5-10.6c2.3-3.9,3.4-6.9,3.5-9.7
			c0.1-7.4,1.6-12.4,6-19.7c4.3-7.2,4.3-7.2,4.9-19.9c0.6-12.6,0.6-12.8,4.4-18.9c3.5-5.7,5.4-12.9,5.6-21.1c0-0.9,1.9-4.7,4.2-8.5
			c3.5-5.8,4.4-8.3,5.4-15.8c1-7.2,1.9-10,4.9-14.8c2.9-4.7,3.9-7.7,5-15c1.1-7.4,2.1-10.3,5.3-15.7c3.3-5.5,4.1-8,5-14.9
			c0.8-7.1,1.6-9.3,5.3-15.4c4.3-7.1,4.3-7.1,4.9-19.8c0.6-12.6,0.6-12.7,4.5-19.1c3.3-5.3,4.2-7.9,5.2-15.3c1-7.2,1.9-10,4.9-14.9
			c3.4-5.5,5-11.9,5.4-21.3c0-0.6,1.9-4.1,4.1-7.8c3.4-5.6,4.3-8.4,5.4-15.8c1.1-7.3,2.1-10.2,5-15c3-4.9,3.8-7.4,4.6-14
			c1-8.5,1.2-9.1,6.7-18.1c3.5-5.7,3.6-6.2,4.1-18.6c0.6-12.6,0.6-12.8,4.4-19c3.2-5.1,4-7.7,5-15c1-7.4,1.9-9.9,5.4-15.7
			c3.6-5.9,4.3-8.1,5.1-15.2c0.8-6.9,1.6-9.3,5-15c3.4-5.6,4.2-8.1,5-15.1c0.8-6.9,1.6-9.4,4.8-14.4c3.1-5,4-7.7,5-14.9
			c1-7.4,1.9-9.9,5.4-15.8c4.2-7,4.2-7,4.6-18.4c0.4-12.5,1-14.7,5.5-21.8c2.3-3.6,3.4-6.9,4.4-13.9c1.1-7.4,2.1-10.3,5-15.1
			c3.4-5.6,4.8-11.3,5.3-22.3c0-0.6,1.6-3.3,3.4-6c4.2-6.1,4.9-8.4,3.7-11.6c-1.5-4-6.1-7.5-13.4-10.3c-6.4-2.5-7.9-3.7-29.2-25
			c-21.3-21.4-22.5-22.7-25-29.3c-3.2-8.3-10.5-17.3-25.9-31.6c-11.4-10.6-12.8-11.5-21.8-15.1c-3.2-1.2-7.1-3.2-8.8-4.4
			c-1.7-1.2-5.8-3.2-9.1-4.6c-3.4-1.3-8.2-3.8-10.9-5.4c-5-3.2-19-6.4-25.4-5.8c-3,0.3-3.2,0.6-4.8,7.1c-2,8.4-4.5,11.2-11.7,13.3
			c-3,0.9-8.3,3.5-11.8,5.9c-7.5,5.1-11.2,5.9-26.8,5.3c-10.3-0.4-11.7-0.7-16-3.4c-8.7-5.4-11.1-6.3-19.5-7.3
			c-7.1-0.8-9.1-1.5-13.7-4.6c-4.6-3.1-6.7-3.8-15-5c-8.2-1.2-10.5-1.9-15.2-5c-3-2-7.4-4.3-9.7-5.1c-2.3-0.8-6.8-3.1-10-5
			c-4.5-2.7-7.5-3.8-13-4.4c-10.5-1.3-11.7-1.7-17.3-5.5c-4.4-3-6.6-3.7-14.8-4.9c-8.2-1.2-10.5-1.9-15.2-5c-3-2-7.4-4.3-9.7-5.1
			c-2.3-0.8-6.7-3-9.9-5c-4.7-2.9-7.5-3.8-15.4-4.9c-8.1-1.1-10.4-1.9-14.7-4.9c-2.8-1.9-7.6-4.5-10.6-5.6c-3-1.2-8-3.7-11-5.5
			c-3-1.9-7.5-4.1-10-5c-2.5-0.9-6.7-3-9.3-4.7c-4-2.5-6.7-3.4-14.4-4.3c-8.2-1-10.2-1.7-14.7-4.8c-2.9-2-7.2-4.3-9.7-5.2
			c-2.5-0.9-7-3.1-10-5c-3.1-1.9-8.2-4.4-11.4-5.6c-4.3-1.6-7.9-4.1-13.6-9.4c-6.1-5.7-9.3-7.8-15.1-10.1
			c-6.9-2.7-8.2-3.7-20.8-16.8c-7.4-7.7-17.8-18-23-23c-16.1-15.3-17.5-16.9-20-23.1c-1.3-3.3-3.6-8-5.1-10.4
			c-1.5-2.5-3.8-7.2-5-10.5c-2.5-6.8-5.3-10.9-12.5-18.1c-3.6-3.6-5.7-6.9-7.3-11.2c-1.2-3.4-3.8-8.6-5.6-11.7
			c-1.9-3.1-4.2-7.9-5.2-10.8c-1.3-3.6-4.1-7.6-9.4-13.4c-5.8-6.2-8.3-9.9-10.3-15c-1.5-3.7-3.6-8.1-4.7-9.6
			c-1.1-1.5-3.1-5.6-4.4-8.9c-1.3-3.4-3.8-8.2-5.4-10.8c-1.7-2.6-4.2-7.6-5.6-11.1s-3.5-7.6-4.5-9.1c-1.1-1.5-3.2-5.9-4.9-9.8
			s-3.8-8.3-4.8-9.8c-1.1-1.5-2.9-4.6-4-6.9C2943.4,1997.5,2941.9,1997.9,2926,2014"/>
	</g>
	<g id="Layer_11">
		<path class="st0" d="M3312.8,3317c-105,105-178.2,178.9-179.5,181.2c-2,3.7-2.2,5.4-2.2,23c0,21-0.7,18.1,8,31.9
			c1.9,3,2,5.3,2.5,46.3c0.5,43.1,0.5,43.1,4.3,48.6c2.1,3,4.2,7,4.8,8.9c0.6,2.1,0.9,20.2,0.8,48.4c-0.2,43.2-0.2,45.2,1.7,48.1
			c8.8,13.9,7.9,8.2,8.1,55c0.1,39.4,0.2,42.4,2,45.1c8.7,13.7,7.9,7.6,8,59.9c0.1,44.1,0.3,47.4,2,50.1c8.6,13.6,7.8,8,8.3,55.6
			c0.5,43,0.5,43,4.7,49.3c2.6,3.9,4.4,7.9,4.8,10.5c0.3,2.3,0.4,23.8,0.3,47.7c-0.2,42-0.2,43.6,1.7,46.6c8.8,13.9,8,7.7,8.2,60.2
			c0.2,43.7,0.3,47.5,2,50.1c8.6,13.5,7.8,8.1,7.8,54.5c0,40.3,0.1,42.1,2,45.1c8.8,13.9,8,7.7,8.2,60.2c0.2,52.6-0.6,46.3,7.8,59.5
			c1.9,3,2,5,2.1,45.3c0.1,39.6,0.2,42.3,2,45.1c8.7,13.7,7.9,7.6,8,59.9c0.1,44.4,0.2,47.4,2,50.1c8.7,13.7,7.9,8.1,8,54.9
			c0.1,39.3,0.3,42.4,2,45.1c8.6,13.6,7.8,8,8.4,55.7c0.5,43.1,0.5,43.1,4.3,48.5c2.1,3,4.2,7,4.8,8.9c0.7,2.2,1,15.7,0.9,37
			c-0.1,18.4-0.1,34.4-0.1,35.6c0.1,1.2,1.9,4.8,4.1,8c2.4,3.5,4.4,8,4.9,10.9c0.5,2.8,0.7,17.4,0.4,33c-0.6,28.9,0.1,36.5,3.2,36.5
			c2,0,11.4-13.6,11.9-17.4c2-14.8,2.6-16.7,6.1-22.4c3-4.9,3.8-7.3,4.5-13.9c0.8-8.3,1.7-10.6,5.8-16.2c1.4-1.8,3.5-6,4.8-9.4
			c1.3-3.3,3.8-8.3,5.5-10.9c2.5-3.8,3.3-6.6,4-12.8c1-9.3,1.8-11.7,6-17.7c2.4-3.4,3.3-6.2,4-11.7c1.2-10.1,1.6-11.4,5.4-17.6
			c1.9-3,4.2-7.6,5.1-10c1-2.5,3.3-6.8,5.2-9.7c2.8-4.3,3.6-6.6,4.3-13.5c0.5-4.6,1.8-9.9,2.8-11.8c1-1.9,3-5.7,4.5-8.4
			c1.4-2.7,2.6-6.4,2.6-8.2c0-6.1,2.1-13.3,5.2-17.5c1.7-2.3,4.1-6.9,5.4-10.2c1.3-3.3,3.7-8.1,5.5-10.8c2.5-3.8,3.3-6.6,4-12.8
			c1-9.4,1.9-11.9,6-17.6c2.5-3.5,3.3-5.8,4-12.6c0.5-4.6,1.8-9.9,2.8-11.9s3-5.7,4.4-8.4c1.6-3,2.6-6.5,2.6-9.1
			c0-5.7,2.2-12.4,5.7-17.6c1.6-2.4,3.7-6.3,4.7-8.7c0.9-2.4,3.5-7.7,5.7-11.8c2.8-5.4,4-8.7,4-11.8c0-6,2.2-12.7,6-17.9
			c2.6-3.7,3.4-5.9,4.1-12.2c1.1-9.6,1.4-10.8,5.5-17.5c1.8-3,4.1-7.5,5.1-10c1-2.5,3.3-6.8,5.2-9.7c2.8-4.2,3.6-6.8,4.6-14.1
			c0.9-6.6,2-10.2,4.2-13.8c4-6.7,5.3-10.2,5.4-15c0.1-5.7,2.3-12.4,5.8-17.5c1.6-2.4,3.7-6.4,4.7-8.9s3.3-7.2,5.2-10.4
			c2.7-4.5,3.7-7.7,4.5-13.8c1.2-9.3,1.9-11.5,6-17.5c2.5-3.6,3.3-6.1,4-12c1.1-9.4,1.5-10.7,5.1-16.4c1.6-2.5,4-7.4,5.3-10.7
			c1.3-3.3,3.8-8.1,5.6-10.5c2.6-3.7,3.3-5.9,4.1-12.5c1.1-9.4,1.9-11.8,5.9-17.7c2.4-3.5,3.2-6.1,3.9-12.2c1-9,2-11.8,5.9-17.6
			c1.5-2.3,3.4-5.7,4.2-7.7c0.7-1.9,3.3-7.2,5.7-11.8c2.8-5.5,4.3-9.6,4.3-12c0-6.2,2.4-13.4,6.3-19c2.2-3.2,3.7-6.6,3.8-8.5
			c0.1-1.7,0.2-7.2,0.4-12.3c0.2-5.7,0.8-10.2,1.8-12c0.8-1.6,2.9-5.5,4.6-8.7c2.1-3.9,3.1-7.3,3.1-10c0-6,1.7-11.4,5.6-17.7
			c2.7-4.4,3.7-7.5,4.8-14.7c0.9-6,2.1-10.2,3.5-12.1c3.6-5,6.1-11.4,6.1-15.7c0-5.8,2.2-12.4,6-17.9c2.7-3.9,3.4-6.2,4.2-12.9
			c0.5-4.5,1.7-9.7,2.8-11.6s3-5.7,4.5-8.4c1.6-3,2.6-6.5,2.6-9.1c0-5.8,2.2-12.4,5.9-17.8c1.7-2.5,3.8-6.5,4.7-8.9
			c0.8-2.3,3.1-6.9,5.1-10.1c2.9-4.7,3.8-7.4,4.5-13.7c1-9.2,1.8-11.6,6-17.7c2.5-3.7,3.3-6.1,4-12.7c0.5-4.5,1.7-9.7,2.8-11.6
			c1-1.9,3-5.7,4.5-8.4c1.6-3,2.6-6.5,2.6-9.1c0-5.9,2.2-12.4,6-18c2.6-3.8,3.4-6.2,4.1-12.2c1.1-9.5,1.4-10.6,5.8-17.7
			c3.5-5.7,3.6-6.3,4.2-18.1c0.5-9.6,1-13,2.6-16.1c1.1-2.2,3.2-6.2,4.6-8.9c1.6-3.1,2.9-7.9,3.5-12.5c0.8-6.2,1.6-8.6,4.7-13.2
			c3.2-4.8,3.9-6.9,4.6-13.5c0.9-9.1,1.9-11.8,6.1-17.9c2.5-3.6,3.3-6.3,4.3-13.3c1-7.4,1.9-9.9,5.4-15.7c4.1-6.7,4.2-7.2,4.2-15.5
			c0-12.1,1.4-18.4,5.7-24.8c2.9-4.4,3.8-6.8,4.4-12.8c1.1-9.4,1.4-10.5,5.6-17.4c2.8-4.6,3.7-7.2,4.4-14c0.8-7.1,1.5-9.3,5.1-15.2
			c3.5-5.8,4.3-8.2,5-14.5c0.4-4.2,1.6-9.2,2.7-11.1c1-1.9,3-5.7,4.5-8.4c2.3-4.3,2.6-6.1,2.6-14.1c0-10.7,1.5-16.4,6-22.9
			c2.5-3.7,3.4-6.3,4.1-11.9c1.2-10.1,1.6-11.2,5.5-17.1c2.9-4.3,3.6-6.7,4.4-13.2c1.1-9.3,2-12,6.1-18.1c2.5-3.6,3.3-6.3,4.3-13.3
			c1-7.4,1.9-9.9,5.5-15.9c4.3-7.1,4.3-7.1,4.6-19.1c0.2-9.7,0.6-12.7,2.3-15.8c1.1-2.1,3.2-6,4.6-8.7c1.6-3,2.6-6.5,2.6-9
			c0-5.9,1.7-11.3,5.7-17.8c2.7-4.4,3.7-7.3,4.3-13c1-8.7,1.9-11.5,6.1-17.5c2.5-3.6,3.3-6.1,4-12.4c1-9.1,1.5-10.5,6.3-18.4
			c3.4-5.7,3.6-6.4,3.6-15c0-11.7,1.3-16.8,5.6-23.5c3-4.5,3.7-6.8,4.5-13.5c0.5-4.4,1.8-9.7,2.8-11.6s3-5.7,4.4-8.4
			c1.6-3,2.6-6.5,2.6-9.1c0-5.9,2.2-12.4,6-17.9c2.6-3.8,3.5-6.4,4.4-13.5c1-7.4,1.9-9.9,5.4-15.7c4.1-6.9,4.2-7.1,4.2-16.4
			c0-12,1.2-16.8,5.6-24c2.8-4.5,3.7-7.3,4.4-13.1c0.5-4,1.8-9.5,2.9-12.1c1.1-2.7,2.1-5.4,2.1-6.2c0-2.9-5-7.3-9.7-8.4
			c-2.6-0.6-7.7-2.9-11.3-5c-3.6-2.1-8.5-4.6-11-5.5c-2.5-1-6.5-3-9-4.6c-2.5-1.6-7-3.8-10-5c-3-1.2-7.6-3.5-10.2-5.2
			c-3.7-2.4-6.8-3.3-14.4-4.4c-8.2-1.1-10.5-1.9-15.1-5c-3-2-7.3-4.3-9.6-5.1c-2.3-0.8-6.6-3-9.7-4.8c-3-1.9-8-4.4-11-5.5
			c-3-1.2-7.6-3.5-10.1-5.1c-3.7-2.3-6.8-3.3-14.4-4.3c-8.3-1.2-10.4-1.9-14.9-4.9c-2.9-2-8-4.7-11.4-6c-3.4-1.3-7.5-3.4-9.1-4.5
			c-1.6-1.2-6.2-3.4-10.1-5c-3.9-1.6-8.4-3.9-10-5c-1.6-1.2-5.8-3.2-9.2-4.6c-3.4-1.4-8.4-3.9-11-5.5c-3.6-2.3-6.6-3.2-12.5-3.9
			c-9.6-1.2-12.1-2-17.7-5.9c-2.5-1.7-6.4-3.8-8.8-4.6c-2.3-0.8-6.8-3-9.8-4.9c-3-1.9-8-4.4-11-5.5c-3-1.2-7.6-3.5-10.2-5.2
			c-3.7-2.4-6.8-3.3-14.4-4.4c-8.2-1.1-10.5-1.9-14.8-4.8c-2.8-1.9-7.6-4.4-10.6-5.6c-3-1.2-7.5-3.4-10-5c-2.5-1.6-7-3.8-10-5
			c-3-1.2-7.5-3.4-10-5c-2.5-1.6-7-3.8-10-4.9c-3-1.1-7.5-3.4-10-5.1c-2.5-1.7-5.8-3-7.5-3C3490.4,3139.7,3469.7,3160.2,3312.8,3317
			"/>
	</g>
</g>
<g id="Layer_8">
	<circle class="st1" cx="410.7" cy="4040.5" r="129.8"/>
</g>
<g id="Layer_7">
	<circle class="st2" cx="410.7" cy="4403.1" r="129.8"/>
</g>
<g id="Layer_6">
	<circle class="st3" cx="410.7" cy="4765.7" r="129.8"/>
</g>
<g id="Layer_5">
	<text transform="matrix(1 0 0 1 623.3537 4065.4111)" class="st4 st5 st6">MULTI-PURPOSE BUILDINGS</text>
</g>
<g id="Layer_4">
	<text transform="matrix(1 0 0 1 631.4732 4445.6592)" class="st7 st5 st6">ROADS</text>
</g>
<g id="Layer_3">
	<text transform="matrix(1 0 0 1 642.5322 4808.2646)" class="st8 st5 st6">BRIDGES</text>
</g>
<g id="Layer_2">
	<text transform="matrix(1 0 0 1 280.9034 3752.8071)" class="st9 st5 st10">PROJECT EXISTENCE INDICATOR</text>
</g>
</svg>
