<?xml version="1.0" encoding="utf-8"?>
<!-- Generator: Adobe Illustrator 27.1.0, SVG Export Plug-In . SVG Version: 6.00 Build 0)  -->
<svg version="1.1" id="Libertad" xmlns="http://www.w3.org/2000/svg" xmlns:xlink="http://www.w3.org/1999/xlink" x="0px" y="0px"
	 viewBox="0 0 7273.9 5145.9" style="enable-background:new 0 0 7273.9 5145.9;" xml:space="preserve">
<style type="text/css">
	.st0{fill-rule:evenodd;clip-rule:evenodd;fill:#9C14E3;}
	.st1{font-family:'ArialMT';}
	.st2{font-size:200px;}
	.st3{fill:#0B0BF9;stroke:#FFFFFF;stroke-miterlimit:10;}
	.st4{fill:#F9F912;stroke:#FFFFFF;stroke-miterlimit:10;}
	.st5{fill:#F70D34;stroke:#FFFFFF;stroke-miterlimit:10;}
	.st6{fill:#8800FF;}
	.st7{font-size:140px;}
	.st8{fill:#7400EF;}
	.st9{fill:#7F00EF;}
	.st10{fill:#8703EF;}
	.st11{font-size:150px;}
</style>
<g id="Layer_11">
	<path class="st0" d="M3645,134.5c-8,4-9.9,5.8-13.4,12.5c-2.1,4-12.3,14.7-34.8,36.7c-31.4,30.5-32,31-40.7,34.3
		c-8,3-10.2,4.6-23.7,17.4c-12.6,12-16,14.5-22.1,16.7c-3.9,1.4-9.9,4.4-13.2,6.6c-4.7,3.1-8.1,4.3-15.8,5.5
		c-10.9,1.7-13.5,3.3-16.8,10.6c-2.8,6.1-7.1,9.9-12.8,11.2c-2.5,0.6-13.4,1-24.2,1.1c-22.2,0-26.9-1.2-32.8-8.7
		c-5.9-7.6-14.7-9.7-19.5-4.7c-1.5,1.5-3.7,5.6-5.1,9c-1.3,3.4-4.4,9.1-6.8,12.5c-4.4,6.2-4.4,6.2-4.4,44.1c0,40.5,0,40.3-6.4,49
		c-2,2.7-4.7,7.8-6.1,11.3c-1.4,3.6-4.1,8.6-6,11.1c-4.2,5.5-4.6,11.2-1.2,16.6c1.7,2.8,5.5,5.2,14.6,9.6c6.8,3.2,14.4,7,17,8.5
		c3.9,2.1,7.3,2.7,19.1,3.2c10.5,0.5,15.4,1.2,18.3,2.7c2.2,1.2,9.7,7.9,16.7,14.9c9.9,10.1,13.7,14.8,17.5,22.2
		c2.7,5.2,6.3,12,8,15.2c2.1,3.8,3.2,7.5,3.2,11c0,7.1,1.6,12.5,5.7,18.7c1.9,2.9,4.4,7.8,5.6,11c1.2,3.2,4,8.7,6.2,12.2
		s5,9.2,6.4,12.7c5.1,13.3,16.9,24.8,31.1,30.4c6.3,2.5,10.6,5.3,16.8,11c4.6,4.2,10.8,8.7,13.8,10s13.1,5.9,22.3,10.3
		c16.9,8,16.9,8,30.6,22.3c15.6,16.2,24.2,22.8,36.2,27.7c6.9,2.8,10.4,5.4,21.5,15.8c7.3,6.9,14.1,13.9,15.3,15.7
		c1.2,1.9,2.5,7.1,3.1,12.6c0.8,8.1,1.7,10.5,6,17.4s5.1,9.4,6,17.4c0.7,6.3,1.9,10.9,3.8,14.2c1.6,2.7,3.4,5.9,4.2,7.2
		c0.7,1.3,5.7,11.2,11.1,22.1c5.4,10.9,10.8,21.1,11.9,22.7c1.2,1.6,3.2,5.7,4.5,8.9c1.3,3.3,3.9,8.5,5.9,11.6s4.8,9,6.3,13
		c2.1,5.7,4.7,9.4,11.3,16.3c4.7,4.9,9.2,10.1,10,11.4c0.8,1.4,1.9,6.7,2.5,11.8c0.9,7.3,2.1,11.2,5.9,18.3
		c2.6,4.9,6.5,12.6,8.5,16.9c3.2,6.9,6.5,10.6,25.3,29.2c24.1,23.7,28.3,27,40.2,31.4c11.3,4.2,20.1,12.1,25,22.4
		c2,4.3,4.9,10.1,6.3,13c1.7,3.5,10.6,13,27.2,29c23.4,22.6,24.8,24.3,29.5,33.9c2.7,5.5,6.3,11.2,8.1,12.5c4.6,3.6,11.4,3.2,17.6-1
		c2.8-1.9,8.5-4.7,12.7-6.4c4.2-1.7,9.6-4.2,11.9-5.7c5.8-3.7,7.7-4.3,18.4-5.4c6.5-0.7,10.8-1.9,13.7-3.8
		c4.2-2.7,29.2-14.8,44.2-21.4c10.2-4.5,22.4-15.3,47.4-41.8c6.7-7.1,10.7-10.3,15.7-12.5c6.8-3,9.9-4.6,19.1-9.7
		c4.7-2.6,7.1-3,20.4-3.6c14.9-0.6,15.2-0.7,21.5-4.9c8.8-5.8,11-6.8,15.2-6.8c7.8,0,12.6,3.2,25.5,17.2
		c15.6,16.9,53.3,53.2,60.2,58c2.8,2,8.9,5,13.6,6.7c6.4,2.4,10.3,4.9,16.5,10.5c5.5,5.1,10.9,8.6,17,11.4c5,2.2,11.2,5.3,13.8,7
		c6.6,4.1,10.7,3.7,20.7-1.6c4.7-2.5,9.9-4.9,11.6-5.4c1.6-0.5,5.9-2.6,9.5-4.7s10.3-5.3,14.9-7c7.3-2.8,10.1-4.9,22.1-16.3
		c11.9-11.3,15.1-13.7,23.8-17.6c7.4-3.3,12.4-6.6,18.5-12.2c5.8-5.3,10.4-8.4,14.9-10.1c3.6-1.3,9.3-4.1,12.6-6.3
		c3.3-2.1,8.3-5,11.1-6.4c5.8-2.9,7.5-6.1,5.8-11.1c-0.8-2.3-66.6-67.3-193.2-190.7c-192-187.2-192-187.2-197.7-199.2
		c-5.7-11.9-5.7-11.9-203.7-204.7c-180.8-176.1-198.2-193.4-200.6-199.2c-1.5-3.5-4-8.4-5.6-11s-4.2-7.8-5.8-11.6
		c-3.2-7.9-8.5-15.5-15-21.5c-2.6-2.4-6.3-8-8.9-13.6c-2.5-5.2-5.6-10.1-6.9-10.7C3656.2,130.7,3651.4,131.3,3645,134.5"/>
</g>
<g id="Layer_10">
	<path class="st0" d="M3313.7,332.2c-14.2,13.3-14.6,13.5-35.3,13.4c-16.4-0.1-18.2-0.8-30.6-12.2c-8.8-8.2-13.8-10.3-19.6-8.6
		c-1.5,0.5-11.9,9.6-23,20.3c-12.5,12-22.3,20.5-25.6,22.1c-7.3,3.5-9.3,5.4-12.8,12.1c-3,5.9-12.7,16.6-18.5,20.6
		c-2.2,1.5-7.2,2.8-15.2,3.8c-9.4,1.2-12.7,2.1-15.9,4.4c-4.6,3.4-59.3,56.2-84.1,81.1c-15.4,15.5-16.9,17.4-16.9,21.2
		s0.6,4.6,5.7,7.6c9.9,5.9,10.7,6.8,13.7,14.2c1.6,4,4.9,9.8,7.3,12.9c5.6,7.1,7.2,12.7,5.4,18.9c-1,3.7-6.1,9.4-25.2,28.4
		c-29.8,29.7-29,29-34.6,29c-3.9,0-5.6-0.9-11.7-6.7c-4-3.7-9.3-10.3-11.9-14.6c-3.6-5.9-5.8-8.4-8.9-9.6c-9.9-4-17.4,1-48.2,31.8
		c-12.2,12.2-23.6,22.8-25.4,23.4c-1.8,0.7-7.1,1.5-11.8,2c-4.7,0.4-10.2,1.5-12.1,2.4c-2,0.9-9.7,7.6-17.3,14.9
		c-11.8,11.3-14.8,13.6-21.5,16.2c-4.3,1.6-10.5,4.8-14,7.1c-7.7,5.2-12.2,6.2-26.9,6.2c-9.5,0-12.6,0.5-16.6,2.5
		c-6.5,3.2-41.5,37.4-44.5,43.4c-2.1,4.2-2.3,6.8-1.9,27c0.6,32.4,1.4,30.3-23.3,53.8c-11,10.4-26,25.1-33.4,32.6
		c-13.1,13.4-13.4,13.8-13.4,19c0,5,0.5,5.8,9.2,14.9c6.6,6.9,9.9,11.3,11.4,15.6c1.2,3.3,4.1,9,6.4,12.7c2.3,3.7,4.9,8.4,5.7,10.3
		c2.2,5.1,7,8.4,13.5,9.2c8.3,1.1,12.2,2.5,19.3,6.9c3.5,2.2,9.1,4.9,12.3,5.9c4.1,1.3,8.6,4.3,14.8,9.9c9.4,8.5,11.9,10,22,13.7
		c7.2,2.6,18.4,11.7,22.6,18.3c2.3,3.7,2.9,6.4,3.4,18c0.6,12.8,0.8,13.8,3.8,16.7c2.9,2.8,4.3,3.1,17,4
		c19.2,1.3,19.7,1.6,28.5,19.1c1.6,3.2,4.7,9.3,6.9,13.5s5,9.9,6.3,12.7c2.4,5.3,14.9,18.3,19.8,20.5c1.6,0.8,7,3.2,11.9,5.4
		s10.8,5.1,13.1,6.4s13,6.6,23.8,11.8c10.8,5.2,23.2,11.2,27.4,13.3c4.3,2.1,9.3,4.6,11.2,5.5c4.7,2.1,7.4,7.8,8.9,18.2
		c0.9,6.5,2.2,10.2,5.4,15.2c2.3,3.7,4.8,8.2,5.5,10c0.9,2.3,1.4,17.7,1.4,46.9c0.1,38.4-0.1,44-1.9,47.6
		c-2.6,5.3-26.4,28.1-32.4,31.1c-2.6,1.3-6.8,3-9.3,3.7c-6.6,2.1-13.4,8.9-15.1,15.1c-0.8,2.8-1.2,9.4-1,14.5c0.4,8.7,0.8,10,5.8,18
		c5.4,8.6,5.4,8.6,6,29.6s0.6,21,4.5,26.9c2.1,3.2,5.3,9.2,7,13.3c1.7,4.1,4,8.7,5.2,10.3c1.1,1.6,6.2,11.3,11.2,21.5
		s10.2,20.4,11.6,22.6c1.3,2.2,4.8,9,7.8,15.1c4.8,9.7,7,12.6,18.8,24.4c11,11,13.9,14.6,16.2,20.3c1.5,3.8,4.3,9.4,6.2,12.3
		s4.8,8.6,6.4,12.6c1.7,4,4.3,9.2,5.9,11.5s4.2,7.5,5.8,11.5c4.6,11.3,6.9,13.7,19,19.4c7.4,3.5,13.4,7.4,18.6,12.1
		c5.2,4.7,10.2,8,15.5,10.2c4.3,1.7,10.7,4.9,14.2,7.1c3.5,2.1,9.1,5,12.5,6.2c3.3,1.3,9.3,4.1,13.3,6.3c4,2.2,9.6,4.8,12.5,5.8
		s6.9,3,8.9,4.5c9.4,6.9,10.3,7.1,34.6,7.1c21.5,0,22.9-0.1,28.5-2.8c3.4-1.6,10.9-7.7,18.1-14.6c10.2-9.8,13-13.2,16-19.9
		c2-4.4,4.8-10.1,6.2-12.7c5.6-10.3,8.8-16.5,10.9-21.4c3.7-8.5,14.2-17.2,29.8-25c15.6-7.7,16.9-7.8,26.8-1.9
		c4.3,2.6,8.3,3.8,15,4.7c5.4,0.7,11.1,2.2,13.9,3.8c15.3,8.3,13.4,7.9,31.6,7.9c15.9,0,17.2-0.2,22.7-3c16.5-8.5,11.7-7.8,47.4-7.6
		c17.8,0.1,34.1,0.5,36.3,0.9c5.3,0.9,10.4,6.1,12.7,13.1c1.1,3.2,3.5,7.7,5.3,10.2c5.2,7,6.2,9.4,7.4,17.5c0.6,4.2,2,8.6,3.1,9.8
		c2.7,2.9,7.4,2.6,12.4-0.7c6.1-4.1,12.6-5.5,18-4.1c6.4,1.7,9.9,5.3,13.3,13.6c1.6,4,4,8.7,5.2,10.5c2.1,2.9,11.8,22,21.8,42.7
		c3.5,7.3,6.9,11,33.2,36.7c28.7,28,34.2,32.4,44.2,35.2c1.6,0.5,6.7,3,11.3,5.7c8.3,4.8,8.3,4.8,34.6,5.4
		c34.7,0.8,34.2,0.5,43,20.3c2.5,5.6,5.8,9.6,17,20.4c7.7,7.4,16.1,14.4,18.7,15.7c4.1,1.9,7.5,2.3,24.4,2.4
		c19.7,0.1,19.7,0.1,34.9,7.7c14,6.9,16.3,8.6,28.9,20.5c7.5,7.1,14.3,14.4,15.1,16.1c0.7,1.7,1.7,9.5,2,17.1
		c0.7,14,0.7,14,5.9,22.4c4.5,7.3,5.3,9.7,6.2,17.6c0.5,5.1,1.9,11.2,3.1,13.6c2.2,4.6,44.1,47,52.2,52.8c6.3,4.5,11,4.3,20.2-0.7
		c4.1-2.2,9.5-4.8,12.1-5.7c2.6-0.9,7.9-3.5,11.7-5.8c3.9-2.3,9-4.8,11.3-5.5c2.4-0.7,7.3-3.1,10.9-5.2c3.6-2.1,9.7-5,13.5-6.4
		c9.3-3.4,14.9-9,19-19.3c4.3-10.7,15.6-21.8,26.5-26c11.4-4.4,15.4-7.4,35.7-26.6c38.5-36.5,105.3-102.9,111-110.6
		c3.7-4.9,3.9-11.9,0.4-16.8c-1.4-1.9-4.8-8.2-7.6-14c-5.8-11.9-8.2-14.2-19.6-18.4c-7.5-2.8-9.4-4.4-28.4-23
		c-18.6-18.3-20.6-20.7-23.2-27.5c-3.8-10.1-9.1-15.2-19.6-19.1c-8-2.9-9.5-4.2-28.8-23.1c-17.9-17.6-20.7-20.8-22.9-26.7
		c-1.4-3.7-4-8.9-5.7-11.6c-1.8-2.7-4.5-8.1-6-11.9s-4-8.8-5.5-11c-1.5-2.3-6.3-11.4-10.7-20.4c-4.4-8.9-9.4-18.9-11.1-22.1
		c-18.4-34.1-19.7-37-20.6-46.1c-0.8-7.7-1.7-10.2-6.2-17.4c-5.2-8.4-5.2-8.4-5.9-23.1c-0.7-14.5-0.7-14.9-5.1-21.7
		c-2.4-3.8-4.7-8.5-5.1-10.3c-0.4-1.8-0.8-19.3-0.9-38.8c-0.2-35.5-0.2-35.5-4.1-41.2c-2.1-3.1-5.2-8.6-6.8-12.1
		c-3-6.4-4.4-9.1-9.7-18.1c-1.8-3.1-3.1-8-3.9-14.2c-0.9-8.1-1.8-10.7-6-17.5c-4.1-6.6-5.2-9.8-6.5-18.4c-1.1-7.3-2.5-11.8-4.8-15.3
		c-5.1-7.9-5.8-10.5-6-24.6c-0.2-11.1-0.6-14-2.5-17c-8.6-13.2-8.9-14-10.1-23.7c-1-7.8-2.1-11.1-5.3-16.2
		c-2.2-3.5-5.2-9.3-6.6-12.7c-1.4-3.5-4.4-9.2-6.6-12.7c-2.2-3.5-5.2-9.5-6.6-13.3c-1.9-5-4.8-9-10.8-15.2
		c-6.2-6.4-9.1-10.4-11.8-16.9c-4.9-11.6-10.3-18.1-34.1-40.4c-14.3-13.5-21.8-21.4-24.7-26.3c-3.3-5.5-5.5-7.7-10.3-10.2
		c-4.2-2.2-18-14.9-44.5-40.7c-32.9-32.1-38.7-38.3-40.6-43.2c-1.2-3.1-4.3-9.1-6.9-13.3c-3.9-6.3-5-9.6-6.4-18.3
		c-1.8-11.9-2.8-13.7-13.2-24.5c-5.1-5.2-8.2-9.7-9.9-14.3c-1.4-3.6-4-8.8-5.7-11.5c-1.8-2.7-4.4-8-5.9-11.8
		c-1.5-3.7-4.3-9.2-6.3-12.2c-1.9-3-4.6-8.1-6-11.5c-1.3-3.3-3.8-8.2-5.5-10.8s-4.1-7.4-5.5-10.8c-1.3-3.3-4.6-9.6-7.2-13.9
		c-3.9-6.3-5-9.5-6-16.8c-1.2-9.1-1.6-10.3-7.4-20.3c-2.2-3.8-3.5-8.2-4.3-14.8c-1.7-14.8-5.3-19.2-20.3-25
		c-6.9-2.7-9.5-4.8-24.4-19.7c-19.6-19.6-22.4-21.7-35-26.8c-5.3-2.1-11.1-4.9-12.9-6.2c-1.8-1.3-6.7-3.7-10.9-5.3
		c-5.3-2.1-10.1-5.3-16.3-11c-6.9-6.3-10.8-8.8-18.2-11.7c-8.9-3.5-10.2-4.5-29.2-23.1c-17.8-17.3-20.2-20.2-23-27
		c-1.7-4.2-4.1-8.9-5.2-10.5c-1.1-1.6-5.7-10-10.1-18.7c-7.1-14-8.1-16.8-9-25.3c-0.8-8.2-1.6-10.5-5.3-15.9
		c-2.4-3.5-5.4-9.1-6.8-12.5c-5.9-14.7-10.5-17.4-31.6-18.3c-15.3-0.7-15.7-0.8-21.9-4.7c-3.5-2.2-10-5.6-14.5-7.5
		c-6.8-2.9-10.5-5.7-21.4-16.3c-18.6-17.9-21.2-24.9-13.3-36.3c1.7-2.4,5.4-9.1,8.3-14.8c2.9-5.7,6.7-12.8,8.5-15.7
		c3.3-5.2,3.3-5.2,3-27.6c-0.3-23.2-1.5-29.3-5.8-29.3C3326.9,320.7,3320.5,325.9,3313.7,332.2"/>
</g>
<g id="Layer_9">
	<path class="st0" d="M2622.4,912.3c-15.1,16.2-14.4,14.2-15.1,44.8c-0.4,16.9-1.1,27-2,28.5c-0.8,1.3-26.7,27-57.5,57.1
		c-43.6,42.5-57.1,55-60.6,56.1c-8.4,2.6-14,6.1-21.7,13.3c-4.3,4-9.1,7.9-10.7,8.8c-2.1,1.1-9.5,1.8-24.5,2.2
		c-18.1,0.5-22,0.9-24.4,2.7c-11,7.8-13.5,9-19.7,9c-5.2,0-7.3-0.7-13.3-4.6c-9-5.9-12.1-5.9-20.8-0.1c-11.8,7.8-25,7.8-38.3,0
		c-4.3-2.5-9.2-4.5-11.1-4.5c-5.6,0-11,4.1-29.6,22.6c-9.8,9.8-19.7,18.7-21.9,19.7c-5.1,2.5-20.8,2.6-26.5,0.3
		c-2.2-0.9-6.6-3.3-9.8-5.2c-4.6-2.8-7.6-3.7-14.9-4.4c-11.3-1-13.8-2.2-23.1-11.3c-9.9-9.7-15.9-12.4-27-12.4
		c-12.8,0-16,1.7-20.3,11c-3.2,6.8-4.2,7.9-9.3,10.2c-5.5,2.5-7,2.6-42.7,2.6c-37,0-37,0-45.9,5.2s-8.9,5.2-30.5,5.8
		c-21.6,0.6-21.6,0.6-26.7,4.1c-9.1,6.2-11.8,7.2-21.5,8.1c-8.5,0.7-10.3,1.3-17,5.7c-7.5,4.9-7.5,4.9-21.8,5.5
		c-7.9,0.3-15.5,1.2-16.9,2s-3.8,3.9-5.2,6.9c-3.2,6.6-6.6,10.5-10.7,12.3c-2,0.9-18.4,1.5-47.8,1.9c-44.8,0.6-44.8,0.6-49.9,4.1
		c-11.7,8-12,8.1-33.6,8.1c-19.8,0-19.8,0-26.2,4c-12.2,7.5-12,7.4-30.5,7.2c-22-0.2-23.9,0.5-28.8,10.5c-5.5,11.2-7,11.8-33.1,12.6
		c-21.6,0.6-21.6,0.6-26.5,4.1c-7.9,5.5-12.4,7.5-17,7.5c-7.8,0-16.9,2.3-20.9,5.3c-2.2,1.6-7.8,4.4-12.4,6.3
		c-4.7,1.8-10.4,4.7-12.8,6.3c-2.4,1.6-8.4,4.5-13.2,6.4c-7.1,2.8-10.6,5.1-17.3,11.6c-4.6,4.5-9.8,8.6-11.4,9.2
		c-1.7,0.6-7.2,1.5-12.3,1.9c-8.1,0.7-10.2,1.4-16.4,5.5c-6.4,4.1-8.3,4.8-17.4,5.7c-8.9,0.9-11.4,1.7-18.1,5.6
		c-4.3,2.5-11,5.7-15,7.1c-6.9,2.4-10.4,5.7-104.1,96.7c-53.3,51.8-98.2,96.3-99.7,98.9s-3.4,6.7-4.2,9.3c-0.8,2.6-3.2,7-5.3,9.9
		c-5.5,7.6-6.6,11.7-6.6,25.1c0,6.6-0.6,13.4-1.2,15.1c-0.7,1.7-7.6,9.5-15.3,17.2c-14.2,14.1-16.4,17.1-19.2,25.6
		c-0.8,2.6-3.1,6.9-5.1,9.7c-1.9,2.8-4.8,8.1-6.3,11.8c-1.5,3.7-4.7,9.9-7.1,13.8c-4,6.2-4.5,8-4.9,16.6
		c-0.6,10.9,0.6,14.2,6.2,17.6c17.1,10.3,19.9,11.4,30.6,13c8.5,1.2,12.2,2.4,17.5,5.6c3.7,2.2,9.5,5.1,12.8,6.4s8.8,4,12.2,6
		c4.7,2.8,8.7,4.1,17,5.3c9.1,1.3,12,2.3,18.2,6.2c6.3,4,8.7,4.8,17.1,5.7c8.6,0.9,11.7,2,25.6,8.8c8.7,4.3,18,9,20.6,10.5
		c3.1,1.8,8.2,3.1,14.7,3.8c8,0.9,11.2,1.9,16.7,5.2c3.7,2.2,9.5,5.1,12.8,6.3c3.3,1.2,8.4,3.8,11.3,5.8c6.1,4.1,12.6,6.1,20,6.1
		c4.1,0,8.9,1.8,22.1,8.2c9.3,4.5,19,9.5,21.7,11c3.3,1.9,7.9,3.1,14.7,3.9c8,0.9,11.1,1.8,16.7,5.2c3.8,2.3,9.7,5.2,13.2,6.5
		s8.6,3.9,11.3,5.8c5.8,3.9,12.4,5.9,19.7,5.9c4.1,0,8.9,1.8,22.1,8.2c9.2,4.5,19,9.4,21.6,10.9c3.1,1.8,8.2,3.1,14.7,3.9
		c8.2,0.9,11.2,1.9,17,5.4c5.7,3.4,9.2,4.6,18,5.9c8.6,1.3,12.3,2.4,17.6,5.6c3.7,2.2,9.7,5.2,13.2,6.5c3.6,1.4,9,4,12.1,6
		c4.2,2.6,8.3,3.9,16.3,5c11,1.6,12.8,2.2,20,7c2.3,1.5,7.1,3.8,10.6,5.1c3.5,1.3,9,3.9,12.1,5.8c3.2,1.9,8.5,4.5,11.9,5.8
		c3.3,1.3,8.7,3.9,11.9,5.9c3.2,2,8.6,4.6,12.1,5.9s8.6,3.7,11.4,5.4c2.8,1.7,8.1,4.3,11.8,5.7c3.7,1.4,9.1,4.1,11.9,6
		c6.4,4.3,8,4.8,19.3,6c6.8,0.7,10.6,1.9,15.9,4.9c3.8,2.1,10.2,5.3,14.1,6.9c3.9,1.7,9.8,4.7,13,6.7s6.4,3.7,7,3.7
		c1.3,0,35.1,16.4,42.2,20.5c3.6,2,7.9,3.2,14.6,3.8c7.9,0.8,10.8,1.7,16.5,5.1c3.8,2.3,9.5,5.2,12.8,6.4c3.3,1.3,9.1,4.2,12.9,6.4
		c3.9,2.3,9,4.7,11.3,5.5c2.4,0.7,7.4,3.1,11.2,5.3c5.3,3.1,9.3,4.4,17.7,5.6c8.9,1.3,12.3,2.4,18.8,6.3c4.4,2.6,8.4,4.7,8.9,4.7
		c1.2,0,35.6,16.7,41.9,20.4c3.3,1.9,7.9,3.1,14.7,3.9c8.1,0.9,11.1,1.8,16.8,5.3c3.9,2.3,9.2,5,11.8,5.9s8.4,3.8,12.7,6.3
		c4.4,2.6,9.9,5.3,12.3,6c2.4,0.7,7.8,3.5,12,6.1c7.7,4.8,7.7,4.8,29.2,5.4c21.5,0.6,21.5,0.6,29.9,5.5c4.6,2.7,10.5,5.7,13.1,6.6
		c4.2,1.5,25.6,11.9,39.3,19c8,4.2,34.6,16.5,35.6,16.5c0.5,0,3.2,1.5,5.9,3.3s7.8,4.7,11.2,6.4c10.8,5.3,13.8,4.2,17-6.1
		c1.3-4.2,4.3-10.3,6.6-13.4c2.3-3.1,4.7-7.6,5.4-9.9c0.7-2.3,1.2-14.4,1.2-26.8c0-24.8-0.6-22.1,8.3-37.3c2.7-4.7,2.9-6.2,3.1-23.6
		c0.2-19.7,0.7-21.9,6.6-30.9c2.7-4.1,3.8-7.6,4.8-15.1c1-7.7,2.2-11.4,5.6-17.3c2.4-4.2,5.5-10.3,7-13.7c1.4-3.4,4.1-8.2,5.8-10.7
		c6.3-8.9,6.4-9.7,6.5-60.4c0.1-57,0.4-55-12.4-67.9c-6.6-6.6-9.5-10.5-11.4-15.5c-1.4-3.6-3.6-8.4-5-10.7
		c-1.4-2.2-6.2-11.1-10.7-19.7c-7.4-14.1-8.3-16.6-9.2-25.3c-0.9-8.4-1.6-10.5-5.4-15.9c-2.4-3.4-5.4-8.7-6.6-11.8
		c-1.2-3.1-4.1-8.7-6.5-12.5s-4.3-8.2-4.3-9.9c0-1.6,0-40.6,0-86.6c0-83.6,0-83.6,8-99.1c6.3-12.2,9.3-16.8,14.6-21.9
		c10.1-9.7,11.3-10,37.4-9.7c23.8,0.2,30-0.6,36.1-5c2-1.4,10.9-6.1,19.9-10.5c16.3-7.9,16.3-7.9,41.7-8c25.4-0.2,25.4-0.2,30.7-3.3
		c3-1.7,8.9-4.8,13.1-6.7c4.3-2,9.6-4.6,11.9-5.9c2.3-1.3,7.1-3.6,10.7-5.2c7.9-3.5,12.9-6,20.9-10.5c5.9-3.3,6.1-3.4,29.1-3.8
		c37.2-0.6,41.2,0.6,46.7,13.8c1.7,4.1,5.1,10.3,7.4,13.7c2.4,3.4,4.6,7.8,5,9.9c0.4,2,0.8,17.1,0.9,33.5c0.2,29.8,0.2,29.8,4.5,36
		c2.4,3.4,4.8,7,5.4,8s1.3,10.9,1.7,22.1c0.6,20.4,0.6,20.4,5.8,28.8c4.5,7.2,5.3,9.7,6.2,17.5c0.5,5,1.7,10.9,2.7,13.1
		c2,4.7,19.2,22.6,34.5,36c9.6,8.4,10.8,9.1,15.6,9.1c3.8,0,6.4-0.9,9.9-3.4c2.6-1.9,7.7-4.5,11.2-5.9c3.6-1.4,9.7-4.2,13.7-6.3
		s9.8-4.8,12.9-5.9c3.4-1.2,9.2-5.1,14.3-9.6c6-5.2,11.9-9,19.3-12.4c7.8-3.6,13.1-7,19.3-12.7c5.9-5.4,10.8-8.6,15.7-10.5
		c3.9-1.5,9.4-4.2,12.3-6.1c6.8-4.5,8.4-5,18.7-6.2c4.9-0.6,10.7-2,13.1-3.4c2.4-1.3,7.3-3.7,10.9-5.3c3.6-1.6,9-4.2,11.9-5.7
		s10.8-5.4,17.4-8.6c13.1-6.4,15.8-9.1,20.6-21c2-4.9,5.5-9.3,14.5-18.4c6.6-6.6,12.5-13.3,13.1-15c1.8-4.5-0.5-9.5-7.3-16
		c-4-3.8-6.8-7.8-8.4-12.1c-1.3-3.5-4.5-9.8-7.1-14c-2.5-4.2-5.6-9.9-6.7-12.8c-1.1-2.9-3.4-7.3-5.1-9.9c-1.6-2.6-4.2-7.8-5.8-11.6
		c-1.5-3.8-4-8.8-5.5-11c-1.5-2.3-6.1-10.7-10.1-18.7c-7.4-14.6-7.4-14.6-7.7-34.3c-0.3-17.3-0.6-20.1-2.7-23.3
		c-10.1-15.5-9.5-13.7-9.9-29.8c-0.4-14.1-0.2-15.2,2.7-21c2.1-4.1,7-9.8,14.8-17.2c9.9-9.4,13.5-11.9,23.5-16.7
		c12.7-6,16.1-9.4,18.5-18.1c0.8-2.9,1.1-18.4,0.9-42c-0.4-37.5-0.4-37.5-4.7-44.4c-2.4-3.8-6.2-10.8-8.5-15.6
		c-5-10.6-8.9-14.3-18.2-17.4c-3.9-1.3-10.2-4.2-13.9-6.4c-3.7-2.2-9.1-4.9-11.9-5.8c-2.8-1-8.6-3.8-12.9-6.2
		c-4.3-2.5-9.9-5.1-12.5-5.9c-3.7-1.1-9.4-5.9-25.3-21.2c-19.7-19-20.7-20.1-24.3-28.9c-5.4-13.1-12.7-18.3-25.5-18.4
		c-9,0-13.8-2.2-21.5-9.7c-10.3-10.1-11.4-12.6-12.4-28.7c-0.5-8.9-1.4-14.3-2.5-15.5c-0.9-1.1-4.6-3.4-8.3-5.3
		c-3.6-1.8-10.3-6.7-14.7-10.8c-6.1-5.7-10-8.2-16.1-10.5c-4.4-1.7-11.1-4.9-14.9-7.1c-5.5-3.4-8.5-4.3-16-5.1
		c-12.5-1.3-15-2.4-23.1-10.7c-5.6-5.7-8.9-10.8-16.2-25.2c-9.3-18.2-12.7-23.3-15.4-23.3C2633.2,901.3,2628,906.2,2622.4,912.3"/>
</g>
<g id="Layer_8">
	<path class="st0" d="M4176,1013.4c-6.5,4.8-15.1,6.8-24.7,5.8c-8.5-0.9-15.7,0.8-22.7,5.5c-2.8,1.9-8.2,4.5-12,5.7
		c-10.2,3.4-14.1,6.5-39,31.5c-21.1,21.1-23.5,23.2-30.4,25.8c-4.1,1.6-9.9,4.4-13,6.3c-3,1.9-8.5,4.5-12,5.8
		c-3.6,1.3-9.3,4.3-12.8,6.6c-5.3,3.6-7.7,4.4-16.1,5.3c-12.3,1.3-13.6,1.7-18.8,5.5c-2.3,1.7-8.2,4.4-13.1,6
		c-7.8,2.5-9.2,3.5-11.3,7.2c-2.4,4.3-2.4,4.3,1.5,13.4c2.1,5,6,12.5,8.6,16.7c4,6.4,4.9,9.2,5.9,17.3c1,8.2,1.9,10.8,6.2,17.8
		c5.1,8.2,5.1,8.2,5.7,22.8c0.6,14.6,0.6,14.6,5.8,23c4.6,7.4,5.4,9.6,6.1,17.6c0.7,8,1.5,10.2,5.9,17.3c4.3,7,5.2,9.6,6.2,17.7
		c0.8,6.8,2,11.1,4.2,14.8c1.7,2.9,4,7.1,5,9.3c1.8,3.8,4.7,9.3,11.8,22.4c3,5.6,3,5.6,3.1,41.8c0.1,36.3,0.1,36.3,5.5,44.9
		c5.4,8.7,5.4,8.7,6,23.2c0.6,14.6,0.6,14.6,5.8,23c4.5,7.3,5.3,9.7,6.2,17.6c0.9,8.7,2.6,13.5,7.1,19.8c1.1,1.6,3,5.5,4.2,8.7
		s3.5,7.9,5.1,10.4s5,9,7.5,14.3c2.5,5.4,5.6,11.1,6.8,12.8c1.2,1.7,3.2,5.7,4.4,8.9c1.2,3.2,3.9,8.4,5.9,11.6s4.5,7.6,5.4,9.9
		c0.9,2.2,4.4,9.3,7.7,15.8c3.3,6.4,7,13.8,8.1,16.3c2.7,6.1,13,17.2,19.2,20.7c2.7,1.5,8.1,3.9,11.8,5.3c5.7,2.1,9.1,4.7,20.3,15.5
		c11.8,11.4,13.8,14,16.7,21c4,9.7,8.3,16,15.4,22.4c5.9,5.3,9.4,7.3,19.2,10.9c5.3,1.9,9.2,4.9,19.8,15
		c11.1,10.6,13.7,13.9,17.2,21.1c2.2,4.7,6,11.4,8.3,14.8c3.5,5,4.3,7.3,4.3,11.8c0,8.1-1.3,10.5-10.2,18.7
		c-8,7.4-11.8,13.3-10.6,16.4c0.8,2.1,5.7,4.3,9.8,4.3c5.8,0,12.5,2.5,19.3,7.1c6,4.1,7.7,4.7,17.1,5.6c8.7,0.9,11.6,1.7,17.3,5.1
		c3.8,2.2,10,5.4,14,7.1c3.9,1.7,9.6,4.5,12.5,6.3c3,1.8,8,4.2,11.3,5.4c4.6,1.6,9.2,5.2,19.9,15.3c12.4,11.7,15.2,13.7,25.2,18.2
		c9.4,4.3,12.7,6.5,20.6,14.3c14.5,14.1,20.1,18.4,28.2,21.3c6.3,2.3,9.6,4.8,21.6,15.9c12.6,11.8,15.4,13.8,25.4,18.3
		c9.8,4.4,12.5,6.3,20.4,14.5c11.7,12,19.2,17.6,28.7,21.3c6.9,2.7,9.7,5.1,31.6,26.7c23.8,23.6,24,23.7,35.9,29.2
		c11.8,5.4,12.2,5.8,38.1,30.7c25.2,24.2,26.6,25.3,35.1,28.6c8.8,3.4,8.9,3.4,57.2,50.6c48.4,47.2,48.4,47.2,60.3,52.7
		s11.9,5.5,61.4,53.4c48.7,47.2,52.6,50.5,63.7,54c3.6,1.1,10.2,6.9,29.2,25.6c24.4,24,24.6,24.1,36.4,29.6
		c11.8,5.4,12.3,5.8,37.5,30.2c24.8,23.8,29.6,27.6,39.9,30.8c3.4,1.1,8.9,5.4,18.8,14.8c12.6,11.9,15.2,13.8,25.5,18.4
		c9.5,4.3,12.8,6.5,19.3,13.2c13.1,13.3,21.1,19.4,29.1,22.2c6.6,2.4,9.3,4.5,25.2,20c21.3,20.8,23,22,34.6,26.8
		c8.9,3.6,9.9,4.5,46.3,39.8c37.2,36.1,37.2,36.1,46.7,39.9c9.5,3.8,9.7,4,39.9,33.8c30.4,30,30.4,30,42.3,35.4
		c11.9,5.5,11.9,5.5,43.5,35.9c30.9,29.8,31.8,30.5,40.5,33.8c8.8,3.3,9.1,3.6,46.5,40.1c38,37.2,40.1,38.8,54.2,44
		c5.8,2.1,9.9,5.7,36.7,31.8c30.6,29.9,35.1,33.5,45.6,37.2c5.1,1.8,9.6,5.7,30.4,26.2c24.4,24.1,24.4,24.1,37,29.9
		c11.2,5.2,13.9,7.1,24.3,17c14.6,14,17.3,15.9,26.8,19.7c6.3,2.5,9.9,5.2,21.1,15.8c12.1,11.5,14.7,13.4,24.8,18
		c8.2,3.7,13.1,6.8,17.6,11.2c17.7,17.1,23.6,21.8,31,24.4c6.4,2.3,9.4,4.5,21.4,15.8c12.2,11.5,15.3,13.7,24.4,17.9
		c8.9,4,12.2,6.4,22.4,16c14.7,13.9,18.2,16.5,28,20.3c6.5,2.5,9.9,5.1,20.9,15.8c12,11.5,14.4,13.2,24.8,17.9
		c9.6,4.4,12.8,6.5,19,12.9c12.3,12.7,21.6,19.8,29.8,22.7c6.4,2.3,9.5,4.6,21.6,15.9c12.5,11.7,15.4,13.8,25.3,18.3
		c9.2,4.1,12.6,6.5,19.3,13.2c13.4,13.4,21.3,19.4,29.3,22.3c6.2,2.3,9.6,4.8,21.5,15.9c12.5,11.7,15.3,13.7,25.3,18.3
		c10,4.5,12.7,6.5,24.3,17.6c11.9,11.4,14.2,13,27.1,19.2c7.7,3.7,15.2,6.8,16.6,6.8c3.9,0,5.3-2.6,7.1-12.4
		c1.2-6.5,2.7-10.5,5.7-14.8c2.2-3.3,4.6-6.7,5.1-7.7c0.6-1,1.3-8,1.7-15.7c0.5-11.4,1.1-14.9,3.3-18.9c1.5-2.7,3.7-6.9,5-9.3
		c1.3-2.4,2.8-8.4,3.5-13.4c0.9-7.4,2-10.5,6-16.8c2.7-4.3,5.7-10.1,6.7-13s3.1-7.1,4.7-9.3c1.5-2.2,5-8.6,7.7-14.1
		c3.7-7.6,6.3-11.1,10.5-14.5c10-8,21.6-22.1,24.5-29.9c2.2-6,4.6-9.1,15.3-19.9c15.2-15.4,16.5-17.2,21.3-29
		c6-15,5.3-17.4-8.8-30.7c-11.4-10.8-13.6-13.7-17.9-23.9c-3.2-7.6-5.2-9.9-29.2-33.7c-24.8-24.5-26-25.9-29.1-33.9
		c-4-10.3-12.3-19.9-37.8-43.5c-18-16.6-18.4-17.1-22.4-26.7c-4-9.6-4.4-10.1-29.9-35.3c-20.1-19.8-26.2-26.6-27.4-30.2
		c-3.9-12-7.2-16-33.2-41.2c-25.2-24.4-25.9-25.2-29.2-33.7c-3.3-8.4-4.2-9.4-28.8-33.7c-25.4-25-25.4-25-29.8-35.4
		c-4.4-10.5-4.4-10.5-30.3-35.4c-25.5-24.5-26-25.1-29.8-34.3c-3.8-9-4.6-10-29.8-34.8c-22.7-22.5-26.1-26.3-27.9-31.5
		c-3.5-10.4-8.7-16.8-33.9-41.1c-24-23.2-24.7-24-28.1-32.5c-3.3-8.5-4.1-9.4-28.7-33.4c-17.9-17.5-25.9-26.2-27.4-29.6
		c-7.2-16.7-7.4-17-33.9-42.6c-25.1-24.4-25.8-25.2-29.2-33.7c-3.3-8.4-4.2-9.4-28.6-33.4c-13.8-13.6-25.8-26.1-26.6-27.9
		c-8.5-19.5-7.5-18.1-34.7-44.4c-25.1-24.3-25.9-25.2-28.7-32.8c-2.4-6.8-4.4-9.6-14.9-20.6c-6.7-7-18.3-18.4-26-25.5
		c-13-12-14.1-13.3-17.7-22c-5-12.1-10.8-18.8-42.1-48.3c-24.1-22.7-26-24.8-28.9-31.9c-1.7-4.2-4.2-9.1-5.6-11.1
		c-1.4-1.9-24.1-24.7-50.6-50.6c-46.1-45.1-48.2-47.4-51.6-55.1c-1.9-4.4-5.8-11.1-8.6-14.9c-2.8-3.8-23.1-24.2-45.1-45.3
		c-40-38.5-40-38.5-43.4-47.2s-3.4-8.7-52.4-56.6c-35.2-34.4-49.7-49.3-51.3-52.8c-1.3-2.7-3.6-7.8-5.2-11.3
		c-2.5-5.5-11.3-14.5-64.1-65.9c-61.2-59.5-61.2-59.5-65-68.5s-3.8-9-64.7-68.5c-33.5-32.7-61.6-60.9-62.3-62.7
		c-8.8-20.2-4.5-15.3-63.9-72.9c-55.1-53.5-55.1-53.5-58.5-62.1c-3.4-8.7-3.4-8.7-65.3-69.1c-61.5-60.1-61.9-60.5-65.4-69
		c-2-4.7-5.4-10.9-7.6-13.9c-3.6-4.8-85.5-84.8-110-107.5c-8.1-7.5-10.3-10.3-12.9-16.7c-1.7-4.2-5.3-10.5-8-13.8
		c-5-6.3-30.1-30.4-37.1-35.7c-6-4.4-11.3-4.2-18.9,0.8c-3.4,2.3-8.1,4.7-10.4,5.5c-2.3,0.7-7.7,3.4-11.9,5.9
		c-4.3,2.5-11,5.7-14.9,7.1c-5.4,1.9-9.2,4.5-15.5,10.5c-6.8,6.4-10.3,8.7-18.7,12.1c-9.6,3.9-11.4,5.2-24.4,17.8
		c-11.9,11.5-15.1,13.9-20.6,15.7c-3.6,1.2-9.3,3.9-12.7,6.1c-3.4,2.2-9,5-12.5,6.3s-9.2,4.2-12.7,6.5c-8.9,6-15.3,6.4-24.1,1.7
		c-3.6-2-10.9-5.6-16.3-8.1c-6.7-3.1-12.5-7.1-18.6-12.6c-6.6-6-10.8-8.7-16.5-10.8c-7.2-2.6-9.3-4.4-41.6-36.1
		c-18.7-18.3-36.8-35.4-40.3-38.1C4189.2,1007.8,4183.7,1007.6,4176,1013.4"/>
</g>
<g id="Layer_7">
	<path class="st0" d="M2563.6,1472.7c-1.4,0.6-5.3,2.8-8.6,5.1c-3.3,2.2-8,4.6-10.5,5.4s-8,3.4-12.2,5.8c-4.3,2.4-9.9,5.1-12.5,5.8
		c-2.6,0.8-7.7,3.4-11.3,5.9c-3.6,2.4-8,4.8-9.8,5.2c-1.8,0.4-14.7,0.8-28.8,0.9c-25.5,0.2-25.5,0.2-31.9,4.4
		c-3.5,2.3-9.3,5.3-12.9,6.7c-3.6,1.3-9.3,4.2-12.6,6.5c-8,5.4-13.4,6.2-36.5,5.5c-23.8-0.7-26.6,0.1-30.8,8.6
		c-1.5,3.1-4.5,8.2-6.7,11.2c-2.2,3.1-4.2,7.3-4.6,9.3c-0.4,2-0.5,39.5-0.3,83.3c0.4,79.6,0.4,79.6,4.6,85.9
		c2.3,3.5,5.2,8.6,6.3,11.5s4.3,8.8,6.9,13.1c4.1,6.7,5,9.3,5.8,17.2c0.8,7.6,1.8,10.7,5,16c2.2,3.7,5,9.2,6.2,12.4
		c1.2,3.2,3.9,8.3,5.9,11.5s5.3,9.5,7.2,13.9c2.6,6,5.7,10.4,11.6,16.6c4.5,4.6,9,10.3,10,12.6c1.5,3.6,1.8,12.7,1.8,59.5
		c0,36.3-0.4,56.4-1.2,58.4c-0.7,1.7-2.9,5.3-4.9,8s-4.6,7.5-5.9,10.8c-1.3,3.3-4.2,9.1-6.6,12.9c-2.9,4.6-4.3,8.3-4.3,11.2
		c0,9-2.3,16.2-7.4,23.3c-5.1,7-5.1,7-5.7,28.1c-0.3,11.6-1.1,21.9-1.7,22.9c-0.6,1-3,4.6-5.4,8c-4.3,6.2-4.3,6.2-4.4,30.8
		c-0.1,13.5-0.5,26.1-1,27.9c-0.5,1.9-3,6.4-5.7,10.1c-6.5,9-7.2,14.9-2.8,23.6c3.6,7.2,7.4,10.3,16.4,13.3c3.5,1.2,9,3.7,12.3,5.7
		s8.8,4.7,12.3,6s8.7,4,11.5,5.9c5.5,3.7,12.7,5.7,20.2,5.8c3.4,0,9.3,2.3,21.5,8.2c9.2,4.5,18.9,9.4,21.5,10.9
		c3.2,1.8,8.1,3.1,14.6,3.9c7.8,0.9,11.3,2,16.7,5.1c3.8,2.2,9.2,4.9,12.2,6c2.9,1.1,8.3,3.9,12,6.1c3.6,2.2,9.5,5.1,13.1,6.4
		c3.6,1.3,9,3.9,12.1,5.9c4.2,2.6,8.3,3.9,16.6,5.1c8.7,1.3,12.4,2.4,17.7,5.7c3.7,2.2,9.7,5.2,13.2,6.5c3.6,1.4,9,4,12.1,6
		c4.2,2.6,8.3,3.9,16.4,5.1c8.5,1.2,12.2,2.4,17.7,5.7c3.8,2.3,10.2,5.4,14.3,7s9.1,4,11,5.3c2,1.4,6.8,3.7,10.6,5.2
		c3.9,1.5,9.4,4.3,12.4,6.3c5.7,3.8,12.8,5.9,20.4,5.9c3.3,0,9.4,2.3,21.5,8.3c9.2,4.5,19,9.4,21.6,10.9c3.1,1.8,8.1,3.1,14.5,3.8
		c7.6,0.9,11.3,2,16.7,5c3.8,2.1,9.9,5.1,13.4,6.5c3.6,1.4,9.7,4.7,13.7,7.2s10,5.5,13.3,6.6c5.7,1.9,6.3,2,9.2,0.1
		c3.7-2.4,10.2-11.4,12.3-17c0.8-2.3,1.5-8.8,1.6-14.6c0.1-12.6,1.1-16.4,6.9-25.5c4.3-6.8,4.5-7.4,5.3-21.6
		c0.8-14.5,0.9-14.7,6.3-24.7c5.4-9.9,5.5-10.4,5.5-20.8c0-13,1.3-17.8,6.9-26.1c4.3-6.2,4.3-6.6,5.1-21.1
		c0.6-10.9,1.3-15.8,2.9-18.7c1.2-2.2,5.2-9.7,8.9-16.7s7.9-14.9,9.3-17.4c1.4-2.6,6.6-12.7,11.5-22.6c5-9.9,10.1-19.8,11.3-22.1
		c1.3-2.2,3.9-7.2,5.8-11s5-9.8,6.8-13.2c3-5.6,3.4-7.7,3.9-20c0.3-7.5,0.1-20.3-0.4-28.3c-0.8-14.3-0.9-14.6-5.7-22.3
		c-4.1-6.7-5-9.4-6.3-18.6c-1.2-9.4-2-11.6-5.9-17.1c-2.4-3.4-5.5-8.9-6.7-12.1c-1.3-3.2-3.9-8.4-5.9-11.5s-4.4-8-5.4-10.8
		s-4-8.6-6.7-12.9c-3.8-6.2-5.1-9.5-5.9-16.2c-1.4-10.7-1.8-11.8-6.5-19.6c-2.1-3.5-4.9-9-6.1-12.2c-3-8-8.9-13.3-19.3-17.3
		c-7.8-3-10.1-4.7-22.6-16.9c-9.5-9.2-15.7-14.3-19.3-15.7c-8.8-3.6-17-7.4-21.5-9.9c-2.3-1.3-7.7-3.9-11.9-5.8s-9.6-4.5-11.9-5.8
		c-2.3-1.3-12.6-6.3-22.9-11.1c-18.7-8.8-18.7-8.8-37.5-27.4c-10.4-10.2-19.8-20.5-20.9-22.9c-2.4-5.1-2.8-17.7-0.7-23.6
		c0.8-2.2,3.2-6.6,5.4-9.8c4.7-7,6.2-15.3,3.9-22.1c-1.1-3.4-7.8-10.7-28-30.6c-14.6-14.4-27.2-27.3-27.9-28.8
		c-0.8-1.5-1.9-6.8-2.4-11.9c-0.8-7.9-1.7-10.3-6.2-17.6c-5.2-8.4-5.2-8.4-5.8-28.9c-0.6-20.4-0.6-20.4-5.4-27.9
		c-4.8-7.5-4.8-7.5-5.4-40c-0.6-35.4-0.8-36-7.9-42.6c-6.1-5.7-10.7-6.7-28.7-6.7C2573.6,1471.6,2565,1472.1,2563.6,1472.7"/>
</g>
<g id="Layer_6">
	<path class="st0" d="M2979.6,1551.6c-4,1.6-10.7,10.9-14.3,20.1c-3,7.6-4.6,9.7-17.7,22.4c-12.5,12.2-15.2,14.3-20.9,16.1
		c-3.6,1.1-9.3,3.8-12.6,5.9s-8.4,4.7-11.3,5.7c-2.9,1-8.9,4-13.4,6.6c-7.2,4.2-9.3,4.9-17.9,5.6c-9.8,0.8-12.7,1.7-19.3,6.4
		c-2,1.4-7.3,3.9-12,5.6c-6.9,2.5-9.8,4.5-16.6,11.1c-6.9,6.8-9.8,8.7-17.8,11.8c-7.8,3.1-11.3,5.3-18.6,12.1
		c-6.9,6.4-10.5,8.8-15.5,10.3c-3.6,1.1-9.7,4-13.7,6.5c-3.9,2.4-10.2,5.2-13.9,6.3c-8.3,2.3-13.8,7.9-17.5,18
		c-1.4,3.7-3.9,8.7-5.5,11c-7.4,10.6-8.4,17.2-4.1,25.8c4,8,17.4,20.4,25.7,23.7c6.1,2.4,33.4,15.6,44,21.2c2,1,12.1,5.9,22.6,10.8
		c18.9,8.9,19.1,9,31.7,21.4c9.5,9.3,14.5,13.2,19.7,15.6c12.8,5.7,14.6,7,27.6,19.4c10.7,10.2,13.5,13.6,15.8,19.2
		c1.5,3.7,4.4,9.1,6.4,12c4.8,6.9,6.6,12.2,6.7,19.3c0,5.1,1.6,8.9,11.4,27.7c6.2,12,11.9,23.8,12.7,26.3
		c2.1,6.9,7.5,12.2,16.3,16.3c9.2,4.2,36.4,17.4,44.3,21.4c2.9,1.5,12.9,6.3,22.1,10.6c13.1,6.1,18.4,9.3,24.4,14.8
		c5.3,4.8,11,8.4,18.5,11.9c7.1,3.2,12.4,6.6,15.6,9.8c6.3,6.4,12.7,10.6,21.5,14c5.8,2.3,9.9,5.4,22.3,16.9
		c13.3,12.4,16.2,14.6,23.7,17.5c6.3,2.4,10.9,5.4,17.6,11.3c5,4.4,11.5,9,14.5,10.3c19.7,8.2,39.1,18.5,43.5,23
		c6.2,6.3,12.5,10.4,22.1,14.3c5.3,2.2,10.4,5.6,16.1,10.7c6.4,5.8,10.5,8.4,17.8,11.3c7.4,2.9,11.4,5.5,18.1,11.6
		c6.1,5.5,11.4,9.1,17.8,11.9c6.2,2.7,12,6.5,17.6,11.6c6.1,5.4,10.9,8.5,17.4,11.1c5,2,11.2,5.1,13.9,6.9c2.7,1.8,7.8,4.4,11.4,5.7
		c3.5,1.3,8.8,3.8,11.8,5.6c8.1,5,9,5.2,25.2,6c13.4,0.7,15.6,1.1,19.7,3.7c5.1,3.3,41.2,20.7,42.9,20.7c0.6,0,4.2,2.1,8.1,4.6
		c3.9,2.6,9.1,5.2,11.7,5.9c3,0.8,19.4,1.1,45.6,1c40.8-0.3,40.8-0.3,46.7,3c12.3,6.9,12.6,6.9,27.3,7.6c14.8,0.7,16,1,27.7,8.2
		c2.4,1.5,7.2,2.7,13.1,3.3c10.1,1,14.3,2.3,19.6,6c1.9,1.3,6.8,3.7,10.8,5.3c4.1,1.6,9.7,4.5,12.5,6.3c2.8,1.9,7.4,4.2,10.1,5.2
		c2.8,0.9,8.3,3.5,12.3,5.7s10.1,5.1,13.6,6.4c3.5,1.3,8.7,4,11.6,5.9c2.9,1.9,7.2,4.2,9.7,5s9.8,4.2,16.3,7.5s12.6,6,13.5,6
		s8.4,6.5,16.7,14.3c15.5,14.7,17.9,16.4,29.3,20.6c4.6,1.7,9.5,5,16.1,10.9c7,6.2,11.4,9.2,16.7,11.1c5.3,1.9,9.9,5,16.9,11.1
		c7.4,6.5,11.7,9.3,18.8,12.1c8.1,3.2,10.5,4.9,20.4,14.7c12.9,12.7,18,16.4,27.9,20.2c5.9,2.3,9.7,5.2,22.1,16.8
		c11.3,10.7,16.3,14.6,20.9,16.3c3.3,1.2,10,4.2,14.9,6.7s11.6,5.5,14.7,6.7c3.2,1.2,8.1,3.8,11,5.7s7.3,4.2,9.9,5.1
		c8.9,3.1,11.8,5.3,30.4,23.3c17.6,17.1,19.1,18.8,24,28.8c5.5,11.2,9.3,16.2,14.5,18.8c4.4,2.2,6.5,0.9,17.6-10.9
		c7.2-7.6,10.6-12.5,14.4-20.5c3.5-7.2,7.3-12.8,12.3-18.1c4.8-5.1,8.7-10.7,11.5-16.7c2.7-5.8,7-12.1,12-17.7
		c5-5.6,9.5-12.1,12.3-18.1c3.5-7.3,6.2-11,12.1-16.5c4.2-3.9,10.2-8.2,13.3-9.7c6.9-3.2,7.7-4.5,9.2-15.4c1-6.8,2.2-9.9,6-15.4
		c5.4-7.8,5.8-11.1,2.2-17c-1.4-2.2-24.6-25.6-51.6-51.9c-49.1-47.8-49.1-47.8-52.5-56.3c-3.2-8-4.6-9.7-23.9-28.8
		c-23.4-23.1-23.2-22.8-23.2-41.2c0-14,0.8-17.1,7.4-27.7c5.1-8.2,5.1-8.2,5.1-34.6c0-25-0.1-26.5-2.5-29.6c-3.6-4.7-6.9-4.7-14,0
		c-11,7.3-23.7,8.3-34,2.7c-4.7-2.6-43.1-40.4-43.1-42.5c0-0.6-1.2-4.2-2.6-7.9c-2.2-5.6-5-9.2-17.8-21.9
		c-16.2-16.2-17-17.5-18.5-31c-0.4-3.8-2-8.8-3.6-11.6c-6.4-10.9-6.8-12.5-7-27c-0.1-9-0.7-15-1.8-16.8
		c-0.9-1.6-16.2-17.3-34.1-34.8c-17.9-17.6-33.1-33.1-33.9-34.6c-0.8-1.5-1.8-6.8-2.4-11.9c-0.8-7.9-1.7-10.3-6.1-17.5
		c-5.2-8.3-5.2-8.3-5.9-23c-1-20-4-24.9-18.7-30.3c-3.7-1.4-10-4.4-13.9-6.8c-7.1-4.3-7.1-4.3-26.8-4.6c-10.8-0.2-21.5-0.8-23.6-1.5
		c-2.6-0.8-12.6-9.8-29.8-26.7c-18.7-18.3-27.5-26.1-31.3-27.8c-4.6-2-7.9-2.4-23.4-2.4c-19.4,0-23.1-0.8-31.3-6.1
		c-2.8-1.9-8.2-4.6-11.9-6c-6.1-2.3-11-6.7-51.6-46.3c-40.6-39.6-45.1-44.4-47.6-50.4c-1.5-3.7-3.8-8.1-5-9.9
		c-1.3-1.8-4.1-7.5-6.4-12.8c-5.8-13.7-9.1-15.4-20.5-10.7c-8.3,3.4-10.7,3.6-16.2,1.4c-4.3-1.7-18.1-15.2-20.8-20.2
		c-0.9-1.7-2.1-7.2-2.7-12.2c-1.5-12.8-4.5-17.6-13.9-22.3c-3.4-1.7-7.4-1.9-28.1-1.6c-24.2,0.4-24.2,0.4-31.7,5.3
		c-4.1,2.7-9.2,5.2-11.4,5.6c-2.1,0.4-13.2,0.5-24.7,0.3c-20.8-0.4-20.8-0.4-27.3-4.5c-7.7-5-13-6.9-19.1-6.9
		c-2.5,0-8.6-1.3-13.6-2.9c-9.1-2.9-9.1-2.9-15.5-0.7c-8.7,3-13.6,6.6-15.7,11.6c-1,2.3-3.8,7.3-6.3,11.1c-2.5,3.8-5.5,9.8-6.7,13.2
		c-2,5.5-5.1,9.1-28.2,31.6c-14.3,14-27.7,26.3-29.8,27.4c-3.4,1.7-7.3,1.9-31.2,1.7c-29.1-0.3-31.5-0.7-39.3-6.5
		c-2.2-1.6-7.4-4.3-11.6-5.9c-4.2-1.6-9.6-4.2-12.1-5.8c-2.5-1.6-7.3-4-10.7-5.3s-9.2-4.2-12.8-6.3c-3.6-2.2-9.6-5-13.3-6.3
		c-4.9-1.8-9.1-4.6-15.5-10.5c-6.8-6.3-10.6-8.8-17.1-11.3c-7.4-2.8-10.1-4.8-22.9-16.9c-12.6-12-15-14.8-17.8-21.5
		c-1.8-4.2-4.6-9.8-6.2-12.4c-1.6-2.6-4.2-7.7-5.7-11.5c-4.7-11.7-12.4-21.8-16.5-21.6C2982.8,1550.6,2981.1,1551.1,2979.6,1551.6"
		/>
</g>
<g id="Layer_5">
	<path class="st0" d="M4215.3,1835.1c-2.3,1.3-28.8,26.5-58.9,55.8c-44.3,43.2-56,54-61.4,56.7c-5.9,2.9-7.1,4.2-10.5,10.6
		c-2.8,5.4-7.3,10.8-16.7,19.8c-11.6,11.2-13.8,12.9-22.6,16.4c-5.4,2.2-11.3,5-13.1,6.2c-1.8,1.3-6.4,3.4-10.2,4.8s-9.1,4-11.8,6
		c-2.7,1.9-8.6,4.6-13,5.8c-6.2,1.8-9,3.4-12.2,6.8c-8.5,9.2-8.7,17.6-0.9,30.3c3.9,6.3,5.2,9.8,6,16.2c0.6,4.5,1.7,9.2,2.5,10.4
		c0.8,1.3,4.6,4,8.5,6.1c7.2,3.9,7.7,4.5,13.7,16.6c1.9,3.8,5.3,10.4,7.5,14.7c2.2,4.2,5,9.8,6.1,12.3c2.7,6,16.8,19.9,22.9,22.6
		c2.6,1.2,6.9,2.1,9.6,2.1c4.8,0,7-0.9,18.7-7.8c11.1-6.6,18.8-4.7,31,7.4c10.7,10.7,10.9,11.5,11.3,43.9c0.3,33.9-0.2,37.8-7,47.1
		c-5.1,7.1-5.1,7.1-5.1,19.4c0,9.9,0.5,13.3,2.3,17c1.3,2.6,10.7,12.9,21.7,23.6c18.1,17.7,19.6,19.5,22.6,27.1
		c1.8,4.5,5.6,11.1,8.6,14.7c9.8,11.8,411.7,402.7,417.9,406.5c3.2,1.9,8.6,4.4,11.9,5.4c5.7,1.8,16.5,12,175.3,166.5
		c169.3,164.6,169.3,164.6,178.2,168.2c8.9,3.5,8.9,3.5,106.7,98.7c94,91.5,98,95.3,105.5,98.3c4.3,1.7,9.2,3.8,11,4.5
		c1.8,0.8,36.1,33.3,76.3,72.4c73,71,73,71,83.1,74.9c9.3,3.6,10.9,4.7,20.2,14.4c5.6,5.7,32.7,32.4,60.2,59.3
		c52.4,51.1,50.5,49.6,68.2,56.8c3.7,1.5,17.9,14.7,56.6,52.5c28.4,27.8,54.2,52.5,57.3,55c3.1,2.5,8.9,5.6,12.9,7
		c6.9,2.4,9.7,5,67.6,61.5c60.4,58.9,60.4,58.9,73.1,64.8c12.7,5.8,12.7,5.8,73.3,65.3c33.3,32.7,63.9,62.2,68,65.5
		c4.8,4,10.3,7.2,16,9.3c7.5,2.8,9.9,4.5,18.6,13.2c5.5,5.5,10,10.3,10,10.8c0,1.8,33.4,30.9,36.1,31.4c4.9,0.9,7.8-1,11.1-7.4
		c1.8-3.4,4.2-7.6,5.5-9.3s3.8-6.8,5.7-11.3c1.9-4.5,5-10.4,6.9-13.1c1.9-2.7,4.5-7.6,5.7-10.8s3.7-8.2,5.5-11
		c1.8-2.9,4.4-8.1,5.8-11.6s4.1-8.8,6.1-11.7c1.9-2.9,4.9-8.6,6.5-12.6c1.7-4,4.3-9.2,5.9-11.5c1.6-2.4,4.2-7.5,5.8-11.4
		c1.6-3.9,4.4-9.4,6.4-12.2c1.9-2.8,4.2-6.9,5.1-9.1c0.9-2.2,4.2-8.9,7.4-14.9c3.2-5.9,5.8-11.5,5.8-12.3s1.7-4,3.8-7.2
		c2.1-3.2,5.2-8.9,6.9-12.7c1.7-3.8,4.8-9.9,6.9-13.5s4.7-8.7,5.6-11.4c1-2.7,3.7-7.9,6.1-11.7c3.6-5.6,4.5-8.5,5.4-16.5
		s1.9-11,5.7-17.2c2.5-4.2,5.2-9.4,5.9-11.6c0.7-2.2,3.5-7.5,6.1-11.6s5.4-9.4,6.1-11.6c0.7-2.2,3.4-7.5,6-11.7
		c3.7-6.1,4.9-9.5,5.7-16.3c1.2-9.9,2.4-13.3,7-20c1.8-2.7,4.3-7.5,5.6-10.6c1.2-3.2,4-8.7,6.2-12.2s4.6-8.2,5.3-10.5
		c0.7-2.2,3.4-7.5,5.9-11.6s5.4-9.8,6.4-12.6s3.7-8,6-11.6c3.3-5.3,4.4-8.5,5.4-16.2c1.3-10,1.9-11.7,7.2-19.4
		c1.7-2.6,4.2-7.3,5.4-10.5c1.2-3.2,3.7-8.2,5.5-11c1.8-2.9,4.4-8.1,5.8-11.6s4.4-9.3,6.7-12.8c3.3-5.3,4.3-8.3,5.3-16.2
		c1-8.2,1.9-10.9,5.9-17.4c2.6-4.2,5.5-9.8,6.5-12.4c0.9-2.6,3.5-7.6,5.8-11s5-8.6,6.1-11.4c1.1-2.8,4.2-9,6.8-13.7
		c2.6-4.8,4.7-9.4,4.7-10.1c0-0.8,2.1-4.9,4.8-9.1c5.1-8.2,5.8-11.9,3.1-16.9c-2.7-5-6.9-8.2-14.4-10.7c-9.3-3.1-9.8-3.5-25.1-18.3
		c-11.8-11.4-14.1-13.1-22-16.1c-7.8-3-10.4-4.9-23.2-16.8c-14.7-13.8-17.2-15.6-28.4-19.6c-5.3-1.9-9.2-5-20.9-16.1
		c-12.9-12.4-15.3-14.1-23.1-17.1c-7.7-2.9-10.3-4.9-23-16.8c-14.1-13.2-19-16.6-28.6-19.6c-3.4-1.1-9.1-5.6-19.8-15.7
		c-13.5-12.7-16-14.5-23.8-17.5s-10.4-4.9-23.1-16.8c-14.7-13.8-17.3-15.6-28.3-19.6c-5.2-1.9-9.2-5-20.8-16.1
		c-12.9-12.4-15.2-14.1-23.1-17.1c-7.8-3-10.4-4.9-23.1-16.8c-14.7-13.8-17.2-15.5-28.3-19.6c-5-1.9-9.3-5.2-20.8-16.1
		c-13-12.3-15.4-14.1-23.2-17.1c-7.7-3-10.4-4.9-23.1-16.8c-14.7-13.8-17.3-15.6-28.3-19.6c-5.2-1.9-9.2-5-20.8-16.1
		c-12.9-12.4-15.2-14.1-23.2-17.1c-8.5-3.2-9.7-4.2-32.7-26.8c-24.4-24-31-29.1-41.6-32.4c-5.4-1.7-9.5-5.3-38.3-33
		c-32.3-31.1-34.3-32.8-45.8-37c-5.4-2-10-6-36.2-32.2c-36.9-36.8-44.8-43.5-56.1-47.7c-8.2-3.1-9.6-4.3-41.3-34.7
		c-32.2-30.9-32.9-31.5-41.7-34.8c-8.8-3.3-9.4-3.8-36.2-30.4c-30-29.7-37.5-35.9-48.7-39.9c-7.1-2.6-9.6-4.8-45.6-39.5
		c-37.3-36-41.6-39.5-52.4-42.8c-3.6-1.1-9.8-6.3-25.6-21.4c-20.2-19.3-21.2-20.1-30.7-23.8c-9.2-3.6-10.8-4.8-23.9-17.5
		c-12.7-12.3-14.9-13.9-22.9-17c-7.8-3-10.4-4.9-23.2-16.8c-14.1-13.2-19.1-16.7-28.6-19.6c-3.7-1.2-10.7-7.2-31.6-27.3
		c-26-25-27.1-25.9-35.8-29.2c-8.6-3.3-9.7-4.1-32.2-26.2c-25.8-25.3-29.9-28.6-41.5-32.9c-7.7-2.8-9.3-4.3-39-33.3
		c-66-64.6-68.1-66.5-77.9-70.2c-8.8-3.4-8.9-3.5-57.8-51.2c-50.2-49-52.5-50.9-65.7-55c-3.7-1.2-10.6-7.1-31-26.7
		c-26.5-25.5-28.5-27.1-40.4-31.4c-5.7-2.1-8.6-4.4-21.3-17.6c-8-8.3-19.8-19.7-26.2-25.3c-9.6-8.5-13.2-10.8-21.4-14
		c-9-3.5-10.8-4.8-21.1-15.2c-13.1-13.2-17.1-16.1-27.6-20.1c-6.5-2.5-9.7-4.9-21.4-16.1c-13.4-12.9-18.3-16.3-28-19.3
		c-3.4-1.1-9.1-5.6-19.8-15.7c-13.5-12.7-16-14.5-23.8-17.5s-10.4-4.9-23.7-17.3c-11-10.3-16.5-14.6-20.9-16.3
		c-5.6-2.2-12.3-5.3-22.7-10.7c-2.6-1.4-7.7-3.8-11.3-5.4c-3.6-1.6-8.5-4-10.9-5.3c-2.7-1.5-8-2.8-13.9-3.3c-10.3-1-9.9-0.9-19-6.8
		c-5.4-3.5-7.5-4.2-16.5-5c-8.5-0.8-11.1-1.5-15-4.2C4224.1,1831.8,4221.8,1831.3,4215.3,1835.1"/>
</g>
<g id="Layer_4">
	<path class="st0" d="M2964.9,2025.1c0,0.5-0.2,17.1-0.3,37c-0.3,36.1-0.3,36.1-4.6,43c-2.4,3.8-5.5,9.7-6.9,13.1
		c-1.4,3.4-4.1,8.5-6.1,11.3s-4.6,8-5.9,11.5c-1.2,3.5-3.9,8.7-6,11.6c-2,2.9-4.7,8.1-6,11.6c-1.2,3.5-3.9,8.7-6,11.6
		s-4.7,8.1-5.9,11.5s-4.1,8.9-6.4,12.2c-4.7,6.6-6.2,13.4-5.1,22c1.2,8.8-1,16.7-6.7,24.6c-5.1,7-5.1,7-5.7,22.3
		c-0.3,8.4-1.1,16.1-1.6,17c-0.6,1-3,4.5-5.4,8c-4.3,6.2-4.3,6.2-4.4,19.8c-0.2,15.9-0.5,17.2-6.9,26c-4.9,6.8-4.9,6.8-5.5,22.2
		c-0.6,15.5-0.6,15.5-5.1,21.8c-8.8,12.5-4.7,21.3,12.8,27.6c3.9,1.4,9.7,4.1,12.7,6c4.2,2.6,8.3,3.9,16.3,5
		c8.8,1.3,12.1,2.4,18.7,6.3c4.4,2.6,10,5.3,12.3,6.1c2.4,0.7,7.3,3.1,10.9,5.2c3.6,2.1,9.4,4.9,12.9,6.3c3.5,1.3,8.7,4,11.5,5.9
		c5.5,3.7,12.7,5.7,20.4,5.8c4.4,0,9.7,2.1,20.1,7.9c1.3,0.7,5.9,2.9,10.1,4.9c4.3,1.9,10,4.9,12.8,6.5c3.6,2.1,7.7,3.2,14.6,3.9
		c7.9,0.8,10.8,1.7,16.4,5c3.8,2.3,9.6,5.1,12.9,6.3c3.3,1.2,8.4,3.8,11.3,5.7c6.9,4.6,8.4,5,19.1,6.1c7.1,0.7,10.7,1.8,16.1,4.8
		c3.8,2.2,10.3,5.3,14.3,7s9,4.2,11,5.6c2,1.4,7.3,4,11.8,5.8s10.3,4.6,12.9,6.1c2.6,1.6,7.1,3.8,10.1,4.9c2.9,1.1,8.9,4.1,13.1,6.5
		c4.3,2.5,10.1,5.3,13,6.3s7.7,3.3,10.7,5.1s7.9,4.2,10.8,5.3c3,1.1,8.9,4.1,13.1,6.6c4.3,2.5,10.2,5.3,13.1,6.4
		c3,1,7.3,3.1,9.7,4.6s7.7,4.1,11.8,5.7c4.1,1.6,10,4.5,13.1,6.5c3.1,1.9,8.9,4.8,12.9,6.3s8.8,3.8,10.6,5.1s6.7,3.6,10.9,5.3
		s10.1,4.6,13.1,6.4c3,1.9,8.4,4.5,12,5.9s9,3.9,11.9,5.7c3,1.7,7.8,4.1,10.7,5.2c3,1.1,8.3,3.8,11.9,5.9c3.6,2.1,9.9,5.2,14,6.8
		s8.9,4,10.7,5.2c1.8,1.3,6.7,3.6,10.9,5.3s10.2,4.6,13.3,6.5s8.9,4.8,12.9,6.3s8.8,3.8,10.6,5.1s6.7,3.6,10.9,5.3
		s10.2,4.6,13.3,6.5s8.9,4.8,12.9,6.3s8.8,3.8,10.6,5.1s6.7,3.6,10.9,5.3s10.1,4.5,13.1,6.4s8.8,4.7,12.9,6.3c4.1,1.6,9,4,10.8,5.3
		c1.9,1.3,6.3,3.5,9.8,4.8c3.6,1.4,9.9,4.5,14.2,7s10.1,5.3,13,6.3s7.7,3.3,10.7,5.1s7.9,4.2,10.8,5.3c3,1.1,8.9,4.1,13.1,6.6
		c4.3,2.5,10.2,5.3,13.1,6.4c3,1,7.4,3.1,9.8,4.7c2.5,1.6,7.3,3.9,10.7,5.3c3.4,1.3,9.7,4.4,14,6.9s10.1,5.3,13,6.3
		s7.7,3.3,10.7,5.1s7.9,4.2,10.8,5.3c3,1.1,8.3,3.8,12,5.9c3.6,2.2,9.5,5,13.1,6.4s8.9,3.9,11.9,5.7c3,1.7,7.8,4.1,10.7,5.2
		c3,1.1,8.3,3.8,11.9,5.9c3.6,2.1,9.9,5.2,14,6.8s8.9,4,10.7,5.2c1.8,1.3,6.7,3.6,10.9,5.3s10.2,4.6,13.3,6.5s8.9,4.8,12.9,6.3
		s8.8,3.8,10.7,5.1s6.3,3.5,9.9,4.8c3.6,1.4,10,4.5,14.3,7s8.2,4.6,8.8,4.6c1.4,0,34.2,15.9,38.3,18.5c7.1,4.7,12.3,2.6,17.3-7
		c1.4-2.7,6-8.5,10.3-12.9c4.7-4.8,8.9-10.7,10.7-14.7c10.6-23.4,17.3-35.1,25.4-43.7c5.9-6.3,9-10.9,11-15.9
		c1.8-4.6,5.1-9.6,9.3-14.2c9-9.7,11.2-12.9,14.7-21.4c2.5-6.1,5.5-9.8,17-21.5c12.1-12.2,14.6-15.4,18.6-23.9s6.5-11.7,17.5-22.7
		c13.2-13.2,15-15.7,19.2-26.6c1.5-3.8,5-9.2,9-13.5c5.6-6.1,6.5-7.8,6.5-11.8c0-4.4-0.8-5.5-12.8-17.7
		c-10.7-10.9-13.3-14.2-15.6-20.3c-5.1-13.2-17.7-25.6-30.9-30.4c-3.8-1.4-9.3-4-12.4-5.9c-3-1.9-8.9-4.7-13-6.3s-9.9-4.4-13-6.3
		c-3-1.9-8.4-4.5-11.9-5.8c-5.1-1.9-9.3-5.1-20.9-16.1c-13.1-12.5-15.3-14.1-23.4-17.2c-7.9-3-10.4-4.8-23.3-16.9
		c-14-13.2-19-16.6-28.5-19.6c-2.7-0.9-8.3-4.7-13.5-9.5c-9.4-8.5-11.9-10-22.2-13.8c-4.6-1.7-9-4.7-14.7-10
		c-8.3-7.8-12.8-10.6-21.3-13.2c-3.4-1.1-8.9-5.4-19.4-15.3c-11.2-10.6-16.2-14.5-21.5-16.7c-7-2.9-10.7-4.7-21.2-10.1
		c-3.3-1.7-8.9-4.4-12.5-6.1c-3.6-1.6-9-4.2-11.9-5.8c-3-1.5-8.3-4.1-11.9-5.7c-3.6-1.6-9-4.2-11.9-5.8c-3-1.6-8.3-4.2-11.9-5.9
		c-3.6-1.6-9-4.2-11.9-5.8c-3-1.5-8.3-4.1-11.9-5.8c-3.6-1.6-8.4-4.1-10.5-5.4c-2.8-1.8-7-2.8-14.1-3.4c-9.1-0.8-10.8-1.4-18-5.9
		c-7.9-5-7.9-5-23.6-5.7c-15.7-0.6-15.7-0.6-23.8-5.8c-8.2-5.2-8.2-5.2-53.5-5.8c-48.2-0.6-46.7-0.4-55-6.6c-2.1-1.5-7.1-4-11.2-5.6
		c-4.1-1.6-9.9-4.4-13-6.3c-3.1-1.9-7.8-4.2-10.5-5.2c-2.7-0.9-8.6-3.8-13-6.4c-8-4.7-8-4.7-20.7-4.7c-13.9,0-18.3-1-25.9-6
		c-2.8-1.8-8.8-4.8-13.3-6.6s-9.7-4.4-11.4-5.7s-6.8-3.8-11.4-5.5c-6.3-2.4-10.4-5-17.7-11.5c-7-6.3-11.4-9.2-16.9-11.3
		c-5.4-2-10.1-5.1-17.1-11.2c-7.1-6.2-11.8-9.2-17.8-11.6c-6.1-2.4-10.8-5.4-17.9-11.6c-7.1-6.2-11.8-9.3-17.9-11.6
		c-6-2.3-10.7-5.4-17.3-11.1c-9.4-8.2-12.7-10.3-21-13.1c-2.7-0.9-8.4-3.7-12.7-6.2s-9.8-5.1-12.4-5.9c-2.8-0.9-8.4-4.8-14.1-9.9
		c-7.4-6.6-11.4-9.2-18-11.7c-7.6-2.9-10.2-4.8-23.5-17.3c-12.7-12-16.2-14.5-23.2-17.4c-9.4-3.8-10.3-4.4-21.7-14.1
		c-5.8-5-10.8-8-16.6-10.2c-6.4-2.4-10.1-4.8-16.4-10.8c-7.2-6.7-17.7-13.2-21.6-13.2c-0.7,0-4.4-1.9-8.3-4.2
		c-3.9-2.3-9.8-5.2-13-6.5c-3.3-1.3-9.5-4.3-13.7-6.8C2979.4,2027.3,2965,2022.5,2964.9,2025.1"/>
</g>
<g id="Layer_3">
	<path class="st0" d="M4255.4,2474.3c-1.1,1-2.1,5.2-2.6,10c-0.7,7.1-1.5,9.3-5.9,15.5c-2.8,4-5.9,10.1-7,13.6
		c-2.5,8.3-4.8,10.2-14.1,11.4c-6.8,0.9-7.9,1.5-11.1,5.4c-2,2.4-6.8,7.8-10.8,12c-5.4,5.7-8.1,9.7-10.7,16.2
		c-2.7,6.8-5.3,10.5-11.9,17.5c-6.8,7.1-9.1,10.5-11.8,17.5c-2.7,7-5,10.3-11.9,17.4c-6.9,7.1-9.1,10.3-11.9,17.4
		c-3.1,7.9-4.7,10-18.4,23.8c-13.7,13.9-15.2,15.8-17.9,23.2c-2.6,7.3-4.1,9.2-14.9,19.7c-14.9,14.4-17.5,17.8-21,27.3
		c-2.5,6.7-4.5,9.2-17.8,22.7c-13.9,14-15.3,15.8-17.8,23.1c-2.2,6.5-4.2,9.4-10.7,16.2c-8,8.3-11.5,13.6-14.3,22.1
		c-0.9,2.7-4.7,7.8-9.5,12.8c-8.1,8.4-10.8,12.4-13.8,20.6c-0.9,2.5-3.2,6.7-5.1,9.4c-1.9,2.7-4.7,8.3-6.3,12.5
		c-2.2,6-4.6,9.4-11.5,16.5c-16.3,16.7-16.4,25.2-0.5,33.5c3.7,1.9,9,4.8,11.7,6.4c3.4,2,7.5,3.1,13.1,3.5c7,0.6,10.6,1.8,24.8,8.8
		c9.2,4.4,18.9,9.3,21.5,10.9c3.3,1.9,7.9,3.1,14.7,3.9c8.1,0.9,11,1.8,16.9,5.3c5.7,3.4,9.2,4.6,17.9,5.9
		c8.9,1.3,12.2,2.4,18.8,6.3c4.4,2.6,8.5,4.7,9,4.7s9.2,4,19.2,8.8c15.7,7.6,19.1,9.7,24.6,15.5c6.5,6.8,7,7.6,12.1,18.9
		c1.8,4,6.2,10,11.3,15.3c4.8,5.1,9,10.6,9.8,13.2c2.8,8.3,6.2,13.7,14.1,21.8c6,6.2,8.7,10.1,11.2,16.4c2.5,6.3,5.4,10.5,12.1,17.8
		c4.9,5.3,9.5,11.4,10.3,13.8c2.7,8.1,6.2,13.6,13.2,20.8c4.9,5,8.4,10.1,11.7,17c3.4,7.2,6.9,12.2,12.9,18.5
		c5.2,5.5,9,10.7,10.4,14.3c1.2,3.1,3.9,8.6,6.1,12.1c2.1,3.5,5.4,10,7.2,14.4c2.4,5.9,5.3,10.1,10.8,15.8
		c5.4,5.6,8.8,10.5,12.3,17.9c3.4,7.3,6.8,12.2,11.9,17.3c5.2,5.2,8.4,10,12,17.6s6.8,12.4,12,17.6c5.1,5.1,8.4,10,11.8,17.1
		c3.4,7.2,6.9,12.2,13,18.6c4.8,5.1,9,10.6,9.8,13.2c2.7,8.1,6.2,13.6,13.2,20.7c4.9,5,8.3,9.9,11.7,17.2
		c3.5,7.4,6.8,12.2,11.9,17.4c5.2,5.2,8.4,10,12,17.6s6.8,12.4,12,17.6c5.1,5.1,8.4,10,11.8,17.1c3.3,6.9,6.9,12.2,12,17.6
		c5.1,5.3,8.7,10.6,11.9,17.4c3.2,6.8,6.8,12.1,11.9,17.4c5.1,5.4,8.7,10.6,12,17.6c3.3,7.1,6.7,12,11.8,17.1
		c4.9,4.9,8.6,10.3,11.9,17c2.6,5.4,6.3,12.5,8.1,15.7c1.8,3.2,4.3,8.4,5.6,11.6c1.4,3.5,5.5,9.1,10.7,14.5
		c6.6,6.8,9.2,10.6,11.8,17.2c2.6,6.5,5.3,10.5,12.1,17.7c5,5.3,9.3,11.1,10.2,13.6c2.8,8.3,6.2,13.7,14.1,21.8
		c6.1,6.3,8.7,10,11.3,16.7c2.6,6.6,5.2,10.4,11,16.4c5.5,5.7,8.9,10.6,12.4,18c3.6,7.7,6.8,12.3,12.8,18.5
		c6.2,6.4,8.8,10.1,11.4,16.7c2.6,6.5,5.3,10.5,12,17.6c5.6,5.9,9.4,11.1,10.7,14.8c1.2,3.1,3.9,8.5,6.1,12s5.4,10,7.2,14.4
		c2.4,5.9,5.3,10.1,10.8,15.8c5.4,5.6,8.8,10.6,12.2,17.7c3.4,7.3,6.9,12.3,12.8,18.5c5.4,5.7,8.8,10.5,10.3,14.4
		c1.2,3.2,4.2,9.2,6.9,13.3s4.7,8,4.8,8.7c0,3.8,7.1,14.9,14.1,22c5.8,6,8.8,10.2,10.7,15.2c1.5,3.8,4,8.8,5.5,11.1
		s4.5,8.2,6.7,13.2c2.9,6.8,5.8,11,11.4,16.9c5.5,5.6,8.8,10.6,12.3,17.9c3.5,7.3,6.8,12.1,11.9,17.4c4.9,5,8.4,10,11.3,16.1
		c2.3,4.9,5.5,10.9,7.1,13.3s4.4,7.9,6.1,12.1c2.3,5.6,5.5,10.2,11.9,17.2c4.9,5.3,9.4,11.4,10.2,13.8c2.7,8.2,6.2,13.6,14.1,21.7
		c5.2,5.4,8.7,10.1,10.1,13.9c1.2,3.2,4.2,9.2,6.7,13.3c2.5,4.2,4.9,8.9,5.4,10.5c1.9,6.3,5.8,12.1,13.6,20.4
		c5.6,5.8,8.8,10.4,10.1,14.1c1,3.1,4,9,6.7,13.1c2.6,4.2,4.8,8.1,4.8,8.7c0,3.8,7.1,14.9,14,22c6.2,6.4,8.8,10.1,11.4,16.7
		c2.6,6.5,5.3,10.5,12,17.6c5.5,5.9,9.4,11.2,10.7,14.8c1.2,3.1,4.2,9,6.7,13.2s4.9,8.9,5.4,10.5c1.9,6.2,5.8,12.1,13.4,20.2
		c5.2,5.4,8.7,10.4,10.1,14.1c1.2,3.2,4.2,9.1,6.8,13.3c2.6,4.2,5.8,10.5,7.2,14.2c1.8,4.8,5,9.3,11.3,16c5,5.3,9.4,11.2,10.2,13.7
		c2.8,8.3,6.2,13.7,14.1,21.8c5.2,5.4,8.7,10.1,10.1,13.9c1.2,3.2,4.2,9.2,6.7,13.3s4.9,8.9,5.4,10.5c1.8,6.2,5.9,12.4,12.6,19.2
		c4.9,5,8.3,9.9,11.7,17.1c3.5,7.4,6.9,12.3,12.9,18.6c5.2,5.5,8.8,10.4,9.9,13.6c0.9,2.8,3.7,8.3,6.2,12.2c2.4,4,5.8,10.6,7.6,14.8
		c2.2,5.4,5.6,10.2,11.8,16.9c5.5,5.9,9.5,11.4,10.8,14.9c1.2,3.1,4.1,9,6.6,13.1c2.5,4.2,4.9,8.9,5.4,10.5
		c1.9,6.2,5.8,12.1,13.4,20.2c5.4,5.7,8.7,10.3,10.1,14.3c1.2,3.3,3.8,8.5,5.8,11.6s4.9,8.6,6.5,12.3c1.5,3.7,4.4,9.2,6.4,12.3
		c2,3.1,4.3,7.7,5.3,10.3c3,8.2,5.4,11.9,13.8,20.7c5.5,5.8,8.8,10.3,10,14.1c1,3.1,4,9,6.7,13.1c2.6,4.2,4.8,8.1,4.8,8.7
		c0,3.7,6.9,14.3,14.1,21.9c5.8,6.1,8.9,10.5,10.3,14.4c1.1,3.1,3.5,8.1,5.4,11s5.2,9.3,7.2,14.1c2.9,6.7,5.8,11,12.5,18
		c6,6.3,9.3,11,10.6,14.8c1,3,4,8.9,6.7,13.1c2.6,4.2,5.4,9.4,6.1,11.6s3.1,6.9,5.3,10.5c2.2,3.5,5.4,9.9,7.2,14.3
		c2.4,5.9,5.5,10.3,11.9,17.1c6,6.4,9.3,11,10.6,14.9c1.1,3.1,3.6,8.2,5.6,11.3s5,8.7,6.5,12.4c1.5,3.7,4.4,9.2,6.3,12.2
		s4.6,8.2,5.9,11.4c1.3,3.3,4,8.4,6,11.5s4.7,8.8,6.1,12.8c5.1,15.1,12.6,16.4,24.1,4.2c4.1-4.3,7.5-9.4,9.2-13.7
		c1.5-3.8,4.8-10,7.3-13.8s5.7-10,7.1-13.6c1.8-4.8,5-9.3,11.3-15.9c6.9-7.3,9.4-11.1,12-17.6c2.5-6.3,5.1-10.2,10.6-16
		c7.8-8.1,9.6-10.8,14.1-21c1.7-3.8,6.2-10,11.3-15.4c4.7-5,8.8-10.2,9.2-11.6c0.4-1.4,4.8-10.7,9.8-20.6
		c7.1-14.2,10.4-19.5,15.8-25c5.4-5.6,8.7-10.9,16.5-26.2c5.3-10.6,9.7-19.7,9.7-20.2s1.6-3.4,3.5-6.3s4.6-8.2,6-11.7
		s4.4-9.2,6.6-12.8c2.2-3.5,5-8.8,6.1-11.7c1.1-2.9,3.5-7.6,5.3-10.5s4.4-8.1,5.8-11.6s4.1-8.8,6.1-11.8c1.9-3,4.8-8.6,6.4-12.5
		s4-8.6,5.4-10.5s4.1-7.1,6-11.6s5-10.4,6.9-13.1s4.4-7.3,5.5-10.2c1.1-2.9,3.7-8,5.6-11.4s4.6-8.9,6-12.2c1.3-3.3,4-8.5,5.9-11.4
		s4.9-8.7,6.6-12.8c1.7-4.1,4.2-8.9,5.4-10.6c1.3-1.8,3.7-6.5,5.4-10.5c1.7-4,4.8-10.1,7-13.6s4.9-8.7,6.1-11.6
		c1.1-2.9,3.5-7.6,5.3-10.5s4.4-8.1,5.8-11.6s4.1-8.8,6.1-11.7c1.9-2.9,4.9-8.7,6.6-12.8c1.7-4.1,4.1-8.8,5.4-10.6
		c1.3-1.7,3.9-6.8,5.7-11.3c1.9-4.5,5-10.4,6.9-13.1s4.4-7.3,5.5-10.2c1.1-2.9,3.9-8.5,6.2-12.5c2.3-4,4.9-9.4,5.9-12.1
		s3.4-7.3,5.3-10.3c2-3,4.9-8.7,6.7-12.8c1.7-4.1,4.1-8.8,5.4-10.6c1.3-1.7,3.9-6.8,5.7-11.3c1.9-4.5,5-10.4,6.9-13.1
		s4.4-7.6,5.7-10.8c1.2-3.2,3.7-8.2,5.5-11c1.8-2.9,4.4-8.1,5.8-11.6s4.4-9.2,6.6-12.8c2.2-3.5,4.9-8.7,5.9-11.4c1-2.8,3.7-8,6-11.6
		s5-8.8,5.9-11.5c1-2.7,3.6-7.6,5.8-11c2.2-3.4,5-8.5,6.1-11.4c1.2-2.9,3.7-8,5.6-11.4s4.6-8.8,6-12.1c1.3-3.3,4.2-8.9,6.5-12.4
		c2.2-3.5,5-8.8,6.1-11.7c1.1-2.9,3.5-7.6,5.3-10.5s4.4-8.1,5.8-11.6s4.4-9.2,6.6-12.8c2.2-3.5,5-8.8,6.1-11.7
		c1.1-2.9,3.5-7.6,5.3-10.5s4.4-8.1,5.8-11.6s4.1-8.8,6.1-11.7c1.9-2.9,4.9-8.7,6.6-12.8c1.7-4.1,4.2-8.9,5.4-10.6
		c1.3-1.8,3.7-6.5,5.4-10.5c1.7-4,4.8-10.1,7-13.6s4.9-8.7,6.1-11.6c1.1-2.9,3.6-7.5,5.4-10.4c4-6.2,4.3-11.9,0.8-17.5
		c-3.4-5.5-39.3-40.8-47.8-47c-3.8-2.8-10.2-6.2-14.3-7.7c-7.2-2.6-9.7-4.9-76-69c-68.5-66.3-68.5-66.3-77.3-69.7s-8.8-3.4-67.9-61
		c-32.5-31.7-61.5-59.2-64.3-61.2c-2.8-1.9-8.7-4.9-13.1-6.5c-7.8-2.9-9.1-4.1-60.4-54.2c-28.8-28.1-54.5-52.8-57-54.7
		c-2.5-2-8.2-5-12.7-6.8c-7.9-3.1-9.6-4.7-62.2-56.3c-29.7-29.2-58-56.4-62.9-60.5c-6.1-5.1-11.4-8.3-17.3-10.6
		c-8.5-3.2-8.5-3.2-82.4-74.8c-72.8-70.5-76.8-74.1-87.9-77.6c-3.5-1.1-23.6-20.2-94.8-89.7c-49.7-48.6-94.3-91.6-99.1-95.7
		c-6.2-5.2-11.6-8.5-18.3-11.1c-9.5-3.8-9.5-3.8-174.8-165.3c-90.9-88.8-167.3-163-169.7-164.8c-2.4-1.8-8-4.6-12.3-6.3
		c-7.7-3-10.9-6.1-164.2-155.4c-86-83.7-158.1-153.1-160.2-154.1C4261,2472,4257.7,2472,4255.4,2474.3"/>
	<text transform="matrix(1 0 0 1 156.4925 290.3745)" class="st1 st2">Libertad</text>
</g>
<circle class="st3" cx="577.6" cy="3992.7" r="129.8"/>
<circle class="st4" cx="577.6" cy="4355.3" r="129.8"/>
<circle class="st5" cx="577.6" cy="4717.9" r="129.8"/>
<text transform="matrix(1 0 0 1 790.3439 4017.6357)" class="st6 st1 st7">MULTI-PURPOSE BUILDINGS</text>
<text transform="matrix(1 0 0 1 798.4635 4397.8843)" class="st8 st1 st7">ROADS</text>
<text transform="matrix(1 0 0 1 809.5226 4760.4897)" class="st9 st1 st7">BRIDGES</text>
<text transform="matrix(1 0 0 1 447.8937 3705.0317)" class="st10 st1 st11">PROJECT EXISTENCE INDICATOR</text>
</svg>
