<?xml version="1.0" encoding="utf-8"?>
<!-- Generator: Adobe Illustrator 27.1.0, SVG Export Plug-In . SVG Version: 6.00 Build 0)  -->
<svg version="1.1" id="Layer_1" xmlns="http://www.w3.org/2000/svg" xmlns:xlink="http://www.w3.org/1999/xlink" x="0px" y="0px"
	 viewBox="0 0 8192 5508" style="enable-background:new 0 0 8192 5508;" xml:space="preserve">
<style type="text/css">
	.st0{fill-rule:evenodd;clip-rule:evenodd;fill:#9C14E4;}
	.st1{font-family:'ArialMT';}
	.st2{font-size:191.5988px;}
	.st3{fill:#8703EF;}
	.st4{fill:#4472C4;stroke:#FFFFFF;stroke-width:0.958;stroke-miterlimit:9.5799;}
	.st5{fill:#FF000D;stroke:#FFFFFF;stroke-width:0.958;stroke-miterlimit:9.5799;}
	.st6{fill:#70AD47;stroke:#FFFFFF;stroke-width:0.958;stroke-miterlimit:9.5799;}
	.st7{fill:#EA781B;stroke:#FFFFFF;stroke-width:0.958;stroke-miterlimit:9.5799;}
	.st8{fill:#7030A0;stroke:#FFFFFF;stroke-width:0.958;stroke-miterlimit:9.5799;}
	.st9{fill:#FFFF1A;stroke:#FFFFFF;stroke-width:0.958;stroke-miterlimit:9.5799;}
	.st10{stroke:#FFFFFF;stroke-width:0.958;stroke-miterlimit:9.5799;}
	.st11{fill:#843C0C;stroke:#FFFFFF;stroke-width:0.958;stroke-miterlimit:9.5799;}
	.st12{fill:#FF73D8;stroke:#FFFFFF;stroke-width:0.958;stroke-miterlimit:9.5799;}
	.st13{fill:#B1FFF7;stroke:#0031FF;stroke-width:0.958;stroke-miterlimit:9.5799;}
	.st14{fill:#FFB1BC;stroke:#FFFFFF;stroke-width:0.958;stroke-miterlimit:9.5799;}
	.st15{fill:#F6DB76;stroke:#FFFFFF;stroke-width:0.958;stroke-miterlimit:9.5799;}
	.st16{fill:#A5A5A5;stroke:#FFFFFF;stroke-width:0.958;stroke-miterlimit:9.5799;}
	.st17{fill:#0B0BF9;stroke:#FFFFFF;stroke-width:0.958;stroke-miterlimit:9.5799;}
	.st18{fill:#E9816F;stroke:#FFFFFF;stroke-width:0.958;stroke-miterlimit:9.5799;}
	.st19{fill:#4472C4;}
	.st20{font-size:143.6991px;}
	.st21{fill:#FF0000;}
	.st22{fill:#70AD47;}
	.st23{fill:#F9920B;}
	.st24{fill:#7030A0;}
	.st25{fill:#FFFF03;}
	.st26{fill:none;stroke:#0000FF;stroke-width:0.479;stroke-miterlimit:9.5799;}
	.st27{fill:#843C0C;}
	.st28{fill:#FF73D8;}
	.st29{fill:#B1FFF7;}
	.st30{fill:#FFB1BC;}
	.st31{fill:#F6DB76;}
	.st32{fill:#A5A5A5;}
	.st33{fill:#410EFD;}
	.st34{fill:#E9816F;}
	.st35{font-size:120.8001px;}
</style>
<g id="Lugait">
	<g id="Layer_2_00000011016398532960808530000015204656703106077350_">
		<g id="Layer_10">
			<path class="st0" d="M4089.3,865.2c-1.5,0.4-3.9,2.2-5.3,3.9c-2.4,3.1-2.5,4.5-2.5,37.8c-0.1,29.8-0.3,35.2-2,38.1
				c-2.1,3.7-24.7,26.4-29.2,29.3c-1.5,1-5.9,2.8-9.8,4.1c-3.8,1.2-8.4,3.7-10.3,5.4c-7.3,6.7-7,4.5-7,66.5c0,65.2-1.1,59,12.6,73
				c6.2,6.3,8.9,10,9.9,13.5c1,3.4,1.2,16.5,1.1,42.4c-0.3,33.7-0.1,37.8,1.6,40.5c2,3.1,8,5.3,14.3,5.4c6,0.1,12.6,3.9,20.5,12
				c5.2,5.4,8.2,9.7,9.8,13.6c1.1,3.2,3.7,8.2,5.7,11.2s4,6.6,4.6,8s1.1,56.8,1.1,125.9c0.1,140.3,1.2,125.6-11.3,137.6
				c-12,11.4-11.3,7-11.4,74c-0.1,52.4-0.3,58.6-2.1,61.7c-1.1,1.9-12.8,13.9-26.2,26.5c-13.3,12.7-25.6,25.4-27.3,28.2
				c-3,4.9-3.2,5.7-3.5,25.3c-0.6,30.9-1.4,30.2,32.3,30.2c25.4,0,22.5-0.6,37.9,7.9c4.3,2.4,7.1,2.9,19.7,3.4
				c14.7,0.7,14.7,0.7,23.1,5.6c8.1,4.8,8.7,4.9,20.4,5.5c17.1,0.8,18.5,1.1,26.7,6.3c7.4,4.8,7.4,4.8,34.4,5.4s27,0.6,35.7,5.7
				s8.7,5.1,35.1,5.7c27.5,0.6,27.8,0.7,35.7,6.2c1.9,1.3,4.6,3,5.8,3.4c1.2,0.6,16.9,1.2,34.6,1.6c32.2,0.6,32.2,0.6,40.9,5.7
				c8.6,5.1,8.6,5.1,29.2,5.7c18.6,0.6,21,0.9,24.6,3.1c11.9,7.3,12.7,7.6,28.2,8.2c14.8,0.7,14.8,0.7,23.1,5.6
				c8.3,4.9,8.3,4.9,23.3,5.7c12.5,0.7,15.7,1.2,19.1,3.3c11.8,7.2,12.7,7.5,28.2,8.1c14.3,0.7,14.9,0.8,21.7,4.7
				c9.4,5.6,9.9,5.7,24,6.1c13,0.5,18,1.7,24.6,6.5c2.1,1.5,4.9,3.2,6.1,3.6c1.2,0.6,14.2,1.2,28.7,1.5c26.3,0.6,26.3,0.6,34.5,5.3
				c4.5,2.6,9.5,5.1,11,5.6c1.6,0.5,16.4,0.9,32.8,1c29.9,0.1,29.9,0.1,38.6,5.2s8.7,5.1,35.2,5.7c26.4,0.6,26.4,0.6,33.4,4.8
				c8.6,5.2,14.4,6.5,27.9,6.5c10.5,0,10.6,0.1,19.9,5.4c9.3,5.4,9.3,5.4,29.9,5.9c20.6,0.6,20.6,0.6,26.5,4.1
				c7.9,4.7,10.2,5.3,14.8,3.8c8.3-2.7,13.6-11.4,13.6-22.7c0-4.8,1.2-7.8,8.1-20.4c1.2-2.2,2.8-8,3.4-13c1-6.8,2.2-10.4,5-14.8
				c2-3.1,4.5-7.5,5.6-9.6s4-8.1,6.8-13.3c3.8-7.3,5.2-11.4,6.1-18.6c1-7.6,2-10.5,5.9-16.8c4-6.3,4.9-9,5.8-17
				c1-7.9,1.8-10.5,5.7-16.9c2.6-4.1,5.5-9.7,6.4-12.4c1-2.7,3.7-7.9,6-11.6c3.5-5.6,4.4-8.1,5.2-15.9s1.7-10.4,5.6-16.8
				c2.5-4.1,5.2-9.3,5.9-11.5c0.8-2.2,3.4-7.3,5.9-11.3s5.4-9.6,6.3-12.3c1-2.7,3.6-7.8,5.8-11.3c3.3-5.2,4.3-8.3,5.3-16
				c1.1-8,2-10.7,6-17.2c4.1-6.5,5-9.1,5.8-17.1c0.9-7.5,1.8-10.5,5-15.5c4.7-7.5,5.1-8.5,6.4-19.1c0.9-6.5,2-9.8,5.8-15.9
				c4.1-6.5,5-9.1,5.9-17.1c0.9-7.7,1.8-10.6,5.2-15.9c3.9-6.1,5.5-11.2,7.1-22.8c0.5-3.5,2.3-7.6,5.3-11.8
				c2.5-3.5,5.2-9.1,5.8-12.3c0.9-3.7,1.2-22.8,1.1-54.3c-0.2-50.7-0.2-50.9,5.1-59c1.5-2.4,3.6-6.6,4.8-9.4s4.1-8.4,6.7-12.5
				c3.8-6.2,4.8-9,5.7-16.9c1-7.9,1.8-10.5,5.7-16.9c3.8-6.2,4.9-9.1,5.8-17.1c1-7.6,2-10.8,5-15.2c2-3.2,4.3-6.9,5-8.4
				s3.7-7.4,6.7-13c4.3-8.1,5.7-12.2,6.7-19.7c1.1-7.8,2.2-10.9,5.9-17c2.5-4.1,5.5-9.7,6.6-12.5s2.9-6.3,4-8
				c4.2-6,5.7-10.2,6.9-19.3c1.1-7.8,2-10.7,5.8-16.9c3.5-5.7,4.9-9.4,5.8-15.8c0.7-4.6,1.5-9.5,1.9-10.9c1.5-5.8-0.2-7.4-10.9-10.2
				c-3.4-0.9-8.7-3.4-12-5.5c-6.4-4.3-14.1-5.8-22.4-4.7c-7.3,1.1-15.8-1.1-23.1-5.9c-6.3-4.1-6.3-4.2-21.8-4.9
				c-16.7-0.8-14.9-0.2-30.2-9.5c-2.9-1.8-5.5-2.2-12.5-2c-15.7,0.4-20.4-0.6-28.2-5.6c-6.1-4-8.4-4.8-18.2-6
				c-9.9-1.3-12.1-2.1-18.8-6.3c-7.7-4.8-7.7-4.8-21.5-5c-11.3-0.2-14.7-0.7-18.3-2.5c-2.4-1.2-7-3.6-10.2-5.3c-3.2-1.6-7.7-3-10-3
				c-8-0.1-14.2-1.9-20.6-6c-3.5-2.3-9.2-5.2-12.6-6.4s-8.7-3.8-11.7-5.7c-4.3-2.8-7.7-3.8-16.7-5c-9.5-1.2-12.3-2.1-17.5-5.6
				c-3.4-2.2-8.9-5-12.2-6.1c-3.3-1.1-8.3-3.5-11.4-5.4c-3.1-1.7-9.3-4.8-13.9-6.7c-4.6-1.9-10-4.7-12.1-6.1
				c-2.6-1.7-6.5-2.9-12.7-3.6c-11.2-1.3-14.1-2.2-20.7-6.6c-2.9-1.9-7.5-4.2-10.3-5.2s-8-3.4-11.7-5.7c-4.8-2.9-9-4.3-14.7-5.2
				c-4.3-0.6-9.5-1.3-11.4-1.6s-6.4-2.3-9.9-4.4c-3.4-2.2-8.7-4.8-11.7-5.8c-2.9-1.1-8.1-3.6-11.6-5.7c-3.4-2.1-9-4.8-12.4-6
				s-8.5-3.7-11.5-5.7c-4.3-2.8-7.7-3.7-16.6-5c-9.7-1.3-12.2-2.1-18.5-6c-4-2.5-9.2-5.1-11.5-5.8s-7.3-3.2-11.1-5.4
				c-6.7-4-7.2-4.1-22.2-4.9c-16.5-0.9-14.8-0.3-30-9.6c-3-1.8-5.6-2.2-14.2-2c-13.7,0.2-19.7-1.1-27.2-6c-8-5.3-13.6-6.3-28.5-5.5
				c-14.9,0.9-21.7-0.4-30.2-5.7c-6.9-4.4-15.3-6.4-22.9-5.5c-7.3,1-16.8-1.3-23.8-5.8c-3.4-2.1-7.6-4.2-9.3-4.7
				c-1.8-0.5-16.7-0.9-33.1-0.9c-33.1-0.1-28.7,0.8-44.9-9.1c-3.4-2.1-5.8-2.3-40.5-2.4c-23-0.1-38-0.6-40-1.3
				c-1.7-0.7-5.8-3-9.2-5.2s-7.1-4.1-8.5-4.2c-1.3-0.1-18.6-0.2-38.2-0.3c-39.5-0.1-34.5,0.8-50.7-9.2c-3.4-2.1-6.2-2.3-42.3-2.9
				c-38.7-0.6-38.7-0.6-45.3-4.8C4110.2,864.9,4098.4,862.7,4089.3,865.2"/>
		</g>
		<g id="Layer_9">
			<path class="st0" d="M5289.9,1167.9c-2.4,2.3-2.9,3.9-3,9.3c-0.1,10.3-1.6,15.8-6.4,22.6c-3.9,5.5-4.6,7.6-5.8,16.9
				c-1.1,8.6-2.1,11.7-5.1,16.2c-2,3.1-4.9,8.5-6.4,12.3c-1.5,3.6-4.6,9.3-6.8,12.5c-3.6,5.1-4.2,6.9-5,15.5
				c-0.8,8.7-1.3,10.3-5.6,16.8c-2.6,3.9-5.5,9.1-6.4,11.6s-3.7,7.9-6.2,11.9c-3.9,6.3-4.7,8.8-5.7,17.3c-1,8.8-1.6,10.7-5.5,16.1
				c-4.1,5.8-5.7,11.9-6.3,24.9c0,0.7-2.2,4.3-4.8,8c-2.6,3.7-5.5,9-6.5,11.7s-4,8.5-6.7,12.8c-4.9,7.9-4.9,7.9-4.5,58.2
				c0.3,34.3,0,51.8-0.9,54.9c-0.7,2.5-3.4,7.5-5.8,11c-4.1,5.8-4.6,7.4-5.4,16.2c-0.8,8.8-1.2,10.3-5.6,16.6
				c-4.2,6.1-4.9,7.9-5.7,16.3c-1,9.9-1.6,11.8-7.3,19.5c-2.9,3.9-3.7,6.7-4.9,15.4c-1.2,9.5-1.9,11.4-6.2,17.7
				c-3.9,5.7-4.9,8-4.9,12.3c-0.1,9-1.8,14.8-6.4,21.3c-3.9,5.5-4.6,7.6-5.8,17c-1.2,9.3-2,11.6-6,17.7c-2.6,3.8-5.4,9.1-6.1,11.6
				c-0.8,2.5-3,6.7-4.9,9.3c-1.8,2.6-4.9,8.2-6.6,12.5c-1.8,4.2-5,10.2-7,13.2c-2.9,4.4-3.7,6.8-3.7,11.3c0,8.5-1.6,13.7-6.4,20.6
				c-2.4,3.4-5.1,8.3-5.9,10.9c-1,2.6-3.6,7.7-5.9,11.4c-3.6,5.7-4.4,8-5.1,16c-1,9.9-1.6,11.8-7.3,19.4c-2.9,3.9-3.7,6.7-5,15.6
				c-1.2,9.1-2,11.7-5.5,16.7c-2.2,3.3-5,8.4-6.1,11.6s-4,8.3-6.3,11.7c-3.5,5.2-4.4,7.6-5.6,16.7c-1.2,9.4-1.9,11.5-6,17.3
				c-4.1,6-4.7,7.6-5.3,15.8c-0.7,9.3-2.5,13.6-9.2,21.7c-1.8,2.2-2.7,5.4-3.4,13.2c-0.8,9.3-1.3,10.8-5.2,16.3
				c-2.3,3.3-5.1,8.3-6,11.1c-1.1,2.8-4,8.6-6.8,12.9c-4.9,7.9-4.9,7.9-5.1,21.2c-0.2,14.1-0.3,14.7-8,26.6
				c-3.5,5.5-3.5,5.5-3.5,24.7c0,21.3,0.9,18.2-9.4,33.7c-2.1,3.3-2.4,6-3,29.6c-0.6,26.1-0.6,26.1-5.5,33.1
				c-3.2,4.6-5.2,9-5.7,12.5c-0.5,3-0.5,33.6-0.1,68.1c0.4,35.3,0.3,64.7-0.3,67.2c-0.6,2.4-2.9,7-5.2,10.2
				c-2.3,3.2-5.2,8.5-6.5,11.9s-3.7,8.1-5.5,10.5c-1.7,2.5-4.3,7.8-5.9,11.8c-1.5,4-4.6,9.8-6.7,12.7c-2.1,3-4.6,8-5.5,11
				c-1.4,5.2-4.7,8.5-45.5,48.1c-41.7,40.3-44.4,42.7-51,45c-3.8,1.3-9.4,3.9-12.3,5.7s-8,4.2-11.5,5.5c-3.4,1.2-9,4.1-12.5,6.4
				c-5.1,3.4-7.8,4.3-14.8,5.1c-4.7,0.6-9.4,1-10.4,1.1c-1.1,0-5,2-8.8,4.4s-9.7,5.2-12.8,6.2c-3.3,1.1-7.7,3.2-9.9,4.8
				c-8.1,5.9-10.8,6.5-31.5,6.6c-17.2,0.1-19.7,0.3-23,2.3c-16.1,9.9-12.2,9-41.5,9c-26.4,0-26.4,0-33,4.3c-3.5,2.4-8.9,5-11.8,5.8
				c-14.8,4.3-18.8,9.2-20.4,25.3c-0.9,8.6-1.6,11.1-4.4,14.8c-6.8,9.2-6.8,9.3-6.9,29.9c0,21.3,0.9,18.2-9.4,33.7
				c-1.9,3-2.3,5.5-2.3,14.8c0,10.4,0.3,11.8,3.4,17c2,3.4,15.2,17.1,32.8,34c24.7,23.9,30.3,28.7,35.2,30.6
				c3.3,1.1,10.6,4.5,16.4,7.4s12.4,5.8,14.7,6.7c2.3,0.9,6.8,3.3,10.2,5.4c4.8,3.1,8,4,15.2,4.9c7.9,1,11.6,2.3,25.6,9.1
				c9,4.4,18.8,9.3,21.7,10.9c4.7,2.6,6.9,3.1,19.9,3.5c14.7,0.7,14.7,0.7,23.4,5.7s8.7,5.1,29.2,5.7c20.5,0.6,20.5,0.6,29.2,5.7
				c8.7,5.1,8.7,5.1,29.2,5.7c20.5,0.6,20.5,0.6,29.2,5.7c8.7,5.1,8.7,5.1,35.1,5.7c26.3,0.6,26.3,0.6,35.1,5.7
				c8.7,5.1,8.7,5.1,40.9,5.7c32.3,0.6,32.3,0.6,40.9,5.7c8.7,5.1,8.7,5.1,29.2,5.7s20.5,0.6,29,5.6s8.5,5,23.5,5.7
				c14.8,0.7,15,0.8,22.4,5.2s7.7,4.5,22.2,5.3c15.3,0.8,15.9,1,27.1,7.6c6.6,3.9,7.2,4,21.7,4.7c14.8,0.7,14.8,0.7,23.4,5.6
				c8.5,5,8.5,5,23.4,5.7c14.9,0.8,17.9,1.5,26,6.8c1.6,1.1,5.3,2.8,8.1,3.9c2.9,1.1,8.1,3.5,11.7,5.6c3.5,2,9.3,4.7,12.7,6.1
				c3.4,1.4,8.9,4.1,12,6c4.5,2.8,8,3.8,16.8,5c9,1.2,12.4,2.2,17.8,5.5c3.7,2.2,9.1,4.9,12,5.9c2.9,1.1,7.1,3.1,9.4,4.4
				c2.3,1.3,11.2,5.7,19.9,9.9c12.6,5.9,17.2,7.6,23.3,8.1c8,0.8,9.9,1.4,19.9,7.6c6.1,3.7,6.8,3.8,21.1,4.4
				c14.8,0.6,14.8,0.6,23.4,5.6s8.6,5.1,23.4,5.7c14.8,0.7,14.8,0.7,23.4,5.7c8.5,5,8.5,5,23.4,5.7c14.2,0.7,15.1,0.9,21.8,4.6
				c3.8,2.1,9.8,5,13.2,6.4c3.4,1.4,8.8,4.1,11.9,6c4.4,2.8,8,3.8,16.8,5c9.1,1.2,12.4,2.2,18.1,5.6c3.8,2.2,9.3,4.9,12.1,5.8
				c2.8,1,6.9,2.9,9.2,4.3c5.2,3.3,37.6,18.8,39.4,18.8c0.7,0,4.6,2.1,8.7,4.7c15.9,10,22.2,11.1,27.8,5c8.4-9.3,10-13.3,10.7-28.9
				c0.8-14.5,0.8-14.5,5.9-22.7c5.2-8.2,5.2-8.2,5.8-22.5c0.7-14.3,0.7-14.3,6.1-23.2c5.5-8.9,5.5-9,5.6-19.2
				c0-13.1,1.4-18.7,6.7-27c4.3-6.8,4.3-6.8,5-26.2c0.8-20.6,1-21.4,7.4-31.7c4.2-6.7,4.2-6.7,4.2-23.2c0-18.8,0.9-22.8,6.8-32.2
				c4.2-6.7,4.2-6.7,4.9-31.7c0.6-22.7,0.8-25.4,3.1-29.5c9.7-17.4,9.1-15.5,8.9-31c-0.2-18,0.9-23.5,6.4-32.1
				c4.4-6.9,4.4-6.9,5-32.5s0.6-25.6,6.1-34.6c6.2-10.2,6-8.9,6.1-37.9c0-21.6-0.3-20.1,8.3-34.5c3.4-5.7,3.4-5.7,3.4-30.1
				c0-24.4,0-24.4,4-30.6c8.2-12.6,7.7-9,8-54c0.2-38.4,0.4-41.4,2.5-45.2c9.9-17.9,9-12.8,9-51.2c0-32.9,0.2-34.8,2.5-39
				c10.1-18.4,9.2-13.1,9.2-51.4c0-33,0.1-34.7,2.5-39c10.1-18.2,9.1-13,9.2-51.3c0.1-38.2-0.6-34.6,8.3-49.2
				c3.4-5.7,3.4-5.7,3.5-28.8c0.1-12.7,0.6-24.4,1.1-26.1c0.5-1.5,2.8-5.8,5.2-9.5c4.2-6.7,4.2-6.7,4.8-32.3
				c0.6-25.6,0.6-25.6,5.8-34c5.3-8.4,5.3-8.4,5.9-27.7c0.4-10.6,1.1-20.3,1.7-21.6c0.6-1.2,2.8-5,5-8.3c5.1-7.8,6.5-17.1,5.5-37.1
				c-0.9-17.2,0.1-22.1,5.8-30.4c5.8-8.3,6.6-13.5,6.3-43.1c-0.3-26.2-0.3-26.2,2.9-31.7c9.1-15.8,8.3-10.5,8.4-61.5
				s-0.7-45.7,8.2-60.4c3.4-5.7,3.4-5.7,3.4-40.8c0.1-33.4,0.2-35.4,2.5-39.6c9.8-17.9,8.9-13.2,9.1-45.5c0.2-31,0.4-31.8,6.5-40.4
				c4.9-6.9,6.2-14.9,5.6-34.3c-0.7-19.6,0.2-24.4,5.7-33.1c3.7-5.8,4.3-7.8,4.8-16c1.1-17.1-3.3-24.1-18.4-29.7
				c-7.5-2.8-9.9-4.5-21.8-15.9c-18.6-17.6-22.9-19.4-32.1-12.6c-6.7,4.9-8,5.4-19.4,6.3c-8.5,0.8-10.3,1.3-15.5,5.1
				c-10,7.1-19.1,7.4-27.9,1c-2.1-1.5-7.9-4.6-12.8-6.8c-6.4-2.9-11.4-6.1-17.3-11.6c-6.6-6-10.2-8.3-16.8-10.7s-10.3-4.9-17.7-11.4
				c-6.7-5.9-11.2-9-16.1-10.7c-3.7-1.3-10.3-4.5-14.8-7.2c-8.1-4.7-8.1-4.7-43.9-5c-19.6-0.1-37.2-0.5-39-0.9s-6.7-2.7-11-5.2
				c-4.2-2.5-9.7-5.1-12-5.8c-2.3-0.8-6.9-3-10.1-5.1c-3.3-2-8.6-4.7-12-5.9s-8.6-3.6-11.7-5.5c-3.1-1.7-9.3-4.8-13.9-6.7
				c-4.6-1.9-9.9-4.6-11.8-5.9s-6.3-3.4-9.9-4.7c-3.5-1.2-9-3.9-12.2-5.8s-7.9-4.2-10.4-5.2c-2.6-0.9-7.7-3.4-11.3-5.6
				c-3.6-2.2-8.9-4.7-11.7-5.7c-2.8-1-8.6-3.8-13-6.4c-8-4.7-8-4.7-22.4-4.8c-14.2-0.1-14.5-0.2-20.7-3.9c-11.4-7-12.4-7.3-26.2-7.5
				c-14-0.2-16.8-1-24.8-6.3c-4.2-2.8-7.4-3.7-16.4-5c-9.8-1.3-12-2.1-18.2-6c-7.7-5-14.2-6.5-22.3-5.4c-7.7,1.1-17-1.1-24.2-5.7
				c-5.5-3.4-7.9-4.2-16.3-5.2c-10-1.1-14.2-2.5-20.6-7.2c-5-3.6-7.6-4.1-21.6-4.4c-9.9-0.2-13.5-0.8-17.6-2.7
				C5298.6,1164.3,5293.5,1164.5,5289.9,1167.9"/>
		</g>
		<g id="Layer_8">
			<path class="st0" d="M6053.2,1408.6c-3.6,1.3-5.8,5.8-6.6,13.9c-0.6,6.4-1.5,8.7-5.8,15.1c-2.8,4.1-5.2,8.5-5.4,9.8
				s-0.3,12.7-0.3,25.5c0,25.7,0.9,22.1-9.4,37.7c-2.1,3.3-2.4,6-3,35.3c-0.6,31.7-0.6,31.7-5.6,38.9c-2.8,3.9-5.1,8.2-5.2,9.6
				c-0.1,1.3-0.3,17.9-0.3,36.9c-0.1,38.2,0.9,33.4-9.5,49c-2.2,3.4-2.4,5.7-2.6,50.8c-0.2,52.1,0.4,47.4-8,60.4
				c-3.5,5.5-3.5,5.5-3.5,36c0,33.8,0.9,29.4-9.4,45.1c-2.1,3.3-2.4,6-3,29.7c-0.6,26.2-0.6,26.2-5.6,33.2c-5.6,8-5.4,6.8-5.5,30
				c-0.1,18.7,0.7,16.1-9.5,31.5c-2.1,3.3-2.4,5.7-2.5,28c-0.1,26.6,0.2,25.1-8,38c-3.5,5.5-3.5,5.5-3.5,30.4
				c0,27.5,0.9,23.9-9.4,39.5c-2.2,3.4-2.4,6-3,40.9c-0.6,37.4-0.6,37.4-5.6,44.5c-2.8,3.9-5.1,8.2-5.2,9.6
				c-0.1,1.3-0.2,17.9-0.3,36.9c-0.1,38.2,0.9,33.4-9.5,49c-2.2,3.4-2.4,5.7-2.5,37.8c-0.1,18.9-0.5,36-0.9,38
				c-0.4,2.1-2.5,6-4.6,8.7c-6.5,8.3-6.6,9.3-6.3,53.1c0.3,40.1,0.3,40.1-3.2,45.5c-9.2,14.2-8.8,12.5-8.8,38.6
				c0,25.9,0.4,24-7.6,36.4c-3.5,5.5-3.5,5.5-3.5,30.4c0,23-0.2,25.2-2.3,28.5c-10.3,15.6-9.3,11.9-9.6,39.2
				c-0.2,26.8,0.1,25.2-8,37.7c-3.4,5.5-3.4,5.5-3.5,24.7c0,21.3,0.8,18.3-9.4,33.8c-2.1,3.3-2.4,6-3,29.6
				c-0.6,26.1-0.6,26.1-5.6,33.2c-5.6,8-5.3,6.7-5.5,30.1c-0.1,18.7,0.7,16.1-9.5,31.5c-2.1,3.2-2.3,5.6-2.4,22.2
				c0,20.2,0.1,19.6-8,32.3c-3.3,5-3.4,5.9-3.5,19.1c-0.1,11.7-0.5,14.3-2.5,17.3c-10,15.1-9.4,13.4-9.5,27.7
				c-0.2,14-0.4,14.8-7.3,25.3c-3.4,5.4-3.7,6.5-4.1,17.5c-0.2,7.5-1.1,14.1-2.4,17.8c-3,8.6-2.4,9.3,8.4,9.3
				c9.4,0,9.6-0.1,23.4-7.6c2.7-1.4,8.2-2.9,13.8-3.5c7.3-0.9,11.3-2.1,18.5-5.7c8.6-4.4,9.7-4.7,19.3-4.7c13.2,0,18.8-1.3,26.5-6.3
				c5-3.3,8-4.2,14.8-5.1c12.1-1.4,13.5-1.9,20.9-6.2c5.2-3.1,8.8-4.2,17.1-5.5c8.7-1.2,12-2.3,18-5.9c7.3-4.4,7.3-4.4,27.9-5
				s20.6-0.6,29.3-5.7c8.7-5.1,8.7-5.1,40.3-5.7c17.4-0.4,32.7-1.1,33.9-1.6c1.2-0.6,5.5-2.8,9.3-5.1c7-4,7-4,30.4-3.7
				c34.3,0.6,38.2,0,49.4-6.4c9.2-5.3,9.2-5.3,41.4-5.8c17.7-0.3,33-1.1,33.9-1.5c1-0.6,4.6-2.9,8-5.1c6.3-4.1,6.3-4.1,71.4-3.7
				c35.8,0.2,69.2-0.1,74.1-0.8c7.6-0.9,10.4-1.9,17.5-6c8.4-4.9,8.4-4.9,122-5.5c101.5-0.5,113.9-0.8,117-2.4
				c1.9-1,6.1-3.3,9.4-5.1c5.8-3.3,5.8-3.3,55-3c29.6,0.2,51.8-0.1,56-0.9c4.4-0.8,9.7-2.8,14.8-5.7c6.5-3.8,9.7-4.9,18.7-6.1
				c6.8-1,12-2.4,13.9-3.7c7.7-5.5,10.9-6.3,26.1-7.1c14.8-0.8,14.8-0.8,23-5.6c6.9-4,9.9-5,18.5-6.1c10.3-1.4,12.3-2.2,30.2-12.8
				c1.9-1.1,5.1-5,7-8.5c2.1-3.9,8.6-11.5,16.7-19.4c11.6-11.4,13.7-14.3,17.8-22.9c4.1-8.5,6.3-11.5,17.5-22.5
				c11.2-11.1,13.4-14,17.5-22.5c4-8.4,6.4-11.6,17.6-22.9c11.3-11.4,13.7-14.5,18-23.5c3.3-6.8,6.7-11.9,10-14.8
				c6.4-5.9,10.7-12,14.1-20.4c2.3-5.5,5.3-9.3,16-20c11.5-11.5,13.8-14.5,17.9-23c3.4-7.1,6.6-11.8,11.8-17
				c5-5.1,8.2-9.6,10.8-15.4c2.1-4.6,5.5-11.2,7.6-14.7c2.1-3.4,4.6-8.5,5.6-11.1c1-2.7,3.5-7.7,5.7-11.2s4.6-8.2,5.3-10.4
				c0.8-2.2,3-6.6,5-9.6c2-3.1,5.1-8.9,6.8-12.9c1.7-4.1,4.6-9.6,6.3-12.2c1.7-2.6,4.2-7.4,5.5-10.6c1.3-3.3,4.2-8.7,6.4-12.2
				c2.2-3.4,4.8-8.5,5.8-11.3s3.4-7.4,5.2-10.2c1.8-2.9,4.5-8,5.9-11.4s4-8.6,5.9-11.5s4.7-8.2,6.1-11.9c1.4-3.6,4-8.7,5.7-11.2
				c1.6-2.5,3.9-7,5.1-10c1.1-3,3.6-7.7,5.5-10.5c4.2-6.4,4.3-10.8,0.3-13.9c-1.6-1.2-4.1-2.7-5.6-3.1c-1.4-0.4-4.6-2.1-7.2-3.6
				s-7.8-4-11.6-5.5c-3.7-1.4-9.3-4.1-12.3-5.9c-3-1.8-8.6-4.6-12.5-6c-3.8-1.5-9.6-4.3-12.7-6.3c-3.2-1.9-8.2-4.3-11.4-5.4
				c-3.9-1.2-8.5-4.3-15-10.2c-7.2-6.4-11.2-9-17.7-11.5c-6.4-2.5-10.4-5-17.1-11c-5.3-4.8-11.2-8.8-15.2-10.5
				c-12-5.1-14.3-6.4-19.2-11.6c-11.2-12-21.9-20.2-30.6-23.5c-7.5-2.9-9.9-4.6-21.7-16c-12.9-12.5-18.8-16.4-28.7-19.4
				c-3.5-1.1-8.3-5.1-19.9-16.5c-19-18.8-25.2-23.8-33.3-26.6c-3.5-1.2-9.9-4.2-14.1-6.6c-4.2-2.4-10.2-5.3-13.3-6.4
				c-3.8-1.3-8.8-4.8-14.7-10.1c-6.7-6.1-10.8-8.8-17.1-11.2c-4.5-1.7-11.1-4.9-14.6-6.9s-9.1-4.7-12.3-5.7
				c-8.4-3-21.4-15.7-25.1-24.8c-1.5-3.7-4.2-9.1-6.1-12c-1.8-2.9-4.3-8-5.7-11.6c-1.3-3.5-3.9-8.7-5.9-11.6c-2-2.9-5-8.3-6.6-12.2
				c-1.6-3.8-3.9-8.4-5.3-10.1c-1.2-1.7-3.6-6.3-5.3-10.2c-1.6-3.9-4.5-9.4-6.3-12.3c-1.9-2.9-4.8-8.4-6.4-12.4
				c-1.6-3.9-4.2-8.9-5.7-11.1c-1.5-2.2-4-7.3-5.5-11.4c-2.2-5.9-4.5-9.3-11.6-16.7c-7.5-7.9-9.4-10.6-12.2-18.2
				c-3.2-8.5-4-9.6-17.5-22.6c-12.6-12.2-14.6-14.6-17.4-21.5c-4.2-10.3-6.3-12.7-26.4-32.1c-16.6-15.9-17.1-16.7-21-26.1
				c-3.9-9.6-3.9-9.6-28.7-33.6c-22.9-22.1-25.1-24.6-28.2-31.7c-4.5-10.5-9.8-16.9-28.5-34.4c-12.3-11.5-16.5-16.3-17.6-19.6
				c-2.8-8.3-6.1-13.5-13.9-21.5c-5.7-5.8-8.3-9.6-10-14.2c-1.2-3.4-3.9-8.8-6-12s-5.5-9.6-7.5-14.2c-2.8-6.5-5.3-10-10.7-15.1
				c-6-5.7-8.3-9.2-15.2-23.2c-4.5-9-9.6-19-11.2-22c-1.7-3.1-4.9-9.2-7.1-13.6c-2.2-4.3-5-9.7-6.3-11.9c-1.2-2.2-3.6-6.8-5.2-10.2
				c-1.5-3.4-4.2-8.5-5.8-11.3c-1.6-2.8-4.6-8.4-6.5-12.5s-4.6-9.1-5.9-11.3c-2.3-3.8-4.9-9.3-9-18.7c-1.1-2.5-5.7-8.3-10.2-13
				c-6.4-6.7-8.9-10.3-11.6-17c-3.1-7.6-4.9-9.9-17.6-22.6c-12.3-12.3-14.7-15.2-17.1-21.5c-5.6-14.2-14.9-20.1-29.7-18.9
				c-10.1,0.9-17.7-0.9-24.9-5.7c-7.1-4.7-12.9-6-22.5-5.2c-11.5,1.1-18.1-1.2-26.9-9.3c-9.3-8.5-12.5-10.6-22.4-14.6
				c-6.8-2.8-9.2-4.6-19.3-15.1c-16.8-17.5-26.8-25.4-37.6-29.6c-7.3-2.8-10.5-5-16-10.3c-12.2-12-8.3-11.3-66.8-11.6
				C6078.3,1407.9,6054.4,1408.2,6053.2,1408.6"/>
		</g>
		<g id="Layer_7">
			<path class="st0" d="M4028.2,1804.8c-1.7,1-3.5,2.6-4.1,3.6c-0.6,1.1-1,10.2-1.1,20.1c0,21.1-0.4,22-11.2,31.9
				c-12.6,11.5-11.9,5.7-11.7,84.3c0.1,49.8-0.2,69.3-1.2,72.1c-0.8,2.2-3.1,6.2-5.2,9c-2.1,2.8-4.9,8-6.3,11.8
				c-1.4,3.6-4.1,8.8-6.1,11.5c-3.1,4.1-3.7,6.4-4.6,14.8c-1.2,11.7-3.4,15.7-12.2,23.4c-12,10.3-11.1,2.8-11.1,100.3
				c0,63.3-0.4,86.4-1.4,89.8c-1,3.1-3.8,6.8-8.6,11.4c-10.7,10.2-13.3,14.5-13.3,21.8c0,8.1,2.1,12.1,11.3,21.4
				c12.2,12.3,11.5,9.6,11.6,48.6c0.1,18.7,0.5,35.8,1,38.2c0.6,3.1,3.1,6.6,9.5,13.1c10.4,10.8,12.5,14.4,13.2,23.5
				c0.8,9.7-0.2,13.8-5.4,21.6c-2.4,3.6-5.4,9.2-6.6,12.3c-1.2,3.1-4.2,8.6-6.6,12.3c-5.3,7.9-6.5,12.8-4.3,17.3
				c2.3,4.7,6.5,4.7,15.4-0.1c7.5-4,7.5-4,153-3.7c145.5,0.3,145.5,0.3,154.2,5.4c8.7,5.1,8.7,5.1,128.7,5.7
				c119.9,0.6,119.9,0.6,125.6,3.9c12.6,7.6,13.1,7.8,30,8.2c20.2,0.6,27.4-0.7,37.9-6.8c8.2-4.8,8.2-4.8,34.6-5.4
				c26.3-0.6,26.3-0.6,35.1-5.7c8.7-5.1,8.7-5.1,29.2-5.7c20.5-0.6,20.5-0.6,28.7-5.4c4.5-2.6,10-5.4,12.3-6.1
				c2.2-0.8,7.7-3.4,12-5.7c6-3.4,9.8-4.7,16.3-5.5c10.8-1.3,12-1.6,19.7-6.2c3.5-2.1,8.8-4.6,11.7-5.6s7.6-3.3,10.5-5.1
				c3-1.8,9-4.7,13.5-6.3c7.9-3,9.5-4.3,39-32.6c29.8-28.5,34.9-34.3,37.7-42.6c0.8-2.1,3.4-7.2,5.7-11.2c2.4-4,5.4-9.7,6.5-12.5
				s3.4-7.1,4.9-9.6c1.6-2.5,4.4-8,6.2-12.4c1.8-4.3,4.7-9.7,6.4-11.8c6.2-7.9,6.2-8.8,6.2-81.6c0-67.4,0-67.4,5-75.3
				c5-7.9,5-7.9,5.7-33.3c0.7-27.2,1-28.5,7.3-37c3.7-5.1,3.7-5.1,4.5-25c0.4-11,1.1-21,1.6-22.2c0.6-1.2,2.8-5.2,5.1-8.8
				c4-6.3,4.1-7.1,4.9-21.1c0.8-14.5,0.8-14.6,5.6-22.3c9.7-15.5,10.8-22,4.9-26.9c-2-1.6-6-4.3-9.1-6c-5.4-3.1-5.8-3.1-25.4-3.2
				c-21.7-0.1-20.9,0.1-34.1-7.9c-5.3-3.2-6.5-3.4-20.3-3.9c-14.7-0.6-14.7-0.6-23.4-5.7c-8.7-5.1-8.7-5.1-33.9-5.1
				c-27.6,0-25.7,0.4-39.5-8c-5.7-3.4-5.7-3.4-37.8-3.9c-32.2-0.6-32.2-0.6-40.9-5.7c-8.7-5.1-8.7-5.1-33.9-5.1
				c-27.6,0-25.9,0.3-39.5-7.9c-5.3-3.2-6.5-3.4-20.3-3.9c-14.7-0.6-14.7-0.6-23.2-5.6s-8.5-5-22.2-5.2c-14.3-0.2-18.2-1.1-24.4-5.7
				c-6.8-5-11.1-6.1-24.5-6.1c-12.6,0-12.6,0-21.9-5.4s-9.3-5.4-23.4-5.7c-14.8-0.4-15.3-0.5-27.1-7.6c-5.6-3.4-5.8-3.4-26.2-3.9
				c-20.5-0.6-20.5-0.6-29.2-5.7s-8.7-5.1-39.8-5.1c-34.2,0-31.3,0.5-45.3-8c-5.7-3.4-5.7-3.4-32-3.9c-26.3-0.6-26.3-0.6-35.1-5.7
				c-8.7-5.1-8.7-5.1-33.9-5.1c-27.6,0-25.7,0.4-39.5-8c-5.3-3.2-6.5-3.4-20.3-3.9c-14.7-0.6-14.7-0.6-23.3-5.6
				c-8.6-5-8.6-5-22.2-5.2c-14.6-0.1-15.2-0.3-27.8-8c-5.7-3.4-5.7-3.4-27.3-3.6C4035.6,1803.3,4030.7,1803.6,4028.2,1804.8"/>
		</g>
		<g id="Layer_6">
			<path class="st0" d="M7244.2,2472.4c-1.4,1-3.7,4.1-5,6.9c-1.2,2.8-4,8-6.2,11.5c-2.2,3.4-4.6,8.4-5.4,10.9s-3,6.7-4.9,9.4
				s-4.7,8-6.2,11.7s-4.3,9.2-6.2,12.1s-4.3,7.6-5.4,10.3c-1,2.8-3.6,8-5.9,11.5c-2.2,3.5-4.9,8.6-5.8,11.3s-3.8,8.1-6.3,12.3
				c-2.5,4-5.2,9.4-5.9,11.9c-0.8,2.5-3.1,6.7-4.9,9.4c-1.9,2.7-4.7,8-6.2,11.7s-4.3,9.2-6.2,12.1c-1.9,2.9-4.3,7.6-5.4,10.3
				c-1,2.8-3.6,7.9-5.8,11.3c-2.2,3.4-5.2,9.3-6.5,12.9c-1.9,4.9-4.9,9-11,15.4c-6.8,7-9.1,10.4-11.8,17.1c-3,7.5-4.6,9.7-17.4,22.4
				c-13,13-14.5,14.8-17.4,22.5c-2.7,7-4.7,9.9-11.8,17.1c-6.3,6.3-9.2,10.3-11,15.1c-1.3,3.5-2.5,6.9-2.5,7.6
				c0,0.7-6.8,7.9-15,16.1c-13.8,13.7-15.3,15.7-18.3,23.5c-3.1,7.7-4.6,9.7-17.5,22.6c-12.9,12.9-14.5,14.8-17.5,22.6
				c-3.1,7.8-4.6,9.8-17.6,22.8c-12.3,12.4-14.7,15.3-17,21.3c-1.4,3.8-4.4,9.3-6.6,12.1c-5.4,6.8-5.3,10.7,0.5,19.1
				c4.4,6.5,4.5,6.6,5.2,21c0.7,13,1.1,14.9,4,19.9c7.8,12.9,7.9,13.3,8.1,26.7c0.2,11,0.6,13.3,3.1,17.5c7.1,12.3,8,14.6,8.1,18.9
				c0,7.5,2.1,14,6.3,19.9c4.7,6.5,7,15.9,5.9,23.5c-1.1,7.4,1.1,15,5.9,22.2c3.4,5.1,4.4,7.7,5.2,14.9c0.9,7.7,2.1,10.8,9.3,24.7
				c4.6,8.7,9.4,17.5,10.7,19.6c1.5,2.4,2.8,7.1,3.4,13c0.7,5.5,2,10.9,3.4,13.2c1.2,2.2,4.6,8.6,7.5,14.3s6.6,12.5,8.2,14.9
				c2.3,3.4,3.4,7,4.3,13.7c1.1,9.2,3.4,14.2,20.1,44.6c1.8,3.4,3.1,7.5,3.1,10.2c0,7.1,2,13.7,5.7,19.6c1.9,3,4.5,8,5.8,11.3
				s4.2,8.6,6.5,11.9c3.4,5,4.3,7.7,5.4,15.6c0.9,6.6,2.2,11.1,4.3,14.7c7.1,11.8,7.3,12.5,7.7,26.1c0.3,11.3,0.8,13.6,3.3,17.9
				c7.2,12.3,8.1,14.5,8.1,19.4c0,7.3,1.9,13.1,6.4,19.4c4.6,6.5,6.9,15.8,5.9,24c-1,7.7,0.6,13.1,5.7,21.3c3.5,5.6,4.5,8.5,5.5,16
				c1.1,8.5,4,16.7,6.6,18.2c1.9,1.1,4.6,10.1,5.4,17.8c0.6,6.1,1.6,9,5.6,15.2c4.9,7.7,4.9,7.8,5.6,21.9
				c0.6,11.8,1.1,14.9,3.3,18.7c1.4,2.5,4.2,7.8,6.1,11.8s4.6,9.1,5.8,11.3c1.3,2.2,3.9,7.3,5.8,11.3s4.5,9.1,5.8,11.3
				s3.9,7.3,5.8,11.3s4.6,9.4,6,11.9c4,7.2,6.5,12,9.5,18.8c1.7,3.9,5.7,9.4,10.6,14.4c5.3,5.5,8.8,10.3,11,15.1
				c2.9,6.4,9.5,18.8,13.9,25.6c1,1.4,3.6,3.4,5.9,4.5c3.8,1.6,11.6,1.9,72.1,1.9c37.4,0,70.3-0.4,73.4-0.9s8-2.6,11.1-4.6
				c9.5-6.2,10.3-6.3,52.9-6.3c42,0,45.4-0.4,53.4-5.7c2.6-1.7,6-3.5,7.7-4c1.6-0.5,21.7-1,44.5-1c46.5-0.1,40.2,0.9,58.4-8.6
				c6.3-3.4,6.3-3.4,88.7-3.4c100.1,0,89.7,3.4,90.9-29.8c0.5-12.3,0.4-32.5-0.2-44.9c-1.1-22.5-1.1-22.5-5.4-28.5
				c-2.3-3.3-4.8-7.4-5.5-9.2c-0.9-2.2-1.2-37.4-1.2-109.7c0-67.2-0.4-108-1.1-110.5c-0.7-2.1-3.2-7-5.6-10.7
				c-4.4-6.8-4.4-6.8-4-43.6c0.2-21.5-0.2-39.6-0.9-43.4c-0.9-4.6-2.7-8.9-6.2-14.1c-5-7.5-5-7.5-5.7-33
				c-0.6-24.6-0.7-25.7-3.5-30.4c-6.7-11.2-8.1-14.5-8.1-17.8c0-7.1-2.4-15.4-5.7-20.2c-1.9-2.7-4.6-7.7-5.9-10.9
				c-1.3-3.4-4.3-8.9-6.5-12.4c-3.4-5.3-4.2-8-5.3-16.5c-1.1-9-1.7-10.9-6.1-17.4c-4.9-7.3-4.9-7.3-5.1-36.4
				c-0.2-30.8-0.8-34.8-5.8-41.4c-5.7-7.5-5.8-8.1-5.7-55.2c0.1-44.2,0.1-44.2,5.4-53.2c5.2-9,5.3-9.1,5.2-19.9
				c0-10.5-0.2-11.1-4.3-17.6c-2.4-3.7-5.4-9.5-6.8-12.8c-1.3-3.4-4-8.5-5.9-11.4s-4.8-8.4-6.5-12.5c-1.6-4-4-8.6-5.3-10.3
				c-1.2-1.6-3.7-6.7-5.7-11.1c-1.9-4.5-4.8-10-6.4-12.3s-4.2-7.2-5.7-10.9s-4.2-9-5.9-11.7c-1.8-2.7-4-7-4.9-9.6
				c-2.5-6.7-7-13.8-10.1-15.7c-1.4-1-5.8-2.8-9.7-4.2c-3.8-1.3-9.4-4-12.4-5.8s-7.7-4.1-10.5-5.1s-8.6-3.8-12.8-6.2
				c-4.2-2.5-10.1-5.3-13.1-6.2c-4.7-1.5-11.4-7.6-47.9-42.9c-43.2-41.9-46-44.1-58.6-48.1c-3.2-1-8.4-5.2-17.7-14.2
				c-12.9-12.5-18.9-16.5-29.1-19.7c-3.4-1.1-9.3-6.1-23.5-19.9c-16.8-16.4-19.9-19-27-22c-4.4-1.9-9.8-4.3-11.8-5.3
				s-10.6-8.8-19.2-17.4c-17.1-17.4-21.7-21-32.6-24.8c-5.7-2-9.6-4.5-16.2-10.4c-6.3-5.7-11.4-9-18.4-12.2
				c-8.4-3.7-11.5-6-22.9-16.9c-7.2-6.9-15.3-13.5-18-14.8C7253.9,2470.1,7247.8,2470,7244.2,2472.4"/>
		</g>
		<g id="Layer_5">
			<path class="st0" d="M3979.8,2540.3c-1.9,0.7-6.4,3.1-9.8,5.4c-5.7,3.7-9.3,4.8-16,4.4c-21.7-1.1-23.3-0.3-24.5,13.1
				c-0.5,4.8-1.6,10.2-2.5,11.9c-1,1.7-6.9,8-13.2,13.9c-16.1,14.9-17.6,17.4-18.9,29.3c-1.2,11.7-2.8,14.9-11.2,22.4
				c-3.5,3.2-7.9,8.1-9.6,10.9c-3.1,5.1-3.1,5.1-3.4,41.6c-0.2,30.2-0.6,37.1-2.1,39.9c-1,1.8-5.3,6.6-9.4,10.7
				c-10.6,10.3-11.6,12.7-11.3,30.1c0.4,19.6-0.4,23.7-5.6,31.4c-2.4,3.6-5.3,9-6.3,12c-1.1,3-3.9,8.4-6.4,12
				c-4,5.8-4.6,7.6-5.3,15.7c-0.4,5.1-1.5,10.5-2.4,12.3c-2.8,5.1-16,16.9-22.6,19.9c-7.3,3.5-9.8,6.6-9.8,12.4
				c0,9.8-2.2,14.3-11.3,22.8c-10.8,10.3-12.2,13.2-12.2,28c0,16.1-1,18.7-10.1,27.1c-4.2,3.9-9,9.3-10.6,12c-3,4.9-3,4.9-3.2,103.5
				c-0.2,112.5,1,101.4-11.3,112.5c-12.6,11.5-11.7,4.1-11.8,94.6c-0.1,90-1.1,81.6,11.3,94.6c5.1,5.4,8.8,10.6,12,17.2
				c3.4,7,6.4,11.3,11.7,16.4c12,11.6,11.4,9.2,11.8,51.1c0.2,24.4-0.1,38-1,41.1c-1,3.5-3.4,6.8-9.9,12.7
				c-12.7,12.1-13,12.7-12.6,33c0.2,9.3-0.2,18.7-0.9,20.8s-3.3,6.9-5.7,10.7c-2.5,3.8-5.3,9-6,11.4c-0.9,2.5-3.4,7.2-5.6,10.4
				c-3.4,5.1-4.2,7.3-5,15.2c-0.5,5.2-1.4,10.6-2.1,12.3c-0.7,1.6-5.1,6.7-10,11.4c-9.2,8.9-11.3,13-11.3,21.7
				c0,11.7-0.2,11.9-35.2,45.7c-35.3,34.1-35.2,34-48.2,34.2c-3.1,0.1-7.6,0.9-9.9,1.8c-4.8,1.9-86.3,79.7-90.7,86.5
				c-2.3,3.5-2.6,5.9-3.2,24.3c-0.5,15.9-1.1,21.1-2.6,23.8c-2.6,4.5-111.1,109.4-114.5,110.6c-1.4,0.5-6.6,1.2-11.5,1.6
				c-4.9,0.4-10.4,1.4-12.4,2.4c-1.9,1-7.3,5.4-11.9,10c-10.4,10.3-12.4,10.9-35.8,10.4c-15.2-0.3-18.4,0-21.8,1.7
				c-2.3,1.1-15.5,13.2-29.5,26.8c-24.3,23.7-25.6,24.8-29.8,24.7c-6.3-0.1-8.3-1.4-21.7-15.3c-9.9-10.3-12.5-13.8-14.8-19.7
				c-1.5-4-3.8-8.6-5.1-10.3c-2.9-4-10.2-7.6-15.3-7.6c-8.2,0-16.7-2.3-22.6-6.3c-3.4-2.2-8.8-5-12.2-6.2s-8.2-3.6-10.9-5.5
				c-7.8-5.2-11-5.6-40.5-5.3c-23.9,0.2-28.1,0.5-31.6,2.3c-2.3,1.1-22.9,20.2-46,42.3c-44.5,42.9-47.6,46.6-47.6,56.4
				c0,10.3-2.1,14.8-11.1,23.4c-12.7,12.2-12.5,11.6-12.7,40.8c-0.1,22.7-0.3,25.2-2.5,28.7c-3.8,6.3-7.3,8-19.4,9.7
				c-6.1,0.9-12.5,2.1-14,3c-1.5,0.8-9.1,7.4-16.9,14.7c-12.7,12.1-14.8,13.5-22.8,16.5c-8.1,3-9.9,4.3-23.9,17.6
				c-12,11.4-16.1,14.7-19.9,15.7c-3.4,1-15.4,1.2-38.9,1c-34-0.4-34-0.4-37.1,2.4c-1.6,1.5-3.4,3.8-3.7,5.1
				c-0.4,1.3-2.8,5.6-5.4,9.4c-4.2,6.3-4.7,8-5.7,17.4c-1.1,11.7-2.3,14-12,22.3c-3.1,2.7-7,7.2-8.7,10c-3.1,5-3.1,5-2.9,141.2
				c0.2,107.3-0.1,137.2-1.2,141c-1.1,3.4-3.7,6.8-9.5,12.3c-13.1,12.2-12.9,11.5-12.6,44.9c0.3,35,0.2,35.4-10.7,45.5
				c-13.4,12.4-12.6,9-13.1,61.6c-0.5,51.5-0.6,51.2,7.1,50.8c29.5-1.3,39.5-3.1,42-7c0.4-0.6,4.7-2.7,9.8-4.7
				c5-2,11.2-5.1,13.7-6.7c2.6-1.7,7.7-4.1,11.4-5.5c3.7-1.3,8.7-3.6,11.1-5.3c2.4-1.5,7.8-4.1,12-5.7c4.1-1.6,9.7-4.3,12.3-6
				c6.3-4.1,7.9-4.6,18.5-5.7c7.3-0.8,10.4-1.8,15.9-5.1c3.7-2.2,9.6-5.1,13-6.3s8.4-3.7,11-5.5c6.4-4.2,8-4.7,18.6-5.7
				c7.5-0.8,10.3-1.6,15.8-4.9c3.7-2.2,9.6-5.1,12.9-6.4c3.4-1.3,8.4-3.8,11-5.6c6.6-4.3,8.1-4.8,18.7-5.8
				c6.9-0.7,10.3-1.7,13.9-3.9c2.6-1.6,9.5-5.3,15.3-8s12.6-6,15-7.4c2.7-1.4,7.9-2.7,13.5-3.3c8.5-0.9,15.7-3.2,17.2-5.7
				c0.4-0.6,4.7-2.7,9.8-4.7c5-2,11.2-5.1,13.7-6.7c2.6-1.7,7.9-4.2,11.7-5.6c3.8-1.3,8.9-3.6,11.2-5.2c2.3-1.4,8.3-4.3,13.3-6.3
				c8.2-3.3,10.7-5.2,23.9-17.4c10.5-9.9,16.1-14.2,19.4-15.2c8.2-2.6,12.8-5.4,21.8-13.2c6.4-5.7,11.1-8.6,17.1-10.9
				c6.2-2.4,10.4-5.2,17.5-11.5c7.7-6.8,10.7-8.7,17.2-10.8c7.4-2.4,9.2-3.6,23.3-16.9c13.3-12.4,16.3-14.7,22.8-17
				c5.7-2.1,9.7-4.7,16.6-10.9c6.6-5.9,10.9-8.9,15.9-10.6c3.7-1.3,9.2-3.9,12.2-5.7c3-1.8,8.7-4.6,12.7-6.1s9.8-4.3,12.7-6.1
				c3-1.8,7.7-4.1,10.3-5c8.2-2.8,11.9-5.1,20-12.5c5.6-5.1,10.2-8,15.4-10.2c4.1-1.6,9.5-4.2,11.8-5.7s7.5-4,11.6-5.7
				c9.5-3.5,11.9-5.2,20.6-13.2c4.8-4.4,9.5-7.6,14.5-9.5c4-1.5,9.2-4.1,11.6-5.7c2.4-1.5,7.6-4,11.6-5.7c4-1.5,9.8-4.4,12.9-6.2
				c3.1-1.8,8.6-4.5,12.5-5.8c4.8-1.8,9.6-5,16.1-10.7c6.6-5.8,11.1-8.9,16-10.6c3.7-1.3,9.7-4.1,13.4-6.3c3.6-2.2,8.9-4.7,11.7-5.7
				s7.5-3.3,10.4-5.1c3-1.8,8.7-4.6,12.7-6.1s9.8-4.3,12.7-6.1c3-1.8,8.5-4.5,12.3-5.8c5-1.8,9.4-4.8,16.2-10.8
				c6.6-5.9,11.2-9,15.9-10.7c3.6-1.3,9-3.8,12-5.7c3-1.8,8.6-4.6,12.6-6.2c4-1.5,9.2-4.1,11.6-5.7c2.4-1.5,7.5-3.9,11.3-5.5
				c3.8-1.5,9.6-4.3,12.7-6.2c3.2-2,8.5-4.6,11.8-5.7c3.4-1.2,8.5-3.7,11.7-5.7c3.1-1.9,7.5-4,9.8-4.7s7.7-3.3,11.8-5.7
				c4.2-2.4,10-5.2,12.8-6.1s7.7-3.3,10.6-5.2c3-1.8,8.8-4.7,12.8-6.3c4.1-1.6,9.6-4.3,12.2-6c6.3-4.1,8-4.7,18.5-5.7
				c7.5-0.8,10.3-1.6,16-5c3.8-2.3,9.2-4.9,11.9-5.8c2.8-1,7.5-3.3,10.4-5.1c3-1.8,8.8-4.7,12.9-6.3s10-4.4,13-6.3
				c4.2-2.6,8.1-3.8,16.2-5c6.4-1,12.1-2.5,14.4-3.8c2-1.2,7.1-3.8,11.3-5.7c4.2-1.9,9.5-4.5,11.7-5.7c2.3-1.2,7.5-3.7,11.7-5.7
				c7.7-3.4,10.5-4.9,19.4-9.7c3.2-1.7,8-3,14.4-3.6c8-0.9,10.8-1.7,16.9-5.4c6.9-4.1,7.8-4.3,21.3-5.2c15.8-1.1,18.4-1.6,25.5-6.3
				c2.8-1.8,8.1-4.4,12-5.8c3.8-1.3,9.4-4,12.4-5.7c3-1.8,7.6-4,10.3-5s8.2-3.6,12.2-5.9c7-4.2,7.4-4.3,21.8-5
				c16.1-0.8,17.1-1.1,24.3-5.7c6.5-4.2,9-5.1,19.6-6.5c6.9-1,10.6-2.2,15.6-5.2c6.8-4.1,18.2-6.9,22.5-5.7c5.5,1.6,16-0.8,24.1-5.5
				c7.9-4.6,8-4.7,22.8-5.5c12.9-0.7,15.5-1.1,19.9-3.6c11.8-6.7,13.9-7.6,23.1-8.5c7.8-0.9,10.7-1.7,16.3-5.1
				c8.1-4.9,14.2-6.3,26.2-6.3c9.6,0,14.9-1.7,16.8-5.4c0.6-1.1,1.2-20.9,1.6-43.9c0.6-41.9,0.6-41.9,5.1-48.9
				c6.2-9.9,6.9-17.5,6.5-70.5c-0.4-48.6-1.3-41.9,7.7-58.2c2.9-5.2,3.1-6.5,3.1-20.9c0-18.4,1.1-23.5,6.7-32.3
				c4.1-6.5,4.3-7.1,5-21.1c0.8-14.4,0.8-14.4,5.7-22.2c4.1-6.6,5.1-9.4,6.1-17.2c1.1-9.1,2.7-13.2,6.9-19.3c1.1-1.5,2.9-5.1,4-8
				c1.1-2.8,4.1-8.4,6.7-12.5c3.8-6.2,4.8-9,5.7-16.8c0.8-6.5,2-10.7,4-14c8.2-13.3,8.1-12.8,8.2-38.1c0.1-21.5,0.3-23.6,2.6-27.7
				c10.1-18.3,9.2-13.1,9.4-51.8c0.2-32.2,0.4-35.3,2.5-39c9.9-17.8,8.9-12.8,9.1-51.3c0.1-32.7,0.2-34.9,2.5-39
				c9.9-17.9,8.9-13.9,9-40.4c0.1-23.9,0.1-23.9,5.3-32.4c5.2-8.4,5.2-8.4,5.9-22.8c0.8-14.3,0.8-14.4,5.7-22.1
				c4.1-6.6,5.1-9.3,6.1-17.3c1.1-8,2-10.7,6.1-17.4c4.9-7.9,4.9-7.9,5.5-33.4s0.6-25.5,5.7-33.8c3.5-5.7,5.5-10.3,6.1-14.7
				c0.6-3.5,0.9-27.8,0.7-53.9c-0.3-47.5-0.3-47.5,4.9-55.9c5.3-8.4,5.3-8.4,5.9-22.7c0.7-14.3,0.7-14.3,5.5-22.1
				c2.7-4.3,5.7-10.1,6.9-12.9c1.1-2.8,3.8-8,6-11.4c2.8-4.4,4.3-8.7,5.2-14.2c0.7-4.7,1.1-30.7,0.9-65c-0.2-38.9,0.1-58.1,1-60
				c0.7-1.5,3.2-5.8,5.5-9.6c4.2-6.7,4.2-6.7,4.2-23.2c0-18.8,0.9-22.8,6.8-32.2c4.2-6.7,4.2-6.7,4.9-26.1c0.7-20.8,0.4-20,8.9-34
				c3.4-5.7,3.4-5.7,3.6-29.4c0.2-24.9,0.7-27.7,5.7-34.1c5.1-6.4,5.5-8.8,5.3-32.8c-0.2-25,0.1-26.3,7.2-36.3
				c3.8-5.4,3.8-5.4,4.4-25.9c0.6-20.4,0.6-20.4,4.9-27.1c5.3-8.2,6.8-13.6,6.8-23.3c0-9.2-2.3-12.5-11.3-16.4
				c-3.4-1.4-8.4-4-11.1-5.7c-4.9-3.2-4.9-3.2-120.8-3.4c-63.7-0.1-117.7-0.3-120-0.3c-2.8,0-7.1-1.7-13.1-5.2
				c-9-5.2-9-5.2-148.5-5.4C4024.5,2539.1,3982.4,2539.4,3979.8,2540.3"/>
		</g>
		<g id="Layer_4">
			<path class="st0" d="M4544.5,2726.2c-1.4,0.6-3.5,2.4-4.7,4.1c-1.9,2.8-2.1,5.9-2.1,29.2c0,28.8,0.9,25-9.4,40.6
				c-2.1,3.2-2.4,5.7-2.6,22.2c-0.2,19.8-0.9,22.8-6.1,29.3c-5,6-5.4,8-5.4,28.4c0,16.7-0.3,19.1-2.4,22.2
				c-10.3,15.7-9.3,7.7-9.6,77.3c-0.1,34.5-0.6,64.4-0.9,66.3c-0.4,1.9-2.3,5.7-4.2,8.3c-2,2.6-5.1,8.3-6.9,12.6s-4.6,9.5-6.3,11.6
				c-3.9,5-5.9,12.9-5.1,20.7c1.1,9.6-0.8,16.4-6.5,24.1c-5,6.9-5,6.9-5,60.8c0,52-0.1,54-2.3,57.5c-10.3,15.6-9.4,12-9.5,38.3
				c-0.1,13-0.5,25-1,26.5s-2.8,5.5-5,8.7c-3.5,5.1-4.2,7.2-5.2,15.7c-0.6,5.9-1.8,11.1-3.1,12.9c-9.5,14.4-9.1,13.1-9.1,26.5
				c-0.1,14.3-0.6,16.2-5.7,23.2c-5.7,7.7-6.3,11.1-5.7,35.3c0.7,24.2,1.1,21.9-8.4,36.7c-3.5,5.5-3.5,5.5-3.6,41.3
				c-0.2,39.5,0.2,37.2-8,48.6c-3.5,4.9-3.5,4.9-3.5,41.7c0,34.9-0.1,37.1-2.3,40.4c-10.3,15.6-9.3,11.8-10,40.5
				c-0.6,26.1-0.6,26.1-5.6,33.2c-4.2,6.1-5,8.1-5,13c0,8.6-1.6,13.9-6.2,20.4c-2.3,3.2-5,8-5.9,10.9c-1.1,2.8-3.8,8.3-6.3,12.5
				c-3.9,6.3-4.6,8.5-5.2,16.2c-0.4,5.7-1.3,10-2.8,12.1c-9.7,14.7-9.1,13.2-9.2,26.6c-0.1,14.3-0.6,16.2-5.8,23.2
				c-5.6,7.4-6.4,11.8-5.7,28.2c0.8,16.6-0.2,21.4-5.9,28.6c-2.2,2.8-4.6,7.2-5.4,9.9c-0.9,3.3-1.2,20.5-1.1,54.8
				c0.1,27.5-0.2,51.1-0.8,52.3c-0.5,1.2-3.1,5.3-5.7,8.8c-4.8,6.6-4.8,6.6-5.2,38.3c-0.3,23,0,32.7,1.1,35.1
				c2.3,5.3,6.9,6.9,18.6,6.4c9.5-0.4,10.7-0.7,17.6-4.9c7.4-4.4,7.8-4.5,22.3-5.4c15.3-0.9,16.7-1.2,27.9-8
				c3.4-2.1,6.5-2.6,18.9-3.2c14.8-0.7,14.8-0.8,24-5.7c9.2-5,9.2-5,29.8-5.6c20.6-0.6,20.6-0.6,27.3-4.9c9.5-6.1,11.5-6.6,26.1-7
				c8.9-0.2,14.1-0.9,16.4-2.1c17.8-9.3,15.6-8.7,33.6-8.7c18.9,0,21.9-0.7,31.7-6.5c7.1-4.2,7.1-4.2,25-3.9c25,0.4,35.3-1,42.8-5.7
				c8.9-5.7,12.3-6.4,29.8-6.4c18.1,0,22.6-1,31-6.2c7.3-4.6,13.5-6,26.1-6c11,0.1,13.3-0.5,19.7-4.7c6.7-4.4,11.5-5.7,21.6-5.7
				c12.6-0.1,17.9-1.3,26.2-6.3c7.3-4.4,7.3-4.4,32.8-4.6c27.9-0.3,25.6,0.2,41.9-8.4c6.4-3.4,6.4-3.4,33.3-2.8
				c14.8,0.4,31.5,0.2,37.3-0.4c9.3-1,11.1-1.5,18.1-5.9c7.8-4.9,7.8-4.9,30.6-5.1c29.1-0.3,31-0.6,39.9-6.3
				c7.3-4.8,7.3-4.8,34.4-5.4c27-0.6,27-0.6,35.2-5.7c8-5.1,8-5.1,33.2-5.2c27.5-0.1,28.3-0.3,38.5-7c6.3-4.2,6.3-4.2,38.6-4.7
				c35.2-0.6,33.4-0.3,45.1-7.9c4.5-2.9,5-3,31-3.5c26.4-0.6,26.4-0.6,32.3-3.8c14.4-8.1,11.7-7.7,43.6-7.5
				c31.8,0.1,33.2-0.1,43.4-6.6c6.2-4,6.2-4,43.3-4c41.3-0.1,35.8,0.8,53.8-8.5c6.2-3.3,6.2-3.3,41.5-3.1
				c39.4,0.3,37.2,0.6,51.5-8.5c5.3-3.4,6.5-3.6,17.5-4c6.5-0.2,13.3-1,15.1-1.6c4.5-1.6,6.7-6.3,6.7-14.2c0-8.8-1.7-14.2-6.8-21.7
				c-4.3-6.2-4.3-6.2-3.9-38.6c0.2-17.8-0.1-39.8-0.7-48.8c-1.1-16.5-1.1-16.5-5.8-24.2c-2.7-4.3-4.9-8.8-4.9-10.2
				c0-1.2-0.2-53-0.3-114.9c-0.3-123.4,0.2-115.2-7-124.7c-4.2-5.6-4.6-7-5.5-21.9c-0.6-8.8-1.4-14.8-2.7-17
				c-9.4-16.8-9-15.8-9-28.6c0-10.6-0.4-12.6-2.9-17.1c-8.7-15.4-8.8-15.8-8.8-26.5c0-12-1.3-17.3-5.9-24.3
				c-1.8-2.8-4.2-7.4-5.2-10.2c-1.1-2.8-3.9-8.1-6.5-12c-4-5.9-5-8.5-6.3-17.4c-1.3-8.4-2.5-11.8-5.9-17.1
				c-3.4-5.4-4.5-8.4-5.3-15.2c-1.2-10.6-1.7-12.3-5.9-18.1c-4.5-6.3-5.5-9-6.7-19.2c-0.9-6.4-2-10.1-4.7-14.3
				c-5.2-8-6.3-13.8-5.7-28.5c0.4-10.2,1.1-13.7,3-17.2c10.1-18.4,9.1-10.4,9.1-75.1c0-52.8-0.2-58.6-2-61.8
				c-1.4-2.6-5.3-5.3-14.6-10.2c-12.6-6.6-12.6-6.6-25.5-6.7c-15.2-0.2-16.7-0.6-25.6-6.6c-6.9-4.7-6.9-4.7-22.2-5.3
				c-15.3-0.6-15.3-0.6-23.7-5.5c-7.2-4.2-9.7-5-17.5-5.7c-9.5-1-11.6-1.6-19.6-6.8c-2.6-1.6-7.3-3.9-10.5-5.1
				c-3.3-1.1-7.8-3.4-10.2-4.8c-2.4-1.5-8-4.2-12.6-6s-10.1-4.5-12.1-5.9c-5.1-3.6-7-4.2-17.5-5.3c-7.6-0.8-10.3-1.6-17-5.6
				c-4.3-2.6-10.2-5.4-12.9-6.3c-2.8-1-8-3.4-11.7-5.7c-3.6-2.2-9-4.8-11.8-5.8c-2.9-1.1-8-3.6-11.6-5.7c-7.6-4.4-12.1-5.4-21.2-4.6
				c-10.2,0.9-16.8-0.8-24.8-6.1c-7.1-4.8-7.1-4.8-22.5-5.4c-15.4-0.6-15.4-0.6-24.1-5.7c-9.3-5.5-9-5.4-32.8-5.7
				c-2.5,0-6.6-1.5-10.3-3.7c-3.4-2-7.7-4.4-9.4-5.4c-2-1.1-8-1.8-17.7-2.3c-14.7-0.6-14.7-0.6-23.4-5.7c-8.7-5.1-8.7-5.1-28.1-5.2
				c-21.2,0-22.9-0.5-32.6-7.6c-5.1-3.7-5.1-3.7-38-4.3s-33-0.6-41.7-5.7c-8.7-5.1-8.7-5.1-33.9-5.1c-27.6,0-25.6,0.4-39.5-8
				c-5.6-3.4-5.7-3.4-24.3-3.5c-20.4-0.2-22.5-0.7-32-7c-6.3-4.2-6.3-4.2-25.8-4.2c-10.7,0-20.8-0.5-22.4-1.1c-1.6-0.5-6-3-10-5.6
				c-7-4.6-7-4.6-22.2-5.2c-15.2-0.6-15.2-0.6-23.4-5.4c-4.5-2.6-10.4-5.6-13.2-6.5c-2.8-1-6.4-2.7-8.1-3.8
				c-6.5-4.4-11.2-6-20.2-6.9c-7.8-0.8-10.4-1.6-16.3-5.1c-3.8-2.3-10.1-5.4-13.7-6.7c-3.6-1.4-9.2-4.1-12.4-6
				c-3.1-1.9-8.3-4.4-11.7-5.5c-5.4-1.8-9.7-5.5-36.5-31.1c-18.6-17.8-31.5-29.3-33.3-29.7C4548.5,2725.5,4546,2725.6,4544.5,2726.2
				"/>
		</g>
		<g id="Layer_3">
			<path class="st0" d="M6914.6,2942.7c-3.4,1.5-9.6,3.1-14.3,3.4c-7.1,0.7-9.4,1.5-16,5.7c-8.5,5.5-15.1,6.9-25.5,5.7
				c-8-1-13.5,0.5-21.4,5.7c-5.5,3.6-7.5,4.3-16.5,5.2c-6.1,0.6-11.5,1.8-13.4,3c-15.6,9.6-8.9,8.7-68.4,8.8
				c-29.6,0-54.6,0.2-55.7,0.3s-5,2.3-8.9,4.8c-5,3.3-9,4.9-13.9,5.7c-4.1,0.7-51.6,1-115.9,0.9c-109-0.2-109-0.2-114.1,3.4
				c-11.4,8.2-4.1,7.6-85.4,7.6c-82,0-72-0.9-84.1,7.7c-3.4,2.5-4.7,2.6-37.4,3.1c-32.8,0.6-33.8,0.7-37.1,3.1
				c-1.8,1.4-5.7,3.9-8.5,5.7c-5.3,3.2-5.3,3.2-35.6,2.8c-18.8-0.2-31.6,0.1-33.5,0.8c-1.7,0.7-5.6,3-8.4,5.1
				c-7.8,5.7-13.7,6.5-45.3,6.1c-25.6-0.3-27.5-0.2-30.9,1.9c-16.1,9.9-12.8,9-35.5,9c-17.7,0-20.9,0.3-23.4,2
				c-10.9,7.6-11.4,7.8-22.4,9.1c-9.8,1.1-11.8,1.8-17.6,5.7c-6.6,4.4-12.7,6.1-22.5,6.2c-3.6,0.1-6.6,1.2-12.2,4.9
				c-7.4,4.8-7.4,4.8-23.6,5.5c-15.9,0.6-16.2,0.7-21.2,4.3c-7.6,5.6-11.2,6.8-21.1,7.6c-8,0.7-9.9,1.2-16.2,5.4
				c-6.6,4.3-7.9,4.7-17.6,5.4c-9.3,0.7-11,1.1-15.4,4.3c-9.1,6.6-11.3,7.4-21.9,7.4c-10.5,0-13.6-1-22.5-7.2
				c-2.5-1.7-7.3-4.1-10.6-5.2c-3.4-1.1-8.7-3.5-11.9-5.6c-3.3-2-8.5-4.5-11.7-5.7c-3.3-1.1-7.4-3.1-9.2-4.3
				c-1.8-1.2-7.1-3.8-11.7-5.8c-4.6-1.9-10.7-4.9-13.8-6.6c-3-1.7-8.5-4.3-12.3-5.7c-3.7-1.4-8.9-3.9-11.4-5.6
				c-5.4-3.5-11.2-5.3-17.9-5.3c-6.2,0-9.8-1.3-18.7-7c-4-2.5-9.6-5.3-12.5-6.1c-4.8-1.4-5.6-1.3-8,0.6c-2.7,2.1-2.7,2.1-2.8,63.2
				c-0.1,57.8-0.3,61.3-2.3,64.5c-8.3,12.7-8.7,13.7-9.5,21.5c-0.9,10,0.9,16.7,6.2,24.5c3.4,5.1,4.4,7.7,5.4,15.5
				c1.1,8.7,4,16.9,6.7,18.4c1.9,1.1,4.6,10.1,5.4,17.8c0.6,6.1,1.6,9,5.5,15.1c3.9,6.2,4.9,9.1,5.7,16.2c0.9,7.4,2.1,10.7,9.3,24.4
				c4.6,8.7,9.4,17.6,10.8,19.8c2.1,3.4,2.7,6.2,3.2,18.1c0.6,12.6,1,14.7,3.7,19.3c8.5,14,8.3,13.3,8.7,27.7
				c0.4,13.5,0.4,13.5,5.3,21.5c4.9,7.9,4.9,7.9,5.7,22.3c0.8,14.4,0.8,14.5,5.6,22.1c2.6,4.2,5.4,10.3,6.1,13.3
				c1,4,1.2,38,1.1,116.7c-0.3,111-0.3,111,4.9,119.3c5.2,8.2,5.2,8.2,5.7,56.4c0.6,48.1,0.6,48.1,3.7,53.2
				c7.5,12,8.4,14.7,8.1,24.9c-0.3,12,1.1,16.5,5.8,18.8c5.1,2.6,11.1,1.4,19.7-3.7c7.3-4.4,7.3-4.4,34.4-4.9
				c27-0.6,27-0.6,35.1-5.6c8-5.1,8-5.1,44.9-5.2c40.4-0.1,39.5,0,50.3-7.2c6.3-4.2,6.3-4.2,45.1-4.7c38.8-0.6,38.8-0.6,46.8-5.7
				c8-5.1,8-5.1,37.9-5.3c18-0.1,31.5-0.7,33.9-1.4c2.2-0.7,7.2-3.2,11.1-5.5c7.1-4.2,7.1-4.2,33.3-4.8c26.3-0.6,26.3-0.6,32.2-3.8
				c12.9-7.3,9.2-6.8,55-6.8c47.1-0.1,40.9,0.9,59-8.6c6.3-3.4,6.3-3.4,46.9-3.4c44.2,0,44.5,0,54.7-6.6c6.2-3.9,6.2-3.9,66.1-4.1
				c65.7-0.2,62.7,0.1,74.4-7.3c6.3-4,6.3-4,44.5-4.6c21-0.3,39.2-1.1,40.4-1.6s5.2-2.9,8.7-5.1c6.3-4,6.3-4,40.9-3.6
				c19.3,0.2,39.2-0.2,45-0.9c9.1-1.1,11.3-1.7,17.7-5.7c4.9-3.1,9.4-5,13.6-5.6c3.4-0.6,19.7-0.7,36.1-0.4
				c33.1,0.7,34.8,0.5,45.4-6.3c6.2-4,6.2-4,77.8-4.1c78.6-0.1,74.2,0.3,86.1-7.3c6.3-4,6.3-4,112.9-4s106.6,0,113.1,4.1
				c10,6.4,12.7,6.8,39.6,6.4c20.6-0.3,24.5-0.7,27.2-2.4c4.1-2.6,4.2-7.9,0.2-13.5c-1.6-2.3-4.7-8-6.9-12.5
				c-2.7-5.7-6.2-10.6-10.9-15.4c-3.8-3.8-7.6-8.1-8.2-9.5c-0.7-1.3-4.5-9.1-8.4-17.2c-3.9-8-8.2-16.5-9.5-18.7
				c-1.2-2.2-4.9-9-8-15.2c-3.2-6.2-6.5-12.5-7.5-14.2c-1-1.5-3.5-6.4-5.7-10.7s-5.5-10.6-7.3-13.9c-2.9-5.3-3.4-7.5-3.8-19.5
				c-0.6-13-0.8-13.9-4.6-20c-4.3-6.9-5.7-11.7-6.8-21.9c-0.5-5-1.7-8-5.4-13.2c-4-5.8-4.9-8.1-6.1-17c-1.2-8.5-2.2-11.4-6-17.3
				c-4.6-7.2-4.6-7.2-5.3-21.8c-0.4-8-1.1-15.5-1.6-16.4c-0.6-1-2.8-4.3-5-7.5c-3.3-4.7-4.3-7.7-5.6-16.1c-1.2-8-2.6-12-6-18
				c-4.3-7.5-4.5-8-5.1-21.8c-0.4-7.8-1.1-14.9-1.6-15.8c-0.6-1-2.9-4.3-5-7.5c-3.2-4.6-4.3-7.8-5.7-15.8
				c-1.6-10.1-3.8-15-20.6-45.7c-1.1-2.2-2.7-7.9-3.3-12.6c-0.8-6.2-2.1-10.4-4.6-14.8c-1.9-3.3-4.7-8.7-6-12.1
				c-1.3-3.4-3.9-8.1-5.7-10.7c-4.3-6.2-5.7-10.2-6.7-18.3c-0.6-5.1-2.7-10.5-8.4-22c-4.2-8.4-8.9-17.1-10.4-19.4
				c-1.9-2.8-3.4-7.5-4.4-14.5c-1.1-7.5-2.6-12-5.2-16.4c-2-3.4-4.4-8.3-5.4-11s-3.9-8.1-6.5-12c-4-6-5-8.6-6.3-17.4
				c-1.3-8.5-2.4-11.7-6-17.2c-4.4-6.8-4.4-6.9-5-21.6c-0.3-8-1.1-15.4-1.6-16.4c-0.6-1-2.9-4.3-5.1-7.5c-3.3-4.8-4.3-7.8-5.7-16.2
				c-1.1-7.4-2.6-12-4.9-15.7c-5.3-8.4-6-11.4-6.1-23.6c-0.1-12.9-0.8-15.4-6.8-23.9c-4.2-5.9-4.2-6-5-20.9
				c-0.9-16.4-2.3-20.9-7.6-23.2C6922.3,2939.6,6921.4,2939.7,6914.6,2942.7"/>
		</g>
	</g>
</g>
<text transform="matrix(1 0 0 1 240.5566 473.2554)" class="st1 st2">Lugait</text>
<text transform="matrix(1 0 0 1 373.5259 2214.2939)" class="st3 st1 st2">LEGEND</text>
<ellipse class="st4" cx="314" cy="2507.5" rx="59.5" ry="58.2"/>
<ellipse class="st5" cx="314" cy="2697" rx="59.5" ry="58.2"/>
<ellipse class="st6" cx="314" cy="2886.4" rx="59.5" ry="58.2"/>
<ellipse class="st7" cx="314" cy="3075.9" rx="59.5" ry="58.2"/>
<ellipse class="st8" cx="314" cy="3265.3" rx="59.5" ry="58.2"/>
<ellipse class="st9" cx="314" cy="3454.8" rx="59.5" ry="58.2"/>
<ellipse class="st10" cx="314" cy="3644.2" rx="59.5" ry="58.2"/>
<ellipse class="st11" cx="314" cy="3833.7" rx="59.5" ry="58.2"/>
<ellipse class="st12" cx="314" cy="4023.1" rx="59.5" ry="58.2"/>
<ellipse class="st13" cx="314" cy="4212.5" rx="59.5" ry="58.2"/>
<ellipse class="st14" cx="314" cy="4401.9" rx="59.5" ry="58.2"/>
<ellipse class="st15" cx="314" cy="4591.3" rx="59.5" ry="58.2"/>
<ellipse class="st16" cx="314" cy="4780.8" rx="59.5" ry="58.2"/>
<ellipse class="st17" cx="314" cy="4970.2" rx="59.5" ry="58.2"/>
<ellipse class="st18" cx="314" cy="5159.7" rx="59.5" ry="58.2"/>
<text transform="matrix(1 0 0 1 441.8042 2552.7705)" class="st19 st1 st20">Barangay Halls</text>
<text transform="matrix(1 0 0 1 442.0757 2737.5566)" class="st21 st1 st20">Health Centers</text>
<text transform="matrix(1 0 0 1 437.5283 2929.6211)" class="st22 st1 st20">Road (FMR)</text>
<text transform="matrix(1 0 0 1 441.4736 3111.5879)" class="st23 st1 st20">H20 System</text>
<text transform="matrix(1 0 0 1 450.811 3302.5088)" class="st24 st1 st20">MOWDIR</text>
<text transform="matrix(1 0 0 1 450.811 3495.0254)" class="st25 st1 st20">Market</text>
<text transform="matrix(1 0 0 1 450.811 3495.0254)" class="st26 st1 st20">Market</text>
<text transform="matrix(1 0 0 1 450.2095 3682.3369)" class="st1 st20">Flood Control</text>
<text transform="matrix(1 0 0 1 458.9453 3875.4658)" class="st27 st1 st20">Streetlights</text>
<text transform="matrix(1 0 0 1 452.7271 4065.8828)" class="st28 st1 st20">Bridges</text>
<text transform="matrix(1 0 0 1 450.2095 4252.8096)" class="st29 st1 st20">Road Widening</text>
<text transform="matrix(1 0 0 1 450.2095 4438.4658)" class="st30 st1 st20">Hospitals</text>
<text transform="matrix(1 0 0 1 450.2095 4625.3037)" class="st31 st1 st20">Daycare Center</text>
<text transform="matrix(1 0 0 1 450.2095 4828.1191)" class="st32 st1 st20">Pedestrian Overpass</text>
<text transform="matrix(1 0 0 1 457.4785 5010.6865)" class="st33 st1 st20">Covered Courts</text>
<text transform="matrix(1 0 0 1 450.2095 5195.4004)" class="st34 st1 st20">School Buildings</text>
<text transform="matrix(1 0 0 1 3020.2642 3512.9231)" class="st1 st35">Poblacion</text>
<text transform="matrix(1 0 0 1 3405.7061 2170.9338)" class="st1 st35">Biga</text>
<text transform="matrix(1 0 0 1 5513.5024 1082.0078)" class="st1 st35">Upper Talacogon</text>
<text transform="matrix(1 0 0 1 4165.9009 745.0239)" class="st1 st35">Calangahan</text>
<text transform="matrix(1 0 0 1 6839.3828 1912.0989)" class="st1 st35">Aya-aya</text>
<text transform="matrix(1 0 0 1 7491.897 3905.6414)" class="st1 st35">Betahon</text>
<text transform="matrix(1 0 0 1 6175.083 4023.0547)" class="st1 st35">Kaluknayan</text>
<text transform="matrix(1 0 0 1 4578.2783 4282.9854)" class="st1 st35">Lower Talacogon</text>
<ellipse class="st10" cx="4022.4" cy="3454.8" rx="59.5" ry="58.2"/>
</svg>
