<?xml version="1.0" encoding="utf-8"?>
<!-- Generator: Adobe Illustrator 27.1.0, SVG Export Plug-In . SVG Version: 6.00 Build 0)  -->
<svg version="1.1" id="Layer_1" xmlns="http://www.w3.org/2000/svg" xmlns:xlink="http://www.w3.org/1999/xlink" x="0px" y="0px"
	 viewBox="0 0 7838.4 5196.3" style="enable-background:new 0 0 7838.4 5196.3;" xml:space="preserve">
<style type="text/css">
	.st0{fill-rule:evenodd;clip-rule:evenodd;fill:#FBFAFB;}
	.st1{fill-rule:evenodd;clip-rule:evenodd;fill:#9C14E4;}
	.st2{fill:#0B0BF9;stroke:#FFFFFF;stroke-width:0.8282;stroke-miterlimit:8.2818;}
	.st3{fill:#F9F912;stroke:#FFFFFF;stroke-width:0.8282;stroke-miterlimit:8.2818;}
	.st4{fill:#F70D34;stroke:#FFFFFF;stroke-width:0.8282;stroke-miterlimit:8.2818;}
	.st5{fill:#8800FF;}
	.st6{font-family:'ArialMT';}
	.st7{font-size:115.9448px;}
	.st8{fill:#7400EF;}
	.st9{fill:#7F00EF;}
	.st10{fill:#8703EF;}
	.st11{font-size:124.2266px;}
	.st12{font-size:165.6355px;}
</style>
<path class="st0" d="M2456.9,1135.9c-0.1,2.7-2.8,10.4-6.2,17.3c-6.1,12.4-6.1,12.4-7,39.9c-0.8,28.3-1.2,30.1-8.1,40
	c-1.8,2.6-5,9.2-7,14.7c-2.1,5.5-5.7,13.4-8.2,17.5c-3.4,5.7-4.7,10.3-5.7,19.8c-1.6,14.7-2.1,16.2-8.4,26.7c-4,6.5-5.2,10.7-6.7,22
	c-1.3,10.4-2.9,16-6,21.8c-6,10.8-6.5,12.5-8,26.4c-1.2,10.6-2.2,13.8-7.3,22.3c-5.1,8.4-6.2,11.9-7.7,23.8c-1.4,10.8-3,16.1-7,24
	c-2.9,5.6-6.5,13.4-7.8,17.3c-1.4,3.9-4.4,10-6.7,13.7c-2.2,3.6-5.5,10.7-7.3,15.7c-1.7,5.1-5.1,12.5-7.4,16.6
	c-2.3,4.1-5.5,11.1-7,15.6c-1.6,4.4-4.8,11.1-7.1,14.8c-2.4,3.7-5.2,9.4-6.3,12.8c-1.8,5.6-14.1,32.8-20,44.4
	c-1.6,3-6,12.6-9.8,21.2c-4.9,11-9.7,18.8-15.8,26c-6,7-10.6,14.6-14.5,23.6c-3.9,9.1-8.4,16.5-14.4,23.4
	c-8.4,9.8-11.9,16.6-32.8,63.9c-0.8,1.9-6,8.8-11.3,15.3c-6.8,8.2-10.8,14.7-13.1,21.3c-2.4,6.9-6.2,13-14,22.3
	c-7.5,8.9-11.6,15.5-13.7,21.5c-1.7,4.8-5.5,13-8.6,18.1s-6,11.2-6.6,13.3s-4.1,10.3-7.8,18.1c-3.7,7.8-8.2,17.9-10.1,22.4
	c-1.9,4.8-7.4,12.9-12.8,19c-6.5,7.5-10.5,13.7-13.1,20.5c-2,5.4-6,13.4-8.7,17.8c-2.7,4.4-5,8.7-5,9.4c0,2.2-21.7,49.4-25.5,55.4
	c-1.8,2.9-4.5,9-5.9,13.5c-3.5,11.3-5.9,14.8-11.6,16.8c-4.5,1.6-6.2,1.2-18.1-4.6c-7.3-3.6-15.8-8.2-19-10.4
	c-3.1-2.2-9.4-5.4-14-7.3c-4.6-1.8-11.6-5.5-15.6-8.3c-4-2.7-11.8-7-17.5-9.5c-7.6-3.5-12.7-7.2-20.3-15.2
	c-7.3-7.7-12.3-11.6-18.1-13.9c-4.5-1.8-11.7-5.6-16.1-8.4c-4.4-2.8-10.4-6-13.3-7c-2.9-1-9.1-4.4-13.8-7.5s-13-7.6-18.5-10.1
	c-5.5-2.5-11.8-6.2-14.2-8.3c-9.5-8.6-18.7-21.9-22.4-32.1c-2.1-5.7-5.4-12.6-7.4-15.2c-3.6-4.7-3.6-4.7-2-0.5
	c2.3,5.9-1.3,11.6-10.1,15.7c-6.4,3.1-7,3.1-10.9,0.7c-4.1-2.6-4.1-2.6-0.5,2.1c2,2.6,5.1,8.8,6.8,13.7c3.1,9,3.1,9-2.2,23.2
	c-2.9,7.8-7.8,18.7-10.8,24.3c-3.1,5.6-6.3,12.8-7.2,15.9c-0.9,3.1-3.9,9.1-6.7,13.3c-2.7,4.2-6.5,12.2-8.1,17.7
	c-2.7,9-4.9,12.1-20,29.1c-14.4,16.1-17.6,20.6-21.1,30c-5.1,13.4-7.9,17.9-17.8,29.2c-5,5.6-9,12.3-11.4,18.6
	c-2.1,5.4-6,13.5-8.7,17.9c-2.7,4.4-5,8.7-5,9.4c0,0.7-5.2,12.8-11.6,26.8c-9.2,20.1-13.3,27.4-20.3,35.5c-6,7-9.9,13.4-12.5,20.4
	c-2.1,5.5-5.1,12-6.5,14.4c-1.6,2.3-5.5,10.4-8.6,18c-4.3,10.1-8.4,16.6-15.4,24.7c-5.2,6-10.5,13.5-11.7,16.6
	c-1.2,3.1-5.3,12.8-9.2,21.4c-3.9,8.6-8.4,19-10.1,22.9s-7.5,12.5-12.8,18.9c-7.3,8.6-10.8,14.4-13.7,22.6
	c-4.5,12.4-14.7,26.7-28.5,39.7c-7.1,6.7-9.9,10.8-14.8,21.9c-4.1,9.4-8.8,16.9-14.9,23.9c-4.9,5.6-9.7,12-10.6,14.2
	c-12.6,29.1-20,45.7-22.4,50.2c-1.6,3-6,12.6-9.9,21.3c-5.1,11.3-9.7,18.9-16.5,26.9c-6.4,7.5-10.4,14-12.5,20
	c-4.2,12.3-7,16.4-14.5,21.5c-6.4,4.4-6.4,4.4-1.5,3.6c7-1.2,29.3,7.3,33.6,12.7c1.8,2.2,6.2,5.5,9.8,7.2c8,3.9,6.6,2.1-2.6-3.2
	c-9.2-5.4-9.8-10.6-2.6-23.2c2.8-5,6.2-12.5,7.5-16.7c1.7-5.4,5.5-11.2,12.5-19.2c7.6-8.7,11.1-14.2,14.2-22.5
	c2.3-6.1,6-14.1,8.4-17.7s5.1-9.4,6-12.9s4.3-10.8,7.4-16.5c3.1-5.6,7-14.3,8.7-19.3c2.3-6.7,6-12.4,13.7-21.4
	c7.6-8.9,11.4-14.7,13.7-21.2c5.4-15.5,7.4-18.5,24.8-37c15.7-16.6,17.1-18.9,20.4-28.8c2.8-8.8,5.4-13,13.9-22.9
	c7.6-8.9,11.3-14.6,13.7-21.3c1.7-5.1,5.4-13.1,8.1-17.9s6.3-12.8,8-17.8c2.3-6.7,6-12.3,13.7-21.4c8.1-9.4,11.4-14.6,13.9-21.9
	c1.8-5.3,5.5-13,8.1-17.1c2.7-4.1,6.2-11.8,8-17.3c2.5-8,5.1-12.3,14.2-22.9c8-9.3,11.8-15.1,13.1-20c1-3.8,4.4-11.5,7.5-17.1
	c3.1-5.6,6.6-13.3,7.9-17s4.5-10.8,7.3-15.7c2.8-5,6.5-13.1,8.2-18.2c2.4-7,5.9-12.4,14.3-22.1c9.4-10.7,11.8-14.7,14.7-23.7
	c3.1-9.9,5-12.5,20.7-29.9c15-16.6,17.7-20.5,21.4-30.2c2.3-6.1,6.1-14.2,8.4-17.8s5.3-10.3,6.6-14.7c2.6-8.5,9-20.4,13.9-25.7
	c4.6-5,9.2-4,17.5,3.6c4.1,3.8,10.5,8.1,14.2,9.6c3.7,1.5,11.1,5.5,16.2,8.8c5.2,3.3,12.3,7.1,15.9,8.5c3.6,1.3,9.4,4.5,13.1,7
	c3.6,2.5,11.2,6.5,16.7,8.9c7.4,3.1,12.9,7.1,20.4,14.5c6.3,6.3,13.8,11.9,19.7,14.8c5.2,2.6,13,7,17.5,9.9
	c4.4,2.9,10.9,6.4,14.5,7.7s9.4,4.5,13.1,7c3.6,2.5,10.3,6,14.7,7.8c4.5,1.8,11.3,5.4,15.1,8c3.9,2.7,10.7,6.3,15.2,8
	c11.5,4.6,20.9,12.8,43.9,38.8c16.8,19,20.6,24.2,23.1,31.5c3.1,9.1,3.6,10.3,10.8,22.7c4.5,7.7,4.5,7.7,5.2,36.2
	c0.7,28.5,0.7,28.5,5.8,37c6.6,11.2,6.8,18.3,0.5,29.1c-2.5,4.3-5.3,10.4-6.2,13.5c-0.9,3.1-4,9.9-6.9,14.9
	c-2.8,5.1-6.4,12.4-7.8,16.4c-1.4,3.9-5,11.7-7.8,17.3c-2.8,5.6-6.1,13.2-7.4,16.8c-1.2,3.6-4.2,9.9-6.6,13.7
	c-2.5,3.9-5.5,9.9-6.6,13.5c-1.2,3.6-4.7,11.6-8,17.9c-3.2,6.3-6.8,14.3-8,17.9c-1.2,3.6-4.1,9.6-6.5,13.3
	c-2.4,3.8-5.7,10.7-7.5,15.3c-1.7,4.6-4.9,11.9-7.2,16.2c-2.2,4.3-5.5,11.5-7.1,16.1s-5.3,12-8.2,16.7c-4.4,7-5.5,10.8-7,22.6
	c-1.4,11.3-2.8,16-7,23.4c-2.8,5.1-6.2,12.3-7.5,16.2c-1.3,3.9-5.1,11.7-8.2,17.3c-3.2,5.6-5.8,10.9-5.9,11.8
	c0,1.4-17.6,39.9-25.8,56.6c-1.7,3.5-4.7,10.2-6.7,14.9c-2,4.7-4.6,10.4-5.7,12.6c-1.7,3.2-18.2,39.9-24.7,54.9
	c-0.9,2.2-5.7,8.5-10.7,14.2c-6,6.8-10.6,14.2-13.5,21.3c-2.5,6-6.4,14-8.6,17.9c-2.2,3.9-5.2,10.9-6.6,15.6
	c-1.4,4.7-4.2,10.2-6.2,12.2c-3.4,3.4-3.5,3.6-0.7,3.6c4,0,24.9,7.3,27.4,9.5c1.7,1.5,2.1,1.1,2.1-2.4c0-5.1,7.2-23.4,13.9-35.4
	c2.7-4.7,6.2-12.7,8-17.6c2.2-6.5,6-12.5,13.7-21.6c7.7-9,11.6-15.2,13.7-21.6c1.7-5,5.2-12.5,7.9-16.9s6.1-11.8,7.8-16.6
	c1.7-4.9,5.1-12.2,7.5-16.3s5.1-10.1,6-13.2c0.9-3.1,4.1-10.3,7.2-15.8c3.1-5.6,6.6-13.3,7.9-17.2c1.2-3.8,4.2-10.3,6.6-14.3
	c2.4-4.1,5.9-11.6,7.8-16.8c1.9-5.2,5.4-12.5,7.7-16.3c2.3-3.7,5.4-10.4,6.9-14.7c1.4-4.3,4.8-11.4,7.5-15.8c5-8,7.9-19.3,7.9-30.5
	c0-4.1,1.7-8.6,5.6-15.2c3.1-5.1,7-13.3,8.6-18.1c1.7-4.8,5-12.1,7.5-16.2c2.4-4.1,5.5-10.8,6.7-15c1.2-4.1,4.6-10.8,7.3-15.1
	c2.7-4.2,6.1-11.2,7.5-15.5s4.3-11.2,6.6-15.2c2.3-4.1,5.7-11.6,7.6-16.8c1.9-5.1,5.1-11.8,7.1-14.7c2.1-2.9,5.4-10,7.4-15.8
	c2-5.8,5.3-13.2,7.3-16.5c2-3.2,5.2-10.4,7.2-15.8s5.3-12.3,7.4-15.2s5.3-9.7,7.1-15.2c1.9-5.4,5.9-13.7,8.8-18.5
	c5-8,5.3-9.4,4.8-17.5c-0.5-7-1.7-10.6-6-17.5c-7.1-11.1-8.2-17.1-7.1-38.3c1-20.5-0.6-29.7-7-39.5c-2.4-3.7-6-11.1-8-16.4
	c-1.9-5.3-5.2-12.4-7.2-15.7c-2.1-3.3-5.9-11.3-8.6-17.7c-5-11.7-5-11.7-18.5-18.6c-11.5-5.8-15.2-8.7-24.8-19.5
	c-10.4-11.7-11.3-13.1-11.3-19.3c0-4.9,1.1-8.2,3.9-12.2c2.2-3.1,5.7-10.4,8-16.3c2.2-5.9,5.9-13.7,8.2-17.4
	c2.2-3.6,5.3-10.2,6.8-14.5s4.6-11.1,6.9-15.2c2.3-4,5.8-11.6,7.7-16.8c1.9-5.3,4.9-11.8,6.7-14.4c1.8-2.7,5.4-10.5,8-17.4
	c3.9-10.1,7-15,15.5-24.6c8-9.1,11.3-14.2,13.3-20.7c1.5-4.7,4.6-11.9,7-15.9c2.3-4,5.7-11.5,7.6-16.7c1.9-5.2,5.4-12.5,7.8-16.3
	c2.4-3.7,5.9-11.3,7.7-17c2.7-7.8,5.6-12.8,13.1-21.2c9.7-11,13.8-18.2,17.3-29.6c1.1-3.7,6.1-11,13.1-19
	c8.7-9.9,11.8-14.9,13.8-21.4c1.4-4.7,4.7-12.4,7.4-17.1s6.2-12.7,7.9-17.6c2.2-6.5,6-12.5,13.7-21.5c8.4-9.9,11.5-14.9,14.7-23.9
	c3.2-9.2,6-13.7,14.5-23.3c8-9.2,11.2-14.1,13.7-21.6c1.8-5.4,5.5-13.1,8.2-17.1c2.7-4.1,6-10.9,7.3-15.2c1.3-4.3,4.3-11.2,6.6-15.2
	c2.3-4.1,5.9-11.8,7.9-17.2c6.2-16.6,16.3-31.2,21.5-31.2c6.7,0,24.6,11.2,35,21.9c7.5,7.8,12.8,11.7,18.9,14.2
	c4.6,1.9,12.1,5.8,16.5,8.8c4.5,3,10.7,6.4,13.9,7.5c8.7,3.3,33.4,17.9,36.4,21.5c2.2,2.6,2.9,7,3.7,22.4c1.3,24.7,1.3,66,0,89
	c-1,17.6-1.2,18.4-6.9,28.2c-3.2,5.5-6.7,12.6-7.6,15.7c-1,3-4.3,10.1-7.5,15.7c-11.1,20-11.8,39.8-2.2,67.5c2.4,7,2.4,7.2-1.7,18.1
	c-3.6,9.6-4.1,13.1-4.1,26.8c0.1,17.6,1.6,23.7,9.2,37.4c5.3,9.5,5.3,9.5,5.7,45.7c0.2,19.9,0.1,38.4-0.4,41.2s-3.5,9.3-6.8,14.6
	c-6,9.8-8.2,18.5-6.5,26c0.5,2.3,5.5,9.3,10.9,15.6c14.7,16.8,16.4,21.2,17.4,44.8c0.7,16.6,1.3,20.5,4.1,25.1c1.8,3,6.1,12,9.7,20
	c4.1,9.2,8.8,17,12.8,21.2c9.2,9.8,13.5,16.5,17.1,27.2c2.7,8,6,12.4,20.2,28.3c15,16.6,17.5,20.2,21.2,30.4
	c3.1,8.6,7,14.7,14.7,24.3c8,9.8,11.6,15.7,15.1,25c3.6,9.7,6.5,14.4,14.1,22.8c7.1,7.9,10.9,13.9,15.2,23.9
	c4,9.2,8.4,16.4,14.5,23.4c7.8,8.9,15.6,22.9,15.7,27.8c0,0.9,2.6,6,5.6,11.1c3.1,5.1,7,13.5,8.8,18.5c1.7,5,5.2,12.3,7.8,16.4
	c5,7.8,14.1,30.6,14.2,35.3c0,2.6-4.5,14.8-11.3,30.9c-1.3,3-9.9,14-19.1,24.3c-13.7,15.4-17.4,20.5-20,28.1
	c-3.6,10.4-10.2,20.6-19,29.9c-3.9,4.1-7.1,9.8-9.7,16.8c-4.8,13.6-8.6,19.1-26.3,38.3c-11.8,12.7-15.2,17.5-18,25.1
	c-4.8,13-7.1,16.4-24.8,36.1c-10.8,12.1-16.1,19.2-17.4,23.5c-4.9,16.2-8.9,21.8-39.9,55.2c-27.2,29.3-31.3,34.4-34.3,42.4
	c-5.2,14.2-9.4,19.6-38.9,51.4c-15.2,16.3-28.3,31.2-29.2,33c-0.8,1.8-3.8,8.9-6.7,15.7c-4.8,11.6-7,14.3-28.9,37.7
	c-21.8,23.2-23.9,26-27.1,35.2c-2.9,8.4-6,13.1-20.3,29.5c-14,16.1-18.1,22.3-24.8,35.9c-7.1,14.7-10.1,18.7-27.2,37.6
	c-17.4,19.1-21.9,25-14.4,18.9c2.3-1.9,3.4-1.8,8,0.4c9.9,4.9,16.2,9.8,16.1,12.5c0,1.5-2.3,6.5-5.1,11.3c-2.8,4.7-5.1,9.3-5.1,10.2
	c0.1,3.6,9.8-15.7,16.8-33.5c1.8-4.6,8.4-13,19.5-25.1c15.5-16.7,17.2-19.2,21-30c3.8-10.8,5.7-13.5,21.8-31.4
	c15.4-17.2,18.1-21,21.7-30.6c5.5-15.1,10.5-21.9,34.6-47.2c19.8-20.8,21-22.4,24.3-32.6c3-9.4,5.3-12.9,18.9-28.6
	c8.4-9.8,22.6-25.3,31.5-34.3c11.2-11.4,16.9-18.6,18.7-23.3c9.4-24.2,9.7-24.6,42-58.9c30.6-32.5,31.1-33,34.4-43.7
	c3.1-10,4.6-12.3,21-30.6c14.8-16.4,18.2-21.2,20.9-28.8c5.4-15.7,7.4-18.6,24.8-37.2c15.6-16.6,17.1-18.9,20.4-28.8
	c2.8-8.8,5.5-13.1,14.5-23.7c9-10.6,11.7-14.9,14.6-23.9c3.2-9.9,5.1-12.5,20.8-29.9c15.3-16.9,17.8-20.4,21.6-30.6
	c2.4-6.4,5.9-14,7.9-17.1c1.9-3.1,4.9-9.8,6.5-14.9c1.7-5.1,5.2-12.9,8-17.2c2.7-4.3,6.3-11.8,8-16.7c3.7-10.7,13.6-23,44.6-55.3
	c20.9-21.8,22.3-23.6,26.7-35.1c2.6-6.7,6.8-15.3,9.4-19.3c2.7-3.9,20.8-24.1,40.3-44.9c35-37.3,35.5-37.9,38.8-48.4
	c2.7-8.7,5.1-12.7,13.7-22.7c8.4-9.8,11.3-14.4,14.7-23.8c3.3-9.4,6.1-14,15.2-24.3c9.4-10.8,11.7-14.6,15.2-24.9
	c4.1-12,4.6-12.7,27.9-37.4c22.4-23.8,24-25.8,28.3-37.1c6.3-16.3,10.9-22.8,35-48.1c20-21,21-22.4,24.3-32.9
	c3.1-9.9,5-12.7,18.9-28.1c8.4-9.4,17.5-18.1,20-19.2c4.5-2.1,5.6-1.7,20,4.3c15.7,6.6,22.1,12,25.8,21.6c0.9,2.3,2,12.6,2.6,23
	c1.5,28.5,4.6,33,25.1,35.6c13.1,1.7,19.5,4.8,22.8,10.8c2.9,5.6,1.2,11-6.4,20.2c-8.6,10.4-11.1,16-12,26.8
	c-1.1,13.2,1.7,23.9,7.8,29.7c2.7,2.6,5.6,4.7,6.5,4.7c0.8,0,7.8,3.1,15.6,7c14.1,7,14.1,7,50.4,7.7c47.6,0.9,47.4,0.9,54.4,11
	c3.1,4.5,7.4,12.9,9.6,18.8c4.7,12.8,16.5,27.4,25.9,32.4c8,4.1,30.2,6,41.3,3.4c4.2-1,10.5-3.9,13.9-6.4c9.5-7,12.3-7.3,22.4-1.7
	c10.2,5.5,15.2,6,21,1.9c6-4.3,16-17.6,19-25.4c7.8-19.7,8.9-21.4,32.7-47c23.1-24.9,24.2-26.4,27.6-36.9c3.2-10,4.9-12.5,20.7-29.9
	c15.7-17.2,17.6-20,22.2-31.8c2.7-7,6.9-15.5,9.3-18.8c2.4-3.2,17-19.4,32.5-35.8c27.9-29.6,28.2-29.9,32.1-41.7
	c3.9-11.7,4.6-12.7,28.5-38.4c23.3-25.2,24.7-27.1,28.7-38.3c3.4-9.6,6.3-14.1,15.2-24.4c9.4-10.8,11.6-14.3,14.4-23.6
	c3.1-10.1,4.6-12.3,20.6-29.9c15.7-17.2,17.7-20.2,22.1-31.8c2.7-7,6.9-15.4,9.3-18.7c2.4-3.2,17-19.4,32.5-35.8
	c27.6-29.2,28.2-30.1,31.6-40.8c3.4-10.8,4.2-11.8,35.2-45.6c31-33.9,31.9-34.9,36.7-47.5c2.7-7,6.9-15.5,9.3-18.8
	c2.4-3.2,17-19.4,32.5-35.8c28.1-29.8,28.1-29.8,32.2-42.4s4.1-12.6,72.1-85.6c64.3-69.2,68.2-73.5,71.1-82.3
	c1.7-5.1,5.5-13.3,8.1-18.1c2.7-4.8,6.3-12.8,8-17.8c2.3-6.7,6-12.3,13.7-21.4c7.8-9,11.4-14.7,13.7-21.5c1.7-5.1,4.7-11.8,6.5-14.8
	c1.8-3.1,5.1-9.2,7.1-13.6c2.1-4.4,5.5-9.5,7.6-11.3c5-4.2,3.1-4.3-2.4-0.1c-3.7,2.9-5.7,3.1-19.6,2.4c-8.9-0.4-16.6-1.7-17.9-2.7
	c-2-1.7-2.1-1.6-0.6,0.2c3.1,3.6,2.1,11.1-2.4,18.7c-2.3,4-5.6,11.2-7.3,16.1c-3.2,9.4-7,15-17.1,26.3c-3.4,3.7-7.3,9.7-8.7,13.3
	c-1.4,3.6-5.2,12.2-8.5,19.1c-3.3,6.9-7.5,16.6-9.4,21.7c-4.3,11.7-24.9,35.7-91.8,107.1c-46.4,49.5-48.7,52.3-51.8,61.5
	c-5.5,16.2-21.6,36.5-54.5,68.7c-10.4,10.1-13.6,14.4-17.1,22.8c-2.4,5.6-5.1,12-6.1,14.2c-0.9,2.2-15.8,19.5-33.1,38.4
	c-24.3,26.7-31.8,35.9-33.3,40.8c-5.1,17.3-18.6,34.9-51.3,67.7c-14.5,14.4-17.8,18.7-21.5,27.3c-2.4,5.6-5.1,11.9-6.1,14.1
	c-0.9,2.2-9.3,12.4-18.5,22.8c-12.8,14.3-17.4,20.7-19.5,26.7c-3.8,11.2-7.6,17.4-17.6,29.2c-6.5,7.5-9.9,13.4-12.9,21.8
	c-3.9,10.7-5.9,13.3-29.1,39.1c-22.5,24.9-25.3,28.7-28.3,37.7c-5.1,14.6-12.5,24.4-42.5,56c-25.9,27.4-27,28.7-30.9,39.8
	c-3.6,10.4-5.9,13.5-21.9,31.6c-14.6,16.4-18.2,21.5-20.3,28.2c-4.1,13.4-11.3,23.2-38.3,51.7c-25.7,27.2-25.7,27.2-32.2,26.1
	c-14.7-2.6-19-1.7-28.7,5.1c-7,5-11.1,6.7-17.7,7.5c-17.3,2.2-25.1-1.6-31.6-15.5c-4.4-9.4-33.9-41.8-40.5-44.5
	c-6.5-2.7-49.2-5.5-53.7-3.6c-5.7,2.3-18.9,1.8-28.1-1c-14.2-4.4-22-17.4-17.6-29c1-2.7,5.4-8.1,9.8-12.2
	c11.6-10.8,14.7-19.3,10.1-28.1c-3.3-6.4-30.1-31.6-39-36.9c-12.3-7.1-13.4-9.4-14.2-31.1c-0.9-22.3-2.9-26.3-15.7-31.5
	c-7.3-3-14.9-7.5-32.7-19.6c-6.3-4.3-7-11.4-1.9-19.4c2.1-3.1,5.4-10.4,7.5-15.9c2.1-5.5,5.6-12.9,7.8-16.5
	c2.2-3.5,4.8-9.2,5.8-12.7c1-3.5,4.1-10.4,6.9-15.4s6.6-13.3,8.4-18.3c1.8-5.1,5.2-12.3,7.6-16c2.3-3.7,5.5-10.4,6.9-14.7
	c1.5-4.3,4.8-11.8,7.5-16.5c2.6-4.7,5.8-11.7,7-15.4c1.2-3.7,4.5-10.8,7.3-15.7c2.8-4.9,6-12,7.3-15.7s4.5-10.8,7.2-15.7
	c2.8-4.9,6.5-13.1,8.2-18.1c2.3-6.8,5.8-12.3,13.3-20.8c7.8-8.9,11.1-14.2,14.4-22.9c2.3-6.3,5.9-13.7,7.9-16.5s5.2-9.8,7.2-15.4
	c2-5.6,5.2-12.9,7.2-16.1c2-3.2,5.2-10.3,7.1-15.6c1.9-5.3,5.5-12.7,7.8-16.4c2.4-3.7,5.7-10.8,7.4-15.8c1.7-5,4.7-11.7,6.7-15
	c2-3.2,5.2-10.3,7.1-15.6c1.9-5.3,5.4-12.7,7.7-16.4c2.3-3.7,5.5-10.4,6.9-14.7c1.4-4.3,4.6-11.1,6.9-15.2c2.3-4,5.8-11.6,7.7-16.9
	c1.9-5.3,5.5-12.6,8-16.1c2.4-3.6,5.5-10,6.8-14.3c1.3-4.3,4.6-11.8,7.2-16.6c2.7-4.9,6.2-12.9,8-18.1c2.3-6.8,5.8-12.3,13.3-20.8
	c7.7-8.8,11.2-14.2,14.3-22.6c2.3-6.1,6-14.1,8.3-17.7s5.3-10.2,6.8-14.5c1.5-4.3,4.8-11.8,7.5-16.5c2.7-4.7,5.8-11.7,7-15.4
	c1.2-3.7,4.5-10.8,7.3-15.7c2.8-4.9,6.1-12.1,7.4-15.9s4.2-10.3,6.6-14.3c2.4-4.1,5.9-11.6,7.8-16.8s5.4-12.5,7.7-16.3
	c2.3-3.7,5.5-10.4,6.9-14.7c1.4-4.3,4.6-11.1,6.9-15.2c2.3-4,5.7-11.4,7.6-16.5c1.8-5.1,5.8-13.4,8.7-18.6c2.9-5.2,5.3-10,5.3-10.8
	s1.5-3.6,3.2-6.3s2.2-4.1,1.1-3.1c-1.2,1-9.4,2.1-18.5,2.5c-14.5,0.6-16.6,0.3-18.7-2.2c-1.3-1.6-3.1-2.9-4-2.9
	c-0.8,0-0.1,1.1,1.7,2.5c4.8,3.6,4.1,10.8-1.9,21c-2.8,4.7-5.1,9.2-5.1,9.9c0,1.3-19,43.6-24.6,54.5c-5.5,10.8-17.9,38.6-19.8,44.4
	c-1.1,3.2-3.9,9-6.3,12.8c-2.4,3.8-5.7,10.7-7.5,15.3c-1.7,4.6-4.8,11.6-6.9,15.5c-2.2,3.9-5.9,12.1-8.4,18.2
	c-2.5,6.1-5.9,13.3-7.5,15.7c-1.7,2.5-5.1,9.9-7.6,16.6c-3.3,8.7-7.1,15-13.6,22.6s-11.5,16-18.2,30.3
	c-5.1,10.8-10.2,22.4-11.3,25.7c-1.1,3.2-4,9-6.4,12.8c-2.4,3.8-5.7,10.7-7.5,15.3c-1.7,4.6-4.9,11.9-7.2,16.2
	c-2.2,4.3-5.5,11.5-7,15.9c-1.6,4.5-5.1,11.8-7.9,16.5c-2.7,4.6-5.5,10.2-6.1,12.3c-0.6,2.2-4.6,11.2-8.9,20
	c-4.3,8.9-7.8,17-7.8,18.1c0,1.1-2.7,6.2-5.8,11.3c-3.2,5.2-5.8,10.1-5.8,10.9c0,1.7-15.7,36.9-20.5,46.4c-1.6,3-5.8,12.1-9.4,20.2
	c-4.8,10.8-9.1,17.8-16.4,26.2c-6.3,7.2-10.8,14.2-12.5,19c-1.4,4.1-5.4,13.3-8.8,20.1c-3.4,6.9-6.7,14.3-7.3,16.5
	c-0.6,2.2-3.3,7.7-6,12.3c-2.7,4.6-6.2,11.7-7.7,15.7c-2.3,6.2-15,33.7-25.8,56c-6,12.5-20.7,45.5-20.7,46.8c0,0.7-1.9,4.3-4.3,8
	s-5.6,10.2-7.2,14.4c-1.6,4.2-7,16.6-12,27.4c-8.9,19.4-9.7,20.4-32.4,46c-12.8,14.4-24,28.1-24.9,30.5c-10.4,26-9.9,25.3-34.4,51.3
	c-22.2,23.8-23.8,25.8-27.7,36.6c-4.6,12.6-11.8,21.9-39.4,51.3c-13.2,14-15.2,16.9-18.7,26.8c-3.1,8.6-6.4,14-14.6,23.9
	c-7.7,9.2-11.6,15.3-13.9,22.2c-2.3,6.8-6.3,13.2-14,22.4c-7.8,9.4-11.8,15.7-14.4,23.2c-2,5.6-4.6,11.8-5.5,13.9
	c-3.9,7.5-28.5,35.5-51.6,58.7c-23.3,23.4-23.9,24.3-30,38.1c-7.1,16.3-13.4,24.3-52.1,65.4c-30,31.9-31.1,32.3-37.2,13.2
	c-1.6-4.9-5.1-12.9-7.9-17.9c-2.7-5-6.2-12.5-7.6-16.8c-1.7-5.2-6-11.5-12.4-19c-7.3-8.3-11.3-14.6-15.6-24.7
	c-4.1-9.5-8.4-16.6-14.7-23.9c-6.2-7.2-10.6-14.4-14.6-23.8c-4.1-9.5-8.2-16.1-14.3-23.1c-6-6.7-10.2-13.5-13.9-22.2
	c-4.5-10.7-7.6-15.1-21.7-30.6c-15-16.6-16.8-19.2-21.4-31.3c-4-10.5-7-15.7-15.2-25.2c-7.6-8.9-11.3-14.8-14.2-22.9
	c-2.2-6-5.2-12.6-6.6-14.8c-7.4-11.3-8-14-8.8-41.7c-1-34.1-0.7-33.2-19.2-45.5c-7-4.7-7.1-10.8-0.2-22.1c5.5-9,5.5-9,6-55
	c0.2-27-0.2-49.6-1.1-54.7c-0.9-5.2-4-13.3-7.6-19.9c-8.2-14.9-8.4-22.3-0.7-35.6c6.9-12.1,7.1-18.7,0.8-29.4
	c-8.9-15.3-8.4-42.5,1.2-54.3c1.2-1.4,4-7.6,6.3-13.7s6.4-14.5,8.9-18.6c4.8-7.5,4.8-7.5,5.1-84.1c0.4-72.3,0.2-77-2.3-83.3
	c-3.4-8.4-8.7-11.3-24-13.3c-8.4-1.2-13.2-2.7-18.1-6c-9.7-6.5-10.2-6.9-36.5-20.6c-20.4-10.7-25.2-13.9-32-21.4
	c-4.4-4.9-11.3-10.7-15.2-12.8c-4-2.2-8.4-5.1-9.8-6.4c-3.8-3.6-3.1-11.2,1.8-19.2c2.4-3.9,5.5-10.3,6.8-14.2
	c1.3-3.9,4.7-10.8,7.5-15.2c4.2-6.9,5.3-10.6,6.7-23.1c1.6-13.3,2.4-15.9,7.8-24.6c3.3-5.4,6-10.5,6.1-11.4
	c0.8-18.1,2.7-26.7,7.6-34.4c5.6-8.8,8.2-18.1,8.2-29.6c0-5.7,1.2-9.1,5.2-15.7c7.8-12.6,8-13.3,9.3-27.3
	c0.9-10.8,1.9-14.4,5.7-20.9c2.6-4.3,6.1-11.9,8-17c1.8-5.1,5.7-12.9,8.6-17.5c6.4-10.1,7.5-17.5,6.3-39.5
	c-1.2-20.6,0.7-29.2,8.9-41.1c6-8.8,6-8.8,0.3-8.8c-7,0-21.5-7.5-23.2-12C2457.1,1131.4,2457,1131.6,2456.9,1135.9 M4922,1230
	c4.1,3.1,6.7,13.5,5.5,21.8c-1.4,10,1.5,22.7,7.2,31.7c5.8,9,8,15.8,8,24.8c0,13.7,2.2,17.1,27.7,44.6c34,36.9,35.9,42.3,23.6,67.2
	c-6.9,13.9-6.9,13.9-6.9,36s0,22.1,5.4,30.9c9.9,16.1,10.3,28.3,1.2,42.7c-5.9,9.4-6.3,10.9-7.4,31.7c-0.9,16.8-1.5,20-5.1,26.7
	c-8.4,15.9-8.6,16.6-9.4,35.9c-0.7,17-1.2,19.7-5,26.7c-9.1,17.1-8.8,15.7-9.5,44.6c-0.7,27.5-0.7,27.5-6.4,37.3
	c-7.2,12.5-8.1,18.3-7.1,45.1c1,26.8-0.7,37.8-7.3,48.6c-2.7,4.3-5.4,9.3-6.1,11c-0.7,1.7-1.7,19.1-2.1,38.6
	c-0.7,35.4-0.7,35.4-6,44.7c-2.9,5.1-7.5,14.9-10,21.7c-4.1,10.8-6.5,14.4-18.7,27.7c-15,16.4-20.7,20.9-34.3,26.6
	c-8,3.4-12.7,8-55.9,54.2c-47.1,50.4-47.3,50.5-58.1,55c-10,4.1-11.9,5.7-24.7,20.3c-25.6,29.4-66.1,72.5-74.1,78.9
	c-4.4,3.5-12.9,8.6-19,11.3c-10.6,4.7-11.9,6-38.5,35.8c-36.8,41.2-48.4,52-61.8,57.7c-9.9,4.2-12,6-32.5,28.4
	c-22.9,25-27.3,28.7-43.3,35.9c-6.7,3.1-12.9,7.5-19.8,14.4c-6.9,6.9-13.6,11.8-21.4,15.6c-9.9,4.8-13.8,8.2-28.2,23.4
	c-16.2,17.3-22.3,21.9-34,26c-3.9,1.3-10.6,7.1-21.3,18.2c-8.6,8.9-17.3,17-19.5,17.9c-4.2,1.7-9.3,0.8-15.9-2.7
	c-3.6-2-19.4-2.4-107.5-2.6c-113.7-0.2-106.4,0.4-119.8-10.1c-13.2-10.4-31.3-9.9-47.2,1.2c-4.9,3.4-10.4,6.6-12.4,7.3
	c-8.9,2.8-16.2,8.5-29.9,23.7c-9,9.9-16.5,19.8-19.3,25.5c-5.1,10.4-7.5,11.8-21.9,14.3c-5.8,1-11.3,3.1-14.7,5.6
	c-6.5,4.9-16.7,17.6-19,23.8c-1.2,3.1-1.6,21.8-1.4,61.8c0.2,32.5-0.4,61.3-1.2,66.6c-1,6.3-3.3,12.3-7.4,19
	c-5.1,8.4-6.1,11.6-7.2,22.4c-1.5,14.3-5.1,23.1-11.7,29.2c-4.9,4.5-5.5,4.6-21.9,6.9c-8.9,1.2-12.9,2.7-20.9,7.9
	c-7.2,4.7-12,6.6-18.1,7.4c-15,1.7-17,2.4-24.7,7.7c-4.1,2.9-10.7,6.5-14.5,8.1c-3.8,1.6-10.8,5.5-15.7,8.9c-4.9,3.3-9.4,6-10,6
	c-0.7,0-10.7,5.1-22.4,11.3c-16.5,8.8-23.4,13.5-31.2,21.1c-6.7,6.5-13.3,11.3-19.6,14.2c-10.7,4.8-14.7,7.7-26.3,19.3
	c-5.3,5.3-11.7,9.6-18.9,12.9c-6,2.7-13.5,6.9-16.7,9.2c-7.3,5.4-9.4,6.1-23.2,7.8c-8.9,1.1-12.8,2.5-19.5,6.9
	c-4.6,3.1-11.7,7-15.9,8.8c-4.1,1.7-11,5.7-15.3,8.8c-6.4,4.6-9.8,5.8-19.3,7c-13.1,1.7-15.3,2.3-22.4,7.4c-2.8,2-9.3,5.5-14.5,7.7
	c-5.1,2.2-12.2,6.2-15.6,8.8c-3.4,2.6-9,5.7-12.3,7c-3.4,1.3-10.1,4.7-15,7.7s-12.3,6.8-16.6,8.6c-4.2,1.8-10.6,5.4-14.1,8
	c-3.5,2.6-8.8,5.7-11.8,6.9c-4.9,1.9-29,14.4-40.3,21c-12.8,7.4-45.7,25.1-50.1,27c-2.8,1.2-8.6,4.6-13,7.6
	c-4.4,3-10.5,6.4-13.7,7.6c-3.2,1.2-9.8,4.6-14.7,7.5c-4.9,3-12.3,6.8-16.6,8.6c-4.2,1.8-10.5,5.4-13.9,8c-3.4,2.6-9.9,6.1-14.5,8
	c-5.9,2.4-11.8,6.8-20.1,15c-8.9,8.8-14.2,12.7-21.8,15.8c-7.2,3.1-13,7.2-21.1,15c-6.1,5.9-13.7,11.9-16.9,13.4
	c-5.3,2.5-46.6,24.7-56.7,30.6c-10.4,6-40.8,21.6-42.2,21.6c-0.7,0-5.4,2.8-10.1,6.3c-4.8,3.5-9.4,6.3-10.2,6.3s-10.9,5.1-22.5,11.3
	c-16.6,8.9-23.1,13.3-30.6,21c-6.9,7-12.6,11-20.4,14.5c-5.9,2.7-14.6,7.4-19.3,10.4c-4.7,3.1-10.9,6.4-13.7,7.4
	c-2.9,1-8.3,3.9-12,6.4s-10.7,6.2-15.5,8.3c-4.8,2.1-11.8,6-15.4,8.7c-3.6,2.7-9.1,5.9-12.1,7c-5.5,2.2-31.9,15.9-41.1,21.4
	c-2.8,1.7-9.4,5.2-14.5,7.8c-5.2,2.6-11.8,6.1-14.5,7.9c-2.8,1.7-8.7,4.9-13.1,7s-10.9,5.6-14.5,7.7c-3.6,2.2-16.6,9.2-29.1,15.7
	c-12.4,6.5-25.4,13.6-29.1,15.8c-3.6,2.2-10.8,6-16,8.7c-5.2,2.7-11.8,6.1-14.5,7.9c-2.8,1.7-8.7,4.9-13.1,7s-10.9,5.6-14.5,7.8
	c-3.6,2.2-12.4,7-19.6,10.8c-7.2,3.8-14.9,8.3-17.1,9.9c-4.1,3.1-4.1,3.1,0,4c2.2,0.5,7.3,4.5,11.3,8.8c5.7,6.3,6.8,8.3,5.5,10.1
	c-2,2.6,14.6-5.7,20.5-10.2c2.2-1.7,8-4.8,12.9-6.9c4.9-2.1,11.9-5.9,15.7-8.4c3.7-2.6,9.7-5.8,13.3-7.1c3.6-1.3,10.2-4.9,14.7-8
	c4.6-3,11.1-6.5,14.5-7.9c3.5-1.3,10-4.8,14.5-7.9c4.6-3,11.1-6.5,14.5-7.9c3.5-1.3,10-4.8,14.5-7.9c4.6-3,11.1-6.5,14.5-7.9
	c3.5-1.3,9.9-4.7,14.2-7.6c4.4-2.9,11.3-6.5,15.2-8.1c4-1.6,10.1-5,13.6-7.5c3.5-2.6,10.3-6.3,15.1-8.3c4.8-2.1,11.8-5.8,15.6-8.4
	c3.7-2.6,9.7-5.8,13.3-7.1c3.6-1.3,10.2-4.9,14.7-8c4.6-3,11.1-6.5,14.5-7.9c3.4-1.3,10.5-5.1,15.7-8.4c5.2-3.3,12.1-7,15.2-8
	c3.1-1.1,8.6-4,11.9-6.5c3.4-2.5,10.8-6.5,16.4-9c7.8-3.4,12.8-7.1,21-15.5c7.9-8,12.9-11.8,19.2-14.4c4.7-1.9,12.2-5.8,16.6-8.6
	c4.5-2.9,11.3-6.4,15.2-7.8c3.9-1.4,10.3-5,14.2-8c3.9-3,10.2-6.5,14-7.9c3.8-1.3,10-4.6,13.8-7.2c3.8-2.6,10.6-6.2,15.1-8
	s11-5.4,14.5-8c3.5-2.6,10.3-6.3,15.1-8.4c4.8-2.1,11.8-5.8,15.5-8.3c3.7-2.5,10.3-5.9,14.7-7.5c5.9-2.2,11-6,19.9-15
	c9.6-9.6,14.1-12.8,22.5-16.3c8.3-3.4,12.8-6.7,21.5-15.5c8.8-8.9,13-11.8,20.6-14.7c5.3-2,12.3-5.8,15.5-8.4
	c3.2-2.6,9.9-6.4,14.8-8.4c4.9-2.1,12-5.9,15.7-8.4c3.7-2.5,10-5.8,14-7.4s10.1-4.9,13.6-7.5c3.5-2.6,10.2-6.2,15-8.3
	c4.8-2,11.8-5.7,15.5-8.1c3.7-2.5,10.1-5.8,14.1-7.4s10.1-5,13.6-7.5c3.5-2.6,10.3-6.3,15.2-8.4c4.9-2.1,11.3-5.5,14.4-7.7
	c3-2.2,9.3-5.5,13.8-7.3c4.6-1.8,11.2-5.5,14.7-8s10.2-6.3,15-8.3c4.8-2,11.8-5.7,15.5-8.2c3.7-2.5,10.2-5.7,14.2-7.2
	c4.1-1.5,10.1-4.8,13.4-7.5c3.3-2.7,10-6.5,14.9-8.5c4.9-2.1,12.2-6,16.1-8.8c6.5-4.6,15.8-6.8,31.2-7.6c0.9-0.1,5.1-2.7,9.4-5.8
	c4.2-3.1,11.6-7.4,16.3-9.4c4.7-2,11.8-5.9,15.8-8.6c6-4.1,9.3-5.2,19.5-6.2c9.2-0.9,13.9-2.2,18.7-5.3c3.6-2.2,6.8-4.7,7.2-5.5
	c0.4-0.7,5.5-3.4,11.3-5.7c8.3-3.4,12.8-6.6,21.7-15.7c8.9-9,13.3-12.3,21.8-15.7c8.4-3.5,12.8-6.7,21.9-15.7
	c8.3-8.4,13.5-12.3,19.7-14.7c4.6-1.8,12-5.7,16.4-8.5c4.4-2.9,11.3-6.5,15.2-8s10.1-5,13.6-7.5c3.5-2.6,10.3-6.3,15.1-8.3
	c4.8-2.1,11.9-6,15.9-8.6c5.5-3.8,9.6-5.2,18.1-6.3c14.2-1.7,15.8-2.3,24.7-8.8c5.4-3.9,9.9-5.8,16.7-6.9c5.1-0.8,11.6-2.2,14.4-3.1
	c13.2-4.1,16.6-0.9,16.5,15.9c-0.1,8.5-0.8,11.8-4.1,18.1c-2.2,4.2-5.6,11.2-7.5,15.5c-1.9,4.3-4.8,10.7-6.5,14.2
	c-11.1,22.3-10.6,20.5-10.6,41.6c0,18.4,0.2,20,3.9,26.8c4.7,8.7,20,23.3,27.2,26c2.9,1.2,8.3,2.1,11.8,2.2
	c8.4,0.2,17.2,4.5,22.2,10.9c4.5,5.7,5,9.8,1.7,13.3c-3.4,3.6-6.3,3.1-15.9-3.4c-8.7-5.9-8.7-5.9-28.3-5.9
	c-18.8,0-19.9,0.2-26.4,4.3c-7.7,4.9-19.4,18.4-22.4,25.8c-1.4,3.5-2,11.2-2,24.3c0.1,30.4,3.7,36.4,24.4,38.8
	c12.1,1.5,18.8,4.2,24.8,10c6.5,6.4,7.9,11.7,8.9,33.5c0.9,20.6,0.9,20.7,6.3,29.2c6.5,10.1,7.9,14.5,9.1,28.2
	c1.5,17.1,8,24.7,21.2,24.8c5.1,0,8-1.1,12.4-4.5c13.6-10.6,16.6-9.9,25,5.5c3.2,5.9,9.2,14.2,13.3,18.6c5.4,5.6,9.2,11.7,13.3,21.2
	c5,11.6,8,15.7,22.1,31.4c9,9.9,17.6,20.5,19,23.5c1.9,4.1,2.8,10.8,3.5,26c1,23.4,1.4,24.3,14.7,38.6c5.8,6.1,10.6,9.7,15.7,11.5
	c4,1.4,11.2,5.3,15.9,8.6c10.4,7.2,11.6,7.7,25.4,9.4c8.9,1.1,12.6,2.5,20,7.4c9.1,6,9.1,6,35.4,6.9c34.4,1.1,36.9,2.5,47.1,27.2
	c4.6,10.9,14.3,24.2,22.6,30.6c3.1,2.5,8.9,4.2,18.1,5.7c11.1,1.8,14.8,3.1,21.4,7.9c11.6,8.4,18.3,9.4,54.6,8.3
	c19.7-0.6,33.5-0.3,36.8,0.7c3.8,1.2,11.4,7.6,26.1,22.4c15,15.1,22.3,21.3,26.5,22.6c3.2,1,10,4.8,15.2,8.4
	c7.8,5.5,11.2,6.8,20.2,8c19.3,2.6,20.3,3.1,33.5,18.1c9.4,10.7,12.8,15.7,15,22.4c1.6,4.7,5.1,12.3,7.8,16.9
	c5.1,8.4,7.4,16.7,7.5,28c0.1,6,1.2,8.9,10,26c2.9,5.5,3.6,9.9,4.4,26.6c1,20,1,20,7.5,30.7s6.5,10.8,7.3,30.5
	c0.9,20.9,1.1,21.5,7.9,33.8c4,7.2,4.4,9.3,5.2,27.9c0.9,19.2,1.2,20.5,5.7,28.3c8.5,14.6,9.2,16.9,10.4,35.7
	c0.7,9.9,1.6,20.8,2.1,24c0.7,4.3,0.3,6.7-1.3,8.6c-2.1,2.5-1.4,2.7,10.4,2.6c7-0.1,15.7-1,19.5-2.2c3.8-1.1,7.9-1.7,9-1.2
	c1.2,0.5-0.7-2.2-4.3-5.8c-5.1-5.3-6.5-7.9-6.6-12.1c-0.1-3-0.2-12.4-0.3-21c-0.2-16.6-0.6-17.9-9.5-33.1c-4-6.8-4.7-9.5-4.8-18.1
	c-0.2-24.1-1.1-28.8-7.5-40.2c-6-10.7-6-10.7-6.9-30.3c-0.8-20.7-1.2-21.9-10.1-37.4c-4.7-8-4.8-8.8-5.2-27.1
	c-0.3-17.2-0.7-19.4-4.3-26.3c-8.1-15.2-9.4-18.5-9.4-24.7c-0.1-10.5-2.7-20-8-28.3c-2.7-4.3-6-10.9-7.1-14.7
	c-1.2-3.7-4.6-11-7.5-16.1c-7.1-12.5-6.1-16.1,6.3-22.6c5.1-2.7,13.3-9.2,19.1-15.2c8.2-8.4,12-11.1,19.8-13.9
	c8-2.9,11.8-5.5,21.9-15.7c9.9-9.9,14.2-13.1,22.9-16.6c9.6-4,12.3-6.2,28.7-23.4c16.5-17.3,19.1-19.5,29-23.5
	c8.7-3.6,13-6.7,22-15.8c8.9-9,13.3-12.3,21.8-15.7c8.4-3.5,12.8-6.7,21.8-15.7c8.9-8.9,13.4-12.3,21.5-15.6
	c8-3.3,12.8-6.8,21.9-15.7c9.1-9,13.8-12.4,22.1-15.8c8.5-3.5,12.7-6.5,21.4-15.6c8.2-8.4,13.1-12.1,19.6-14.7
	c4.8-1.9,12.3-5.9,16.7-8.8c4.5-2.9,11.9-6.9,16.7-8.8c7.9-3.1,11.4-6.4,40.8-38.2c26.6-28.7,32.5-35.9,33.8-41.1
	c1-3.9,1.6-26.7,1.6-60.6c0-58.6-0.5-63.7-7.7-73.9c-8.4-11.9-7.2-18.3,6.8-34.1c8.5-9.7,11.3-14.2,14.6-23.4
	c4.6-12.8,17.5-29.7,41.4-54.1c11.2-11.4,15.2-14.3,23.9-17.9c5.7-2.3,13.3-6.3,16.6-8.8c3.4-2.5,10.8-6.6,16.6-9.1
	c8.1-3.6,12.7-6.9,20-14.8c7.5-8.1,11.9-11.3,21.1-15.5c6.4-2.9,14.2-7.1,17.2-9.4c11.7-8.7,22-8.7,35.4-0.1
	c3.8,2.5,10.2,6.3,14.2,8.4c12.3,6.6,13.1,9.4,13.2,46.3c0.1,24.1,0.6,32.4,2.2,35.6c3.6,7.3,33.2,39.1,38.6,41.5
	c3.6,1.7,11.9,2.4,28.7,2.7c24.1,0.4,28.7,1.4,35.9,8.3c1.2,1.2,7,4.2,12.8,6.8c5.8,2.6,12.3,6.1,14.7,7.9c2.2,1.7,9.5,5.6,16.1,8.6
	c9.4,4.3,14.1,7.7,21.9,15.7c13.3,13.8,16.1,14.9,38.3,14.9c24.8,0,30.6-2.8,35-17.4c1.2-4.1,4.7-11.6,7.7-16.6
	c3-5.1,6.3-11.6,7.4-14.7s3.8-9.1,6-13.4c2.5-4.9,4.5-11.6,5.1-17.3c1-9.3,1-9.4,14.9-23.9c19.2-20,21.6-21.2,42.3-21.4
	c11.6-0.1,17.8,0.5,20.2,2c3.3,2.1,3.4,2.6,2.2,11.8c-0.7,5.3-1.2,17.8-1.2,27.8c0.2,22,2.4,28.7,11.5,33.6
	c5.1,2.7,9.4,3.2,35.4,3.6c16.2,0.3,31.7,0.1,34.4-0.4c2.7-0.5,8.6-3.8,13.3-7.2c4.6-3.4,10.1-6.2,12-6.2c2,0,8.1,3,13.7,6.7
	c14.2,9.3,20.4,9.2,33.9-0.8c5.4-4,12.8-8.1,16.3-9.3c4.5-1.4,9.4-5.1,16.1-11.9c13.5-13.7,18.4-13.6,32.5,1.3
	c4.7,4.9,10.4,9,16.2,11.4c4.9,2.1,11.8,5.9,15.3,8.5c11,8.2,14.2,8.5,75.9,8c56.7-0.5,56.7-0.5,68.3,7c7.5,4.9,13.3,7.5,16.7,7.6
	c2.8,0.1,23.8,0.2,46.5,0.4c41.4,0.2,41.4,0.2,51.6,6.9c5.5,3.6,13.1,7.7,16.6,9.1c3.6,1.3,9,4.3,12.1,6.5c3.1,2.2,10.7,6.3,17,9.2
	c6.3,2.8,13.3,6.6,15.5,8.4s9.1,5.4,15.2,8.1c6,2.7,12.3,6.5,13.9,8.4c1.6,1.9,7.3,13.2,12.8,25c9.9,21.5,9.9,21.5,10.8,40.9
	c0.8,16.1,1.5,20.2,4.1,24.8c1.7,3,5.9,11.4,9.2,18.8c4.7,10.7,8.6,16.3,19.2,28.2c15.9,17.8,20.8,21.9,32,26.7
	c5.9,2.5,11.9,7.1,19.4,14.5c6,6,13.1,11.8,15.7,13.1c6.1,2.7,46.5,4.2,55.7,2.1c3.5-0.8,9-3.5,12.3-6c12.8-9.5,17.6-8.5,33,7.1
	c13.1,13.3,14.9,14.2,28.6,15.7c10.3,1.1,18.3,3.9,22.2,7.7c1.2,1.2,7.1,4.4,13.1,7c18.1,8,20.2,12.5,14.7,29.9
	c-2.5,7.7-2.7,13-2.6,52.7c0.2,44.1,0.2,44.1,5.5,53.4c2.9,5.1,6.6,12.9,8.1,17.3c1.6,4.4,4.9,11.2,7.4,15.2
	c2.5,3.9,5.9,11.1,7.6,16c5.7,16.5,17.2,29.1,33,36c4.9,2.2,11.8,6,15.2,8.7c3.6,2.7,8.4,5.2,10.7,5.8c2.6,0.7,0.7-0.9-4.5-3.9
	c-12.7-7.1-14.7-8.9-12.4-11.8c2.2-3,17.5-8.4,27.3-9.7c8.8-1.2,10.3-3.7,2.2-3.8c-7-0.1-24.2-9.5-37-20.3
	c-4.1-3.6-14.2-22.2-23.4-43.2c-1.9-4.3-5.3-11.3-7.6-15.7c-4.2-7.9-4.2-7.9-4.1-46.5c0.2-38.8,0.2-38.8,5.5-48.9
	c8.2-15.8,7-20.9-7.9-35.3c-4.4-4.2-11.1-10.9-14.9-14.8c-4-4.1-10.4-8.7-15.2-10.7c-4.6-2-12-6-16.6-8.9
	c-6.4-4.1-10.8-5.7-19.6-6.9c-15.8-2.2-18.6-3.6-31.1-16.5c-16.5-16.9-25-18.5-40.6-7.6c-11.2,7.8-16.6,8.9-38.3,8.3
	c-22.4-0.7-24.1-1.4-38.8-17c-8.1-8.6-12.3-11.7-20.5-15.2c-13.1-5.5-18.6-11.4-23.5-25.4c-2.2-6-5.1-12.7-6.5-14.7
	c-6.3-8.7-8-14.4-8.2-27.9c-0.1-7.4-0.3-15.9-0.4-19c-0.2-3.5-2.5-9.6-6-16.1c-3.2-5.8-7.3-14.6-9-19.5c-2.5-7.1-5.9-11.9-16.3-23.1
	c-17.6-19-21.4-22.2-30.8-26c-4.4-1.8-10.9-5.4-14.5-8.1c-3.6-2.7-10.2-6.4-14.7-8.4c-4.6-1.9-10.9-5.3-14.2-7.6
	c-3.3-2.2-10.1-5.9-15.1-8.1c-5-2.2-12.4-6.3-16.5-9.1c-7.4-5.1-7.4-5.1-51.1-5.4c-47-0.2-52.4-1-62.3-8.3c-3.2-2.4-7.5-4.9-9.5-5.6
	c-2-0.7-30.1-1.3-62.4-1.4c-63.9-0.2-61.4,0.2-74.9-9.4c-4-2.9-10.3-7-13.9-9.2c-5.1-3.1-7.7-6.2-11.3-13.6
	c-2.6-5.2-6.3-10.7-8.2-12c-9.5-6.8-24.1-3-32.6,8.5c-6,8.1-13.1,13.3-24,18.1c-4.7,2-11.9,5.9-15.8,8.6c-9.4,6.5-14.2,6.3-24.1-0.6
	c-4.4-3.1-9.4-6-11.3-6.5c-6-1.7-14.4,0.6-21.2,5.6c-11.3,8.4-15.2,9.5-33.9,9.5c-13.4,0-18.2-0.6-22.2-2.7
	c-10.7-5.8-11.3-18.1-1.7-33.5c3.2-5.2,6.9-13.2,8.1-17.6s4.5-11.4,7.1-15.6c2.7-4.1,6.5-11.8,8.4-17.3c2.9-8.4,6-12.7,21-29.5
	c15.9-17.8,18-20.9,21.7-31.2c3.2-9.2,6.1-13.8,14.2-23c7.6-8.7,11.1-14.2,14.2-22.5c2.3-6.1,6-14.1,8.4-17.7
	c2.3-3.6,5.7-11.2,7.5-16.6c2.7-7.8,5.8-12.8,14.3-22.9c8-9.4,11.8-15.2,13.7-21.4c1.5-4.7,4.9-12.4,7.5-17.1
	c2.7-4.7,6.1-12.6,7.8-17.5c5.6-16.4,35.5-48.8,50.7-54.8c4.5-1.8,11.8-5.5,16.1-8.4c4.4-2.8,11.3-6.5,15.2-8s10.1-5,13.6-7.5
	c3.5-2.6,10.3-6.3,15.1-8.4c4.8-2.1,11.8-5.8,15.5-8.4c3.7-2.6,10.6-6.2,15.3-8.1c6.3-2.6,11.6-6.5,19.8-14.8
	c9.2-9.3,13-12,21.2-15.1c8.5-3.1,11.6-5.5,21-15.6c7.5-8,11.7-13.8,12.9-18.1c1-3.5,5.1-12.8,8.9-20.9c3.9-8,7-15.5,7-16.6
	c0-1.2,2.5-6.3,5.6-11.4c3.1-5.1,7-13.4,8.7-18.3c1.7-4.9,4.7-11.6,6.7-14.8c2-3.2,5.3-10.4,7.2-15.9c2-5.5,5.3-12.3,7.4-15.2
	c2.1-2.9,5.3-9.9,7.3-15.6c2-5.6,5.2-12.9,7.2-16.1c2-3.2,5.2-10.3,7.1-15.6c1.9-5.3,5.5-12.7,7.8-16.4c2.4-3.7,5.9-11.4,7.8-17
	c4.1-12.4,3.4-11.6,123.7-141.2c58.1-62.6,87.6-95.4,89.5-99.7c1.6-3.6,4.8-11,7.3-16.6c4.1-9.4,10.5-16.8,79.2-90.8
	c58.3-62.7,75.2-81.8,76.5-86.3c1-3.2,4.9-12.4,8.8-20.5c3.9-8,7-15.5,7-16.6c0-1.2,2.5-6.2,5.5-11.3s7.4-14.6,9.6-21
	c4.1-11.8,4.1-11.8,72-84.9c67.8-73.1,67.8-73.1,72-84.8c3.1-8.9,6.2-14.2,12.9-21.9c13.3-15.4,17.7-21,16-20c-2.2,1.3-11.8-6-13-10
	c-0.7-2.3,0.1-4.6,2.5-7.5c11.3-13.5,4.6-7-16.9,16.1c-23,24.9-24.9,27.4-30.2,40c-5.7,13.4-5.7,13.4-73.1,86.5
	c-64,69.4-67.6,73.5-71.2,83.1c-2.1,5.5-5.7,13.2-8.1,16.9c-2.3,3.7-5.3,9.7-6.5,13.3c-1.2,3.6-4.4,10.8-7,16.1
	c-2.7,5.2-6.6,14-8.7,19.5c-2.1,5.5-6.5,14-9.9,18.9c-7.7,11.2-98.7,110.4-124.4,135.7c-20,19.7-19.2,18.5-29.7,43.5
	c-0.9,2.2-48.3,54.5-105.2,116.2c-99.1,107.5-103.7,112.7-107.1,122.1c-1.9,5.4-4.8,11.7-6.4,14.1c-1.6,2.4-9.1,18.1-16.8,34.9
	c-7.7,16.8-15.2,33.1-16.8,36.1c-5.5,10.9-17.9,38.6-19.8,44.4c-1.1,3.2-3.9,9-6.4,12.8c-2.4,3.8-5.7,10.7-7.3,15.4
	c-1.7,4.6-4.9,11.8-7.3,15.9c-2.4,4.1-6,10.8-8,15.1c-2.8,6-5.4,8.7-12,12.8c-4.6,2.8-12.9,9.6-18.4,15.1
	c-5.5,5.5-13.3,11.5-17.4,13.4s-12.3,6.2-18.3,9.6c-6,3.3-13.9,7.4-17.6,8.9c-3.6,1.6-9.8,5-13.5,7.5c-3.7,2.6-10.5,6.3-15.1,8.3
	c-4.6,2-11.1,5.5-14.6,7.9c-3.5,2.3-9.7,5.5-13.8,7.1c-6.5,2.5-11.8,7.5-41.2,39.3c-18.6,20-33.8,37.4-33.8,38.5
	c0,1.2-3.7,10.2-8.4,20.1c-4.6,9.9-9.4,20.9-10.8,24.3c-1.4,3.4-6.7,11.3-11.9,17.3c-7,8.1-10.4,13.7-13.3,21.5
	c-2.1,5.8-5.1,12.3-6.5,14.3c-1.5,2.1-5.6,10.4-9.1,18.6c-4.6,10.7-8.8,17.6-15.2,24.9c-6.2,7.2-10.5,14.2-14.7,24.1
	c-5.3,12.3-7.9,16-21.9,31.5c-10.3,11.3-17.4,20.5-20,26c-6.2,13.3-8.5,14-42.2,14c-20.5,0-29.2,0.6-32.7,2.2
	c-2.6,1.2-9.2,6.8-14.7,12.5c-7.1,7.4-12.8,11.6-19.6,14.7c-10.9,4.9-16.2,8.4-23.1,15.3c-8,8-9.3,12.1-8.2,25.8
	c0.9,11.2,0.7,13.1-3.7,25.2c-5.6,15.7-10.6,22.3-20.6,26.9c-13.7,6.4-22.8,3.1-39.6-14.2c-7.6-7.8-13.3-12.1-19.7-14.9
	c-5-2.2-11.4-5.5-14.3-7.5c-2.9-2-8.5-4.9-12.3-6.5c-3.9-1.6-11.4-5.8-16.7-9.3c-9.7-6.4-9.7-6.4-35.1-7.3
	c-26.6-0.9-30-1.7-37.4-8.4c-9.4-8.5-9.9-11.4-9.9-56.7c0-37.7-0.2-41.3-2.9-47c-3.8-8.3-9.4-11.4-24.6-14.1
	c-7.1-1.2-14.6-3.6-17.2-5.5c-12.1-8.4-16.7-9.9-29.9-9.3c-11.8,0.5-13.3,1-22.7,7c-5.5,3.6-13.2,7.7-16.8,9.2
	c-4.1,1.7-11.2,7-18.2,14c-7.9,7.7-14.2,12.5-20.1,15.1c-4.7,2.1-12.1,6.1-16.4,9s-11.4,6.8-16,8.5c-7.3,2.9-10.8,6.1-31.6,29.3
	c-12.9,14.3-30.1,32.5-38.3,40.2c-13.3,12.7-15.3,15.4-20.5,27.1c-4.6,10.4-6.5,13.2-9.7,14c-3.4,0.9-4.6,0.1-9.8-6.5
	c-3.2-4.1-9.3-11.8-13.4-16.8c-4.9-6-8.9-13.2-11.5-20.2c-3.1-8.4-6.5-13.9-14.3-23.2c-7.5-8.9-11.4-15-14.2-22.5
	c-2.1-5.7-5.8-13.7-8.3-17.9c-2.4-4.1-5.8-11.3-7.4-16.1c-1.7-4.6-4.8-11.4-7-15s-6-11.4-8.4-17.5c-4.5-11.8-4.4-11.7-24-21.2
	c-3.7-1.8-9.8-6.1-13.4-9.6c-11.7-11.1-14.2-7.2,50.6-77.4c56.6-61.5,57.3-62.2,61.2-73.2c3.1-8.8,6.1-13.7,14.4-23.3
	c8.4-9.8,11.3-14.4,14.7-23.8c3.7-10.6,5.7-13.5,21.8-31.3c16-17.8,18.1-20.7,21.7-31.1c4.5-12.6,11.7-22.9,27.8-39.7
	c10.7-11,14.3-13.5,27.7-18.9c7.6-3.1,11.8-7,41.2-38.3c31.9-34,33-34.9,42.9-38.6c10.1-3.8,10.5-4.1,45-42
	c19.1-21,37.8-40.6,41.6-43.6c3.7-3,11.3-7.4,16.7-9.8c9.9-4.4,11.6-6.2,121.5-125.1c104.1-112.7,111.7-121.2,114.5-129.4
	c1.7-4.8,4.6-11.6,6.5-15.1c1.9-3.5,36.7-42.1,77.3-85.8c73.9-79.5,73.9-79.5,77.4-90.3c3.3-10.3,4.7-12.2,28-37.7
	c22.7-24.8,24.8-27.7,28.8-38.3c2.4-6.3,6.5-14.7,9.3-18.6c2.7-4,66-73,140.5-153.5c106.2-114.5,137-146.8,142.1-149.3
	c3.6-1.7,9.9-4.7,13.9-6.6c6-2.9,16.8-13.7,58.1-58.6c27.9-30.3,52.7-56.4,55.1-58.1c2.4-1.7,3.1-2.5,1.5-1.8
	c-4.9,2.2-12.7,1.2-21.4-2.4c-6.5-2.7-8.4-4.2-8.5-6.9c-0.1-2.4-0.5-2-1.2,1.6c-1.7,7.4-6.6,13.4-44.6,54
	c-25.2,26.8-36.5,37.9-41.6,40.4c-3.8,1.9-9.9,4.9-13.4,6.7c-4.7,2.4-12.1,9.9-26.8,27.1c-23.2,27.2-249.6,271.6-270.2,291.6
	c-12.4,12-14.2,14.6-20.1,27.8c-6,13.5-8.2,16.6-30.8,41.7c-18.1,20.1-24.8,28.7-26.2,33.3c-3.7,12.6-8.8,20.7-22.9,37.6
	c-14.7,17.5-97.5,106.7-121.7,131.1c-11.9,12-13.6,14.4-17.2,24.7c-5.5,15.6-11.5,22.6-112.1,130.9c-84.1,90.4-84.1,90.4-99.4,98.5
	c-15.2,8-15.4,8.2-34.7,31.1c-10.7,12.7-26.9,30.3-36,39.3c-16.2,16-24.1,21.6-35.9,25.8c-4.5,1.6-12.8,9.5-37.4,35.6
	c-29.7,31.7-32.2,34-43.6,39.7c-11.4,5.7-13.7,7.8-43,39.3c-28.9,31.1-31.3,34.1-36.6,46.1c-4.6,10.5-8.3,15.7-20,28.6
	c-17.1,18.9-20.5,23.6-25.5,36.9c-2.7,7-7.1,14.1-13.9,22.2c-7.5,9-10.9,14.7-13.9,23.1c-3,8.3-6.5,14.3-14.5,24.1
	c-14.1,17.3-86.2,93.6-91.2,96.4c-5.8,3.2-9.4,1-19-11.6c-9.2-12-15.7-17.6-25.8-21.7c-3.6-1.5-10.2-5.1-14.6-8
	c-6.4-4.1-10.5-5.5-19.6-6.7c-13.7-1.7-15.2-2.2-24.9-9.2c-9-6.5-18.6-8-38.8-6.6c-12.5,0.9-14.4,1.5-21.4,6.5
	c-9.9,7-11.3,7.6-24.8,9.3c-9.3,1.2-12.9,2.5-21,7.7c-5.3,3.5-11.8,6.7-14.2,7.3c-2.5,0.5-19.2,0.7-37.2,0.4
	c-32.6-0.5-32.6-0.5-46.6-8.4c-7.7-4.3-17.5-9.5-21.8-11.6c-6-2.9-12.8-9.2-29-26.7c-18.9-20.5-21.8-24.3-26.7-35.4
	c-3-6.9-6.8-15.4-8.5-18.9c-4.9-9.9-8-16.6-11.9-25.9c-2.1-4.7-5.5-11.8-7.7-15.7c-3.7-6.5-4-8.1-3.6-22.8c0.6-29.2-0.6-37-7-48.6
	c-4.6-8.4-6.1-13-7.7-24.1c-1.1-7.5-3-16-4.3-18.7c-1.3-2.7-2.4-7.6-2.4-10.8c0-5.2,1.2-7.1,9.8-16.2c8.1-8.6,11.5-11,20-14.1
	c9.3-3.4,11.3-5.1,23.9-19c17.9-19.9,22.7-23.8,35.2-29c8.2-3.4,12.8-6.6,21.6-15.7c8.9-9,13.3-12.3,21.8-15.7
	c10.1-4.1,11.8-5.6,33.9-30c24-26.3,23.2-25.7,45.5-35.9c4.5-2.1,13.3-10.8,32-31.9c36.6-41.3,50.1-53.9,63.2-59.3
	c10.1-4.1,11.4-5.4,33.8-30.4c28.3-31.7,60.3-65.3,67.4-71c2.9-2.3,10.3-6.4,16.4-9.1c10.9-4.9,11.8-5.7,42.9-40.4
	c45.7-51.1,58.4-63.4,71.4-68.7c10.1-4.2,11.5-5.5,42.7-39.3c28.7-31.1,32.6-35.9,35.1-43.4c1.6-4.7,5.1-12.3,8-17
	c5.2-8.5,5.2-8.5,5.9-44.7c0.8-40.1-0.3-34.8,12.3-56.4c2.7-4.6,2.9-7.6,2.9-39.5c0-34.5,0-34.5,4.4-42.1
	c10.4-18.1,10.1-16.9,10.2-45.1c0-28.7-1-24.5,11.7-46c2.4-4.1,3.1-8.5,3.6-25.5c0.7-20.4,0.7-20.6,5.9-29.1
	c7.4-12.1,7.5-12.8,7.8-33c0.2-17.1,0.5-18.6,4.6-25.6c10.7-18.6,11.1-19.6,10.4-33.3c-0.4-9-1.3-14.1-3.4-17.5
	c-10.9-18.6-11.4-19.9-11.4-28c0-6.6,1.1-9.9,6-18.9c7.5-13.6,9.1-20,9.1-36.4c0-23.6-0.2-23.9-27.7-53.5
	c-13.6-14.6-25.6-28.9-27.2-32.4c-1.7-3.6-3.3-11.6-4-18.4c-0.9-10.4-1.9-13.7-7.5-23.7c-5.5-10-6.5-13.2-7.3-23.4
	c-1.1-13.4,0.8-21.9,5.7-25.6c1.7-1.3,2.5-2.3,1.7-2.3s-2.2,0.7-3,1.7c-2.4,2.6-35.2,2.9-37.1,0.4c-0.8-1.2-2.3-2.1-3.1-2.1
	C4919.6,1227.6,4920.3,1228.6,4922,1230 M4033,2500c-2.9,1.2-8.1,4.3-11.5,7s-10.4,6.4-15.5,8.3c-12.3,4.4-18.1,10.8-22.2,24.3
	c-2.6,8.4-5.1,12.6-12.8,21.4c-11.3,12.9-14.7,15.1-25.9,16.3c-13.2,1.4-14.8,2.1-17.6,6.5c-2.3,3.9-2.6,9.8-2.6,68.7
	c0,61.8-0.1,64.7-2.9,69.4c-12.8,21.7-11.6,14.8-11.8,69.6c-0.2,51.9-0.5,54.1-7.1,63.5c-2,2.9-5.3,9.6-7.2,15
	c-2,5.4-5.6,13.3-8.1,17.6c-7.9,13.3-8.4,39.2-0.9,46.1c3.1,2.8,6.3,3.6,19.5,4.5c21.6,1.5,24.4,3.1,31.8,19c3.2,6.9,8,16,10.5,20.2
	c9.4,15.4,7.3,24.8-9.3,42c-15.7,16.2-23.4,17.1-40.7,4.1c-8.5-6.4-18.3-8.4-31.1-6.6c-10.3,1.5-14.4,5.9-14.4,15.2
	c0,4.6,0.9,8,2.8,10.2c3.3,3.9,5,4.5,17.3,6.5c12.2,2.1,15.7,4.8,20,15.6c3.9,9.8,4.6,11.2,11.7,23.7c2.9,5.2,4.9,10.8,4.9,14.2
	c0.6,31.1,0.7,32.3,4.2,39.8c5.1,11.1,12.6,19.9,16.8,19.9c1.9,0,6.3-0.8,9.8-1.8c11-3.2,16.4-0.9,28.1,11.8
	c8.5,9.4,11.1,13.4,14.4,22.9c3.2,9,6.3,14.1,14.4,23.6c8.3,9.8,11.3,14.7,15.2,25.3c4.6,12.3,6,14.4,21.4,30.9
	c9.1,9.8,17.6,20,18.9,22.7c1.6,3.3,2.7,10.7,3.1,22.3c0.7,17.3,0.7,17.4,5.7,22.4c2.7,2.8,5.6,5.1,6.5,5.1c0.8,0,4.4,2.2,8,4.7
	c10.7,7.8,13.7,9,26.4,10.7c9.9,1.3,13.4,2.6,19.6,7c4.1,3,8.9,6,10.4,6.7c1.6,0.7,14.4,1.7,28.4,2.2c25.5,0.9,25.5,0.9,34.9,7.5
	c5.1,3.6,13.1,8.1,17.7,9.9c10.5,4.2,14,9.3,15.8,23.1c2.2,16.7,4.8,19.5,20.5,21.5c6,0.8,10.5,2.7,16,6.6
	c15.5,11.3,12.7,10.7,54.1,10.8c20.8,0.1,39.3,0.6,41,1.2c1.8,0.7,7,3.6,11.4,6.5c4.6,3,10.6,6.2,13.5,7.2c7.8,2.7,12.6,7,15.4,13.5
	c3.6,8.4,9,14.2,17.5,18.9c4,2.2,9.2,5.5,11.6,7.5c5.5,4.5,8.1,5.3,21.5,6.9c8.7,1.1,12.6,2.5,19.4,7c10.4,7,16.6,7.4,24.5,1.7
	c3.1-2.2,10.8-6.7,17.3-9.9c8.1-4.1,14.8-8.9,21.4-15.7c6.5-6.6,12.6-11,18.8-13.7c10.8-4.7,14.7-7.6,26.9-19.5
	c6.1-6,11.9-10,18.1-12.5c7.8-3.1,11.7-6.4,25.8-21.1c19.1-20,21.9-22.1,35-28c6.5-2.9,12.9-7.5,19.7-14.3c7-6.9,14.1-12,22.4-16.1
	s15.3-9.3,21.8-15.7c6.5-6.5,13.4-11.5,21.9-15.7c8.5-4.2,15.2-9,21.7-15.7c6.5-6.5,13.3-11.5,21.7-15.7c8.6-4.3,15.1-9,21.4-15.6
	c5-5.1,10.5-10.1,12.3-11c1.8-0.9,11.8-6,22.2-11.4c10.4-5.4,21.2-10.8,23.9-12.3c2.8-1.4,12.8-10.8,22.1-20.7
	c24.8-26.4,23.6-22.4,23.6-83.1c0-27.2-0.5-52-1.1-55.1c-0.6-3.1-4-10.4-7.6-16.3c-3.6-5.9-6.5-11.5-6.5-12.3c0-0.9-5-12.5-11-25.8
	c-8.6-18.9-12.8-26.2-19.5-34c-5.7-6.5-10.3-13.9-13.7-22.1c-3.6-8.5-8-15.5-14.3-22.8c-6.5-7.4-10.4-13.7-13.4-21.4
	c-2.3-6-6.6-14.9-9.5-19.8c-2.9-4.9-6.1-12.3-7.2-16.5c-1.6-6.2-4.2-10.1-15.2-21.9c-12-13-14.2-14.7-23.4-17.9
	c-9.5-3.3-11.2-4.7-26.3-21c-9.2-10-18.2-21.4-21-26.8c-2.7-5.1-7-10.7-9.4-12.3c-21.4-14.2-24.3-15.6-36.2-17.1
	c-12.5-1.6-14.6-2.4-26.8-10.8c-7.5-5.1-8.2-5.3-22.7-5.2c-16,0.1-14.7-0.4-32.6,12c-2.4,1.7-9,3.3-16.6,4.1
	c-11.1,1.2-13.7,2.1-20.2,7c-4.1,3.1-10.4,6.2-14.1,7c-5.3,1.2-30.9,1.2-77.1,0.4c-3.3-0.1-8.5-2.3-14.7-6.4
	c-5.3-3.5-12.9-7.6-17-9.4c-6.2-2.7-13.7-9.9-47.5-46.5c-36.9-39.8-40.4-44.1-43.6-53c-1.9-5.3-5.1-12.3-7.2-15.7
	c-2.1-3.3-4.7-9-5.9-12.6c-1.2-3.6-4.9-11.4-8.2-17.5c-6.1-10.9-6.1-10.9-7-38.4c-0.5-15.2-1.4-28.9-2.1-30.6
	c-0.7-1.7-3.4-6.7-6.1-11.1c-3.9-6.5-5.1-10.4-6.2-20.4c-2-19-4.8-24.8-15.5-31.5c-6.5-4.1-6.5-4.1-111.4-4.3
	c-102.3-0.2-105-0.3-109.5-3.3C4048.4,2498.2,4042.4,2496.2,4033,2500 M6788.9,3265.5c-4.6,6-35,39.4-67.7,74.5
	c-32.6,35-59.9,64.6-60.5,65.8c-2.2,4,131.2-140.8,134.4-145.9C6800.2,3251.6,6798,3253.7,6788.9,3265.5 M6501,3670.4
	c-24.8,26.6-34.2,39-34,45c0,0.8,1.7-2,3.7-6.3c2.5-5.3,12.7-17.6,31.6-38.1c15.3-16.6,27.5-30.2,27.1-30.2
	C6529,3640.9,6516.3,3654.2,6501,3670.4 M5221.3,3976.4c13.7,0.2,36.4,0.2,50.1,0c13.7-0.2,2.5-0.5-25.1-0.5
	C5218.9,3976,5207.6,3976.2,5221.3,3976.4"/>
<path class="st1" d="M2062.2,1043.5c-11.3,12.8-21.7,25.6-23.1,28.7c-2.5,5.2-2.7,13.3-2.3,147.7c0.3,155.4,0.7,147.1-7.9,159.3
	c-2,2.7-5,9.1-6.7,14.1c-1.7,5-5.6,13.3-8.8,18.5c-6.1,10.3-6,9.6-5.6,40.4c0.3,21.8-0.7,26.1-8.9,38.3c-4.3,6.5-6.3,15.7-7,33.1
	c-0.1,0.9-2.9,6.2-6.3,11.7c-6.2,9.9-6.2,9.9-7,30.5c-0.8,21.4-0.9,21.8-9.3,35.3c-5.2,8.4-5.2,8.4-5.2,28.2
	c0,26.3-1.7,36.3-7.9,47.6c-2.8,5.1-6.2,12.8-7.7,17.3c-1.8,5.8-5.8,11.8-13.7,21.1c-8.7,10.2-11.9,15.3-14.9,23.9
	c-4.1,11.8-7.1,15.5-16.1,20.4c-7.2,3.9-11.4,8.8-14.3,16.6c-1.3,3.6-9.7,14.2-20.2,25.9c-16.5,18.3-18.2,20.8-21.4,30.9
	c-3.2,10.1-5,12.6-21.1,30.6c-9.7,10.8-18.4,21.2-19.3,23c-3,6.3-1.9,13.4,3.2,21.3c2.7,4.1,6.3,11.6,8,16.6
	c3.1,8.9,12.7,22.7,21.9,31.1c2.3,2.1,8.7,5.9,14.2,8.3c5.5,2.4,13.7,7,18.5,10.1c4.7,3.1,10.9,6.5,13.8,7.5c2.9,1,8.9,4.1,13.3,7
	c4.4,2.8,11.6,6.6,16.1,8.4c5.8,2.3,10.9,6.2,18.1,13.9c7.6,8,12.6,11.8,20.3,15.2c5.5,2.5,13.4,6.8,17.5,9.5s11,6.5,15.6,8.3
	c4.6,1.8,10.8,5.1,14,7.3c3.1,2.2,11.7,6.8,19,10.4c11.9,5.8,13.7,6.3,18.1,4.6c5.7-2.1,8.1-5.5,11.6-16.8c1.4-4.5,4-10.6,5.9-13.5
	c3.8-6,25.5-53.3,25.5-55.4c0-0.8,2.2-5.1,5-9.4c2.7-4.4,6.6-12.4,8.7-17.8c2.6-6.8,6.5-13.1,13.1-20.5c5.4-6.1,10.8-14.3,12.8-19
	c1.8-4.6,6.4-14.7,10.1-22.4c3.7-7.8,7.2-15.9,7.8-18.1c0.6-2.2,3.6-8.2,6.6-13.3c3.1-5.1,7-13.3,8.6-18.1c2.1-6,6.3-12.7,13.7-21.5
	c7.8-9.3,11.6-15.4,14-22.3c2.3-6.6,6.2-13.1,13.1-21.3c5.4-6.5,10.4-13.4,11.3-15.3c20.9-47.2,24.3-54.1,32.8-63.9
	c6-7,10.5-14.3,14.4-23.4c3.9-9.1,8.4-16.6,14.5-23.6c6.2-7.2,10.9-15,15.8-26c3.9-8.6,8.3-18.1,9.8-21.2
	c5.9-11.6,18.1-38.8,20-44.4c1.1-3.2,3.9-8.9,6.3-12.8c2.4-3.7,5.6-10.4,7.1-14.8c1.6-4.4,4.7-11.4,7-15.6
	c2.3-4.1,5.6-11.6,7.4-16.6s5.1-12.1,7.3-15.7c2.2-3.6,5.3-9.8,6.7-13.7c1.4-3.9,4.9-11.7,7.8-17.3c4.1-8,5.7-13.3,7-24
	c1.5-11.8,2.7-15.2,7.7-23.8c5.1-8.4,6.1-11.7,7.3-22.3c1.5-13.9,2-15.6,8-26.4c3.2-5.8,4.7-11.3,6-21.8c1.4-11.3,2.7-15.5,6.7-22
	c6.4-10.4,6.9-12,8.4-26.7c1-9.5,2.3-14.1,5.7-19.8c2.4-4.1,6.1-11.9,8.2-17.5c2.1-5.5,5.2-12.2,7-14.7c7-10,7.3-11.7,8.1-40
	c0.8-27.5,0.8-27.5,7-39.9c9.8-19.8,8-30.6-5.8-37c-4.2-2-10.4-5.6-13.8-8.1c-3.4-2.5-8.9-5.6-12.3-6.9c-3.4-1.2-9.9-4.8-14.5-7.8
	c-11.5-7.6-20.1-8.9-55-8.3c-29.8,0.6-29.8,0.6-39.9,7.1c-5.5,3.6-13.1,7.8-16.6,9.4c-3.6,1.6-11.1,5.4-16.7,8.6
	c-5.6,3.2-11.8,6.3-13.8,7s-7.2,3.9-11.6,7.2c-4.4,3.3-10.9,7.1-14.5,8.5c-3.6,1.3-11.1,5.5-16.6,9.1c-10.1,6.6-10.1,6.6-28.3,6.5
	c-22.4-0.2-26.8-2-42.4-17.4c-7.5-7.4-13.2-11.6-17.5-13c-10.2-3.3-16-7.2-24.2-16.2c-9.8-10.8-10.8-16.2-5.5-27.6
	c5-10.5,4.8-16.2-0.7-25.8c-2.4-4.3-5.7-11.6-7.4-16.3c-2.7-7.5-6-11.7-9.5-11.6C2083.2,1020.3,2073.4,1030.8,2062.2,1043.5
	 M3295,1133.3c-165.1,0.8-165.1,0.8-173.1,6.8c-4.4,3.3-10.2,6.3-12.9,6.8c-2.7,0.4-106.3,0.9-230.1,1.1
	c-225.2,0.3-225.2,0.3-232.2,5c-3.9,2.6-9.1,6.1-11.6,7.9c-4.1,2.8-7.5,3.2-32.9,3.6c-37.3,0.7-41.3,0.1-52.7-8
	c-8.9-6.5-9.3-6.5-25.1-7.5c-8.8-0.5-19.1-1.8-22.9-3c-9.8-2.8-13.3-1.3-20.3,8.9c-8.3,12.2-10.1,20.6-8.9,41.3
	c1.2,22,0.1,29.4-6.3,39.5c-2.9,4.6-6.7,12.4-8.6,17.5c-1.9,5.1-5.5,12.7-8,17c-3.8,6.5-4.8,10-5.7,20.9
	c-1.2,14.1-1.4,14.8-9.3,27.3c-4.1,6.6-5.2,9.9-5.2,15.7c-0.1,11.5-2.7,20.8-8.2,29.6c-4.9,7.7-6.8,16.4-7.6,34.4
	c-0.1,0.9-2.8,6.1-6.1,11.4c-5.4,8.7-6.2,11.3-7.8,24.6c-1.5,12.5-2.6,16.2-6.7,23.1c-2.7,4.6-6.1,11.4-7.5,15.2
	c-1.3,3.9-4.4,10.3-6.8,14.2c-4.9,8-5.6,15.6-1.8,19.2c1.4,1.3,5.8,4.2,9.8,6.4c4,2.2,10.8,8,15.2,12.8c6.8,7.5,11.6,10.8,32,21.4
	c26.3,13.7,26.8,14.1,36.5,20.6c5,3.3,9.8,5,18.1,6c15.4,2.1,20.6,5,24,13.3c2.6,6.4,2.7,11,2.3,83.3c-0.4,76.6-0.4,76.6-5.1,84.1
	c-2.7,4.1-6.6,12.4-8.9,18.6c-2.3,6.2-5.1,12.3-6.3,13.7c-9.6,11.8-10.2,39.1-1.2,54.3c6.3,10.7,6,17.3-0.8,29.4
	c-7.6,13.3-7.5,20.6,0.7,35.6c3.6,6.6,6.7,14.7,7.6,19.9c0.9,5.1,1.3,27.7,1.1,54.7c-0.4,46-0.4,46-6,55c-4.1,6.6-5.4,10.4-5.1,13.9
	c0.4,5,0.8,5.4,14.6,14.5c8,5.3,9,9.6,9.9,39.3c0.8,27.7,1.3,30.3,8.8,41.7c1.4,2.2,4.4,8.9,6.6,14.8c3,8,6.6,13.9,14.2,22.9
	c8.2,9.6,11.3,14.7,15.2,25.2c4.6,12,6.4,14.7,21.4,31.3c14,15.5,17.1,20,21.7,30.6c3.6,8.7,7.9,15.4,13.9,22.2
	c6.1,6.9,10.3,13.6,14.3,23.1c4,9.4,8.4,16.5,14.6,23.8c6.3,7.3,10.6,14.4,14.7,23.9c4.3,10.1,8.3,16.4,15.6,24.7
	c6.5,7.5,10.7,13.7,12.4,19c1.5,4.3,4.9,11.8,7.6,16.8c2.7,5,6.3,13,7.9,17.9c6.1,19.1,7.2,18.8,37.2-13.2
	c38.7-41.2,45.1-49.1,52.1-65.4c6-13.9,6.7-14.8,30-38.1c23.1-23.3,47.7-51.3,51.6-58.7c1.1-2.1,3.6-8.3,5.5-13.9
	c2.7-7.4,6.6-13.7,14.4-23.2c7.7-9.3,11.7-15.7,14-22.4c2.4-6.9,6.2-13,13.9-22.2c8.3-9.9,11.5-15.2,14.6-23.9
	c3.5-9.9,5.5-12.8,18.7-26.8c27.7-29.4,34.9-38.8,39.4-51.3c3.9-10.8,5.5-12.9,27.7-36.6c24.4-26.2,24-25.4,34.4-51.3
	c0.9-2.3,12.2-16.1,24.9-30.5c22.7-25.6,23.4-26.6,32.4-46c5.1-10.8,10.4-23.2,12-27.4s4.8-10.7,7.2-14.4c2.4-3.7,4.3-7.4,4.3-8
	c0-1.2,14.6-34.3,20.7-46.8c10.8-22.2,23.5-49.8,25.8-56c1.5-4,5-11.1,7.7-15.7c2.7-4.6,5.5-10.2,6-12.3c0.6-2.2,3.9-9.6,7.3-16.5
	c3.4-6.9,7.4-16,8.8-20.1c1.7-4.8,6.2-11.8,12.5-19c7.3-8.4,11.6-15.3,16.4-26.2c3.6-8.1,7.8-17.2,9.4-20.2
	c4.9-9.4,20.5-44.7,20.5-46.4c0-0.8,2.7-5.8,5.8-10.9c3.2-5.2,5.8-10.3,5.8-11.3c0-1.1,3.5-9.2,7.8-18.1c4.3-8.9,8.3-17.9,8.9-20
	c0.6-2.2,3.4-7.7,6.1-12.3c2.7-4.6,6.3-12,7.9-16.5c1.6-4.5,4.8-11.6,7-15.9c2.2-4.3,5.5-11.7,7.2-16.2c1.7-4.6,5.1-11.5,7.5-15.3
	c2.4-3.8,5.3-9.5,6.4-12.8c1.1-3.2,6.1-14.8,11.3-25.7c6.7-14.3,11.7-22.7,18.2-30.3c6.5-7.6,10.3-13.9,13.6-22.6
	c2.6-6.6,6-14.1,7.6-16.6c1.7-2.5,5-9.5,7.5-15.7c2.5-6.1,6.3-14.3,8.4-18.2c2.2-3.9,5.2-10.8,6.9-15.5c1.7-4.6,5.1-11.5,7.5-15.3
	s5.2-9.5,6.3-12.8c1.8-5.4,13.7-32.1,19.4-43.6c7.2-14.5,21.2-45.1,23.8-51.8c1.7-4.3,4.9-11.2,7.3-15.2c8.4-14.2,2.6-23.7-14-22.9
	C3463.4,1132.4,3385.8,1132.9,3295,1133.3 M3528.8,1133.6c-4.5,1-11.3,8-11.3,11.5c0,0.8-2.4,5.8-5.3,11s-6.8,13.6-8.7,18.6
	c-1.8,5.1-5.3,12.5-7.6,16.5c-2.3,4-5.4,10.8-6.9,15.2c-1.4,4.3-4.6,10.9-6.9,14.7c-2.3,3.7-5.8,11.1-7.7,16.3
	c-1.9,5.2-5.4,12.8-7.8,16.8s-5.4,10.5-6.6,14.3c-1.2,3.8-4.6,11-7.4,15.9s-6,12-7.3,15.7s-4.4,10.7-7,15.4
	c-2.7,4.7-6,12.2-7.5,16.5c-1.5,4.3-4.5,10.8-6.8,14.5c-2.3,3.6-6,11.6-8.3,17.7c-3.1,8.4-6.6,13.8-14.3,22.6
	c-7.5,8.5-10.9,14-13.3,20.8c-1.7,5.1-5.3,13.2-8,18.1s-5.9,12.3-7.2,16.6c-1.3,4.3-4.4,10.8-6.8,14.3c-2.4,3.6-6,10.8-8,16.1
	c-1.9,5.3-5.4,12.9-7.7,16.9c-2.3,4-5.4,10.8-6.9,15.2c-1.4,4.3-4.6,10.9-6.9,14.7c-2.3,3.7-5.8,11.2-7.7,16.4
	c-1.9,5.3-5.1,12.3-7.1,15.6c-2,3.2-5.1,10-6.7,15c-1.7,5-5.1,12.1-7.4,15.8c-2.4,3.7-5.9,11.2-7.8,16.4c-1.9,5.3-5.1,12.3-7.1,15.6
	c-2,3.2-5.2,10.5-7.2,16.1c-2,5.6-5.2,12.6-7.2,15.4c-2,2.8-5.5,10.3-7.9,16.5c-3.3,8.8-6.6,14.1-14.4,22.9
	c-7.5,8.5-10.9,13.9-13.3,20.8c-1.7,5.1-5.4,13.3-8.2,18.1c-2.8,4.9-6,12-7.2,15.7c-1.2,3.7-4.5,10.8-7.3,15.7
	c-2.8,4.9-6,12-7.3,15.7s-4.4,10.7-7,15.4c-2.7,4.7-6,12.2-7.5,16.5c-1.5,4.3-4.6,10.9-6.9,14.7c-2.3,3.7-5.7,10.9-7.6,16
	c-1.8,5.1-5.6,13.3-8.4,18.3c-2.8,5.1-5.9,11.9-6.9,15.4c-1,3.5-3.6,9.1-5.8,12.7c-2.2,3.5-5.7,10.9-7.8,16.5
	c-2.1,5.5-5.5,12.7-7.5,15.9c-5.1,8-4.4,15.1,1.9,19.4c17.8,12.2,25.4,16.7,32.7,19.6c12.8,5.1,14.7,9.2,15.7,31.5
	c0.9,21.6,2,23.9,14.2,31.1c8.9,5.1,35.8,30.5,39,36.9c4.6,8.8,1.5,17.4-10.1,28.1c-4.3,4.1-8.7,9.5-9.8,12.2
	c-4.4,11.5,3.5,24.5,17.6,29c9.2,2.9,22.4,3.4,28.1,1c4.6-1.9,47.3,1,53.7,3.6c6.6,2.7,36.1,35,40.5,44.5
	c6.5,13.8,14.2,17.6,31.6,15.5c6.7-0.8,10.8-2.6,17.7-7.5c9.7-6.9,14.1-7.6,28.7-5.1c6.5,1.2,6.5,1.2,32.2-26.1
	c26.9-28.6,34.1-38.3,38.3-51.7c2.1-6.6,5.7-11.8,20.3-28.2c16-18.1,18.2-21.2,21.9-31.6c3.9-11.1,5-12.4,30.9-39.8
	c30-31.6,37.4-41.4,42.5-56c3.1-9,5.9-12.7,28.3-37.7c23.3-25.8,25.2-28.4,29.1-39.1c3.1-8.4,6.5-14.2,12.9-21.8
	c10-11.8,13.7-18,17.6-29.2c2.1-6,6.7-12.3,19.5-26.7c9.2-10.4,17.5-20.6,18.5-22.8c0.9-2.2,3.7-8.5,6.1-14.1
	c3.7-8.6,7-12.9,21.5-27.3c32.8-32.7,46.1-50.4,51.3-67.7c1.4-4.9,8.9-14.1,33.3-40.8c17.2-19,32.1-36.3,33.1-38.4
	c0.9-2.2,3.7-8.5,6.1-14.2c3.6-8.3,6.8-12.7,17.1-22.8c32.9-32.2,49-52.5,54.5-68.7c3.1-9.3,5.5-12,51.8-61.5
	c66.8-71.3,87.5-95.4,91.8-107.1c1.8-5.1,6-14.8,9.4-21.7c3.3-6.9,7.1-15.5,8.5-19.1c1.4-3.6,5.3-9.6,8.7-13.3
	c10.2-11.2,13.8-16.9,17.1-26.3c1.7-4.9,5-12.1,7.3-16.1c5.2-8.8,5.5-16,1-19.4c-2.6-2.1-8.6-2.5-35.4-2.5
	c-37.4,0-44.2-1.1-54.7-8.5c-4.2-3.1-9.7-6-12.2-6.5c-2.5-0.5-40.4-1.1-84.3-1.2c-88.9-0.2-79.6,0.8-97.5-11.3c-7-4.7-7-4.7-124-5
	c-64.3-0.2-118.8-0.7-120.9-1.2c-2.2-0.5-7.7-3.5-12.3-6.8c-8.3-6-8.3-6-25.8-6.3C3565.1,1132.7,3533.1,1132.6,3528.8,1133.6
	 M4228.8,1180.6c-6.5,1.2-10.4,4.9-15,14.7c-2,4.3-5.1,10.3-7,13.3c-1.8,3.1-4.8,9.8-6.5,14.8c-2.3,6.9-6,12.5-13.7,21.5
	c-7.8,8.9-11.4,14.7-13.7,21.4c-1.7,5.1-5.3,13.1-8,17.8c-2.7,4.8-6.4,12.9-8.1,18.1c-3.1,8.9-6.8,13.2-71.1,82.3
	c-67.9,73-67.9,73-72.1,85.6c-4.1,12.6-4.1,12.6-32.2,42.4c-15.5,16.4-30.1,32.5-32.5,35.8c-2.4,3.2-6.5,11.7-9.3,18.8
	c-4.8,12.6-5.6,13.7-36.7,47.5c-31.1,33.9-31.8,34.9-35.2,45.6c-3.4,10.8-4.1,11.6-31.6,40.8c-15.5,16.4-30.1,32.5-32.5,35.8
	c-2.4,3.2-6.5,11.7-9.3,18.7c-4.5,11.6-6.5,14.5-22.1,31.8c-16,17.6-17.5,19.8-20.6,29.9c-2.8,9.2-5.1,12.8-14.4,23.6
	c-9,10.4-11.8,14.8-15.2,24.4c-4.1,11.2-5.4,13.1-28.7,38.3c-23.8,25.8-24.6,26.8-28.5,38.4c-4,11.8-4.2,12.3-32.1,41.7
	c-15.5,16.4-30.1,32.5-32.5,35.8c-2.4,3.2-6.5,11.7-9.3,18.8c-4.5,11.7-6.5,14.6-22.2,31.8c-15.8,17.4-17.5,19.8-20.7,29.9
	c-3.4,10.5-4.5,12-27.6,36.9c-23.9,25.8-25,27.3-32.7,47c-3.1,7.9-13,21.1-19,25.4c-5.7,4.1-10.8,3.6-21-1.9
	c-10.1-5.5-12.9-5.3-22.4,1.7c-3.4,2.6-9.7,5.4-13.9,6.4c-11.1,2.6-33.4,0.7-41.3-3.4c-9.4-5-21.2-19.6-25.9-32.4
	c-2.2-5.9-6.5-14.4-9.6-18.8c-7-10.1-6.8-10-54.4-11c-36.4-0.7-36.4-0.7-50.4-7.7c-7.8-3.8-14.7-7-15.6-7c-0.8,0-3.7-2.2-6.5-4.7
	c-6-5.8-8.9-16.6-7.8-29.7c0.9-10.8,3.4-16.3,12-26.8c7.6-9.2,9.3-14.7,6.4-20.2c-3.1-6.1-9.7-9.2-22.8-10.8
	c-20.5-2.7-23.6-7.1-25.1-35.6c-0.5-10.4-1.7-20.7-2.6-23c-3.6-9.6-10.1-15-25.8-21.6c-14.3-6-15.5-6.3-20-4.3
	c-2.6,1.2-11.6,9.9-20,19.2c-13.8,15.4-15.7,18.1-18.9,28.1c-3.3,10.5-4.4,11.9-24.3,32.9c-24.1,25.3-28.8,31.8-35,48.1
	c-4.3,11.3-5.9,13.3-28.3,37.1c-23.4,24.8-23.9,25.4-27.9,37.4c-3.5,10.4-5.8,14.2-15.2,24.9c-8.9,10.4-11.8,14.8-15.2,24.3
	c-3.3,9.4-6.2,14-14.7,23.8c-8.7,10-11.1,14-13.7,22.7c-3.2,10.4-3.7,11.1-38.8,48.4c-19.5,20.8-37.7,41-40.3,44.9
	c-2.6,3.9-6.9,12.6-9.4,19.3c-4.4,11.5-5.8,13.3-26.7,35.1c-31,32.4-40.9,44.6-44.6,55.3c-1.7,4.9-5.3,12.4-8,16.7
	c-2.7,4.3-6.3,12.1-8,17.2c-1.7,5.1-4.6,11.8-6.5,14.9s-5.5,10.7-7.9,17.1c-3.8,10.2-6.3,13.7-21.6,30.6
	c-15.7,17.4-17.6,20-20.8,29.9c-2.9,8.9-5.5,13.2-14.6,23.9c-9,10.6-11.7,14.9-14.5,23.7c-3.1,9.9-4.8,12.2-20.4,28.8
	c-17.4,18.6-19.4,21.5-24.8,37.2c-2.7,7.6-6,12.4-20.9,28.8c-16.4,18.2-18,20.5-21,30.6c-3.3,10.7-3.7,11.3-34.4,43.7
	c-32.3,34.3-32.6,34.7-42,58.9c-1.8,4.7-7.5,11.8-18.7,23.3c-8.9,9-23,24.5-31.5,34.3c-13.6,15.7-15.8,19.1-18.9,28.6
	c-3.2,10.2-4.5,11.8-24.3,32.6c-24,25.3-29.1,32.1-34.6,47.2c-3.6,9.6-6.2,13.4-21.7,30.6c-16.1,17.9-18,20.7-21.8,31.4
	c-3.8,10.8-5.5,13.3-21,30c-11.2,12.1-17.8,20.5-19.5,25.1c-4.9,12.3-9.5,22.4-13.3,28.9c-3.1,5.4-3.6,7.8-3.2,16.6
	c0.4,8.9,1.2,11.7,5.7,18.9c2.9,4.7,6.6,11.5,8.4,15.1c1.7,3.6,5.5,8.2,8.5,10.3c12.7,8.5,23.3,14.8,29.2,17.4
	c3.5,1.5,10.7,5.5,16,8.9c5.3,3.5,12.3,7.1,15.4,8.1c4.3,1.4,10.5,6.8,23.7,20.5c16.2,16.9,28.4,26.2,34.6,26.3
	c0.9,0,5.5,2.7,10.3,6c4.8,3.3,12.6,7.6,17.3,9.5c4.7,1.9,11.6,5.5,15.2,7.9c3.6,2.4,10.2,6,14.7,7.9c7,3,11.8,7.5,32.7,29.8
	c23.3,25,25,26.6,35.2,30.7c16.4,6.7,26.2,16.4,38.5,37.9c2.7,4.9,7.2,8.8,17.4,15.3c15.2,9.8,20.7,10.8,27.9,5.5
	c2.4-1.8,10.3-6.4,17.5-10.2c7.2-3.8,16-8.7,19.6-10.8c3.6-2.2,10.1-5.7,14.5-7.8c4.4-2.2,10.3-5.3,13.1-7c2.8-1.7,9.4-5.3,14.5-7.9
	c5.2-2.7,12.4-6.5,16-8.7c3.6-2.2,16.6-9.3,29.1-15.8s25.4-13.6,29.1-15.7c3.6-2.2,10.1-5.6,14.5-7.7c4.4-2.2,10.3-5.3,13.1-7
	c2.8-1.7,9.4-5.2,14.5-7.9c5.2-2.6,11.8-6.1,14.5-7.8c9.2-5.5,35.4-19.3,41.1-21.4c3-1.2,8.4-4.3,12.1-7c3.6-2.7,10.6-6.6,15.4-8.7
	c4.8-2.1,11.8-5.8,15.5-8.3s9.1-5.4,12-6.4c2.9-1,9.1-4.3,13.7-7.4c4.7-3.1,13.4-7.7,19.3-10.4c7.8-3.5,13.4-7.5,20.4-14.5
	c7.5-7.6,14.2-12.1,30.6-21c11.6-6.2,21.7-11.3,22.5-11.3s5.4-2.8,10.2-6.3c4.8-3.5,9.4-6.3,10.1-6.3c1.3,0,31.8-15.7,42.2-21.6
	c10.1-5.8,51.3-28.1,56.7-30.6c3.1-1.5,10.8-7.5,16.9-13.4c8-7.8,13.9-11.9,21.1-15c7.5-3.1,12.8-7.1,21.8-15.8
	c8.4-8.2,14.2-12.6,20.1-15c4.6-1.8,11.1-5.5,14.5-8c3.4-2.6,9.7-6.1,13.9-8c4.2-1.8,11.7-5.7,16.6-8.6c4.9-3,11.4-6.4,14.7-7.5
	c3.2-1.2,9.4-4.6,13.7-7.6c4.4-3,10.2-6.4,13-7.6c4.4-1.9,37.3-19.6,50.1-27c11.3-6.5,35.4-19,40.3-21c3-1.2,8.4-4.2,11.8-6.9
	c3.5-2.6,9.9-6.2,14.1-8c4.2-1.8,11.7-5.7,16.6-8.6c4.9-3,11.6-6.4,15-7.7c3.4-1.2,8.9-4.4,12.3-7c3.4-2.6,10.4-6.5,15.6-8.8
	c5.1-2.2,11.7-5.7,14.5-7.7c7.1-5.1,9.4-5.7,22.4-7.4c9.5-1.2,12.8-2.4,19.3-7c4.3-3.1,11.2-7,15.3-8.8s11.3-5.7,15.9-8.8
	c6.6-4.5,10.6-5.8,19.5-6.9c13.7-1.7,15.9-2.4,23.2-7.8c3.2-2.4,10.7-6.5,16.7-9.2c7.2-3.2,13.6-7.6,18.9-12.9
	c11.6-11.6,15.6-14.5,26.3-19.3c6.4-2.8,12.9-7.5,19.6-14.2c7.8-7.6,14.7-12.3,31.2-21.1c11.7-6.2,21.7-11.3,22.4-11.3s5.1-2.7,10-6
	s12-7.3,15.7-8.9c3.8-1.6,10.3-5.2,14.5-8.1c7.6-5.3,9.7-6,24.7-7.7c6-0.7,10.8-2.7,18.1-7.4c8-5.1,12-6.7,20.9-7.9
	c16.3-2.2,16.9-2.4,21.9-6.9c6.6-6,10.2-14.9,11.7-29.2c1.2-10.8,2.2-14.1,7.2-22.4c4.1-6.7,6.4-12.7,7.4-19
	c0.8-5.2,1.3-34,1.2-66.6c-0.2-39.9,0.2-58.6,1.4-61.8c2.3-6.1,12.5-18.9,19-23.8c3.4-2.6,8.9-4.6,14.7-5.6
	c14.5-2.4,16.8-3.9,21.9-14.3c2.8-5.7,10.3-15.6,19.3-25.5c13.7-15.1,21-20.8,29.9-23.7c2-0.7,7.6-3.9,12.4-7.3
	c15.9-11,34-11.4,47.2-1.2c13.4,10.5,6.1,9.9,119.8,10.1c88.1,0.2,103.9,0.6,107.5,2.6c6.6,3.6,11.7,4.5,15.9,2.7
	c2.2-0.9,10.8-8.9,19.5-17.9c10.7-11.1,17.4-16.9,21.3-18.2c11.8-4.1,17.7-8.7,34-26c14.3-15.2,18.4-18.6,28.2-23.4
	c7.9-3.9,14.6-8.8,21.4-15.6c6.9-6.9,13-11.3,19.8-14.4c16-7.2,20.4-10.8,43.3-35.9c20.5-22.4,22.6-24.2,32.5-28.4
	c13.5-5.7,25-16.6,61.8-57.7c26.6-29.8,27.9-31.1,38.5-35.8c6-2.7,14.6-7.8,19-11.3c8-6.5,48.5-49.5,74.1-78.9
	c12.7-14.6,14.6-16.1,24.7-20.3c10.8-4.5,11-4.6,58.1-55c43.2-46.3,48-50.9,55.9-54.2c13.6-5.7,19.3-10.2,34.3-26.6
	c12.2-13.3,14.6-16.8,18.7-27.7c2.7-6.9,7.1-16.6,10-21.7c5.3-9.3,5.3-9.3,6-44.7c0.4-19.5,1.3-36.9,2.1-38.6
	c0.7-1.7,3.5-6.7,6.1-11c6.6-10.8,8.3-21.9,7.3-48.6c-1-26.9-0.1-32.7,7.1-45.1c5.6-9.8,5.6-9.8,6.4-37.3
	c0.7-29.1,0.4-27.5,9.5-44.6c3.7-7,4.2-9.7,5-26.7c0.9-19.4,1.1-20,9.4-35.9c3.6-6.7,4.1-9.9,5.1-26.7c1.2-20.8,1.5-22.3,7.5-31.8
	c8.9-14.3,8.5-26.5-1.3-42.7c-5.4-8.7-5.4-8.7-5.4-30.8s0-22.1,6.9-36c12.4-24.9,10.4-30.4-23.6-67.2
	c-25.5-27.6-27.7-31.1-27.7-44.6c0-8.9-2.2-15.7-8-24.8c-5.7-9-8.6-21.7-7.2-31.7c1.2-8.9-1.6-19-6.2-22.3
	c-3.6-2.5-10.4-2.7-84.6-2.7c-90,0-80.6,1.1-98.5-11c-7-4.7-7-4.7-133.2-5.1c-126.2-0.3-126.2-0.3-132.9-4.6
	c-17.6-10.9-9.3-10-89.5-10c-44.1,0-74.7-0.6-77.8-1.6c-2.8-0.8-8.6-4.2-13-7.5c-7.9-5.9-7.9-5.9-33-6.7
	C4245.3,1180,4231.6,1180.1,4228.8,1180.6 M4964.9,1228.3c-7.1,3.5-9.6,11.2-8.5,26.6c0.7,10.9,1.6,13.7,7.3,24
	c5.5,10,6.5,13.3,7.5,23.8c0.6,6.8,2.3,14.9,4,18.4s13.7,17.8,27.2,32.4c27.5,29.5,27.7,29.9,27.7,53.5c0,16.4-1.7,22.9-9.1,36.4
	c-5,8.9-6,12.3-6,18.9c0,8,0.5,9.3,11.4,28c2,3.4,3,8.4,3.4,17.5c0.6,13.7,0.2,14.7-10.4,33.3c-4.1,7-4.3,8.4-4.6,25.6
	c-0.2,20.2-0.4,21-7.8,33c-5.1,8.4-5.2,8.7-5.9,29.1c-0.6,17-1.2,21.4-3.6,25.5c-12.7,21.5-11.6,17.5-11.7,46
	c0,28.2,0.2,27-10.2,45.1c-4.4,7.5-4.4,7.5-4.4,42.1c0,31.9-0.2,34.9-2.9,39.5c-12.7,21.6-11.5,16.3-12.3,56.4
	c-0.7,36.3-0.7,36.3-5.9,44.7c-2.8,4.6-6.5,12.3-8,17c-2.5,7.5-6.4,12.4-35.1,43.4c-31.2,33.8-32.6,35-42.7,39.3
	c-13,5.4-25.7,17.6-71.4,68.7c-31.1,34.7-32,35.5-42.9,40.4c-6.1,2.7-13.5,6.9-16.4,9.1c-7.1,5.6-39.1,39.3-67.4,71
	c-22.4,25-23.7,26.2-33.8,30.4c-13.2,5.4-26.6,18-63.2,59.3c-18.7,21.1-27.5,29.9-32,31.9c-22.3,10.2-21.4,9.5-45.5,35.9
	c-22.2,24.3-23.9,25.8-33.9,30c-8.4,3.5-12.8,6.7-21.8,15.7c-8.9,8.9-13.4,12.3-21.6,15.7c-12.5,5.1-17.3,9.1-35.2,29
	c-12.6,14-14.7,15.7-23.9,19c-8.4,3.1-11.8,5.5-20,14.1c-8.7,9.2-9.8,11-9.8,16.2c0,3.2,1.1,8.1,2.4,10.8c1.3,2.7,3.2,11.2,4.3,18.7
	c1.6,11.1,3,15.7,7.7,24.1c6.5,11.6,7.6,19.4,7,48.6c-0.2,14.7,0,16.1,3.6,22.8c2.2,3.9,5.6,10.9,7.7,15.7c4,9.3,7,16,11.9,25.9
	c1.7,3.5,5.5,11.9,8.5,18.9c4.9,11.2,7.7,15,26.7,35.4c16.2,17.6,23,23.8,29,26.7c4.3,2.1,14.1,7.3,21.8,11.6
	c14,7.9,14,7.9,46.6,8.4c18,0.2,34.7,0.1,37.2-0.4c2.5-0.5,8.9-3.8,14.2-7.3c8-5.2,11.7-6.5,21-7.7c13.4-1.7,14.8-2.2,24.8-9.3
	c7-5.1,8.9-5.6,21.4-6.5c20.2-1.4,29.7,0.2,38.8,6.6c9.8,7,11.2,7.5,24.9,9.2c9.1,1.2,13.3,2.6,19.6,6.7c4.5,2.9,11,6.5,14.6,8
	c9.9,4.1,16.5,9.6,25.8,21.7c9.7,12.6,13.3,14.8,19,11.6c5-2.8,77.2-79,91.2-96.4c7.9-9.8,11.5-15.8,14.5-24.1
	c3-8.4,6.4-14.1,13.9-23.1c6.8-8.1,11.2-15.2,13.9-22.2c5.1-13.3,8.4-18.1,25.5-36.9c11.7-12.8,15.3-18.1,20-28.6
	c5.3-12,7.7-15,36.6-46.1c29.3-31.5,31.6-33.5,43-39.3s13.8-8,43.6-39.7c24.4-26.1,32.8-34,37.4-35.6c11.8-4.1,19.8-9.8,35.9-25.8
	c9.1-9,25.3-26.8,36-39.3c19.3-22.9,19.5-23,34.7-31.1c15.3-8,15.3-8,99.4-98.5c100.6-108.2,106.7-115.3,112.1-130.9
	c3.6-10.3,5.3-12.7,17.2-24.7c24.3-24.5,107.1-113.6,121.7-131.1c14.2-16.9,19.2-25.1,22.9-37.6c1.4-4.6,8.1-13.3,26.2-33.3
	c22.6-25.2,24.8-28.2,30.8-41.7c5.9-13.3,7.7-15.8,20.1-27.8c20.6-20,247-264.4,270.2-291.6c14.7-17.2,22-24.7,26.8-27.1
	c3.6-1.8,9.6-4.8,13.4-6.7c5-2.5,16.3-13.5,40.9-39.7c39.6-42.2,45.2-49.2,45.2-56.6c0-8.3-3.8-10.2-20.7-10.2
	c-15.6,0-20.5-1.5-30.8-9.5c-5.1-4-8.5-5.2-17.5-6.3c-14.4-1.7-16-2.3-24.8-8.9c-6-4.3-9.6-5.7-18.1-6.9
	c-15.6-2.1-17.1-2.7-25.8-8.9c-7.8-5.7-8-5.8-27-6.7c-10.5-0.5-20-1.5-21.2-2.2c-1.2-0.7-5.4-3.7-9.5-6.7c-6.1-4.5-9.5-5.7-18.6-6.8
	c-14.5-1.7-16-2.3-25.2-9.1c-7.6-5.6-8-5.7-26.2-6.7c-20.6-1.1-21.3-1.2-31.7-8.9c-6.3-4.6-9.4-5.7-19.6-6.9
	c-6.7-0.8-14.4-2.7-17.2-4.4s-8.3-4.7-12.3-7c-4.3-2.5-9.5-4.1-13.1-4.1c-9.7-0.1-16.5-2.5-25-8.9c-8.1-6-8.1-6-27.3-6.9
	c-18.5-0.7-19.5-1-26.6-5.7c-4.1-2.7-8.7-5.4-10.4-6c-4.2-1.4-9.5,2.6-12.9,9.9c-1.5,3.2-5.1,9.7-8,14.3c-2.9,4.6-5.6,10.3-6.1,12.6
	c-1.7,8-6.8,15.8-12,18.6c-4.3,2.3-9.9,2.9-32.8,3.3c-36.1,0.7-40.6,0-51.2-7.7c-5.3-3.8-11.4-6.8-16.4-7.8
	c-4.9-1-31.9-1.6-69.7-1.5c-34,0.1-63-0.3-64.7-1c-1.6-0.7-6.5-3.7-10.8-6.8c-7.9-5.6-7.9-5.6-70.5-6.4c-59.5-0.7-62.9-0.9-67.2-3.9
	c-20-13.7-11.2-12.4-86.5-12.8c-75-0.2-68.1,0.6-85.1-10.8c-6.6-4.5-7.8-4.7-25.9-5.1C4974.2,1226.1,4968.5,1226.5,4964.9,1228.3
	 M6089.9,1389.1c-3.9,1.9-22.9,21.4-57.3,58.7c-41.9,45.5-52.8,56.5-58.9,59.4c-4.1,1.9-10.3,4.9-13.9,6.6
	c-5.1,2.4-35.9,34.9-142.1,149.3c-74.5,80.4-137.8,149.5-140.5,153.5s-6.9,12.4-9.3,18.6c-4,10.5-6.1,13.4-28.8,38.3
	c-23.3,25.5-24.7,27.4-28,37.7c-3.5,10.8-3.5,10.8-77.4,90.3c-40.7,43.7-75.4,82.3-77.3,85.8c-1.9,3.5-4.8,10.3-6.5,15.1
	c-2.8,8.2-10.4,16.7-114.5,129.4c-109.9,118.9-111.6,120.7-121.5,125.1c-5.5,2.4-13.1,6.9-16.7,9.8c-3.7,3-22.4,22.5-41.6,43.6
	c-34.5,37.8-34.9,38.3-45,42c-9.9,3.7-11,4.6-42.9,38.6c-29.3,31.2-33.5,35.2-41.2,38.3c-13.4,5.4-17.1,7.9-27.7,18.9
	c-16.2,16.8-23.4,27-27.8,39.7c-3.6,10.4-5.7,13.3-21.7,31.1c-16.1,17.8-18.1,20.7-21.8,31.3c-3.3,9.4-6.2,14.1-14.7,23.8
	c-8.3,9.5-11.3,14.5-14.4,23.3c-3.9,11-4.5,11.8-61.2,73.2c-64.8,70.2-62.3,66.3-50.6,77.4c3.6,3.5,9.7,7.8,13.4,9.6
	c19.5,9.5,19.5,9.4,24,21.2c2.3,6,6,13.9,8.4,17.5c2.2,3.6,5.5,10.4,7,15c1.7,4.6,5,11.9,7.4,16.1c2.4,4.1,6.1,12.2,8.3,17.9
	c2.8,7.5,6.6,13.7,14.2,22.5c7.9,9.3,11.3,14.8,14.3,23.2c2.6,7.1,6.7,14.2,11.5,20.2c4.1,5.1,10.2,12.7,13.4,16.8
	c5.1,6.6,6.4,7.5,9.8,6.5c3.1-0.8,5.1-3.6,9.7-14c5.1-11.6,7.2-14.3,20.5-27.1c8.1-7.8,25.3-25.9,38.3-40.2
	c20.9-23.2,24.3-26.5,31.6-29.3c4.6-1.8,11.7-5.6,16-8.5c4.3-2.9,11.7-7,16.4-9c5.9-2.6,12.3-7.3,20.1-15.1c7-7,14.2-12.3,18.2-14
	c3.7-1.5,11.3-5.6,16.8-9.2c9.4-6,11-6.5,22.7-7c13.2-0.6,17.8,0.9,29.9,9.3c2.7,1.8,10.1,4.2,17.2,5.5c15.2,2.7,20.8,5.9,24.6,14.1
	c2.7,5.8,2.9,9.4,2.9,47c0,45.2,0.5,48.1,9.9,56.7c7.3,6.6,10.7,7.4,37.4,8.4c25.4,0.9,25.4,0.9,35.1,7.3c5.3,3.5,12.8,7.7,16.7,9.3
	s9.4,4.5,12.3,6.5c2.9,2,9.4,5.4,14.3,7.5c6.4,2.8,12.1,7.1,19.7,14.9c16.9,17.3,26,20.5,39.6,14.2c10-4.6,15-11.2,20.6-26.9
	c4.3-12.1,4.6-14,3.7-25.2c-1.1-13.7,0.2-17.8,8.2-25.8c6.9-6.9,12.2-10.4,23.1-15.3c6.8-3.1,12.5-7.3,19.6-14.7
	c5.5-5.7,12.2-11.3,14.7-12.5c3.4-1.6,12.1-2.2,32.7-2.2c33.7,0,36-0.7,42.2-14c2.6-5.5,9.7-14.8,20-26
	c14.1-15.5,16.6-19.1,21.9-31.5c4.2-9.9,8.5-16.9,14.7-24.1c6.4-7.4,10.5-14.2,15.2-24.9c3.5-8.1,7.6-16.5,9.1-18.6
	c1.5-2.1,4.5-8.5,6.5-14.3c2.8-7.7,6.3-13.4,13.3-21.5c5.2-6,10.6-13.8,11.9-17.3c1.3-3.5,6.3-14.4,10.8-24.3
	c4.6-9.9,8.4-19,8.4-20.1c0-1.2,15.2-18.5,33.8-38.5c29.5-31.8,34.7-36.8,41.2-39.3c4.1-1.6,10.4-4.8,13.8-7.1
	c3.5-2.3,10-5.9,14.6-7.9c4.6-2,11.3-5.7,15.1-8.3c3.7-2.6,9.9-6,13.5-7.5c3.6-1.6,11.6-5.5,17.6-8.9c6-3.3,14.2-7.6,18.3-9.6
	c4.1-1.9,11.9-8,17.4-13.4c5.5-5.5,13.7-12.3,18.4-15.1c6.6-4.1,9.2-6.8,12-12.8c2-4.2,5.5-11,8-15.1c2.4-4.1,5.7-11.3,7.3-15.9
	c1.7-4.6,4.9-11.6,7.3-15.4c2.4-3.8,5.3-9.5,6.4-12.8c1.9-5.8,14.2-33.5,19.8-44.4c1.6-3,9.1-19.3,16.8-36.1s15.3-32.5,16.8-34.9
	c1.6-2.4,4.4-8.8,6.4-14.1c3.4-9.4,8-14.5,107.1-122.1c57-61.8,104.3-114,105.2-116.2c10.6-25,9.8-23.8,29.7-43.5
	c25.7-25.3,116.7-124.5,124.4-135.7c3.4-4.8,7.8-13.3,9.9-18.9c2.1-5.5,6-14.3,8.7-19.5c2.7-5.2,5.9-12.5,7-16.1
	c1.2-3.6,4.1-9.6,6.5-13.3c2.3-3.7,6-11.3,8.1-16.9c3.6-9.6,7.1-13.7,71.2-83.1c67.4-73,67.4-73,73.1-86.5
	c5.3-12.5,7.4-15.2,29.9-39.8c21.7-23.7,24.5-27.3,27.4-35.9c1.7-5.2,5.4-12.9,8-17c6.3-9.9,7.1-14.1,3.8-18.6
	c-2.2-2.9-4.9-3.8-13.8-4.9c-11.9-1.4-14.3-2.4-23.9-9.8c-5.1-3.9-8.2-4.9-18.8-6c-9.9-1.1-14.2-2.3-19.1-5.7
	c-14-9.4-15.1-9.8-28.7-9.9c-16.7-0.1-23.9-1.9-34.3-8.9c-7.7-5.1-17.5-7.7-31.2-8.4c-0.9,0-5.5-3-10.4-6.5
	c-7.7-5.5-10.4-6.6-20.5-7.9c-13.7-1.7-17.3-3-25.6-9.4c-5-3.9-8.4-5.1-17.4-6.2c-14.4-1.7-16-2.3-24.9-8.9c-6.1-4.5-9.5-5.7-18.9-7
	c-14.2-1.8-17.6-3.1-25.9-9.2c-5.1-3.8-9-5.1-18.2-6.5c-14-1.9-15.9-2.7-25.9-9.9c-7.7-5.5-8-5.6-22.5-5.7c-17.7,0-24-1.7-33.9-8.9
	c-6.3-4.6-9.4-5.7-19.1-7c-13.7-1.7-17.4-3-25.7-9.4c-5.1-4-8.4-5.1-18.1-6.3c-12.1-1.5-16.6-3.1-26.9-10
	C6098.9,1385.4,6097.4,1385.3,6089.9,1389.1 M2357,1538.9c-5.6,6.7-11.8,17.9-15.6,27.7c-2.1,5.4-5.5,13.2-7.9,17.2
	c-2.3,4.1-5.3,10.8-6.6,15.2c-1.3,4.3-4.6,11.2-7.3,15.2s-6.4,11.8-8.2,17.1c-2.6,7.5-5.7,12.5-13.7,21.6
	c-8.4,9.5-11.3,14.1-14.5,23.3c-3.1,9-6.3,14.1-14.7,23.9c-7.7,9-11.5,15.1-13.7,21.5c-1.7,5-5.2,12.9-7.9,17.6s-6,12.5-7.4,17.1
	c-2,6.6-5.1,11.5-13.8,21.4c-7,8-11.9,15.2-13.1,19c-3.4,11.3-7.6,18.6-17.3,29.6c-7.5,8.4-10.4,13.4-13.1,21.2
	c-1.9,5.6-5.4,13.3-7.7,17c-2.4,3.7-5.9,11.1-7.8,16.3c-1.9,5.2-5.3,12.8-7.6,16.7c-2.3,4-5.5,11.2-7,15.9
	c-2.1,6.5-5.3,11.6-13.3,20.7c-8.5,9.7-11.6,14.6-15.5,24.6c-2.7,7-6.3,14.7-8,17.4s-4.7,9.2-6.7,14.4c-1.9,5.3-5.4,12.8-7.7,16.8
	c-2.3,4-5.4,10.8-6.9,15.2c-1.5,4.4-4.5,10.8-6.8,14.5c-2.2,3.6-6,11.5-8.2,17.4c-2.2,6-5.8,13.3-8,16.3c-2.8,4-3.9,7.4-3.9,12.2
	c0,6.2,0.8,7.6,11.3,19.3c9.6,10.8,13.3,13.6,24.8,19.5c13.5,6.9,13.5,6.9,18.5,18.6c2.7,6.5,6.6,14.4,8.6,17.7s5.3,10.4,7.2,15.7
	c1.9,5.3,5.5,12.8,8,16.4c6.4,9.8,8,19,7,39.5c-1.1,21.2,0.1,27.2,7.1,38.3c4.4,6.9,5.6,10.4,6,17.5c0.6,8.1,0.2,9.6-4.8,17.5
	c-3,4.7-7,13.1-8.8,18.5c-1.9,5.4-5.1,12.3-7.1,15.2c-2.1,2.9-5.4,9.8-7.4,15.2c-2,5.5-5.2,12.6-7.2,15.8s-5.3,10.7-7.3,16.5
	c-2,5.8-5.4,12.9-7.4,15.8c-2.1,2.9-5.3,9.5-7.1,14.7c-1.9,5.1-5.3,12.8-7.6,16.8c-2.3,4.1-5.3,10.9-6.6,15.2
	c-1.3,4.3-4.6,11.3-7.5,15.5c-2.7,4.2-6,11-7.3,15.1c-1.2,4.1-4.3,10.8-6.7,15c-2.4,4.1-5.8,11.4-7.5,16.2s-5.5,12.9-8.6,18.1
	c-4,6.6-5.6,11.1-5.6,15.2c0,11.2-2.9,22.5-7.9,30.5c-2.7,4.4-6.1,11.5-7.5,15.8c-1.4,4.3-4.5,10.9-6.9,14.7
	c-2.3,3.7-5.8,11.1-7.7,16.3c-1.9,5.2-5.4,12.8-7.8,16.8c-2.4,4.1-5.4,10.5-6.6,14.3c-1.2,3.8-4.8,11.6-7.9,17.2
	c-3.1,5.6-6.4,12.8-7.2,15.8c-0.9,3.1-3.6,9-6,13.2c-2.4,4.1-5.8,11.5-7.5,16.3c-1.7,4.9-5.2,12.3-7.8,16.6s-6.1,11.9-7.9,16.9
	c-2.2,6.5-6.1,12.6-13.7,21.6c-7.7,9.1-11.6,15.1-13.7,21.6c-1.7,5-5.2,12.9-8,17.6c-7.2,12.8-13.9,30.5-13.9,36.4
	c0,5.8,3.1,10.8,8.7,14c2.6,1.5,13.6,2.4,37.8,3.1c18.8,0.6,34.4,1.1,34.7,1.2c0.3,0.1,8.4,8.6,18.1,18.8
	c9.7,10.3,19.7,19.8,22.4,21.2c2.6,1.4,10.1,3.3,16.6,4.2c6.5,0.9,13.3,2.4,14.9,3.3c1.7,0.9,14.5,14.2,28.5,29.3
	c20.9,22.7,25.9,29.1,28.2,35.5c1.5,4.3,4.6,10.8,6.9,14.4c5.6,8.9,6.9,12.9,8.4,27.3c1,9.7,2.2,14.1,5.7,19.9
	c2.4,4.1,6.4,12.7,8.8,19c6.2,16.5,9.5,21,37.8,51.7c27.4,29.7,38,39.6,42.4,39.6c1.7,0,10.6-8.6,22-21.2
	c17.1-18.9,20.1-22.9,27.2-37.6c6.6-13.7,10.8-19.7,24.8-35.9c14.2-16.5,17.3-21,20.3-29.5c3.1-9.3,5.4-12.1,27.1-35.2
	c21.9-23.4,24-26.1,28.9-37.7c2.9-6.9,5.9-14,6.7-15.7c0.8-1.8,13.9-16.6,29.2-33c29.6-31.8,33.7-37.2,38.9-51.4
	c3-8,7-13.1,34.3-42.4c31.1-33.5,35-39,39.9-55.2c1.3-4.4,6.5-11.5,17.4-23.5c17.7-19.7,20-23.1,24.8-36.1c2.8-7.6,6.2-12.4,18-25.1
	c17.6-19.1,21.4-24.7,26.3-38.3c2.5-7,5.7-12.7,9.7-16.8c8.9-9.3,15.4-19.5,19-29.9c2.7-7.6,6.3-12.7,20-28.1
	c9.2-10.4,17.8-21.3,19.1-24.3c6.9-16.1,11.3-28.3,11.3-30.9c0-4.7-9.1-27.5-14.2-35.3c-2.6-4-6-11.3-7.8-16.4
	c-1.7-5-5.6-13.3-8.8-18.5c-3.1-5.1-5.6-10.2-5.6-11.1c0-4.9-7.9-18.9-15.7-27.8c-6-7-10.5-14.2-14.5-23.4
	c-4.2-9.9-8.1-16-15.2-23.9c-7.5-8.4-10.4-13.1-14.1-22.8c-3.5-9.3-7-15.2-15.1-25c-7.9-9.5-11.6-15.7-14.7-24.3
	c-3.7-10.2-6.2-13.7-21.2-30.4c-14.2-15.8-17.5-20.4-20.2-28.3c-3.6-10.7-8-17.4-17.1-27.2c-4.1-4.2-8.7-12-12.8-21.2
	c-3.6-8-8-17-9.7-20c-2.7-4.6-3.4-8.4-4.1-25.1c-1-23.6-2.7-28.1-17.4-44.8c-5.5-6.3-10.4-13.3-10.9-15.6c-1.7-7.5,0.4-16.2,6.5-26
	c3.2-5.2,6.3-11.8,6.8-14.6c0.5-2.7,0.7-21.3,0.4-41.2c-0.4-36.2-0.4-36.2-5.7-45.7c-7.6-13.7-9.1-19.8-9.2-37.4
	c-0.1-13.7,0.4-17.1,4.1-26.8c4.1-10.8,4.1-11.1,1.7-18.1c-4.7-13.7-6.5-22.8-6.5-32.9c0.1-14.5,2.2-22.9,8.7-34.6
	c3.1-5.6,6.5-12.7,7.5-15.7c1-3,4.4-10,7.6-15.7c5.7-9.9,5.9-10.6,6.9-28.2c1.3-23.1,1.3-64.4,0-89c-0.8-15.4-1.6-19.7-3.7-22.4
	c-3.1-3.7-27.7-18.3-36.4-21.5c-3.2-1.2-9.4-4.6-13.9-7.5c-4.5-3-11.8-6.9-16.5-8.8c-6.1-2.5-11.3-6.4-18.9-14.2
	c-7-7.2-14-12.6-21.2-16.3C2364.3,1534.4,2361.1,1534.1,2357,1538.9 M6602,1633.4c-2,1.2-9.1,8.6-15.7,16.5
	c-9.8,11.5-13.1,16.7-16.9,26.7c-4.7,12.3-4.7,12.3-72.3,85.1c-67.6,72.7-67.6,72.7-71.6,84.5c-2.2,6.5-6.5,16-9.6,21
	c-3.1,5.1-5.5,10.2-5.5,11.3c0,1.2-3.1,8.6-7,16.6c-3.9,8-7.9,17.2-8.8,20.5c-1.3,4.6-18.3,23.6-76.5,86.3
	c-68.7,74-75.2,81.3-79.2,90.8c-2.4,5.6-5.7,13.1-7.3,16.6c-1.9,4.3-31.4,37.1-89.5,99.7c-120.3,129.6-119.6,128.7-123.7,141.2
	c-1.9,5.6-5.4,13.3-7.8,17c-2.4,3.7-5.9,11.2-7.8,16.4c-1.9,5.3-5.1,12.3-7.1,15.6c-2,3.2-5.2,10.5-7.2,16.1s-5.2,12.7-7.3,15.6
	s-5.4,9.8-7.4,15.2c-2,5.5-5.2,12.6-7.2,15.9c-2,3.2-5.1,9.9-6.7,14.8c-1.7,4.9-5.6,13.2-8.7,18.3s-5.6,10.3-5.6,11.4
	c0,1.2-3.1,8.6-7,16.6c-3.9,8-7.9,17.4-8.9,20.9c-1.2,4.2-5.5,10.1-12.9,18.1c-9.4,10-12.5,12.3-21,15.6c-8.2,3.1-12,5.8-21.2,15.1
	c-8.2,8.4-13.5,12.3-19.8,14.8c-4.7,1.9-11.6,5.5-15.3,8.1c-3.7,2.6-10.7,6.3-15.5,8.4c-4.8,2.1-11.6,5.8-15.1,8.4s-9.6,6-13.6,7.5
	c-4,1.6-10.8,5.2-15.2,8s-11.7,6.6-16.1,8.4c-15.2,6-45.1,38.3-50.7,54.8c-1.7,4.9-5.1,12.8-7.8,17.5c-2.7,4.7-6,12.5-7.5,17.1
	c-2,6.3-5.7,11.9-13.7,21.4c-8.5,10-11.8,15.1-14.3,22.9c-1.8,5.5-5.3,13-7.5,16.6c-2.3,3.6-6.1,11.6-8.4,17.7
	c-3.1,8.4-6.6,13.8-14.2,22.5c-8.1,9.2-10.9,13.8-14.2,23c-3.6,10.4-5.8,13.5-21.7,31.2c-15.1,16.9-18.1,21.1-21,29.5
	c-1.9,5.4-5.6,13.2-8.4,17.3c-2.7,4.1-6,11.1-7.1,15.6c-1.2,4.5-4.9,12.4-8.1,17.6c-9.6,15.5-8.9,27.7,1.7,33.5
	c4,2.2,8.8,2.7,22.2,2.7c18.6,0,22.5-1.1,33.9-9.5c6.8-5.1,15.2-7.3,21.2-5.6c1.8,0.5,7,3.4,11.3,6.5c9.9,7,14.7,7,24.1,0.6
	c4-2.7,11.1-6.6,15.8-8.6c11-4.7,18.1-10,24-18.1c8.5-11.5,23.1-15.3,32.6-8.5c1.9,1.3,5.6,6.8,8.2,12c3.6,7.4,6.2,10.4,11.3,13.6
	c3.6,2.2,9.9,6.4,13.9,9.2c13.4,9.6,11,9.3,74.9,9.4c32.4,0.1,60.5,0.7,62.4,1.4c2,0.7,6.3,3.2,9.5,5.6c9.9,7.3,15.3,8,62.3,8.3
	c43.7,0.2,43.7,0.2,51.1,5.4c4.1,2.8,11.4,6.9,16.5,9.1c5,2.2,11.8,5.8,15.1,8.1c3.3,2.2,9.8,5.7,14.2,7.6
	c4.6,1.9,11.2,5.6,14.7,8.4c3.6,2.7,10.1,6.3,14.5,8.1c9.4,3.8,13.2,7,30.8,26c10.4,11.2,13.7,16,16.3,23.1c1.7,5,5.8,13.7,9,19.5
	c3.6,6.5,6,12.7,6,16.1c0.1,3.1,0.3,11.6,0.4,19c0.2,13.5,1.9,19.2,8.2,27.9c1.4,2,4.4,8.6,6.5,14.7c5,13.9,10.4,19.9,23.5,25.4
	c8.2,3.5,12.4,6.6,20.5,15.2c14.7,15.6,16.3,16.3,38.8,17c21.7,0.7,27.2-0.5,38.3-8.3c15.7-10.9,24.1-9.3,40.6,7.6
	c12.5,12.8,15.3,14.3,31.1,16.5c8.8,1.2,13.3,2.7,19.6,6.9c4.6,3,11.9,7,16.6,8.9c4.8,2.1,11.3,6.6,15.2,10.7
	c3.8,4,10.5,10.6,14.9,14.8c14.9,14.4,16.1,19.5,7.9,35.3c-5.3,10.2-5.3,10.2-5.5,48.9c-0.2,38.8-0.2,38.8,4.1,46.5
	c2.3,4.3,5.8,11.3,7.6,15.7c9.1,21,19.2,39.8,23.4,43.2c5.4,4.6,18.6,13.3,25.8,17.1c8.3,4.4,44.1,4.9,52,0.8
	c8-4.1,14.7-13.3,18.2-24.9c2.7-8.5,5.1-12.8,13.3-22.2c7.2-8.4,11.7-15.4,15.7-24.7c4.8-11.2,7.2-14.5,17.3-24.3
	c14.2-13.8,20.8-23.2,26.2-37.5c4-10.6,5.6-12.6,61.3-72.1c68.9-73.8,78.5-85.2,83.8-100.2c2.9-8.2,6.2-13.7,13.3-22
	c6.8-8,11.2-15.2,15.6-25.3c4.3-10.1,8.8-17.3,15.4-25.2c6.5-7.7,10.6-14.3,13.6-21.9c2.3-6,5.7-13.6,7.5-16.8c1.8-3.2,5-10.4,7-16
	c2.7-7.2,6.7-13.7,13.8-22.1c7.1-8.4,11.8-15.8,15.7-24.9c4.6-10.6,7.2-14.5,14.6-21.5c14.2-13.4,24.3-27.4,28.7-39.9
	c3.5-9.8,5.8-13.3,20.5-29.5c14.4-16.1,17.2-20.2,22.4-32.1c5.2-12.3,7.5-15.4,22.2-31c15.7-16.6,16.6-18,21.9-31.9
	c4.5-11.6,7.3-16.6,14.2-24.3c6-6.9,10.4-13.8,14.5-23.1c5-11.5,8-15.9,22-31.4c13.9-15.4,16.9-19.7,20.5-29.1
	c2.3-6,5.1-12.4,6.1-14.2c1.1-1.7,12-14.1,24.3-27.5c21.3-23.1,22.8-25.1,28.8-39.3c6-13.7,7.5-15.9,19.4-27.2
	c24.2-23.1,32.4-34.1,39.7-52.9c2.6-6.6,6.5-13.9,9.1-16.5c7.6-7.7,16.8-22.2,19.4-30.6c1.7-5.6,5.4-11.3,12.6-19.7
	c7.5-8.8,11.7-15.3,15.9-25.4c5.4-12.7,7.4-15.3,28.8-38.8c22-24,23.4-25.8,29.5-40.1c6.1-14.3,7.1-15.6,21.5-29.2
	c16.7-15.8,36.4-37.4,43.2-47.5c2.4-3.6,6.2-11.6,8.4-17.7c3-8.4,6.2-13.8,13.4-22.3c6.6-7.8,11.2-15.1,15.2-24.4
	c4-9.2,8.4-16.4,14.5-23.4c6.1-7.1,10.7-14.4,15-24.3c5.4-12.3,8.3-16.5,21.8-31.5c13.3-14.7,16.4-19.2,21.2-30.5
	c4-9.4,8.3-16.2,14.7-23.7s10.4-13.6,13.3-21.4c5.2-13.5,7.9-17.9,17.7-29.3c8.6-9.9,12-17.1,12-25.4c0-9.5-2.2-13.2-11.2-18.1
	c-4.6-2.5-12.3-6.8-17-9.4c-4.9-2.7-10.8-4.9-13.8-4.9c-8.9-0.1-18.1-3.1-25.6-8.4c-4-2.8-10.2-6.4-13.8-7.9
	c-3.6-1.5-10.4-5.2-15.1-8.4c-7-4.6-10.7-5.9-20.4-7c-8-0.9-14-2.7-18.4-5.3c-3.6-2.2-12-6.7-18.6-10.2c-6.6-3.5-14-7.8-16.4-9.6
	c-2.3-1.8-8.3-5-13.1-7c-4.9-2.1-12.1-6-16-8.7c-5.5-3.8-9.6-5.2-18.1-6.3c-14.2-1.7-15.8-2.3-24.8-8.8c-6-4.3-9.6-5.7-18.1-6.9
	c-15.5-2.1-17.2-2.7-25.3-8.6c-6-4.5-9.5-5.7-19.3-7c-13.8-1.9-17.6-3.2-24.1-8.6c-2.7-2.2-8.9-5.7-13.7-7.8c-5-2.1-12-5.8-15.8-8.3
	c-3.7-2.5-9.8-5.7-13.3-7.2c-3.6-1.5-10.3-5.2-14.8-8.2c-4.6-3-11-6.5-14.3-7.8c-3.3-1.2-9.8-4.6-14.2-7.5c-4.5-2.8-12.2-7-17.1-9.2
	c-4.9-2.2-11-5.7-13.5-7.6c-2.5-1.9-8.5-5.1-13.4-7.2c-4.9-2.1-11.9-5.9-15.7-8.4c-3.7-2.6-9.7-5.8-13.3-7.1
	c-3.6-1.3-10.2-4.9-14.7-8c-4.6-3-11.1-6.5-14.5-7.9c-3.5-1.3-10.1-4.9-14.8-8c-7.2-4.8-10.4-5.9-21-7c-9.6-1.1-13.9-2.3-18.8-5.7
	c-14.2-9.5-15-9.8-29.4-9.9c-16.5,0-22.7-1.7-33.7-8.9c-6.5-4.3-10.6-5.8-18.9-6.8c-13.1-1.6-14.6-2.2-23.9-8.9
	c-6.3-4.6-9.4-5.6-19.6-6.9c-8.2-1-14.2-2.7-18.6-5.3c-3.6-2.2-12-6.7-18.6-10.2c-6.6-3.5-14-7.8-16.4-9.6c-2.3-1.8-8.3-5-13.1-7
	c-4.9-2.1-11.9-5.9-15.7-8.4c-3.7-2.6-9.7-5.8-13.3-7.1c-3.6-1.3-10.3-5-14.9-8c-6.5-4.3-10.8-6-18.9-7c-14.7-2-16.2-2.5-25-8.7
	c-6.4-4.6-9.8-5.9-18.9-7c-14.2-1.7-15.9-2.3-24.7-8.6c-4-2.9-11.2-6.8-16-8.6c-7.9-3.1-10.9-5.8-30.1-26.8
	c-11.8-12.8-21.9-23.4-22.5-23.4C6606.2,1631.2,6604,1632.2,6602,1633.4 M1769.8,1926.1c-6.5,6.5-7.8,11.3-8.9,32.6
	c-1.4,25.4-2.1,26.8-20.6,39c-2.9,1.9-6.5,6.9-9.4,12.6c-6.6,13.5-22.1,29.2-32.4,33c-4.4,1.6-11.3,5.2-15.2,8
	c-4,2.9-10.8,6.5-15.2,8.2c-4.4,1.7-11.1,5.1-14.9,7.7s-10.8,6.3-15.5,8.2c-11.5,4.6-17.9,11.8-22.1,24.8
	c-5.3,16.3-16.4,28.2-35.9,38.2c-9.4,4.8-18.1,8.2-22.7,8.8c-10.9,1.3-12.2,3-16,21.4c-0.6,3-9.4,13.6-26.1,31.6
	c-13.8,15-26.7,28-28.4,29.1c-1.8,1.1-8.8,2.4-15.5,3.1c-10.5,1-13.3,2-19.8,6.7c-4.2,3-10.3,6.4-13.4,7.5c-3.2,1.1-10,4.7-15.2,8
	s-12.3,7.1-15.8,8.4c-3.5,1.3-10.4,5.1-15.2,8.3c-8.9,5.9-8.9,5.9-41.6,6.7c-32.3,0.8-32.8,0.8-39.3,5.1
	c-6.3,4.1-15.2,8.9-29.1,15.7c-4.6,2.2-15.8,13.3-37.9,37.1c-30,32.3-31.6,34.4-35.3,44.9c-2.2,6-6.1,14.9-8.8,19.6
	c-6.8,12.2-12.4,27.7-12.4,34.7c0,3.2,1.3,9.3,3.1,13.5c3.5,8.7,5.1,21.3,3.6,29.3c-0.5,3.1-3.7,10-7,15.4c-6.1,9.9-6.1,9.9-7,30.6
	c-0.9,20.7-0.9,20.7-7.1,31.8c-5.1,9.3-6.4,13.1-7.5,23c-0.8,8.3-2.4,14.1-5.1,19c-4.3,7.9-4.1,15.3,0.5,19.9
	c6.1,6,12.7,7.4,35.8,7.4c12.3,0,24.3,0.7,26.6,1.7c2.2,0.9,7.5,4.1,11.6,7.3c6.5,4.9,9.2,5.8,20.4,7c7,0.8,28.9,1.2,48.5,1
	c35.7-0.5,35.7-0.5,44.6,5.5c15.4,10.3,36.1,11.8,48.9,3.6c7.7-4.9,11.3-9.9,15.5-22c2.2-6.3,6-12.5,12.6-20.2
	c6.8-8,11.4-15.5,16.5-26.9c3.9-8.7,8.4-18.2,9.9-21.3c2.4-4.5,9.8-21.1,22.4-50.2c0.9-2.2,5.7-8.5,10.6-14.2
	c6.1-7.1,10.8-14.5,14.9-23.9c4.9-11.1,7.7-15.2,14.8-21.9c13.7-13,24-27.2,28.5-39.7c3-8.2,6.5-14,13.7-22.6
	c5.4-6.4,11.2-14.8,12.8-18.9c1.7-4,6.3-14.3,10.1-22.9c3.9-8.6,8-18.2,9.2-21.4c1.2-3.1,6.4-10.6,11.7-16.6
	c7-8.1,11.1-14.6,15.4-24.7c3.2-7.5,7.1-15.7,8.6-18c1.6-2.3,4.5-8.8,6.5-14.4c2.6-6.9,6.5-13.4,12.5-20.4
	c7-8.1,11.1-15.3,20.3-35.5c6.4-13.9,11.6-25.9,11.6-26.8c0-0.7,2.2-5.1,5-9.4c2.7-4.4,6.6-12.4,8.7-17.9c2.4-6.3,6.5-13,11.4-18.6
	c9.9-11.3,12.7-15.8,17.8-29.2c3.6-9.4,6.8-13.8,21.1-30c15.2-17,17.2-20,20-29.1c1.7-5.5,5.4-13.5,8.1-17.7
	c2.7-4.2,5.8-10.2,6.7-13.3c0.9-3.1,4.1-10.3,7.2-15.9c3.1-5.6,8-16.6,10.8-24.3c5.3-14.2,5.3-14.2,2.2-23.2
	C1787.9,1921.6,1779.2,1916.6,1769.8,1926.1 M1817.5,1981.3c-4.9,5.3-11.3,17.1-13.9,25.7c-1.3,4.4-4.3,11-6.6,14.7
	c-2.3,3.6-6.1,11.7-8.4,17.8c-3.6,9.8-6.5,13.7-21.4,30.2c-15.7,17.4-17.5,20-20.7,29.9c-2.9,9-5.3,13-14.7,23.7
	c-8.4,9.7-11.9,15.1-14.3,22.1c-1.7,5.1-5.5,13.3-8.2,18.2s-6,12-7.3,15.7c-1.2,3.7-4.7,11.3-7.9,17c-3.1,5.6-6.5,13.3-7.5,17.1
	c-1.3,4.9-5.1,10.7-13.1,20c-9,10.6-11.8,14.9-14.2,22.9c-1.7,5.5-5.2,13.2-8,17.3c-2.7,4.1-6.4,11.8-8.1,17.1
	c-2.5,7.4-5.8,12.6-13.9,21.9c-7.8,9-11.4,14.7-13.7,21.4c-1.7,5.1-5.3,13.1-8,17.8c-2.7,4.8-6.4,12.8-8.1,17.9
	c-2.3,6.7-6,12.5-13.7,21.3c-8.5,9.9-11.1,14.1-13.9,22.9c-3.2,9.9-4.7,12.2-20.4,28.8c-17.4,18.6-19.4,21.5-24.8,37
	c-2.2,6.5-6,12.4-13.7,21.2c-7.7,8.9-11.4,14.7-13.7,21.4c-1.7,5.1-5.6,13.7-8.7,19.3c-3.1,5.6-6.4,13-7.4,16.5s-3.7,9.3-6,12.9
	c-2.3,3.6-6,11.6-8.4,17.7c-3.1,8.4-6.6,13.8-14.2,22.5c-7,8-10.8,13.8-12.5,19.2c-1.3,4.2-4.7,11.8-7.5,16.7
	c-8,14.2-7.1,17.2,8.1,26.8c6.8,4.3,16.2,9.7,21,12.1c4.8,2.4,12.6,6.9,17.3,9.9c4.7,3.1,10.9,6.4,13.8,7.4c2.9,1,8.9,4.2,13.5,7.1
	c6.4,4.1,10.8,5.7,20.2,7c11.3,1.6,15,3,28.1,11.6c3.8,2.5,9,4.1,16.3,4.7c10.4,1.1,12.8,2.1,28.5,11.8c5.8,3.6,8.1,3.9,31.7,4.7
	c26.3,0.9,27.7,1.2,37,8.7c7,5.5,13.3,7,29.2,7c14.7,0,15.2,0.2,25.9,6.3c8.3,4.7,13.7,6.7,21.9,7.8c10.8,1.5,16.5,3.7,24.3,9.8
	c2.2,1.7,8,4.7,12.9,6.8c4.9,2.1,12.1,6,16,8.7c5.6,3.9,9.5,5.2,19,6.4c9.1,1.1,13.7,2.6,19.2,6.1c13.6,8.7,29.1,16,35.6,16.7
	c8.4,0.9,13.1-3.4,16.6-15.4c1.4-4.7,4.4-11.7,6.6-15.6c2.2-3.9,6.1-11.9,8.6-17.9c3-7.1,7.6-14.4,13.5-21.3
	c5-5.7,9.8-12.2,10.7-14.2c6.5-15,22.9-51.7,24.7-54.9c1.2-2.2,3.7-7.8,5.7-12.6c2-4.7,5-11.4,6.7-14.9
	c8.2-16.6,25.8-55.2,25.8-56.6c0-0.8,2.7-6.1,5.9-11.8c3.2-5.6,6.9-13.4,8.2-17.3c1.3-3.9,4.7-11.2,7.5-16.2c4.1-7.4,5.5-12,7-23.4
	c1.5-11.8,2.7-15.6,7-22.6c2.9-4.6,6.5-12.2,8.2-16.7s4.9-11.8,7.1-16.1c2.2-4.3,5.5-11.7,7.2-16.2c1.7-4.6,5.1-11.5,7.5-15.3
	c2.4-3.8,5.3-9.8,6.5-13.3c1.2-3.6,4.7-11.6,8-17.9c3.2-6.3,6.8-14.3,8-17.9c1.2-3.6,4.1-9.7,6.6-13.5c2.5-3.9,5.5-10,6.6-13.7
	c1.2-3.6,4.5-11.3,7.4-16.8c2.8-5.6,6.4-13.3,7.8-17.3c1.4-3.9,5-11.3,7.8-16.4c2.8-5.1,6-11.8,6.9-14.9s3.7-9.2,6.2-13.5
	c6.3-10.8,6.1-17.9-0.5-29.1c-5.1-8.5-5.1-8.5-5.8-37c-0.7-28.4-0.7-28.5-5.2-36.2c-7.2-12.4-7.7-13.6-10.8-22.7
	c-2.4-7.3-6.2-12.5-23.1-31.5c-23-26-32.4-34.2-43.9-38.8c-4.5-1.7-11.3-5.4-15.2-8c-3.9-2.7-10.7-6.3-15.1-8
	c-4.5-1.8-11-5.3-14.7-7.8c-3.6-2.5-9.5-5.6-13.1-7c-3.6-1.3-10.1-4.8-14.5-7.7c-4.4-2.9-12.3-7.4-17.5-9.9
	c-5.8-2.8-13.3-8.5-19.7-14.8c-7.5-7.4-13-11.3-20.4-14.5c-5.5-2.4-13.1-6.4-16.7-8.9c-3.6-2.5-9.5-5.6-13.1-7
	c-3.6-1.3-10.8-5.2-15.9-8.5c-5.2-3.3-12.5-7.3-16.2-8.8c-3.7-1.5-10.2-5.8-14.2-9.6C1826.6,1977.3,1822,1976.4,1817.5,1981.3
	 M4033,2500c-2.9,1.2-8.1,4.3-11.5,7s-10.4,6.4-15.5,8.3c-12.3,4.4-18.1,10.8-22.2,24.3c-2.6,8.4-5.1,12.6-12.8,21.4
	c-11.3,12.9-14.7,15.1-25.9,16.3c-13.2,1.4-14.8,2.1-17.6,6.5c-2.3,3.9-2.6,9.8-2.6,68.7c0,61.8-0.1,64.7-2.9,69.4
	c-12.8,21.7-11.6,14.8-11.8,69.6c-0.2,51.9-0.5,54.1-7.1,63.5c-2,2.9-5.3,9.6-7.2,15c-2,5.4-5.6,13.3-8.1,17.6
	c-7.9,13.3-8.4,39.2-0.9,46.1c3.1,2.8,6.3,3.6,19.5,4.5c21.6,1.5,24.4,3.1,31.8,19c3.2,6.9,8,16,10.5,20.2c9.4,15.4,7.3,24.8-9.3,42
	c-15.7,16.2-23.4,17.1-40.7,4.1c-8.5-6.4-18.3-8.4-31.1-6.6c-10.3,1.5-14.4,5.9-14.4,15.2c0,4.6,0.9,8,2.8,10.2
	c3.3,3.9,5,4.5,17.3,6.5c12.2,2.1,15.7,4.8,20,15.6c3.9,9.8,4.6,11.2,11.7,23.7c2.9,5.2,4.9,10.8,4.9,14.2
	c0.6,31.1,0.7,32.3,4.2,39.8c5.1,11.1,12.6,19.9,16.8,19.9c1.9,0,6.3-0.8,9.8-1.8c11-3.2,16.4-0.9,28.1,11.8
	c8.5,9.4,11.1,13.4,14.4,22.9c3.2,9,6.3,14.1,14.4,23.6c8.3,9.8,11.3,14.7,15.2,25.3c4.6,12.3,6,14.4,21.4,30.9
	c9.1,9.8,17.6,20,18.9,22.7c1.6,3.3,2.7,10.7,3.1,22.3c0.7,17.3,0.7,17.4,5.7,22.4c2.7,2.8,5.6,5.1,6.5,5.1c0.8,0,4.4,2.2,8,4.7
	c10.7,7.8,13.7,9,26.4,10.7c9.9,1.3,13.4,2.6,19.6,7c4.1,3,8.9,6,10.4,6.7c1.6,0.7,14.4,1.7,28.4,2.2c25.5,0.9,25.5,0.9,34.9,7.5
	c5.1,3.6,13.1,8.1,17.7,9.9c10.5,4.2,14,9.3,15.8,23.1c2.2,16.7,4.8,19.5,20.5,21.5c6,0.8,10.5,2.7,16,6.6
	c15.5,11.3,12.7,10.7,54.1,10.8c20.8,0.1,39.3,0.6,41,1.2c1.8,0.7,7,3.6,11.4,6.5c4.6,3,10.6,6.2,13.5,7.2c7.8,2.7,12.6,7,15.4,13.5
	c3.6,8.4,9,14.2,17.5,18.9c4,2.2,9.2,5.5,11.6,7.5c5.5,4.5,8.1,5.3,21.5,6.9c8.7,1.1,12.6,2.5,19.4,7c10.4,7,16.6,7.4,24.5,1.7
	c3.1-2.2,10.8-6.7,17.3-9.9c8.1-4.1,14.8-8.9,21.4-15.7c6.5-6.6,12.6-11,18.8-13.7c10.8-4.7,14.7-7.6,26.9-19.5
	c6.1-6,11.9-10,18.1-12.5c7.8-3.1,11.7-6.4,25.8-21.1c19.1-20,21.9-22.1,35-28c6.5-2.9,12.9-7.5,19.7-14.3c7-6.9,14.1-12,22.4-16.1
	s15.3-9.3,21.8-15.7c6.5-6.5,13.4-11.5,21.9-15.7c8.5-4.2,15.2-9,21.7-15.7c6.5-6.5,13.3-11.5,21.7-15.7c8.6-4.3,15.1-9,21.4-15.6
	c5-5.1,10.5-10.1,12.3-11c1.8-0.9,11.8-6,22.2-11.4c10.4-5.4,21.2-10.8,23.9-12.3c2.8-1.4,12.8-10.8,22.1-20.7
	c24.8-26.4,23.6-22.4,23.6-83.1c0-27.2-0.5-52-1.1-55.1c-0.6-3.1-4-10.4-7.6-16.3c-3.6-5.9-6.5-11.5-6.5-12.3c0-0.9-5-12.5-11-25.8
	c-8.6-18.9-12.8-26.2-19.5-34c-5.7-6.5-10.3-13.9-13.7-22.1c-3.6-8.5-8-15.5-14.3-22.8c-6.5-7.4-10.4-13.7-13.4-21.4
	c-2.3-6-6.6-14.9-9.5-19.8c-2.9-4.9-6.1-12.3-7.2-16.5c-1.6-6.2-4.2-10.1-15.2-21.9c-12-13-14.2-14.7-23.4-17.9
	c-9.5-3.3-11.2-4.7-26.3-21c-9.2-10-18.2-21.4-21-26.8c-2.7-5.1-7-10.7-9.4-12.3c-21.4-14.2-24.3-15.6-36.2-17.1
	c-12.5-1.6-14.6-2.4-26.8-10.8c-7.5-5.1-8.2-5.3-22.7-5.2c-16,0.1-14.7-0.4-32.6,12c-2.4,1.7-9,3.3-16.6,4.1
	c-11.1,1.2-13.7,2.1-20.2,7c-4.1,3.1-10.4,6.2-14.1,7c-5.3,1.2-30.9,1.2-77.1,0.4c-3.3-0.1-8.5-2.3-14.7-6.4
	c-5.3-3.5-12.9-7.6-17-9.4c-6.2-2.7-13.7-9.9-47.5-46.5c-36.9-39.8-40.4-44.1-43.6-53c-1.9-5.3-5.1-12.3-7.2-15.7
	c-2.1-3.3-4.7-9-5.9-12.6c-1.2-3.6-4.9-11.4-8.2-17.5c-6.1-10.9-6.1-10.9-7-38.4c-0.5-15.2-1.4-28.9-2.1-30.6
	c-0.7-1.7-3.4-6.7-6.1-11.1c-3.9-6.5-5.1-10.4-6.2-20.4c-2-19-4.8-24.8-15.5-31.5c-6.5-4.1-6.5-4.1-111.4-4.3
	c-102.3-0.2-105-0.3-109.5-3.3C4048.4,2498.2,4042.4,2496.2,4033,2500 M3864,2810.4c-2.4,0.8-8.5,2.2-13.7,2.9
	c-6.7,1.1-11.3,3-16.7,6.9c-8.9,6.5-10.4,7-24.7,8.8c-8.5,1-12.6,2.5-18.1,6.3c-3.9,2.7-11,6.6-15.9,8.6c-4.8,2.1-11.6,5.8-15.1,8.3
	c-3.5,2.5-9.6,5.9-13.6,7.5s-10.8,5.2-15.2,8c-4.4,2.9-11.8,6.7-16.4,8.5c-6.2,2.5-11.4,6.4-19.7,14.7c-8.9,9.1-13.4,12.3-21.9,15.7
	c-8.4,3.5-12.8,6.7-21.8,15.7c-8.9,9-13.3,12.3-21.7,15.7c-5.7,2.4-10.8,5-11.3,5.7c-0.4,0.7-3.7,3.2-7.2,5.5
	c-4.8,3.1-9.5,4.4-18.7,5.3c-10.2,1-13.5,2.1-19.5,6.2c-4,2.7-11.1,6.6-15.8,8.6s-12.1,6.2-16.3,9.4c-4.2,3.1-8.4,5.8-9.4,5.8
	c-15.4,0.8-24.6,3.1-31.2,7.6c-4,2.7-11.2,6.7-16.1,8.8c-4.9,2.1-11.7,6-14.9,8.5c-3.3,2.7-9.4,6-13.4,7.5
	c-4.1,1.5-10.4,4.7-14.2,7.2c-3.7,2.5-10.8,6.2-15.5,8.2c-4.8,2-11.5,5.8-15,8.3c-3.5,2.6-10.1,6.1-14.7,8
	c-4.6,1.8-10.8,5.1-13.8,7.3c-3.1,2.2-9.5,5.6-14.4,7.7c-4.9,2.1-11.8,5.9-15.2,8.4c-3.5,2.6-9.6,6-13.6,7.5s-10.4,5-14.1,7.4
	c-3.7,2.5-10.8,6.1-15.5,8.1c-4.8,2-11.5,5.7-15,8.3c-3.5,2.5-9.6,5.9-13.6,7.5s-10.3,4.9-14,7.4c-3.7,2.5-10.8,6.3-15.7,8.4
	c-4.9,2.1-11.6,5.9-14.8,8.4c-3.2,2.6-10.2,6.3-15.5,8.4c-7.7,2.9-11.8,6-20.6,14.7c-8.7,8.8-13.3,12-21.5,15.5
	c-8.4,3.5-12.9,6.7-22.5,16.3c-8.9,8.9-14.1,12.8-19.9,15c-4.4,1.7-10.9,5-14.7,7.5c-3.7,2.5-10.7,6.2-15.5,8.3
	c-4.8,2.1-11.6,5.8-15.1,8.4s-9.9,6.1-14.5,8c-4.5,1.8-11.3,5.4-15.1,8c-3.8,2.7-10,5.9-13.8,7.2c-3.8,1.3-10.1,4.9-14,7.9
	s-10.3,6.5-14.2,8c-3.9,1.4-10.8,4.9-15.2,7.8c-4.5,2.9-12,6.7-16.6,8.6c-6.3,2.5-11.3,6.3-19.2,14.4c-8.1,8.3-13.2,12-21,15.5
	c-5.6,2.5-13,6.5-16.4,9c-3.4,2.5-8.8,5.4-11.9,6.5c-3.1,1.1-10,4.7-15.2,8c-5.2,3.3-12.3,7.1-15.7,8.4s-10,4.9-14.5,7.9
	c-4.6,3-11.2,6.5-14.7,8c-3.6,1.3-9.5,4.6-13.3,7.1c-3.7,2.6-10.8,6.4-15.6,8.4c-4.8,2.1-11.6,5.8-15.1,8.3s-9.6,5.9-13.6,7.5
	s-10.8,5.2-15.2,8.1c-4.4,2.9-10.8,6.3-14.2,7.6c-3.5,1.3-10,4.8-14.5,7.9c-4.6,3-11.1,6.5-14.5,7.9c-3.5,1.3-10,4.8-14.5,7.9
	c-4.6,3-11.1,6.5-14.5,7.9c-3.5,1.3-10,4.8-14.5,7.9c-4.6,3-11.2,6.5-14.7,8c-3.6,1.3-9.5,4.6-13.3,7.1s-10.8,6.4-15.7,8.4
	c-4.9,2.1-10.8,5.2-13.2,7c-2.4,1.8-8,5.1-12.4,7.2c-5,2.4-8.7,5.3-9.7,7.7c-1.7,4.2-2.7,2.1,13.1,33.5
	c10.8,21.5,11.3,25.3,4.6,36.5c-8.9,15.1-8.7,39.5,0.6,54.2c5.3,8.4,8,17.9,8,28.4c0,4.5,1.6,9.1,5.3,15.7c2.9,5.1,6,11.1,6.8,13.3
	c0.9,2.2,1.9,19.6,2.4,39.3c0.8,35.4,0.8,35.4,7.4,45.2c5.7,8.7,6.5,10.9,6.5,18.1c0,6.6-0.8,9.5-4.4,14.9
	c-8.8,13.5-9.3,15.4-9.4,34.7c-0.2,31.9-0.6,30,6.5,41.6c5.5,9.2,6.6,12.2,7.5,21.8c1.7,19,8.5,22.9,36.5,20.9
	c13.6-1,17.8-2.4,31.6-10.8c5.8-3.6,5.8-3.6,70.5-3.1c35.5,0.2,70.1-0.2,76.7-1c10.5-1.2,13.1-2.2,21-7.9c4.9-3.6,10.3-6.5,11.9-6.5
	c1.7-0.1,90.7-0.2,197.8-0.4c149.2-0.2,195.9-0.7,199.8-2.2c2.7-1.1,8.8-4.5,13.4-7.5c8.4-5.6,8.4-5.6,343.4-5.6
	c333.3,0,335,0,339.6,3.1c14,9.6,15.4,10,37.4,11.4c11.6,0.7,62.4,1.2,112.8,0.9c91.7-0.5,91.7-0.5,99.5,5.3
	c14.2,10.5,6.7,9.9,120.7,10.1c102.8,0.2,104.3,0.2,109,3.5c15.8,10.8,14.4,10.4,40.6,10.4c22,0,24.4-0.2,27.3-3.1
	c2.6-2.6,3.1-4.2,2.3-9.4c-0.5-3.5-1.4-14.4-2-24.4c-1.2-18.7-1.9-21.1-10.4-35.7c-4.6-7.9-4.8-9.1-5.7-28.3
	c-0.8-18.6-1.2-20.7-5.2-27.9c-6.8-12.3-7-12.9-7.9-33.8c-0.8-19.7-0.8-19.7-7.3-30.5c-6.5-10.8-6.5-10.8-7.5-30.7
	c-0.8-16.7-1.6-21-4.4-26.6c-8.8-17.1-9.9-20-10-26c-0.1-11.2-2.3-19.5-7.5-28c-2.7-4.6-6.3-12.1-7.8-16.9
	c-2.2-6.7-5.5-11.8-15-22.4c-13.3-14.9-14.3-15.5-33.5-18.1c-9-1.2-12.5-2.6-20.2-8c-5.1-3.6-11.9-7.4-15.2-8.4
	c-4.2-1.3-11.5-7.6-26.5-22.6c-14.7-14.7-22.3-21.2-26.1-22.4c-3.4-1-17.1-1.2-36.8-0.7c-36.2,1.1-42.9,0.1-54.6-8.3
	c-6.5-4.6-10.2-6-21.4-7.9c-9.3-1.5-14.9-3.3-18.1-5.7c-8.3-6.4-18.1-19.6-22.6-30.6c-10.3-24.6-12.8-26.1-47.1-27.2
	c-26.3-0.8-26.3-0.8-35.4-6.9c-7.5-5-11.1-6.3-20-7.4c-13.8-1.7-15.1-2.2-25.4-9.4c-4.7-3.3-11.9-7.2-15.9-8.6
	c-5.1-1.8-9.9-5.4-15.7-11.5c-13.4-14.2-13.7-15.2-14.7-38.6c-0.7-15.2-1.6-21.9-3.5-26c-1.4-3-9.9-13.6-19-23.5
	c-14.2-15.7-17.1-19.8-22.1-31.4c-4.1-9.5-7.9-15.6-13.3-21.2c-4.1-4.3-10.2-12.7-13.3-18.6c-8.4-15.6-11.4-16.2-25-5.5
	c-4.3,3.4-7.4,4.5-12.4,4.5c-13.2-0.1-19.7-7.6-21.2-24.8c-1.2-13.8-2.7-18.1-9.1-28.2c-5.4-8.4-5.4-8.4-6.3-29.2
	c-0.9-21.7-2.3-27.1-8.9-33.5c-5.9-5.8-12.6-8.5-24.8-10c-20.6-2.6-24.3-8.4-24.4-38.8c0-13.2,0.6-20.9,2-24.3
	c3-7.5,14.7-21,22.4-25.8c6.5-4.1,7.6-4.3,26.4-4.3c19.6,0,19.6,0,28.3,5.9c9.6,6.5,12.5,7.1,15.9,3.4c3.3-3.6,2.8-7.6-1.7-13.3
	c-5.1-6.5-13.8-10.8-22.2-10.9c-3.6-0.1-8.9-1-11.8-2.2c-7.2-2.8-22.4-17.4-27.2-26c-3.6-6.6-3.9-8.3-3.9-26.8
	c0-21.1-0.4-19.4,10.6-41.6c1.7-3.5,4.6-9.8,6.5-14.2c1.9-4.3,5.2-11.3,7.5-15.5c3.3-6.2,4.1-9.5,4.1-18.1
	c0.1-13.3-1.9-17.6-8.2-17.4C3870.4,2808.9,3866.4,2809.6,3864,2810.4 M5122.5,2892.5c-3.1,1.2-8,4-10.9,6.1
	c-3,2.2-10.3,6.1-16.1,8.8c-8.5,3.7-12.8,7-20.5,15.1c-7.5,8-11.9,11.3-20.1,14.9c-5.8,2.6-13.3,6.6-16.6,9.1
	c-3.4,2.5-10.8,6.5-16.6,8.8c-8.7,3.6-12.7,6.5-23.9,17.9c-23.9,24.3-36.9,41.2-41.4,54.1c-3.2,9.2-6,13.7-14.6,23.4
	c-13.9,15.8-15.2,22.1-6.8,34.1c7.1,10.2,7.7,15.3,7.7,73.9c0,33.9-0.6,56.6-1.6,60.6c-1.3,5.2-7.2,12.3-33.8,41.1
	c-29.5,31.8-33,35-40.8,38.2c-4.7,1.9-12.3,5.8-16.7,8.8c-4.5,2.9-12,6.9-16.7,8.8c-6.5,2.6-11.4,6.3-19.6,14.7
	c-8.8,9-13,12.1-21.4,15.6c-8.4,3.5-13,6.8-22.1,15.8c-9,8.9-13.8,12.4-21.9,15.7c-8.1,3.4-12.7,6.6-21.5,15.6
	c-8.9,9-13.3,12.3-21.8,15.7c-8.4,3.5-12.8,6.7-21.8,15.7c-9,9.1-13.3,12.2-22,15.8c-9.9,4.1-12.5,6.2-29,23.5
	c-16.4,17.2-19.2,19.5-28.7,23.4c-8.6,3.6-12.9,6.7-22.9,16.6c-10.2,10.2-13.9,12.8-21.9,15.7c-7.8,2.8-11.6,5.5-19.8,13.9
	c-5.8,6-14,12.4-19.1,15.2c-12.4,6.5-13.4,10.1-6.3,22.6c3,5.1,6.4,12.4,7.5,16.1c1.2,3.7,4.4,10.3,7.1,14.7c5.2,8.3,8,17.8,8,28.3
	c0,6.2,1.3,9.5,9.4,24.7c3.6,6.9,4.1,9,4.3,26.3c0.3,18.3,0.5,19,5.2,27.1c8.9,15.3,9.3,16.6,10.1,37.4c0.7,19.6,0.7,19.6,6.9,30.3
	c6.4,11.3,7.3,16.1,7.5,40.2c0.1,8.5,0.7,11.3,4.8,18.1c8.9,15.3,9.3,16.6,9.5,33.1c0.1,8.6,0.2,18.1,0.3,21c0.1,4.2,1.6,6.8,6.5,12
	c7.2,7.5,11.8,9.4,25.8,10.8c8.2,0.8,11.3,2.2,20.4,8.4c10.6,7.4,10.6,7.4,51.3,8.1c38.8,0.7,40.9,0.9,45.8,4.2
	c14.2,9.8,16,10.3,36.4,11.8c10.8,0.7,41.9,1.2,69.2,0.9c49.6-0.5,49.6-0.5,57.4,5.3c14.2,10.5,6,9.9,128,10.1
	c110.2,0.2,111.5,0.2,116.2,3.5c16.8,11.5,7,10.4,100,11.3c83.6,0.7,83.6,0.7,93.6,7.9c10,7,10,7,36.3,8c14.4,0.5,37.4,0.6,51,0.2
	c13.7-0.4,27.1-0.3,29.8,0.2c2.8,0.6,8.6,3.5,13,6.5c4.4,3.1,10.5,6.3,13.7,7.3c3.8,1.2,23.5,1.8,56.7,1.9c50.9,0.2,50.9,0.2,60.7,7
	c9.2,6.5,10.7,7,23.9,8.3c7.8,0.7,32.7,1.2,55.5,0.9c41.4-0.4,41.4-0.4,52.3,6.6c10.8,7,10.8,7,72.6,7.9c65.5,0.8,63.2,0.6,73.4,8.7
	c9.8,7.7,8.4,7.6,110.6,7.9c95.7,0.2,96.1,0.2,101,3.6c14.6,9.9,15.5,10.2,39.1,11.8c26.9,1.7,101.6,0.3,109.4-2.1
	c8-2.4,16-11.8,20-23.7c3-8.7,5.5-12.3,18.9-26.5c17.1-18.4,21.4-24.8,26.2-38.4c2.7-8,5.9-12.4,20.1-28.2
	c15.2-16.9,17.4-20.1,21.8-31.4c2.7-6.9,6.1-14.6,7.7-17c1.6-2.5,5.1-10.1,7.9-17.1c2.7-7,6.3-14.7,8-17.1c1.7-2.5,4.6-8.9,6.5-14.1
	c2.5-6.9,6.3-12.8,13.4-20.9c6.2-7,11-14.2,12.8-19c1.6-4.2,4.6-11.3,6.8-15.6c2.2-4.4,6.6-13.9,9.9-21.2
	c5.1-11.3,8.4-16.1,22.3-31.4c14-15.5,17-19.7,20.5-29.1c5.6-14.9,7.5-17.5,33.6-45.1c28.3-30,35.7-39.5,39.7-51
	c1.7-5.1,5.1-12.3,7.4-16.3c9.2-15.5,4.3-22.8-15-22.1c-13.8,0.4-21.4-1.6-29.9-7.9c-3.5-2.6-10.4-6.5-15.2-8.6
	c-15.7-7-27.2-19.5-33-36c-1.7-4.9-5.1-12-7.6-16c-2.5-3.9-5.8-10.8-7.4-15.2c-1.6-4.4-5.2-12.2-8.1-17.3c-5.3-9.3-5.3-9.3-5.5-53.4
	c-0.2-39.7,0.1-45,2.6-52.7c5.6-17.4,3.4-21.9-14.7-29.9c-6-2.7-11.8-5.8-13.1-7c-3.9-3.8-11.9-6.6-22.2-7.7
	c-13.7-1.4-15.5-2.5-28.6-15.7c-15.4-15.6-20.1-16.6-33-7.1c-3.3,2.5-8.9,5.1-12.3,6c-9.2,2.2-49.5,0.7-55.7-2.1
	c-2.7-1.2-9.8-7.1-15.7-13.1c-7.5-7.5-13.5-12-19.4-14.5c-11.2-4.8-16.1-8.9-32-26.7c-10.7-11.9-14.5-17.6-19.2-28.2
	c-3.2-7.4-7.4-15.8-9.2-18.8c-2.7-4.6-3.4-8.6-4.1-24.8c-0.9-19.3-0.9-19.3-10.8-40.9c-5.4-11.8-11.2-23.1-12.8-25
	c-1.6-1.9-7.9-5.7-13.9-8.4c-6-2.7-12.9-6.4-15.2-8.1c-2.2-1.7-9.3-5.5-15.5-8.4c-6.3-2.8-13.9-7-17-9.2c-3.1-2.2-8.5-5.1-12.1-6.5
	c-3.6-1.3-11.1-5.5-16.6-9.1c-10.1-6.6-10.1-6.6-51.6-6.9c-22.8-0.2-43.7-0.3-46.5-0.4c-3.3-0.1-9.1-2.7-16.7-7.6
	c-11.6-7.5-11.6-7.5-68.3-7c-61.8,0.6-64.9,0.2-75.9-8c-3.5-2.6-10.4-6.5-15.3-8.5c-5.8-2.4-11.5-6.5-16.2-11.4
	c-14.2-14.9-19-15.1-32.5-1.3c-6.7,6.8-11.7,10.5-16.1,11.9c-3.6,1.1-10.9,5.3-16.3,9.3c-13.5,9.9-19.6,10.1-33.9,0.8
	c-5.6-3.6-11.8-6.7-13.7-6.7c-2,0-7.4,2.8-12,6.2c-4.6,3.4-10.7,6.7-13.3,7.2c-2.7,0.5-18.1,0.7-34.4,0.4
	c-26.1-0.5-30.3-0.9-35.4-3.6c-9-4.9-11.3-11.6-11.5-33.6c-0.1-10,0.4-22.5,1.2-27.8c1.2-9.2,1.2-9.8-2.2-11.8
	c-2.4-1.5-8.6-2.1-20.2-2c-20.7,0.2-23,1.3-42.3,21.4c-14,14.6-14,14.6-14.9,23.9c-0.6,5.7-2.6,12.4-5.1,17.3
	c-2.2,4.4-5,10.4-6,13.4c-1.1,3-4.4,9.6-7.4,14.7c-3,5.1-6.5,12.5-7.7,16.6c-4.5,14.6-10.2,17.4-35,17.4c-22.1,0-25.1-1.2-38.3-14.9
	c-7.7-8.1-12.4-11.4-21.9-15.7c-6.6-3-13.8-6.9-16.1-8.6c-2.2-1.7-8.9-5.3-14.7-7.9c-5.8-2.6-11.5-5.6-12.8-6.8
	c-7.3-6.9-11.8-7.9-35.9-8.3c-16.7-0.2-25-1.1-28.7-2.7c-5.4-2.4-34.9-34.3-38.6-41.5c-1.6-3.2-2.1-11.4-2.2-35.6
	c-0.1-37.8-0.6-39.3-15.6-47.9c-5.2-3-12.1-7-15.2-8.9C5137.5,2891,5129.3,2890,5122.5,2892.5"/>
<circle class="st2" cx="359.4" cy="4215.7" r="107.5"/>
<circle class="st3" cx="359.4" cy="4516" r="107.5"/>
<circle class="st4" cx="359.4" cy="4816.3" r="107.5"/>
<text transform="matrix(1 0 0 1 535.5948 4236.3838)" class="st5 st6 st7">MULTI-PURPOSE BUILDINGS</text>
<text transform="matrix(1 0 0 1 542.3194 4551.2969)" class="st8 st6 st7">ROADS</text>
<text transform="matrix(1 0 0 1 551.4781 4851.5986)" class="st9 st6 st7">BRIDGES</text>
<text transform="matrix(1 0 0 1 251.9854 3977.4922)" class="st10 st6 st11">PROJECT EXISTENCE INDICATOR</text>
<text transform="matrix(1 0 0 1 118.9355 281.3567)" class="st6 st12">Tagoloan</text>
</svg>
