<?xml version="1.0" encoding="utf-8"?>
<svg version="1.1" id="Layer_1" xmlns="http://www.w3.org/2000/svg" xmlns:xlink="http://www.w3.org/1999/xlink" x="0px" y="0px"
	 viewBox="0 0 8192 5358.9" style="enable-background:new 0 0 8192 5358.9;" xml:space="preserve">
<style type="text/css">
	.st0{fill-rule:evenodd;clip-rule:evenodd;fill:#FBFBFB;}
	.st1{fill-rule:evenodd;clip-rule:evenodd;fill:#9C14E4;}
	.st2{font-family:'ArialMT';}
	.st3{font-size:188.1899px;}
	.st4{fill:#8703EF;}
	.st5{fill:#4472C4;stroke:#FFFFFF;stroke-width:0.9409;stroke-miterlimit:9.4095;}
	.st6{fill:#FF000D;stroke:#FFFFFF;stroke-width:0.9409;stroke-miterlimit:9.4095;}
	.st7{fill:#70AD47;stroke:#FFFFFF;stroke-width:0.9409;stroke-miterlimit:9.4095;}
	.st8{fill:#EA781B;stroke:#FFFFFF;stroke-width:0.9409;stroke-miterlimit:9.4095;}
	.st9{fill:#7030A0;stroke:#FFFFFF;stroke-width:0.9409;stroke-miterlimit:9.4095;}
	.st10{fill:#FFFF1A;stroke:#FFFFFF;stroke-width:0.9409;stroke-miterlimit:9.4095;}
	.st11{stroke:#FFFFFF;stroke-width:0.9409;stroke-miterlimit:9.4095;}
	.st12{fill:#843C0C;stroke:#FFFFFF;stroke-width:0.9409;stroke-miterlimit:9.4095;}
	.st13{fill:#FF73D8;stroke:#FFFFFF;stroke-width:0.9409;stroke-miterlimit:9.4095;}
	.st14{fill:#B1FFF7;stroke:#0031FF;stroke-width:0.9409;stroke-miterlimit:9.4095;}
	.st15{fill:#FFB1BC;stroke:#FFFFFF;stroke-width:0.9409;stroke-miterlimit:9.4095;}
	.st16{fill:#F6DB76;stroke:#FFFFFF;stroke-width:0.9409;stroke-miterlimit:9.4095;}
	.st17{fill:#A5A5A5;stroke:#FFFFFF;stroke-width:0.9409;stroke-miterlimit:9.4095;}
	.st18{fill:#0B0BF9;stroke:#FFFFFF;stroke-width:0.9409;stroke-miterlimit:9.4095;}
	.st19{fill:#E9816F;stroke:#FFFFFF;stroke-width:0.9409;stroke-miterlimit:9.4095;}
	.st20{fill:#4472C4;}
	.st21{font-size:141.1424px;}
	.st22{fill:#FF0000;}
	.st23{fill:#70AD47;}
	.st24{fill:#F9920B;}
	.st25{fill:#7030A0;}
	.st26{fill:#FFFF03;}
	.st27{fill:none;stroke:#0000FF;stroke-width:0.4705;stroke-miterlimit:9.4095;}
	.st28{fill:#843C0C;}
	.st29{fill:#FF73D8;}
	.st30{fill:#B1FFF7;}
	.st31{fill:#FFB1BC;}
	.st32{fill:#F6DB76;}
	.st33{fill:#A5A5A5;}
	.st34{fill:#410EFD;}
	.st35{fill:#E9816F;}
	.st36{font-size:120.8001px;}
	.st37{fill:none;stroke:#000000;stroke-width:19.4839;stroke-miterlimit:9.7419;}
</style>
<path class="st0" d="M6266.7,1231.6c0.8,2.9-2,8.8-6,12.6c-3.5,3.2-6.6,9.1-6.7,12.4c0,3-4.2,11.8-8.6,17.8c-2.5,3.6-3.3,6.2-3.3,12
	c0,12.5-1.2,17-6.8,23.7c-3.1,3.8-6,9.4-7.3,13.9c-1.1,4.2-4.4,10.8-7.2,14.9c-2.7,4-5.1,8-5.1,8.8c0,4.3-3.2,12.1-6.5,15.9
	c-6.1,7.2-8,12.3-8,21.5c0,8.3-3.2,18.5-6.5,20.5c-3.3,2.1-5.6,9.5-6,19.6c-0.4,10.5-2.5,16.7-6.6,20.1c-4.2,3.6-6.5,10.2-7.2,21.8
	c-0.8,10.6-1.2,12.3-5.1,17.1c-6.1,7.7-8,13.5-8,23.6c0,9.5-0.9,12.4-6.8,19.2c-2,2.4-4.6,7.6-5.8,11.8c-1.1,4-3.5,9.3-5.3,11.8
	c-5.9,8.3-6.9,11.2-7.6,22.1c-0.8,11.7-2,15.1-7.1,20.8c-1.8,1.9-4.9,8.1-6.9,13.6c-2,5.6-5.6,12.6-8,15.6c-4,5-4.4,6.5-4.9,15.9
	c-0.8,14.3-1,15.5-6.2,21.8c-2.4,3-5.8,9.5-7.4,14.3c-1.6,4.9-4.2,10.4-5.8,12.5c-5,6.1-6.1,9.4-6.9,19.6
	c-0.9,13.7-1.2,14.9-6.3,21.1c-2.4,3-5.8,9.4-7.3,14.2c-1.6,4.8-4.5,11-6.7,13.6c-4.8,6.1-6.6,12.3-6.6,22.6c0,8.6-1,11.4-6.8,18.1
	c-2,2.4-4.6,7.6-5.8,11.8c-1.1,4-3.5,9.3-5.3,11.8c-5.9,8.3-6.9,11.2-7.6,22.1c-0.8,11.8-1.9,14.9-7.7,21.7c-2,2.4-4.6,7.6-5.8,11.8
	c-1.1,4-4.3,10.7-7.2,15c-2.7,4.2-5.7,10.4-6.6,13.8c-0.8,3.4-3.2,8.3-5.2,11c-4.8,6.2-6.6,9.6-8.8,17.4c-1,3.6-3.6,8.7-5.7,11.4
	c-2.1,2.7-4.9,8.4-6,12.6s-3.8,9.8-5.8,12.4c-4.5,6-7.4,11.7-8.6,17c-0.6,2.4-2.7,6.9-4.9,10c-5.9,8.4-7.6,13.6-7.6,23.4
	c0,9.5-0.9,12.4-6.8,19.2c-2,2.4-4.6,7.6-5.8,11.8c-1.1,4-3.5,9.3-5.3,11.8c-5.9,8.3-6.9,11.2-7.6,22.1c-0.8,10.8-2.8,17.3-6.9,20.7
	c-4.2,3.6-6.5,10.2-7.2,21.7c-0.6,7.7-1.6,12.7-3.1,14.9c-1.2,1.8-3.7,5.2-5.4,7.5c-1.7,2.4-3.5,6.9-4,9.8
	c-0.6,3.1-3.1,8.3-6.1,12.4c-2.8,3.9-6.1,10.2-7.2,14c-1,3.9-3.4,8.9-5.2,11.4c-4.3,6.1-6.9,11.5-8.6,18.2
	c-0.8,3.1-3.5,8.2-5.9,11.2c-2.6,3.2-5.5,8.8-6.7,13.2c-1.1,4.2-3.8,9.9-5.9,12.5c-4.3,5.6-5.8,8.8-7.7,16.8
	c-0.8,3.1-3.5,8.2-5.9,11.2c-2.4,3-5.5,8.8-6.7,12.7c-1.1,4-3.5,9.2-5.2,11.7c-5.9,8.3-6.9,11.2-7.6,22.1
	c-0.8,11.8-1.9,14.9-7.7,21.7c-2,2.4-4.6,7.6-5.8,11.7c-1.1,4-4.5,10.7-7.5,15c-5.2,7.4-5.5,8.3-6.2,20c-0.8,12.5-1,13.2-8.5,22.8
	c-3.3,4.3-4,6.4-4.8,17.7c-0.8,11.9-1.2,13.3-5.4,18.3c-4.3,5.6-7.7,13.1-7.8,17.5c0,1.2-2.1,5-4.5,8.2c-7,9.4-7.8,11.7-8.7,24.2
	c-0.8,10.7-1.2,12.3-5.3,17.4c-5.8,7.3-7.8,13.4-7.8,23.8c-0.1,9.2-1,12-6.8,18.7c-2,2.4-4.9,8.4-6.3,13.5
	c-2.4,8.3-3.8,10.4-15.2,22.5c-12.6,13.4-12.6,13.4-26.3,14.2c-12.6,0.7-14.1,1.1-18.6,4.8c-12.5,10.1-10.4,9.4-29,9.5
	c-18.3,0.1-20.4,0.7-27.9,7.4c-6.7,5.8-12.4,6.8-41.6,6.4c-28.6-0.4-29.3-0.1-37.4,7c-6.2,5.6-11.9,6.7-35,6.7
	c-21.9,0-23.1,0.2-31.2,7c-6.2,5.1-15.4,6.7-36.8,6.2c-19.5-0.5-19.5-0.4-31.1,9c-4.9,4-5.2,4.1-22.4,4.3
	c-17.9,0.2-22.8,1.4-26.9,6.5c-5,6.1-8.4,6.8-39.5,6.9c-31.7,0.1-32.4,0.2-40.6,7.4c-2.4,2.1-6.5,4.4-9.2,5.2
	c-2.9,0.8-21.5,1.4-45.9,1.4c-45.4,0-39.8-0.8-52.9,8.8c-5.6,4.2-13,4.6-65.7,4.4c-58.6-0.4-53.6-1-65.8,8.8
	c-4.5,3.7-5.9,4-21.5,5.2c-9.2,0.7-32.1,0.8-50.6,0.5c-36.3-0.8-35.8-0.8-44.3,6.1c-7,5.6-14.7,6.8-42.8,6.3
	c-27.6-0.5-24.8-1.1-39,8.9c-5.7,4-5.7,4-56.7,4.8c-50.5,0.7-51.1,0.7-54.8,3.8c-7.3,6-9.6,7.3-14.6,8.6c-2.7,0.7-46.6,1.1-97.3,1.1
	c-99.5-0.1-94.5-0.5-103,7.2c-2.4,2.3-5.9,4.5-7.7,5.2c-1.8,0.7-16.5,1.3-32.7,1.3c-32.4,0-28.2-0.8-41.1,8.8
	c-5.3,4-12.5,4.6-43.8,4.5c-17-0.1-32.5-0.1-34.4,0c-1.9,0.1-6.2,2.5-9.9,5.6c-8.2,6.9-13.9,8-35.9,7.1c-17.3-0.7-17.6-0.8-20.7-4.6
	c-1.8-2.1-3.8-6.2-4.5-9c-0.8-2.9-3.4-7.7-5.9-11.1c-2.5-3.2-5.6-9.3-6.8-13.5c-2.6-9.4-5.5-12.3-15.6-15.1c-5-1.4-9.7-4-12.9-7
	c-6.3-5.8-9.9-7.2-18.5-7.2c-10.2,0-15.4-3.3-18.2-11.2c-1.2-3.6-3.2-7.7-4.3-9.4c-1.1-1.7-3.5-4.9-5.2-7.3c-1.7-2.4-3.5-7.2-4-10.6
	c-1-7.2-5.5-12.6-10.4-12.6c-1.8,0-6.7,2.4-10.9,5.5c-7.1,5-8.5,5.5-16.6,5.5c-10.5,0-14.2,1.2-21.3,7.4c-5.7,5-11.7,6.1-17.1,3.2
	c-1.6-0.8-7.6-6.2-13.5-11.9c-11.4-11.3-11.7-11.4-28.7-12.5c-7.5-0.5-9.9-1.2-13.8-4.5c-9.6-7.9-6.7-7.4-43.5-7.1
	c-31.3,0.2-40.6-0.8-44.6-4.9c-2.8-2.9-3.1-4.2-3.1-18.7c0-17.1,0.4-18.7,8-27.2c3.3-3.7,5.1-7,5.2-9.4c0-2.1,0-49.6,0-105.8
	c-0.1-76.2,0.3-102.8,1.5-105.1c0.8-1.7,3.6-5.3,6-8.1c2.4-2.7,4.4-5.7,4.5-6.8c0.1-1,0.2-30.5,0.4-65.7c0.3-70-0.1-66.6,8.5-75.8
	c4.8-5.1,4.8-5.1,5.4-86.5c0.7-81.4,0.7-81.4,5.4-86.5c2.6-2.7,5.4-6.4,6.2-8.1c1-2.1,1.5-40.2,1.5-134.5
	c0-94.2,0.4-132.3,1.5-134.5c0.8-1.7,3.6-5.2,6.2-8.1c4.8-5.1,4.8-5.1,5.2-37.6c0.2-18,0.1-34-0.3-35.7c-0.4-1.7-2.7-5.3-5.2-8.1
	s-5.1-6.3-5.9-8c-1-2.1-1.5-17.8-1.5-52.2c0-53.3,0-53.1,7.3-59.9c2-1.9,4.1-4.9,4.9-6.8c0.8-1.9,1.1-24.5,1.1-53.6
	c-0.1-50.2-0.1-50.2,3.2-53.6c4-4.1,2.7-4.4-1.5-0.5c-2.6,2.4-4.5,2.9-13,2.7c-7.7-0.1-10.5-0.7-12.7-2.5c-2.7-2.4-2.7-2.4-0.2,1.5
	c2.4,3.7,2.5,7.4,2.9,48.7c0.4,48.4,0,52.8-6.2,60.1c-7.2,8.4-7,7.1-7.1,63.4c-0.1,57.2-0.3,55.1,7.7,64.4
	c5.6,6.4,6.1,10.6,5.6,41.6c-0.4,24.9-0.4,24.9-4.3,30c-9.6,12.3-8.7-2-9,144.6c-0.2,131.7-0.2,131.7-4.2,137.7
	c-9.2,13.6-8.5,6.9-7.7,68.7c0.4,30.8,0.1,66.4-0.6,79c-1.1,22.7-1.2,23.2-5.1,28c-9.3,11.9-8.7,6.2-8.6,73.7
	c0,33.6-0.4,63.2-1,66.1c-0.7,2.7-2.1,6.4-3.3,8.1c-9.6,13.4-8.7,0.8-8.7,115.7c0,112.5,0.2,109-7.2,117c-5.6,6-7.2,12.1-7.2,27.5
	c0,24.3-0.1,24.4-37,24.4c-25.4,0-27.6-0.2-30.7-2.6c-1.8-1.4-5.4-4.4-8-6.7c-4-3.3-6.5-4.1-15.1-4.9c-12.9-1.1-16.3-3.3-19-11.9
	c-1.8-5.6-5-9.5-17.9-22.6c-15.7-15.9-17.3-17-29.6-21.4c-5.6-2-9.9-5.6-29.2-25.6c-12.5-12.9-23.8-24-25.3-24.8
	c-3.5-1.9-12-1.8-15.4,0.2c-1.5,0.8-5.3,3.7-8.4,6c-3.1,2.4-8.8,5.3-13,6.5c-6.1,1.9-8.8,3.8-16.7,11.9c-7,7.2-9.9,11.4-11.7,16.7
	c-1.7,5.1-3.4,7.6-6.2,9c-7.7,4.1-20.5,1.5-27.8-5.3c-4.8-4.6-9.5-6.1-19.9-6.1c-10.1,0-12.4-0.8-19.9-7.5c-2.8-2.4-7.8-5.1-11.4-6
	c-3.5-0.8-9.2-3.7-12.7-6.2c-3.5-2.5-9.6-5.6-13.5-6.8c-4-1.2-9.5-3.9-12.1-6.1c-5.3-4.3-14.9-9.2-18.1-9.2c-1,0-5.5-2.4-9.7-5.5
	c-4.2-3-8.7-5.5-9.9-5.5c-5.2,0-16.6-7.2-25.4-16.1c-6.2-6.3-11.4-10.2-15.4-11.8c-3.4-1.2-7.4-3.8-9.1-5.6c-2.8-3.2-2.9-4-2.9-32.9
	c0-17.3-0.6-30.7-1.4-32.2c-0.8-1.4-8.7-10.1-17.7-19.4c-9-9.3-17.4-18.8-18.7-21.3c-1.4-2.6-2.4-8-2.5-13.2
	c-0.1-4.8-0.3-10.1-0.4-11.8c-0.1-1.7-2.5-5.7-5.4-9.2c-2.8-3.4-5.6-7.5-6-9.2c-0.4-1.7-0.6-16.4-0.3-32.7c0.4-29.8,0.4-29.8,6-35.9
	c3.1-3.4,5.6-7.3,5.7-8.7c0-1.3,0.1-56.5,0.1-122.6c0-120.3,0-120.3-6-128.4c-6-8.2-6-8.2-6-194c0-137.9-0.4-186.6-1.5-188.7
	c-0.8-1.7-3.7-5.6-6.2-8.8c-4.8-6-4.8-6-4.8-38.9c0-32.8,0-32.9,5.3-37.8c2.8-2.6,4.6-4.4,4-3.9c-2.1,1.7-24.5,1.2-24.5-0.6
	c0-0.8-1.7,1.8-3.8,5.7c-3.8,7.3-3.8,7.3-3.6,39c0.2,35.1-0.4,32.4,10.4,46.1c2.9,3.8,2.9,3.8,3.3,190.4c0.4,186.7,0.3,186.6,4,192
	c10,14.5,8.8,0.1,8.8,129.7c0,115.9,0,115.9-4,121.7c-8.8,13.1-8.4,10.1-8.7,45.2c-0.3,30-0.2,32.7,2.3,36.9
	c5.9,10.5,5.9,10.5,4.4,14.5c-2.4,6.7-6.3,9.5-15.7,11.9c-9,2.3-9,2.3-31.6,25.3c-19,19.4-23.2,24.5-26.4,31.4
	c-2,4.5-4.9,8.9-6.3,9.8c-1.5,0.8-8.6,1.4-15.7,1.4c-15.5,0-18.6-1.7-22-12c-2.9-9.2-18.9-25.7-27.2-28.1c-3.2-1-9-3.9-12.8-6.5
	c-8.6-5.8-13-6.1-19.9-0.6c-2.7,2.3-8.6,5.5-12.8,7c-5.9,2.3-10.2,5.3-17.9,13c-8.5,8.4-11.7,10.6-19.9,13.7
	c-5.4,2.1-12.1,5.6-15.1,7.9c-2.8,2.4-7.7,4.9-11,5.6c-3.3,0.8-8.2,3-10.8,4.9c-6,4-10.5,4.1-15.6,0.5c-6.2-4.5-7-7.3-7.7-28.4
	c-0.8-19.6-0.8-19.9-4.8-24.9c-5.2-6.7-6.9-9.9-9.2-18.1c-1.5-5.1-4-8.8-11.6-16.5c-8.3-8.6-10.7-10.2-17.4-12
	c-4.3-1.2-10.2-4.1-12.9-6.3c-2.7-2.4-8.4-5.1-12.5-6.3c-4-1.2-9.4-3.8-11.9-5.8c-9.5-7.6-8.7-7.4-43.5-7
	c-21.4,0.4-34.2-0.1-37.8-1.1c-9.6-2.6-9.6-3-9.5-44.9c0.1-36.9,0.1-36.9-3.2-41.5c-11.3-15.9-10.3-10.4-10.1-51.4
	c0.2-40.5,0.4-39-8.5-50.3c-4-5-4-5-4.6-252.9c-0.6-184.1-1-248.6-2.3-250.6c-0.8-1.4-2.8-3.9-4.4-5.5c-7.5-6.9-7.9-13.8-1.5-22.3
	c6-7.7,6.2-9.2,0.4-2.5c-5.4,6.2-5.4,6.2-17.6,7.1c-9.9,0.7-12.6,0.5-14.3-1.1c-1.1-1.1-2.6-2-3.3-2c-0.7,0,0.4,1.2,2.3,2.6
	c1.8,1.4,4.3,5.6,5.7,9c1.2,3.6,4.3,8.8,6.7,11.9c2.4,3,5.1,7.2,6,9.4c1.4,3.2,1.8,50.7,1.9,250.3c0.2,246.2,0.2,246.2,4,251.1
	c7.7,9.9,7.5,8.8,7.6,48.8c0.1,41.2-0.7,37.6,10.2,51.4c2.9,3.8,2.9,4.4,2.9,39.3c0,35.5,0,35.5-3.2,38.9c-1.7,1.9-5.9,4.4-9.4,5.6
	c-3.5,1.2-8.8,4.2-11.9,6.7c-3.2,2.5-9.3,5.6-13.6,6.9c-7.3,2.1-9.1,3.6-23.1,18c-13.5,13.8-15.5,16.7-18.2,24.2
	c-3.5,10.1-7.1,12.3-19.9,12.3c-9,0-11.9,1.1-18.1,7.2c-3.8,3.7-5.4,4.2-13.5,4.6c-14.3,0.8-17.1-0.7-35.2-19.4
	c-8.8-9-17.2-17.1-18.7-18c-1.8-1-16.4-1.4-43.3-1.4c-23.5,0-42.6-0.6-45.4-1.3c-2.6-0.8-7.6-3.7-10.9-6.5c-3.7-3.1-9-6-13.6-7.3
	c-4.2-1.2-10.3-4.3-13.7-7.1c-5.8-4.6-7.1-5.1-16.5-5.6c-13.8-0.8-14.5-0.8-22.3-7c-3.8-2.9-9.9-6.3-13.5-7.5
	c-3.6-1.2-8.7-4-11.4-6.2c-6.6-5.3-11.4-5.2-19.4,0.7c-3.5,2.5-8.3,5-10.5,5.5c-2.4,0.5-6.9,2.6-10.2,4.9c-3.3,2.3-7.4,4-9.3,4
	c-3.4,0-8.6-4.5-11.6-10.1c-0.8-1.4-1.5-2-1.5-1.2c0,0.8,2,4.2,4.4,7.5c4.5,6.1,4.5,6.1,1.5,12.9c-1.7,3.8-3.7,7-4.5,7.3
	c-0.8,0.4,0.7,2.5,3.2,5.1c6.5,6.4,11.9,6.3,19-0.4c2.9-2.7,7-5.3,9-5.7c2-0.5,6.8-2.6,10.5-4.8c8.4-4.8,12-4.9,19.3-0.7
	c3.1,1.8,8,4,11.1,5c3.1,0.8,7.9,3.7,10.7,6.2c6.8,5.8,10.4,7.2,20.5,7.2c9.9,0,13.9,1.4,19.9,6.8c2.4,2.3,6.9,4.6,10.1,5.5
	c3.1,0.8,6.8,1.8,8,2.3c1.4,0.5,4.6,2.7,7.3,5.2c2.6,2.4,6.6,5.2,8.6,6c2.4,0.8,18.7,1.4,45.5,1.3c37.2-0.1,42.3,0.1,46.2,2.3
	c2.4,1.2,11.4,9.5,19.9,18.3c8.6,8.8,17.4,16.9,19.7,18.2c2.8,1.5,6.8,2,13.9,1.7c8.3-0.5,10.9-1.1,15.2-4.2c2.8-2,6.2-3.7,7.5-3.7
	c5.2,0,5.5,3.4,6,77c0.3,39,0.2,73.1-0.3,75.7c-0.6,2.7-2.5,6.3-4.9,8.6c-6.2,5.8-8.2,10.8-9.1,23.6c-0.8,10.4-1.2,12.4-4.9,16.8
	c-6,7.6-6.7,9.5-7.3,21.3c-0.3,6.2-1.5,12.5-2.7,15c-3.4,6.5-25.6,31.1-43.4,47.6c-8.8,8.3-17.2,17-18.5,19.4
	c-1.6,2.9-2.4,7.1-2.4,13.2c0,7-0.7,9.8-2.7,12.4c-3.6,4.8-11.6,6.8-22.3,5.6c-13.3-1.3-17.6,0.5-28.8,11.7
	c-10.9,11-12,13.2-12,23.8c0,10.8-1.9,13.6-11.1,17.3c-11.4,4.5-28.4,22.8-28.4,30.5c0,1-1.2,3.6-2.7,5.5c-4,5.2-10.4,4.9-16.7-1
	c-2.7-2.4-6.1-5.1-7.6-5.8c-4-2-65.5-1-69.3,1.1c-1.7,0.8-5.3,3.4-7.9,5.6c-4.4,3.7-6.2,4.2-17.8,5.1c-7.1,0.6-12.9,1.1-13,1.1
	c-0.1,0-2.6,2.3-5.7,4.8c-3.1,2.5-7.8,5.5-10.5,6.2c-5.9,1.8-5.7,3.1,2.1,11.9c5.1,5.7,5.5,7.4,2.3,9.4c-1.2,0.8-1.7,1.4-0.8,1.4
	c0.8,0,4-2,7.2-4.4c9-7,10.8-7.6,21.5-7.6c11.1,0,15.1-1.4,21.1-8c5.5-6,10.3-6.9,36.3-6.9c25.9,0,31.1,1,38,7.3
	c7.3,6.7,9.6,7.5,21.3,7.5c18.6,0,23.7-4.2,24.7-20.6c0.8-13.3,2.3-16.5,8.5-19c2.8-1.2,6-2.1,7-2.1c2.3,0,20.8-18.3,23-22.5
	c0.8-1.7,1.5-6.9,1.5-11.8c0-14.9,5.3-16.3,15.7-4.3c3.3,3.8,12.4,13.1,20.1,20.8c15.6,15.4,18.5,19.5,21.5,30
	c1.8,6.2,4.2,9.4,18.2,24c13.5,14,16.6,18.3,18.9,24.7c1.6,4.3,2.8,8.4,2.8,9.2c0,0.8,7.9,9.8,17.7,19.9
	c16.8,17.6,17.8,18.8,20.7,28.2c2.8,9.2,3.8,10.5,17.3,24.2c15.9,15.9,18.3,19.4,22.1,30.8c2.4,6.9,4.8,10.1,18.9,24.7
	c16.8,17.4,19.1,20.8,21.9,30.9c1.2,4.9,4.5,9,17.8,23c13.5,14,16.6,18.3,18.9,24.7c1.6,4.3,2.8,8.4,2.8,9.2
	c0,0.8,7.9,9.8,17.7,19.9c16.8,17.5,17.8,18.9,20.6,28c2.7,8.8,4,10.6,17.8,25.1c8.7,9.2,16.7,16.5,19.6,17.7c4,1.7,11.3,2,39.5,2
	c37.2-0.1,39,0.2,44.9,6.8c6.1,6.9,4,6.8,92.4,6.8c91.5,0,82.9-0.8,94.7,8.8c5,4,5,4,87.2,4.3c45.3,0.1,83.7,0.6,85.4,1
	c1.7,0.5,5.4,2.9,8.2,5.5c2.7,2.5,6.7,5.3,8.7,6.1c2.4,1,26.6,1.4,71.9,1.3c72.3-0.1,72.6-0.1,77.6,6.1c5.3,6.5,5.4,6.5,76.4,6.3
	c41.1-0.1,68.4,0.4,71.5,1.2c2.7,0.8,7.3,3.4,10,6c2.7,2.5,6.6,5.2,8.6,6c2.4,0.8,27.9,1.4,72.2,1.4c71.8,0,70.9-0.1,77.5,6.2
	c7.3,6.9,7.6,7,77.7,6.5c38.6-0.2,67.2,0.1,70.1,0.8c2.7,0.7,7.6,3.7,10.9,6.7c3.3,2.9,7.5,5.7,9.4,6.2c1.9,0.5,15.3,0.6,30,0.2
	c15.1-0.4,27.6-0.1,28.8,0.6c3.1,1.8,2.7,4.4-1.5,11.7c-3.4,6-3.6,7.1-3.3,20.8c0.4,15.6-1,21.5-6.9,27.9c-5.1,5.6-6.5,9.6-7.3,21.8
	c-0.8,10.8-1.1,12.1-5.7,18.2c-2.6,3.6-5.8,9.5-6.9,13.4s-3.4,9-5.2,11.5c-1.8,2.4-4.2,5.8-5.5,7.6c-1.6,2.3-2.5,7-3.1,15.8
	c-0.8,11.4-1.1,13.1-4.8,17.7c-5.9,7.6-6.7,9.5-7.6,21.7c-0.9,12.1-1.8,14.6-7.5,21.4c-2,2.4-4.3,7-5.2,10.1
	c-2.4,9.3-5.8,14.8-14.5,23.2c-10,9.9-13,16.2-13.1,26.9c-0.1,8.4-3.1,17.4-7,20.7c-1.1,1-3.4,5.2-4.9,9.4c-3.3,9-4.6,10.8-9.9,13.3
	c-3.1,1.4-3.2,1.7-0.7,1c4-1.1,7.5-1.1,22.1,0.2c8.3,0.7,10.9,0.6,10.9-0.7c0-1.1,1.1-1.4,3.6-0.8c3.3,0.7,3.4,0.7,0.8-0.7
	c-7.2-3.7-7.2-12.1,0.1-19.2c6.2-6.1,7.3-8.8,7.3-19.6c0-5.2,0.7-11.2,1.4-13.2c0.8-2.1,6-8.7,11.8-14.6
	c9.2-9.8,10.5-11.8,13.1-20.2c1.7-5.8,4-10.7,6.2-12.7c5.6-5.5,7.1-9.8,7.1-20.8c0-11.2,0.8-13.6,7.4-21.2c5.1-5.8,5.5-7.4,6-22
	c0.4-10.6,0.6-11,5.9-17.3c4.1-4.8,5.9-8.3,7-13.7c1-5.2,2.9-9,6.7-13.4c2.8-3.3,5.2-6.2,5.3-6.3c0.1-0.1,0.6-6.4,1-14
	c0.9-13.8,0.9-13.8,6.8-19.9c5.8-6.1,5.8-6.1,6.6-26.8c0.7-20.6,0.7-20.6,6.2-26.8c6.2-7,7.6-10.8,6.3-18c-0.8-4-6.1-10.4-30.8-36.4
	c-16.4-17.4-30.9-33.4-32.2-35.9c-1.8-3.3-2.4-7.5-2.4-18.5c0-12.6-0.4-15.1-3.8-22.8c-5.2-11.8-4.2-13.5,7.2-13.5
	c11.1,0,14.3-1.4,23.7-10.5c12.6-12.1,13.3-15.2,4.9-25.8c-4.8-6-4.8-6-5.5-23c-0.4-9.3-1.2-18.1-1.9-19.6c-0.7-1.4-3.4-5.6-6.1-9.3
	c-3.7-4.8-5.1-7.9-5.1-11.3c0-5.3,3.2-8.9,59.4-66.3c28.1-28.8,31.2-32.4,32.6-38c1.8-7.2,5.4-11.3,11.3-12.6
	c9.9-2.1,12-4.8,15.3-17.8c0.8-3.2,3.4-8.1,5.8-10.7c6.5-7.4,7.4-10,7.4-20.4c0-5.2,0.8-11.5,1.8-13.9s6-8.3,11.1-13.1
	c14.4-13.4,14.9-18,2.9-28.4c-3.7-3.2-7.6-7.9-8.8-10.3c-1.9-4.1-1.9-4.8,0.3-9.3c4.9-10,5.5-10.2,40.4-9.9
	c34,0.2,33.5,0.4,42.5-8.1c7.2-6.8,11.2-7.2,48.8-6.2c19.8,0.6,31.8,0.4,34.2-0.6c1.9-0.8,5.8-3.4,8.6-6c2.7-2.5,6.3-5,8-5.3
	c1.7-0.4,16.7-0.8,33.5-1c30.6-0.4,30.6-0.4,36.6-6.4c6-6.1,6-6.1,104.4-6.8c71-0.5,99.1-1.1,101.1-2.3c1.5-0.8,3.8-2.9,5.3-4.5
	c5.9-6.7,6.5-6.8,59.4-6.8c34.6,0,50.4-0.5,52.5-1.5c1.6-0.8,5.3-3.9,8.4-6.7c7.1-6.7,11.8-7.3,42.2-6.2c26.9,1,28.8,0.6,36.3-7
	c5-5,5-5,58-5.6c29.1-0.5,53.1-0.8,53.4-1c0.2-0.1,3.1-2.7,6.3-5.8c4.2-4,7.5-5.8,11.6-6.4c3.1-0.5,29-0.8,57.6-0.7
	c54.9,0.2,57.3,0,62.6-6.1c5.8-6.7,7-6.8,52.7-6.8c29.6,0,43.8-0.5,45.8-1.5c1.6-0.8,5.3-3.9,8.4-6.7c7-6.5,13-7.3,43.4-6.1
	c25,1,27.2,0.7,35.1-6.7c6.2-5.7,7-5.8,28.4-6.3c17.4-0.4,17.4-0.4,23.5-6.4c6-6.1,6-6.1,32.7-6.9c14.6-0.5,26.7-0.8,26.9-1
	c0.1-0.1,3.3-3,7-6.3c7.5-6.8,5.5-6.4,34.4-6.1c22.7,0.4,23.5,0.1,32.3-8.1c7-6.5,13-7.3,43.5-6.2c25,1,27.2,0.6,34.9-6.7
	c6.2-5.7,7-5.8,28.3-6.3c17.3-0.4,17.3-0.4,21.6-4.5c8-7.6,10.3-8.7,20.2-8.7c7.4,0,9.9,0.6,11.6,2.4c3.7,4.2,2.6,10.1-3.1,18
	c-2.8,4-5.6,9.3-6.1,11.9c-1,5.8-3.3,10.6-7.8,16.1c-1.9,2.4-4.5,7.7-5.8,12c-1.2,4.3-4.4,11.1-7.1,15c-2.6,4-4.9,7.9-4.9,8.7
	c0,4.5-3.3,12.1-7.3,17c-2.5,3.1-5.5,8.8-6.6,12.7c-1.1,4-3.5,9.2-5.2,11.7c-6.1,8.7-7.4,12.1-8,21.7c-0.9,13.6-1.4,15.1-5.9,20.4
	c-2.3,2.5-5.7,9.2-7.7,14.6c-2,5.4-5.2,11.9-7,14.5c-1.9,2.5-4.3,7.9-5.5,11.9c-1.1,4.1-4.1,10.1-6.7,13.2
	c-2.5,3.2-5.8,9.6-7.3,14.4c-1.6,4.8-4.5,10.8-6.7,13.6c-2.1,2.7-4.8,7.9-5.7,11.4c-2.3,7.7-4,11.3-8.8,17.4c-2,2.5-4.3,7.5-5.2,11
	c-0.8,3.4-3.8,9.8-6.7,13.9c-2.8,4.3-5.2,9-5.3,10.6c-0.1,1.5-0.3,6.5-0.6,11c-0.4,8.8-1.8,12.4-7.4,19.2c-2,2.4-4.6,7.5-5.7,11.4
	c-1.9,6.7-3.3,9.3-9,17.6c-1.2,1.9-3.2,6.7-4.2,10.4c-0.9,3.9-3.5,9.2-5.6,11.9c-6.2,8-7.3,11.1-8.2,23.3
	c-0.8,10.7-1.2,12.3-5.3,17.4c-4.3,5.6-7.7,13.1-7.8,17.5c0,1.2-2.7,6-6.1,10.5c-5.9,8.1-6.1,8.6-7,21.1
	c-0.8,11.8-1.2,13.2-5.3,18.3c-4.3,5.6-7.7,13.1-7.8,17.5c0,1.2-2.4,5.5-5.4,9.4s-6.1,10.2-7.3,13.9c-1,3.7-4.2,10.2-7.1,14.5
	c-2.8,4.3-5.6,10.2-6,13.2c-0.6,3.1-3.1,8.4-6,12.4c-2.8,3.9-6,9.9-7,13.3c-2.3,7.7-5.2,13.6-7.9,15.9c-1.1,1-3.3,5.7-4.8,10.6
	c-1.5,5-4.6,11.5-7.3,14.9c-2.5,3.3-5.5,9-6.6,12.9s-4.2,10.3-7,14.5c-4.6,7-5.2,8.7-5.8,18.9c-0.8,12-1.9,15.2-7.7,22.1
	c-2,2.4-4.5,7.3-5.6,11c-2.4,8-4.1,11.7-8.3,16.7c-1.7,2.1-4,6.8-5,10.3c-2.4,8.1-4,11.4-9.1,17.8c-3.5,4.4-4,6.3-4.9,17.8
	c-0.8,12-1.2,13.3-5.4,18.5c-4.3,5.6-7.7,13.1-7.8,17.5c0,1.2-2.4,5.5-5.4,9.4s-6.1,10.2-7.3,13.9c-1,3.7-4.2,10.2-7.1,14.5
	s-5.6,10.2-6,13.2c-0.6,3.1-3.1,8.3-6.1,12.4c-2.8,3.9-6.1,10.2-7.2,13.9c-1,3.9-3.8,9.5-6.1,12.7c-2.3,3.2-5.2,9.4-6.6,13.8
	c-1.4,4.4-4.9,11.2-7.8,15.1c-5.2,6.9-5.4,7.6-6.3,19.9c-0.8,11.9-1.2,13.2-5.8,19.2c-2.6,3.6-5.8,9.8-7,13.8
	c-1.1,4.1-3.7,9.6-5.7,12.1c-4.5,6-7.4,11.7-8.6,17c-0.6,2.4-2.9,7.2-5.4,10.7c-2.5,3.6-5.5,9.9-6.7,13.9
	c-1.1,4.1-4.1,10.1-6.6,13.3c-2.4,3.2-5.1,8.1-5.9,10.7c-4.2,14.4-5.4,16.3-12.8,21.7c-4,3-6.8,5.5-6.1,5.5s2.6-1,4.3-2.3
	c2.6-1.9,4.3-2,12.5-0.7c5.2,0.8,12,1.8,15.1,2.1c5.5,0.6,5.5,0.6,2.7-1.8c-2.8-2.4-2.8-2.4,3.5-15.7c3.5-7.3,8-15.2,10-17.6
	c2.3-2.6,4.2-7.2,5.2-11.8c1-5.2,3.1-9.3,6.7-13.8c3.5-4.3,5.6-8.7,6.6-13.5c0.9-4.9,3.1-9,6.6-13.5c3.5-4.3,5.7-8.8,6.8-13.8
	c1-4.8,3.1-9,5.8-12.1c6.2-7.2,7.2-9.8,7.2-20.9c0-11.2,0.9-13.9,6.9-20.4c2.5-2.7,4.9-7.5,6.3-13.2c1.5-5.5,4-10.7,6.3-13.5
	c2.4-2.6,5.1-8.4,6.7-13.7c1.8-6.1,4-10.5,6.7-13.1c2.6-2.5,4.9-7,6.7-12.9c1.5-5,4.3-11.3,6.6-14c2.1-2.7,5.1-8.9,6.6-13.8
	c1.6-5.6,4.1-10.4,6.8-13.2c2.7-3,5-7.3,6.6-13.4c1.7-6.1,4-10.6,7.1-14.2c5.4-6.1,5.8-7.5,6.2-22.3c0.4-10.6,0.6-11,5.9-17.3
	c4.1-4.8,5.9-8.3,7-13.7c0.9-4.8,2.9-9.2,5.9-12.7c2.7-3.3,5.5-9,7.1-14.6c1.6-5.6,4-10.4,6-12.4c5.6-5.5,7.1-9.8,7.1-20.8
	c0-11.1,0.8-13.4,7.4-21.4c2.8-3.4,4.9-7.7,5.8-12.6c1-5.2,2.8-8.9,6.1-12.6c2.9-3.3,5.5-8.4,7.1-13.7c1.4-4.8,4.5-11.3,7-14.5
	c2.5-3.4,5.2-9,6.1-13.2c1-4.8,3.2-8.9,6.2-12.4c2.8-3.2,5.5-8.3,7.1-13.7c1.4-4.8,4.5-11.3,7.1-14.5c2.8-3.8,5.1-8.6,6-13.1
	c1-5,2.8-8.8,6-12.4c2.9-3.3,5.5-8.4,7.2-13.9c1.5-5.1,4.4-11,7.1-14.3c2.5-3.1,4.6-5.6,4.6-5.7c0.1-0.1,0.6-6.3,1-13.8
	c0.9-13.5,0.9-13.6,6.3-19.9c4-4.8,5.8-8.3,7-13.7c1-5.1,2.8-8.9,5.8-12.4c6.5-7.4,7.3-9.9,7.3-21.1c0-11.3,0.8-13.7,7.4-21.2
	c2.4-2.7,4.8-6.7,5.2-8.8c1.8-8.6,3.6-12.5,7.3-17.4c2.3-2.7,4.9-8.7,6.1-13c1.5-5.3,4-10,7.5-14c5.3-6.2,5.3-6.2,6-19.9
	c0.8-13.7,0.8-13.7,6.2-20.1c4-4.8,5.9-8.3,7-13.8c1-5.3,2.8-8.9,6.1-12.7c3.2-3.6,5.5-8.1,7.1-14c1.5-5.6,4-10.7,6.9-14
	c2.9-3.4,5.1-8,6.1-12.7c1-5,3.3-9.4,6.8-13.7c3.5-4.3,5.6-8.7,6.6-13.5s3.1-9,6.6-13.5c3.6-4.4,5.6-8.7,6.7-13.6
	c0.9-4.9,2.8-8.8,5.8-12.1c6.6-7.5,7.7-10.6,7.5-20.7c-0.2-10.7,0.9-14.4,6.9-21.4c2.8-3.4,5-7.9,6-12.7c1.1-5.2,3.1-9.2,6.2-12.7
	c2.9-3.3,5.5-8.4,7.2-13.9c1.5-5.1,4.4-11,7.1-14.2c2.9-3.7,5-8,6-13c1-5.3,2.8-9,6.2-12.9c3.2-3.6,5.5-8.1,7.1-14.2
	c1.6-6,4-10.5,7-14c2.7-3.1,5-7.2,5.4-10.3c1.6-9.4,3.5-13.9,6.9-16.3c5-3.3,7-9.6,7-21.8c0-10.7,0-10.7,5.8-17.5
	c4.4-5.1,6.1-8.4,7.4-14.3c1-5.2,2.8-9.2,5.8-12.5c6-7,7.5-10.3,7.5-17.5c0-13.7,1-17.5,6.5-23.9c5.9-7,6.2-8.2,6.8-23
	c0.4-10.6,0.6-11,5.9-17.3c4.1-4.8,5.9-8.3,7.1-13.8c1-5.1,2.8-8.9,5.8-12.4c6.5-7.4,7.3-9.9,7.3-21.1c0-11.5,0.8-13.7,8-21.8
	c5-5.6,5.1-5.8,5.1-16.4c0-12.5,1-16.1,7.1-23.1c2.8-3.4,5-7.9,6-12.7c1-5,3.1-9.2,5.9-12.5c6.5-7.4,7.3-9.9,7.3-21.1
	c0-11.2,0.8-13.5,7.4-21.4c2.8-3.3,4.9-7.7,5.8-12.3c0.9-4.8,2.9-8.8,6.1-12.6c2.8-3.4,5.7-8.9,7.2-14c1.4-4.6,4.4-11.2,7-14.4
	c2.4-3.3,5.2-9,6-12.9c0.9-4.3,3.4-9.2,6.6-13.1c3.3-4,5.6-8.8,6.7-13.3c0.9-4.3,3.6-9.8,6.7-13.8c3.2-4.2,5.6-9.4,6.5-13.6
	c0.9-4.4,3.1-8.8,6.1-12.4c2.8-3.4,5.7-8.9,7.2-14.2c1.5-5.1,4.4-11,7.1-14.2c2.5-3.1,4.6-5.6,4.6-5.7c0.1-0.1,0.6-6.4,1-14
	c0.9-13.5,1-13.9,5.6-18.8c6.8-7.3,7.6-9.8,7.6-21.5c0-11,0.6-12.3,8-22.1c1.9-2.4,4.2-7.7,5.1-11.8c1.1-5.2,3.3-9,7.4-13.8
	c5.8-6.8,6.6-9.2,5.8-19.9c-0.6-8,1.1-13.3,6.6-19.9c3.6-4.4,5.6-8.7,6.7-13.6c1-5.1,2.9-8.9,6.6-13.2c3.6-4.3,5.5-8.1,6.6-13.5
	c1-5.3,2.9-9.2,6.6-13.5c3.6-4.3,5.5-8.1,6.6-13.5c1-5.3,2.9-9.2,6.6-13.4c3.4-4,5.6-8.3,6.7-13.1c0.9-4.2,3.7-10,6.6-13.9
	c2.9-4,5.6-9.6,6.6-13.9c1-4.6,3.2-9,5.9-12c6.5-7.3,7.3-9.9,7.3-21.3c0-11,0.6-12.3,8-22.1c1.9-2.4,4.1-7.6,5.1-11.4
	c1-4.8,3.4-9,7.4-13.9c6-7.2,6.5-8.8,5.9-21.5c-0.3-7.6,1.5-12.6,7.1-18.9c3.1-3.6,4.9-7.3,6-12.7c1-5.3,2.8-9.2,5.8-12.6
	c6.3-7.3,7.3-9.9,7.3-20.2c0-11.3,1.2-15.1,7.2-21.8c3.1-3.4,4.9-7.3,5.9-12.4c1.1-5.6,2.9-9,7.1-13.8c5.4-6.3,5.5-6.7,5.9-17.3
	c0.6-14.6,0.8-15.6,6.7-23c3.5-4.3,5.6-8.7,6.8-13.7c1-5,3.1-9.2,5.9-12.4c6.5-7.4,7.3-9.9,7.3-21.4c0-11,0.6-12.3,8-22.1
	c1.9-2.4,4.1-7.6,5.1-11.4c1-4.8,3.4-9,7.4-13.9c5.8-7,5.8-7,5.8-17.7c0-11.5,1.8-17.8,6.6-22c5.1-4.6,6.7-9.4,6.7-20.2
	c0-11.5,0.8-13.9,7.7-21.3c4.5-4.9,4.8-5.6,5.2-16.2c0.6-14.8,0.9-16.4,6-22.1c6.6-7.5,7.4-10,7.4-21.2c0-11.1,1.5-15.4,7.1-20.8
	c2.1-2,4.4-6.9,6-12.3c1.5-5,4.4-11.3,6.7-14.2c2.3-2.9,5-8.8,6.1-13.1c1.5-5.3,4-10,7.5-14c5.2-6.1,5.4-6.5,5.7-17
	c0.6-14.8,0.8-15.8,6.8-23c3.7-4.4,5.6-8.2,6.7-13.6c0.9-4.8,2.9-9.2,5.4-11.9c3.6-4.2,6.2-9.4,8.5-16.9c0.8-2.9,0.8-3.1-0.9-1.7
	c-1.5,1.2-4.9,1.3-12.7,0.6C6266.8,1229.4,6266,1229.5,6266.7,1231.6 M2886.6,2367.9c-5.4,1.2-8.6,3.2-12.5,7.3
	c-2,2.3-6.8,4.5-12.5,6.3c-12.8,3.9-19.1,10.4-23,23.3c-2.5,8.6-3.6,10.2-11.3,17.3c-10,9-15.2,17.5-15.5,24.7
	c-0.1,2.9-0.1,34.1,0.1,69.5c0.3,77.4-1.7,70.9,22.2,70.9c16.5,0,21.5,1.3,28.9,8c7,6.3,12,7,48.5,6.7c24.7-0.2,34,0.1,36.4,1.4
	c1.8,1,7,5.6,11.4,10.3c6.1,6.4,8.8,10.5,10.7,16.5c1.5,4.3,4.8,11.1,7.3,14.9c2.5,3.8,5.1,8.8,5.6,11.3c1.5,7.2,4.3,11.5,14.6,22.8
	c5.4,5.8,9.7,11.2,9.7,11.9c0,0.7,1.2,4.6,2.7,8.8c2,5.3,5.6,10.6,12.9,18.7c8.5,9.3,10.5,12.6,12.6,19.6
	c2.7,9.4,8.6,16.9,26.3,34.5c9.2,9.2,11.3,11.9,13,18.1c3.2,11.1,7.4,17,22.4,32.4c12.4,12.5,14.3,15.1,17.4,23.4
	c2.8,7.5,5.5,11.7,13.7,20.5c7.5,8.1,10.7,12.7,11.8,16.8c2.4,8.9,4.6,12.6,15.1,24c7.3,8,10.2,12.3,11.7,17.1
	c3.1,10.4,5.2,13.6,16.9,25.2c9.3,9.2,12.1,11.3,18.5,13.2c4.1,1.2,9.4,3.7,11.9,5.5c2.4,1.8,5.7,4.2,7.3,5.5
	c4.5,3.4,11.9,4.6,23.5,3.8c12.2-0.8,18.4,0.7,24.8,6.4c8.3,7.4,7.2,7.3,74,7.4c67.3,0.2,65.9,0,73,7.7c1.8,1.9,5.3,4.1,7.9,4.9
	c2.5,0.8,17.6,1.3,33.2,1.3c28.2,0,28.4,0,32.9,3.3c13.8,10.4,15.1,10.5,65,10c35.8-0.5,35.8-0.5,40.7,3.6c12.1,10,9.5,9.4,49.6,9.6
	c38.9,0.2,38.4,0.1,47.4,7.5c6.6,5.3,16.7,6.8,45.4,6.2c23.8-0.5,23.8-0.5,28.8,3.7c2.7,2.3,6.5,5.2,8.3,6.5
	c4.9,3.9,32.5,5.3,86.3,4.4c50.8-0.8,44.5-1.7,57.4,8c5.5,4.1,15.1,4.8,74.2,4.4c58.8-0.4,58.8-0.4,63.7,3.7
	c9.6,7.9,12.6,9.2,21,9.3c6.2,0.1,9.2-0.7,13.4-3.2c6.1-3.8,80.2-78.5,87.5-88.4c2.7-3.7,6.1-10.1,7.4-14c2-6.3,4.6-9.8,18.9-24.6
	c9.1-9.5,17.3-18.9,18.2-20.9c0.8-2,1.6-7.6,1.7-12.4c0.1-13.1,1.7-16.8,11.2-27c7.6-8.1,8.6-9.8,8.6-14.4c0-4.9-0.8-6.1-8.6-13.5
	c-7.6-7.3-8.6-8.8-8.6-13.3c0-4.6,0.9-6.1,10.4-15.2c12-11.7,13.5-14.2,13.7-22.7c0.3-12.7-1-15.7-13.3-28.2
	c-15.5-15.9-16.2-16.4-27.8-16.4c-5.3,0-11.6-0.8-13.8-1.9c-7.4-3.3-21.5-19.4-25-28.4c-4.1-11-5.7-11.7-25-10.3
	c-15.4,1.1-15.4,1.1-21.1,6.7c-10.8,10.8-19.3,9.6-34.3-5c-15.1-14.6-15.6-15-26.7-15c-11.1,0-15.4-1.4-20.8-6.8
	c-2.3-2.1-5.7-4.5-7.8-5.3c-2.6-1-29.2-1.4-85.4-1.5c-87,0-85.2,0.1-91.1-6.7c-4.2-4.9-9.3-6.8-17.6-6.8c-13.5,0-15.4-0.8-26.1-11.9
	c-8.2-8.7-10.3-11.7-12.6-19c-3.8-11.7-11.8-19.9-22.9-23.3c-7.3-2.4-9.6-4.3-31-25.5c-12.7-12.6-24.8-24-27.1-25.5
	c-6.2-4-10.4-3.2-17.1,3c-3.4,3.2-8.5,6.3-12,7.4c-8.2,2.5-10.8,5.1-12.6,12.4c-1.1,4.6-3.7,8.3-11.6,16.5
	c-11.4,11.9-13.7,12.9-29.7,11.8c-8.3-0.6-10.4-1.2-14.5-4.5c-9.9-8-11.3-8.7-21.3-8.7c-11.3,0-15.1-1.3-21.6-7.4
	c-2.7-2.5-7.5-5.2-10.7-6.1c-8-2.1-11.1-3.6-16.6-8c-2.6-2.1-8.2-4.9-12.2-6.1c-4.2-1.2-9.9-4.2-12.9-6.9c-3.1-2.5-7.9-5.3-11-6.1
	c-7.8-2-11-3.6-16.5-8c-2.6-2.1-8.3-4.9-12.4-6.1c-6.1-1.8-8.8-3.7-14.5-9.6c-8.8-9.3-16.6-14.8-25.3-17.3
	c-5.6-1.7-8.6-3.9-16.9-12.7c-8.5-8.8-10.2-11.4-10.3-15.1c0-2.5,0-15.5,0.1-29c0.1-14.6-0.4-26.8-1.4-30.2
	c-1.1-4.5-4.8-9-17.6-22.5c-8.8-9.2-18-17.6-20.4-18.7c-4.1-1.8-4.8-1.7-11.2,2c-3.8,2.3-9.2,4.6-12,5.6
	c-12.9,4.1-30.1,22.4-34.9,37.1c-2.4,7.4-4.4,10.5-11.7,18.1c-4.8,5-10.3,10-12,11c-5,2.7-37.6,1.9-42.1-1
	c-7.2-4.6-19.7-19.7-21.8-26.1c-2.5-7.7-3.7-8.8-18-16.1c-11.4-5.7-11.4-5.7-18.4-1.7c-4,2.3-9.7,4.9-12.9,5.8
	c-4.3,1.3-8.8,4.6-17.2,12.9c-10,9.6-12.5,11.4-20.2,13.7c-5.7,1.8-10.5,4.3-13.8,7.4c-3.6,3.3-7.2,5.2-12.5,6.3
	c-5.4,1.1-9,3-13.3,6.8c-6.3,5.6-11.7,7.4-17.8,6.1c-6.9-1.5-10.4-5.6-13.3-15.2c-1.7-5.6-4-10.3-6.1-12.4c-6.6-6.2-8.4-12.5-8.4-30
	c0-16.7-0.6-18.5-6.8-26.4c-2-2.5-4.6-7.4-5.7-10.7c-2.7-7.9-5-10.3-12-12.7c-3.3-1.1-8.7-4.1-12-6.7c-3.4-2.5-9.6-5.6-13.7-6.9
	c-4.1-1.2-9.5-4-11.9-6c-2.4-2.1-5.5-4.4-7-5.3C2994,2367.9,2893,2366.3,2886.6,2367.9 M2806.1,2610.3c-5.3,0.8-7.2,5.5-7.2,17.3
	c0,11.1-0.9,13.6-7.7,20.8c-4.5,4.9-4.8,5.6-5.2,16.2c-0.2,6.1-0.7,12.4-0.9,13.9c-0.3,1.5-14.2,16.7-30.8,33.7
	c-16.6,16.9-31.1,32.6-32.2,34.8c-1.4,2.7-2.1,9.8-2.4,22.4c-0.8,25.1-2.6,27.9-19.9,28.9c-10.1,0.6-13.6,2.5-12.2,6.9
	c0.4,1.3,10.3,12.4,21.9,24.6c17.9,18.7,21.4,23.1,23,28.4c3.1,10.6,5.2,13.6,21.5,30.7c12.1,12.6,16.1,17.7,17.3,22.1
	c3.2,10.7,6.9,16.1,22.5,32.7c13.9,14.8,16.1,17.5,18.5,25c3.1,9,8.4,16.1,25.9,33.7c7.7,7.7,10.5,11.5,11.9,16.2
	c3.2,11,6.5,15.7,22.5,32.5c13,13.5,16.2,17.6,17.7,22.8c2.9,10.3,5.1,13.3,21.8,30.7c12.6,13.2,16.2,17.7,17.3,22.3
	c2.7,10.5,6.8,16.3,22.4,32.5c14.2,14.6,15.9,16.9,18.4,24.8c3.1,9.3,9.3,17.7,16.2,21.5c3.5,2,8.8,2.4,41,2.4
	c41,0,35.8-1.1,50,10.6c4.8,4,34.9,5.2,108.4,4.5c70.7-0.7,62.5-1.5,74.8,7.7c5.6,4.2,17.8,4.8,95.5,4.5c77.3-0.4,77.3-0.4,82.1,3.7
	c12.5,10.2,5.2,9.3,83.5,9.5c70.2,0.2,70.2,0.2,75.1,4.4c10.5,9.2,6.8,8.8,83.5,8.9c77,0.1,68.1-1,82.1,10.5
	c4.8,3.9,31.1,5.2,93.1,4.4c58.2-0.7,51.1-1.5,64,8c5.5,4.1,15.9,4.6,80.6,4.4c35.1-0.1,64.6-0.1,65.6-0.1c0.9,0.1,4,2.3,6.7,4.9
	c2.7,2.5,6.7,5.3,8.7,6.1c2,0.8,12.4,1.4,23.1,1.4c29.7,0,29.8-1.3,2.1-28.7c-11.2-11.1-21.5-22-22.7-24.4c-1.5-2.7-2.1-7.3-2-13.5
	c0.2-9.6-1.9-16.8-6.2-21.7c-5.4-6.1-7.2-11.9-7.3-23c0-18.7,5.5-23.6,26.9-23.6c19.4,0,21.3-1.9,15.2-15.1c-2.4-5-3.3-9.5-3.3-14.9
	c0-9.4-1.6-13.9-7-19.7c-6.5-6.9-10.2-8.3-23.1-8.7c-9.5-0.2-12.5-0.8-15.1-3c-14.6-11.9-6.2-10.7-76.5-10.7
	c-56.9,0-63.8-0.2-67.4-2.3c-2.3-1.2-4.9-3.2-5.8-4.4c-4.9-6-5.9-6.1-70.9-6.1c-40,0-63.1-0.6-65.5-1.4c-2-0.8-6.1-3.8-9.3-6.8
	c-6.6-6.1-4.5-5.8-38.6-5.5c-27.9,0.5-32.4-0.5-39.5-7.3c-6.9-6.5-7.7-6.7-45-6.3c-37.5,0.4-41-0.1-46.7-6.5
	c-6.1-7.1-7.3-7.2-54.2-7.3c-43.6-0.1-43.6-0.1-48.6-4.2c-11.3-9.2-9.2-8.8-42-8.8c-31.8,0-34.2-0.5-39.8-6.8
	c-6-6.8-5.6-6.8-71.4-6.8c-56.8,0-62.1-0.2-67-2.4c-2.8-1.3-6.1-3.6-7.2-4.8c-4.3-5.3-9.3-6.5-25.2-6.3c-17.1,0.2-20.6-0.7-27.8-7.3
	c-3.1-2.9-7.9-5.5-12.6-6.8c-7.2-2.1-9-3.6-30.4-25.2c-19.7-19.9-23.1-24-24.8-29.8c-3.5-10.8-5.6-14.3-15.1-24.4
	c-7-7.3-9.6-11.3-11.7-17.4c-3.4-10.1-5.1-12.6-16.1-24.5c-5-5.3-9-10.3-9-11.1s-1.2-4.8-2.7-8.9c-2.4-6.2-5.7-10.6-18.9-24.6
	c-14.8-15.7-16.3-17.7-19.1-26.3c-2.7-8.6-4.2-10.6-19.7-26.9c-9.9-10.4-17.3-19.6-18.4-22.4c-4.5-12.6-6.8-16.3-15.6-25.8
	c-7.4-8-10.2-12-12.1-18.2c-3.4-10-5.2-12.7-15.3-23.6c-6.2-6.7-9-10.8-10.9-16.7c-1.5-4.3-5-11.4-7.9-15.8
	c-2.9-4.4-5.3-9.3-5.3-10.6c0-1.4-1.7-4.4-3.8-6.9c-3.8-4.3-3.8-4.3-39.4-4c-38.1,0.4-39.8,0.1-45.7-6.5c-5.4-6.1-9.3-7.1-29.7-7.2
	C2818.6,2609.8,2808.3,2610,2806.1,2610.3 M3941.4,3640.2c13.5,0.2,35.9,0.2,49.4,0s2.4-0.5-24.7-0.5
	C3938.8,3639.7,3927.7,3640,3941.4,3640.2"/>
<g id="Naawan">
	<g id="Layer_12">
		<path class="st1" d="M6640.9,1177.6c-3.6,3.1-7.8,5.5-9.9,5.6c-1.9,0.1-21.3,0-43.1-0.1c-26.7-0.1-40.8,0.2-43.5,1.3
			c-2.3,0.8-6,3.7-8.7,6.2s-6.5,5.2-8.6,5.7c-2.1,0.7-18.2,0.8-35.7,0.5c-17.4-0.4-34-0.2-36.6,0.2c-2.6,0.6-7.1,2.9-9.7,5.5
			c-2.6,2.4-6.1,5.1-7.7,6c-2,1.1-16.2,1.5-45.9,1.5c-29.6,0-43.8,0.5-45.9,1.5c-1.6,0.8-5.4,3.9-8.5,6.8c-6.1,5.6-5.7,5.6-28.1,5.2
			c-15-0.2-16.9,0.8-20.3,11.8c-1.2,3.9-4.2,9.5-6.7,12.5c-2.9,3.6-5,8-5.9,12.9c-1,5.3-2.9,9.1-6.7,13.5c-5.9,7-6.2,8.1-6.8,23
			c-0.3,10.5-0.6,11.1-5.7,17c-3.6,4.2-6,8.8-7.5,14c-1.1,4.3-4,10.2-6.1,13.1c-2.3,2.9-5.2,9.2-6.7,14.2c-1.6,5.5-4,10.3-6,12.3
			c-5.6,5.5-7.1,9.8-7.1,20.8c0,11.2-0.8,13.6-7.4,21.2c-5.1,5.8-5.5,7.4-6,22.1c-0.4,10.6-0.6,11.3-5.2,16.2
			c-6.9,7.3-7.7,9.8-7.7,21.3c0,10.8-1.6,15.6-6.7,20.2c-4.6,4.3-6.6,10.5-6.6,22c0,10.7,0,10.7-5.8,17.7c-4,4.9-6.3,9-7.4,13.9
			c-0.8,3.8-3.2,8.9-5.1,11.4c-7.6,9.9-8,11.2-8,22.1c0,11.5-0.8,13.9-7.3,21.4c-2.8,3.2-4.9,7.4-5.9,12.4c-1,5.1-3.3,9.5-6.8,13.7
			c-5.8,7.2-6.1,8.2-6.7,23c-0.4,10.6-0.6,11-5.9,17.3c-4.1,4.8-5.9,8.3-7.1,13.8c-1,5.1-2.8,8.9-5.9,12.4
			c-5.9,6.7-7.2,10.6-7.2,21.8c0,10.4-0.9,13-7.3,20.2c-2.9,3.4-4.8,7.3-5.8,12.6c-1,5.5-2.8,9.2-6,12.7c-5.6,6.3-7.4,11.3-7.1,18.9
			c0.6,12.7,0.1,14.4-5.9,21.5c-4,4.9-6.3,9-7.4,13.9c-0.8,3.8-3.2,8.9-5.1,11.4c-7.6,9.9-8,11.2-8,22.1c0,11.4-0.8,13.9-7.3,21.3
			c-2.6,3.1-4.9,7.5-5.9,12c-0.9,4.3-3.7,10-6.6,13.9c-2.9,4-5.6,9.6-6.6,13.9c-1,4.8-3.3,9.2-6.7,13.1c-3.6,4.2-5.4,8.1-6.6,13.4
			c-1,5.3-2.9,9.2-6.6,13.5c-3.6,4.3-5.5,8.1-6.6,13.5c-1,5.3-2.9,9.2-6.6,13.5c-3.6,4.2-5.5,8.1-6.6,13.2c-1,5-3.1,9.2-6.7,13.6
			c-5.3,6.5-7.1,12-6.6,19.9c0.8,10.6,0,13.1-5.8,19.9c-4.1,4.8-6.2,8.7-7.4,13.8c-0.9,4-3.2,9.2-5.1,11.8c-7.6,9.9-8,11.2-8,22.1
			c0,11.8-0.8,14.2-7.6,21.5c-4.5,4.9-4.8,5.5-5.6,18.8c-0.6,7.6-0.9,13.9-1,14c-0.1,0.1-2.3,2.7-4.6,5.7c-2.6,3.3-5.6,9.2-7.1,14.2
			c-1.6,5.3-4.3,10.8-7.2,14.2c-3.1,3.7-5.2,8-6.1,12.4c-0.8,4.2-3.4,9.4-6.5,13.6c-3.1,4.1-5.7,9.6-6.7,13.8
			c-1,4.5-3.4,9.3-6.7,13.3c-3.2,4-5.6,8.8-6.6,13.1c-0.8,3.8-3.6,9.5-6,12.9c-2.4,3.3-5.6,9.8-7,14.4c-1.5,5.1-4.3,10.7-7.2,14
			c-3.2,3.8-5.2,8-6.1,12.6c-0.9,4.5-2.9,8.9-5.8,12.3c-6.6,7.9-7.4,10.2-7.4,21.4c0,11.2-0.8,13.7-7.3,21.1
			c-2.8,3.2-4.9,7.4-5.9,12.5c-1,4.9-3.2,9.4-6,12.7c-5.9,7.1-7.1,10.7-7.1,23.1c0,10.5-0.1,10.8-5.1,16.4c-7.3,8.2-8,10.4-8,21.8
			c0,11.2-0.8,13.7-7.3,21.1c-2.9,3.3-4.8,7.3-5.8,12.4c-1.1,5.6-2.9,9-7.1,13.8c-5.4,6.3-5.5,6.7-5.9,17.3
			c-0.6,14.8-0.8,15.8-6.8,23c-5.4,6.3-6.3,10.1-6.5,23.9c0,7.2-1.5,10.5-7.5,17.5c-2.9,3.4-4.8,7.3-5.8,12.5
			c-1.1,5.8-2.8,9.2-7.4,14.3c-5.8,6.7-5.8,6.7-5.8,17.5c0,12.1-2,18.5-7,21.8c-3.4,2.3-5.3,6.8-6.9,16.3c-0.6,3.1-2.6,7.2-5.4,10.3
			c-3.1,3.4-5.4,8.1-7,14c-1.6,6-4,10.5-7.1,14.2c-3.3,3.8-5.1,7.4-6.2,12.9c-1,5-2.9,9.3-6,13c-2.6,3.2-5.5,9-7.1,14.2
			c-1.6,5.6-4.2,10.6-7.2,13.9c-3.2,3.6-5.1,7.5-6.2,12.7c-1,4.9-3.2,9.4-6,12.7c-5.9,7-7,10.6-6.9,21.4c0.2,10-0.9,13.2-7.5,20.7
			c-2.8,3.3-4.8,7.3-5.8,12.1c-1,5.1-3.1,9.2-6.7,13.6c-3.5,4.3-5.6,8.7-6.6,13.5c-0.9,4.9-3.1,9-6.6,13.5
			c-3.5,4.3-5.7,8.8-6.8,13.7c-1,4.8-3.2,9.2-6.1,12.7c-2.8,3.4-5.4,8.6-6.9,14c-1.6,5.8-4,10.5-7.1,14c-3.3,3.8-5.1,7.4-6.1,12.7
			c-1.1,5.6-2.9,9-7,13.8c-5.5,6.4-5.5,6.4-6.2,20.1c-0.8,13.7-0.8,13.7-6,19.9c-3.6,4.1-6,8.8-7.5,14c-1.1,4.3-4,10.2-6.1,13
			c-3.7,4.9-5.5,8.8-7.3,17.4c-0.4,2.1-2.7,6-5.2,8.8c-6.6,7.5-7.4,10-7.4,21.2c0,11.2-0.8,13.7-7.3,21.1c-2.9,3.3-4.8,7.3-5.8,12.4
			c-1.1,5.6-2.9,9-7,13.7c-5.4,6.3-5.5,6.4-6.3,19.9c-0.6,7.5-0.9,13.7-1,13.8c-0.1,0.1-2.3,2.7-4.6,5.7c-2.7,3.3-5.6,9.2-7.1,14.3
			c-1.6,5.6-4.2,10.6-7.2,13.9c-3.2,3.7-5.1,7.4-6,12.4c-0.9,4.5-3.2,9.3-6,13.1c-2.5,3.2-5.7,9.8-7.1,14.5
			c-1.6,5.5-4.2,10.5-7.1,13.7c-2.9,3.4-5.1,7.6-6.2,12.4c-0.9,4.2-3.6,9.8-6.1,13.2c-2.4,3.3-5.6,9.9-7,14.5
			c-1.6,5.5-4.2,10.5-7.1,13.7c-3.3,3.7-5.1,7.4-6.1,12.6c-0.9,4.9-2.9,9.2-5.8,12.6c-6.6,7.9-7.4,10.2-7.4,21.4
			c0,11.1-1.5,15.4-7.1,20.8c-2.1,2-4.4,6.9-6,12.4c-1.6,5.5-4.4,11.3-7.1,14.6c-2.9,3.7-5,8-5.9,12.7c-1,5.5-2.9,8.9-7,13.7
			c-5.4,6.3-5.5,6.7-5.9,17.3c-0.6,14.6-0.9,16.2-6.2,22.3c-3.2,3.6-5.4,8.1-7.1,14.2c-1.6,6.1-3.8,10.4-6.6,13.4
			c-2.6,2.7-5.1,7.6-6.8,13.2c-1.4,4.9-4.3,11.1-6.6,13.8c-2.1,2.7-5.1,9-6.6,14c-1.7,5.8-4,10.3-6.7,12.9s-4.9,7-6.7,13.1
			c-1.6,5.3-4.3,11.1-6.7,13.7c-2.4,2.7-4.9,8.1-6.3,13.5c-1.6,5.7-3.8,10.5-6.3,13.2c-5.9,6.4-6.9,9.2-6.9,20.4s-0.8,13.7-7.2,20.9
			c-2.6,3.1-4.8,7.4-5.8,12.1c-1.1,5.1-3.3,9.5-6.8,13.8c-3.5,4.3-5.6,8.7-6.6,13.5c-0.9,4.9-3.1,9-6.6,13.5
			c-3.6,4.4-5.6,8.7-6.7,13.8c-0.9,4.5-2.9,9-5.2,11.8c-2,2.4-6.5,10.3-10,17.6c-6.3,13.3-6.3,13.3-3.6,15.6
			c4,3.2,37.3,4.3,122.9,3.9c58.3-0.4,69.9,0,72.1,1.5c1.4,1.1,4.8,3.7,7.4,5.7c4,3.3,6.6,4.1,16.3,5.1c6.3,0.7,67.5,1.1,135.9,1.1
			s125.4,0,126.7,0c1.2,0,5,2.5,8.3,5.5c3.3,2.9,8.3,6,11,6.8c7.4,2.1,79.5,3.3,102.2,1.7c21.4-1.5,25.2-1,31.6,4.5
			c9.3,8,8.6,8,68.1,8.2c30,0.1,55.3,0.2,56.2,0.4c0.8,0.1,4.3,2.5,7.8,5.6c9.6,8.1,12.7,8.4,77.4,8.1c31.2-0.1,57.9-0.2,59-0.1
			c1.2,0.1,4.3,2,6.8,4.2c10,8.9,8.3,8.8,77,8.8c62,0.1,62.3,0.1,65.9,3c13.3,10.8,11.2,10.3,40.4,10.3c31.1,0,31.8-0.2,36.1-12.3
			c1.6-4.2,4.6-10,6.9-12.9c2.3-2.9,5.2-8.9,6.5-13.6c2.1-7.2,3.8-9.8,12.1-18.3c13.6-13.8,21.6-15.1,32.6-5.1
			c7.5,6.9,10.4,7.7,27.2,7.6c16.4-0.1,18.8,0.5,27.2,7.1c5.3,4.1,7,4.6,17.4,5.6c12.1,1,16.6,2.6,21,7.5c5.1,5.7,8.8,6.8,25.5,6.8
			c16.9,0,21.3,1,26.5,6.1c6,5.8,11.9,7.4,28.3,7.4c16.1,0,19.9,1.1,24.9,6.8c4.1,4.6,10.3,6.7,20.7,6.7c10,0,9.9-0.1,22.2,8.8
			c5.5,3.9,6.3,4.1,23.6,4.8c18.8,0.7,18.3,0.6,28.3,8.7c4.3,3.6,6.2,4.1,16.9,4.8c12.2,0.8,16.1,2.1,19.4,6.2
			c4.2,5.2,11.8,7.2,27.3,7.2c15.9,0,21.4,1.4,26.1,6.8c5.4,6.2,9.5,7.3,25.9,7.1c17.1-0.4,19.4,0.4,27.9,6.9
			c5.3,4.1,7,4.6,17.3,5.5c11.9,0.8,14.2,1.8,23.9,9.8c4.9,4,5.3,4.1,23.5,4.8c10.2,0.4,19.5,1.2,20.5,1.9c1,0.7,4.1,3,6.9,5.2
			c4.2,3.4,6.6,4.1,16.9,5.2c12.8,1.3,17.3,3,21.6,7.9c4.1,4.6,10.3,6.7,20.7,6.7c10,0,10,0,21.5,8.4c4,2.9,7.2,3.9,15.1,4.4
			c14.1,1.1,15.3,1.5,20.8,6.7c6.7,6.1,10.4,7.4,21.5,7.4c10,0,11.7,0.7,20.3,7.4c5,3.9,7.1,4.5,16,5.3c14.5,1.2,15.6,1.5,21.3,6.8
			c6.7,6.1,10.4,7.4,21.5,7.4c10,0,11.7,0.7,20.2,7.3c5,3.9,6.9,4.4,17,5.3c12.2,1,16.6,2.6,21.6,8.2c4,4.3,10.2,6.2,21,6.2
			c8.8,0,11.4,0.8,18.9,7.1c4.2,3.4,6.6,4.2,16.9,5.2c12.8,1.3,17.3,3,21.6,7.9c4,4.6,10.3,6.7,20.4,6.7c10.1,0,11.8,0.7,20.5,7.4
			c5,3.9,7.1,4.5,16,5.3c14.5,1.2,15.6,1.5,21.3,6.8c6.7,6.1,10.4,7.4,21.5,7.4c10,0,11.7,0.7,20.2,7.3c5,3.9,6.9,4.4,17,5.3
			c12,1,16.8,2.6,21.2,7.6c4,4.6,10.3,6.7,20.4,6.7c10.1,0,11.8,0.7,20.4,7.3c5,3.9,6.9,4.4,17,5.3c12.2,1,16.6,2.6,21.6,8.2
			c4,4.3,10.2,6.2,21.2,6.2c6.5,0,9.5,0.7,12.5,2.7c6.8,4.8,9.6,5.5,14.2,3.4c6.1-2.6,8.3-5.7,11.3-16.4c1.6-5.5,4.4-11.7,6.9-14.5
			c2.3-2.7,5.2-8.8,6.5-13.1c1.2-4.4,4.3-10.5,6.7-13.5c4.2-5.5,7.7-13.3,7.8-17.6c0-1.2,2.3-5,4.9-8.6c2.6-3.6,5.8-9.9,7.1-14.2
			c1.2-4.3,4.4-10.6,7-14c2.5-3.4,5.7-9.6,6.9-13.8c1.1-4.1,3.7-9.5,5.5-12c1.8-2.4,4.8-8.6,6.6-13.4c1.8-4.9,5-11.3,7.2-14.2
			c2.3-2.9,5.2-8.8,6.6-13.4c1.4-4.5,4.3-10.5,6.6-13.4c2.3-2.9,5.1-8.8,6.3-13.1c1.2-4.3,4.4-10.6,7-14c2.6-3.4,5.7-9.8,6.9-14
			c1.1-4.2,4-10.1,6.1-12.9c2.1-2.7,5-8.7,6.3-13.1c1.2-4.3,4.4-10.7,7.1-14.3c2.6-3.6,5.7-9.8,6.9-13.9c1.1-4.2,4-9.9,6.1-12.7
			c2.3-2.7,5-8.8,6.3-13.1c1.4-4.5,4.4-10.6,7.3-14.2c4.8-5.8,5-6.8,5.9-19c0.8-11.8,1.4-13.4,5.7-19.9c2.6-3.9,5.8-10.4,7.2-14.5
			c1.4-4.1,4.3-10,6.7-13s5.4-8.9,6.9-13.3c1.5-4.3,4.4-10.4,6.7-13.6c2.3-3.2,5.1-9.3,6.3-13.5c1.2-4.2,4.4-10.6,7.1-14.2
			c2.6-3.6,5.5-9.2,6.3-12.5c0.8-3.3,3.6-9.2,6.1-13c2.5-3.8,5.6-10.3,6.9-14.6c1.2-4.3,4.1-10.1,6.3-12.9c2.3-2.9,5.3-8.8,6.8-13.3
			c1.5-4.4,4.5-10.7,6.8-13.8c2.3-3.2,5.1-9.3,6.3-13.5c1.2-4.2,4.4-10.6,7.1-14.2c2.6-3.6,5.5-9.2,6.3-12.5c0.8-3.3,3.5-9,5.9-12.7
			c2.4-3.7,5.5-10.1,6.8-14.4c1.2-4.2,4.4-10.5,7-13.9s5.3-8.9,6.1-12.3c0.8-3.3,3.7-9.3,6.3-13.2c2.6-3.9,5.8-10.6,7.1-14.8
			c1.2-4.1,4.3-10.4,7-13.8c2.5-3.4,5.6-9.4,6.7-13.1c1-3.8,4.2-10.2,7-14.2c4.5-6.8,5.1-8.4,5.8-19.2c0.8-12.6,0.9-12.7,7.4-21.5
			c2.4-3.1,5.2-8.9,6.2-12.9c1.1-4,4-9.9,6.2-13.1c2.4-3.2,5.2-9.3,6.5-13.4c1.2-4.1,4.3-10.4,7-13.8c2.6-3.4,5.6-9.5,6.8-13.5
			s4-9.9,6.2-13.1c2.4-3.2,5.2-9.3,6.5-13.4c1.3-4,4.3-10.4,7-13.8c2.6-3.4,5.6-9.5,6.8-13.5c1.1-4,4-9.9,6.2-13.1
			c2.4-3.2,5.2-9.3,6.5-13.4c1.2-4.1,4.3-10.4,7-13.8c2.6-3.4,5.6-9.5,6.8-13.5c1.1-4,4-9.9,6.2-13.1c2.4-3.2,5.2-9.3,6.5-13.4
			c1.2-4.1,4.3-10.4,7-13.8c2.6-3.4,5.6-9.5,6.8-13.5c1.1-4,4-9.9,6.2-13.1s5.2-9.3,6.5-13.4c1.2-4.1,4.3-10.4,7-13.8
			c2.6-3.4,5.6-9.6,6.8-13.6s4.1-10.4,6.7-14.3c2.5-3.9,4.6-7.7,4.6-8.6s1.8-5.3,4-10c2.1-4.6,3.6-9.4,3.2-10.5
			c-0.5-1.1-4.1-3.9-8.2-6.1c-4.1-2.3-9.1-5.3-11.1-7c-3.4-2.7-5.6-3.1-22.4-3.8c-19-0.7-22-1.4-26.5-6.8c-4.6-5.3-10.1-6.7-27-6.7
			c-16.8,0-20.6-1-25.7-6.8c-5.1-5.7-8.8-6.8-25.7-6.8c-17,0-22.3-1.3-27.1-6.7c-5.4-6.2-8.4-6.8-33.2-6.8
			c-25.5,0-24.4,0.4-35.5-8.8c-4.9-4-5.3-4.1-23.6-4.8c-19.7-0.7-18.9-0.5-29.1-8.8c-4.9-4-5.3-4.1-23.6-4.8
			c-13.6-0.5-19.4-1.2-21.4-2.6c-1.5-1.1-5.2-4-8.4-6.4c-5.7-4.4-5.7-4.4-22.2-4.4c-18,0-19.9-0.6-29.9-8.8c-4.9-4-5.3-4.1-23.6-4.8
			c-19.7-0.7-18.8-0.5-29.1-8.8c-4.9-4-5.3-4.1-23.6-4.8c-19.7-0.7-18.9-0.5-29.1-8.8c-5-4-5-4-36.8-4.8
			c-25.4-0.6-32.4-1.1-34.6-2.6c-1.5-1.1-5-3.9-7.7-6.1c-5-4-5-4-50-4.8c-37.2-0.6-45.4-1-47.7-2.6c-1.5-1.1-5-3.9-7.7-6.1
			c-5-4-5-4-43.3-4.8c-39.7-0.7-41-0.8-46.2-6.8c-4.4-5-9.2-6.8-18.9-6.8c-10.8,0-13.7-1-21.8-7.2c-3.3-2.5-9.2-5.6-13-6.8
			c-3.8-1.1-9.9-4.4-13.5-7.2c-6.3-5.1-6.3-5.1-25-5.7c-19.7-0.7-18.9-0.5-29.1-8.8c-5-4-5-4-30.1-4.8c-25.8-0.7-28.1-1.2-33-6.8
			c-5.4-6.1-8.5-6.8-32.6-6.8c-24.8,0-25.7-0.2-36-8.8c-5-4-5-4-28-4.4c-12.7-0.2-24.6-0.7-26.2-1c-1.7-0.4-5.2-2.6-7.9-5.2
			c-7.7-7.1-9.4-7.5-26.9-7.5c-17.6,0-19.6-0.7-29.5-8.8c-4.3-3.6-6.1-4.1-14.9-4.4c-13.6-0.6-14.7-0.8-21.8-6.9
			c-3.8-3.2-9.1-6-13.9-7.4c-4.3-1.2-9.7-4-12.2-6.2c-2.4-2.3-6-4.6-8-5.5c-2-0.8-13.6-1.4-25.9-1.4c-23.7,0-26.7-0.7-32.2-6.8
			c-5.7-6.4-7.5-6.8-45.7-6.8c-39.4,0-38.4,0.2-49.3-8.8c-5-4-5-4-36.7-4.8c-25.4-0.6-32.4-1.1-34.4-2.6c-1.5-1.1-5.3-4-8.4-6.4
			c-5.7-4.4-5.7-4.4-28.9-4.4c-25.3,0-26.2-0.2-36.5-8.8c-4.9-4-5.3-4.1-23.5-4.8c-18.8-0.7-21.8-1.4-26.4-6.8
			c-5.4-6.1-8.5-6.8-32.6-6.8c-24.8,0-25.7-0.2-36-8.8c-4.3-3.6-6.1-4.1-15-4.4c-13.6-0.6-14.7-0.8-21.8-6.9
			c-3.8-3.2-9.1-6-13.8-7.4c-4.2-1.2-9.4-3.7-11.4-5.5c-5-4.2-8.6-6.1-16.4-8.6c-3.6-1.1-8.5-3.7-10.8-5.7
			c-7.6-6.8-8.3-6.9-39.4-6.9c-32.2,0-32.1,0-42.7-8.8c-5-4-5-4-36.6-4.8c-32.7-0.7-34.6-1-39.7-6.8c-5.1-5.7-8.8-6.8-25.9-6.8
			c-17.6,0-19.6-0.7-29.5-8.8c-4.9-4-5.3-4.1-23.5-4.8c-18.8-0.7-21.8-1.4-26.4-6.8c-5.1-5.7-8.8-6.8-25.5-6.8
			c-17.7,0-19.8-0.6-28.3-7.2c-3.3-2.5-7.9-5.1-10.4-5.6c-6-1.3-11.4-4.3-16.9-9.3c-3.4-3.1-7-4.8-12.8-6
			c-12.9-2.5-15.1-8.3-7.9-19.7c2.4-3.7,5.5-10.1,7.1-14.3c1.6-4.2,4.8-10,7-12.9c2.3-2.9,4.8-8.1,5.6-11.7
			c0.8-3.6,3.7-9.6,6.2-13.4c2.5-3.8,5.6-10.3,6.9-14.4c1.2-4.1,4.3-10.4,7-13.8c2.6-3.4,5.6-9.5,6.8-13.4c1.1-3.9,3.8-9.5,6-12.5
			c2.3-3,5.2-9.3,6.7-14.3c1.5-4.9,4-10.1,5.4-11.4c3.4-3.1,7.1-10.4,8.4-16.4c0.6-2.4,3.1-7.5,5.6-11.4c2.5-3.9,5.7-10.4,7-14.8
			c1.2-4.2,4.1-10.1,6.3-12.9c2.3-2.9,5.3-8.8,6.8-13.3c1.5-4.4,4.5-10.7,6.8-13.8c2.3-3.2,5.2-9.4,6.5-13.7
			c1.4-4.5,4.3-10.3,7-13.5c2.7-3.3,5.3-8.2,6.2-12.1c0.8-3.7,3.7-9.8,6.2-13.6c2.5-3.8,5.7-10.4,7-14.6c1.2-4.1,4.1-10.1,6.3-12.9
			c2.3-2.9,5.3-8.8,6.8-13.3c1.5-4.4,4.5-10.7,6.8-13.8c2.3-3.1,5.2-9.4,6.5-13.7c1.4-4.5,4.3-10.3,7-13.5c2.7-3.3,5.3-8.2,6.2-12.1
			c0.8-3.7,3.7-9.8,6.2-13.6c2.5-3.8,5.7-10.3,6.9-14.5c1.2-4.1,4.3-10.3,6.9-13.7c2.5-3.4,5.3-8.8,6.1-12.1
			c0.8-3.3,3.7-9.3,6.3-13.2c2.6-4,5.9-10.7,7.2-15c1.2-4.4,4.3-10.2,7-13.3c2.7-3.3,5.3-8.2,6.2-12.1c0.8-3.7,3.7-9.8,6.2-13.6
			c2.5-3.8,5.7-10.5,7.1-15c1.2-4.4,3.8-9.6,5.6-11.5c4-4.2,6.9-10.1,8-15.9c0.6-2.4,3.1-7.5,5.6-11.4c2.5-3.9,5.8-10.6,7.1-15
			c1.2-4.4,3.8-9.6,5.6-11.5c4-4.2,6.9-10.1,8-15.9c0.6-2.4,3.1-7.5,5.6-11.4c2.5-3.9,5.7-10.4,7-14.8c1.2-4.2,4.1-10.1,6.3-12.9
			c2.3-2.9,5.3-8.8,6.8-13.2c1.5-4.4,4.8-11.1,7.2-14.9c2.4-3.8,5.2-9.5,6-12.9c0.8-3.3,3.8-9,6.6-12.9c2.7-3.7,5.9-10.1,7.1-14.2
			c1.1-4.1,4.1-10.3,6.6-13.8c2.4-3.6,5.2-9.3,6-12.9c0.8-3.6,4-9.6,7-13.5c5.2-6.9,5.4-7.6,6.3-19.7c0.9-13.4,0.9-13.3,7.3-21.8
			c2.4-3.1,4.9-8.8,5.8-12.5c0.9-4.3,3.5-9.2,6.7-13.1c3.1-3.8,5.7-8.8,6.6-12.9c0.8-3.7,3.6-9.8,6.1-13.6
			c2.5-3.9,5.6-10.3,6.9-14.4c1.2-4.1,4.4-10.3,7-13.7c2.6-3.6,5.7-9.5,6.8-13.5c1.1-3.9,4-10,6.6-13.5c2.4-3.6,5.2-9.3,6-12.9
			c0.8-3.6,3.8-9.4,6.6-13.1c2.7-3.7,5.9-10.1,7.1-14.2c1.1-4.1,4-9.9,6-12.9c2.3-3,5.2-9.3,6.7-14.3c1.5-4.9,4-10.1,5.4-11.4
			c3.4-3.1,6.1-8.3,8.5-16.3c0.9-3.3,3.8-9.2,6.5-13c2.5-3.9,5.3-9.8,6.1-13.1s3.8-9,6.6-12.9c2.7-3.7,5.9-10.1,7.1-14.2
			c1.1-4.1,4-9.9,6-12.9c2.3-3,5.2-9.3,6.7-14.3c1.5-4.9,4-10.1,5.4-11.4c3.4-3.1,7.1-10.4,8.4-16.4c0.6-2.4,3.1-7.5,5.6-11.4
			c2.5-3.9,5.7-10.5,7-14.8c1.2-4.4,4.3-10.2,7-13.3c2.7-3.3,5.3-8.2,6.1-12.1c0.8-3.7,4-10.3,6.9-14.9c5-7.6,5.4-9,6.2-20
			c0.6-8,1.6-13,3.1-15.1c1.2-1.8,3.7-5.2,5.4-7.6c1.8-2.4,4.1-7.6,5.2-11.4c1-3.9,4-9.9,6.5-13.4c2.4-3.6,5.2-9.3,6-12.9
			c0.8-3.6,3.8-9.4,6.6-13.1c2.7-3.7,5.9-10.1,7.1-14.2c1.1-4.1,4.1-10.3,6.7-13.8c2.5-3.6,5.3-9.5,6.1-13.2c0.9-3.9,3.5-8.9,6-12.1
			c2.5-3.1,5.5-9,7-14c1.4-4.8,4.3-11,6.6-13.8c2.3-2.9,4.8-8.2,5.6-11.9c1.8-7.5,4-11.8,9.4-17.1c4-4,4.6-8.7,2.4-13.1
			c-1-2-2.7-2.6-7-2.6C6648.4,1172.1,6646.1,1173.1,6640.9,1177.6"/>
	</g>
	<g id="Layer_11">
		<path class="st1" d="M6225.8,1223.4c-13.7,0.5-25.2,1-25.4,1.1s-3.1,2.7-6.5,6c-6,5.7-6,5.7-91.8,6.4c-47.1,0.5-85.9,0.8-86.1,1
			c-5.9,6.1-14.4,12.4-16.5,12.5c-1.6,0-39.8,0.2-84.7,0.4c-81.8,0.2-81.8,0.2-86.8,4.3c-11,8.9-6.7,8.3-61.3,8.4
			c-36.7,0.1-50.6,0.6-53,1.8c-1.7,0.8-5.6,4-8.7,6.9c-5.6,5.2-5.6,5.2-42.4,5.2c-22.8,0-38.3,0.6-40.6,1.4c-2,0.8-5.9,3.7-8.7,6.4
			c-5,5-5,5-44.2,5.6c-39.2,0.7-39.2,0.7-46.9,7.1c-4.2,3.6-8.8,6.4-10.4,6.5c-1.5,0.1-18.8,0.2-38.5,0.4
			c-35.7,0.2-35.7,0.2-40.6,4.2c-11.6,9.3-7.7,8.8-55.2,8.8c-29.8,0-44.1,0.5-46.1,1.5c-1.6,0.8-5.4,3.9-8.5,6.8
			c-5.6,5.2-5.6,5.2-43.2,5.2c-40,0-41.7,0.2-47.4,6.8c-5.7,6.5-7.5,6.8-46.1,6.8c-24.7,0-37.4,0.5-39.2,1.5
			c-1.6,0.8-5.4,3.9-8.5,6.8c-3.4,3.2-7,5.2-9.2,5.3c-2,0.1-18.8,0-37.4-0.1c-36-0.4-38.1,0-44,6.8c-5.7,6.5-7.5,6.8-46.1,6.8
			c-24.7,0-37.4,0.5-39.2,1.5c-1.6,0.8-5.4,3.9-8.5,6.8c-5.6,5.2-5.6,5.2-49.8,5.2c-30,0-45.2,0.5-47.1,1.5
			c-1.6,0.8-5.1,3.7-7.8,6.4c-5,4.9-5,4.9-64.5,5.6c-32.7,0.5-59.7,0.8-59.8,1c-6.1,6.3-14.3,12.4-16.5,12.5
			c-1.6,0.1-27.9,0.2-58.3,0.4c-55.4,0.2-55.4,0.2-60.4,4.2c-2.7,2.3-6.2,5-7.7,6.1c-2.4,1.7-11.3,2-59.6,2.3
			c-62.2,0.2-59.1-0.2-68.8,8.8c-5.6,5.2-5.6,5.2-56.4,5.2c-54.2,0-54.7,0-60.6,6.8s-5.9,6.8-65.9,6.8c-39.5,0-57,0.5-59,1.5
			c-1.6,0.8-5.4,3.9-8.5,6.8c-3.5,3.3-6.9,5.2-9.2,5.3c-2,0.1-27.8,0-57.2-0.1c-57.4-0.2-57.6-0.2-63.7,6.8
			c-5.1,5.7-8.8,6.8-26.3,6.8c-25,0-23.1-4.9-23.1,56.9c0.1,29-0.4,51.6-1.1,53.6c-0.8,1.9-2.8,4.9-4.9,6.8
			c-7.3,6.9-7.3,6.7-7.3,59.9c0,34.4,0.4,50.2,1.5,52.2c0.8,1.7,3.5,5.2,5.9,8c2.4,2.7,4.8,6.4,5.2,8.1c0.4,1.7,0.6,17.7,0.3,35.7
			c-0.4,32.6-0.4,32.6-5.2,37.6c-2.6,2.7-5.4,6.4-6.2,8.1c-1,2.1-1.5,40.2-1.5,134.5s-0.4,132.3-1.5,134.5c-0.8,1.7-3.6,5.2-6.2,8.1
			c-4.8,5.1-4.8,5.1-5.4,86.5c-0.7,81.4-0.7,81.4-5.4,86.5c-8.6,9.2-8.3,5.8-8.5,75.8c-0.1,35.2-0.3,64.6-0.4,65.7
			c-0.1,1-2.1,4-4.5,6.8c-2.4,2.7-5.1,6.4-6,8.1c-1.1,2.4-1.5,28.9-1.5,105.1c0.1,56.2,0.1,103.7,0,105.8c0,2.4-1.9,5.7-5.2,9.4
			c-7.6,8.6-8,10.1-8,27.2c0,14.5,0.2,15.8,3.1,18.7c4,4.1,13.4,5.1,44.6,4.9c36.7-0.4,33.8-0.8,43.5,7.1c4,3.3,6.3,4.1,13.8,4.5
			c17,1.1,17.3,1.2,28.7,12.5c5.8,5.7,11.9,11.2,13.5,11.9c5.5,2.9,11.4,1.9,17.1-3.2c7.1-6.2,10.7-7.4,21.3-7.4
			c8.2,0,9.4-0.5,16.6-5.5c4.2-3,9.2-5.5,10.9-5.5c4.9,0,9.3,5.5,10.4,12.6c0.6,3.4,2.4,8.2,4,10.6s4,5.6,5.2,7.3
			c1.1,1.7,3.2,5.8,4.3,9.4c2.7,7.9,8,11.2,18.2,11.2c8.6,0,12.1,1.4,18.5,7.2c3.2,2.9,7.9,5.6,12.9,7c10.1,3,13,5.7,15.6,15.1
			c1.1,4.2,4.2,10.3,6.8,13.5c2.5,3.2,5.2,8.2,5.9,11.1s2.8,6.9,4.5,9c3.2,3.9,3.4,3.9,20.7,4.6c21.9,0.8,27.8-0.2,35.9-7.1
			c3.5-3,7.8-5.5,9.9-5.6c1.9-0.1,17.4-0.1,34.4,0c31.3,0.2,38.5-0.6,43.8-4.5c12.9-9.6,8.7-8.8,41.1-8.8c16.1,0,30.8-0.6,32.7-1.3
			c1.8-0.7,5.3-3.1,7.7-5.2c8.6-7.6,3.6-7.3,103-7.2c53.1,0.1,94.6-0.5,97.5-1.1c2.8-0.7,6.7-2.5,8.6-4.1c9.7-8,5.7-7.4,60.7-8.2
			c50.9-0.7,50.9-0.7,56.6-4.8c14.1-10.1,11.3-9.4,39-8.9c28.1,0.5,35.9-0.7,42.8-6.3c8.6-7,8-6.9,44.3-6.1
			c18.7,0.5,41.6,0.2,50.6-0.5c15.6-1.1,17-1.4,21.5-5.2c12.1-9.9,7.2-9.2,65.8-8.8c52.6,0.4,60-0.2,65.7-4.4
			c13-9.8,7.4-8.8,52.9-8.8c24.6,0,42.9-0.6,45.9-1.4c2.7-0.8,6.9-3.1,9.2-5.2c8.2-7.2,8.8-7.3,40.6-7.4c31.1-0.1,34.6-0.7,39.5-6.9
			c4.1-5,9-6.2,26.9-6.5c17.2-0.2,17.6-0.4,22.4-4.3c11.6-9.4,11.7-9.4,31.1-9c21.5,0.5,30.6-1.1,36.8-6.2c8.2-6.7,9.3-7,31.2-7
			c23.1,0,28.8-1.1,35-6.7c8-7.2,8.8-7.3,37.4-7c29.3,0.4,35-0.6,41.6-6.4c7.6-6.8,9.7-7.3,28-7.4c17.1-0.1,17.3-0.1,22.2-4.2
			c12-9.8,11-9.3,25.4-10.1c13.6-0.8,13.6-0.8,26.2-14.2c11.4-12.1,12.8-14.3,15.2-22.5c1.5-5,4.3-11.1,6.3-13.5
			c5.7-6.7,6.7-9.5,6.8-18.7c0.1-10.4,2.1-16.5,7.8-23.8c4-5.1,4.4-6.7,5.3-17.4c0.9-12.5,1.7-14.9,8.7-24.2c2.4-3.3,4.5-7,4.5-8.2
			c0.1-4.4,3.5-12,7.8-17.5c4-5.2,4.4-6.5,5.4-18.3c0.8-11.3,1.4-13.4,4.8-17.7c7.5-9.6,7.7-10.3,8.5-22.8c0.8-11.8,1-12.7,6.2-20
			c2.9-4.2,6.3-11,7.5-15c1.1-4,3.7-9.2,5.8-11.7c5.8-6.9,7-10.1,7.7-21.7c0.8-11,1.7-13.8,7.6-22.1c1.8-2.4,4.1-7.7,5.2-11.7
			c1.1-4,4.1-9.8,6.7-12.7c2.5-3,5.2-8.2,5.9-11.2c2-8,3.5-11.2,7.7-16.8c2.1-2.7,4.8-8.4,5.9-12.5c1.1-4.3,4.1-10.1,6.7-13.2
			c2.5-3.1,5.2-8.2,5.9-11.2c1.6-6.7,4.1-12,8.6-18.2c1.8-2.4,4.1-7.6,5.2-11.4c1-3.9,4.3-10.2,7.2-14c2.9-4.1,5.6-9.3,6.1-12.4
			c0.6-3,2.4-7.4,4-9.8c1.7-2.4,4.1-5.8,5.4-7.5c1.5-2.1,2.5-7.1,3.1-14.9c0.8-11.5,3.1-18.2,7.2-21.7c4-3.4,6.2-9.9,6.9-20.7
			c0.8-11,1.7-13.8,7.6-22.1c1.8-2.4,4.1-7.7,5.3-11.8c1.1-4,3.7-9.3,5.8-11.8c5.7-6.8,6.8-9.5,6.8-19.2c0-9.9,1.7-15.1,7.6-23.4
			c2.3-3.1,4.4-7.6,4.9-10c1.1-5.6,4-11.2,8.6-17c2-2.5,4.6-8.2,5.8-12.4c1.1-4.2,4-9.9,6-12.6c2.1-2.7,4.8-7.9,5.7-11.4
			c2.3-7.7,4-11.3,8.8-17.4c2-2.5,4.3-7.5,5.2-11c0.8-3.4,3.8-9.6,6.6-13.8c2.7-4.2,6-11,7.2-15c1.1-4,3.8-9.3,5.8-11.8
			c5.8-6.9,7-10.1,7.7-21.7c0.8-11,1.7-13.8,7.6-22.1c1.8-2.4,4.1-7.7,5.3-11.8c1.1-4,3.7-9.3,5.8-11.8c5.6-6.7,6.8-9.5,6.8-18.1
			c0-10.3,1.8-16.5,6.6-22.6c2.1-2.7,5.1-8.8,6.7-13.6c1.6-4.8,4.9-11.2,7.3-14.2c5.1-6.2,5.4-7.3,6.3-21.1
			c0.7-10.1,1.8-13.4,6.9-19.6c1.6-2,4.2-7.6,5.8-12.5c1.6-4.9,4.9-11.3,7.4-14.3c5.2-6.3,5.5-7.4,6.2-21.8
			c0.6-9.4,0.9-11.1,4.9-15.9c2.4-3,6-10.1,8-15.6s5.2-11.8,6.9-13.6c5.2-5.6,6.3-9.3,7.1-20.8c0.8-11,1.7-13.8,7.6-22.1
			c1.8-2.4,4.1-7.7,5.3-11.8c1.1-4,3.7-9.3,5.8-11.8c5.7-6.8,6.8-9.5,6.8-19.2c0-10.1,2-15.8,8-23.6c3.8-4.9,4.3-6.5,5.1-17.1
			c0.8-11.7,3.1-18.3,7.2-21.8c4.1-3.4,6.1-9.8,6.6-20.1c0.4-10.1,2.7-17.5,6-19.6c3.2-2,6.5-12.1,6.5-20.5c0-9.2,2-14.3,8-21.5
			c3.3-3.8,6.5-11.8,6.5-15.9c0-0.8,2.4-4.8,5.1-8.8c2.7-4,6-10.7,7.2-14.9c1.2-4.4,4.2-10.2,7.3-13.9c5.4-6.7,6.7-11.2,6.8-23.3
			c0-7.5,1.1-10.7,6-16.7c2.8-3.6,4.6-8.1,6.3-16.2c0.4-2,3.1-6.4,5.9-9.8c6.1-7.3,7.2-10.1,5.4-14.9c-1.4-3.8-8.5-7.7-12.8-7.3
			C6252,1222.3,6239.5,1222.9,6225.8,1223.4"/>
	</g>
	<g id="Layer_10">
		<path class="st1" d="M3962.2,1480.6c-1.8,0.7-5.7,3.7-8.8,6.7c-5.7,5.3-5.7,5.3-50,5.3c-47,0-48.1,0.1-53.9,6.8
			c-5.9,6.7-6.5,6.8-59.4,6.8c-34.6,0-50.4,0.5-52.5,1.5c-1.6,0.8-5.4,3.9-8.5,6.8c-3.1,2.9-6.9,5.3-8.6,5.5
			c-1.7,0.1-21.1,0-43.2-0.1c-43.2-0.4-46.2,0-52,6.7c-5.8,6.7-7,6.8-52.7,6.8c-29.6,0-43.8,0.5-45.8,1.5c-1.6,0.8-5.4,3.9-8.5,6.8
			c-5.6,5.2-5.6,5.2-43.3,5.2c-25.2,0-38.6,0.6-40.6,1.5c-1.6,0.8-5.1,3.7-7.8,6.3c-4.8,4.6-5.3,4.9-18,5.6
			c-12.8,0.8-13.1,0.8-20.5,6.5c-4.1,3.2-8,7.3-8.8,9.3c-0.8,2.1-1.1,15.9-0.9,34c0.4,30.5,0.4,30.5,5.2,36.4
			c2.6,3.2,5.4,7.3,6.2,8.8c1.1,2.3,1.5,50.8,1.5,188.7c0,185.8,0,185.8,6,194c6,8.2,6,8.2,6,128.4c0,66.1-0.1,121.3-0.1,122.6
			c0,1.3-2.5,5.2-5.7,8.7c-5.6,6.2-5.6,6.2-6,35.9c-0.2,16.4-0.1,31.1,0.3,32.7c0.4,1.7,3.1,5.7,6,9.2c2.8,3.4,5.3,7.5,5.4,9.2
			c0.1,1.7,0.2,6.9,0.4,11.8c0.2,5.3,1.1,10.5,2.5,13.2c1.2,2.4,9.7,12,18.7,21.3c9,9.3,17,18,17.7,19.4c0.8,1.4,1.4,14.9,1.4,32.2
			c0,28.9,0.1,29.6,2.9,32.9c1.6,1.8,5.7,4.3,9.1,5.6c4.1,1.5,9.2,5.3,15.4,11.8c8.8,8.8,20.1,16.1,25.4,16.1c1.1,0,5.6,2.4,9.9,5.5
			c4.2,3,8.7,5.5,9.7,5.5c3.2,0,12.8,4.9,18.1,9.2c2.7,2.3,8.3,4.9,12.1,6.1c4,1.2,10.1,4.2,13.5,6.8c3.5,2.5,9.2,5.3,12.7,6.2
			c3.6,0.8,8.6,3.4,11.4,6c7.6,6.7,10,7.5,19.9,7.5c10.4,0,15.2,1.4,19.9,6.1c7.2,7,19.9,9.4,27.8,5.3c2.7-1.4,4.4-4,6.2-9
			c1.8-5.3,4.6-9.5,11.7-16.7c7.7-8.1,10.4-10,16.7-11.9c4-1.2,10-4.1,13-6.5c3.1-2.4,6.8-5.1,8.4-6c3.4-2.1,11.9-2.3,15.4-0.2
			c1.5,0.8,12.8,12,25.3,24.8c19.4,19.9,23.6,23.7,29.2,25.6c12.2,4.2,13.8,5.5,29.6,21.4c13,13.2,16.1,17,17.9,22.6
			c2.8,8.8,6.2,10.8,19,11.9c8.8,0.8,11.2,1.5,15.1,4.9c2.6,2.1,6.2,5.1,8,6.7c3.1,2.5,5.3,2.6,30.7,2.6c36.9,0,37,0,37-24.4
			c0-15.2,1.7-21.5,7.2-27.5c7.5-8,7.2-4.4,7.2-117c0-115-0.9-102.3,8.7-115.7c1.1-1.7,2.6-5.3,3.3-8.1c0.7-2.7,1.1-32.6,1-66.1
			c-0.1-67.5-0.8-61.6,8.6-73.7c3.8-4.9,4-5.3,5.1-28c0.7-12.7,0.8-48.3,0.6-79c-0.8-61.8-1.5-55,7.7-68.7c4-5.7,4-5.7,4.2-137.7
			c0.3-146.6-0.7-132.2,9-144.6c4-5.1,4-5.1,4.3-30c0.6-31.1,0-35.3-5.6-41.6c-8-9.2-7.7-7.1-7.7-64.4c0.1-56.5-0.1-55,7.1-63.4
			c2-2.4,4.3-6.7,5.1-9.4c1.7-6.3,1.8-86.4,0.1-94c-2-8.8-4.6-10.1-21.5-10C3971.9,1479.3,3963.9,1480,3962.2,1480.6"/>
	</g>
	<g id="Layer_9">
		<path class="st1" d="M3329.3,1562c-2.1,1.1-6.1,4.1-8.8,6.8c-3.1,2.7-6.6,4.8-8.7,4.8c-2,0.1-24.5,0-49.8-0.1
			c-49.6-0.2-52,0-57.9,6.7c-5.8,6.7-7,6.8-52.7,6.8c-29.6,0-43.8,0.5-45.8,1.5c-1.6,0.8-5.4,3.9-8.5,6.8c-5.6,5.2-5.6,5.2-56.4,5.2
			c-34.9,0-51.8,0.5-53.7,1.5c-1.6,0.8-5.1,3.7-7.8,6.4c-5,4.9-5,4.9-44.7,5.6c-33.3,0.6-40.3,1-42.7,2.7
			c-4.4,3.2-12,13.6-12.9,17.6c-0.8,4.1,1.6,9.9,5.9,13.8c1.6,1.4,3.6,3.9,4.4,5.5c1.1,2,1.7,66.4,2.3,250.6
			c0.7,247.9,0.7,247.9,4.6,252.9c8.8,11.3,8.7,10,8.5,50.3c-0.2,40.9-1.2,35.5,10.1,51.4c3.3,4.6,3.3,4.6,3.2,41.5
			c-0.1,41.9,0,42.2,9.5,44.9c3.7,1,16.6,1.3,37.8,1.1c34.8-0.5,34.1-0.6,43.5,7c2.5,2,7.9,4.6,11.9,5.8c4,1.2,9.6,4,12.5,6.3
			c2.7,2.4,8.7,5.1,12.9,6.3c6.8,1.9,9.2,3.6,17.4,12c7.5,7.6,10.1,11.3,11.6,16.5c2.4,8.1,4,11.4,9.2,18.1c4,5.1,4,5.3,4.8,24.9
			c0.8,21.1,1.6,23.9,7.7,28.4c5.1,3.7,9.6,3.6,15.6-0.5c2.7-1.8,7.6-4,10.8-4.9c3.3-0.8,8.3-3.4,11-5.6c2.8-2.4,9.5-5.8,15.1-7.9
			c8.3-3.2,11.6-5.3,19.9-13.7c7.6-7.6,11.9-10.6,17.9-13c4.3-1.7,10.1-4.8,12.8-7c6.8-5.6,11.3-5.5,19.9,0.6
			c3.8,2.6,9.6,5.6,12.8,6.5c8.3,2.4,24.1,18.9,27.2,28.1c3.4,10.4,6.5,12,22,12c7.2,0,14.3-0.7,15.7-1.4c1.4-0.8,4.3-5.2,6.3-9.8
			c3.1-7,7.4-12,26.4-31.4c22.8-23.1,22.8-23.1,31.6-25.3c9.4-2.4,13.3-5.3,15.7-11.9c1.5-4,1.5-4-4.4-14.5
			c-2.4-4.2-2.5-6.9-2.3-36.9c0.4-35.1-0.2-32.1,8.7-45.2c4-5.7,4-5.7,4-121.7c0-129.6,0.9-115.2-8.8-129.7c-3.6-5.3-3.6-5.3-4-192
			c-0.4-186.8-0.3-186.6-3.3-190.4c-10.7-13.7-10.2-11-10.4-46.1c-0.2-31.3-0.2-31.9,2.9-37.4c3.8-6.8,4-9.3,0.7-11.2
			C3356.2,1559.1,3333.7,1559.7,3329.3,1562"/>
	</g>
	<g id="Layer_8">
		<path class="st1" d="M2776.1,1629.3c-2.1,1.1-5.8,3.9-8.3,6.1s-4.9,4.1-5.4,4.2c-0.6,0.1-32.4,0.4-70.8,0.5
			c-76.7,0.2-72.1-0.2-82,8.9c-5.6,5.2-5.6,5.2-62.9,5.2c-61.3,0-61.2,0-67.2,6.8c-5.9,6.8-5.9,6.8-65.9,6.8c-38.9,0-57,0.5-59,1.5
			c-1.6,0.8-5,3.7-7.6,6.2c-2.6,2.5-6.8,5.1-9.2,5.6s-13.6,0.8-24.8,0.5c-23.7-0.7-24.7-0.2-28.2,12.3c-1.1,4-3.6,8.7-5.4,10.4
			c-5.3,5.1-7.1,9.9-7.1,19c0,7.1,0.7,9.6,3.7,14.5c5.9,9.5,26.7,32.5,44.2,48.6c16,14.9,20.6,18.2,30.5,21.3
			c10.1,3.2,13.8,9.6,13.8,23.4c0,13.6,8.5,23.9,23.6,28.7c6.5,2,9.4,4.4,23.1,17.8c8.6,8.6,16.5,17.5,17.4,19.9
			c1.1,2.7,1.8,9.6,1.8,19.3c0,10,0.7,16.4,1.9,19.6c1,2.5,6.3,9.4,11.8,15.2c8.3,8.8,10.3,11.9,12,18.5c1.2,4.3,3.8,10,5.7,12.4
			c7.5,9.9,7.4,9.3,8,29.3c0.7,19,0.7,19,5.4,25c2.5,3.2,5.3,6.9,5.9,8c0.7,1.1,1.5,13.5,1.9,27.6c0.7,25.6,0.7,25.6,5,32
			c6.6,9.6,8,14.3,9,28.2c1.1,16.8,0.1,21.5-6.1,28.4c-2.8,3.1-5.7,7.3-6.5,9.4c-0.8,2.3-1.4,15.9-1.4,33.3
			c0,31.3-0.4,33.9-6.6,39.5c-6,5.6-6.6,8.6-6.6,34.9c0,24.9,0,24.9-5.4,31.2c-6.6,7.7-7.8,10.8-7.8,19.5c0,11.9,7.4,24.2,14.4,24.2
			c1.9,0,6-1.8,9.3-4c3.3-2.3,7.8-4.4,10.2-4.9c2.4-0.5,7.1-2.9,10.5-5.5c7.9-5.7,12.8-5.8,19.4-0.7c2.6,2.3,7.8,5,11.4,6.2
			c3.6,1.2,9.6,4.6,13.5,7.5c7.8,6.1,8.5,6.2,22.3,7c9.4,0.5,10.7,1,16.5,5.6c3.5,2.7,9.6,6,13.7,7.1c4.5,1.3,10,4.2,13.6,7.3
			c3.4,2.9,8.3,5.7,10.9,6.5c2.8,0.8,21.9,1.3,45.4,1.3c26.9,0,41.5,0.6,43.3,1.4c1.5,0.8,10,8.8,18.7,18
			c18.1,18.6,20.8,20.1,35.2,19.4c7.9-0.5,9.6-1,13.5-4.6c6.2-6.1,9.1-7.2,18.1-7.2c12.8,0,16.4-2.3,19.9-12.3
			c2.6-7.5,4.8-10.4,18.2-24.2c14.1-14.4,15.9-15.8,23.1-18c4.3-1.2,10.4-4.3,13.6-6.9c3.2-2.5,8.6-5.6,11.9-6.7
			c3.5-1.2,7.7-3.7,9.4-5.6c3.2-3.4,3.2-3.4,3.2-38.9c0-34.8-0.1-35.6-2.9-39.3c-10.8-13.7-10.1-10.3-10.2-51.4
			c-0.1-40.1,0.1-39-7.6-48.8c-3.8-4.9-3.8-4.9-4-251.1c-0.2-199.6-0.6-247-1.9-250.3c-0.9-2.3-3.7-6.4-6-9.4s-5.4-8.3-6.7-11.9
			c-4.3-11.9-4.1-11.8-42.6-11.8C2786.2,1627.3,2779.2,1627.7,2776.1,1629.3"/>
	</g>
	<g id="Layer_7">
		<path class="st1" d="M2501.9,2363.2c-2.8,1.9-7.5,4-10.3,4.8c-2.7,0.8-7.4,3.7-10.4,6.3c-7.3,6.8-12.5,6.8-19.4-0.1
			c-3.2-3.2-6.8-5.3-9.7-5.7c-4.2-0.7-5.4-0.1-10.7,4.9c-10.4,10-11.7,13.8-11.1,39.4c0.4,22,0.4,22,5.9,28.8
			c10.2,12.4,11.1,28.6,2.4,41.5c-4.9,7.2-4.9,7.2-0.4,15.7c4.4,8.6,4.4,8.6,4.8,137.8c0.2,71.1,0.1,131.1-0.3,133.4
			c-0.4,2.4-3.1,7.3-5.9,11.3c-3.3,4.4-5.8,9.9-6.8,14.4c-1,4.6-3.2,9.2-5.9,12.5c-5.9,7.1-7.1,10.7-7.1,23.1
			c0,10.6,0,10.6-5.9,17.5c-8.3,9.5-8,14.2,1,25.8c2.1,2.7,5.8,5.8,8.3,7.1c8.7,4.2,25.5,1.4,30.8-5.2c3.3-4.1,6.9-5.2,19.5-6.2
			c11-0.8,12.8-1.4,17.2-5c2.7-2.3,6.3-4.8,7.9-5.6c4-2.1,65.6-3.1,69.3-1.1c1.5,0.8,4.9,3.4,7.6,5.8c6.3,5.8,12.7,6.2,16.7,1
			c1.5-2,2.7-4.4,2.7-5.5c0-7.7,17-26.1,28.4-30.5c9.2-3.7,11-6.5,11.1-17.3c0-10.6,1.1-13,12-23.8c11.2-11.2,15.5-13,28.8-11.7
			c10.8,1.1,18.7-0.8,22.3-5.6c2.1-2.7,2.7-5.5,2.7-12.4c0-6,0.8-10.3,2.4-13.2c1.2-2.4,9.6-11.1,18.5-19.4
			c17.8-16.7,40-41.1,43.4-47.6c1.2-2.4,2.4-8.8,2.7-15c0.7-11.7,1.2-13.5,7.3-21.3c3.5-4.4,4-6.4,4.9-16.8
			c0.9-12.7,2.8-17.7,9.1-23.6c2.4-2.3,4.3-5.7,4.9-8.6c0.6-2.6,0.7-36.7,0.3-75.7c-0.7-73.5-0.8-77-6-77c-1.2,0-4.6,1.7-7.5,3.7
			c-4.3,3.1-7,3.8-15.2,4.2c-7.3,0.4-11.1-0.1-13.9-1.7c-2.3-1.1-11-9.3-19.7-18.2c-8.6-8.8-17.7-17-19.9-18.3
			c-4-2-9.1-2.4-46.2-2.3c-26.9,0.1-43.2-0.4-45.5-1.3c-2-0.8-5.9-3.6-8.7-6c-2.7-2.5-7.5-5.2-10.7-6.1c-9.9-2.5-10.4-2.9-14.8-6.8
			c-5.9-5.3-10.1-6.7-19.9-6.7c-10.1,0-13.8-1.3-20.5-7.2c-2.8-2.4-7.6-5.2-10.7-6.2c-3.1-0.8-8-3.1-11.1-5
			C2513.2,2359,2508.6,2359,2501.9,2363.2"/>
	</g>
	<g id="Layer_6">
		<path class="st1" d="M2886.6,2367.9c-5.4,1.2-8.6,3.2-12.5,7.3c-2,2.3-6.8,4.5-12.5,6.3c-12.8,3.9-19.1,10.4-23,23.3
			c-2.5,8.6-3.6,10.2-11.3,17.3c-10,9-15.2,17.5-15.5,24.7c-0.1,2.9-0.1,34.1,0.1,69.5c0.3,77.4-1.7,70.9,22.2,70.9
			c16.5,0,21.5,1.3,28.9,8c7,6.3,12,7,48.5,6.7c24.7-0.2,34,0.1,36.4,1.4c1.8,1,7,5.6,11.4,10.3c6.1,6.4,8.8,10.5,10.7,16.5
			c1.5,4.3,4.8,11.1,7.3,14.9c2.5,3.8,5.1,8.8,5.6,11.3c1.5,7.2,4.3,11.5,14.6,22.8c5.4,5.8,9.7,11.2,9.7,11.9
			c0,0.7,1.2,4.6,2.7,8.8c2,5.3,5.6,10.6,12.9,18.7c8.5,9.3,10.5,12.6,12.6,19.6c2.7,9.4,8.6,16.9,26.3,34.5
			c9.2,9.2,11.3,11.9,13,18.1c3.2,11.1,7.4,17,22.4,32.4c12.4,12.5,14.3,15.1,17.4,23.4c2.8,7.5,5.5,11.7,13.7,20.5
			c7.5,8.1,10.7,12.7,11.8,16.8c2.4,8.9,4.6,12.6,15.1,24c7.3,8,10.2,12.3,11.7,17.1c3.1,10.4,5.2,13.6,16.9,25.2
			c9.3,9.2,12.1,11.3,18.5,13.2c4.1,1.2,9.4,3.7,11.9,5.5c2.4,1.8,5.7,4.2,7.3,5.5c4.5,3.4,11.9,4.6,23.5,3.8
			c12.2-0.8,18.4,0.7,24.8,6.4c8.3,7.4,7.2,7.3,74,7.4c67.3,0.2,65.9,0,73,7.7c1.8,1.9,5.3,4.1,7.9,4.9c2.5,0.8,17.6,1.3,33.2,1.3
			c28.2,0,28.4,0,32.9,3.3c13.8,10.4,15.1,10.5,65,10c35.8-0.5,35.8-0.5,40.7,3.6c12.1,10,9.5,9.4,49.6,9.6
			c38.9,0.2,38.4,0.1,47.4,7.5c6.6,5.3,16.7,6.8,45.4,6.2c23.8-0.5,23.8-0.5,28.8,3.7c2.7,2.3,6.5,5.2,8.3,6.5
			c4.9,3.9,32.5,5.3,86.3,4.4c50.8-0.8,44.5-1.7,57.4,8c5.5,4.1,15.1,4.8,74.2,4.4c58.8-0.4,58.8-0.4,63.7,3.7
			c9.6,7.9,12.6,9.2,21,9.3c6.2,0.1,9.2-0.7,13.4-3.2c6.1-3.8,80.2-78.5,87.5-88.4c2.7-3.7,6.1-10.1,7.4-14c2-6.3,4.6-9.8,18.9-24.6
			c9.1-9.5,17.3-18.9,18.2-20.9c0.8-2,1.6-7.6,1.7-12.4c0.1-13.1,1.7-16.8,11.2-27c7.6-8.1,8.6-9.8,8.6-14.4c0-4.9-0.8-6.1-8.6-13.5
			c-7.6-7.3-8.6-8.8-8.6-13.3c0-4.6,0.9-6.1,10.4-15.2c12-11.7,13.5-14.2,13.7-22.7c0.3-12.7-1-15.7-13.3-28.2
			c-15.5-15.9-16.2-16.4-27.8-16.4c-5.3,0-11.6-0.8-13.8-1.9c-7.4-3.3-21.5-19.4-25-28.4c-4.1-11-5.7-11.7-25-10.3
			c-15.4,1.1-15.4,1.1-21.1,6.7c-10.8,10.8-19.3,9.6-34.3-5c-15.1-14.6-15.6-15-26.7-15c-11.1,0-15.4-1.4-20.8-6.8
			c-2.3-2.1-5.7-4.5-7.8-5.3c-2.6-1-29.2-1.4-85.4-1.5c-87,0-85.2,0.1-91.1-6.7c-4.2-4.9-9.3-6.8-17.6-6.8
			c-13.5,0-15.4-0.8-26.1-11.9c-8.2-8.7-10.3-11.7-12.6-19c-3.8-11.7-11.8-19.9-22.9-23.3c-7.3-2.4-9.6-4.3-31-25.5
			c-12.7-12.6-24.8-24-27.1-25.5c-6.2-4-10.4-3.2-17.1,3c-3.4,3.2-8.5,6.3-12,7.4c-8.2,2.5-10.8,5.1-12.6,12.4
			c-1.1,4.6-3.7,8.3-11.6,16.5c-11.4,11.9-13.7,12.9-29.7,11.8c-8.3-0.6-10.4-1.2-14.5-4.5c-9.9-8-11.3-8.7-21.3-8.7
			c-11.3,0-15.1-1.3-21.6-7.4c-2.7-2.5-7.5-5.2-10.7-6.1c-8-2.1-11.1-3.6-16.6-8c-2.6-2.1-8.2-4.9-12.2-6.1
			c-4.2-1.2-9.9-4.2-12.9-6.9c-3.1-2.5-7.9-5.3-11-6.1c-7.8-2-11-3.6-16.5-8c-2.6-2.1-8.3-4.9-12.4-6.1c-6.1-1.8-8.8-3.7-14.5-9.6
			c-8.8-9.3-16.6-14.8-25.3-17.3c-5.6-1.7-8.6-3.9-16.9-12.7c-8.5-8.8-10.2-11.4-10.3-15.1c0-2.5,0-15.5,0.1-29
			c0.1-14.6-0.4-26.8-1.4-30.2c-1.1-4.5-4.8-9-17.6-22.5c-8.8-9.2-18-17.6-20.4-18.7c-4.1-1.8-4.8-1.7-11.2,2
			c-3.8,2.3-9.2,4.6-12,5.6c-12.9,4.1-30.1,22.4-34.9,37.1c-2.4,7.4-4.4,10.5-11.7,18.1c-4.8,5-10.3,10-12,11
			c-5,2.7-37.6,1.9-42.1-1c-7.2-4.6-19.7-19.7-21.8-26.1c-2.5-7.7-3.7-8.8-18-16.1c-11.4-5.7-11.4-5.7-18.4-1.7
			c-4,2.3-9.7,4.9-12.9,5.8c-4.3,1.3-8.8,4.6-17.2,12.9c-10,9.6-12.5,11.4-20.2,13.7c-5.7,1.8-10.5,4.3-13.8,7.4
			c-3.6,3.3-7.2,5.2-12.5,6.3c-5.4,1.1-9,3-13.3,6.8c-6.3,5.6-11.7,7.4-17.8,6.1c-6.9-1.5-10.4-5.6-13.3-15.2
			c-1.7-5.6-4-10.3-6.1-12.4c-6.6-6.2-8.4-12.5-8.4-30c0-16.7-0.6-18.5-6.8-26.4c-2-2.5-4.6-7.4-5.7-10.7c-2.7-7.9-5-10.3-12-12.7
			c-3.3-1.1-8.7-4.1-12-6.7c-3.4-2.5-9.6-5.6-13.7-6.9c-4.1-1.2-9.5-4-11.9-6c-2.4-2.1-5.5-4.4-7-5.3
			C2994,2367.9,2893,2366.3,2886.6,2367.9"/>
	</g>
	<g id="Layer_5">
		<path class="st1" d="M2806.1,2610.3c-5.3,0.8-7.2,5.5-7.2,17.3c0,11.1-0.9,13.6-7.7,20.8c-4.5,4.9-4.8,5.6-5.2,16.2
			c-0.2,6.1-0.7,12.4-0.9,13.9c-0.3,1.5-14.2,16.7-30.8,33.7c-16.6,16.9-31.1,32.6-32.2,34.8c-1.4,2.7-2.1,9.8-2.4,22.4
			c-0.8,25.1-2.6,27.9-19.9,28.9c-10.1,0.6-13.6,2.5-12.2,6.9c0.4,1.3,10.3,12.4,21.9,24.6c17.9,18.7,21.4,23.1,23,28.4
			c3.1,10.6,5.2,13.6,21.5,30.7c12.1,12.6,16.1,17.7,17.3,22.1c3.2,10.7,6.9,16.1,22.5,32.7c13.9,14.8,16.1,17.5,18.5,25
			c3.1,9,8.4,16.1,25.9,33.7c7.7,7.7,10.5,11.5,11.9,16.2c3.2,11,6.5,15.7,22.5,32.5c13,13.5,16.2,17.6,17.7,22.8
			c2.9,10.3,5.1,13.3,21.8,30.7c12.6,13.2,16.2,17.7,17.3,22.3c2.7,10.5,6.8,16.3,22.4,32.5c14.2,14.6,15.9,16.9,18.4,24.8
			c3.1,9.3,9.3,17.7,16.2,21.5c3.5,2,8.8,2.4,41,2.4c41,0,35.8-1.1,50,10.6c4.8,4,34.9,5.2,108.4,4.5c70.7-0.7,62.5-1.5,74.8,7.7
			c5.6,4.2,17.8,4.8,95.5,4.5c77.3-0.4,77.3-0.4,82.1,3.7c12.5,10.2,5.2,9.3,83.5,9.5c70.2,0.2,70.2,0.2,75.1,4.4
			c10.5,9.2,6.8,8.8,83.5,8.9c77,0.1,68.1-1,82.1,10.5c4.8,3.9,31.1,5.2,93.1,4.4c58.2-0.7,51.1-1.5,64,8c5.5,4.1,15.9,4.6,80.6,4.4
			c35.1-0.1,64.6-0.1,65.6-0.1c0.9,0.1,4,2.3,6.7,4.9c2.7,2.5,6.7,5.3,8.7,6.1c2,0.8,12.4,1.4,23.1,1.4c29.7,0,29.8-1.3,2.1-28.7
			c-11.2-11.1-21.5-22-22.7-24.4c-1.5-2.7-2.1-7.3-2-13.5c0.2-9.6-1.9-16.8-6.2-21.7c-5.4-6.1-7.2-11.9-7.3-23
			c0-18.7,5.5-23.6,26.9-23.6c19.4,0,21.3-1.9,15.2-15.1c-2.4-5-3.3-9.5-3.3-14.9c0-9.4-1.6-13.9-7-19.7c-6.5-6.9-10.2-8.3-23.1-8.7
			c-9.5-0.2-12.5-0.8-15.1-3c-14.6-11.9-6.2-10.7-76.5-10.7c-56.9,0-63.8-0.2-67.4-2.3c-2.3-1.2-4.9-3.2-5.8-4.4
			c-4.9-6-5.9-6.1-70.9-6.1c-40,0-63.1-0.6-65.5-1.4c-2-0.8-6.1-3.8-9.3-6.8c-6.6-6.1-4.5-5.8-38.6-5.5c-27.9,0.5-32.4-0.5-39.5-7.3
			c-6.9-6.5-7.7-6.7-45-6.3c-37.5,0.4-41-0.1-46.7-6.5c-6.1-7.1-7.3-7.2-54.2-7.3c-43.6-0.1-43.6-0.1-48.6-4.2
			c-11.3-9.2-9.2-8.8-42-8.8c-31.8,0-34.2-0.5-39.8-6.8c-6-6.8-5.6-6.8-71.4-6.8c-56.8,0-62.1-0.2-67-2.4c-2.8-1.3-6.1-3.6-7.2-4.8
			c-4.3-5.3-9.3-6.5-25.2-6.3c-17.1,0.2-20.6-0.7-27.8-7.3c-3.1-2.9-7.9-5.5-12.6-6.8c-7.2-2.1-9-3.6-30.4-25.2
			c-19.7-19.9-23.1-24-24.8-29.8c-3.5-10.8-5.6-14.3-15.1-24.4c-7-7.3-9.6-11.3-11.7-17.4c-3.4-10.1-5.1-12.6-16.1-24.5
			c-5-5.3-9-10.3-9-11.1s-1.2-4.8-2.7-8.9c-2.4-6.2-5.7-10.6-18.9-24.6c-14.8-15.7-16.3-17.7-19.1-26.3c-2.7-8.6-4.2-10.6-19.7-26.9
			c-9.9-10.4-17.3-19.6-18.4-22.4c-4.5-12.6-6.8-16.3-15.6-25.8c-7.4-8-10.2-12-12.1-18.2c-3.4-10-5.2-12.7-15.3-23.6
			c-6.2-6.7-9-10.8-10.9-16.7c-1.5-4.3-5-11.4-7.9-15.8c-2.9-4.4-5.3-9.3-5.3-10.6c0-1.4-1.7-4.4-3.8-6.9c-3.8-4.3-3.8-4.3-39.4-4
			c-38.1,0.4-39.8,0.1-45.7-6.5c-5.4-6.1-9.3-7.1-29.7-7.2C2818.6,2609.8,2808.3,2610,2806.1,2610.3"/>
	</g>
	<g id="Layer_4">
		<path class="st1" d="M5673.2,2639.5c-1.8,1.2-5.2,4.1-7.6,6.4c-4.3,4.2-4.3,4.2-21.6,4.5c-21.4,0.5-22.2,0.7-28.3,6.3
			c-7.8,7.2-10,7.6-34.9,6.7c-30.4-1.2-36.5-0.4-43.5,6.2c-8.8,8.2-9.6,8.4-32.3,8.1c-28.9-0.4-27-0.8-34.4,6.1
			c-3.7,3.3-6.8,6.2-7,6.3c-0.1,0.1-12.2,0.6-26.9,1c-26.6,0.8-26.6,0.8-32.7,6.9c-6,6.1-6,6.1-23.5,6.4
			c-21.4,0.5-22.2,0.7-28.4,6.3c-7.8,7.2-10.1,7.6-35.1,6.7c-30.4-1.2-36.4-0.5-43.4,6.1c-2.9,2.7-6.8,5.7-8.4,6.7
			c-2,1.1-16.2,1.5-45.8,1.5c-45.8,0-47,0.1-52.7,6.8c-5.3,6-7.6,6.2-62.6,6.1c-28.7-0.1-54.6,0.2-57.6,0.7c-4,0.7-7.2,2.4-11.6,6.4
			c-3.3,3.1-6.1,5.7-6.3,5.8c-0.2,0.1-24.2,0.7-53.4,1c-53,0.8-53,0.8-58,5.6c-7.5,7.5-9.5,7.9-36.3,7c-30.6-1.1-35.1-0.5-42.2,6.2
			c-2.9,2.7-6.8,5.7-8.4,6.7c-2,1.1-17.9,1.5-52.5,1.5c-52.8,0-53.4,0.1-59.4,6.8c-1.5,1.7-3.8,3.7-5.3,4.5
			c-1.9,1.1-30,1.8-101.1,2.3c-98.3,0.7-98.3,0.7-104.4,6.8c-6,6.1-6,6.1-36.6,6.4c-16.8,0.2-31.9,0.7-33.5,1
			c-1.7,0.4-5.3,2.7-8,5.3c-2.7,2.5-6.6,5.2-8.6,6c-2.4,0.8-14.4,1.1-34.2,0.6c-37.6-1-41.7-0.6-48.8,6.2c-9,8.4-8.6,8.3-42.5,8.1
			c-34.9-0.2-35.6-0.1-40.4,9.9c-2.3,4.5-2.3,5.2-0.3,9.3c1.1,2.4,5.1,7.1,8.8,10.3c11.9,10.4,11.4,15-2.9,28.4
			c-5.1,4.8-10.2,10.6-11.1,13.1c-0.9,2.4-1.8,8.8-1.8,13.9c0,10.5-0.9,13.1-7.4,20.4c-2.4,2.7-5,7.5-5.8,10.7
			c-3.3,13.1-5.5,15.7-15.3,17.8c-5.9,1.3-9.5,5.5-11.3,12.6c-1.4,5.7-4.4,9.3-32.6,38c-56.2,57.4-59.4,60.9-59.4,66.3
			c0,3.4,1.4,6.5,5.1,11.3c2.7,3.7,5.5,7.7,6.1,9.3c0.7,1.4,1.5,10.3,1.9,19.6c0.8,16.8,0.8,16.8,5.5,23c8.4,10.6,7.8,13.7-4.9,25.8
			c-9.4,9-12.6,10.5-23.7,10.5c-11.3,0-12.2,1.8-7.2,13.5c3.4,7.7,3.8,10.2,3.8,22.8c0,10.8,0.6,15.1,2.4,18.5
			c1.2,2.4,15.7,18.5,32.2,35.9c24.7,26.1,30,32.5,30.8,36.4c1.2,7.1-0.1,11-6.3,18c-5.6,6.2-5.6,6.2-6.2,26.8
			c-0.7,20.6-0.7,20.6-6.6,26.8c-5.8,6.1-5.8,6.1-6.8,19.9c-0.6,7.6-0.9,13.9-1,14c-0.1,0.1-2.4,3-5.3,6.3
			c-3.7,4.3-5.6,8.2-6.7,13.4c-1,5.5-2.9,8.9-7,13.7c-5.4,6.3-5.5,6.7-5.9,17.3c-0.6,14.5-0.9,16.2-6,22c-6.6,7.5-7.4,10-7.4,21.2
			c0,11.1-1.5,15.4-7.1,20.8c-2.1,2-4.4,6.9-6.2,12.7c-2.5,8.6-3.8,10.6-13.1,20.2c-5.7,6-10.9,12.5-11.8,14.6
			c-0.8,2.1-1.4,8.1-1.4,13.2c0,10.6-1,13.5-7.3,19.6c-5.2,5-6.9,10.2-4.5,14.5c3.3,6.3,5.2,6.5,63.2,6.9c30,0.2,55.4,0.5,56.3,0.5
			s4.2,2.5,7.6,5.5c3.3,2.9,8.3,6,11,6.8c7.2,2.1,114.5,3.3,140.1,1.5c22.2-1.5,27.9-0.8,32.2,4c1.4,1.5,4.9,4.1,7.7,5.6
			c5.1,2.7,6.9,2.9,55,3c49.1,0.1,49.8,0.1,53.4,3.1c2,1.7,5.9,4.6,8.8,6.7c5.2,3.7,5.2,3.7,101.8,3.9c86.4,0.2,97,0.5,99.6,2.4
			c12,8.9,12.7,9.2,24.4,10.4c6.3,0.7,46.4,1.1,89.3,1c42.7-0.1,78.7-0.1,80,0c1.2,0.1,5,2.5,8.3,5.6s8.3,6,11,6.7
			c7.8,2.1,68.5,3.2,89.4,1.7c21.1-1.5,24.7-1,31.6,5.2c2.5,2.4,6.2,4.9,8.2,5.7c2.4,1.1,19.9,1.7,58.2,1.8
			c30,0.1,55.6,0.4,56.9,0.4c1.2,0.1,5,2.5,8.4,5.6c3.4,3,7.7,5.8,9.6,6.4c1.9,0.6,12.5,1,23.5,1c19.9,0,19.9,0,27.4-5.3
			c8.2-5.7,9.9-8.3,13-19.7c1.1-4.1,4.1-10.2,6.7-13.5c2.5-3.3,5.5-9.3,6.7-13.4c1.1-4.1,4.1-10.3,6.7-13.9c2.5-3.6,5-8.4,5.4-10.7
			c1.1-5.5,4-11.1,8.6-17c2-2.5,4.5-8.1,5.7-12.1c1.1-4.1,4.2-10.3,7-13.8c4.5-6,5-7.2,5.8-19.2c0.9-12.1,1.1-13.1,6.3-19.9
			c2.9-3.9,6.5-10.7,7.8-15.1c1.4-4.4,4.3-10.6,6.6-13.8c2.3-3.2,5.1-8.9,6.1-12.7c1-3.9,4.3-10.1,7.2-13.9
			c3.1-4.1,5.6-9.3,6.1-12.4c0.6-3,3.2-8.8,6-13.2c2.8-4.3,6-10.7,7.1-14.5c1-3.7,4.3-10,7.3-13.9c2.9-4,5.4-8.2,5.4-9.4
			c0.1-4.4,3.5-11.9,7.8-17.5c4-5.2,4.4-6.5,5.4-18.5c0.8-11.5,1.4-13.4,4.9-17.8c5-6.4,6.8-9.8,9.1-17.8c1-3.7,3.3-8.3,5-10.3
			c4.1-5,5.9-8.8,8.3-16.7c1-3.7,3.6-8.7,5.6-11c5.9-7,7-10.1,7.7-22.1c0.7-10.4,1.1-11.9,5.8-18.9c2.7-4.2,5.9-10.7,7-14.5
			c1-3.8,4-9.5,6.6-12.9c2.5-3.4,5.8-9.9,7.3-14.9c1.5-4.9,3.6-9.8,4.8-10.6c2.7-2.4,5.7-8.2,7.9-15.9c0.9-3.4,4.1-9.4,7-13.3
			c2.9-4.1,5.6-9.3,6-12.4c0.6-3,3.2-8.8,6-13.2c2.8-4.3,6-10.7,7.1-14.5c1-3.7,4.3-10,7.3-13.9c2.9-4,5.4-8.2,5.4-9.4
			c0.1-4.4,3.5-11.9,7.8-17.5c4-5.2,4.4-6.7,5.3-18.3c0.9-12.4,1-13,7-21.1c3.4-4.5,6.1-9.3,6.1-10.5c0.1-4.4,3.5-12,7.8-17.5
			c4-5.1,4.4-6.7,5.3-17.4c0.8-12.3,2-15.4,8.2-23.3c2.1-2.6,4.6-8,5.6-11.9c1-3.9,2.8-8.6,4.2-10.4c5.7-8.3,7.1-11,9-17.6
			c1-3.9,3.7-9,5.7-11.4c5.7-6.8,7.1-10.3,7.4-19.2c0.2-4.5,0.4-9.4,0.6-11c0.1-1.5,2.4-6.3,5.3-10.6c2.8-4.3,5.8-10.5,6.7-13.9
			c0.8-3.4,3.2-8.3,5.2-11c4.8-6.2,6.6-9.6,8.8-17.4c1-3.6,3.6-8.7,5.7-11.4c2.1-2.7,5.2-8.8,6.7-13.6c1.6-4.8,4.9-11.2,7.3-14.4
			c2.5-3.2,5.5-9.2,6.7-13.2c1.1-4.1,3.6-9.4,5.5-12s5-8.9,7-14.5c2-5.5,5.5-12,7.7-14.6c4.5-5.3,5-6.8,5.9-20.4
			c0.7-9.6,2-13.2,8-21.7c1.8-2.4,4.1-7.7,5.2-11.7c1.1-4,4.1-9.8,6.6-12.7c4-4.9,7.3-12.5,7.3-17c0-0.8,2.3-4.8,4.9-8.7
			c2.6-3.9,5.8-10.6,7.1-15c1.2-4.3,4-9.8,5.8-12c4.4-5.5,6.8-10.2,7.8-16.1c0.4-2.6,3.2-8,6.1-11.9c5.9-8,6.9-14.4,2.8-18.2
			C5693.8,2636.4,5677.7,2636.4,5673.2,2639.5"/>
	</g>
	<g id="Layer_3">
		<path class="st1" d="M2656,2806.5c-1.4,1.3-1.9,4.8-1.9,10.7c0,4.8-0.7,10.1-1.5,11.8c-2.1,4.2-20.8,22.5-23,22.5
			c-1,0-4.1,1-7,2.1c-6.2,2.5-7.6,5.7-8.5,19c-0.9,16.4-6,20.6-24.7,20.6c-11.7,0-13.9-0.8-21.3-7.5c-6.9-6.3-12-7.3-38-7.3
			s-30.8,0.8-36.3,6.9c-6.1,6.5-10,8-21.5,8c-9.9,0-10.8,0.2-16.8,4.8c-3.5,2.5-7.9,5.5-9.7,6.3c-5.2,2.5-7.9,5.3-7.9,8.2
			c0,1.4,3.6,6.3,7.9,10.7c5.6,5.7,8.3,9.6,9.3,13.6c0.8,3.1,1.7,6.7,2.1,8c0.3,1.3,3.2,5.6,6.1,9.4c5.5,7.1,5.5,7.1,6.3,24.2
			c1,20.5,0.2,25.5-5.8,31.9c-6.3,6.8-7.5,9.6-7.5,18.6c0,8.4,1.8,12.9,8.6,21.5c4,5,4,5,4.6,55.6c0.3,27.8,0.3,53-0.2,55.8
			c-0.6,3.3-2.5,7-5.4,10.1c-2.5,2.6-5.3,6.3-6.1,7.9c-0.9,1.9-1.5,13.6-1.5,33.4c0,32.7,0,33-7.4,41.3c-2.4,2.7-4.8,7.2-5.3,10
			c-0.6,2.7-0.7,16.5-0.2,30.7c0.3,14.2,0.1,27.6-0.4,29.9c-0.7,2.4-2.9,6-5.2,8.2c-7.4,7.2-7.8,9-7.8,34.9
			c0,25.3-0.6,27.9-7.1,34.3c-4.2,4-6.5,10.6-6,18.1c0.7,12,0.1,14-5.8,21.2c-3.6,4.3-6.3,9.3-7.3,13.2c-0.8,3.4-2.9,8.8-4.8,11.9
			c-4,6.9-4,9.2-0.6,14.9c1.5,2.4,3.8,7.9,5.2,12c1.4,4.2,4.4,10.1,6.7,13c2.3,2.9,5.2,8.9,6.5,13.4c1.3,4.4,4.2,10.5,6.6,13.5
			c2.4,3,5.3,8.9,6.6,13.4c1.2,4.3,4.4,10.8,7.1,14.3c2.6,3.6,5.4,8.7,6.1,11.4c0.8,2.7,2.7,7.1,4.5,9.5c8.8,12.3,8.8,15.8,1.4,23.6
			c-2.5,2.5-5,6.2-5.4,8.1c-1.2,5,4.4,15.2,11,20c4.6,3.4,7.2,4.1,17,4.8c16.3,1.2,19.6,3.3,23.5,15.1c1.5,4.5,3.3,7,6,8.6
			c4.6,2.4,8,1.7,14.6-3.7c2.6-2.1,6.2-4.4,7.9-5.1c1.7-0.7,12.2-0.8,23.7-0.5c19.6,0.7,21,0.6,26.9-2.4c4-2,12.6-9.4,23.3-20.4
			c18.2-18.5,17-17.8,33.9-19.3c5.5-0.5,9.9-1.7,12.1-3.4c2-1.4,5.4-4,7.6-5.6c3.2-2.4,6.6-3.1,16.3-3.8c11.1-0.8,12.9-1.2,17.2-4.8
			c10-8.2,11.8-8.7,30.8-8.7c18.8,0,20.4,0.5,28.1,7.5c6.8,6.2,13.3,7.5,34,7.2c9.9-0.1,19.6-0.2,21.5-0.1
			c5.9,0.2,23.6,19,25.8,27.5c2.5,9.2,8.7,18,15.5,22c5.5,3.3,7.1,3.6,22.7,3.7c13.7,0.1,17.2,0.6,19.9,2.4
			c12.1,8.9,12.2,8.9,24.1,10c9.1,0.7,12.5,1.5,15.7,4c15.6,11.7,10.8,10.6,48.3,10.6c36.9,0,35,0.4,47-8.8
			c5.4-4.1,5.4-4.1,186.4-4.4c199.1-0.4,184.6,0.4,194.7-8.4c4.4-3.8,4.4-3.8,187-3.6c100.5,0.1,192-0.2,203.3-0.8
			c22.2-1.2,22-1.1,34.3-11.2c3.5-2.9,3.5-2.9,99-3c109.8-0.1,100.3,1.1,105.9-13.6c1.6-4.3,4.1-9,5.6-10.6
			c4.1-4.5,6.7-12.1,6.7-20.6c0-10.4,3.2-16.8,13.1-26.7c8.7-8.6,12-13.9,14.5-23.2c0.8-3.1,3.2-7.6,5.2-10.1
			c5.7-6.7,6.6-9.2,7.5-21.4c0.9-12.3,1.6-14.2,7.6-21.7c3.6-4.5,4-6.3,4.8-17.7c0.6-8.8,1.5-13.5,3.1-15.8c1.2-1.8,3.7-5.2,5.5-7.6
			s4.1-7.6,5.2-11.5c1-3.9,4.2-10,6.9-13.4c4.5-6,5-7.3,5.7-18.2c0.8-12.1,2.3-16.2,7.3-21.8c5.8-6.3,7.2-12.3,6.9-27.9
			c-0.3-13.7-0.1-14.9,3.3-20.8c4.1-7.2,4.5-9.9,1.5-11.7c-1.2-0.7-13.7-0.8-28.8-0.6c-14.7,0.4-28.1,0.4-30-0.2
			c-1.9-0.5-6.1-3.3-9.4-6.2c-3.3-3-8.3-5.8-10.9-6.7c-2.8-0.8-31.5-1.1-70.1-0.8c-70,0.5-70.5,0.4-77.7-6.5
			c-6.6-6.2-5.8-6.2-77.5-6.2c-44.3,0-69.8-0.5-72.2-1.4c-2-0.8-5.8-3.4-8.6-6c-2.7-2.5-7.2-5.2-10-6c-3.1-0.8-30.5-1.3-71.5-1.2
			c-70.9,0.2-71,0.2-76.4-6.3c-5-6.2-5.4-6.2-77.6-6.1c-45.3,0.1-69.5-0.5-71.9-1.3c-2-0.8-5.9-3.6-8.7-6.1c-2.7-2.5-6.5-5-8.2-5.5
			s-40.2-0.8-85.4-1c-82.3-0.2-82.3-0.2-87.2-4.3c-11.8-9.5-3.2-8.8-94.7-8.8c-88.5,0-86.4,0.1-92.4-6.8c-5.8-6.7-7.7-6.9-44.9-6.8
			c-28.2,0.1-35.8-0.4-39.5-2c-2.8-1.2-10.9-8.4-19.6-17.7c-13.7-14.5-15.1-16.3-17.8-25.1c-2.8-9-4-10.4-20.6-28
			c-9.7-10.2-17.7-19-17.7-19.9c0-0.8-1.2-5-2.8-9.2c-2.4-6.4-5.6-10.6-18.9-24.7c-13.3-13.8-16.4-18.1-17.8-23
			c-2.6-10.2-5.1-13.5-21.9-30.9c-14.1-14.6-16.6-18-18.9-24.7c-3.8-11.4-6.2-14.8-22.1-30.8c-13.5-13.6-14.5-15-17.3-24.2
			c-2.9-9.3-3.8-10.5-20.7-28.2c-9.7-10.2-17.7-19-17.7-19.9c0-0.8-1.2-5-2.8-9.2c-2.4-6.4-5.6-10.6-18.9-24.7
			c-13.9-14.6-16.4-18-18.2-24c-3.1-10.5-5.9-14.5-21.5-30c-7.8-7.6-16.8-17-20.1-20.8C2663.2,2805.3,2659,2803.4,2656,2806.5"/>
	</g>
</g>
<text transform="matrix(1 0 0 1 222.126 540.0566)" class="st2 st3">Naawan</text>
<text transform="matrix(1 0 0 1 353.292 2045.5791)" class="st4 st2 st3">LEGEND</text>
<ellipse class="st5" cx="294.9" cy="2333.6" rx="58.4" ry="57.1"/>
<ellipse class="st6" cx="294.9" cy="2519.7" rx="58.4" ry="57.1"/>
<ellipse class="st7" cx="294.9" cy="2705.7" rx="58.4" ry="57.1"/>
<ellipse class="st8" cx="294.9" cy="2891.9" rx="58.4" ry="57.1"/>
<ellipse class="st9" cx="294.9" cy="3077.9" rx="58.4" ry="57.1"/>
<ellipse class="st10" cx="294.9" cy="3263.9" rx="58.4" ry="57.1"/>
<ellipse class="st11" cx="294.9" cy="3450" rx="58.4" ry="57.1"/>
<ellipse class="st12" cx="294.9" cy="3636.1" rx="58.4" ry="57.1"/>
<ellipse class="st13" cx="294.9" cy="3822.2" rx="58.4" ry="57.1"/>
<ellipse class="st14" cx="294.9" cy="4008.2" rx="58.4" ry="57.1"/>
<ellipse class="st15" cx="294.9" cy="4194.3" rx="58.4" ry="57.1"/>
<ellipse class="st16" cx="294.9" cy="4380.4" rx="58.4" ry="57.1"/>
<ellipse class="st17" cx="294.9" cy="4566.5" rx="58.4" ry="57.1"/>
<ellipse class="st18" cx="294.9" cy="4752.5" rx="58.4" ry="57.1"/>
<ellipse class="st19" cx="294.9" cy="4938.5" rx="58.4" ry="57.1"/>
<text transform="matrix(1 0 0 1 420.3555 2378.0332)" class="st20 st2 st21">Barangay Halls</text>
<text transform="matrix(1 0 0 1 420.6221 2559.5322)" class="st22 st2 st21">Health Centers</text>
<text transform="matrix(1 0 0 1 416.1558 2748.1797)" class="st23 st2 st21">Road (FMR)</text>
<text transform="matrix(1 0 0 1 420.0312 2926.9082)" class="st24 st2 st21">H20 System</text>
<text transform="matrix(1 0 0 1 429.2021 3114.4326)" class="st25 st2 st21">MOWDIR</text>
<text transform="matrix(1 0 0 1 429.2021 3303.5234)" class="st26 st2 st21">Market</text>
<text transform="matrix(1 0 0 1 429.2021 3303.5234)" class="st27 st2 st21">Market</text>
<text transform="matrix(1 0 0 1 428.6113 3487.5029)" class="st2 st21">Flood Control</text>
<text transform="matrix(1 0 0 1 437.1919 3677.1953)" class="st28 st2 st21">Streetlights</text>
<text transform="matrix(1 0 0 1 431.084 3864.2246)" class="st29 st2 st21">Bridges</text>
<text transform="matrix(1 0 0 1 428.6113 4047.8262)" class="st30 st2 st21">Road Widening</text>
<text transform="matrix(1 0 0 1 428.6113 4230.1787)" class="st31 st2 st21">Hospitals</text>
<text transform="matrix(1 0 0 1 428.6113 4413.6924)" class="st32 st2 st21">Daycare Center</text>
<text transform="matrix(1 0 0 1 428.6113 4612.8994)" class="st33 st2 st21">Pedestrian Overpass</text>
<text transform="matrix(1 0 0 1 435.751 4792.2188)" class="st34 st2 st21">Covered Courts</text>
<text transform="matrix(1 0 0 1 428.6113 4973.6455)" class="st35 st2 st21">School Buildings</text>
<g id="Layer_13">
</g>
<text transform="matrix(1 0 0 1 2361.5361 1542.8716)" class="st2 st36">Maputi</text>
<text transform="matrix(1 0 0 1 2895.9609 1456.3801)" class="st2 st36">Tuboran</text>
<text transform="matrix(1 0 0 1 3473.7046 1369.889)" class="st2 st36">Mapulog</text>
<text transform="matrix(1 0 0 1 4736.751 1169.8369)" class="st2 st36">Tagbalogo</text>
<text transform="matrix(1 0 0 1 7009.1753 2705.7495)" class="st2 st36">Lubilan</text>
<text transform="matrix(1 0 0 1 4425.022 3879.3015)" class="st2 st36">Mat-i</text>
<text transform="matrix(1 0 0 1 2898.739 3864.2246)" class="st2 st36">Linangkayan</text>
<text transform="matrix(1 0 0 1 1796.9404 2637.2544)" class="st2 st36">Poblacion</text>
<line class="st37" x1="3407" y1="2795.6" x2="2319.2" y2="4077.5"/>
<line class="st37" x1="3570" y1="3144.6" x2="3878.1" y2="4321.4"/>
<text transform="matrix(1 0 0 1 2154.4114 4230.1787)" class="st2 st36">Patag</text>
<text transform="matrix(1 0 0 1 3575.4897 4453.1553)" class="st2 st36">Don Pedro</text>
<ellipse class="st7" cx="4798" cy="3206.8" rx="58.4" ry="57.1"/>
<ellipse class="st10" cx="2584.2" cy="2561.2" rx="58.4" ry="57.1"/>
<ellipse class="st7" cx="2525.7" cy="2726.6" rx="58.4" ry="57.1"/>
</svg>
