<?xml version="1.0" encoding="utf-8"?>
<!-- Generator: Adobe Illustrator 27.1.0, SVG Export Plug-In . SVG Version: 6.00 Build 0)  -->
<svg version="1.1" id="Layer_1" xmlns="http://www.w3.org/2000/svg" xmlns:xlink="http://www.w3.org/1999/xlink" x="0px" y="0px"
	 viewBox="0 0 7478.1 5441.3" style="enable-background:new 0 0 7478.1 5441.3;" xml:space="preserve">
<style type="text/css">
	.st0{fill-rule:evenodd;clip-rule:evenodd;fill:#FAFAFB;}
	.st1{fill-rule:evenodd;clip-rule:evenodd;fill:#9C14E4;}
	.st2{fill:#0B0BF9;stroke:#FFFFFF;stroke-miterlimit:10;}
	.st3{fill:#F9F912;stroke:#FFFFFF;stroke-miterlimit:10;}
	.st4{fill:#F70D34;stroke:#FFFFFF;stroke-miterlimit:10;}
	.st5{fill:#8800FF;}
	.st6{font-family:'ArialMT';}
	.st7{font-size:140px;}
	.st8{fill:#7400EF;}
	.st9{fill:#7F00EF;}
	.st10{fill:#8703EF;}
	.st11{font-size:150px;}
	.st12{font-size:200px;}
</style>
<path class="st0" d="M4549.7,743.5c-16.7,16.8-29.7,30.2-28.8,29.7c1.8-1,60.5-60.3,59.7-60.3
	C4580.3,712.9,4566.4,726.6,4549.7,743.5 M4474,807.8c-7.9,8.2-18.7,19.6-24,25.5c-5.3,5.9-11.3,11.6-13.4,12.7
	c-2.1,1.1-3.2,2-2.6,2.1c2.6,0.1,9.9-6.3,18.4-16.1c5-5.7,15.4-16.8,23.1-24.7c7.7-7.9,13.7-14.3,13.4-14.3S4481.9,799.6,4474,807.8
	 M4558,860.3c0,0.4-4.2,5.2-9.4,10.7c-13.6,14.3-15.8,17.3-19.5,26.5c-3.2,8-4,9-21,26.1c-16,16.1-17.9,18.4-20.1,24.2
	c-3.8,10.2-10.3,14.1-16.6,9.9c-1.4-0.9-4.6-3.7-7.2-6.1c-3-2.9-7.6-5.6-12.9-7.8c-7.8-3.2-9.1-4.2-25.8-20.8
	c-15.7-15.7-18.3-17.8-25.4-21c-4.3-2-8.6-4.7-9.5-6c-1.6-2.2-1.7-2.3-1.7-0.4c0,2.6-7.7,10.9-10.1,10.9c-1.5,0-1.5,0.2,0.3,1.2
	c1.1,0.6,4.4,3.4,7.2,6.2c3.6,3.6,7.3,5.8,12.4,7.8c9.5,3.6,11.7,5.3,29.9,23.9c14,14.2,16.1,16,22,18.2c5.5,2.1,8.8,4.5,20.1,15
	c7.5,6.9,25.4,24.5,39.8,39.2c23.4,23.7,26.9,26.8,31.6,28.5c2.9,1,7.5,3.2,10.2,5c2.7,1.7,7.4,4.1,10.6,5.3c3.1,1.2,8.5,4,11.9,6.2
	c3.4,2.2,7.1,4,8.3,4.1c1.2,0,5.6,0.4,9.7,0.9c6.1,0.7,8.1,1.4,10.5,3.7c4.3,4.1,4.7,7.5,1.7,14.7c-1.9,4.7-2.6,8.7-3,17.3
	c-0.5,10.8-0.7,11.6-5.3,20.8c-3.6,7.2-4.8,10.8-4.7,14.3c0,6.4-1.3,10.6-5.4,17c-1.9,3-4.1,7-4.9,9c-0.8,2-3.4,7.5-5.8,12.3
	c-4.5,8.6-4.5,8.6-4.5,23.4c0,16.9-0.8,20.7-6,28.6c-3.7,5.6-3.8,6-4.4,18.8c-0.7,14.2-0.8,14.5-5.7,23.1c-1.8,3.1-4.1,7.8-5.1,10.4
	s-3.2,6.7-4.9,9.3c-1.7,2.5-4,7-5.1,9.9c-1.1,2.9-3.6,8-5.6,11.4c-2.9,4.8-3.8,7.7-4.5,13.9c-1.1,9.9-1.5,11.1-5.8,17.6
	c-2.8,4.3-3.8,7.2-4.9,14.8c-1.1,7.1-2.3,11.1-5,16c-2,3.6-4.6,9.2-5.8,12.5c-2.4,6.5-7,11.3-13.9,14.5c-3.8,1.7-7.3,1.9-35.3,1.9
	c-31.1,0-31.1,0-40.2,4.9s-9.1,4.9-26.1,5.6c-9.3,0.4-25.6,0.5-36.1,0.2c-22.9-0.6-24.8-0.2-33.3,8c-8.7,8.4-10,11.4-10.5,25.4
	c-0.4,11.6-0.4,11.6-7.9,26.7c-9.3,18.7-11,20.2-25.3,22.4c-7.7,1.2-10.6,2.1-14.9,5c-2.9,1.9-8.3,4.8-12,6.4
	c-4,1.7-8.8,4.8-11.8,7.7c-10.1,9.7-11.7,14.5-7.8,23.7c3.7,8.7,2.7,12.6-5.4,20.7c-2.1,2.1-5.3,6.6-7,10c-1.9,3.8-4.2,6.7-5.9,7.6
	c-1.6,0.8-7.2,1.7-12.6,2c-6.5,0.4-12.2,1.5-16.9,3.1c-7.6,2.7-10.7,2.5-17.6-1.2c-2-1.1-5.8-1.7-10.9-1.7c-7.2,0-8.3,0.3-13.4,3.5
	c-10.7,6.8-10.5,6.8-29.2,7.3c-15.3,0.5-18,0.8-21.6,2.8c-9,4.9-10.5,5.6-16,8.1c-3.1,1.4-8.2,4.1-11.3,6c-5.4,3.2-6.2,3.4-16,3.4
	c-13,0-17.3-1.9-26.6-11.9c-5-5.4-7.3-8.9-9.6-14.7c-2.2-5.7-4.6-9.3-9.6-14.8c-5.9-6.4-8.1-7.9-20.6-14.1
	c-13.2-6.5-14.4-6.9-21.2-6.9c-5.4,0-8.3,0.5-11.3,2.2c-15.2,8.1-14.2,7.8-25.8,8.2c-12.8,0.4-13.6,0.6-21.3,5.4
	c-4.7,2.9-7.5,3.8-14.4,4.6c-6.6,0.8-10,1.8-14.9,4.6c-3.5,2-7.4,3.6-8.6,3.6c-2.2,0-8.2-5.5-8.2-7.4c0-0.5-1.9-4-4.2-7.7
	c-3.9-6.3-5.9-13.4-6-22.4c0-0.9-1.9-4.7-4.1-8.5s-5-9.2-6.2-12.1c-1.1-2.9-3.3-7.3-4.8-9.7c-1.5-2.4-3.8-7-5-10.2
	c-1.2-3.1-3.6-7.9-5.4-10.7c-1.7-2.7-4.2-7.8-5.4-11.2c-1.7-4.5-4.3-8.4-9.8-14.4c-5.5-6-8.1-9.9-9.9-14.7
	c-1.7-4.6-4.5-8.9-9.5-14.5c-6.7-7.6-10.7-14.1-13.6-22c-1.2-3.2-1.4-3.4-1.4-1.1c-0.1,2-1.7,3.7-6.8,7.2c-6.6,4.5-6.7,4.5-9,2.6
	c-2.9-2.5,0.1,1.1,10,12c5.1,5.6,8.1,10.1,11.1,16.5c2.9,6.4,5.9,10.8,10.5,15.8c4.6,4.9,7.4,9.1,9.5,14.1c1.7,4,4.8,10,6.9,13.4
	c2.1,3.4,3.9,6.8,3.9,7.5c0,0.8,2.3,5.7,5,11c2.8,5.3,5.3,10.8,5.8,12.2c0.4,1.4,2.6,5.5,4.8,9c3.5,5.5,4.3,7.8,5.4,16.2
	c1,7.2,2.1,11,4.1,14.2c1.5,2.4,4.3,7.9,6.3,12.2c3.7,8.2,12.8,19,18.4,22c4.9,2.6,11.8,1.3,18.1-3.3c4.8-3.5,6.2-4,13.7-4.7
	c9.9-0.9,12.2-1.7,17.6-6.1c5.3-4.3,9.4-5.2,21.8-5c11,0.2,13.9-0.7,20.4-6.1c3.8-3.2,10.4-4.9,15.8-4.1c2.4,0.4,7.1,2.5,10.7,4.8
	c3.5,2.3,6.6,4.1,7.1,4.1c2.5,0,8.8,6,11,10.3c1.7,3.3,8.7,11.3,20.5,23.3c20.4,20.6,20,20.4,35.8,20.5c11,0,14.9-1,21-5.4
	c2.3-1.6,6.7-3.9,9.8-5.1c3.1-1.2,7.8-3.8,10.5-5.8c6-4.5,10.3-4.5,13.6,0c2,2.8,2.2,4.4,2.5,31.2c0.4,30.9,0.2,32.3-5.5,41.9
	c-2,3.3-4.1,7.7-4.7,9.7c-0.6,2.1-3,6.7-5.3,10.3c-3.6,5.7-4.3,7.7-5.2,15.6c-1.2,10.5-2.6,13.7-7.2,17.2
	c-4.2,3.1-26,14.7-32.7,17.4c-2.7,1.1-7.2,3.3-10,5c-2.8,1.7-7.3,3.9-10,4.9c-4.1,1.6-8.9,5.8-27.8,24.9
	c-17.5,17.6-23.9,23.5-27.5,24.9c-6.4,2.6-27.3,12.6-33,15.7c-2.5,1.4-8.6,4.5-13.4,6.8c-12.2,5.9-18.5,12.3-24.3,24.6
	c-3.2,7-6.3,11.6-11,16.6c-7.5,8-8.5,10.3-9.9,20.9c-0.8,6-1.9,9.1-4.9,14c-3.8,6.2-3.9,6.6-4.5,19.5c-0.6,11.4-1,13.7-3.3,17.7
	c-4.3,7.6-5.6,10.2-13.3,26.5c-7.6,16-16.4,31.7-18.8,33.7c-3.3,2.7-20.8,12.9-24.6,14.2c-2.3,0.8-6.4,2.9-9.2,4.6
	c-2.7,1.7-7.8,4.2-11.2,5.6c-3.4,1.4-7.4,3.4-9,4.5c-8.1,5.8-8.7,5.9-33.2,6.4c-23.2,0.5-23.2,0.5-29.5,4.5
	c-8.2,5.2-11.4,5.8-28.3,5.9c-12.6,0-14.4,0.3-18.2,2.4c-2.4,1.3-11.1,9.8-20.1,19.5c-14.1,15.3-51.5,52.4-61.8,61.4
	c-2.6,2.2-5.4,6.6-8.5,13.1c-4,8.5-6,11.3-16,21.6c-9.2,9.6-12.1,13.3-14.9,19.5c-2,4.2-4.8,9.8-6.2,12.4c-1.4,2.6-4,7.7-5.7,11.4
	c-1.7,3.7-4,8.4-5.1,10.4c-1.1,2-5.8,11.4-10.3,20.8c-6.6,13.8-9.5,18.6-14.8,24.7c-3.8,4.3-7.4,9.7-8.4,12.5
	c-2.7,7.3-5.4,11.5-12,18.5c-3.8,4-7,8.8-9.1,13.5c-1.8,4-4.5,9.4-6.2,11.9c-1.6,2.6-3.9,7-5,9.9c-1.1,2.9-3.7,7.9-5.6,11.2
	c-2.6,4.3-3.8,7.8-4.3,12.5c-0.4,3.6-1.1,7.5-1.6,8.8c-1.1,3-6.1,5.5-11,5.5c-3.7,0-6.3-1.1-16.9-7.2c-4.2-2.4-5.3-2.6-20.9-2.6
	c-17.8,0-17.5,0-30.3-7.3c-4.4-2.5-5.1-2.6-24.7-2.6c-11.1,0-21.8-0.5-23.8-1c-2-0.6-6.4-2.8-9.8-4.9c-6.2-3.9-6.2-3.9-24.2-4.5
	c-17.5-0.5-18.2-0.6-23.2-3.5c-12-7-11.5-6.8-24.7-6.8c-17.4,0-23.1-1.2-31.6-6.4c-7.1-4.3-7.1-4.3-23.8-4.5
	c-18-0.2-18-0.2-30.5-7.4c-4.4-2.5-5-2.6-25.2-2.6c-11.4,0-22.3-0.5-24.2-1c-1.9-0.6-6-2.8-9.1-4.9c-5.7-3.9-5.7-3.9-23.8-4.5
	c-17.7-0.5-18.3-0.6-23.3-3.5c-12.1-7-11.3-6.8-26.2-6.9c-17.7-0.1-21-0.7-30.1-6.3c-7.5-4.6-7.5-4.6-24-4.6
	c-17.8-0.1-17.8-0.1-30.3-7.2c-4.4-2.5-5-2.6-25.3-2.6c-22.8,0-24.7-0.3-33.4-6.2c-5.6-3.7-5.6-3.7-23.8-4.4
	c-20-0.7-24.5-1.9-27.3-7c-1.5-2.7-1.5-2.7-1,0.4c0.4,2.7-0.3,4-5.1,9.1c-3.1,3.3-5,6-4.3,6c0.7,0,4.2,2,7.8,4.4
	c6.5,4.4,6.5,4.4,25.1,5c19.3,0.6,20.3,0.8,26.9,5.8c6,4.6,8.3,4.9,31.4,5c22.1,0.1,22.1,0.1,27.1,3.2c11.8,7.4,11.2,7.3,27.3,7
	c16.8-0.3,20.4,0.4,27.3,5.4c6.6,4.8,13.4,6.1,26.7,5.2c12.8-0.8,17.7,0.2,24.8,5.2c6.5,4.6,12.5,5.7,25.9,5c13.4-0.7,17.9,0.2,25,5
	c7.9,5.4,13.2,6.3,32.1,5.5c17.9-0.7,22.9,0.2,30.6,5.5c6.5,4.5,12.2,5.5,26.2,4.9c14.2-0.7,17.1-0.1,24.4,5
	c7.7,5.3,13.9,6.6,27.4,5.7c12.3-0.8,17.8,0.3,24.1,4.8c6.9,4.9,9.1,5.4,25.1,5.2c17-0.1,19.8,0.5,27.2,5.6c7.3,5.1,14,6.1,33.1,5.3
	c17.7-0.7,21.2-0.1,28.6,5c7,4.8,12.8,6,25.3,5.2c13.9-0.9,18.4-0.1,25.8,5c5.5,3.7,7.3,4.3,15.3,5.3c5,0.6,10.9,2,13.2,3.1
	c2.6,1.3,23.9,22,56.8,55.2c29,29.2,53.8,53.6,55.1,54.1c15.5,6.3,6.5-2.2,129.8,122.2c115,116.1,115,116.1,123.6,119.6
	c8.6,3.6,8.6,3.6,55.1,50.5c26.9,27.2,46.3,46,46,44.6c-0.5-2.4,5.9-14.3,8.3-15.2c0.7-0.3-0.1-0.6-1.8-0.6c-1.7,0-4.5-0.9-6.2-2
	c-1.7-1.1-23.5-22.6-48.4-47.9c-41.6-42.2-45.8-46.1-51-48.1c-3.1-1.2-7.8-3.3-10.3-4.8c-2.9-1.7-47.8-46.2-118.6-117.8
	c-105-106-114.5-115.3-120-117.7c-3.3-1.4-7.7-3.6-9.6-4.9c-2-1.3-23.8-22.8-48.5-47.9c-34.6-35.1-45.2-46.5-46.2-49.4
	c-1.1-3.5-0.9-4.5,1.9-11.1c2-4.5,3.2-9,3.2-11.9c0-5.9,1.6-10.6,5.3-15.8c1.6-2.2,3.7-6.4,4.6-9.3c0.9-2.9,3.5-8,5.7-11.4
	c2.2-3.4,4-6.7,4-7.3c0-3.5,5.9-13,12.1-19.6c5.6-6,7.7-9.1,10-15.2c2.3-6.2,4.3-9.2,10-15.2c5.1-5.4,7.8-9.3,9.5-13.8
	c1.3-3.5,4.1-9,6-12.3c2-3.3,4.2-7.9,4.9-10.2c0.7-2.3,2.7-6.2,4.3-8.7c1.7-2.5,4.1-7.3,5.5-10.8c1.3-3.5,3.8-8.5,5.5-11.1
	c1.7-2.7,3.8-6.8,4.6-9.1c2.9-8.2,5.1-11.4,17.1-23.7c8.7-9,12.4-13.7,13.4-16.6c3-9.5,6-13.1,37.5-45.1
	c24.6-25,33.3-33.2,37.2-35.1c4.8-2.3,6.2-2.5,21.9-2.4c18.5,0.1,15.9,0.8,29.5-7.9c3-1.9,4.7-2.1,21.8-1.8
	c23.9,0.4,26.8,0,34.8-5.2c3.5-2.3,8.9-5.1,11.8-6.1c3-1,7.4-3.2,9.8-4.9s6.7-3.8,9.5-4.7c2.8-0.9,7.9-3.6,11.3-5.8
	c3.4-2.2,8.3-4.7,10.9-5.4c7.1-2,19.7-15.1,22.2-22.8c1-3.1,3.2-7.8,4.9-10.2c1.7-2.5,4.1-7.3,5.5-10.8c1.3-3.5,3.8-8.4,5.5-11.1
	c1.7-2.6,4-7.3,5.1-10.4c1.1-3.1,3.8-8.1,6-11.3c3.9-5.8,3.9-5.8,4.4-20c0.5-14.2,0.5-14.2,4.5-20c4.1-6.1,5.8-11.1,5.8-18
	c0.1-6.2,3.3-12.3,10.5-19.9c3.5-3.7,7.8-9.4,9.5-12.7c2.4-4.5,4.2-6.5,7.7-8.4c2.5-1.4,7-4,9.8-5.8c2.8-1.8,7.9-4.4,11.2-5.6
	c3.3-1.3,7.4-3.3,9.1-4.5c1.7-1.2,6.5-3.6,10.7-5.4c7.3-3.1,8.8-4.4,30.6-26.2c21.8-21.9,23.2-23.1,29.6-25.3
	c3.7-1.3,8.8-3.7,11.5-5.4c2.6-1.7,7.5-4.1,10.9-5.5c3.4-1.3,8.6-4.1,11.6-6.2c3-2.1,6-3.8,6.6-3.9c0.6,0,4.8-0.4,9.3-0.9
	c10.1-1.1,12.8-2.9,15.9-11.1c2.5-6.5,3-7.6,7.6-15c2.3-3.7,3.1-6.6,3.8-13.9c0.8-7.8,1.4-9.9,4.1-13.7c1.8-2.5,4.6-7.9,6.2-12
	c1.7-4.1,3.7-8.2,4.5-9.2c4.9-5.7,5.1-7.2,5.3-41c0.2-36.6,0-35.6,9.5-40.4c2.9-1.4,7.1-3.9,9.4-5.6c4.8-3.4,11.4-5.2,15.4-4.2
	c1.5,0.4,5.7,2.2,9.2,4.2c3.5,1.9,7.6,3.5,9.1,3.5c1.5,0,5.6-1.7,9-3.9c6.1-3.8,6.3-3.9,18.3-4.1c14.3-0.2,15.5-0.7,24.5-10
	c5-5.1,7.2-8.4,9.6-14.4c2.4-6.1,4.6-9.3,10.3-15.2c8.3-8.6,8.7-10.6,4.4-19.5c-3.7-7.7-3-10.3,4-13.8c3-1.5,7.4-4.1,9.9-5.8
	c3.6-2.5,6.5-3.4,14.2-4.5c5.4-0.8,10.8-2.1,12-2.9c1.2-0.8,7.1-6.4,13.2-12.4c10-10,11.2-11.7,14.3-19.4c1.9-4.6,3.8-8.7,4.4-9.1
	c0.6-0.3,2.1-3,3.5-6c2.1-4.5,2.5-7,2.5-15.9c0-9,0.3-10.9,2.1-13.2c3.5-4.5,7.7-5,44.7-4.8c34.4,0.2,34.4,0.2,39.3-2.8
	c11.7-7.2,7.6-6.6,47.8-6.7c45.7-0.1,46.3-0.2,50.5-12.8c1.2-3.5,3.7-8.7,5.7-11.4c2-2.8,4.3-7.3,5.2-10.1c0.9-2.8,2.8-6.7,4.2-8.7
	c4.7-7,5.8-10.2,6.6-18.7c0.7-7.8,1.2-9.1,5.2-14.8c4.1-5.9,4.5-7,5.2-15.4c0.7-7.8,1.3-9.9,4.5-15.1c2-3.3,4.4-8.1,5.3-10.6
	c0.9-2.5,3.1-7.1,5.1-10.3c1.9-3.2,4.5-8.4,5.7-11.6c1.2-3.2,3-6.9,4-8.3c4.8-6.2,5.6-9.4,6.2-23.2c0.6-13.5,0.6-13.5,5.2-20.1
	c4.6-6.6,4.6-6.6,5.1-26.2c0.5-19.6,0.5-19.6,3.9-24.3c1.9-2.6,4.7-8,6.3-11.9c1.6-3.9,4.1-8.8,5.5-10.7c3.2-4.3,4.9-10.1,4.9-16.9
	c0-5.6,1.8-10.6,5.5-15.6c1.4-1.9,3.3-6.2,4.3-9.6c1.9-6.9,3.1-8.8,5.3-8.8c2.3,0,5.4,6.2,6.1,12.4c1,9.5,1.5,11.1,5.3,17.4
	c2,3.3,4.7,8.7,6,12c1.3,3.2,3.7,7.9,5.4,10.4c1.7,2.5,3.6,6.1,4.4,8.1c0.8,2,3.4,7.5,5.9,12.3c2.9,5.6,4.5,10,4.5,12.5
	c0,6,1.9,12.9,4.5,16.3c4.2,5.6,5.7,9.6,6.6,17.9c0.7,6.4,1.8,9.8,5.2,16.3c2.7,5.2,4.3,9.5,4.3,12c0,6.4,1.7,11.5,5.7,18.1
	c3.1,5.1,4,7.9,5.1,15.8c1.1,7.7,2,10.8,5.1,16c3,5.1,4,8.2,4.8,14.6c0.6,5.2,1.9,9.6,3.5,12.3c5.7,9.8,6.5,11.9,7.5,20
	c0.8,6.3,1.9,10,4.2,14.2c1.7,3.1,4.3,8.5,5.7,11.9s4,8.4,5.7,11c1.8,2.6,3.2,5,3.2,5.5c0,0.4,3.8,8.5,8.4,18
	c4.6,9.5,8.8,18.6,9.2,20.3c0.5,2.2,0.8,2.5,0.9,1c0.2-3.3,4.3-4.6,16.6-5.3c11.2-0.6,11.2-0.6,13.3,3c2.1,3.5,12.6,12.3,14.8,12.3
	c0.6,0-1.1-1.4-3.7-3.2c-2.6-1.8-6.2-4.8-7.9-6.8c-3.9-4.5-3.5-6.4,2.6-12.9c4.6-4.8,14.9-25.1,14.9-29.2c0-1.2-1.7-5.2-3.7-8.9
	c-3.7-6.7-3.7-6.7-3.9-55.4c-0.1-48.6-0.1-48.6-4.7-55.7c-5.4-8.4-6.2-12.5-5.8-28.9c0.4-14.3,1.8-17.8,11.5-28
	c10.1-10.6,11.6-16.4,7.6-29.5c-1.2-3.8-1.8-7.8-1.5-8.8c0.3-1,2.8-3.8,5.6-6.1c3.6-3.1,5.7-5.9,7.4-10.3c1.3-3.3,3.9-8.4,5.7-11.2
	c1.8-2.9,4.4-7.3,5.7-9.9c1.9-3.6,3.8-5.4,8.4-7.9c8.7-4.7,18.8-15.2,21.4-22.3c1.2-3.2,3.7-8.3,5.6-11.5c1.9-3.2,4.5-8.5,5.8-11.9
	c3.1-8.3,7.2-12.5,15.9-16c4-1.6,9.5-4.4,12.2-6.1c2.7-1.8,7.4-4,10.3-5.1c3.5-1.3,7.5-4,12-8.3c3.7-3.5,8.3-7.4,10.3-8.6
	c2-1.2,3.1-2.2,2.4-2.2s-4.1,2.2-7.6,4.9c-3.5,2.7-7,5.3-7.6,5.8c-0.7,0.6-3.1-0.3-6.4-2.3c-2.9-1.8-6.2-3.2-7.3-3.2
	c-3.3,0-5.4-1.1-5.4-2.8c0-0.9-1-0.3-2.6,1.6c-1.7,2-5.3,4.2-10,6c-6.7,2.5-8.7,4.1-19.2,14.4c-10.5,10.3-12.2,12.5-16.2,20.9
	c-5,10.5-11.2,22-12.9,24.1c-0.6,0.8-3.9,2.9-7.2,4.6c-8.8,4.8-17.6,14.5-20.6,22.8c-2.1,5.8-4.1,8.6-14.9,20.3
	c-6.9,7.5-12.8,14.6-13.2,15.9c-0.5,1.6,0.4,4.9,2.9,10.5c5.9,13.3,4.7,18.6-5.6,24.1c-9.9,5.3-10.3,6.9-10.3,35.4
	c0,23.4,0,23.4,4.8,31.6s4.8,8.2,5.7,22.9c0.5,8,0.6,29.6,0.2,48c-0.6,32.1-0.6,33.5,1.5,38.8c2.9,7.5,2.7,10.5-1.5,20.3
	c-4.6,10.7-6.6,12.9-10.4,11.5c-3.5-1.2-9.9-10.2-12.7-18c-1.2-3.2-3.6-8.4-5.5-11.6c-1.8-3.1-4.2-8.1-5.3-10.9
	c-1.1-2.9-3.5-7.6-5.4-10.5c-2.9-4.4-3.7-7.1-4.8-14.6c-0.8-6-2-10.5-3.5-12.9c-4.4-7-6.2-12-6.9-19.4c-0.6-6.2-1.4-8.7-4.9-14.5
	c-3.5-5.8-4.3-8.3-5.1-15.3c-0.7-5.9-1.7-9.8-3.6-13.1c-5.6-9.8-6.3-11.6-7-19.1c-0.5-5.3-1.5-8.9-3.2-11.7
	c-4.6-7.6-6.6-12.4-6.7-16.1c-0.1-7-1.8-12.6-5.6-18.8c-3.1-5.1-4.1-7.9-5.1-15.5c-1-7.5-1.9-10.4-5.1-15.5
	c-2.1-3.5-4.5-8.3-5.4-10.7c-0.9-2.4-2.9-6.6-4.6-9.3s-4.2-7.6-5.6-11.1c-1.4-3.4-4-8.6-5.8-11.5c-2.5-4.1-3.5-7.1-4.1-13.3
	c-1.1-10-1.6-11.4-5.3-17c-1.7-2.5-4.1-7.2-5.4-10.5c-1.3-3.3-3.8-8-5.5-10.4c-5.6-7.8-5.4-11.8,1-19.9c1.6-2,3.6-5.7,4.5-8.3
	c0.9-2.6,3.2-7.3,5.1-10.4c1.9-3.2,4.4-8.2,5.6-11.3c1.1-3,3.8-8,5.8-11c3.1-4.6,3.9-6.8,4.5-13.2c0.4-4.2,1.1-8.5,1.5-9.4
	c0.5-1.1,0.3-1.7-0.6-1.6c-2.4,0.3-14.2-6-14.3-7.6c-0.2-4.1-5.4,9.3-5.9,15c-0.4,5-1.8,9.1-6.8,19.3c-3.4,7.2-7.5,14.9-9.1,17.3
	c-1.6,2.4-3.6,6.2-4.6,8.6c-2.8,7-8.4,8.4-15.1,3.7c-5.3-3.7-8.1-4.5-17.1-5.6c-6.6-0.8-8.9-1.6-14.2-5c-3.5-2.3-8.6-5-11.3-6
	c-9-3.4-20-11.8-20-15.3c0-3.1,4-12.3,7.8-18.1c2-3,4.7-8.4,6.1-11.9c1.4-3.5,3.9-8.6,5.6-11.3c1.7-2.7,3.8-6.9,4.7-9.5
	c0.9-2.6,3.4-7.7,5.6-11.4s4.5-8.4,5.1-10.5c0.6-2.1,2.5-5.9,4.2-8.6c1.7-2.7,4.2-7.2,5.6-9.9s3.1-5.3,3.9-5.6c1-0.4,1-0.6,0-0.6
	c-0.7,0-1.9,0.9-2.6,2c-1.6,2.6-3.3,2.6-10.2-0.2c-6.9-2.8-7.7-3.6-8.9-8.1c-0.8-3.2-0.9-2.8-0.9,3.2c0,5.5-0.5,7.7-2.7,11.4
	c-1.5,2.5-4.2,7.7-6,11.4c-12.6,26.4-15.9,33.1-17.6,35.4c-1,1.4-3.3,6-4.9,10.2c-5.5,13.7-11.8,20.9-17.1,19.5
	c-2.6-0.7-24.8-22.9-28.5-28.5c-1-1.5-1.8-4.6-1.8-6.8c0-3.6,0.7-4.7,5.6-9.5c6-5.9,7.6-8.4,11-17.8c2-5.4,4.1-8,19-23
	c9.2-9.3,18.1-19.1,19.6-21.8c1.5-2.7,3.5-5.5,4.4-6.3c0.9-0.7,1.1-1.3,0.4-1.3c-0.6,0-1.5,0.5-1.8,1c-1.3,2.1-2.3,0.9-5.6-6.3
	c-3.3-7.2-3.3-7.4-1.5-10.1c1-1.5,5-6,8.9-9.9c6.2-6.3,8.2-9.1,6.5-9.1C4558.2,859.6,4558,859.9,4558,860.3 M4305.6,969.6
	c-62.4,63.2-62.4,63.2-0.5,1.2c34-34.1,62.7-62.6,63.9-63.2c1.4-0.8,1.6-1.1,0.5-1.2C4368.6,906.4,4339.9,934.8,4305.6,969.6
	 M5165.6,1023.5c-2.7,1.4-6.6,4.7-8.7,7.2c-3.9,4.7-3.9,4.7-14.2,4.2c-6.3-0.3-10.6-1-11-1.7c-0.9-1.4-2.2,3-4.5,15
	c-0.8,4.5-2.4,9.4-3.5,10.9c-5.2,7.5-6.4,11.3-6.4,21.3c0,14.3-1.7,18.8-10.3,28.3c-5.3,5.7-8.3,10.2-11.3,16.7
	c-2.9,6.3-5.8,10.7-10.2,15.4c-4.3,4.5-7.4,9.2-10.3,15.3c-2.3,4.8-5,10.5-6.2,12.5c-1.1,2-3.5,6.7-5.2,10.4s-4.3,8.9-5.7,11.4
	c-3.8,7.1-15,30.6-15,31.5c0,0.5-1.5,3-3.2,5.6c-1.8,2.6-4.1,7.2-5.2,10.1c-1.1,2.9-3.6,8-5.6,11.4c-2.9,4.8-3.8,7.7-4.5,13.9
	c-1.1,9.8-1.6,11.3-5.2,16.6c-1.6,2.4-3.9,7.1-5.2,10.4c-1.2,3.4-3.4,8-4.9,10.3c-1.4,2.3-3.9,7.5-5.4,11.7c-1.5,4.1-4,9-5.5,10.8
	c-2.4,2.9-5.8,9.5-5.7,11.2c0,0.4,1.3-1.7,2.9-4.5c1.6-2.9,4.5-7.5,6.5-10.4c3.6-5.2,3.6-5.2,14.2-5.5c9-0.3,10.9,0,13.3,1.7
	c1.5,1.1,5.2,2.8,8.2,3.8c3,1,7.8,3.4,10.7,5.4c2.9,2,5.4,3.4,5.7,3.2c0.8-0.8-9.8-7-16.3-9.6c-7.6-3-10.1-5.7-10.1-11
	c0-4.4,5.7-17.8,10.9-25.5c3.2-4.7,3.7-6.4,4.4-14.3c0.7-7.8,1.3-9.8,4.6-15.2c2.1-3.4,4.5-8.2,5.3-10.7c0.9-2.5,3.2-7.2,5.2-10.4
	c2-3.3,4.3-7.9,5.2-10.4c0.9-2.5,3.2-7.2,5.2-10.4c2-3.3,4.3-7.9,5.2-10.4c0.9-2.5,3.2-7.2,5.2-10.4c2-3.3,4.3-7.9,5.2-10.4
	c0.9-2.5,3.2-7.2,5.2-10.4c2-3.3,4.3-7.9,5.2-10.4c2.4-7,6-12.4,12.2-18.3c4-3.9,6.3-7.1,7.8-11.3c3.4-9.1,4.8-11.4,11.8-18.9
	c3.6-3.9,7.1-8.2,7.9-9.6c0.9-1.6,1.5-7.1,1.7-14.7c0.3-13.1,0.9-15.4,5.3-22.1c1.6-2.4,3.5-6,4.3-8c2.6-6.8,12.3-24.5,14.7-26.7
	c1.3-1.2,4.7-3.4,7.5-4.8c2.8-1.5,4.7-2.7,4.1-2.7S5168.3,1022.1,5165.6,1023.5 M4145.4,1110.6c-26.8,27.3-26.8,27.3,0.3,0.3
	c25.1-25.1,27.5-27.6,26.8-27.6C4172.3,1083.2,4160.1,1095.5,4145.4,1110.6 M3721.9,1443.5c-24.7,25.2-24.7,25.2,0.5,0.3
	c13.9-13.7,25.4-25.1,25.7-25.2c0.3-0.1,0-0.3-0.5-0.3C3747.1,1418.3,3735.5,1429.6,3721.9,1443.5 M3308.7,1798.5
	c-12.9,13.4-24.3,24.7-25.4,25.1c-1.1,0.3-1.7,0.8-1.5,1.1c0.2,0.2,1.1,0.2,2-0.1c1.5-0.6,49.9-50.4,48.9-50.4
	C3332.4,1774.1,3321.6,1785.1,3308.7,1798.5 M2740.1,2342.4c-63.9,64.8-63.9,64.8,0.3,0.3c35.3-35.5,64.1-64.6,64.1-64.8
	C2804.5,2277.2,2799.5,2282.2,2740.1,2342.4 M2646.3,2441.5c0.4,1.1,1,3.6,1.3,5.4c0.5,3,0.2,3.6-3.2,5.6c-2.1,1.2-3.7,2.5-3.7,2.9
	s-1.6,2-3.7,3.6c-2.9,2.4-3.9,2.7-5.2,1.7c-1.3-1.1-1.3-0.8-0.1,2.3c0.9,2.2,1.7,10.1,2.2,21.2c0.8,17.9,1.7,22.5,5.2,23.8
	c0.9,0.4,5.1,0.6,9.3,0.6c9.9,0,11,1.3,10.2,11.9c-0.7,8.9-0.7,8.8,13.7,22.7c10.9,10.5,10.5,10.2,22.4,11.8
	c3.7,0.5,5.9,1.5,8.1,3.7c2.8,2.8,3,3.5,2.6,9.1c-0.3,4.5-1.3,7.3-3.7,11.2c-1.8,2.8-4,7.2-4.9,9.8c-0.9,2.6-3.5,7.8-5.8,11.7
	c-5,8.3-5.3,12-1.9,21.1c2.7,7.3,2.5,8.6-3,20.5c-3.1,6.7-6.1,11.2-11.2,16.8c-4.8,5.2-7.8,9.6-9.4,13.8c-1.3,3.4-3.9,8.7-5.8,11.8
	c-2.7,4.5-3.7,7.6-4.5,14.6c-0.7,5.6-1.9,10.3-3.4,13c-4.6,8.1-5.8,10.5-8.3,16.1c-1.4,3.1-4.8,9.7-7.5,14.5
	c-4.3,7.7-5.7,9.2-10.5,12c-9.4,5.3-11.2,9.8-11.3,27.1c-0.1,13.3,0.6,14.7,14.2,28.5c10.6,10.7,12.8,12.5,18.7,14.7
	c7.3,2.8,12.7,6.9,15.3,11.9c1.1,2.1,1.9,7.3,2.4,15.4c0.9,15.8,2.3,18.8,11.1,23.8c3.6,2,7,4.6,7.7,5.7c0.6,1.1,1.5,6.7,1.9,12.5
	c0.7,9.1,1.3,11.4,4.5,17.5c3.7,7.1,3.7,7.1,1.7,12.9c-1.4,4.2-1.7,6.7-1,9c1.4,5,8,11,16,14.8c8.6,4,10.2,6.7,9.5,15.5
	c-0.3,4.2-1.4,7.1-4.1,11.2c-2,3-4.4,7.6-5.4,10.2c-1,2.6-3.5,7.4-5.5,10.8c-4.5,7.4-5.4,13.4-2.9,18.4c2.2,4.3,21.5,24.4,25.7,26.6
	c1.7,0.9,6,2,9.7,2.4c3.7,0.5,7.9,1.7,9.3,2.8c1.5,1.1,4.5,5.5,6.6,9.9c4,7.9,4,7.9,0.8,17.3c-1.8,5.1-3.2,10.9-3.2,12.7
	c0,1.8-1.7,7-3.7,11.6c-3.3,7.4-3.6,8.6-2.5,11.8c1.7,5.2,11.8,14.2,19.2,17c3.3,1.3,8.5,4,11.4,6c4.3,3,6.7,3.9,12.9,4.6
	c4.2,0.5,8.3,0.9,9.2,0.9c0.9,0,4.6,2,8.2,4.4c5.8,3.8,7.6,4.4,15.3,5.2c6.7,0.7,9.7,1.6,13.2,3.8c10.6,6.7,11.3,6.9,24,7
	c11.9,0.1,11.9,0.1,19.1,4.4c4,2.4,9.9,5.4,13.1,6.6c4.2,1.6,8.2,4.3,13.6,9.4c4.2,3.9,9.9,8.3,12.6,9.7c5.9,3,7.9,5.1,12.1,12.6
	c4.3,7.7,42.5,46.8,46.6,47.7c2.2,0.5,4.8-0.4,10.1-3.2c6.9-3.6,7.6-3.8,16.7-3.6c9.4,0.2,11.4-0.2,21.6-4.5
	c5.9-2.5,8.7-1.5,15.8,5.3c4.2,4,8.1,6.6,13.3,8.8c4,1.7,8.8,4.2,10.6,5.6c6,4.6,8.5,5.1,26.6,4.9c18.8-0.2,22.6,0.5,22.6,4.4
	c0,3.1-1.4,4.3-9,7.9c-3.6,1.7-8.9,5.7-13.3,10c-6.5,6.4-7.5,7.8-8.6,13c-0.8,3.4-1.1,9.9-0.9,15.7c0.4,9.4,0.6,10.2,4.8,17.1
	c2.4,4,4.3,8.2,4.3,9.3c0,1.1-1.2,4.5-2.6,7.6c-1.4,3.1-2.6,7.3-2.6,9.4c0,8.6,7.4,10.8,35.6,10.3c17.6-0.3,17.6-0.3,23.7,3.5
	c3.4,2.1,9,5,12.5,6.4c3.5,1.4,7.8,3.6,9.4,4.8c1.6,1.2,6.8,3.8,11.4,5.7c6.6,2.8,10,5.1,16,10.8c5.4,5.2,9,7.7,12.7,9
	c2.9,1,8.1,3.6,11.6,5.9c7.8,5.1,14.8,6.6,26.7,5.6c14.5-1.2,17.7-3.5,20.4-15.4c2.6-11.2,3.8-11.4,13.2-2.9
	c7.2,6.6,11.2,8.3,19.3,8.3c5.7,0,10.3-1.7,16.5-6.2c2.4-1.7,7-4.1,10.3-5.2c3.3-1.1,7.9-3.5,10.3-5.2c2.4-1.7,7.1-4.1,10.3-5.2
	c3.3-1.1,7.8-3.5,9.9-5.2c9.1-7.3,19.3-7.2,23.8,0.2c1.1,1.9,2.1,2.9,2.1,2.2c0-2.1-5-7.4-7.6-8c-2.3-0.6-2.5-1.3-3.2-10.3
	c-0.7-9.3-0.6-9.7,1.7-11.2c1.3-0.8,5.4-4.5,9.1-8.2c6.7-6.7,6.7-6.7-0.2-0.4c-6.2,5.6-17.9,12.5-33.8,19.9c-2,0.9-8,4-13.4,6.8
	c-5.4,2.8-11.5,5.7-13.7,6.5c-2.1,0.8-5.9,2.8-8.4,4.5c-10.5,7.3-19.4,6.4-25.1-2.5c-6-9.5-11.9-16.3-16.7-19.4
	c-4.1-2.7-5.5-3-10.3-2.6c-4.6,0.4-6.1,1-8.4,3.6c-3.4,3.8-5.1,11-5.1,21.6c0,6.7-0.3,8.1-2.6,10.8c-4.7,5.7-13.5,5.3-22.6-0.9
	c-2.3-1.6-6.9-3.9-10.3-5.3c-7.6-3-10.7-5.1-18-11.9c-4.2-3.9-9.7-7.3-21.1-12.9c-16.9-8.3-19.4-9.6-26.1-13.5
	c-3.8-2.2-6.1-2.7-14.9-3c-14.1-0.5-15.6-1.4-21.9-12.6c-7-12.5-7.5-14-7.5-24.4c-0.1-11.9,1.1-14.2,8.9-17.6
	c4.8-2.1,8.4-5.1,17.3-14.3c12.8-13.2,13.8-14.6,13.8-20.1c0-4.9-2.1-9.2-5.8-11.7c-2.6-1.8-5.3-2-28.6-2.1
	c-27.8-0.1-31.1-0.6-38.9-5.6c-2.7-1.7-8.8-5-13.6-7.3c-6.2-3-9.7-5.4-12.1-8.4c-4-5.1-8.9-8.3-12.6-8.3c-1.5,0-5.8,1.6-9.6,3.6
	c-6.2,3.3-7.6,3.6-15.2,3.6c-7.7,0-10.5,0.5-23,4.3c-4.1,1.2-4.8,1.2-9.1-1.2c-7.1-3.8-21.4-19.8-25.2-28c-1.7-3.8-3.6-7.9-4.2-9.1
	c-0.6-1.2-3.2-4.6-5.7-7.6c-3.7-4.2-6.8-6.4-15.2-10.4c-7.8-3.8-12.3-6.8-17.2-11.4c-4.2-4-8.6-7.1-12.2-8.6
	c-3.1-1.2-8.3-3.9-11.6-5.9c-7-4.3-11.6-5.3-23.5-5.4c-9.1,0-9.6-0.2-20.7-6.7c-3.2-1.9-7.4-3.1-12.8-3.8c-8-1-9.2-1.5-18.3-6.7
	c-3.3-1.9-7.5-3.2-12.8-3.8c-8.5-1.1-11.6-2.4-19.2-7.9c-6.3-4.6-7.2-7-5.3-13.5c0.8-2.7,2-7.9,2.6-11.6c0.6-3.6,2.4-9,4.1-12
	c1.7-3,3.1-6.7,3.1-8.2c0-1.5-2.9-8.2-6.4-14.8c-4.7-8.8-7.8-13.4-11.5-16.7c-6.9-6.3-9.6-7.5-18.6-8.7c-8.7-1.1-12.1-2.6-16.1-6.9
	c-6.2-6.8-6.6-11.4-1.3-19c2-3,4.4-7.3,5.2-9.7c0.8-2.4,2.7-6.4,4.2-9c1.5-2.6,5-9.3,7.7-14.9c7.7-15.8,6.7-19.8-5.8-23.9
	c-5.7-1.9-7.6-3-9.5-5.9c-3-4.5-3-6.2,0.3-13.3c4.5-9.7,2.3-15.8-7.6-21.1c-6.6-3.5-9-6.7-10-13c-0.4-2.3-0.9-5.7-1.2-7.6
	c-0.3-2.3-2.7-5.8-7.3-10.9c-8.2-9.2-11.3-15-12.2-23.1c-1.2-11-2.2-12.7-14-24.6c-9.8-9.8-12.4-11.8-21.2-16.2
	c-8.9-4.4-10.4-5.6-13.2-10.1c-2.5-4.1-3.1-6.2-3.1-10.9c0-7.5,1.9-11,11.2-20.9c5.6-5.9,8-9.4,9.7-14.1c1.3-3.4,3.6-8.3,5.2-10.9
	c1.6-2.6,3.9-7.3,5.1-10.5c1.2-3.2,3.3-7.4,4.8-9.4c3.9-5.3,4.7-7.9,5.5-17.4c0.6-7.6,1.2-9.3,4.5-14.1c2.1-3,4.4-7.4,5.2-9.8
	c2.6-7.5,4.8-11,11.9-18.5c5.2-5.5,7.4-8.8,8.8-13.1c1-3.1,3.5-8,5.6-10.9c3.2-4.5,3.7-5.9,3.7-10.9c0-3.4-1-8.2-2.3-11.8
	c-2.3-6-2.3-6,1.5-15.1c2.1-5,5.6-11.8,7.7-15.1c4.6-7.2,5.5-12.1,4.5-24.4c-1.5-18-6.1-22.1-25.3-22.1c-7.1,0-9.7-0.5-13.4-2.3
	c-6.2-3.2-7.3-5.7-6.5-15.3c0.6-7.8,0.6-7.8-4.3-17.2c-6-11.5-6.6-12.2-13.5-16.1c-8-4.5-8.8-6.3-9-19c-0.1-9.1-0.6-11.8-3.1-18
	C2647,2441.2,2644.4,2436.4,2646.3,2441.5 M2352.1,3137c1.4,2.4,1.4,3.2-0.3,7.7c-1,2.7-2.6,5.7-3.5,6.6c-1.4,1.4-1.4,1.7-0.1,2.1
	c2.8,1,13.6,12.1,15.7,16.3c1.7,3.3,2.3,7,2.8,17.2c0.7,12.9,0.7,13.2,4.7,19.6c4,6.5,4,6.7,4.7,20c0.7,13.4,0.7,13.4,5.3,21.2
	c3.9,6.6,4.7,9,5.3,15.3c0.9,9.6,2.4,13.1,8.4,19.5c7.1,7.7,10.6,9.5,20.2,10.5c6.9,0.7,9.3,1.5,14.3,4.6c3.3,2,8,4.4,10.4,5.3
	s7.5,3.4,11.1,5.7c3.7,2.2,8.6,4.7,10.8,5.6c2.3,0.8,7.1,3.4,10.6,5.7c7.9,5.1,10.8,5.6,30,5.2c16.3-0.4,14.1,0.3,28.2-8.6
	c2.5-1.6,5.5-2.1,13.5-2.4c9.7-0.3,10.6-0.2,15.8,2.6c3.2,1.7,10.3,7.8,17,14.5c9.7,9.7,12.5,11.9,17.7,13.8
	c3.4,1.3,8.7,3.9,11.8,5.8c3.1,2,7.7,4.3,10.2,5.1c2.4,0.9,7.1,3.2,10.3,5.1s8.4,4.4,11.5,5.4c4.6,1.5,7.3,3.4,14.2,10.2
	c13.4,13.2,13.6,18,1.2,31.5c-4.9,5.4-7.7,9.4-9.2,13.6c-1.2,3.3-3.8,8.6-5.6,11.7c-1.9,3.1-3.7,6.9-4.2,8.3
	c-2,6.9-6.7,13.6-16.9,24.2c-9.8,10.3-11.7,12.9-16,22c-4.9,10.3-4.9,10.3-34.4,40.2c-16.2,16.4-31.8,31.3-34.6,33.1
	c-2.8,1.8-7.4,4-10.3,4.9c-4.7,1.5-7.7,4.2-26.9,23.8c-21.8,22.3-25.4,25.1-36,28.6c-3.1,1-9.2,6.4-26.4,23.8
	c-12.3,12.4-22.9,23.6-23.7,25.1c-1.9,3.7-2.6,25.7-0.9,30.8c0.9,2.6,5.7,8.8,14.4,18.2c11.7,12.7,13.4,14.9,15.3,21
	c2,6.2,4.3,9.4,8.3,11.8c0.8,0.5,9.9,1.2,20.2,1.5c18.7,0.5,18.7,0.5,24.4,4.5c3.1,2.2,8.2,4.9,11.2,6.1
	c10.1,3.9,11.9,5.5,16.7,15.5c4.1,8.5,5.7,10.6,21.5,26.7c16.1,16.4,17.6,17.7,24.4,20.4c5.6,2.2,9.2,4.7,15.4,10.4
	c5.2,4.9,9.9,8.2,13.1,9.4c2.8,1,7.6,3.4,10.7,5.3c3.1,1.9,8.3,4.5,11.5,5.7c3.2,1.2,8,3.9,10.7,6c4,3.1,6,3.9,10.7,4.2
	c5.4,0.4,6,0.2,11-3.8c6-4.8,10.8-6.4,19-6.4c4.9,0,6.6-0.6,11.9-4c3.4-2.2,8.9-5,12.2-6.3c3.3-1.2,7.9-3.6,10.2-5.3
	c2.3-1.7,6.9-4,10.1-5.1c3.2-1.1,8-3.5,10.6-5.3s7.3-4.1,10.4-5.2c3.2-1.1,7.6-3.4,9.9-5.1c2.3-1.7,7.1-4.1,10.6-5.3
	c5.3-1.8,7.8-3.5,14.3-9.9c6.1-6,9.2-8.2,14.1-10c3.4-1.3,8.4-3.9,11.1-5.8c8.2-5.9,11.5-4.8,18,6c2.4,4.1,5.3,8.8,6.5,10.6
	c1.8,2.9,2.1,5.6,2.6,22c0.5,18.7,0.5,18.7,4.3,25.5c2.7,4.8,4,8.6,4.4,13c0.4,3.4,1.1,7.8,1.7,9.8c1.6,5.2,13.4,17.3,20.6,20.9
	c3.3,1.7,5.9,2.8,5.9,2.5c0-0.3-2.2-1.6-4.9-3c-2.7-1.4-5.8-3.5-6.8-4.7c-1.9-2.1-1.9-2.3,2.3-11c2.9-6.2,4.8-8.9,6.1-8.9
	c1.5,0,1.3-0.5-1-2.2c-1.9-1.4-3.4-4.1-4.5-8c-0.9-3.2-3.5-8.9-5.7-12.6c-4.3-7.3-4.4-8.1-4-25.6c0.3-12.4-0.9-17.5-6.1-26.2
	c-2.9-4.9-4.1-8.2-4.7-13c-1.7-14.7-6-19-19.5-19c-6.7,0-9,0.5-12.4,2.4c-2.3,1.3-8.4,4.4-13.6,7c-6.9,3.3-11.6,6.6-17.2,11.9
	c-5.4,5-9.3,7.8-12.8,8.9c-2.8,0.9-7.7,3.3-10.9,5.2c-3.2,1.9-8.3,4.5-11.3,5.6c-3,1.1-7.8,3.5-10.5,5.3c-2.7,1.8-7.4,4.1-10.3,5.2
	c-2.9,1.1-7.6,3.4-10.3,5.2c-2.7,1.8-7.5,4.1-10.6,5.3c-3.1,1.2-6.8,3-8.3,4c-5.5,3.9-9.7,5.4-17.7,6.3c-6.6,0.8-9.4,1.7-14.1,4.6
	c-7.8,4.9-12.1,4.9-20.1,0c-3.3-2-6.3-3.6-6.7-3.6c-0.4,0-7.9-3.6-16.7-8c-12.7-6.3-17.3-9.2-22.3-14c-4.6-4.4-9-7.3-16.1-10.6
	c-7.8-3.6-11.1-5.9-16-11.1c-3.4-3.6-7.3-8.7-8.5-11.3s-3.3-7.2-4.7-10.1c-1.7-3.7-5.9-8.7-13.5-16.2c-8.9-8.7-12.3-11.4-17.3-13.4
	c-3.4-1.4-8-3.6-10.3-5.1c-6.3-3.9-12.3-5.4-22.6-5.4c-15.1,0-22.4-4.7-27.3-17.7c-2.8-7.4-3.6-8.3-10.6-12.9
	c-8.5-5.5-9.5-7.5-9.5-18.8c0.1-12.5,1.4-14.8,17.1-30.3c11.7-11.6,13.3-12.8,19.9-15.1c7-2.5,7.8-3.1,30.9-26
	c23.4-23.2,23.8-23.5,31.5-26.3c7.8-2.8,7.8-2.8,51.1-46.8c43.3-43.9,43.3-43.9,45.7-51.2c2.3-6.7,3.4-8.3,15.2-20.4
	c10.7-11.1,13.1-14.2,15.2-19.6c1.4-3.5,3.8-8.6,5.5-11.3c1.6-2.7,3.8-7.2,4.9-10.1c2.8-7.5,5.7-11.7,12.3-18
	c6.5-6.2,7.8-8.7,7.8-15.2c0-3.5-0.9-5.8-3.7-10.1c-2.1-3.1-4.9-8.1-6.3-11.3c-3.3-7.5-6.7-11-12.7-13c-2.7-0.9-6.9-2.9-9.4-4.5
	c-2.5-1.6-11.5-6.3-20-10.5c-8.5-4.2-17.5-8.7-20.1-10.2c-2.5-1.4-8.3-4.4-12.9-6.5c-10.2-4.9-13.3-8-17.5-17.3
	c-1.8-4-4.5-8.3-5.8-9.6c-3.6-3.4-12.5-4.7-28.6-4.2c-13.1,0.4-14.2,0.6-19.1,3.4c-12.9,7.6-12.2,7.4-28.3,7.4
	c-14.4,0-15.1-0.1-19.6-2.8c-2.5-1.6-9-5-14.3-7.6c-5.3-2.6-11-5.7-12.6-6.9c-1.6-1.2-5.8-3.3-9.2-4.7c-3.4-1.4-8-3.6-10-5
	c-4.4-2.8-9.1-4.4-15.9-5.3c-7.6-1-9.8-3.6-11.5-13.7c-1.1-6.5-2.4-10.1-5.7-15.5c-4.1-6.9-4.2-7.3-4.2-16.5
	c0-12.2-1.2-17.1-5.9-24.2c-3.8-5.7-3.8-6-4.5-19.1c-0.8-16.9-1.4-17.9-20.3-36.4C2357,3140.7,2351.2,3135.5,2352.1,3137
	 M3936.2,3170.8c-0.6,0.2-2.4,0.7-4,1.1c-1.8,0.4-6.1,3.7-10.5,8c-6,5.8-8,8.7-10.2,14.1c-1.5,3.7-4.1,8.8-5.8,11.3
	c-6.6,9.7-6.4,22.3,0.6,32.8c2,3,3.7,5.9,3.7,6.5c0,1.5,15.5,33.2,17.2,35.1c2.7,3.1,9.6,20.6,9.6,24.2c0,4.6-5,17.7-10.2,26.4
	c-2.2,3.8-4.4,8.1-4.8,9.5c-1.6,5.7-5.1,11.1-11.9,18.3c-3.9,4.2-7.1,7.8-7.1,8.2c0,0.3,3.3-2.8,7.2-7c5.1-5.4,8.3-9.8,10.9-15.3
	c2-4.3,4.6-9.4,5.7-11.4c3.4-5.9,8.8-17.9,10.2-22.4c0.7-2.3,1.7-5.2,2.2-6.6c1.4-3.6,16.4-10.3,31.2-13.8c6.9-1.7,14.9-3.7,18-4.6
	c5.5-1.6,5.5-1.6,4.8-5.5c-0.4-2.1-0.7-21.2-0.6-42.5c0.1-26.5-0.2-40.2-1.1-43.5c-1.5-6-5.6-10.2-11.9-12.4c-2.7-0.9-8.1-3.6-12-6
	c-7.1-4.3-7.2-4.4-18.6-4.7C3942.4,3170.5,3936.8,3170.5,3936.2,3170.8 M2225.6,3330.3c-32.4,33-32.4,33,0.3,0.3
	c18-18,32.7-32.9,32.7-33C2258.5,3296.8,2255.7,3299.6,2225.6,3330.3 M1935.1,3519.3c-24.1,24.3-43.5,44.3-43.3,44.5
	c0.3,0.2,20.2-19.7,44.2-44.2c24.1-24.5,43.5-44.5,43.3-44.5C1979,3475.1,1959.1,3495,1935.1,3519.3 M1891.8,3573.5
	c0,0.6,0.7,2.2,1.5,3.6c0.8,1.4,1.5,3.5,1.5,4.7c0,2.8-10,15.1-12.4,15.1c-1.5,0-1.3,0.5,1.1,3c4.9,5,3.5,11.8-3.7,17.3
	c-2,1.5-4.6,4.4-5.8,6.4c-3,4.9-2.4,13.3,1.3,18.2c6,8,6.4,9.5,7,29c0.6,20.9,0.4,20.4,11,31c9,9,9.7,11.6,9.7,37.4
	c0,26.6,0.6,28,14,32.5c5.5,1.8,7.5,3.4,15.2,11.3c4.9,5,9.4,10.4,9.9,12c0.6,1.6,1.1,6.9,1.1,11.9c0,11.8,1.3,17.2,5.7,23.7
	c4.7,7,5.6,10.4,5.6,21.7c0,13.1,0.9,15.5,9.6,25.2c5.7,6.4,8.2,10.2,10.4,15.7c2.5,6.5,4.2,8.7,15.1,19.8
	c11.3,11.5,12.8,12.6,19.1,14.8c6,2,8.2,3.6,17.8,12.7c6,5.8,16.8,16.4,23.8,23.7c11,11.3,13.6,13.5,18.1,14.9
	c2.9,0.9,7.5,3.2,10.3,4.9c2.8,1.8,8.1,4.5,11.7,6.1c3.7,1.6,9.5,4.5,12.8,6.6c6.1,3.8,6.1,3.8,18.1,3.8c10.6,0,12.2,0.2,14.2,2.1
	c3.2,3,2.8,6.5-1.4,13.4c-2,3.3-4.6,8.5-5.8,11.6c-2.7,7.2-5.2,10.6-17,22.8c-8,8.4-10.2,11.4-14.2,20c-4.5,9.6-5.6,10.9-21,26.6
	c-15.2,15.4-16.4,17-19.3,24.3c-2.7,6.9-4.4,9.1-15.1,20.3c-10.6,11-12.5,13.6-16.2,21.7c-3.9,8.6-5.3,10.3-20.6,26
	c-15.2,15.5-16.7,17.4-20.5,25.7c-3.5,7.6-5.7,10.6-15.4,20.8c-9.8,10.4-11.9,13.2-16,21.8c-4.4,9.4-5.6,10.9-21.1,26.5
	c-14.4,14.6-16.6,17.4-18.7,22.8c-2.9,7.7-5.2,10.9-17.8,24c-8.5,8.8-10.6,11.8-14.2,19.6c-3.9,8.6-5.3,10.3-20.6,26
	c-15.1,15.4-16.7,17.5-20.7,25.9c-3.6,7.7-5.9,10.9-15.4,20.8c-10,10.5-11.7,12.9-16,22.1c-4.7,10.1-5.3,10.8-21,26.5
	c-13.4,13.4-16.6,17.1-18.1,21.4c-2.9,7.9-6.2,12.5-17.7,24.4c-9.1,9.4-11.1,12.2-14.7,20.1c-3.9,8.6-5.3,10.3-20.6,26
	c-14.9,15.2-16.8,17.6-20.6,25.6c-3.5,7.4-5.9,10.6-15,20c-9.7,10-11.3,12.2-16,22c-5,10.5-5.6,11.4-20.2,25.8
	c-14.1,13.9-15.4,15.6-19.8,24.7c-4.1,8.5-6.2,11.2-16,21.3c-10.1,10.4-11.8,12.6-16.2,22c-4.8,10-5.6,11.1-20.6,26
	c-14.4,14.4-16,16.3-20.1,24.9c-3.8,7.9-6.2,11.1-15.4,20.7c-9.8,10.2-11.4,12.4-16.1,22.3c-5.1,10.7-5.6,11.4-21.4,27.2
	c-13.3,13.3-16.5,17.1-18,21.4c-2.9,7.9-6.2,12.5-17.7,24.4c-9.1,9.4-11.1,12.2-14.7,20.1c-3.9,8.6-5.3,10.3-20.7,26
	c-14.9,15.2-16.8,17.6-20.1,25c-3.1,6.9-5.5,10.1-15.3,20.3c-7.3,7.7-12.2,13.7-13.4,16.5c-1,2.4-2.6,6.4-3.6,8.7
	c-1.7,4.1-10.3,12.3-12.9,12.3c-0.6,0-0.8,0.3-0.5,0.6c0.3,0.4,2.3-0.4,4.3-1.7c2.8-1.8,4.5-2.1,7-1.6c1.8,0.4,7,1.1,11.5,1.6
	c4.5,0.5,9.4,1.2,10.8,1.6c2.6,0.7,2.6,0.7,0-0.7c-4.7-2.6-4.9-6-0.7-14.8c3.1-6.5,5.9-10.2,16-20.7c11.1-11.5,12.5-13.5,15.2-20.5
	c2.8-7.4,3.9-8.7,21.1-26.5c13.7-14.1,18.5-19.7,19.5-22.9c2.7-8.5,5.7-12.8,17.5-25c10.7-11.1,12.4-13.3,14.8-19.8
	c3.5-9.2,7.2-13.8,24.1-30.1c11.7-11.3,13.9-13.9,15.7-18.9c3.7-10,5.2-12.1,17.4-24.8c11-11.4,12.2-13.1,14.5-19.8
	c2.4-7,3.2-8,20.7-26c13.9-14.3,18.5-19.7,19.5-22.9c2.7-8.4,5.7-12.7,17.4-25c10.9-11.3,12.3-13.2,15-20.3c2.8-7.4,3.8-8.7,20.7-26
	c17.1-17.5,17.8-18.5,20.1-25.4c2.2-6.7,3.3-8.1,15.6-21c7.3-7.6,13.2-14.3,13.2-14.9c0-0.6,1-3.8,2.2-7.1
	c1.9-5.3,4.5-8.3,20.5-24.7c13.9-14.3,18.6-19.7,19.6-22.9c2.7-8.4,5.7-12.8,17.5-25c10.8-11.2,12.3-13.2,14.9-20
	c3.4-9.1,6.4-12.8,24-29.9c11.6-11.3,13.9-14,15.7-18.9c3.7-10,5.2-12,17.4-24.8c11-11.4,12.2-13.1,14.5-19.8c2.4-7,3.2-8,20.7-26
	c13.9-14.3,18.5-19.7,19.5-22.9c2.7-8.4,5.7-12.7,17.4-25c10.9-11.3,12.3-13.2,15-20.3c2.8-7.4,3.8-8.7,20.7-26
	c17.1-17.5,17.8-18.5,20.1-25.4c2.2-6.7,3.3-8.2,15.3-20.8c11.9-12.5,13.2-14.2,15.5-20.9c2.4-7,3.3-8.1,20.7-26
	c13.8-14.2,18.5-19.7,19.5-22.9c2.7-8.5,5.7-12.8,17.5-25c11-11.4,12.3-13.2,15-20.3c2.8-7.5,3.7-8.6,20.6-26
	c16.9-17.4,17.8-18.5,20.2-25.5c2.3-6.7,3.5-8.3,15.5-20.8c12.6-13.1,13.1-13.8,15.3-21.1c1.8-6.2,2.8-7.9,5.5-9.6
	c3.8-2.3,5.8-2.5,9.4-0.8c3.5,1.6,5.5,6.2,6.6,15.7c0.7,5.5,1.9,9.6,3.8,13c3.9,6.9,5.5,10,14.3,28.4c6.6,13.8,8.6,17,13.4,21.6
	c7.1,6.7,10.6,7.1,18.5,2c5.1-3.3,5.5-3.4,16.7-3.4c11.2,0,11.5,0.1,17,3.5c10.2,6.5,10.9,6.7,21.8,6.5c12.4-0.2,15.6,1.1,17.2,6.9
	c0.6,2.1,1.1,5,1.1,6.4c0,6.9,2.5,11,13.4,22.4c10,10.4,11.7,11.7,21.4,16.4c11.4,5.6,15.8,9.6,15.8,14.5c0,1.7,0.7,4.2,1.6,5.5
	c0.9,1.3,2.7,5.2,4,8.7c3.9,10.1,16.1,27.2,21.9,30.9c4.5,2.8,5.8,3.1,13.8,3.1c8.2,0,9.2-0.2,13.9-3.4c2.8-1.8,7-4.3,9.4-5.5
	c2.4-1.2,6.3-3.1,8.8-4.2c2.4-1.2,6.9-3.5,9.9-5.2c5.5-3.1,5.5-3.1,34.6-3c33.9,0.1,33.3-0.1,38.7,10.2c2.3,4.3,6.9,9.8,14.8,17.5
	c9.3,9.1,12.6,11.7,17.4,13.5c3.3,1.2,9,4.2,12.8,6.5c6.9,4.2,6.9,4.2,17.8,4.2c16.4,0,17,0.3,32.6,15.6
	c11.9,11.7,14.2,13.5,19.1,15c3.1,0.9,7.1,2.6,8.9,3.7c6.8,4.2,11.8,15.9,10,23.8c-0.4,1.8-2.5,5.9-4.7,9.2c-5,7.5-5.4,9.6-0.4,2.7
	c3.7-5.1,3.9-5.6,6.3-11.6c0.9-2.2,2-3.4,3.4-3.4c1.1,0,2.2-0.4,2.4-0.8c0.2-0.5,3-1.8,6.2-3c5.4-2,6.1-2,8.2-0.5
	c2.3,1.6,2.3,1.6,0.1-1.5c-1.2-1.7-2.7-6-3.2-9.5c-1.5-9.6-3.4-12.5-10.2-15.5c-3.2-1.4-7.5-3.5-9.5-4.6c-2-1.1-8.4-4.4-14.2-7.2
	c-9.5-4.6-11.8-6.3-22.1-16.5c-6.3-6.2-12.7-11.9-14.1-12.7c-1.5-0.8-7.9-1.6-14.9-2c-10.2-0.5-13.1-1-16.5-2.9
	c-2.3-1.3-7.9-4.2-12.6-6.5c-11.7-5.8-14.4-8.4-18.9-18.1c-4.3-9.3-8.9-15.3-15.4-19.8c-4.4-3.1-4.4-3.1-40-3.2
	c-35.6-0.1-35.6-0.1-42.2,3.5c-3.6,2-8.9,4.5-11.7,5.6c-2.8,1.1-7.1,3.4-9.6,5.2c-6.7,4.6-13.8,5.9-21.3,3.7
	c-6.5-1.9-7.4-3-8.4-11.1c-0.3-2.7-2.9-9.3-5.8-15.1c-2.9-5.7-7.5-14.9-10.2-20.4c-5.7-11.6-7.2-12.7-18.3-14.3
	c-3.9-0.6-8.5-1.5-10.1-2.2c-7.2-2.8-12.7-11.4-12.7-20.3c0-6.6,1.9-9.5,7.5-11c6.2-1.7,9-4.6,9-9.5c0-3.3-0.8-4.9-4.7-9.1
	c-9.6-10.3-18.6-11.9-27.7-4.8c-5.9,4.6-9,5.2-21.9,4.7c-9.4-0.4-10.4-0.6-16.2-4.3c-3.4-2.1-7.8-4.3-9.8-4.9
	c-5.4-1.6-20-1.2-27,0.6c-5,1.3-6.8,1.4-9.2,0.4c-3.1-1.3-10.8-12.1-13.3-18.7c-0.8-2-3.3-7.4-5.7-12c-3.3-6.3-4.5-10-5-15.5
	c-0.4-3.9-1.5-8.6-2.4-10.4c-0.9-1.8-6.9-8.5-13.3-14.8c-9.8-9.8-12.5-11.9-17.1-13.4c-3-1-8.7-3.7-12.6-6c-7-4.2-7.3-4.3-19.6-4.9
	c-13.6-0.7-14.6-1-20.9-5.3c-2.3-1.6-6.7-3.9-9.8-5.1c-3-1.2-7.7-3.5-10.3-5.2c-2.6-1.6-8.3-4.5-12.7-6.3
	c-10.9-4.6-19.9-13.7-25.4-25.6c-4.6-10-6.4-11.9-14.2-15c-3.2-1.3-8.1-3.8-11-5.6c-2.8-1.8-7.8-4.3-10.9-5.6
	c-7.5-3-11.3-7.1-15.7-16.8c-2.4-5.3-5.7-10.3-10.5-15.5c-8.7-9.6-9.8-12.3-9.8-23.7c0-11.7-1.2-16.6-5.5-23.4
	c-4.6-7.3-4.9-8.3-5.3-21.7c-0.4-10.7-0.6-11.9-3.6-16.9c-1.7-3-4.7-8.7-6.6-12.7c-4-8.5-6.7-11.3-13-13.5
	c-7.4-2.6-11.6-6.1-14.9-12.1c-3-5.5-3.1-6-3.4-21.7c-0.2-8.9-0.8-17.7-1.4-19.5c-0.6-1.9-4.3-7-8.3-11.3
	c-10.1-11-10.5-12.2-10.6-32.1c-0.1-15.2-0.3-17-2.4-21.1c-1.3-2.4-3.3-6.3-4.5-8.6c-3.5-6.8-2.2-10.5,6.9-19.3
	c7-6.8,7.6-7.7,7.6-11.5c0-2.9-1-5.7-3.2-9.3c-1.8-2.8-4.3-7.5-5.6-10.3C1896.6,3580.6,1891.8,3572,1891.8,3573.5 M1365.3,4292.6
	c-37.6,38.2-37.6,38.2,0.3,0.3c20.8-20.9,37.9-38.1,37.9-38.2C1403.4,4253.9,1400.3,4257.1,1365.3,4292.6 M942.1,5035.5
	c20.8,0.2,55.1,0.2,76.2,0c21.1-0.2,4.1-0.3-37.8-0.3S921.3,5035.3,942.1,5035.5 M1557.3,5035.5c19.2,0.2,50.2,0.2,69,0
	c18.8-0.2,3.1-0.3-34.8-0.3C1553.5,5035.2,1538.1,5035.3,1557.3,5035.5 M1775.7,5044.9c20.9,0.2,54.7,0.2,75.2,0
	c20.5-0.2,3.4-0.3-37.9-0.3C1771.6,5044.6,1754.8,5044.7,1775.7,5044.9"/>
<path class="st1" d="M4551.3,742.9c-29.8,29.9-31.2,31.2-37.3,33.2c-3.5,1.2-8.1,3.3-10.3,4.8c-6.6,4.5-33.7,31.2-47.5,46.8
	c-14,15.9-17.2,18.7-22.8,20.5c-2,0.7-5.6,2.1-7.8,3.3c-4.6,2.3-32.8,29.9-35.1,34.3c-3.6,6.9-1,11.2,9.8,16.1
	c7,3.2,9.6,5.4,25.4,21c16.7,16.6,17.9,17.6,25.8,20.8c5.3,2.2,9.9,5,12.9,7.8c2.6,2.4,5.8,5.2,7.2,6.1c6.3,4.2,12.8,0.4,16.6-9.9
	c2.2-5.8,4-8.1,20.1-24.2c17.3-17.3,17.8-18,21.2-26.4c3-7.4,4.9-10.3,13.6-20c5.6-6.3,10.6-11.4,11-11.4c2.3,0,5.4-7.9,6.3-15.8
	c0.5-4.6,1.6-9.9,2.5-11.8c0.9-1.9,7-8.7,13.6-15.2c10.7-10.5,12.9-12.2,19.5-14.8c16.2-6.3,20.7-19.9,11.7-35
	c-4.2-7-4.4-7.7-5.8-22.1c-1.2-12.6-1.5-13.6-5.5-20.3c-2.3-3.9-4.7-9.2-5.4-11.7c-1.5-5.9-2.7-7.3-6-7.3
	C4582.8,711.8,4575.8,718.3,4551.3,742.9 M4551.6,895.2c-0.9,0.7-2.8,3.5-4.4,6.3c-1.5,2.7-10.4,12.6-19.6,21.8
	c-14.9,15-17.1,17.6-19,23c-3.4,9.4-5,11.9-11,17.8c-4.9,4.8-5.6,6-5.6,9.5c0,2.2,0.8,5.3,1.8,6.8c3.7,5.7,25.9,27.9,28.5,28.5
	c5.3,1.3,11.6-5.8,17.1-19.5c1.7-4.2,3.9-8.7,4.9-10.2c1.7-2.3,5-8.9,17.6-35.4c1.8-3.7,4.5-8.8,6-11.4c3.5-5.9,3.9-15.6,0.7-20.5
	C4557.1,893.7,4555.4,892.1,4551.6,895.2 M4368.9,907.6c-1.1,0.6-30.1,29.3-64.4,63.8c-59.7,60-62.6,62.8-68,64.5
	c-9.2,2.9-14.7,7.2-30,23.5c-12.6,13.5-15.3,15.7-20.2,17.6c-3.1,1.2-7.1,2.9-8.9,3.8c-1.8,0.9-15.8,14.2-31.1,29.5
	c-25.8,25.8-28.2,28-33.5,29.6c-9.7,3.1-13.7,6.2-29.3,22.7c-14.9,15.8-15.2,16.1-23.1,19c-7.5,2.7-8.8,3.7-21.4,16.1
	c-12.4,12.1-13.9,13.3-20.6,15.7c-6.7,2.3-8.2,3.5-20.6,15.6c-9.7,9.5-14.5,13.5-17.5,14.5c-8.2,2.7-12.4,5.7-24.6,17.6
	c-11.4,11.2-13.1,12.4-19.7,14.7c-6.6,2.3-8.2,3.5-20.1,15.2c-10.9,10.8-13.9,13.1-19.1,15c-8.5,3.2-10.7,4.8-24.2,18.1
	c-8.5,8.3-13,12-16,13c-8.4,2.7-12.7,5.7-24.7,17.7c-9,8.9-13.5,12.6-16.5,13.6c-8.2,2.6-12.4,5.6-24.6,17.5
	c-6.9,6.7-13.8,13.1-15.5,14.3c-2.4,1.7-3,3-3,5.8c0,5.9,6.6,18.2,14.5,27.1c5,5.6,7.8,9.8,9.5,14.5c1.8,4.8,4.4,8.7,9.9,14.7
	c5.4,6,8.1,9.9,9.8,14.4c1.3,3.4,3.7,8.5,5.4,11.2c1.7,2.7,4.1,7.5,5.4,10.7c1.2,3.1,3.5,7.7,5,10.2c1.5,2.4,3.7,6.8,4.8,9.7
	c1.1,2.9,3.9,8.4,6.2,12.1s4.1,7.6,4.1,8.5c0.2,9,2.1,16.1,6,22.4c2.3,3.7,4.2,7.2,4.2,7.7c0,2,6.1,7.4,8.2,7.4
	c1.2,0,5.1-1.6,8.6-3.6c4.9-2.7,8.3-3.8,14.9-4.6c6.9-0.8,9.7-1.7,14.4-4.6c7.7-4.7,8.5-4.9,21.3-5.4c11.5-0.4,10.6-0.1,25.8-8.2
	c3.1-1.6,5.9-2.2,11.3-2.2c6.8,0,8,0.4,21.2,6.9c12.5,6.2,14.7,7.7,20.6,14.1c5,5.4,7.4,9.1,9.6,14.8c2.3,5.8,4.6,9.3,9.6,14.7
	c9.3,10,13.6,11.9,26.6,11.9c9.8,0,10.6-0.2,16-3.4c3.1-1.9,8.2-4.6,11.3-6c5.5-2.5,6.9-3.3,16-8.1c3.6-1.9,6.4-2.3,21.6-2.8
	c18.8-0.6,18.5-0.5,29.2-7.3c5.1-3.2,6.2-3.5,13.4-3.5c5.1,0,8.9,0.6,10.9,1.7c6.9,3.7,10,3.9,17.6,1.2c4.7-1.7,10.4-2.7,16.9-3.1
	c5.4-0.3,11.1-1.2,12.6-2c1.7-0.9,4-3.8,5.9-7.6c1.7-3.4,4.8-7.9,7-10c8.1-8.1,9.1-12,5.4-20.7c-3.9-9.2-2.3-13.9,7.8-23.7
	c3-2.9,7.8-6,11.8-7.7c3.7-1.6,9.1-4.4,12-6.4c4.3-2.8,7.2-3.8,14.9-5c14.3-2.2,16-3.7,25.3-22.4c7.5-15.1,7.5-15.1,7.9-26.7
	c0.5-13.9,1.8-17,10.5-25.4c8.5-8.2,10.4-8.6,33.3-8c10.5,0.3,26.8,0.2,36.1-0.2c17-0.7,17-0.7,26.1-5.6s9.1-4.9,40.2-4.9
	c28,0,31.5-0.2,35.3-1.9c6.8-3.1,11.5-8,13.9-14.5c1.2-3.3,3.8-8.9,5.8-12.5c2.7-4.9,4-8.9,5-16c1.1-7.6,2.1-10.5,4.9-14.8
	c4.3-6.5,4.7-7.7,5.8-17.6c0.7-6.2,1.6-9.1,4.5-13.9c2-3.3,4.5-8.4,5.6-11.4c1.1-2.9,3.4-7.4,5.1-9.9c1.7-2.5,3.9-6.7,4.9-9.3
	s3.3-7.2,5.1-10.4c4.9-8.5,5-8.9,5.7-23.1c0.7-12.9,0.8-13.3,4.4-18.8c5.2-7.9,6-11.6,6-28.6c0-14.8,0-14.8,4.5-23.4
	c2.4-4.7,5.1-10.3,5.8-12.3c0.8-2,3-6.1,4.9-9c4.1-6.3,5.4-10.6,5.4-17c0-3.5,1.2-7.1,4.7-14.3c4.6-9.2,4.8-10,5.3-20.8
	c0.4-8.6,1.1-12.6,3-17.3c3-7.2,2.6-10.6-1.7-14.7c-2.4-2.3-4.4-3-10.5-3.7c-4.2-0.5-8.5-0.9-9.7-0.9c-1.2,0-4.9-1.9-8.3-4.1
	c-3.4-2.2-8.7-5-11.9-6.2c-3.1-1.2-7.9-3.6-10.6-5.3c-2.7-1.7-7.3-3.9-10.2-5c-4.7-1.6-8.2-4.8-31.6-28.5
	c-14.4-14.7-32.4-32.3-39.8-39.2c-11.3-10.4-14.6-12.9-20.1-15c-5.9-2.2-8-3.9-22-18.2c-18.2-18.5-20.4-20.3-29.9-23.9
	c-5.1-1.9-8.7-4.2-12.4-7.8c-2.8-2.8-6.2-5.6-7.4-6.2C4376.2,906.1,4371.6,906.1,4368.9,907.6 M4593.2,924.8
	c-0.7,0.3-2.5,2.8-3.9,5.6s-3.9,7.3-5.6,9.9c-1.7,2.7-3.6,6.6-4.2,8.6c-0.6,2.1-3,6.8-5.1,10.5s-4.7,8.8-5.6,11.4
	c-0.9,2.6-3,6.8-4.7,9.5c-1.7,2.7-4.2,7.8-5.6,11.3c-1.4,3.6-4.1,8.9-6.1,11.9c-3.8,5.8-7.8,15.1-7.8,18.1c0,3.4,11,11.9,20,15.3
	c2.8,1.1,7.9,3.8,11.3,6c5.3,3.4,7.6,4.3,14.2,5c9,1,11.8,1.9,17.1,5.6c6.7,4.6,12.3,3.2,15.1-3.7c0.9-2.4,3-6.3,4.6-8.6
	c1.6-2.4,5.7-10.1,9.1-17.3c4.9-10.2,6.4-14.4,6.8-19.3c0.3-3.9,1.5-8.4,3.2-11.7c3.2-6.4,3.3-9,0.7-13.4c-1.4-2.4-3.6-3.9-8-5.5
	c-12.6-4.6-14.3-6.5-16.3-19.1c-1.8-11.1-3.3-14.3-10.7-21.9C4603.7,924.8,4598.7,922.5,4593.2,924.8 M5353.8,981.5
	c-4.6,2-7,2.3-22.2,2.4c-19.6,0.1-20.7,0.5-28.5,9.8c-3,3.5-6.4,6.2-10.8,8.2c-12.2,5.7-13.7,6.5-18.5,9.7
	c-4.9,3.2-4.9,3.2-27.3,3.4c-22.5,0.1-22.5,0.1-29.8,4.6c-4,2.5-9.1,5-11.3,5.6c-5,1.4-13.2,0.4-19.4-2.2c-2.6-1.1-6.6-2.1-8.9-2.1
	c-4.6,0-14.7,4.7-18,8.5c-2.4,2.7-11.6,20-13.8,25.9c-0.8,2-2.7,5.6-4.3,8c-4.4,6.6-5,9-5.3,22.1c-0.2,7.6-0.8,13.1-1.7,14.7
	c-0.8,1.4-4.3,5.8-7.9,9.6c-7,7.5-8.4,9.8-11.8,18.9c-1.5,4.1-3.8,7.4-7.8,11.3c-6.1,5.9-9.7,11.3-12.2,18.3
	c-0.9,2.4-3.2,7.1-5.2,10.4c-2,3.3-4.3,7.9-5.2,10.4c-0.9,2.5-3.2,7.2-5.2,10.4c-2,3.3-4.3,7.9-5.2,10.4c-0.9,2.5-3.2,7.2-5.2,10.4
	c-2,3.3-4.3,7.9-5.2,10.4c-0.9,2.5-3.2,7.2-5.2,10.4c-2,3.3-4.3,7.9-5.2,10.4c-0.9,2.5-3.2,7.3-5.3,10.7c-3.3,5.3-3.9,7.4-4.6,15.2
	c-0.7,7.9-1.3,9.7-4.4,14.3c-5.2,7.7-11,21.1-10.9,25.5c0,5.3,2.5,7.9,10.8,11.3c4,1.6,9.3,4.4,11.8,6.1c2.5,1.7,5.5,3.5,6.7,4
	c1.1,0.5,10.2,1.1,20.2,1.5c18.1,0.6,18.1,0.6,23.8,4.6c3.1,2.2,7.5,4.4,9.7,4.9c2.2,0.5,23.7,1.2,47.8,1.6
	c46,0.7,87.6-0.5,91.5-2.6c4-2.2,4.6-4.7,2.7-11.5c-1.3-4.5-1.6-9.1-1.3-17.4c0.4-10.6,0.6-11.6,4.1-18c2-3.7,4.6-9.1,5.6-11.9
	c1.2-3.3,4.3-7.7,8.4-12.1c5.7-6.1,7.7-7.5,16.6-11.3c11.4-4.9,20.9-12.5,37.9-30.5c11.6-12.3,14.8-16.9,19.4-28
	c2.8-6.6,5-10,9.7-14.9c5.4-5.5,11.3-15.4,11.4-18.9c0-0.6,1.9-4.1,4.3-7.8c2.3-3.7,5.1-9.1,6.1-12.2c1-3,2.8-6.9,4-8.5
	c1.2-1.7,3.5-6.3,5.1-10.3c1.6-4,4.4-9.4,6.2-12c6.7-9.9,6.6-28-0.3-38.4c-1.9-2.9-3.9-6.2-4.3-7.4c-0.4-1.1-0.7-13.2-0.6-26.8
	c0.1-27.2-0.3-30.4-5.7-39.3c-1.9-3.1-4.4-8.4-5.6-11.6c-1.2-3.2-3-6.7-4.1-7.7C5366.7,979,5359.8,978.8,5353.8,981.5 M4664.7,997.5
	c-1.9,1.9-2.3,3.7-3,12.3c-0.4,4.9-1.3,7.3-4.3,11.6c-2.1,3-4.7,8-5.8,11c-1.1,3-3.7,8.1-5.6,11.3c-1.9,3.2-4.2,7.8-5.1,10.4
	c-0.9,2.6-2.9,6.3-4.5,8.3c-6.4,8.1-6.6,12-1,19.9c1.8,2.5,4.3,7.2,5.5,10.4c1.3,3.3,3.7,8,5.4,10.5c3.8,5.6,4.2,7,5.3,17
	c0.7,6.1,1.6,9.2,4.1,13.3c1.8,2.9,4.4,8.1,5.8,11.5c1.4,3.4,3.9,8.4,5.6,11.1s3.8,6.8,4.6,9.3c0.9,2.4,3.3,7.3,5.4,10.7
	c3.1,5.1,4.1,7.9,5.1,15.5c1,7.5,1.9,10.4,5.1,15.5c3.8,6.2,5.5,11.8,5.6,18.8c0.1,3.7,2.1,8.4,6.7,16.1c1.7,2.8,2.7,6.4,3.2,11.7
	c0.7,7.4,1.4,9.2,7,19.1c1.9,3.3,3,7.2,3.6,13.1c0.8,7,1.6,9.5,5.1,15.3c3.4,5.7,4.3,8.3,4.9,14.5c0.7,7.4,2.5,12.4,6.9,19.4
	c1.5,2.4,2.7,6.8,3.5,12.9c1,7.5,1.9,10.2,4.8,14.6c1.9,2.9,4.4,7.7,5.4,10.5c1.1,2.9,3.4,7.8,5.3,10.9c1.8,3.1,4.3,8.3,5.5,11.6
	c2.9,7.8,9.2,16.8,12.7,18c3.8,1.4,5.8-0.8,10.4-11.5c4.2-9.8,4.5-12.8,1.5-20.3c-2.1-5.3-2.1-6.7-1.5-38.8
	c0.4-18.3,0.3-39.9-0.2-48c-0.9-14.6-0.9-14.6-5.7-22.9s-4.8-8.2-4.8-31.6c0-28.5,0.5-30.1,10.3-35.4c10.3-5.5,11.5-10.9,5.6-24.1
	c-2.5-5.7-3.4-8.9-2.9-10.5c0.4-1.3,6.4-8.4,13.2-15.9c10.8-11.7,12.9-14.5,14.9-20.3c3-8.3,11.7-18,20.6-22.8
	c3.3-1.8,6.5-3.9,7.2-4.6c1.8-2.1,7.9-13.6,12.9-24.1c4-8.4,5.7-10.6,16.2-20.9c10.5-10.3,12.5-11.9,19.2-14.4
	c7.4-2.8,12.6-7.2,12.6-10.6c0-3.2-3.1-7.5-6.8-9.2c-5-2.4-9.9-1.5-15,2.6c-7,5.7-10.3,6.5-23.6,6c-12.8-0.5-11.6-0.1-25-8.7
	c-3.1-2-5-2.1-50.1-2.1c-25.8,0-47.8-0.1-49-0.3c-1.2-0.1-5.1-2.2-8.8-4.5c-5.8-3.8-7.7-4.4-15.4-5.3c-10.3-1.2-15.2-3.6-20.9-10.6
	c-4-4.9-10.3-8.9-14-8.9C4667.2,995.8,4665.6,996.6,4664.7,997.5 M4963.4,1027.2c-1.7,0.9-5.2,2.9-7.9,4.5c-3,1.8-8,3.3-13.5,4.2
	c-10.8,1.8-13.5,3.2-22.8,11.8c-5,4.7-9.2,7.6-12.7,8.8c-2.9,1-7.5,3.3-10.2,5.1c-2.7,1.8-8.2,4.5-12.2,6.1
	c-8.7,3.5-12.8,7.7-15.9,16c-1.2,3.3-3.8,8.7-5.8,11.9c-1.9,3.2-4.4,8.4-5.6,11.5c-2.6,7.1-12.6,17.6-21.4,22.3
	c-4.6,2.5-6.5,4.3-8.4,7.9c-1.4,2.6-3.9,7-5.7,9.9c-1.8,2.9-4.4,7.9-5.7,11.2c-1.7,4.4-3.8,7.2-7.4,10.3c-2.7,2.3-5.2,5.1-5.6,6.1
	c-0.3,1,0.4,5,1.5,8.8c4,13.2,2.5,19-7.6,29.5c-9.7,10.2-11.2,13.7-11.5,28c-0.4,16.4,0.4,20.6,5.8,28.9c4.5,7,4.5,7,4.7,55.7
	c0.1,48.6,0.1,48.6,3.9,55.4c2,3.7,3.7,7.7,3.7,8.9c0,4.1-10.4,24.4-14.9,29.2c-6.9,7.3-6.9,8.6-0.1,15.1c4.1,3.9,7.8,6.3,12.8,8.2
	c3.9,1.5,9.2,4.1,11.9,5.8c2.7,1.7,7.6,4.2,10.9,5.6c3.3,1.4,7.6,3.7,9.5,5.1c5.4,4.2,8.8,5,21.4,5.3c11.5,0.2,12.1,0.4,19.1,4.1
	c9,4.8,11,4.3,16.8-4.4c2.2-3.4,9-11,15-16.8c8.9-8.6,11.5-11.9,14.1-17.5c1.7-3.8,3.7-8,4.4-9.5c0.7-1.4,5.1-6.3,9.8-10.9
	c10.7-10.4,14.7-15.7,18.3-25c2.6-6.7,4-8.4,17.2-21.3c16.1-15.7,20-20.7,23.4-29.7c1.3-3.4,3.8-8.1,5.5-10.3
	c1.7-2.2,4.3-7.4,5.8-11.4c1.5-4.1,3.9-9.3,5.4-11.6c1.4-2.3,3.6-6.9,4.9-10.3c1.2-3.4,3.6-8,5.2-10.4c3.6-5.3,4.1-6.9,5.2-16.6
	c0.7-6.2,1.6-9.1,4.5-13.9c2-3.3,4.5-8.4,5.6-11.4c1.1-2.9,3.5-7.4,5.2-10.1c1.8-2.6,3.2-5.2,3.2-5.6c0-1,11.2-24.5,15-31.5
	c1.4-2.6,4-7.7,5.7-11.4s4.1-8.4,5.2-10.4c1.1-2,3.9-7.6,6.2-12.5c2.9-6.1,6-10.8,10.3-15.3c4.4-4.6,7.3-9,10.2-15.4
	c3-6.5,6-11,11.3-16.7c8.7-9.4,10.3-14,10.3-28.3c0-10,1.1-13.8,6.4-21.3c1.1-1.6,2.7-6.5,3.5-10.9c0.8-4.5,2-9.9,2.6-12.1
	c1.3-4.8,0.6-8.4-1.9-9.6c-1-0.5-37.7-0.9-81.7-0.9C4975.1,1025.5,4966.1,1025.7,4963.4,1027.2 M4623.1,1107.4
	c-0.6,0.7-1.8,4.1-2.8,7.5c-1,3.4-2.9,7.8-4.3,9.6c-3.8,5-5.5,10-5.5,15.6c0,6.7-1.7,12.6-4.9,16.9c-1.5,2-4,6.8-5.5,10.7
	c-1.6,3.9-4.4,9.3-6.3,11.9c-3.4,4.7-3.4,4.7-3.9,24.3c-0.5,19.6-0.5,19.6-5.1,26.2c-4.6,6.6-4.6,6.6-5.2,20.1
	c-0.6,13.8-1.5,17.1-6.2,23.2c-1,1.3-2.8,5.1-4,8.3c-1.2,3.2-3.7,8.4-5.7,11.6c-1.9,3.2-4.2,7.8-5.1,10.3c-0.9,2.5-3.2,7.2-5.3,10.6
	c-3.2,5.2-3.8,7.3-4.5,15.1c-0.8,8.4-1.1,9.5-5.2,15.4c-4,5.8-4.5,7.1-5.2,14.8c-0.8,8.5-1.9,11.8-6.6,18.7c-1.4,2-3.2,6-4.2,8.7
	c-0.9,2.8-3.3,7.3-5.2,10.1c-2,2.8-4.5,7.9-5.7,11.4c-4.2,12.6-4.8,12.8-50.5,12.8c-40.1,0-36-0.5-47.8,6.7c-4.9,3-4.9,3-39.3,2.8
	c-37-0.2-41.2,0.2-44.7,4.8c-1.8,2.3-2.1,4.2-2.1,13.2c0,8.9-0.4,11.3-2.5,15.9c-1.4,2.9-2.9,5.6-3.5,6c-0.6,0.3-2.5,4.4-4.4,9.1
	c-3.1,7.7-4.3,9.4-14.3,19.4c-6,6-11.9,11.6-13.2,12.4c-1.2,0.8-6.6,2.1-12,2.9c-7.8,1.1-10.7,2-14.2,4.5c-2.5,1.7-6.9,4.3-9.9,5.8
	c-7,3.6-7.7,6.2-4,13.8c4.3,8.9,3.9,10.8-4.4,19.5c-5.6,5.9-7.8,9.1-10.3,15.2c-2.4,5.9-4.6,9.2-9.6,14.4c-9.1,9.3-10.2,9.8-24.5,10
	c-12,0.2-12.2,0.2-18.3,4.1c-3.4,2.1-7.4,3.9-9,3.9c-1.5,0-5.6-1.6-9.1-3.5c-3.5-1.9-7.6-3.8-9.2-4.2c-4.1-1-10.6,0.8-15.4,4.2
	c-2.3,1.6-6.6,4.1-9.4,5.6c-9.5,4.8-9.3,3.7-9.5,40.4c-0.2,33.7-0.4,35.3-5.3,41c-0.8,0.9-2.8,5.1-4.5,9.2c-1.6,4.1-4.5,9.5-6.2,12
	c-2.7,3.9-3.4,5.9-4.1,13.7c-0.7,7.2-1.5,10.2-3.8,13.9c-4.6,7.4-5.1,8.5-7.6,15c-3.1,8.1-5.8,10-15.9,11.1
	c-4.4,0.5-8.6,0.9-9.3,0.9c-0.6,0-3.6,1.8-6.6,3.9c-3,2.1-8.2,4.9-11.6,6.2c-3.4,1.3-8.3,3.8-10.9,5.5c-2.6,1.7-7.8,4.1-11.5,5.4
	c-6.4,2.3-7.8,3.4-29.6,25.3c-21.7,21.9-23.2,23.1-30.6,26.2c-4.2,1.8-9,4.2-10.7,5.4c-1.7,1.2-5.8,3.2-9.1,4.5
	c-3.3,1.3-8.4,3.8-11.2,5.6c-2.8,1.8-7.2,4.5-9.8,5.8c-3.6,1.9-5.4,3.9-7.7,8.4c-1.7,3.2-6,8.9-9.5,12.7
	c-7.2,7.6-10.5,13.7-10.5,19.9c-0.1,6.9-1.7,12-5.8,18c-3.9,5.8-3.9,5.8-4.5,20c-0.5,14.3-0.5,14.3-4.4,20c-2.2,3.2-4.9,8.3-6,11.3
	c-1.1,3.1-3.4,7.7-5.1,10.4c-1.7,2.6-4.1,7.6-5.5,11.1c-1.3,3.5-3.8,8.3-5.5,10.8c-1.7,2.5-3.9,7.1-4.9,10.2
	c-2.4,7.7-15.1,20.7-22.2,22.8c-2.5,0.7-7.4,3.2-10.9,5.4c-3.4,2.2-8.5,4.8-11.3,5.8c-2.8,0.9-7.1,3.1-9.5,4.7s-6.8,3.9-9.8,4.9
	c-3,1-8.3,3.8-11.8,6.1c-8,5.2-10.9,5.6-34.8,5.2c-17.1-0.3-18.8-0.1-21.8,1.8c-13.6,8.7-11,8-29.5,7.9c-15.6-0.1-17.1,0.1-21.9,2.4
	c-3.9,1.9-12.6,10.1-37.2,35.1c-31.5,32-34.4,35.6-37.5,45.1c-0.9,3-4.7,7.7-13.4,16.6c-12,12.4-14.2,15.5-17.1,23.7
	c-0.8,2.3-2.9,6.4-4.6,9.1c-1.7,2.7-4.2,7.7-5.5,11.1c-1.3,3.5-3.8,8.3-5.5,10.8c-1.7,2.5-3.6,6.4-4.3,8.7
	c-0.7,2.3-2.9,6.9-4.9,10.2c-2,3.3-4.7,8.9-6,12.3c-1.8,4.5-4.4,8.4-9.5,13.8c-5.7,6-7.7,9.1-10,15.2c-2.3,6.1-4.3,9.2-10,15.2
	c-6.2,6.6-12.1,16.2-12.1,19.6c0,0.6-1.8,3.9-4,7.3c-2.2,3.4-4.7,8.6-5.7,11.4c-0.9,2.9-3,7.1-4.6,9.3c-3.7,5.2-5.3,9.9-5.3,15.8
	c0,2.9-1.2,7.4-3.2,11.9c-2.9,6.6-3,7.6-1.9,11.1c0.9,3,11.6,14.3,46.2,49.4c24.7,25.1,46.6,46.6,48.5,47.9c2,1.3,6.3,3.5,9.6,4.9
	c5.6,2.4,15,11.6,120,117.7c70.8,71.5,115.7,116.1,118.6,117.8c2.5,1.5,7.2,3.6,10.3,4.8c5.2,2,9.4,5.9,51,48.1
	c24.9,25.3,46.7,46.8,48.4,47.9c7,4.3,12.5,2.1,23-9.4c9.4-10.4,12.2-12,23.6-14c8.2-1.4,9.4-2,19.8-8.4c14-8.7,13.6-7.5,13.8-40.1
	c0.1-25.5,0.1-25.5,3.4-30.7c1.8-2.8,4.9-8.7,6.8-13c3-6.6,5.2-9.4,14.4-18.4c8.1-7.9,12.7-11.5,18.4-14.4c17-8.7,17.6-9.7,18.4-34
	c0.7-22.3,0.7-22.2,14.2-28.9c7.8-3.9,11-6.3,18.9-14.4c11.4-11.6,11.9-13.4,5.4-20.2c-7.7-8.1-7-10.2,8.1-24.6
	c9.3-8.9,12.1-10.9,18-13.1c9.2-3.5,15-7.9,25.3-19.3c5-5.5,10.8-10.8,14.2-12.7c3.1-1.9,6.3-4.5,7-5.9c2.4-4.5,1-12.3-3.2-19.3
	c-7.1-11.6-6.1-17.5,4.6-26.3c8.4-7,26-26.2,28.2-30.9c0.9-2,2.4-7.9,3.2-13.1c0.8-5.2,2.2-10.7,3-12.3c2.5-4.9,1.8-10.6-2.5-19.9
	c-2.2-4.7-5.4-10.9-7.2-13.7c-5.2-8.2-4.7-12.3,2.7-23.1c3.3-4.8,3.4-5.4,3.1-12.8c-0.3-7-0.8-8.5-4.5-14.5
	c-4.1-6.7-4.1-6.7-4.5-19.2c-0.5-17.8-0.2-18.6,14-33.1c11-11.3,12.5-12.4,20.1-15.5c6.6-2.7,9.8-4.8,16.2-10.9
	c8.9-8.4,8.7-8.3,25.5-9.2c9.5-0.5,11.2-0.9,16.5-3.9c3.2-1.8,9.3-5.1,13.6-7.2c13.7-6.8,15.6-9.4,17-22.8c0.4-3.7,1.3-8.1,2.1-9.9
	c1.9-4.4,14-16.7,18.8-19.2c2.2-1.1,4.6-2.8,5.4-3.8c2.3-2.8,1.6-7.9-1.9-13.4c-3.6-5.7-4.3-11.2-1.8-16c0.8-1.5,4.9-6.1,9-10.2
	c7.7-7.5,8.4-7.9,18.8-9.3c7.5-1,10.9-4.8,10.9-12.3c0-4.9-0.6-6.5-4.1-11.9c-7.8-11.8-7.9-22.8-0.1-35.1c2.2-3.5,4.8-8.6,5.8-11.3
	c1.9-5.2,5-8.4,11.9-12.4c2.9-1.6,5.6-4.6,8.7-9.7c5.5-8.9,11.8-15.8,15.6-17.3c2.4-0.9,3.8-0.6,8.8,2.1c6.5,3.5,11.7,4,16.1,1.7
	c1.5-0.8,7.8-6.6,13.9-12.9c10.7-11.1,11.1-11.6,11.1-16.1c0-4.9-4.2-16.4-9-24.6c-1.5-2.6-5.4-10.1-8.7-16.7
	c-8.4-16.9-8-22,2.3-31.7c15.8-14.9,26.2-25.5,29.5-29.9c3.8-5.2,7.9-8,11.6-8c1.2,0,4.3,1.2,7,2.6c8.8,4.7,13,3.5,24.3-7.1
	c4.2-3.9,8.3-6.6,13.1-8.5c12.8-5.1,22.6-14.8,22.6-22.4c0-2.1-1-6.1-2.2-8.8c-1.2-2.7-2.6-8.2-3.2-12.3c-0.7-5.2-2.2-9.6-5.2-15.2
	c-4.2-7.9-4.2-7.9-3.5-20.9c0.4-7.2,0.2-17.6-0.3-23.2c-0.9-9.8-1.2-10.6-5.9-17.9c-2.7-4.2-5.9-9.2-7-11.1s-4.6-4.8-7.6-6.6
	c-3.1-1.7-6.4-4.4-7.5-5.8c-4.3-5.8-4.8-27.5-0.9-35.3c2-4,12.3-14.4,16.5-16.7c1.6-0.9,8.1-1.6,17.4-2c14.6-0.6,14.8-0.7,17.3-3.5
	c3.1-3.7,3.3-10.6,0.4-16.3c-3.2-6.4-2.7-11.1,1.9-18.4c2.2-3.4,4.5-7.9,5.2-10c0.7-2.1,3.1-6.7,5.4-10.3c3.2-4.9,4.4-8.2,5.2-13.3
	c1.8-12.2,2.7-14.3,9.1-21.2c8.4-9.1,11.3-10.3,24.7-10.5c9.3-0.1,11.5-0.5,15.8-2.6c6.5-3.3,10.3-7.8,12.5-14.7
	c1-3.1,3.4-8.2,5.4-11.4c2.7-4.5,3.8-7.7,4.5-13.8c0.5-4.4,1.4-9.2,2-10.7c0.6-1.5,6.4-8.3,13-15c10.4-10.6,12.8-12.6,18.7-14.9
	c3.7-1.5,8.1-3.7,9.7-4.9c1.6-1.2,6.5-3.6,10.9-5.5c6.9-2.9,15.9-8.1,23.6-13.6c3-2.1,9.6-13.6,10.3-17.8c0.4-2.6-1.2-6.9-8.3-21.4
	c-4.9-10-8.9-18.5-8.9-18.9c0-0.4-1.4-2.9-3.2-5.5c-1.8-2.6-4.3-7.5-5.7-11s-3.9-8.8-5.7-11.9c-2.3-4.2-3.4-7.9-4.2-14.2
	c-0.7-5.7-1.8-10-3.4-12.7c-5.8-9.9-6.6-12.1-7.6-19.7c-0.8-6.2-1.8-9.4-4.8-14.4c-3.1-5.2-4.1-8.3-5.1-16c-1.1-7.8-2-10.7-5.1-15.8
	c-4-6.6-5.6-11.7-5.7-18.1c0-2.5-1.5-6.8-4.3-12c-3.4-6.4-4.4-9.8-5.2-16.3c-0.9-8.3-2.4-12.3-6.6-17.9c-2.6-3.4-4.5-10.3-4.5-16.3
	c0-2.5-1.6-6.9-4.5-12.5c-2.4-4.7-5.1-10.3-5.9-12.3c-0.8-2-2.8-5.7-4.4-8.1c-1.7-2.5-4.1-7.2-5.4-10.4c-1.3-3.2-4-8.6-6-12
	c-3.8-6.3-4.2-7.9-5.3-17.4C4630.7,1109.5,4626.2,1103.6,4623.1,1107.4 M3716.7,1449.8c-30.9,31.5-31,31.6-38.1,34.1
	c-7,2.4-7.7,3.1-30.8,26c-23.1,23-23.9,23.6-30.7,25.9c-3.9,1.3-9.2,4.1-11.8,6.2c-2.7,2.1-15.8,15.1-29.1,28.8
	c-22.1,22.7-24.7,25.1-29.9,26.9c-3.1,1.1-7.1,2.9-8.8,4c-1.7,1.1-13.1,12-25.2,24.2c-21.4,21.4-22.4,22.2-28.9,24.3
	c-3.7,1.2-8.2,3.3-9.9,4.6c-6.8,5.1-20.9,18.9-37.1,36.4c-15.2,16.4-17.7,18.7-22.7,20.6c-10.2,3.9-12,5.3-34.8,28.1
	c-22,21.9-22.9,22.7-29.5,24.9c-9.1,3-15.2,8.3-42,36.2c-20.7,21.6-22.4,23.1-28.3,25.3c-3.5,1.3-7.7,3.3-9.4,4.4
	c-1.7,1.1-13.1,12-25.2,24.1c-21.1,21-22.5,22.2-28.7,24.2c-9,3-14.6,7.7-35.5,29.7c-18.1,19-18.1,19-26.1,22
	c-7.6,2.8-8.8,3.7-21.4,16.1c-12.5,12.3-13.9,13.3-20.6,15.6c-6.7,2.2-8.1,3.3-20.6,15.6c-11.5,11.3-14.2,13.5-19.1,15.1
	c-8.1,2.7-9.9,4.1-28.8,22.9c-16.4,16.3-17.3,17-24.2,19.2c-6.8,2.2-8,3.2-20.6,15.6c-9.8,9.6-14.5,13.6-17.5,14.6
	c-7.9,2.5-13.4,6.1-19.2,12.2c-6,6.3-8.3,10-10.8,17.3c-0.8,2.3-2.9,6.4-4.6,9.1c-1.7,2.7-4.2,7.8-5.6,11.3c-1.8,4.7-4.4,8.5-9.6,14
	c-5.7,6.1-7.7,9-10,15.2c-2.6,7-4,8.8-15,20.2c-12,12.3-14.2,15.4-17.1,23.7c-0.8,2.3-2.8,6.4-4.5,9c-1.6,2.6-4,7.5-5.3,11
	c-1.8,5-3.9,7.9-10.1,14.2c-6.6,6.7-9,8.4-15.4,10.8c-5.9,2.2-9,4.3-14.2,9.3c-7.2,7-8.2,10.1-5.1,16.2c2.7,5.3,7.1,6.5,27.3,7.2
	c18.2,0.7,18.2,0.7,23.8,4.4c8.7,5.8,10.6,6.2,33.4,6.2c20.3,0,20.9,0.1,25.3,2.6c12.5,7.2,12.5,7.2,30.3,7.2c16.5,0,16.5,0,24,4.6
	c9.1,5.6,12.4,6.3,30.1,6.3c14.9,0,14.1-0.2,26.2,6.9c5,2.9,5.6,3,23.3,3.5c18.2,0.5,18.2,0.5,23.8,4.5c3.1,2.2,7.2,4.4,9.1,4.9
	c1.9,0.6,12.8,1,24.2,1c20.2,0,20.8,0.1,25.2,2.6c12.5,7.2,12.5,7.2,30.5,7.4c16.7,0.2,16.7,0.2,23.8,4.5c8.5,5.2,14.3,6.3,31.6,6.4
	c13.2,0,12.7-0.1,24.7,6.8c5,2.9,5.7,3,23.2,3.5c18,0.5,18,0.5,24.2,4.5c3.4,2.1,7.8,4.4,9.8,4.9c2,0.6,12.7,1,23.8,1
	c19.7,0,20.3,0.1,24.7,2.6c12.8,7.4,12.5,7.3,30.3,7.3c15.6,0,16.7,0.2,20.9,2.6c10.7,6.2,13.2,7.2,16.9,7.2c4.9,0,9.8-2.5,11-5.5
	c0.5-1.3,1.2-5.2,1.6-8.8c0.5-4.7,1.8-8.2,4.3-12.5c2-3.3,4.5-8.4,5.6-11.2c1.1-2.9,3.4-7.3,5-9.9c1.6-2.6,4.4-7.9,6.2-11.9
	c2.1-4.7,5.3-9.5,9.1-13.5c6.6-7,9.3-11.2,12-18.5c1-2.8,4.6-8.2,8.4-12.5c5.3-6.1,8.2-10.9,14.8-24.7c4.5-9.4,9.2-18.8,10.3-20.8
	c1.1-2,3.4-6.7,5.1-10.4c1.7-3.7,4.2-8.9,5.7-11.4c1.4-2.6,4.2-8.1,6.2-12.4c2.9-6.2,5.8-10,14.9-19.5c9.9-10.3,11.9-13.1,16-21.6
	c3.1-6.5,5.9-10.9,8.5-13.1c10.3-8.9,47.7-46.1,61.8-61.4c8.9-9.7,17.7-18.2,20.1-19.5c3.8-2.1,5.7-2.3,18.2-2.4
	c16.8,0,20-0.7,28.3-5.9c6.3-4,6.3-4,29.5-4.5c24.6-0.6,25.1-0.7,33.2-6.4c1.6-1.1,5.6-3.2,9-4.5c3.4-1.4,8.4-3.9,11.2-5.6
	c2.7-1.7,6.9-3.8,9.2-4.6c3.8-1.4,21.3-11.5,24.6-14.2c2.5-2.1,11.2-17.8,18.8-33.7c7.8-16.3,9.1-18.9,13.3-26.5
	c2.3-4,2.7-6.3,3.3-17.7c0.6-12.9,0.7-13.3,4.5-19.5c3-4.9,4.1-8,4.9-14c1.4-10.6,2.5-12.9,9.9-20.9c4.7-5.1,7.7-9.7,11-16.6
	c5.8-12.4,12.1-18.8,24.3-24.6c4.8-2.3,10.8-5.4,13.4-6.8c5.6-3.1,26.6-13.1,33-15.7c3.6-1.4,10-7.3,27.5-24.9
	c18.9-19.1,23.7-23.3,27.8-24.9c2.7-1,7.2-3.2,10-4.9c2.8-1.7,7.2-3.9,10-5c6.7-2.7,28.5-14.3,32.7-17.4c4.7-3.5,6-6.7,7.2-17.2
	c0.9-7.9,1.6-10,5.2-15.6c2.3-3.6,4.7-8.2,5.3-10.3c0.6-2.1,2.8-6.4,4.7-9.7c5.7-9.5,5.9-11,5.5-41.9c-0.3-26.7-0.5-28.4-2.5-31.2
	c-3.3-4.4-7.6-4.4-13.6,0c-2.7,2-7.4,4.6-10.5,5.8c-3.1,1.2-7.5,3.5-9.8,5.1c-6.1,4.4-10.1,5.4-21,5.4c-15.8,0-15.4,0.2-35.8-20.5
	c-11.8-12-18.8-20-20.5-23.3c-2.2-4.4-8.5-10.3-11-10.3c-0.4,0-3.6-1.8-7.1-4.1c-3.5-2.3-8.2-4.4-10.7-4.8c-5.4-0.8-12,0.9-15.8,4.1
	c-6.4,5.4-9.4,6.3-20.4,6.1c-12.3-0.2-16.5,0.7-21.8,5c-5.4,4.3-7.7,5.1-17.6,6.1c-7.5,0.7-9,1.2-13.7,4.7
	c-6.3,4.6-13.2,5.9-18.1,3.3c-5.7-3-14.8-13.8-18.4-22c-1.9-4.3-4.7-9.7-6.3-12.2c-2-3.2-3.1-7-4.1-14.2c-1.2-8.4-1.9-10.7-5.4-16.2
	c-2.2-3.5-4.4-7.6-4.8-9c-0.4-1.4-3-6.9-5.8-12.2c-2.8-5.3-5-10.3-5-11c0-0.8-1.8-4.1-3.9-7.5c-2.1-3.4-5.2-9.4-6.9-13.4
	c-2.1-5.1-4.9-9.3-9.5-14.1c-4.6-4.9-7.6-9.5-10.5-15.7c-3.1-6.9-6.1-11-13.6-19.4c-8.2-9-10.1-10.7-12.8-10.7
	C3748.1,1418.2,3744,1421.9,3716.7,1449.8 M2809.7,2275.6c-3.5,1.6-19.7,17.3-69,67c-64.4,64.9-64.4,64.9-71.2,67.1
	c-8.9,2.9-12,6.4-18,19.6c-5.3,12-5.3,9.3,0,23.9c1.1,3,1.5,7.5,1.4,13.7c-0.2,11.1,0.8,13.2,8.8,17.8c6.8,3.9,7.4,4.6,13.5,16.1
	c4.9,9.3,4.9,9.4,4.3,17.2c-0.7,9.6,0.4,12.2,6.5,15.3c3.7,1.9,6.3,2.3,13.4,2.3c19.2,0,23.8,4,25.3,22.1c1,12.3,0.1,17.2-4.5,24.4
	c-2.1,3.3-5.6,10.1-7.7,15.1c-3.8,9.1-3.8,9.1-1.5,15.1c1.3,3.5,2.3,8.4,2.3,11.8c0,5-0.4,6.4-3.7,10.9c-2,2.8-4.6,7.7-5.6,10.9
	c-1.4,4.3-3.6,7.5-8.8,13.1c-7.1,7.6-9.3,11-11.9,18.5c-0.8,2.4-3.2,6.7-5.2,9.8c-3.3,4.8-3.8,6.5-4.5,14.1
	c-0.8,9.5-1.6,12.1-5.5,17.4c-1.5,2-3.6,6.2-4.8,9.4c-1.2,3.2-3.5,7.9-5.1,10.5c-1.6,2.6-4,7.5-5.2,10.9c-1.7,4.7-4.2,8.2-9.7,14.1
	c-9.3,9.8-11.2,13.4-11.2,20.9c0,4.7,0.6,6.8,3.1,10.9c2.7,4.5,4.2,5.7,13.2,10.1c8.9,4.4,11.4,6.3,21.2,16.2
	c11.8,11.9,12.8,13.6,14,24.6c0.9,8.2,4,14,12.2,23.1c4.8,5.3,6.9,8.6,7.3,11.2c0.3,2,0.8,5.4,1.2,7.6c1,6.1,3.4,9.3,9.9,12.8
	c10,5.4,12.2,11.4,7.6,21.1c-3.3,7-3.3,8.8-0.3,13.3c1.9,2.8,3.8,4,9.5,5.9c12.5,4,13.5,8.1,5.8,23.9c-2.7,5.6-6.2,12.3-7.7,14.9
	c-1.5,2.6-3.4,6.7-4.2,9c-0.8,2.4-3.2,6.7-5.2,9.7c-5.2,7.7-4.9,12.3,1.3,19c4,4.3,7.4,5.8,16.1,6.9c9.1,1.2,11.8,2.4,18.6,8.7
	c3.7,3.4,6.9,7.9,11.5,16.7c3.5,6.6,6.4,13.3,6.4,14.8c0,1.5-1.4,5.2-3.1,8.2c-1.7,3-3.5,8.4-4.1,12c-0.6,3.6-1.7,8.8-2.6,11.6
	c-1.9,6.4-1,8.8,5.3,13.5c7.6,5.6,10.7,6.9,19.2,7.9c5.3,0.7,9.4,1.9,12.8,3.8c9.1,5.3,10.3,5.7,18.3,6.7c5.4,0.7,9.6,1.9,12.8,3.8
	c11.1,6.4,11.6,6.6,20.7,6.7c11.9,0.1,16.5,1.1,23.5,5.4c3.2,2,8.5,4.6,11.6,5.9c3.6,1.5,8,4.5,12.2,8.6c4.8,4.6,9.3,7.6,17.2,11.4
	c8.4,4.1,11.6,6.2,15.2,10.4c2.5,2.9,5.1,6.3,5.7,7.6c0.6,1.2,2.5,5.3,4.2,9.1c3.8,8.3,18.2,24.3,25.2,28c4.3,2.3,5,2.4,9.1,1.2
	c12.5-3.8,15.3-4.3,23-4.3c7.6,0,9-0.3,15.2-3.6c3.7-2,8-3.6,9.6-3.6c3.7,0,8.6,3.2,12.6,8.3c2.4,3,5.9,5.4,12.1,8.4
	c4.8,2.3,10.9,5.6,13.6,7.3c7.8,5,11.1,5.5,38.9,5.6c23.4,0.1,26,0.3,28.6,2.1c3.8,2.5,5.9,6.8,5.8,11.7c-0.1,5.5-1.1,7-13.8,20.1
	c-8.9,9.2-12.5,12.2-17.3,14.3c-7.9,3.4-9,5.7-8.9,17.6c0.1,10.4,0.6,11.9,7.5,24.4c6.2,11.2,7.8,12.1,21.9,12.6
	c8.8,0.3,11.1,0.8,14.9,3c6.7,3.9,9.3,5.2,26.1,13.5c11.4,5.6,16.9,9,21.1,12.9c7.3,6.9,10.5,8.9,18,11.9c3.4,1.3,8,3.7,10.3,5.3
	c9.1,6.2,17.9,6.5,22.6,0.9c2.3-2.8,2.6-4.1,2.6-10.8c0-10.5,1.7-17.7,5.1-21.6c2.3-2.6,3.8-3.3,8.4-3.6c4.8-0.4,6.2,0,10.3,2.6
	c4.8,3.1,10.6,9.9,16.7,19.4c5.6,8.9,14.6,9.8,25.1,2.5c2.5-1.7,6.2-3.7,8.4-4.5c2.1-0.8,8.3-3.7,13.7-6.5
	c5.4-2.8,11.4-5.8,13.4-6.8c16.2-7.5,27.6-14.2,33.4-19.7c3.9-3.7,9.1-7.3,13-9.1c3.6-1.6,8.8-4.4,11.6-6.2c2.7-1.8,7.6-4,10.7-5
	c6.7-2.1,11.9-6.9,15.1-13.8c2.1-4.5,2.2-6.4,2.2-36.5c0-29.1,0.2-32,1.9-35.4c2.4-4.6,20.7-23.6,24.7-25.7c4.2-2.2,11.4-2,15.4,0.6
	c9.9,6.3,11.2,6.7,23.9,7.4c12.5,0.7,16,1.7,22,6.4c1.3,1,5,2.9,8.2,4.1c7.6,2.8,10.1,5.3,13.7,13.3c1.6,3.6,4.3,8.5,5.9,10.9
	c4.3,6.5,4.6,7.4,5.3,21.7c0.6,12.9,0.7,13.3,4.4,18.7c2,3.1,4.1,6.3,4.6,7.1c0.5,0.8,1.1,7.7,1.5,15.1c0.6,13.3,0.7,13.8,4.3,19.8
	c2,3.4,5.1,9.2,6.9,12.9c5.7,12.1,9.5,15,19.6,15c6.9,0,7.7-0.2,17.6-6c3.2-1.8,7.4-3,13.3-3.8c7.6-1,9.5-1.7,15.5-5.6
	c3.7-2.5,8.3-5.4,10.2-6.5c1.9-1.1,5-4.6,7-8c2-3.3,7.1-9.1,11.4-13c4.3-3.9,13.8-13.7,21.1-21.9c13-14.4,13.5-14.8,17.5-14.8
	c3.7,0,4.9,0.7,11,6.7c5,4.9,9.2,7.8,15.6,10.7c11.3,5.3,20.1,13.7,23.7,22.7c1.3,3.4,4.3,8.9,6.6,12.2c5.8,8.4,5.8,13.8,0.3,21.8
	c-2.2,3.2-4.9,8.3-6,11.3c-1.1,3-3.7,8.1-5.6,11.3c-1.9,3.2-4.2,7.8-5.1,10.4c-0.9,2.6-3.3,7.1-5.3,10c-3.2,4.7-3.7,6.4-4.5,14.4
	c-0.7,8-1.2,9.7-4.6,14.5c-6.4,9.3-4.4,15.1,5.4,16c5,0.5,7.6-0.4,17.7-6c3.3-1.8,5.7-2,27.9-2c26.8,0,23.4-0.6,37.5,7.1
	c4,2.2,14.4,2.2,18.5,0c1.7-0.9,5.2-2.9,7.8-4.4c3.1-1.8,7.4-3.1,12.6-3.8c12.8-1.6,16.4-4.6,23.3-18.7c2.4-4.9,5.4-11,6.7-13.5
	c1.5-2.9,2.8-7.8,3.4-12.8c0.8-6.3,1.8-9.5,4.5-14.1c1.9-3.3,4.4-8.3,5.5-11.1c1.2-3.3,4.4-7.8,8.8-12.5
	c6.6-7.1,10.1-12.5,11.7-18.1c0.4-1.4,2.6-5.7,4.8-9.5c5.1-8.7,10.2-21.8,10.2-26.4c0-3.6-6.9-21.1-9.6-24.2
	c-1.7-2-17.2-33.7-17.2-35.1c0-0.5-1.7-3.4-3.7-6.5c-7-10.4-7.2-23.1-0.6-32.7c1.7-2.5,4.3-7.5,5.8-11.2c1.9-4.8,4.5-8.5,9.1-13.3
	c9.5-9.8,10.3-10.1,26-10.1c13.4,0,13.4,0,20.7,4.4c4,2.4,9.4,5.2,12.1,6.1c6.4,2.2,10.4,6.4,11.9,12.4c0.8,3.3,1.2,17.3,1.1,44.5
	c-0.1,24.3,0.3,40.7,0.9,42.3c0.8,2,0.9,1,0.6-4.4c-0.4-7-0.4-7,3.9-9.3c2.8-1.5,7-2.4,11.8-2.7c6.8-0.5,8-0.2,14.2,2.8
	c4.9,2.4,7.5,4.6,9.8,7.9c3.2,4.8,4,5.3,5.7,3.7c0.5-0.5,4.9-2.5,9.6-4.4c7.2-2.8,10-4.7,16.5-10.9c6.3-6,9.4-8,15.5-10.4
	c6.4-2.5,8.9-4.2,15-10.3c6-6,7.9-8.9,10.7-15.6c1.9-4.5,4.5-9.9,5.8-12c1.3-2,3.6-6.5,5-10c1.4-3.4,4.2-9,6.2-12.4
	c3.6-5.9,4.3-8.9,3.8-15.7c-0.5-6.3-4.5-12.4-16-24c-9.6-9.7-11.8-12.5-13.8-17.7c-1.3-3.4-4.1-9.2-6.3-13c-2.2-3.7-5-9.5-6.2-12.8
	c-1.6-4.5-3.9-7.8-8.8-12.7c-5.2-5.3-7.7-9-11.7-17.5c-4-8.4-6.2-11.7-9.7-14.6c-3.7-3-5.9-6.6-11.8-18.6c-4.6-9.4-7.5-16.7-8-20
	c-0.8-6.4-2.8-10.5-5.8-12.2c-1.8-1-12-1.2-43-1c-45.6,0.3-40.5,1-54.3-7.6c-4.9-3.1-4.9-3.1-37.4-3.2c-35.2-0.1-35.1-0.1-42.5-6.2
	c-1.5-1.3-5.8-3.4-9.5-4.6c-7.3-2.4-9.8-5-9.8-9.7c0-4.5,2.4-8.2,8.6-13.6c4.7-4,6.1-6.1,8.5-12.4c2.8-7.3,3.5-8.2,24.3-28.9
	c21.4-21.3,21.4-21.3,26.2-31.7c4.2-9.2,5.9-11.6,14.9-21c5.6-5.8,10.5-11.8,10.8-13.3c0.4-1.5,0.4-4.5,0-6.6
	c-0.6-3.4-6.4-9.6-47.2-50.8c-46.6-46.9-46.6-46.9-55.1-50.5c-8.6-3.6-8.6-3.6-123.6-119.6c-123.3-124.5-114.3-116-129.8-122.2
	c-1.3-0.5-26.1-24.9-55.1-54.1c-32.9-33.2-54.3-53.9-56.8-55.2c-2.3-1.2-8.1-2.6-13.2-3.1c-8-0.9-9.8-1.5-15.3-5.3
	c-7.4-5-11.9-5.9-25.8-5c-12.5,0.8-18.3-0.4-25.3-5.2c-7.4-5.1-10.9-5.7-28.6-5c-19.1,0.8-25.8-0.3-33.1-5.3
	c-7.4-5.1-10.2-5.7-27.2-5.6c-16,0.1-18.2-0.3-25.1-5.2c-6.3-4.5-11.8-5.6-24.1-4.8c-13.5,0.9-19.7-0.4-27.4-5.7
	c-7.4-5-10.3-5.6-24.4-5c-14,0.7-19.7-0.4-26.2-4.9c-7.7-5.3-12.7-6.2-30.6-5.5c-18.9,0.8-24.1-0.1-32.1-5.5c-7.1-4.8-11.6-5.7-25-5
	c-13.4,0.7-19.3-0.4-25.9-5c-7.2-5-12-6-24.8-5.2c-13.3,0.9-20-0.5-26.7-5.2c-7-5-10.5-5.7-27.3-5.4c-16.1,0.3-15.5,0.4-27.3-7
	c-5-3.1-5-3.1-27.1-3.2c-23.2-0.1-25.5-0.5-31.4-5c-6.5-5-7.6-5.2-26.9-5.8c-18.7-0.5-18.7-0.5-24.2-4.4
	C2823.6,2272.8,2817.9,2271.9,2809.7,2275.6 M2625.9,2460.5c-0.4,0.4-2.3,4.1-4.1,8.1c-4.8,10.4-15.5,21.4-23.3,23.9
	c-3.1,1-8,3.3-10.8,5.2c-2.8,1.9-8,4.5-11.5,5.7c-8.1,2.9-12,7-15.9,16.7c-2.9,7.2-4.3,8.9-20.9,25.9
	c-17.2,17.6-17.9,18.4-20.2,25.5c-2,6-3.6,8.5-9.5,14.8c-6.2,6.6-12.1,16.2-12.2,19.6c0,0.6-1.5,3.4-3.3,6.2
	c-1.8,2.8-4.3,7.9-5.7,11.3c-1.3,3.4-4.1,8.6-6.2,11.7c-3.4,4.9-3.9,6.5-4.5,14.3c-0.5,5.8-1.3,9.7-2.7,11.9
	c-8.9,14.3-8.1,8.6-7.8,55.9c0.3,47.8,1,42.6-7.4,56.2c-2.8,4.6-3,5.4-2.9,15.5c0.2,12.7-0.6,15.7-5.7,23.2
	c-3.9,5.7-3.9,5.7-4.4,19.4c-0.3,7.5-0.9,14.4-1.4,15.2c-0.5,0.9-2.5,4-4.5,7c-3.2,4.8-3.7,6.5-4.3,14.2c-0.6,7.8-1.2,9.5-4.9,15.9
	c-2.3,3.9-5,9.2-5.9,11.8c-0.9,2.6-3.3,7.1-5.3,10.1c-3.3,4.9-3.8,6.4-4.7,15.6c-0.5,5.6-0.8,17.8-0.5,27.1
	c0.6,19.2,0,22.7-4.2,28.8c-3.8,5.3-4.3,7-5.3,17.3c-0.7,7.1-1.4,9.1-4.6,13.8c-2.1,3-4.7,8.1-5.9,11.2c-1.2,3.1-3.8,8.2-5.9,11.3
	c-3.8,5.6-3.8,5.6-4.5,20.3c-0.4,8.1-0.7,14.9-0.8,15c-0.1,0.2-3.7,4.2-8.2,8.8c-6.6,7-8.6,9.8-10.9,15.9c-1.5,4.1-4.4,9.7-6.4,12.5
	c-2,2.8-3.6,5.4-3.6,5.9s-1.7,4.4-3.7,8.7c-5.5,11.4-5,12.5,13.2,30.4c19,18.7,19.5,19.6,20.3,36.5c0.6,13.2,0.7,13.4,4.5,19.1
	c4.7,7.1,5.8,11.9,5.9,24.2c0,9.2,0.1,9.6,4.2,16.5c3.2,5.4,4.6,9.1,5.7,15.5c1.7,10,3.9,12.7,11.5,13.7c6.8,0.9,11.5,2.5,15.9,5.3
	c2.1,1.3,6.6,3.6,10,5c3.4,1.4,7.6,3.5,9.2,4.7c1.6,1.2,7.3,4.3,12.6,6.9c5.3,2.6,11.8,6,14.3,7.6c4.5,2.7,5.1,2.8,19.6,2.8
	c16.2,0,15.4,0.2,28.3-7.4c4.9-2.8,5.9-3,19.1-3.4c16.1-0.4,25,0.9,28.6,4.2c1.4,1.3,4,5.6,5.8,9.6c4.3,9.3,7.4,12.4,17.5,17.3
	c4.5,2.2,10.3,5.1,12.9,6.5c2.5,1.4,11.6,6,20.1,10.2c8.5,4.2,17.5,8.9,20,10.5c2.5,1.6,6.7,3.6,9.4,4.5c5.9,2,9.4,5.5,12.7,13
	c1.4,3.1,4.2,8.2,6.3,11.3c2.9,4.3,3.7,6.6,3.7,10.1c0,6.6-1.3,9.1-7.8,15.2c-6.6,6.3-9.5,10.5-12.3,18c-1.1,2.9-3.3,7.4-4.9,10.1
	c-1.6,2.7-4.1,7.8-5.5,11.3c-2.1,5.4-4.5,8.5-15.2,19.6c-11.7,12.2-12.9,13.7-15.2,20.4c-2.5,7.3-2.5,7.3-45.7,51.2
	c-43.3,43.9-43.3,43.9-51.1,46.8c-7.7,2.8-8.1,3.1-31.5,26.3c-23.1,22.9-23.9,23.5-30.9,26c-6.6,2.3-8.2,3.5-19.9,15.1
	c-15.7,15.5-17,17.8-17.1,30.3c-0.1,11.3,0.9,13.3,9.5,18.8c7.1,4.6,7.8,5.5,10.6,12.9c3,8,6.2,11.8,12.5,15
	c4.6,2.3,6.7,2.7,14.8,2.7c10.4,0,16.4,1.4,22.6,5.4c2.3,1.4,6.9,3.7,10.3,5.1c5,2,8.4,4.6,17.3,13.4c7.6,7.5,11.8,12.5,13.5,16.2
	c1.4,2.9,3.4,7.5,4.7,10.1s5,7.7,8.5,11.3c5,5.2,8.3,7.4,16,11.1c7.1,3.3,11.5,6.3,16.1,10.6c5,4.8,9.6,7.7,22.3,14
	c8.8,4.4,16.3,8,16.7,8c0.4,0,3.4,1.6,6.7,3.6c8,4.9,12.2,4.9,20.1,0c4.8-3,7.5-3.9,14.1-4.6c8-0.9,12.1-2.4,17.7-6.3
	c1.5-1,5.2-2.8,8.3-4c3.1-1.2,7.9-3.6,10.6-5.3c2.7-1.8,7.4-4.1,10.3-5.2c2.9-1.1,7.6-3.4,10.3-5.2c2.7-1.8,7.5-4.1,10.5-5.3
	c3-1.1,8.1-3.7,11.3-5.6c3.2-1.9,8.1-4.3,10.9-5.2c3.5-1.2,7.4-3.9,12.8-8.9c5.6-5.3,10.3-8.5,17.2-11.9c5.2-2.5,11.3-5.7,13.6-7
	c3.3-1.9,5.7-2.4,12.4-2.4c13.5,0,17.9,4.2,19.5,19c0.5,4.8,1.8,8.2,4.7,13c5.3,8.8,6.4,13.9,6.1,26.2c-0.4,17.5-0.3,18.3,4,25.6
	c2.2,3.7,4.8,9.4,5.7,12.7c2.8,9.9,7.7,11.2,14.5,3.9c5.6-6,7.9-6.7,22.6-6.4c13.8,0.2,15.6,0.7,25.3,6.4c2,1.2,6.3,3.3,9.5,4.8
	c5.7,2.6,6.1,3,10,11.2c5.4,11.2,13.5,24.3,16.1,26.2c10.5,7.4,19.4,11.9,24.9,12.5c8.9,1,13.3,2.4,19.6,6.6
	c5.7,3.8,5.7,3.8,18.2,3.8s12.5,0,18.2-3.8c3.1-2.1,7.6-4.8,10-6c2.4-1.2,5.5-4,7-6.1c4.8-7.2,9.8-16.3,12.4-22.6
	c2.8-7,14-19.5,19.7-22c1.8-0.8,6.5-1.4,10.4-1.4c5.7,0,8,0.5,11.6,2.6c2.5,1.4,8.5,4.5,13.3,6.9c8,3.9,10.3,5.8,26.4,21.8
	c16.4,16.3,18,17.6,23.5,19.2c7.8,2.3,13.5,1.4,20.4-3.3c3-2,7.6-4.8,10.3-6.2c8-4.1,8.5-5.5,8.9-25.5c0.5-22.2-0.5-26.3-8.8-35.3
	c-6.2-6.7-11.4-10.3-18.9-13c-2.5-0.9-7.8-3.6-11.8-6c-7.2-4.4-7.2-4.4-26.4-4.1c-10.7,0.2-21.3-0.2-23.9-0.8
	c-2.6-0.6-7.6-2.9-11.1-5.2c-3.5-2.3-8.7-4.9-11.6-5.9c-4.4-1.5-7.2-3.7-17.4-14.4c-9.5-9.9-12.6-13.9-14.4-18.3
	c-1.2-3.1-3.9-8.5-5.9-11.8c-3.5-5.9-3.7-6.6-4.4-19.2c-0.8-14.7-0.8-14.9-6.2-23.3c-6.6-10.4-6.3-20.4,1.1-33
	c2.2-3.7,4.6-8.6,5.4-10.9c1.8-5.3,15.3-19.8,19.8-21.2c1.8-0.6,6.3-1.3,10.1-1.7c3.8-0.4,8.4-1.6,10.3-2.7
	c9.3-5.5,12.2-6.3,24.9-7.1c12.4-0.7,12.6-0.8,19.7-5.1c7.1-4.4,7.1-4.4,20.7-4.4c17,0,23.3-1.2,29.8-5.6c2.8-1.9,7.4-4.7,10.1-6.3
	c3.6-2,5.8-4.3,8-8.4c3.5-6.2,14.9-18.1,19.3-20c1.9-0.8,9.5-1.3,22.7-1.3c22.1,0,26.4-0.8,33.2-5.8c2.5-1.9,6.5-4.4,8.8-5.5
	c4.8-2.5,7.8-5.6,10.3-10.6c1-2,7.1-9.1,13.7-15.8c11-11.2,12.6-12.5,20-15.5c6.3-2.6,9.7-4.8,15.6-10.4c5.4-5.1,9.9-8.2,15.6-10.8
	c4.5-2.1,8.9-4.4,9.8-5.3c1-0.9,5-2.9,9.1-4.6c4-1.7,9.3-4.4,11.7-6c5.4-3.7,6.5-4.1,17-5.2c9.3-1,11.2-2.1,13.3-7.1
	c2.6-6.2,1-9.3-10.5-20.7c-8-7.9-10.8-11.5-11.7-14.6c-0.6-2.2-1.1-10.9-1.2-19.1c-0.1-16.2-0.9-20.1-5.4-26.1
	c-1.5-2-4.6-7.5-6.9-12.4c-11.3-23.6-13.2-26-20.9-26c-4.9,0-8.4,1.4-13.3,5.2c-2.1,1.7-6.6,4.1-9.9,5.2c-3.3,1.1-8,3.5-10.3,5.2
	c-2.4,1.7-7,4.1-10.3,5.2c-3.3,1.1-7.9,3.5-10.3,5.2c-6.1,4.4-10.8,6.2-16.5,6.2c-8.1,0-12.1-1.7-19.3-8.3
	c-9.4-8.6-10.7-8.3-13.2,2.9c-2.7,11.9-5.8,14.2-20.4,15.4c-11.8,1-18.8-0.5-26.7-5.6c-3.5-2.3-8.7-4.9-11.6-5.9
	c-3.8-1.3-7.3-3.8-12.7-9c-5.9-5.7-9.3-8-16-10.8c-4.6-2-9.8-4.6-11.4-5.7c-1.6-1.2-5.9-3.3-9.4-4.8c-3.5-1.4-9.2-4.3-12.5-6.4
	c-6.1-3.8-6.1-3.8-23.7-3.5c-28.1,0.5-35.6-1.6-35.6-10.3c0-2.1,1.2-6.4,2.6-9.4c1.4-3.1,2.6-6.5,2.6-7.6c0-1.1-1.9-5.3-4.3-9.3
	c-4.1-6.9-4.4-7.7-4.8-17.1c-0.2-5.8,0.1-12.3,0.9-15.7c1.1-5.2,2.1-6.6,8.6-13c4.4-4.3,9.7-8.3,13.3-10c7.6-3.6,9-4.9,9-7.9
	c0-3.9-3.7-4.6-22.6-4.4c-18.1,0.2-20.6-0.3-26.6-4.9c-1.8-1.4-6.6-3.9-10.6-5.6c-5.1-2.1-9.1-4.7-13.3-8.8
	c-7.1-6.9-10-7.8-15.8-5.3c-10.2,4.3-12.2,4.7-21.6,4.5c-9.1-0.2-9.8,0-16.7,3.6c-5.3,2.8-8,3.6-10.1,3.2
	c-4.1-0.9-42.3-40-46.6-47.7c-4.2-7.5-6.2-9.6-12.1-12.6c-2.7-1.4-8.4-5.8-12.6-9.7c-5.4-5.1-9.3-7.8-13.6-9.4
	c-3.3-1.2-9.2-4.2-13.1-6.6c-7.2-4.4-7.2-4.4-19.1-4.4c-12.7-0.1-13.4-0.3-24-7c-3.5-2.2-6.5-3.1-13.2-3.8
	c-7.7-0.8-9.4-1.4-15.3-5.2c-3.6-2.4-7.3-4.3-8.2-4.4c-0.9,0-5-0.4-9.2-0.9c-6.1-0.7-8.6-1.6-12.9-4.6c-2.9-2-8.1-4.7-11.4-6
	c-7.4-2.8-17.5-11.8-19.2-17c-1-3.2-0.8-4.4,2.5-11.8c2-4.5,3.7-9.7,3.7-11.6c0-1.8,1.4-7.6,3.2-12.7c3.2-9.4,3.2-9.4-0.8-17.3
	c-2.2-4.4-5.2-8.8-6.6-9.9c-1.5-1.1-5.7-2.3-9.3-2.8c-3.7-0.5-8-1.6-9.7-2.4c-4.2-2.2-23.5-22.3-25.7-26.6c-2.5-5-1.5-11.1,2.9-18.4
	c2-3.4,4.5-8.2,5.5-10.8c1-2.6,3.4-7.2,5.4-10.2c2.7-4.1,3.7-7,4.1-11.2c0.7-8.9-0.9-11.5-9.5-15.5c-8-3.7-14.5-9.8-16-14.8
	c-0.7-2.3-0.4-4.8,1-9c1.9-5.8,1.9-5.8-1.7-12.9c-3.2-6.1-3.8-8.4-4.5-17.5c-0.4-5.7-1.3-11.3-1.9-12.5c-0.6-1.1-4.1-3.7-7.7-5.7
	c-8.8-5-10.2-8-11.1-23.8c-0.5-8-1.3-13.2-2.4-15.4c-2.6-4.9-8-9.1-15.3-11.9c-5.8-2.2-8.1-4-18.7-14.7
	c-13.6-13.7-14.3-15.1-14.2-28.5c0.1-17.3,2-21.8,11.3-27.1c4.8-2.7,6.2-4.3,10.5-12c2.7-4.8,6.1-11.4,7.5-14.5
	c2.5-5.7,3.7-8,8.3-16.1c1.5-2.7,2.8-7.4,3.4-13c0.9-6.9,1.8-10,4.5-14.6c1.9-3.2,4.5-8.5,5.8-11.8c1.6-4.2,4.6-8.5,9.4-13.8
	c5.2-5.6,8.2-10.1,11.2-16.8c5.5-11.9,5.7-13.2,3-20.5c-3.4-9.1-3-12.8,1.9-21.1c2.3-3.9,4.9-9.1,5.8-11.7c0.9-2.6,3.1-6.9,4.9-9.8
	c2.4-3.8,3.4-6.7,3.7-11.2c0.4-5.6,0.2-6.3-2.6-9.1c-2.2-2.2-4.4-3.3-8.1-3.7c-11.9-1.5-11.5-1.3-22.4-11.8
	c-14.4-13.8-14.3-13.7-13.7-22.7c0.8-10.6-0.3-11.9-10.2-11.9c-4.2,0-8.3-0.3-9.3-0.6c-3.4-1.3-4.4-5.9-5.2-23.8
	c-0.8-18.8-2.1-24.4-5.5-24.4C2627.5,2459.7,2626.3,2460.1,2625.9,2460.5 M2339.2,3154.6c-2.6,1.6-3.7,3.4-5.2,8.6
	c-1.1,3.6-3.9,9.8-6.2,13.8c-2.4,3.9-4.3,7.9-4.3,8.9s-1.9,4.9-4.3,8.9c-2.4,4-5.2,9.6-6.3,12.4c-1.1,2.9-3.3,7.4-5,10
	c-1.7,2.7-4.2,7.8-5.6,11.4c-1.9,4.8-4.4,8.4-9.6,13.9c-5.7,6-7.6,8.8-10,15.2c-2.4,6.4-4.3,9.2-10.3,15.6c-6,6.4-7.9,9.2-10.2,15.6
	c-2.9,7.8-2.9,7.8-36.5,41.7c-29.8,30.1-34.1,34-38.3,35.2c-2.5,0.7-7.6,3.1-11.3,5.3c-3.7,2.2-9.4,5-12.7,6.3
	c-4.5,1.7-8.1,4.3-14.5,10.3c-7.2,6.8-9.6,8.4-15.5,10.4c-5.9,2-8.3,3.6-14.9,9.9c-4.3,4.1-8.8,8-9.9,8.6c-1.1,0.6-5.5,1.4-9.8,1.8
	c-10.5,1-13,2.3-22.5,11.2c-6.2,5.8-9.4,8-13.1,9.1c-2.7,0.8-7.3,3-10.2,5c-2.9,2-7.8,4.5-10.9,5.6s-8,3.7-11,5.7
	c-4.6,3.2-6.6,3.9-13.7,4.6c-10.5,1.1-11.9,1.6-17.4,5.8c-2.4,1.9-7.5,4.4-11.3,5.7c-6.9,2.3-6.9,2.3-52,47.7
	c-42.9,43.3-45.1,45.6-45.1,49.2c0,3.8,7.3,19.8,13.6,30c1.9,3.1,2.9,6,2.9,8.8c0,3.8-0.6,4.8-7.6,11.5c-9.1,8.8-10.4,12.5-6.9,19.3
	c1.2,2.3,3.2,6.2,4.5,8.6c2.1,4,2.3,5.9,2.4,21.1c0.1,20,0.5,21.1,10.6,32.1c4,4.3,7.7,9.4,8.3,11.3c0.6,1.9,1.2,10.7,1.4,19.5
	c0.3,15.7,0.4,16.3,3.4,21.7c3.3,6,7.6,9.5,14.9,12.1c6.3,2.2,9,5,13,13.5c1.9,4,4.9,9.7,6.6,12.7c2.9,5,3.2,6.3,3.6,16.9
	c0.4,13.4,0.7,14.4,5.3,21.7c4.3,6.8,5.5,11.8,5.5,23.4c0,11.5,1.1,14.2,9.8,23.7c4.7,5.2,8.1,10.1,10.5,15.5
	c4.4,9.7,8.2,13.8,15.7,16.8c3.2,1.3,8.1,3.8,10.9,5.6c2.8,1.8,7.8,4.3,11,5.6c7.8,3.2,9.6,5.1,14.2,15c5.5,11.9,14.5,21,25.4,25.6
	c4.3,1.8,10,4.7,12.7,6.3c2.6,1.6,7.3,4,10.3,5.2c3,1.2,7.4,3.5,9.8,5.1c6.3,4.3,7.3,4.6,20.9,5.3c12.3,0.7,12.6,0.8,19.6,4.9
	c3.9,2.3,9.6,5.1,12.6,6c4.6,1.5,7.3,3.6,17.1,13.4c6.4,6.4,12.4,13.1,13.3,14.8c0.9,1.8,2,6.5,2.4,10.4c0.5,5.5,1.7,9.1,5,15.5
	c2.4,4.6,4.9,10,5.7,12c2.5,6.6,10.2,17.4,13.3,18.7c2.4,1,4.2,0.9,9.2-0.4c7-1.8,21.6-2.2,27-0.6c2,0.6,6.4,2.8,9.8,4.9
	c5.9,3.7,6.8,3.9,16.2,4.3c12.9,0.5,16-0.1,21.9-4.7c9.2-7.1,18.1-5.5,27.7,4.8c3.9,4.3,4.7,5.8,4.7,9.1c0,4.9-2.8,7.9-9,9.5
	c-5.6,1.5-7.5,4.3-7.5,11c0,8.8,5.5,17.5,12.7,20.3c1.6,0.6,6.2,1.6,10.1,2.2c11.1,1.6,12.6,2.8,18.3,14.3
	c2.7,5.6,7.4,14.7,10.2,20.4c2.9,5.8,5.5,12.4,5.8,15.1c1,8.1,1.9,9.2,8.4,11.1c7.5,2.2,14.6,1,21.3-3.7c2.5-1.7,6.8-4.1,9.6-5.2
	c2.8-1.1,8.1-3.6,11.7-5.6c6.6-3.6,6.6-3.6,42.2-3.5c35.6,0.1,35.6,0.1,40,3.2c6.5,4.6,11.2,10.5,15.4,19.8
	c4.5,9.7,7.3,12.4,18.9,18.1c4.6,2.3,10.3,5.2,12.6,6.5c3.4,1.9,6.3,2.4,16.5,2.9c7.1,0.3,13.5,1.2,14.9,2
	c1.4,0.8,7.8,6.5,14.1,12.7c10.3,10.1,12.6,11.9,22.1,16.5c5.8,2.8,12.2,6.1,14.2,7.2c2,1.1,6.2,3.2,9.5,4.6
	c6.8,3,8.7,5.8,10.2,15.4c1.8,11.5,5.7,14.4,19.7,14.4c10.7,0,15.3,2,23,9.7c3.9,3.9,6.7,8.2,9.3,13.8c4.5,10,8.3,14.1,15.8,17.1
	c3.2,1.3,7.9,3.6,10.4,5.1c11.6,6.8,14.8,7.4,42.8,7.6c14.1,0.1,32.2,0,40.3-0.3c14.6-0.5,14.6-0.5,21,3.6
	c10.5,6.5,20.7,6.2,24.3-0.7c1.9-3.7,3-19.8,2-28.1c-0.6-4.5-1.8-7.4-5.1-12.4c-2.4-3.6-5.2-8-6.1-9.9c-2.9-5.8-5.9-7-17.6-7.1
	c-7.8-0.1-11.3-0.6-14-2c-4.2-2.2-25.2-23.5-27.4-27.8c-0.8-1.6-1.9-6.7-2.4-11.2c-1.2-10.5-3.5-14.9-11.8-22.7
	c-5.1-4.7-8.6-6.9-14.2-9c-4.1-1.5-9.5-4.1-12.1-5.8c-2.6-1.7-6.7-3.8-9.3-4.7c-2.5-0.9-7.6-3.5-11.3-5.7c-3.7-2.2-8.7-4.8-11.2-5.7
	c-5.7-2-15-9.9-18.8-16.1c-5.4-8.6-3.5-15.3,7.1-25.1c4.3-4,8.7-6.9,12.4-8.4c3.2-1.2,8.3-3.8,11.5-5.7c3.1-2,7.8-4.3,10.3-5.2
	c2.5-0.9,6.8-3,9.4-4.7c2.6-1.7,7.5-4.2,10.9-5.6c3.3-1.3,8.8-4.1,12.2-6.2c3.4-2.1,6.7-3.8,7.3-3.8s5.3-2.1,10.3-4.7
	c9.1-4.7,9.1-4.7,28.2-4.7c18.5,0,19.3,0.1,23.2,2.6c10.1,6.3,11.8,6.8,25.9,6.8c7.3,0,14.5-0.4,16-1c4.9-1.9,12.2-14.9,12.2-21.8
	c0-3.8-5.2-16.4-10.2-24.5c-3.7-6.2-3.7-6.2-4.4-25.5c-0.4-12.2-1.1-20.4-2-22.2c-2.7-5.8-9.3-4.8-22.4,3.6
	c-4.3,2.8-9.6,5.5-11.7,6.1c-2.1,0.6-6.6,2.9-10,5.2c-7.4,5-11,6.2-18.7,6.2c-5,0-6.6,0.6-12.8,4.7c-7.3,4.8-11.2,5.7-16.4,3.7
	c-2.6-1-34.6-32.6-38-37.5c-3.2-4.6-2.4-11.3,2.3-18.5c2.2-3.5,5.1-8.8,6.4-11.9c1.8-4.3,5.8-9.1,18.8-22.5
	c17.3-17.8,21.6-20.9,28.9-20.9c6.4,0,11.7-1.9,20.1-7.1c10-6.1,11.7-7.8,15.5-14.4c1.7-3,5.8-8.6,9.2-12.4
	c9.7-10.8,9.7-16.3,0.2-21.2c-7.1-3.6-19-15.7-20.5-20.9c-0.6-2-1.4-6.4-1.7-9.8c-0.5-4.4-1.8-8.2-4.4-13c-3.8-6.8-3.8-6.8-4.3-25.5
	c-0.5-17-0.8-19.1-2.8-22.4c-1.2-2-4.2-6.8-6.5-10.6c-6.2-10.4-9.6-11.5-17.8-5.6c-2.7,1.9-7.7,4.5-11.1,5.8c-4.8,1.8-8,4-14.1,10
	c-6.4,6.3-9,8.1-14.3,9.9c-3.5,1.2-8.3,3.6-10.6,5.3c-2.3,1.7-6.8,4-9.9,5.1c-3.2,1.1-7.8,3.5-10.4,5.2s-7.3,4.2-10.6,5.3
	c-3.2,1.1-7.8,3.4-10.1,5.1c-2.3,1.7-6.9,4.1-10.2,5.3c-3.3,1.2-8.8,4.1-12.2,6.3c-5.3,3.4-7,4-11.9,4c-8.2,0-13,1.6-19,6.4
	c-4.9,3.9-5.6,4.2-11,3.8c-4.7-0.3-6.7-1.1-10.7-4.2c-2.7-2.1-7.5-4.8-10.7-6c-3.2-1.2-8.3-3.7-11.5-5.7c-3.1-1.9-8-4.3-10.7-5.3
	c-3.2-1.2-7.9-4.5-13.1-9.4c-6.2-5.8-9.8-8.2-15.4-10.4c-6.9-2.7-8.4-4-24.4-20.4c-15.8-16.2-17.4-18.2-21.5-26.7
	c-4.8-10-6.6-11.7-16.7-15.5c-3-1.2-8.1-3.9-11.2-6.1c-5.7-4-5.7-4-24.4-4.5c-10.3-0.3-19.4-0.9-20.2-1.5c-4.1-2.5-6.3-5.6-8.3-11.8
	c-2-6-3.6-8.3-15.3-21c-8.7-9.4-13.6-15.6-14.4-18.2c-1.7-5.1-1-27,0.9-30.8c0.7-1.4,11.4-12.7,23.7-25.1
	c17.3-17.4,23.3-22.8,26.4-23.8c10.6-3.5,14.2-6.3,36-28.6c19.2-19.7,22.2-22.3,26.9-23.8c2.9-1,7.5-3.2,10.3-4.9
	c2.8-1.8,18.3-16.7,34.6-33.1c29.5-29.9,29.5-29.9,34.4-40.2c4.3-9.1,6.2-11.7,16-22c10.2-10.7,14.8-17.3,16.9-24.2
	c0.4-1.4,2.3-5.2,4.2-8.3c1.9-3.1,4.4-8.4,5.6-11.7c1.6-4.3,4.3-8.3,9.3-13.7c12.3-13.4,12.1-18.3-1.3-31.5
	c-6.8-6.7-9.6-8.7-14.1-10.1c-3.1-1-8.3-3.4-11.5-5.4s-7.9-4.3-10.3-5.1c-2.4-0.9-7-3.2-10.2-5.1c-3.1-2-8.5-4.6-11.8-5.8
	c-5.2-1.9-7.9-4.1-17.7-13.8c-6.7-6.7-13.8-12.8-17-14.5c-5.1-2.8-6-2.9-15.8-2.6c-8.1,0.3-11,0.8-13.5,2.4c-14,9-11.8,8.3-28.2,8.6
	c-19.2,0.4-22.2-0.1-30-5.2c-3.6-2.3-8.4-4.9-10.6-5.7c-2.3-0.8-7.2-3.3-10.8-5.6c-3.7-2.2-8.7-4.8-11.1-5.7s-7.1-3.3-10.4-5.3
	c-4.9-3.1-7.4-3.9-14.3-4.6c-9.6-1-13.1-2.8-20.2-10.5c-6-6.4-7.4-9.9-8.4-19.5c-0.6-6.3-1.5-8.8-5.3-15.3
	c-4.6-7.8-4.6-7.8-5.3-21.2c-0.7-13.2-0.8-13.5-4.7-20c-3.9-6.5-4-6.8-4.7-19.6c-0.8-15.1-1.7-17.6-9.6-25.9
	C2348.7,3152.4,2345,3151.1,2339.2,3154.6 M1873.4,3597.6c-0.7,0.3-2.7,3.4-4.5,6.9c-2.2,4.5-6.5,9.9-14.3,17.8
	c-10.9,11.2-13.8,15.5-16.5,23.9c-1,3-4.8,7.8-13.9,17.2c-11.4,11.8-12.8,13.7-15.5,20.8c-2.7,7-4.1,9-15,20.3
	c-11.7,12.2-14.8,16.5-17.5,25c-1,3-4.8,7.8-13.9,17.2c-11.5,11.9-12.8,13.7-15.4,20.8c-2.7,7.1-4,8.9-15,20.3
	c-11.8,12.2-14.8,16.4-17.5,25c-1,3-4.8,7.8-13.9,17.2c-11.5,11.9-12.8,13.7-15.4,20.8c-2.7,7.1-4,8.9-15,20.3
	c-11.8,12.2-14.8,16.4-17.5,25c-1,3-4.8,7.8-13.9,17.2c-11.4,11.9-12.8,13.7-15.5,20.8c-2.4,6.3-4.3,9.3-10.3,15.6
	c-6,6.4-7.9,9.2-10.3,15.6c-2.7,7.2-4,8.9-16,21.3c-12.2,12.7-13.2,14-15.4,20.8c-2.2,6.8-3.2,8.2-14.9,20.3
	c-11.5,11.9-12.8,13.7-15.5,20.8c-2.7,7.2-3.9,8.9-16,21.3c-12.1,12.5-13.2,14.1-15.4,20.6c-1.9,5.9-3.6,8.5-9.8,15.1
	c-6,6.5-8,9.5-10.4,15.8c-2.7,7.1-4,8.9-15.5,20.8c-11.5,11.9-12.8,13.7-15.5,20.8c-2.4,6.4-4.3,9.2-10.3,15.6
	c-6,6.4-7.9,9.2-10.3,15.6c-2.4,6.4-4.2,9.2-10,15.2c-5.6,5.9-7.8,9.1-10.5,15.8c-1.9,4.6-4.7,10-6.2,12c-1.5,2-3.7,6.6-4.9,10.3
	c-2.1,6.5-2.8,7.3-41.1,46.2c-38.9,39.5-38.9,39.5-41.2,46.8c-2.2,6.8-3.2,8.1-15.6,21c-7.3,7.5-13.2,14.2-13.2,14.8
	c0,0.6-1,3.8-2.2,7.1c-1.6,4.4-4.1,8-9.1,13.3c-6.9,7.3-9.9,12-12.3,19.8c-0.9,3-4.6,7.6-13.4,16.6c-11.8,12.1-14.8,16.4-17.5,24.9
	c-0.8,2.6-4.3,7.3-9.2,12.6c-6.6,7.1-8.4,9.7-10.4,15.7c-2.3,6.5-3.6,8.4-15.5,20.8c-12.1,12.6-13.2,14.1-15.4,20.8
	c-2,6.1-3.5,8.4-9.5,14.6c-5.6,5.9-7.8,9.1-10.6,15.9c-2,4.7-4.7,10.1-6.2,12c-1.4,1.9-3.6,6.4-4.8,10.1c-2.1,6.3-3.2,7.7-25.1,30
	c-22.2,22.7-23,23.6-25.8,31.2c-2.4,6.3-4.4,9.3-10.3,15.6c-6,6.4-7.8,9.2-10.2,15.6c-2.8,7.5-3.4,8.4-18.6,23.4
	c-24.7,24.5-29.6,30.2-33,38.5c-1.6,4-4.3,9.3-5.9,11.7s-3.9,7.1-5,10.3c-1.1,3.2-3.6,8.3-5.5,11.2c-1.9,2.9-4.3,7.8-5.3,11
	c-1.6,5.2-3.7,7.7-25.3,29.8c-12.9,13.2-23.5,24.6-23.5,25.2s-1,3.8-2.2,7.2c-1.6,4.4-4.1,8-9.1,13.3c-6.6,6.9-10.1,12.3-11.8,18.2
	c-0.4,1.4-2.5,5.4-4.7,8.8c-2.1,3.4-4.7,8.8-5.7,11.9c-1.4,4.4-3.6,7.6-9.6,14.1c-5.9,6.3-8.3,9.8-9.8,14.1
	c-1.1,3.1-3.7,8.5-5.8,11.9c-2.1,3.4-4.7,8.8-5.7,12c-1.6,4.9-3.6,7.6-14.9,19.3c-11.9,12.3-13.3,14.2-15.3,20.3
	c-1.2,3.7-2.6,7.4-3.1,8.1c-0.5,0.8-6.5,7.1-13.4,14.2c-10.7,11-12.5,13.2-12.5,16.1c0,4.2,3.7,8.1,8.4,8.8c1.9,0.3,10.4,1,18.9,1.6
	c19.6,1.4,191,1.5,204.3,0c9.3-1,12-2,20.7-7.5c3.5-2.2,3.5-2.2,133.4-2.3c122-0.1,130.2-0.2,134-1.9c6.3-2.9,12.4-8.5,14.3-13.1
	c1-2.3,2.5-6.2,3.5-8.7c1.1-2.8,6-8.8,13.4-16.5c9.8-10.2,12.2-13.4,15.3-20.3c3.3-7.4,5.3-9.8,20.1-25c15.4-15.7,16.7-17.4,20.7-26
	c3.6-8,5.7-10.7,14.7-20.1c11.5-11.9,14.8-16.5,17.7-24.4c1.6-4.3,4.7-8.1,18-21.4c15.7-15.8,16.3-16.5,21.4-27.2
	c4.7-9.9,6.3-12.1,16.1-22.3c9.2-9.6,11.6-12.7,15.4-20.7c4.2-8.6,5.7-10.6,20.1-24.9c15-15,15.8-16,20.6-26
	c4.4-9.4,6.1-11.6,16.2-22c9.8-10.1,11.9-12.8,16-21.3c4.4-9.1,5.7-10.7,19.8-24.7c14.6-14.4,15.2-15.3,20.2-25.8
	c4.6-9.8,6.3-12,16-22c9.1-9.4,11.5-12.5,15-20c3.8-8,5.7-10.4,20.6-25.6c15.3-15.7,16.7-17.4,20.6-26c3.6-8,5.7-10.7,14.7-20.1
	c11.5-11.9,14.8-16.5,17.7-24.4c1.6-4.3,4.7-8,18.1-21.4c15.8-15.7,16.4-16.5,21-26.5c4.3-9.2,6-11.6,16-22.1
	c9.5-10,11.8-13.1,15.4-20.8c3.9-8.4,5.6-10.4,20.7-25.9c15.3-15.7,16.7-17.4,20.6-26c3.6-7.8,5.7-10.8,14.2-19.6
	c12.6-13.1,14.9-16.3,17.8-24c2-5.5,4.3-8.2,18.7-22.8c15.4-15.7,16.6-17.2,21.1-26.5c4.1-8.6,6.2-11.5,16-21.8
	c9.7-10.2,11.9-13.2,15.4-20.8c3.7-8.2,5.3-10.1,20.5-25.7c15.4-15.7,16.7-17.4,20.6-26c3.7-8.2,5.6-10.7,16.2-21.7
	c10.7-11.1,12.4-13.3,15.1-20.3c2.9-7.3,4.1-8.8,19.3-24.3c15.4-15.6,16.5-17,21-26.6c4-8.5,6.2-11.6,14.2-20
	c11.7-12.2,14.3-15.7,17-22.8c1.2-3.1,3.8-8.3,5.8-11.6c4.2-6.9,4.6-10.4,1.4-13.4c-2-1.9-3.6-2.1-14.2-2.1c-11.9,0-12,0-18.1-3.8
	c-3.4-2.1-9.1-5-12.8-6.6c-3.7-1.6-9-4.3-11.7-6.1c-2.8-1.8-7.4-4-10.3-4.9c-4.5-1.5-7.1-3.6-18.1-14.9
	c-7.1-7.3-17.8-17.9-23.8-23.7c-9.6-9.2-11.8-10.7-17.8-12.7c-6.3-2.1-7.8-3.3-19.1-14.8c-11-11.1-12.6-13.3-15.1-19.8
	c-2.2-5.5-4.7-9.4-10.4-15.7c-8.7-9.7-9.6-12.1-9.6-25.2c0-11.3-0.9-14.8-5.6-21.7c-4.4-6.5-5.7-11.9-5.7-23.7
	c0-5-0.5-10.3-1.1-11.9c-0.6-1.6-5.1-7-9.9-12c-7.7-7.9-9.7-9.4-15.2-11.3c-13.3-4.5-14-5.9-14-32.5c0-25.8-0.7-28.4-9.7-37.4
	c-10.6-10.6-10.3-10-11-31c-0.6-19.5-1-21-7-29c-3.7-4.9-4.3-13.3-1.3-18.2c1.2-2,3.8-4.8,5.8-6.4c7.1-5.5,8.6-12.3,3.7-17.3
	C1880.7,3597,1877,3596.1,1873.4,3597.6 M2153.8,4018.2c-2.7,1.7-3.7,3.4-5.5,9.6c-2.2,7.3-2.7,8-15.3,21.1
	c-12.1,12.5-13.2,14.1-15.5,20.8c-2.4,7-3.2,8.1-20.2,25.5c-16.9,17.4-17.8,18.6-20.6,26c-2.7,7.1-4,8.9-15,20.3
	c-11.8,12.2-14.8,16.5-17.5,25c-1,3.2-5.8,8.7-19.5,22.9c-17.4,17.9-18.3,19-20.7,26c-2.3,6.7-3.5,8.4-15.5,20.9
	c-12.1,12.6-13.2,14.1-15.3,20.8c-2.3,7-3,7.9-20.1,25.4c-16.8,17.3-17.9,18.6-20.7,26c-2.7,7.1-4.1,9-15,20.3
	c-11.8,12.2-14.8,16.6-17.4,25c-1,3.2-5.7,8.6-19.5,22.9c-17.5,18-18.3,19-20.7,26c-2.3,6.7-3.5,8.3-14.5,19.8
	c-12.3,12.8-13.8,14.9-17.4,24.8c-1.8,4.9-4.1,7.7-15.7,18.9c-17.6,17.1-20.6,20.8-24,29.9c-2.5,6.8-4,8.8-14.9,20
	c-11.8,12.2-14.8,16.6-17.5,25c-1,3.2-5.6,8.6-19.6,22.9c-16,16.4-18.5,19.5-20.5,24.7c-1.2,3.3-2.2,6.5-2.2,7.1
	c0,0.6-6,7.3-13.2,14.9c-12.4,12.9-13.4,14.3-15.6,21c-2.3,7-3,7.9-20.1,25.4c-16.8,17.3-17.9,18.6-20.7,26c-2.7,7.1-4.1,9-15,20.3
	c-11.8,12.2-14.8,16.6-17.4,25c-1,3.2-5.7,8.6-19.5,22.9c-17.5,18-18.3,19-20.7,26c-2.3,6.7-3.5,8.3-14.5,19.8
	c-12.3,12.8-13.8,14.9-17.4,24.8c-1.8,5-4.1,7.6-15.7,18.9c-16.9,16.3-20.6,20.9-24.1,30.1c-2.4,6.5-4.1,8.7-14.8,19.8
	c-11.8,12.2-14.8,16.5-17.5,25c-1,3.1-5.8,8.7-19.5,22.9c-17.3,17.8-18.3,19.1-21.1,26.5c-2.7,7.1-4.1,9-15.2,20.5
	c-10.1,10.5-12.9,14.1-16,20.7c-4.2,9-4,12.4,1,14.8c4,1.9,32.5,3.3,49.9,2.3c16.3-0.9,21.1-0.3,26.2,2.9c7.6,4.9,12.5,6.6,22.3,7.6
	c5.7,0.6,51.2,0.9,105.9,0.8c95.9-0.2,95.9-0.2,100.4,2.9c9.3,6.4,2.6,6,113.7,6.3c56.1,0.1,103.2,0.2,104.7,0.3
	c1.5,0,5,1.6,7.7,3.5c2.8,1.9,5.9,3.8,7.1,4.3c4,1.7,26.2,2.4,53.8,1.6c30.6-0.8,33.3-1.4,33.3-6.8c0-3.4-3.3-5.3-10.2-6.1
	c-3.9-0.4-7.5-1.8-11.7-4.4c-5.2-3.3-7.4-3.9-14.7-4.6c-4.7-0.4-9.6-1.1-10.9-1.5c-3.1-0.9-25.7-23.8-28.3-28.6
	c-1.6-3-1.9-5.8-1.9-16.1c0-11.7,0.2-12.8,3-18.2c1.6-3.1,5.1-10,7.8-15.3c4-7.9,6.6-11.3,14.9-19.8c5.7-5.8,12.8-11.8,16.4-13.9
	c5.7-3.3,6.8-4.6,12-13.5c7-12.1,7.3-15.8,2.2-23.8c-2.5-3.9-3.6-7.2-4.4-12.8c-1.7-12.8-2.6-14.9-9.2-22.1
	c-7.1-7.6-10.7-10.1-18.6-12.9c-3-1.1-8.2-3.6-11.6-5.7c-3.3-2-8.3-4.5-11-5.4c-4.1-1.4-7.8-4.5-21.5-18.2c-9.1-9.1-17-17.7-17.5-19
	c-1.6-4.2,0-7.7,6.2-13.7c7.1-6.8,10.3-8.3,19.9-9.3c7-0.7,11.3-2.3,15.9-5.9c1.3-1,5-2.9,8.2-4.1c3.2-1.2,8.4-3.8,11.5-5.7
	c3.1-2,7.7-4.3,10.2-5.1c2.4-0.9,7.2-3.3,10.5-5.3c4.9-3.1,7.6-3.9,14.3-4.7c10-1.1,12.5-2,16.1-5.8c6.7-7.1,7.2-9.2,7.8-33.7
	c0.7-31,0.8-31.1,24.6-32.5c27.2-1.6,26.2-0.5,26.9-30.5c0.5-21.9,0.5-21.9,4.6-29.7c3.8-7.3,4.1-8.5,4.8-19.8
	c0.4-6.6,1.4-13.7,2.3-15.6c2.2-5.3,14.9-17.1,19.8-18.5c5.2-1.5,21.4-1.5,26.7,0c2.2,0.6,5.8,2.2,7.9,3.6c2.1,1.4,6.8,3.7,10.4,5.1
	c3.6,1.5,8.2,3.8,10.3,5.2c2.1,1.4,6.7,3.7,10.2,5.2s8.6,4,11.2,5.6c2.6,1.6,7.5,4.1,10.9,5.4c9,3.6,17.9,12.8,23.2,24
	c2.3,4.8,5.2,10.6,6.5,13c2.3,4,2.4,5.7,3.1,27.9c0.8,26.1,0.8,26-5.9,35.9c-3.3,4.9-3.7,6.3-3.7,12c0,5.5,0.5,7.3,3.6,12.6
	c4.8,8.1,7.9,10.9,12.5,10.9c3.3,0,5-1.3,17-13.3c13.6-13.5,17-18,19.9-26.3c0.9-2.6,3.4-7.7,5.7-11.4c5.2-8.7,6.1-15,6.2-42.1
	c0-30.2,0.9-31.5,22.5-32.7c11.8-0.7,13.9-1.1,17.9-3.4c4.7-2.8,30.2-27.6,40.1-39c5.1-5.9,6-6.5,9.7-6.5c3.7,0,4.7,0.7,10.9,7
	c7.9,8.2,9.7,13,9.1,23.5c-0.4,6-0.9,7.3-4.9,12.5c-3.9,5.1-4.6,6.7-5.2,13c-0.7,6.8-0.1,14.2,1.5,18.2c1.1,2.6,5.9,4.9,10.5,4.9
	c8.7,0,17.4-7.1,20.5-16.8c3.4-10.5,8.9-13.8,21.5-13.2c6.6,0.3,8.2,0.9,14.8,4.9c6.8,4.1,8.2,4.6,15.9,5.1
	c13.6,0.9,18.1-2.1,19.8-13.2c1.3-8.8,2.9-11.9,9.4-18.8c4.8-5,7.7-9.4,11.2-16.6c2.6-5.4,5.7-11.7,7-14c1.8-3.2,2.3-5.8,2.3-11.4
	c0-6.7-0.4-7.9-4.3-14.4c-2.4-3.9-4.6-9.2-5-11.6c-1.4-9.7,2.3-19.4,9.7-25.3c2.2-1.8,6-5.8,8.4-9c2.4-3.2,5.8-6.5,7.5-7.4
	c5.8-3,8.7-1.4,20.5,11.4c6,6.4,11.4,12.8,12.2,14.3c0.8,1.5,1.6,8.1,2,15.6c0.7,13.1,1.2,15.3,5.8,21.4c2.4,3.2,3.9,8.1,5,16.1
	c0.7,5.4,2.7,8.3,7.8,11.3c3.6,2.2,7.6,2.8,10.7,1.6c2.7-1,9.9-11.6,13.7-19.9c2.5-5.6,5.5-9.9,10.2-14.9c5.2-5.5,7.5-8.9,10.3-15.6
	c2-4.7,4.4-9.8,5.5-11.3c2.5-3.6,3.9-8.6,4.6-16.3c0.3-3.4,1.5-8.9,2.7-12.2c2.3-6.6,1.7-10.2-2-12.3c-1.8-0.9-3.8-0.4-11.6,3.1
	c-5.2,2.4-11.9,6-14.8,8c-6.5,4.5-12.7,5.8-23.5,5c-14.9-1.1-18.9-3.7-23.1-15.1c-1.2-3.1-3.7-7.9-5.7-10.8
	c-4.2-5.9-4.8-12.2-1.8-17.3c1-1.7,8.7-9.2,17.2-16.8c20.1-18,27.4-26.6,31.5-37.3c1.7-4.5,4.5-10.4,6.1-13.1
	c2.2-3.6,3.4-7.7,4.6-14.7c1.3-8.2,2.2-10.7,5.7-15.9c2.3-3.4,4.4-7.6,4.8-9.3c1.7-7.9-3.2-19.6-10.1-23.8c-1.9-1.1-5.9-2.8-8.9-3.7
	c-4.9-1.4-7.2-3.2-19.1-15c-15.6-15.4-16.1-15.6-32.6-15.6c-10.9,0-10.9,0-17.8-4.2c-3.8-2.3-9.6-5.2-12.8-6.5
	c-4.8-1.8-8.1-4.4-17.4-13.5c-7.9-7.8-12.5-13.2-14.8-17.5c-5.4-10.3-4.9-10.2-38.7-10.2c-29.1,0-29.1,0-34.6,3
	c-3,1.7-7.5,4-9.9,5.2c-2.4,1.2-6.3,3.1-8.8,4.2c-2.4,1.2-6.7,3.6-9.4,5.5c-4.7,3.1-5.7,3.4-13.9,3.4c-8,0-9.3-0.3-13.8-3.1
	c-5.9-3.7-18-20.8-21.9-30.9c-1.3-3.5-3.2-7.4-4-8.7c-0.9-1.3-1.6-3.8-1.6-5.5c0-5-4.3-9-15.8-14.5c-9.7-4.7-11.3-6-21.4-16.4
	c-10.9-11.3-13.3-15.5-13.4-22.4c0-1.4-0.5-4.2-1.1-6.4c-1.6-5.8-4.8-7.1-17.2-6.9c-10.9,0.2-11.6,0-21.8-6.5
	c-5.5-3.5-5.8-3.5-17-3.5c-11.2,0-11.6,0.1-16.7,3.4c-7.9,5.1-11.5,4.7-18.5-2c-4.8-4.6-6.8-7.8-13.4-21.6
	c-8.8-18.5-10.4-21.5-14.3-28.4c-1.9-3.4-3.1-7.5-3.8-13c-1.2-9.5-3.1-14.1-6.6-15.7C2159.5,4015.7,2157.5,4015.9,2153.8,4018.2"/>
<circle class="st2" cx="4941.7" cy="4384.6" r="129.8"/>
<circle class="st3" cx="4941.7" cy="4747.2" r="129.8"/>
<circle class="st4" cx="4941.7" cy="5109.8" r="129.8"/>
<text transform="matrix(1 0 0 1 5154.4175 4409.5015)" class="st5 st6 st7">MULTI-PURPOSE BUILDINGS</text>
<text transform="matrix(1 0 0 1 5162.5366 4789.75)" class="st8 st6 st7">ROADS</text>
<text transform="matrix(1 0 0 1 5173.5957 5152.3555)" class="st9 st6 st7">BRIDGES</text>
<text transform="matrix(1 0 0 1 4811.9668 4096.8975)" class="st10 st6 st11">PROJECT EXISTENCE INDICATOR</text>
<text transform="matrix(1 0 0 1 181.0034 342.5643)" class="st6 st12">Opol</text>
</svg>
