<?xml version="1.0" encoding="utf-8"?>
<svg version="1.1" id="Tagoloan" xmlns="http://www.w3.org/2000/svg" xmlns:xlink="http://www.w3.org/1999/xlink" x="0px" y="0px"
	 viewBox="0 0 8192 5907.1" style="enable-background:new 0 0 8192 5907.1;" xml:space="preserve">
<style type="text/css">
	.st0{fill-rule:evenodd;clip-rule:evenodd;fill:#9C14E4;}
	.st1{font-family:'ArialMT';}
	.st2{font-size:120.8001px;}
	.st3{fill:none;stroke:#000000;stroke-width:19.4839;stroke-miterlimit:9.7419;}
	.st4{font-size:194.8389px;}
	.st5{fill:#8703EF;}
	.st6{fill:#4472C4;stroke:#FFFFFF;stroke-width:0.9742;stroke-miterlimit:9.7419;}
	.st7{fill:#FF000D;stroke:#FFFFFF;stroke-width:0.9742;stroke-miterlimit:9.7419;}
	.st8{fill:#70AD47;stroke:#FFFFFF;stroke-width:0.9742;stroke-miterlimit:9.7419;}
	.st9{fill:#EA781B;stroke:#FFFFFF;stroke-width:0.9742;stroke-miterlimit:9.7419;}
	.st10{fill:#7030A0;stroke:#FFFFFF;stroke-width:0.9742;stroke-miterlimit:9.7419;}
	.st11{fill:#FFFF1A;stroke:#FFFFFF;stroke-width:0.9742;stroke-miterlimit:9.7419;}
	.st12{stroke:#FFFFFF;stroke-width:0.9742;stroke-miterlimit:9.7419;}
	.st13{fill:#843C0C;stroke:#FFFFFF;stroke-width:0.9742;stroke-miterlimit:9.7419;}
	.st14{fill:#FF73D8;stroke:#FFFFFF;stroke-width:0.9742;stroke-miterlimit:9.7419;}
	.st15{fill:#B1FFF7;stroke:#0031FF;stroke-width:0.9742;stroke-miterlimit:9.7419;}
	.st16{fill:#FFB1BC;stroke:#FFFFFF;stroke-width:0.9742;stroke-miterlimit:9.7419;}
	.st17{fill:#F6DB76;stroke:#FFFFFF;stroke-width:0.9742;stroke-miterlimit:9.7419;}
	.st18{fill:#A5A5A5;stroke:#FFFFFF;stroke-width:0.9742;stroke-miterlimit:9.7419;}
	.st19{fill:#0B0BF9;stroke:#FFFFFF;stroke-width:0.9742;stroke-miterlimit:9.7419;}
	.st20{fill:#E9816F;stroke:#FFFFFF;stroke-width:0.9742;stroke-miterlimit:9.7419;}
	.st21{fill:#4472C4;}
	.st22{font-size:146.1292px;}
	.st23{fill:#FF0000;}
	.st24{fill:#70AD47;}
	.st25{fill:#F9920B;}
	.st26{fill:#7030A0;}
	.st27{fill:#FFFF03;}
	.st28{fill:none;stroke:#0000FF;stroke-width:0.4871;stroke-miterlimit:9.7419;}
	.st29{fill:#843C0C;}
	.st30{fill:#FF73D8;}
	.st31{fill:#B1FFF7;}
	.st32{fill:#FFB1BC;}
	.st33{fill:#F6DB76;}
	.st34{fill:#A5A5A5;}
	.st35{fill:#410EFD;}
	.st36{fill:#E9816F;}
</style>
<g id="Layer_13">
	<path class="st0" d="M6931.8,893.7c-5.7,2.4-33.5,28.4-36.7,34.5c-1.4,2.5-3.7,7.6-5.1,11.3c-2.1,5.5-5.5,9.4-18.6,21.7
		c-11.7,11-17.4,15.5-21.2,16.7c-10.5,3.2-16,6.8-30.3,20.4c-9.2,8.6-17.5,15.3-22.2,17.6c-6.5,3.3-8.1,4.9-12.5,12.5
		c-2.7,4.8-5.7,9.5-6.7,10.6c-2.5,2.7-4.7,10.9-4.7,17.9c0,8.8-2.4,13-13.2,22.8c-7.9,7.3-11.4,9.4-19.4,12.4
		c-8.3,2.9-11.1,4.9-18.3,11.9c-10.8,10.7-15.3,12.9-24.4,12.2c-5.3-0.4-8.7-1.7-13.8-5.1c-8.7-5.7-12.7-7.1-20.4-7.2
		c-7.5-0.1-13.5-2-21.1-7c-3.2-2-8.8-4.8-12.4-6c-3.6-1.3-9.4-4.1-13.1-6.2s-9.4-5-13.1-6.2c-3.6-1.3-9.7-4.4-13.5-6.8
		c-7-4.5-7-4.5-38.5-4.9c-17.2-0.2-33.5,0-35.9,0.4c-3.2,0.6-7.4,3.5-14.8,10.3c-10.4,9.6-14.2,15-15.9,22.4
		c-0.5,2.2-3.4,7.6-6.3,11.9c-5.5,7.8-5.5,7.8-6.1,43.5c-0.7,35.8-0.7,35.8-5.6,42.7c-5.5,7.5-7.3,13.2-7.3,22.1c0,8.4-4,14-20.5,29
		c-11.8,10.8-16.1,13.9-22.6,16.3c-11.1,4.2-15.3,6.9-23.4,15c-9.5,9.6-12.4,10.5-32.8,10.5c-18.7,0-22-0.8-32.1-7.8
		c-5.8-4-6.3-4.1-23.1-4.8c-17.6-0.7-18.9-1-28.9-7.4c-2.8-1.9-8.2-4.4-11.8-5.7c-3.6-1.3-9-3.9-12.1-5.8c-3-1.9-9.6-5.2-14.7-7.1
		c-7-2.7-11.5-5.7-18.8-12.3c-6.9-6.2-11.4-9.3-16.1-10.8c-3.6-1.2-10.5-4.5-15.5-7.3c-9-5.3-9-5.3-33.8-5.7
		c-15.6-0.3-26.6,0.1-29.7,1s-9.2,5.2-16.8,12c-6.5,5.8-12.4,10.5-13.1,10.5c-0.7,0-4.5,1.2-8.5,2.6c-5.2,1.9-10.2,5.3-17.3,11.6
		c-8.3,7.4-11.7,9.5-19.2,12.1c-8.4,2.8-10.5,4.4-26.1,18.8s-17.8,16-25.7,18.5c-7.2,2.3-10.5,4.4-19.7,12.5
		c-6.7,5.9-13,10.3-16.1,11.3c-11,3.4-16.4,7.3-37.7,27.4c-19.8,18.7-23,21.1-29.3,23.1c-9.3,2.8-16.2,7.5-24.8,16.5
		c-7.8,8.2-13.1,17.7-13.1,24c0,6.8,8.7,13.5,26.2,20.2c3.7,1.4,8.4,3.7,10.4,5c1.9,1.4,7.6,4,12.5,5.9s11.8,5.3,15.3,7.4
		c3.5,2.1,9.3,4.9,12.9,5.9c7.9,2.5,23.7,16.2,27.3,23.6c2,4.3,2.4,8.4,2.4,27.7c0,13-0.6,24.2-1.4,26.2c-0.8,1.9-28,28.7-60.4,59.6
		c-87.5,83.2-89.6,85.4-94.1,96.7c-3.4,8.6-5,10.6-19.5,24.7c-8.7,8.5-17.2,16-19.1,16.7c-1.8,0.7-8.4,1.7-14.7,2.1
		c-17.3,1.3-23,7-16.7,16.8c3.4,5.3,14.6,13.4,22.2,16.2c3.2,1.2,9.3,4.1,13.4,6.5c4.2,2.4,11.1,5.7,15.5,7.4
		c4.4,1.7,10.9,4.8,14.5,7c6.3,3.9,7.4,4.1,23,4.9c17,0.8,18.5,1.3,31.4,9c3.9,2.3,7.1,2.8,20.9,3.5c16.2,0.7,16.6,0.8,26.1,5.8
		c7.8,4.1,11.9,5.4,20.5,6.4c11.3,1.4,12.6,1.8,21.5,7.4c3,1.9,9.1,4.8,13.3,6.4c6.4,2.4,10.4,5.4,22.8,17
		c13.2,12.4,16.4,14.6,26.5,19.1c10.4,4.6,12.9,6.4,26.3,19.5c11.9,11.5,15.4,15.9,17.8,21.5c1.7,3.9,4.6,9.4,6.4,12.2
		c5.9,8.5,6.6,10.4,7.8,21.1c0.9,8,1.9,11.7,4.7,15.9c1.9,3,5.1,8.8,6.9,13c1.9,4.1,5.4,10.4,7.7,14c4.8,7,6.6,13,6.7,20.9
		c0,4.7,1.1,7.2,8.9,20.5c1.9,3.4,3.3,8.6,4.1,15.5c0.9,8.5,1.9,11.5,5,15.9c6.2,8.8,6.9,10.6,8.2,21.2c1.1,8.6,2,11.5,6.7,18.9
		c5.6,8.8,5.6,8.8,6.2,24.5c0.7,15.8,0.7,15.8,6.5,24.9c5.7,9.2,5.7,9.2,6.5,24.9c0.7,15.8,0.7,15.8,6.4,24.8
		c5.1,8,5.8,10.1,6.3,18.2c0.9,12.6-0.2,16.6-6.6,25.6c-5.6,7.9-5.6,7.9-6.1,24.9c-0.6,16.5-0.8,17.2-4.6,22.2
		c-7.9,10.4-8.5,12.4-8.5,26.8c0,14.3-1.3,18.9-7,26.2c-3.6,4.6-5.9,12.5-5.9,20.7c0,5.7-1.9,10.1-7.9,18c-2,2.7-4.7,7.8-5.9,11.4
		c-1.2,3.5-3.6,8.3-5.4,10.5c-4.9,6.2-6.9,12.1-6.9,19.7c0,7.6-2.2,13.9-7.2,20.1c-1.8,2.2-4.5,7.3-6,11.3c-1.6,4-4.8,10.1-7.2,13.5
		c-3.2,4.7-4.5,8.2-5.1,13.7c-1.4,13.5-1.9,15.2-7.5,23.2c-5.6,7.9-5.6,7.9-6.1,24.2c-0.4,9-1.2,17.1-1.9,18.2
		c-0.6,1.1-3.1,4.8-5.7,8.3c-3.9,5.5-4.6,7.9-5.5,16.9c-1.1,10.8-2.1,13.8-7.4,20.7c-1.7,2.1-4.4,7.2-5.9,11.2
		c-1.6,4-4.3,9.4-6,11.9c-1.8,2.5-4.9,8.7-7,13.6c-2.1,5-5.4,10.9-7,13.1c-1.8,2.1-4.5,7.3-6,11.3c-1.6,4-4.9,10.2-7.3,13.7
		c-3.8,5.5-4.6,8-5.5,16.9c-1.1,11.2-1.4,12-8.5,22.1c-4.7,6.6-4.7,6.6-4.7,21.2c0,11.5-0.6,15.6-2.4,19.7c-1.4,2.8-3.1,5.6-3.9,6
		s-2.6,3-4.1,5.7c-2.2,4.3-2.6,7.4-2.6,25.6c0,22.1,0,22-7.7,32.8c-4.8,6.7-4.8,6.7-5.4,29.3c-0.4,12.5-1.2,23.5-1.9,24.5
		c-0.7,1.1-3.3,4.9-5.8,8.6c-4.7,6.7-4.7,6.7-5.4,23.1c-0.4,9-1.4,17.5-2.1,18.9c-0.9,1.4-3.6,5.6-6.2,9.2
		c-4.7,6.6-4.7,6.6-4.7,20.8c0,15.8-0.7,18.2-7.6,27.9c-4.8,6.7-4.8,6.7-5.1,21.4c-0.1,8.1-0.6,16-1.2,17.5
		c-0.5,1.6-3.5,6.3-6.6,10.8c-5.7,8-5.7,8-5.7,22.6c0,11.6-0.6,15.7-2.4,19.8c-1.4,2.8-3.1,5.6-3.9,6c-0.8,0.5-2.6,3-4.1,5.7
		c-2.1,4-2.6,7.3-2.6,19.3c0,15.4-0.2,16.2-7.5,26.5c-4.1,5.7-4.8,7.8-5.5,17c-1,11.1-0.9,10.9-7.3,20.2c-3.3,4.7-4.6,8.1-5.1,13.7
		c-1.4,13.4-1.9,15.2-7.3,22.8c-4.8,6.7-5.4,8.6-6.3,18c-1.1,11.4-1,11-7.5,20.4c-3.5,5.1-4.7,8.2-5.6,15.6
		c-0.6,5.2-2.3,11.8-3.9,14.9c-1.5,3.1-2.7,6.9-2.7,8.6c0,4,6,9.1,14.3,11.8c3.8,1.3,9.8,4.1,13.5,6.3c3.7,2.2,8.9,4.8,11.4,5.6
		c2.6,0.8,8,3.3,12,5.7c10.6,6.1,14.3,7,28.9,7c14,0,13.8,0,29.7,8.8c5.5,3,6.6,3.1,35.1,3.7c29.4,0.6,29.4,0.6,38.1,6
		c4.8,3,10.9,5.9,13.6,6.5s22,1.1,42.8,0.9c41.4-0.3,38.6-0.7,52.6,7.8c6.9,4.2,6.9,4.2,30.7,4.9c23.6,0.7,23.8,0.7,30.3,4.5
		c3.6,2.1,9.2,4.8,12.4,6c3.2,1.2,9.6,4.4,14.3,7c4.7,2.6,11,5.7,14.1,6.7c3.1,1.1,7.2,2.9,9.2,4.3c9,6,12.4,6.9,29.1,7.7
		c16.5,0.8,16.5,0.8,26,6.2s9.5,5.6,25.4,6.2c12.5,0.6,17,1.3,20.9,3.3c2.8,1.5,8,4.1,11.6,5.8c3.6,1.9,8.5,3.2,11.1,3.2
		c9.9-0.1,14.7-3.7,53.2-40.2c20.5-19.4,39.4-38.1,42.2-41.5c2.7-3.4,6.3-9.6,8-13.7s4.3-9.6,6-12.2c1.7-2.5,4.3-7.6,5.7-11.2
		c1.5-3.6,5-10.2,7.8-14.6c2.8-4.5,6-10.6,7.1-13.6c1.1-3,3.7-8.1,5.6-11.2c2-3.1,4.7-8.3,5.9-11.3c1.3-3.1,4.6-9.3,7.4-13.8
		c2.8-4.5,5.2-8.7,5.2-9.4c0-0.7,2.9-6.8,6.4-13.6c5.1-9.8,6.6-14.3,7.3-20.8c0.7-6.7,1.9-9.9,6.1-16.8c4.3-6.7,5.7-10.5,7-19.1
		c1.5-9.1,3.1-13.3,10.6-27.6c5-9.3,10-18.3,11.3-20.2c1.4-1.9,3-8.5,4.1-15.3c1.4-9.4,2.6-13.2,5.7-17.9c2.1-3.2,5.9-10.1,8.5-15.3
		c4.1-8.4,6.8-11.5,25.2-28.7c20-18.7,21-19.5,31.8-23.6c11.1-4.2,11.1-4.2,45.9-37.5c31.1-29.7,35.7-33.7,42.4-36.2
		c4.2-1.7,11-5.1,15.2-7.6c4.2-2.5,9.7-5.4,12.4-6.1c2.6-0.8,9-3.7,14-6.3c9.3-4.8,9.3-4.8,41.4-4.8s32.1,0,45.6,6.3
		c7.4,3.5,15.5,7.4,17.9,8.8c2.5,1.4,10,5,16.8,8c12.2,5.6,12.2,5.6,72.6,63.4c59.8,57.3,60.4,58,63.8,66.5c2.7,6.9,5.8,11.2,15,21
		c16.5,17.6,35.2,33.4,41.9,35.4c6.4,1.9,11.9,1,15.2-2.5c1.9-2,2.5-5.5,3.1-17.2c0.8-14.7,0.8-14.8,6.5-23.8
		c4.9-7.7,5.9-10.7,7.3-20.1c1.3-9,2.4-12.4,6.3-18.4c3.7-5.7,5.1-9.4,5.9-16.6c1.6-11.7,1.9-12.7,7.9-22.2
		c4.8-7.6,5.1-8.6,5.1-18.2c0-14.2,1.9-22.1,7.1-30.3c3.4-5.3,4.9-9.4,5.9-16.5c1.8-12.1,2.1-13.1,7.5-21.1
		c2.5-3.7,5.3-8.8,6.1-11.2c1.5-3.9,8.8-18.5,16.7-33.1c20.5-38,20.8-38.6,21.9-47.9c0.7-5.1,2.2-11.3,3.6-13.7
		c7.4-13.3,22.1-41.3,23.7-45c1-2.4,3.5-7,5.6-10.2c2-3.2,5.2-9.2,6.8-13.2c1.8-4.1,5-10.2,7.2-13.7c3.1-4.7,4.4-8.7,5.4-15.8
		c1.5-11.1,2.5-14.1,7.5-21.1c2-2.8,4.7-7.7,5.9-10.8c1.3-3.1,4.5-9.5,7.2-14.3s5.4-10.1,5.9-11.9c0.5-1.8,3.3-6.9,6.1-11.5
		c4.9-7.8,7-15.7,7.5-27.9c0-0.7,2.1-4.7,4.8-8.8c2.5-4.1,6-10.6,7.7-14.5c1.7-3.9,4.9-9.7,7.2-12.9c3.4-4.8,4.5-8,5.9-17.5
		c1.4-9.4,2.6-13.1,6.3-18.9c2.5-4,5.7-9.7,6.8-12.9c1.3-3.1,4.3-8.7,6.8-12.5c3.7-5.6,4.8-8.7,5.7-16.9c0.7-5.5,2.2-12,3.6-14.3
		c1.4-2.3,4-7.1,5.8-10.5c1.9-3.4,3.4-8.2,3.4-10.6c0.1-7.7,2.4-15,7.3-22.3c2.5-3.9,5.6-9.3,6.5-12c1-2.7,3.9-8.5,6.4-12.8
		c3.3-5.7,4.9-10.3,5.7-17c1.4-10.4,2.8-14.6,6.7-20c1.6-2,4.3-7.1,6.1-11.4c1.9-4.2,5.4-10.9,7.8-14.9c3.1-5.3,4.7-9.7,5.6-16.2
		c1.5-11.5,1.9-12.8,7.2-20.4c2.4-3.5,5.2-8.6,6.2-11.4c1-2.7,4.3-9.4,7.2-14.7c3.4-6.1,5.4-11.3,5.4-14.2c0.1-7.8,2.5-15.5,6.9-22
		c2.3-3.4,5.3-8.8,6.5-11.9c1.3-3.1,4.5-9.5,7.2-14.3s5.7-10.7,6.6-13.1c1-2.4,3.7-7.3,6.1-10.8c3.4-5.1,4.7-8.5,5.6-15.6
		c1.7-12.8,2.2-14.6,6.5-21.1c2.1-3.2,5.3-9.1,6.9-13.1c1.7-4,4.9-10.1,7.1-13.4c4.2-6.2,4.7-8.1,6.1-20.8c0.6-5,2.1-9.3,5.4-14.3
		c2.5-4,5.9-10.4,7.6-14.3c1.7-3.9,4.9-9.6,7.1-12.8c2.2-3.1,4.9-7.8,5.8-10.4c1-2.5,4.2-9.1,7.1-14.4c3.4-6.2,5.4-11.4,5.5-14.3
		c0.1-7.7,2.4-15.1,6.9-21.9c2.3-3.5,5.4-9,6.6-12.1c1.3-3.1,4.5-9.5,7.2-14.3c2.7-4.8,5.6-10.7,6.6-13.1c1-2.4,3.7-7.2,6.1-10.7
		c3.5-5.1,4.7-8.3,5.6-15.6c1.7-12.8,2.2-14.7,6.4-21c2-3.1,5-8.7,6.5-12.5c1.6-3.7,4.9-10,7.4-13.9c3.6-5.7,4.9-9.2,5.8-16.9
		c0.7-5.4,2.4-12,4-14.8c1.5-2.7,5.7-10.6,9.4-17.4c3.7-6.8,8-14.7,9.4-17.4c9.6-17.5,16-31.7,16.1-35.6c0.1-7.4,2.3-14.6,6.9-21.5
		c2.3-3.6,5.1-8.6,6-10.9c1-2.4,4-8.3,6.6-13.1c2.7-4.8,5.9-11.3,7.2-14.3c1.3-3.1,4.3-8.5,6.7-12.1c3.5-5.1,4.7-8.5,5.7-15.6
		c1.7-12.9,2.1-14.4,7.1-22.2c2.4-3.8,5.5-9.4,6.6-12.5c1.3-3.1,4.2-8.5,6.6-12c3.6-5.3,4.6-8.2,5.7-17.4c1.2-9.5,2-12.3,6.4-19.3
		c2.8-4.5,5.9-10.3,7-13.2c1-2.7,4.3-8.6,7.2-13c2.9-4.4,5.4-8.7,5.4-9.4s2.9-7,6.5-13.7c4.2-7.9,6.5-13.7,6.5-16.7
		c0.1-7.5,2.1-13.7,7.2-21.6c4-6.2,5.1-9.3,6-17.6c0.7-5.6,2.2-12.2,3.6-14.5c1.4-2.4,4-7.1,5.8-10.5s3.4-8.2,3.4-10.6
		c0.1-7.7,2.4-14.9,7.3-21.9c3.9-5.7,4.9-8.4,5.9-17.1c0.8-6.8,2.3-12.3,4.4-16c1.8-3.1,4.7-8.7,6.5-12.5c1.9-3.8,4.6-9.1,6.1-11.9
		c1.6-2.8,8.8-16.3,16.1-29.9c7.3-13.7,14.5-27.2,16.1-29.9c1.6-2.7,7.2-13.7,12.7-24.4c5.5-10.6,11-21.3,12.4-23.7
		c1.4-2.4,7.3-13.6,13.1-24.9c5.7-11.3,12-23.1,13.7-26.2c1.8-3.1,7.4-14,12.6-24.4s10.8-20.8,12.5-23.2c2-2.9,3.5-7.7,4.4-14.3
		c1.7-12.5,2-13.6,6.7-20.8c2.1-3.2,5.2-9.2,6.9-13.3c1.7-4.1,5-10.1,7.2-13.2c2.2-3.1,5-8.1,6-11s4-8.8,6.4-13
		c3.5-6,4.8-9.9,5.7-17.9c0.8-6.8,2.3-12.3,4.6-16.5c3.9-7.2,4.1-8.9,1.5-11c-1.6-1.3-4.8-0.2-17.3,5.6
		c-15.3,7.1-15.5,7.2-36.9,27.6c-19,18-22.5,20.8-29.6,23.5c-4.4,1.7-11.5,5.1-15.6,7.5c-4.1,2.4-10.2,5.4-13.4,6.4
		c-3.2,1.1-8.9,3.9-12.6,6.3c-5.9,3.9-8.1,4.5-18.5,5.5c-11.1,1-12.4,1.5-19.9,6.4c-8,5.5-8,5.5-44.8,5.7
		c-20.3,0.2-38.7,0.1-40.9-0.4c-2.2-0.4-7.8-3.1-12.4-5.9c-8.2-5.3-8.2-5.3-23.9-6c-22.9-1.2-28.2-4-32.7-17.7
		c-2.7-8-7.2-13.9-12.7-16.7c-2.2-1.2-9.1-2.5-15.2-3.1c-8.5-0.8-12.4-1.9-16.8-4.5c-13.5-8.1-12.1-7.8-38.9-7.8
		c-27,0-27,0-38.7,8.1c-5.3,3.6-5.9,3.8-22.4,4.2c-20.9,0.5-23.5,0.1-33-5.8c-4.2-2.6-11.1-6-15.3-7.6c-8.4-3.2-19.9-12.5-24.6-19.8
		c-2.9-4.5-3-5.6-3.6-46c-0.7-41.4-0.7-41.4-6.2-48.9c-5.5-7.3-7.2-12.4-8.9-25.2c-0.4-3.3-2.6-8.8-5.2-12.8
		c-2.4-3.9-5.7-10.1-7.1-14c-1.5-3.8-4.5-9.4-6.5-12.3c-2-2.9-5.4-9.1-7.3-13.5c-4.4-10.5-10.3-15.8-17.5-15.8
		c-6.9,0-11.9,5-16.5,16.5c-2.9,7.4-5.4,10.8-13.6,19.1c-7.8,7.8-10.6,11.7-12.9,17.4c-5.7,15.2-9,17.7-24.7,19.2
		c-11.3,1.1-10.8,1-20.9,7.4c-7,4.5-7,4.5-34,4.5c-27,0-27,0-35.2-4.8c-4.5-2.6-11.6-6-15.8-7.7c-4.2-1.6-10.2-4.5-13.3-6.5
		c-3.1-2-8.6-4.7-12.2-5.9c-3.6-1.3-10.1-4.3-14.4-6.8c-4.4-2.5-10.5-5.4-13.6-6.3c-3.8-1.2-9.2-4.9-15.9-10.9
		c-11.8-10.5-13.7-11.5-27.6-12.9c-7.6-0.8-11.7-1.9-16.2-4.6c-13.8-8.1-13.2-7.9-28.1-7.9c-15.5,0-19.2-1-29.3-7.7
		c-6.2-4.1-6.2-4.1-45.4-4.4C6942.7,891.8,6935.5,892.1,6931.8,893.7"/>
</g>
<g id="Layer_12">
	<path class="st0" d="M3760.7,1031.5c-3.1,1.4-9.6,6.1-14.5,10.6c-6.4,5.9-11,9-17,11.2c-4.5,1.7-10.9,4.8-14.3,6.8
		c-3.3,2-8.7,4.6-11.9,5.7c-3.2,1.1-9.2,3.9-13.2,6.3c-4.1,2.4-9.9,5.2-13.1,6.2c-15.6,5.3-28.6,17.3-34.4,31.8
		c-3,7.5-5.4,11-12.5,18.1c-8.8,8.8-12.5,14.4-15.6,23.7c-1.2,3.6-5.9,9.2-17,20c-15.2,14.9-18,18.6-21.6,28.4
		c-1.1,2.8-3.6,7.7-5.7,10.8c-2,3.1-5.1,9.1-6.6,13.2c-2.7,7.1-5.6,10.1-51.3,54c-43.4,41.7-49.2,46.8-55.4,49
		c-11.3,4-14.5,6-24.4,14.9c-6.9,6.2-11.1,9-16.4,10.6c-3.9,1.3-10.5,4.6-14.7,7.4c-7.6,5.1-7.6,5.1-25.6,5.7
		c-17.9,0.6-18.1,0.7-23.7,4.8c-10.8,7.9-11.3,8-46.1,7.5c-31.6-0.4-31.6-0.4-39.7-5.2c-4.5-2.6-11.6-6-15.8-7.7
		c-4.2-1.6-10.2-4.5-13.3-6.5c-3.1-2-9.2-5-13.5-6.6c-11.4-4.3-23.8-16.5-28-27.5c-3.9-10.4-7.8-15.3-14.9-18.6
		c-5-2.3-8.1-2.6-25.8-2.6c-21.8-0.1-25.7-0.9-35.2-7c-3.2-2-8.8-4.9-12.4-6.1s-9.5-4.2-13.2-6.5c-5.7-3.6-8.4-4.4-17.6-5.2
		c-10.1-0.9-20.6-4.3-22.6-7.5c-0.4-0.6-5.3-2.9-10.8-5.2c-5.6-2.2-12.5-5.6-15.3-7.4c-2.8-1.9-8.2-4.5-11.8-5.7
		c-3.6-1.3-9.2-3.9-12.4-5.8c-6.9-4.2-13.1-5.9-20.7-5.9c-6.4,0-12.3-2.1-20.2-7.2c-3-1.9-8.5-4.7-12.1-5.9s-9.4-4.1-13.1-6.2
		c-3.6-2.1-9.4-5-13.1-6.2c-3.6-1.3-9.6-4.3-13.3-6.6c-5.8-3.7-8.4-4.4-17.9-5.3c-8.9-0.8-12.4-1.7-17-4.5
		c-13.9-8.3-12-7.9-41.4-7.9c-29.6,0-31.1-0.3-42.4-7.7c-6.2-4.1-6.2-4.1-29.7-4.8c-24.8-0.7-25.1-0.8-35.7-8
		c-5.5-3.7-6.2-3.9-23-4.6c-17.2-0.7-17.2-0.7-26.7-6.1c-8.1-4.7-10.8-5.6-19.5-6.3c-11.5-1.1-13.6-1.7-19.5-5.8
		c-7.3-5.2-12.7-6.6-24.1-6.6c-5.9,0-12.2,0.4-13.7,0.8c-5.2,1.4-3.7,6.1,4.6,14.4c9.5,9.5,17.2,14.8,27.1,18.5
		c7.2,2.7,11.1,6,49.5,43c41.4,39.7,41.7,40,47.2,51.2c4.2,8.5,7.4,13,13,18.1c9.5,8.9,11.1,11.9,12.4,23.9
		c0.9,8.2,1.9,11.1,5.8,17.2c2.6,4.1,5.7,9.7,6.7,12.8c1.1,2.9,4,8.5,6.4,12.3c2.4,3.8,5.7,9.9,7.2,13.6c1.6,3.7,3.8,8.2,5.2,9.9
		c6.1,8.4,7.2,11.8,7.9,26.5c0.7,13.1,1.1,14.9,3.8,17.7c4.1,4.2,24,14.9,32.4,17.5c5.1,1.6,9.6,4.6,17.3,11.3c8,7,12.5,9.8,18.6,12
		c7.4,2.5,10.3,4.9,36.1,28.9c27.4,25.5,31.2,29.9,37,43.2c1.6,3.5,8.1,11.1,17.7,20.7c13.5,13.4,15.7,16.1,18.8,24.2
		c2.8,7.1,5.7,11.1,13.2,18.9c7.5,7.8,10.3,11.9,13.2,19c3.2,8.1,5.3,10.6,18.8,24.1c15.1,14.9,15.3,15.1,25.3,35
		c5.6,11,11.3,21.9,12.8,24.4c1.5,2.4,4.3,8,6.4,12.5c2.1,4.5,4.8,9.5,5.8,11.2c1.1,1.7,4.1,7.3,6.5,12.5c2.5,5.2,5.2,10.5,6,11.9
		c4.8,7.9,21.8,40.9,23.9,46.1c2.8,7.2,15.4,20.6,23.4,25c2.9,1.7,7.9,3.8,10.9,4.9c3,1.1,8,3.5,11.1,5.6s9.4,5.2,13.9,6.9
		c4.6,1.8,11.4,5.3,15.3,7.8c8.6,5.7,15.2,6.7,32.7,5.5c12.8-1,13.8-1.3,23.5-6.7c11-6.2,10-6.1,37-6.2c17.7-0.1,17.7-0.1,26.1-5.1
		c4.6-2.7,11.3-6.1,14.9-7.5c3.6-1.5,10.3-4.6,15-7.1c6.7-3.6,10.7-4.8,19.3-5.7c7.7-0.9,12.2-2.1,15.7-4.3
		c2.6-1.7,12.9-6.8,22.6-11.4c17.7-8.3,17.7-8.3,55.7-8.3s37.9,0,47.8,5.1c7.4,3.8,12.4,5.4,19.7,6.2c5.7,0.7,12,2.3,15.1,4
		c14.4,7.7,16.4,8.5,22.1,8.5c8.3,0,15.2,2,23.6,6.9c4,2.3,9.6,5.1,12.8,6c3,1,8.1,3.5,11.1,5.5c3,2,10,5.5,15.5,7.6
		c9.8,3.9,10.5,4.6,49.3,42c38.5,37.1,43.1,40.8,55.1,44.9c2.7,1,7.6,3.4,10.7,5.5s8.9,5,12.7,6.3c3.9,1.5,10.1,4.3,13.9,6.3
		c3.8,2,9.8,4.8,13.5,6.2c3.6,1.4,9.2,4.2,12.2,6.1c3,2,8.7,4.9,12.6,6.3c3.9,1.5,10.5,4.5,14.8,6.8c4.4,2.3,10.5,5.2,13.7,6.3
		c3.2,1.2,8.3,3.7,11.3,5.7c2.9,1.9,8.3,4.6,11.8,5.9c3.5,1.4,12.2,5.3,19.3,8.8c7.1,3.5,13.6,6.3,14.6,6.3c0.9,0,6.6,4.4,12.7,9.7
		c7.9,6.9,13.2,10.5,18.3,12.5c4.1,1.5,11.3,5,16.1,7.7s9.4,5.1,10,5.1c0.8,0,9.8,4,20.3,9c14.7,6.9,20.8,10.5,26.8,16.1
		c8,7.2,12.6,10,21.7,13.1c2.8,1,7.7,3.4,10.8,5.5c3.1,2,8.9,5,12.7,6.4c3.9,1.5,11.1,4.8,16.2,7.4c5.1,2.6,10.6,5.2,12.4,5.7
		c1.8,0.5,6.8,3,11.1,5.7c4.3,2.6,10.8,5.7,14.3,7c3.6,1.3,9.2,3.8,12.4,5.7c3.2,1.9,9.1,4.6,13.1,6c4,1.5,10.1,4.6,13.7,7
		c14.8,9.6,26.7,5.8,26.7-8.8c0-6.1,2.1-11.8,7.2-18.8c3.9-5.5,5-8.4,6.5-18.1c1.5-9.4,2.7-13.1,6.6-19c4.4-6.7,6.8-15.9,7.1-26
		c0-1.1,2.5-5.8,5.6-10.6s6.5-11.5,7.9-14.9c1.4-3.4,4.2-8.9,6.4-12.2c2.8-4.3,4.3-8.4,5.2-14.9c1.6-11.8,1.9-12.7,7.7-22.2
		c4.1-6.6,5.2-9.8,5.9-17.3c0.8-8.2,2-11.2,10.8-27.5c5.5-10,12.4-23.1,15.5-29.1c3.3-6.4,7.9-13.1,11.3-16.3
		c8.2-7.8,12-13,15.9-22.5c2.5-6,5.8-10.8,11.9-17c5.8-6,9.8-11.7,13.3-19c3.5-7.3,7.6-13.1,13.4-19.2c5.8-6.1,9.5-11.4,12.2-17.4
		c2-4.8,5.3-10.9,7-13.7c1.8-2.7,4.6-8.3,6.2-12.3c1.7-4,4.8-10,7-13.2c2.2-3.3,5.4-9.4,7.1-13.5s4.3-9.2,5.6-11.1
		c1.5-1.9,4.1-7,5.9-11.4c1.9-4.4,5.2-10.6,7.4-13.9c2.1-3.2,5.4-9.4,7.1-13.5c1.8-4.2,4.4-9.3,5.8-11.3s4.4-7.5,6.4-12.2
		c2-4.7,5.3-10.7,7.1-13.3c1.9-2.6,4.7-7.8,6-11.5c1.5-3.7,4.2-9.2,6.1-12.1c1.9-2.9,4.9-8.6,6.5-12.7c1.7-4,4.8-10,7-13.2
		c2.2-3.3,5.4-9.4,7.1-13.5c1.8-4.2,4.4-9.4,5.9-11.4c1.6-2,4.3-7.3,5.9-11.5s4.7-9.8,6.5-12.4c1.9-2.5,5.1-8.7,7.1-13.5
		c2.1-5,5-10.4,6.3-12.3s4-6.9,5.8-11.2c1.9-4.4,5.2-10.4,7.3-13.6c2.1-3.1,5.1-8.7,6.5-12.3c1.4-3.6,4.3-9.3,6.4-12.6
		c2.1-3.3,5.1-8.9,6.5-12.4c1.5-3.5,4.4-9.1,6.6-12.4c2.2-3.3,5.2-9.1,6.6-12.7s4.1-9,6-11.8c1.9-2.8,5-8.9,6.9-13.4
		c1.9-4.6,5.4-10.8,7.5-13.8c5.9-8.3,9.2-17.6,7.3-21.5c-1.9-3.9-13.5-11.3-23.4-14.8c-4.2-1.6-10.4-4.4-13.7-6.3
		c-3.3-1.9-9.8-5.1-14.3-6.8c-4.6-1.8-9.8-4.3-11.8-5.7c-1.9-1.4-8.1-4.4-13.6-6.8c-7.3-3.2-12.8-6.8-19.5-13
		c-6.8-6.2-11.4-9.3-17-11.2c-4.2-1.5-10.9-4.5-14.8-6.7c-4-2.2-10.1-5.1-13.7-6.3c-3.6-1.3-9.7-4.4-13.5-6.8
		c-7-4.4-7.2-4.5-24.2-5.2c-17.7-0.7-19.2-1.1-28.9-7.7c-4.4-3-7.3-3.8-16.9-4.8s-12.7-1.9-18.2-5.2c-3.6-2.2-8.7-4.9-11.2-5.9
		c-2.5-1.1-10.6-4.9-18.1-8.5s-14.2-6.5-15.1-6.5c-0.9,0-5.1-2.1-9.3-4.8c-4.3-2.6-10.6-5.7-14.2-7c-3.6-1.3-9.4-4.1-13.1-6.2
		c-3.6-2.1-9.4-5-13.1-6.2c-3.6-1.3-9.5-4.1-13.1-6.2c-3.6-2.1-9.2-4.9-12.4-6.1c-3.2-1.2-9.1-4-13.1-6.2c-4-2.2-10.1-5.1-13.7-6.3
		c-3.6-1.3-9.4-4.1-13.1-6.2c-3.6-2.1-9.5-5-13-6.2c-3.5-1.3-9.7-4.1-13.7-6.4c-4-2.2-9.9-5.1-13.2-6.2c-3.2-1.2-8.3-3.7-11.3-5.7
		c-3-1.9-8.3-4.6-11.8-5.9c-6.4-2.4-26-11.5-36.9-17.1c-3.2-1.7-9.6-4.7-14.3-6.7c-4.7-2-10.5-4.9-13.1-6.2
		c-2.5-1.4-9.5-4.8-15.6-7.5c-7.9-3.6-13.6-7.4-20.3-13.4c-7.2-6.5-11.2-9.1-17.7-11.4c-4.7-1.7-10.9-4.6-14-6.5
		c-3-1.9-9.3-5-13.8-6.6s-11-4.7-14.3-6.6c-3.3-1.9-8.8-4.7-12.3-5.8c-3.4-1.3-8.6-3.8-11.5-5.6c-7.2-4.7-9.1-5.2-20.5-6.2
		c-8.7-0.8-11.3-1.7-19.6-6.4c-9.5-5.5-9.5-5.5-25.8-6.1c-16.4-0.6-16.4-0.6-26.8-6.5C3774.2,1028.2,3769.6,1027.6,3760.7,1031.5"/>
</g>
<g id="Layer_11">
	<path class="st0" d="M2329.1,1205.7c-1.7,1.1-4.5,4.9-6.3,8.4s-4.5,8-5.8,9.7c-1.4,1.9-4.1,7.2-6.1,11.9c-2,4.7-5.7,11.4-8.1,14.8
		c-4.4,6.1-4.5,6.3-5.2,23.2c-0.7,16.4-0.8,17.1-4.6,22.1c-9,11.9-8.5,7.8-8.5,67.6c0,54.4,0,54.4,3.2,59.9
		c8.7,15.2,9.8,18.1,9.8,24.5c0,7.8,1.4,11.6,7.3,19.8c9,12.5,8.9,30.3-0.2,42.5c-2.5,3.3-5.7,9.2-7.2,13c-1.5,3.8-4.9,9.8-7.5,13.5
		c-4.8,6.7-4.8,6.7-5.5,23.7c-0.7,17-0.7,17-6.1,24.9c-3,4.4-6.1,10-6.9,12.7c-0.8,2.6-3.5,7.8-6,11.4c-6,8.6-7.5,12.6-6.4,17.9
		c1.3,6.5,6.7,9.3,18.3,9.3c11.9,0,17.7-2.6,29-12.8c6.2-5.7,11.3-8.9,17.3-11.2c4.7-1.8,11.6-5.3,15.4-7.7
		c11.6-7.5,30.4-8,41.8-1.2c8.6,5.2,10.4,6,18.5,9.4c8.8,3.7,36.5,28.9,39.7,36.1c1.5,3.3,2,9,1.9,20.6c0,20.2-1.9,25.2-11,29
		c-13.6,5.7-17.3,7.6-22.7,11.5c-5.7,4.1-5.7,4.1-22.7,4.5c-9.4,0.2-18.9,0.1-21.2-0.4c-2.3-0.4-8.2-3.3-13.2-6.3
		c-7.4-4.7-9.9-5.6-15.2-5.6c-8.1,0-12.8,2.3-23,11.7c-8.2,7.5-12.6,14.1-15.9,23.8c-1.1,3.1-5.5,8.8-11.9,15.2
		c-6.7,6.8-10.6,11.9-11.6,15.1c-0.9,2.8-1.4,20.8-1.4,45.3c0,40.6,0,40.6,3.2,46.2c9.9,17.3,9.8,17.2,9.8,31.2s-0.1,13.7,9.2,28.9
		c3.2,5.4,3.2,5.4,3.9,66c0.6,55.6,0.9,60.9,3,64c5.4,7.8,12.6,6.7,20.8-3c6.9-8.3,12.2-10.1,31.3-11c16.1-0.8,16.7-0.9,23.5-5.2
		c3.9-2.4,8.2-4.9,9.6-5.5c1.5-0.6,34.3-0.9,73.1-0.9c39.5,0.1,72.7-0.4,75.5-1c2.7-0.7,8.4-3.1,12.4-5.5c4.1-2.3,10.9-5.6,15.2-7.2
		c5.4-2,10.9-5.7,17.8-11.8c7.7-6.7,12.3-9.7,19.2-12.3c11.6-4.4,20.6-11.7,55.1-45.3c24.2-23.5,27.7-26.4,34.5-28.9
		c4.2-1.6,11-5,15.3-7.7c12.8-8.2,19.3-8.1,32.4,0.3c8.7,5.6,17,7.3,22,4.8c1.7-0.8,4.6-5,6.6-9.2c2-4.2,5.2-9.6,7-12
		c1.9-2.3,4.6-7.4,6-11.2c1.5-3.8,4.4-9.5,6.5-12.7c2.9-4.4,4.2-8.3,5.2-16.1c1.4-10.3,2.8-14.1,8.7-22.6c2-2.9,3.7-8.4,5-15.6
		c1.1-6.1,2.6-13.5,3.5-16.5c1.9-6.3,1.1-7.5-8.4-10.8c-8.3-2.9-15.7-11.1-19.3-21.3c-1.6-4.4-4.6-10-6.7-12.7
		c-8.5-10.2-8.2-7.5-7.8-60.8c0.3-37.9,0.8-49.6,2.2-53.5c2.2-6.1,2.3-13.9,0.2-17.5c-1.1-1.9-1.9-11.9-2.3-30.8
		c-0.7-25.7-1-28.5-3.6-33.3c-1.6-2.8-3.4-5.6-4.1-5.9c-0.7-0.4-3.1-5.1-5.4-10.4c-2.3-5.4-5.9-12.1-8-15c-2.2-3.1-4.4-8.3-5.2-12.5
		c-3.1-16.6-3.9-19.2-7.2-24.3c-1.9-2.9-4.9-8.6-6.4-12.5c-1.7-3.9-4.1-8.7-5.5-10.6c-5.3-7.1-7.2-12.5-8.2-21.8
		c-1.3-11.6-2.9-15.2-9.4-20.3c-5-3.9-5-3.9-68.5-4.5c-67.8-0.7-64.9-0.4-74.3-7.1c-2.3-1.7-7.9-4.4-12.3-6
		c-4.4-1.7-10.6-4.6-13.9-6.6c-3.3-2-9.5-5-13.8-6.4c-9.4-3.3-22-14.6-27.1-24.3c-3.9-7.3-7.3-10.5-15.3-14.3
		c-3.2-1.6-7.5-3.9-9.4-5.3c-1.9-1.4-7.2-3.8-11.6-5.5c-4.4-1.7-10.7-4.7-14-6.7c-3.3-2-8.7-4.6-11.9-5.7c-3.2-1.1-9.1-3.9-13.1-6.2
		s-10.5-5.5-14.4-6.8c-9-3.2-20.5-12.3-24.4-19.2c-4.9-8.7-3.4-11.8,12.5-26.4c16.4-15,18.8-18.1,18.8-23.8
		c0-8.1-6.3-13.7-19.5-17.4c-5.5-1.6-8.8-3.7-16-10.5c-12.1-11.4-17.4-13.8-30.8-13.8C2335,1203.8,2331.1,1204.2,2329.1,1205.7"/>
</g>
<g id="Layer_10">
	<path class="st0" d="M2470,1230c-1.7,0.7-4.8,2.4-6.9,3.9c-2.1,1.5-7.3,4.3-11.6,6.2c-7,3.2-8.1,4.3-12.2,12
		c-3.1,5.8-7.8,11.5-15,18.4c-15.7,14.8-14.5,17.7,11,29.5c7.2,3.3,15.7,7.4,18.9,9.1c3.2,1.7,15.1,7.3,26.3,12.6
		c22.2,10.3,30.2,16.6,36.3,28.2c4,7.6,7.4,10.8,15,14.5c3.6,1.8,8,4.2,9.7,5.4c1.8,1.2,6.9,3.6,11.3,5.4c4.4,1.8,10.6,4.8,13.7,6.8
		c9.3,6,12.9,6.5,55.8,6.4c42.5-0.1,59-1,61.5-3.3c3-2.8-0.4-8.4-11.1-18.5c-9.5-9-11.1-11.1-13.7-18.5
		c-3.8-10.9-11.2-20.2-27.8-34.5c-17-14.8-21.5-19.6-23.4-25c-2.8-8.3-6.7-14.2-13.9-21.5c-10.3-10.3-13.9-12.2-27.1-13.4
		c-9.8-1-12.5-1.8-20.2-6.2c-7.6-4.4-10.4-5.3-19.4-6.1c-9.2-0.9-11.8-1.8-20-6.4c-9.3-5.4-9.7-5.5-21.9-5.7
		C2478.6,1228.8,2471.6,1229.3,2470,1230"/>
</g>
<g id="Layer_9">
	<path class="st0" d="M4557.1,1388.6c-3.8,1.8-10.5,11.7-14.9,21.9c-2,4.9-5.3,11-7.1,13.6c-1.9,2.6-4.8,8.3-6.5,12.5
		c-1.8,4.2-4.9,10.1-6.9,13.1c-2.1,3-4.9,8.2-6.2,11.7c-1.4,3.4-4.1,8.9-6.1,12.1c-2,3.2-5.2,9.3-6.8,13.3s-4.8,9.8-6.9,12.9
		s-4.6,7.7-5.5,10.4c-0.9,2.7-3.7,8.3-6.2,12.3c-2.5,4-5.9,10.5-7.6,14.5c-1.7,4-4.8,9.7-6.8,12.8c-2.1,3-4.6,7.7-5.5,10.4
		c-0.9,2.7-3.7,8.3-6.2,12.3c-2.5,4-5.9,10.5-7.6,14.5c-1.7,4-4.7,9.7-6.8,12.8c-2.1,3-4.9,8.2-6.1,11.7c-1.3,3.4-3.8,8.3-5.6,10.8
		c-1.8,2.5-4.9,8.6-7,13.4c-2,4.9-5.5,11.3-7.5,14.1c-2,2.9-4.8,8.1-6.1,11.5s-3.8,8.3-5.6,10.8c-1.8,2.5-4.9,8.6-6.9,13.4
		s-5.5,11.2-7.5,14.1c-2,2.9-4.5,7.5-5.4,10.2c-0.9,2.7-3.7,8.3-6.2,12.3c-2.5,4-5.9,10.5-7.6,14.5c-1.7,4-4.8,9.7-6.8,12.8
		c-2.1,3-4.6,7.7-5.5,10.4c-0.9,2.7-3.7,8.3-6.2,12.3c-2.5,4-5.9,10.6-7.7,14.8c-2.2,5.6-5.7,10-12.8,17.2
		c-8.2,8.2-10.1,11-12.7,18.2c-2.5,7.2-4.6,10.1-13.1,18.8c-8.5,8.7-10.6,11.6-13.1,18.7c-2.4,7.1-4.6,10-13.1,18.7
		c-8.4,8.5-10.6,11.7-12.9,18.3c-1.6,4.4-4.5,10.2-6.6,13c-2,2.7-5.1,8.3-6.7,12.4c-1.6,4.1-4.9,10.2-7.3,13.7
		c-3.8,5.5-4.5,7.8-5.5,17.7c-0.7,7.2-1.9,12.5-3.2,14.3c-8.9,11.7-9.1,12.2-9.9,22.6c-0.9,10.5-1.9,13.5-7.4,20.6
		c-1.8,2.2-4.3,7.1-5.6,10.7c-1.4,3.7-4.6,9.8-7.3,13.7c-4.3,6.1-5,8.3-5.8,17.5c-1.1,11.5-0.9,10.9-7.2,20.1
		c-3.3,4.7-4.6,8.1-5.1,13.7c-1.4,13.4-1.9,15.2-7.3,22.8c-4.8,6.8-5.4,8.6-6.3,18.3c-0.8,8.1-1.8,11.7-3.8,14.1
		c-4.9,5.8-6.9,10.3-6.1,13.3c0.9,3.2,9.6,8.5,29.3,17.5c6.7,3.1,13.8,6.7,15.7,8c1.9,1.3,7.4,3.9,12.3,5.7
		c6.5,2.5,11.5,5.7,19.2,12.5c8.2,7.2,12.4,9.8,19.9,12.6c8.5,3.1,11.1,5,24.5,17.4c14.8,13.7,18.8,16.6,28.8,20
		c2.8,1,7.6,3.4,10.7,5.5s9.6,5.3,14.4,7.1c6.4,2.4,11.5,5.7,19,12.4c6.5,5.7,12.5,9.7,16.6,11.2c3.5,1.3,9.9,4.1,14.4,6.4
		c4.4,2.3,9.6,4.2,11.5,4.2c1.9,0,7.4-2,12.2-4.6c8.7-4.6,8.7-4.6,40-4.7c31.4,0,31.4,0,41.4,5.3c8,4.2,12,5.6,19.6,6.3
		c5.3,0.6,11.5,1.9,13.8,3.1c2.3,1.2,11.7,9.4,20.8,18.4c20.7,20.4,26.5,24.8,38,29c6.9,2.5,11.6,5.5,19,11.9
		c7.4,6.4,12.1,9.4,19.3,12.1c8.9,3.3,10.7,4.8,31,24.2c11.9,11.4,23.6,21.6,26.1,22.7c2.5,1.2,8.4,3.7,13.1,5.8
		c4.7,2,10.5,4.9,13.1,6.2s14.2,7,26.1,12.6c11.9,5.6,24.2,11.5,27.4,13.2s15.6,7.6,27.4,13.2c11.9,5.7,26.2,12.5,32,15.2
		c14.2,6.7,17.5,7.1,22.8,2.6c3.9-3.3,4.3-4.5,5.4-13.8c1.4-12.6,1.9-14.5,6.6-21c5-7,6-9.9,7.5-21.1c1-7.5,2.2-11,5.9-16.8
		c3.8-5.8,5-9.3,6-17.5c1.4-10.2,2.8-14,8.7-22.5c2.1-3,3.7-8.2,4.9-16c1.5-9.3,2.7-13,6.5-18.8c2.6-4,5.7-9.7,6.7-12.7
		s4.3-9.1,7.1-13.5c2.8-4.5,6-10.6,7.2-13.7s3.5-7.7,5.3-10.3c1.8-2.5,4.5-7.6,5.9-11.2c1.5-3.6,5-10.2,7.8-14.6
		c2.8-4.5,6-10.6,7.1-13.6c1.2-3,3.8-8.2,5.8-11.3c2.1-3.1,4.8-8.2,5.8-11.3c1.2-3,4.4-9.3,7.2-13.6c2.8-4.5,6-10.6,7.1-13.6
		c1.1-3,3.7-8.1,5.7-11.2c2-3.1,4.7-8.3,5.9-11.3c1.3-3,4.3-8.8,6.7-12.6s5.6-9.9,7.2-13.7c1.6-3.7,4.5-9.4,6.6-12.5
		c2-3.1,4.7-8.2,5.8-11.2c1.2-3,4.4-9.3,7.2-13.6c2.8-4.5,6-10.6,7.2-13.6c1.2-3,3.9-8.3,6-11.5c3.6-5.4,6.1-15.2,6.3-24.7
		c0-1.1,2.4-5.7,5.4-10.4c4.4-6.9,5.7-10.4,7.1-19.8c1.4-9,2.7-12.8,6.4-18.5c2.5-4,5.6-9.6,6.6-12.6c1.1-2.9,4.3-9.1,7.1-13.5
		c2.8-4.5,6-10.6,7.2-13.7c1.2-3.1,3.5-7.7,5.3-10.3c1.8-2.5,4.5-7.6,5.9-11.2c1.5-3.6,5-10.2,7.8-14.7c2.8-4.5,6-10.8,7.2-14.1
		c1.5-4,5.1-9,11-15.1c8.5-8.8,12.8-15,14.9-21.8c0.5-1.8,2.9-6.2,5.3-9.9c2.3-3.8,5.6-10.2,7.2-14.3c2.7-6.9,5.7-10.1,41.8-44.7
		c21.3-20.5,39.6-38.8,40.3-40.7c2.5-5.7-1.1-10.6-24.5-33c-25.6-24.5-27.4-25.9-39.7-30.8c-5.3-2-12.2-5.3-15.4-7.3
		c-3.2-1.9-9.4-4.9-13.7-6.3c-6.6-2.3-9.4-4.5-18.2-13.5c-25.1-25.8-31.2-30.6-45.1-35.7c-8.4-3-10.5-4.8-30.9-24.3
		c-21.3-20.5-22.2-21-32.9-25.1c-10.3-4-12-5.2-24.6-17.6c-13.4-13.2-15.9-14.8-34.1-22.8c-4-1.8-9.3-4.2-11.8-5.6
		c-7.5-4.1-37.1-17.6-38.4-17.6c-0.7,0-5.1-2.2-9.7-4.9c-4.7-2.7-11.2-5.8-14.4-7.1c-3.2-1.2-8.9-4-12.5-6.1
		c-3.6-2.1-8.7-4.7-11.2-5.5c-2.5-0.8-8.6-3.7-13.3-6.5c-4.8-2.7-11.1-5.8-14-6.8c-2.9-1-9.5-4-14.6-6.6c-5.1-2.6-11.3-5.6-13.8-6.5
		c-2.5-1-7.5-3.4-11.1-5.7c-3.6-2.1-9.5-5-13.1-6.2c-3.6-1.3-9.7-4.2-13.7-6.3c-4-2.2-9.8-5-13.1-6.2c-3.2-1.2-8.4-3.8-11.4-5.7
		c-3-1.9-8.9-4.8-13.1-6.2c-4.2-1.5-10.4-4.4-13.8-6.3c-3.4-2-9.4-4.8-13.1-6.1s-10-4.4-13.9-6.6c-4-2.3-9.8-5.2-13.1-6.3
		c-3.2-1.2-8.8-3.9-12.4-6c-3.6-2.1-9.2-4.9-12.4-6.1c-3.2-1.2-9.4-4.2-13.5-6.6c-6.5-3.8-9.4-4.7-18.7-5.5
		c-9.1-0.8-12.1-1.7-17-4.8C4570.5,1389.1,4562.1,1386.2,4557.1,1388.6"/>
</g>
<g id="Layer_8">
	<path class="st0" d="M2846.1,1488.7c-0.5,1.2-0.6,5.8-0.3,10.4c0.4,6.8,1.4,9.8,5.1,15.9c2.5,4.1,6,10.9,8,15.2
		c1.9,4.2,4.7,9.4,6.3,11.6c1.6,2.1,4.3,7.3,6,11.5s4.9,10.2,6.9,13.3c2,3.2,5.4,10.3,7.2,15.9c3.7,10.8,10.3,19.7,25.9,34.3
		c4.1,3.9,7.5,7.6,7.5,8.3c0,0.7,2.3,2.7,5.2,4.6c6.7,4.5,9.7,10.5,8.9,18c-0.9,7.6-5.8,11.9-16.1,13.9c-5.9,1.2-8.8,2.6-13.6,6.9
		c-3.4,3-6.4,5.2-6.8,4.8c-0.4-0.4-4.4-1.2-9.1-1.9c-9.6-1.4-20.4-5.7-21.4-8.6c-0.4-1.1-5.7-6.9-11.7-13c-9.9-10-11.4-11-15.3-10.6
		c-7.1,0.7-7.6,2.8-7.6,38.2c0,20.2,0.5,31.5,1.3,31.5c0.8,0,1.3,5,1.3,12.6c0,9.1,0.6,13.6,2,16.4c1.9,3.5,3.4,15.4,5.4,41.3
		c0.6,8.2,0.5,8.7-4.6,15.9c-4.4,6.2-5.4,8.9-6,15.9c-1.3,12.8-1.9,14.7-5.7,20c-6,7.9-6.8,10.1-7.9,21.1c-0.9,9.2-1.6,11.3-5.7,17
		c-2.5,3.6-5.8,9.6-7.4,13.5c-1.5,3.9-4.5,9.4-6.6,12.5s-5.1,8.4-6.4,12c-1.5,3.6-4.7,9.4-7.2,13c-5.3,7.4-5.8,12.6-2,19.6
		c1.4,2.5,23.7,24.7,49.5,49.3c44.9,42.8,47.2,45,50.5,52.9c1.9,4.6,5.1,10.5,7.1,13.3c5,6.9,5.5,8.6,6.7,20
		c0.9,8.1,1.9,11.2,5.7,17c2.5,4,5.6,9.6,6.6,12.6c1.1,2.9,3.9,8.5,6.3,12.3c2.3,3.8,5.7,10.3,7.3,14.6c3.2,8.4,11.6,18.4,26.2,31.3
		c10.9,9.5,14,11,27.1,12.6c7.9,0.9,12.4,2.1,16.9,4.8c14.2,8.3,12.8,7.9,33,7.9c21.2,0,26.3,1,36.5,6.9c4,2.3,9.8,5.2,13.1,6.3
		c3.2,1.2,7.6,3.4,9.7,4.9c10.3,7.2,11.5,7.5,35.3,7.5c22.2,0,22.2,0,31.7,5.5c8.2,4.7,10.5,5.5,17.1,5.7c5.8,0.1,8.3-0.4,10.4-2.2
		c4.1-3.5,3.6-10.2-1.3-17.3c-2.1-3.1-4.4-7.3-5-9.3c-0.5-1.9-0.6-21.4-0.2-43.4c0.7-39.9,0.7-39.9,6.5-49.2
		c5.8-9.4,5.8-9.4,6.5-93.7c0.7-84.4,0.7-84.4,6.2-92.3c5.4-7.6,5.6-8.3,5.6-17.4c0-8.4-0.5-10.2-3.7-15.1
		c-4.3-6.4-16.3-17.5-21.8-20.3c-2.1-1.1-5.7-2.2-8-2.7c-2.2-0.5-8-3-12.6-5.7c-4.7-2.7-11.9-6.1-16-7.6
		c-6.5-2.3-10.1-5.3-29.3-23.7c-18.7-18-22.3-22-24.8-28.3c-1.7-4-4.7-9.8-6.7-13c-2-3.2-5.2-9.2-6.8-13.3
		c-1.8-4.2-5.2-10.8-7.8-14.8c-2.5-4-5.6-9.6-6.6-12.7c-1.1-2.9-3.2-7-4.7-9c-1.5-1.9-4.5-7.7-6.6-12.7c-2.1-5-5.4-11.1-7.1-13.4
		c-1.8-2.3-4.7-8-6.5-12.4c-1.9-4.4-4.8-9.9-6.5-12.5c-1.8-2.4-4.8-8.4-6.6-13.2c-3.1-7.7-5.3-10.4-18.9-24
		c-13.5-13.3-16.1-16.5-20.7-26c-4-8.4-7.6-13.2-16-21.9c-7-7.3-11.7-11.2-13.5-11.2c-1.7,0-3.3-1.3-4.2-3
		c-3.2-6.8-17.3-26.7-23.6-33.1c-4.8-5-7.5-9.4-10.1-16.3c-3.3-8.8-4.5-10.2-19.5-24.5c-11.8-11.1-18-16.1-23.6-18.5
		C2854.7,1486.9,2847.3,1485.9,2846.1,1488.7"/>
</g>
<g id="Layer_7">
	<path class="st0" d="M5535.6,1742.4c-2.3,1.2-6.7,3.9-9.6,5.9c-5.5,3.7-5.5,3.7-55.9,4.4c-50.5,0.6-50.5,0.6-55.9,4.4
		c-11.6,8-12.1,8.1-35.5,8.1c-23.4,0-23.9,0.1-35.5,8.1c-5.5,3.7-5.5,3.7-29.9,4.4c-22.1,0.6-24.8,0.9-28.2,3.2
		c-2,1.5-5.6,3.9-7.9,5.5c-3.3,2.2-6.7,3.1-15.8,3.8c-6.3,0.5-13.3,1.8-15.4,2.8c-2.1,1.1-19.7,17.2-39.2,36
		c-33.9,32.7-35.5,34.4-38.4,42.2c-1.7,4.5-4.8,10.5-6.8,13.4c-2.1,2.9-5.1,8.9-6.5,13.1c-2.1,6.1-4.7,9.6-12.7,17.7
		c-8,8.2-10.5,11.6-13,18.3c-1.7,4.5-5,10.9-7.3,14.3c-2.3,3.4-5.3,8.9-6.4,12.3c-1.2,3.4-3.7,8.3-5.6,10.8
		c-1.9,2.5-5.1,8.6-7.1,13.4c-2,4.9-5.5,11.3-7.5,14.1c-2,2.9-4.8,8.1-6.1,11.5s-4.1,8.6-6,11.4c-4.1,5.7-6.2,13.2-6.3,21.4
		c0,6-0.9,7.9-7.6,17.3c-4.1,5.7-4.8,7.8-5.5,16.9c-0.9,10.5-1.8,12.9-7.9,21.5c-1.9,2.7-4.5,7.9-5.7,11.5c-1.3,3.5-4,8.8-6.1,11.6
		c-2.1,2.8-5.2,8.3-6.6,12.2c-1.6,3.9-4.7,9.9-6.9,13.3c-2.3,3.4-5.2,9.2-6.4,12.8c-1.3,3.6-4,8.9-6.2,11.7
		c-2.1,2.9-5.1,8.4-6.5,12.3c-1.4,3.9-4,9.1-5.8,11.6c-1.9,2.5-5.1,8.7-7.2,13.7c-2.1,5-5.4,10.9-7,13.1c-1.8,2.1-4.5,7.3-6,11.3
		c-1.6,4-4.3,9.4-6,11.9c-1.8,2.5-4.9,8.6-6.9,13.4c-2,4.9-5.5,11.2-7.5,14.1c-2,2.9-4.8,8.2-5.9,11.6c-1.2,3.5-3.9,8.7-6.1,11.4
		c-2.1,2.8-5.1,8.4-6.5,12.3c-1.5,4-4.6,10-7,13.5c-2.4,3.5-5.5,9.2-6.7,12.6s-4.3,9.1-6.6,12.5c-3.1,4.6-4.5,8.2-5.1,13.7
		c-1.4,13.4-1.9,15.2-7.4,23c-4.9,7-5.5,8.7-6.2,18c-0.9,11.1-0.9,10.8-7.3,20.2c-3.3,4.7-4.6,8.1-5.1,13.7
		c-1.4,13.4-1.9,15.2-7.3,22.8c-4.8,6.8-5.4,8.6-6.3,18.2c-0.9,9.5-1.6,11.4-5.9,17.5c-6.4,9-5.8,12,3.6,16.5
		c4.2,2,13.1,9.1,23.2,18.4c14.7,13.6,17.2,15.5,25.9,18.7c7.1,2.6,11.7,5.5,17.8,10.9c11.4,10.1,12.8,13.4,13.6,32.2
		c0.8,15.5,0.8,15.7,5.6,22.2c5.5,7.6,7.5,13.3,7.5,21.5c0,5.4,1.1,8.1,8.2,20.5c1.2,2,6.8,13.1,12.6,24.4
		c5.7,11.3,11.6,22.6,12.9,24.9c2.8,5.1,15.4,29.8,20.4,40.1c2.7,5.7,8.8,12.3,30.5,33.1c14.9,14.3,29.1,27,31.7,28.2
		c2.5,1.2,11.3,5.1,19.6,8.9c8.3,3.7,17.8,8.1,21.2,9.5c4,1.8,9.1,5.8,14.2,11.4c12.4,13.3,20.8,19.6,32.7,24.4
		c10.6,4.2,11,4.6,43.8,35.8c32.1,30.6,33.2,31.8,38.8,42.8c8.6,16.9,14.7,27.2,17.5,29.5c1.4,1.1,6.6,2.6,11.8,3.3
		c6.9,1,11.2,2.5,17.3,6.1c4.5,2.6,11.7,6.2,16,7.8c6.7,2.5,10.8,5.7,29.6,23.5c13.5,12.8,22.3,22,23.2,24.5
		c0.8,2.1,1.9,7.9,2.5,12.8c1.2,9.2,2.3,12.1,7.3,18.6c4.6,5.9,5.8,11.3,5.8,24.7c0,12.5,0,12.5,8,28.2c4.4,8.7,10,18.8,12.5,22.7
		c3.6,5.7,4.7,8.9,5.6,17.2c0.9,8.4,1.9,11.5,5.7,17.3c2.5,3.9,5.7,9.4,7.3,12.3c1.5,2.8,4.7,6.2,7,7.6c2.3,1.4,8.4,4.8,13.4,7.6
		c5.1,2.8,11.8,6,14.9,7.1c3.2,1.1,8.5,3.6,11.8,5.7c3.3,2,8.6,4.6,11.8,5.7c3.2,1.1,9.6,4.2,14.3,6.8c4.7,2.7,11,5.7,14,6.7
		c3,1,8.2,3.6,11.3,5.7c9.5,6.2,11.8,6.7,34,6.8c22.6,0.1,21.9-0.1,35.8,8.3c7,4.3,7,4.3,43.2,4.9c36.1,0.6,36.1,0.6,44,5.4
		c10.7,6.3,18.7,7.6,42.8,6.7c10.8-0.4,21.9-0.2,24.6,0.4s8.3,3.2,12.3,5.8c6.4,4.3,8.1,4.8,15.3,4.8c6.7,0,8.9-0.6,13.4-3.6
		c7.7-5.1,9.4-8.4,11.3-21.2c1.4-9,2.8-13.4,6.8-20.8c4-7.2,5.4-11.4,6.1-18.3c0.8-7.3,1.9-10.4,6.2-17.2c4.4-6.9,5.6-10.2,6.8-19.3
		c1.3-8.9,2.5-12.4,6.5-18.9c4.6-7.3,7-16.2,7.2-26.1c0-1.1,2.8-6.3,6.1-11.8c6.1-9.8,6.1-9.8,6.8-25.6c0.7-15.5,0.8-16,5.6-23.3
		c5.8-9.2,7.5-15.3,7.5-29.2c0-9.2,0.6-11.6,3.4-16.9c1.9-3.4,4.6-8.3,6-10.9c2-3.7,2.8-8.3,3.5-20.1c0.8-14.9,1-15.6,5.8-23.3
		c4.7-7.6,8.6-21.9,6.6-24.8c-0.4-0.6-0.1-4.8,0.6-9.4c0.9-6.2,2.6-10.5,6.7-17c5.5-8.7,5.5-8.7,6.3-24.6c0.8-15.7,1-16.2,5.6-23.5
		c6.2-9.6,8.1-17.9,7-31.5c-1.2-15.1,0.4-21.9,7.1-32.6c5.7-9.1,5.7-9.1,6.4-31.1c0.7-22,0.7-22,5.6-29.6c5.2-8,8.3-19.3,7-25.4
		c-1.4-6.5,1.6-17.3,6.9-25.9c4.4-6.9,5.4-9.8,6.4-18.5c1-8.7,2-11.7,6.4-18.7c2.9-4.6,5.8-10.4,6.7-12.9c0.8-2.4,3.3-7.2,5.6-10.6
		c2.2-3.4,5.7-9.9,7.7-14.6c2-4.7,4.9-10.1,6.4-12.2c1.6-2,4.2-7.1,5.8-11.3c1.8-4.2,5-10.3,7.2-13.7c3.1-4.7,4.4-8.4,5.4-15.8
		c1.2-9.1,2.1-11.6,10.4-26.6c1.9-3.3,2.6-8,3-18.1c0.6-14.9,1.5-18.1,7.4-26.9c2.9-4.4,4.3-8.6,5.6-17.1c1.5-9.3,2.7-13,6.9-19.8
		c2.8-4.6,5.8-10.3,6.7-12.8c0.9-2.4,3.9-8,6.7-12.5c4.2-6.7,5.4-9.8,6.3-18.1c1.1-8.7,2.3-12.1,10.2-26.8c5-9.3,10-18.3,11.3-20.2
		c1.3-1.9,3.1-8.5,4.1-14.8c1.5-9.4,2.7-13,6.7-19.1c4.8-7.3,5-8.1,5.8-22.6c1.1-16.6,1.8-18.9,8.7-29.6c4.7-7.2,4.8-7.8,5.6-23.2
		c0.8-15.6,0.9-15.9,6.4-25.8c7.1-12.6,6.9-17.9-0.7-29.6c-5.1-7.8-5.1-7.9-5.8-24.1c-0.8-16.6-1.4-18.8-7.4-26.5
		c-4.8-6-6.8-14.4-6.8-27.8c0-11.8-0.1-12.2-5.2-20.3c-5.5-8.7-7.8-15.8-7.8-24.1c0-4.9-0.9-6.8-8.2-18.3c-2.7-4.3-4-8.4-4.9-16.1
		c-1-8.6-2-11.7-5.9-17.7c-3.8-5.8-5-9.3-5.9-17c-1.5-11.7-2.6-15.2-6.9-20.7c-1.9-2.3-4.9-7.8-6.7-12.2c-1.9-4.4-4.4-9.4-5.6-11.1
		c-4.9-6.7-6.6-11.6-7.7-21.8c-1-9.1-1.9-11.7-5.6-17.1c-2.4-3.6-5.8-9.8-7.6-13.9c-4-9.4-10.4-15.6-19.6-18.6
		c-9-2.9-12.7-5.6-24.8-17.6c-11.6-11.5-19.2-16.9-28-20c-3.6-1.3-10.3-4.5-14.9-7.1c-6.4-3.7-9.8-4.8-14.3-4.9
		c-9.5-0.1-17.2-2.2-24.7-7.2c-7-4.6-7-4.6-24.2-5.3c-18-0.8-18.3-0.8-29.3-7.9c-6.9-4.5-7-4.5-21.5-4.6
		c-15.7-0.1-21.3-1.4-28.4-6.5c-2.4-1.9-8.6-4.9-13.5-6.8c-5-1.9-11.4-5.1-14.1-6.9c-2.8-1.9-8.5-4.6-12.8-6
		c-5.7-1.9-10.4-5.1-17.9-11.7c-7.6-6.6-12.4-9.8-18.4-12c-5.8-2.1-11-5.4-18.1-11.6c-11.6-10-17.9-13.2-26.9-13.2
		c-9.1,0-14.1-1.7-22.5-7.2c-7.2-4.7-7.2-4.7-59.5-5.1C5544.2,1740.2,5539.5,1740.3,5535.6,1742.4"/>
</g>
<g id="Layer_6">
	<path class="st0" d="M3403.3,1819.9c-4.3,2.6-10.7,5.7-14.3,6.9c-3.6,1.2-8.6,3.5-11,5.3c-7.9,5.7-12.1,7.1-23.2,8.1
		c-9.4,0.8-11.9,1.6-17.6,5.3c-3.7,2.3-9.6,5.4-13.2,6.5c-3.6,1.3-9.1,3.9-12.1,5.8c-10.3,6.6-13,7.2-35.9,7.2
		c-20.3,0-21.4,0.2-26.5,3.1c-2.8,1.7-8.9,4.8-13.2,6.8c-11.4,5.3-12.2,6.7-12.2,22.8c0,14.8-0.9,17.5-8.5,27.6
		c-4.6,6-4.6,6-4.6,88.8c0,55.3-0.5,83.9-1.4,86.3c-0.8,1.9-3.5,6.5-6.2,10.2c-4.8,6.7-4.8,6.7-5.2,44.3
		c-0.4,37.6-0.4,37.6,2.9,43.3c1.9,3.1,5.1,8.8,7.2,12.7s5.3,8,6.9,9.1c6,4.1,24.4,14.1,27.3,15c8.4,2.4,16,7.8,27.9,19.3
		c11.7,11.4,14.4,13.3,26.1,18.7c11.5,5.4,14.1,7.2,22,15.6c12.1,12.9,19.8,18.4,31.1,22.5c8.6,3.1,11.1,5,24.5,17.5
		c13.2,12.4,16.5,14.7,26.4,19.1c10.9,4.8,12.3,5.9,33.2,26.5c27.9,27.3,34.2,32.3,46.2,36.7c8.6,3.1,11.1,4.9,24.6,17.5
		c13.2,12.3,16.5,14.7,26.4,19c9.6,4.3,12.8,6.4,21.5,15.2c14,14,20.8,19.1,32,23.1c8.4,3.1,11.2,5.1,25.2,18
		c14,13,16.9,15,25.4,18.2c7.7,2.8,11.8,5.6,20.3,13.1c7.8,6.9,12.8,10.2,18.4,12.3c4.2,1.6,10.9,4.7,14.9,7
		c4,2.3,10.6,5.5,14.7,6.9c5.3,1.9,10.4,5.3,17.6,11.7c8,7,12.4,9.8,19.9,12.7c7.6,2.8,11.7,5.5,19.1,12.2
		c5.4,4.8,12.2,9.6,15.7,11.1c19.3,7.8,43.6,20.5,47.7,24.7c2.4,2.5,9.2,8.9,14.9,14c8.2,7.3,12.5,10.1,19.4,12.7
		c8.2,3,10.6,5,31.1,24.3c21.6,20.5,22.4,21,33.3,25.1c10.3,3.9,12.2,5.3,26.8,18.8c14.1,13.2,16.7,14.9,25.4,18.2
		c9.3,3.4,10.8,4.7,29.3,22.5c22.6,21.7,25.4,24,37.8,28.6c7.9,3,11.2,5.5,25.4,18.5c14.5,13.4,17.3,15.4,25.8,18.6
		c7.4,2.7,11.8,5.6,19.9,12.7c8.2,7.2,12.4,9.8,19.9,12.6c8.5,3.1,11.1,5,24.5,17.5c13.3,12.5,16.4,14.6,26.8,19.2
		c8.7,3.8,13.7,7,19.6,12.5c5.7,5.4,10.8,8.7,19.1,12.3c8,3.5,13.9,7.3,20.5,13c6,5.3,11.8,9.1,16.8,10.9
		c10.6,4.1,13.6,6.2,29.1,21.2c12.8,12.3,14.5,13.5,24.8,17.4c9.1,3.5,12.9,5.8,20.9,13.1c7.8,7,11.8,9.5,19.6,12.4
		c9.7,3.6,9.8,3.7,50.2,42.6c32.4,31.3,41.8,39.6,47,41.8c19.7,8.4,18.6,7.5,55.3,43.6c19.5,19.2,38.3,36.8,41.6,39.2
		c3.4,2.3,10.1,5.8,15,7.7c6.6,2.5,11.5,5.7,19.2,12.5c8.3,7.2,12.1,9.6,19.2,12c7.1,2.3,10.7,4.7,18.1,11.4
		c6.8,6.2,12.2,9.6,20.5,13.3c8.2,3.6,13.8,7.2,20.8,13.4c7.4,6.5,11.9,9.4,19.1,12.1c7.2,2.7,11.8,5.6,19.6,12.5
		c7.9,6.9,12.4,9.7,19.7,12.6c7.2,2.7,11.6,5.5,18.3,11.5c6.2,5.6,11.9,9.3,19.1,12.4c5.7,2.4,13.2,6.2,16.8,8.4
		c6.5,4,6.5,4,35.9,4.6c23.8,0.5,30.1,1.1,33.3,2.7c9.7,5.1,11.3,9.5,12.3,34.9c0.8,20.7,0.8,20.7,5.6,28.2
		c2.6,4.1,6.1,10.8,7.7,14.9c3.3,8.6,9.9,15.4,17.5,17.8c2.8,1,9,3.7,13.6,6.2c4.7,2.5,11.7,5.8,15.5,7.3c3.9,1.6,9.8,4.5,13.2,6.6
		c4.8,2.9,9.1,4.3,17.9,5.6c6.4,0.9,13.1,2.3,14.8,3.2c1.7,0.9,7.2,5.3,12.2,9.7c7.1,6.4,11.3,9.1,18.9,11.9
		c14.1,5.3,24.5,15,32.1,30c3.8,7.6,8.5,14.3,14.5,20.8c6.4,6.9,9.9,12,12.6,18.5c2.8,6.7,5.9,11.2,12.7,18.1
		c4.9,5.1,10.1,11.5,11.6,14.2c4,7.6,8.1,10.4,27.4,19.7c16.8,8,18.5,9.2,33.4,22.9c13.5,12.6,16.9,14.9,24.8,17.9
		c5.1,1.9,11.9,5.2,15.3,7.2c4.8,2.9,8.9,4.1,17.8,5.3c9.7,1.3,13.1,2.3,20.7,6.7c5,2.8,11.8,6.1,15.2,7.2
		c16.2,5.3,20.8,21.1,10.1,35.1c-2.1,2.7-4.8,7.7-5.9,10.9c-1.2,3.2-2.9,7.4-3.9,9.2c-3.1,5.8-18.1,18.5-25.3,21.4
		c-10.6,4.4-10.6,4.4-10.6,44c0,34.2,0,34.2,3.9,40.9c2.1,3.7,5.4,9.7,7.2,13.5c1.8,3.8,4.5,8.9,5.9,11.2c1.5,2.4,4.2,7.5,5.9,11.2
		c9.3,19.4,9.7,20.1,34.5,43.7c13.3,12.8,28.4,26.6,33.6,30.9c9.9,8.2,12.2,12.5,10.2,19.7c-0.5,1.9-7.7,9.7-16.9,18.4
		c-15,14.1-16.3,15.8-20.2,25.2c-2.3,5.6-4.2,11.8-4.2,13.8c0,5,5,11.3,18,23.1c8.5,7.6,12.6,10.2,20,13.1
		c7.1,2.7,11.7,5.6,19.4,12.4c7.8,6.8,12.2,9.6,19.7,12.4c7.6,2.8,11.6,5.4,18.6,11.8c13.4,12.3,13.8,13.3,13.8,43.8
		c0,27.8-0.5,25.5,8.4,40c2.3,3.9,3.9,8.8,4.7,15c1.3,10.5,1.5,10.8,9,23.8c6.1,10.4,7.7,11.9,22,20.5c8.1,4.8,11.1,5.8,21.2,7.3
		c9.2,1.4,13.8,2.8,21.2,6.6c7,3.7,11.7,5.2,17.9,5.8c12,1.3,16.1,3.2,26.8,13c7.3,6.7,11.4,9.3,18.5,11.9
		c5.1,1.9,11.7,4.9,14.9,6.8c3.1,1.9,8.4,4.5,11.6,5.7c3.2,1.2,9.9,4.6,15,7.4c9.1,5.3,9.1,5.3,31.4,5.9c28.7,1,30.7,1.9,38.1,17.3
		c2.4,5.2,5.5,10.3,6.6,11.6s13.1,7.4,26.4,13.6c19.8,9.3,25.7,12.7,32.4,18.7c5.5,4.9,12.6,9.4,20.8,13.3c6.9,3.3,15.4,7.3,18.8,9
		c33.2,16,48.5,23.3,55.1,26.3c4.3,1.9,9.8,4.6,12.4,5.7c5.5,2.5,10.4,11.1,10.4,17.7c0,4.7-1.9,8.8-8.5,17.6
		c-3.9,5.4-3.9,5.4-3.9,23.3c0,17.9,0,17.9,4.1,21.3c7,5.7,21,12.7,25.3,12.7c2.2,0,7.8-1.9,12.3-4.4c8.1-4.4,8.3-4.4,24.4-4.4
		c25.5,0,29.7,1.9,37.1,16.9c2.4,4.8,6.2,11.1,8.6,14.1c3.5,4.5,4.3,6.6,4.7,13.1c0.5,8.2,0.1,9.2-8.1,18.9c-5.1,6-5.9,14.4-2.4,22
		c3.1,6.6,13.3,17.6,31.4,33.6c15.7,13.8,19.2,19.5,18.3,28.8c-0.5,4.4-1.8,7.5-4.5,10.8c-7,8.4-7.5,10-8.2,27.8
		c-0.7,16.9-0.7,16.9-6.3,24.5c-4,5.4-5.8,9.3-6.3,13.1c-0.6,5.5-0.1,6.8,9.5,23.7c1,1.8,2.4,7.5,3.1,12.8
		c0.7,5.2,2.1,11.5,3.2,13.9c1.1,2.4,8.7,11,16.9,19.1c8.2,8,15.7,16,16.7,17.7c1.4,2.3,1.9,10.4,2.2,32.1
		c0.4,27.1,0.3,29.3-2.2,34.8c-5.2,11.2-3.1,15.2,10.7,21c4.1,1.8,9.7,4.6,12.4,6.2c2.7,1.7,8.6,4.6,13.2,6.3
		c4.6,1.8,10.4,4.6,13.1,6.2c2.6,1.7,8.3,4.4,12.6,5.9c4.3,1.7,10.6,4.7,14.1,6.8c3.5,2.1,9.4,4.9,13.1,6.1
		c8,2.7,24.2,16.7,27.7,23.9c3.3,6.9,17.5,33.4,25.7,48c1.5,2.6,3.1,9,3.7,14.1c0.8,6.5,2.2,11.3,4.6,15.3c6.5,10.8,7.1,12.4,8.4,22
		c1,7.3,2.5,11.8,6.3,18.6c2.7,4.9,5.8,10.9,6.8,13.2c1,2.4,3.7,7.5,5.9,11.2c2.3,3.8,5.3,9.4,6.4,12.5c1.3,3.1,4.1,8.4,6.3,11.9
		c2.2,3.4,4.6,7.4,5.3,8.8c0.7,1.4,1.5,18.9,1.9,39c0.6,32.1,1,36.7,2.9,38.6s2.5,1.9,4.4,0.4c3.9-3.1,12.4-16,15.2-23.3
		c1.6-4,4.6-9.8,6.6-13.2c2-3.3,5-8.9,6.3-12.4c1.4-3.5,4.3-8.9,6.4-11.9c2.1-3,5.7-9.4,7.7-14.2s5-10.3,6.3-12.3
		c1.5-1.9,3.8-6.5,5.4-10.2c1.6-3.7,5-10.4,7.8-14.9c2.7-4.5,5.6-10.1,6.4-12.6c0.8-2.4,3.3-7.2,5.5-10.5s5.2-8.9,6.6-12.4
		c1.5-3.5,4.3-9,6.4-12.1c2.1-3.1,5.4-9.4,7.2-13.7c1.9-4.4,5.1-10.5,7.1-13.6c2-3.1,4.7-8.1,5.7-11c1.1-2.9,4-8.6,6.4-12.5
		c2.4-3.9,5.7-10,7.1-13.7c1.5-3.7,4.2-8.9,6-11.5c1.9-2.6,4.6-7.8,6-11.4c1.5-3.6,5-10.2,7.7-14.6c2.7-4.5,5.6-10.1,6.4-12.6
		c0.8-2.4,3.2-7.1,5.4-10.4c3.9-5.8,5.1-9.4,7.6-23.7c0.8-4.2,3-9.8,5.4-13.2c2.1-3.2,5.4-9.3,7.1-13.3s5.1-10.3,7.3-13.7
		c3.1-4.7,4.4-8.7,5.4-15.8c1.5-11,2.5-14.3,7.7-21.9c2-3.1,5-8.5,6.3-12c1.5-3.5,4.4-9.2,6.5-12.5c2.8-4.4,4.5-9.3,5.8-17.6
		c1.5-8.9,2.9-13.1,6.1-17.8c2.3-3.4,5.5-9.2,6.9-12.8c1.6-3.6,4.8-9.7,7.1-13.7c3.2-5.4,4.7-9.7,5.6-16.8
		c1.4-10.1,3.3-15.8,7.7-21.7c1.6-2,4.2-7.2,5.9-11.4c1.8-4.3,4.6-9.8,6.3-12.4s4.7-8.1,6.5-12.4c1.9-4.3,5.1-10.4,7.2-13.6
		c2.8-4.3,4.3-8.5,5.4-15.7c1.6-10.5,3.5-16.1,7.6-21.6c1.5-1.9,3.8-6.5,5.4-10.1c1.6-3.7,4.9-9.9,7.4-13.8c3.7-5.6,5-9.4,6.4-18.7
		c1.4-9,2.8-13.2,6.2-18.5c2.4-3.8,5.5-9.4,6.6-12.6c1.2-3.1,4.3-8.8,6.7-12.6c3.5-5.5,4.9-9.4,6.2-18.3c1.5-9.1,2.7-12.9,6.5-18.7
		c3.8-5.8,5-9.4,6-17.2c1.3-9.4,2.3-12.2,10.2-26.2c1.6-2.7,4-7.5,5.4-10.6c1.5-3.1,4.1-8.3,6-11.5c2.1-3.7,3.9-9.3,4.6-14.7
		c1.1-8.5,2.6-12.5,9.7-24.8c1.9-3.2,3.2-7.7,3.2-10.6c0.1-8,2-14.1,7-21.8c3.6-5.6,5-9.5,6-16.9c1.7-11.5,2.6-14,7.8-21.2
		c2.1-3,4.8-7.7,5.7-10.3c1-2.6,4.2-9.2,7.1-14.5c3.4-6.1,5.4-11.3,5.4-14.2c0.1-7.7,2.4-15.3,7.2-22.6c3.6-5.6,4.9-9.4,6.3-18.6
		c1.5-9.4,2.7-13,6.5-18.9c2.6-4,5.6-9.6,6.6-12.5c1.1-2.8,4-8.4,6.5-12.4c3.7-5.7,5.1-9.5,6.5-18.8c1.4-8.6,2.8-13.2,5.6-17.5
		c4.6-7,6.2-11.9,7.4-21.3c0.5-3.9,2-9.3,3.5-11.9c7.2-12.7,21-39.2,23.4-44.5c1.4-3.3,4.2-8.4,6.2-11.2c2-2.8,4.7-7.6,5.8-10.5
		c1.2-3,4.6-9.6,7.4-14.8c3.3-5.9,5.2-11,5.3-13.9c0.1-7.7,2.4-15.3,7.2-22.6c2.4-3.8,5.4-9.4,6.4-12.4c1.1-2.9,4-8.6,6.5-12.5
		c3.5-5.5,4.9-9.4,5.9-17c1.7-11.5,2.6-14.2,7.5-21.1c2-2.8,4.7-7.7,5.9-10.8c1.3-3.1,4.3-9.1,6.8-13.3c3.4-5.8,4.9-10.2,5.8-17.9
		c1.4-10.1,2.8-14,8.6-22.3c1.7-2.4,3.9-6.8,5-9.7c1.1-2.9,4-8.6,6.5-12.5c2.5-3.9,5.5-9.5,6.5-12.5c1.1-2.9,4.2-8.8,6.8-12.9
		c4-6.1,5.2-9.5,6.4-18.6c1.3-8.9,2.5-12.5,6.2-18.3c2.5-4,5.6-9.6,6.6-12.6c1.1-2.9,4.1-8.6,6.6-12.6c3.7-5.7,5-9.4,6.4-18.7
		c1.5-9.4,2.7-13,6.5-18.9c2.6-4,5.6-9.6,6.6-12.5c1.1-2.8,4-8.4,6.5-12.3c3.7-5.7,5-9.4,6.4-18.5s2.7-12.9,6.5-18.8
		c2.6-4.1,5.6-9.8,6.7-12.9s3.3-7.4,5-9.8c1.7-2.4,6.6-11.5,11.2-20.3c6.8-13.2,8.4-17.5,9.4-25.6c1-7.9,2.2-11.3,6.5-18
		c2.9-4.6,6.3-11.1,7.7-14.4c1.4-3.3,4.3-9,6.5-12.5c3-4.7,4.5-8.9,5.5-16.1c1.2-8.5,2.8-12.5,13.3-32.2
		c6.6-12.4,12.8-24.5,13.7-26.9c1-2.4,3.8-7.6,6.3-11.6c3.6-5.7,4.9-9.4,6.2-18.5c1.3-9,2.5-12.8,6.1-18.4c2.4-3.9,5.6-9.6,6.7-12.7
		c1.3-3.1,4.4-8.8,6.8-12.7c3.6-5.6,4.8-9.1,5.6-16.3c1.3-10.6,2.2-13.4,7.5-21.3c2.1-3.2,4.9-8.5,6.2-11.8
		c1.3-3.3,4.4-9.1,6.9-12.8c2.4-3.7,5.3-8.9,6.2-11.4c0.9-2.5,4.1-8.9,7-14.2c3.4-6.1,5.4-11.3,5.4-14.2c0.1-7.5,2.5-15.4,6.6-21.5
		c2.1-3.1,5.3-9.1,7-13.2c1.8-4.1,5.1-10.3,7.3-13.7c3.1-4.7,4.4-8.7,5.4-15.8c1.5-11.2,2.5-14.1,7.7-21.3c2.1-3,3.9-5.8,3.9-6.4
		c0-1.1,11.8-24.9,19-38.1c6.7-12.4,6-15.3-4.6-20.3c-2.5-1.2-19.8-16.6-38.3-34.2c-33.7-32.1-33.7-32.1-39.6-43.8
		c-5.8-11.9-5.8-11.9-49.8-54.1c-24.2-23.2-46.7-44-49.9-46.3s-9.2-5.3-13.2-6.7c-4-1.5-10.1-4.3-13.6-6.4s-9.3-4.9-12.9-6.2
		c-3.6-1.3-10-4.4-14.3-6.8s-9.3-4.5-11.1-4.6c-23.4-0.6-42.3-0.5-47,0.4c-3.2,0.6-8.5,2.9-11.8,5.2c-3.3,2.2-8.3,4.9-11.2,5.7
		c-2.8,0.9-9.1,3.7-13.7,6.3c-4.7,2.6-12,6-16.3,7.5c-7.3,2.5-10.3,5.1-43.7,36.8c-32.9,31.4-36.5,34.3-43.2,36.5
		c-11.4,3.8-14.3,5.6-24.2,15.3c-7.5,7.4-9.9,10.9-12.9,18.1c-1.9,5-4.6,10.3-5.9,11.9c-4.5,5.6-5.6,9-6.5,19.8
		c-0.9,9.9-1.4,11.5-5.8,17.4c-2.7,3.6-5.9,9.4-7.2,13.1c-1.3,3.6-4.5,9.6-7.1,13.4c-4.2,6-5,8.2-5.8,17.4c-1.1,11.4-1,11-7.7,20.6
		c-4.1,5.7-4.7,7.8-5.5,17.1c-0.8,9.3-1.5,11.5-5.7,18.2c-2.7,4.2-6.2,10.9-7.9,14.9s-4.5,9.2-6.3,11.5c-1.9,2.2-4.6,7.5-6.2,11.6
		c-1.6,4.1-4.6,9.8-6.7,12.9c-2,2.9-5,8.6-6.3,12.5c-1.4,3.9-4.3,9.4-6.4,12.3c-2.1,2.8-5.2,8.5-6.7,12.5c-1.6,4-4.6,9.7-6.7,12.8
		c-2.1,2.9-5.1,8.9-6.5,13.1c-2.6,7.6-3.7,8.8-58.3,61.1c-41,39.4-56.8,53.7-60.2,54.7c-2.5,0.8-8.8,1.5-13.8,1.4
		c-10.1-0.1-16.6-2.3-26.2-9.3c-5.4-3.9-5.7-3.9-21.5-4.1c-17.1-0.2-16.7-0.1-31.8-8.9c-4.7-2.7-6.6-3-20-3c-16,0-19.8-1-28.9-7.3
		c-3-2.1-8.7-5-12.4-6.3c-3.8-1.4-9.7-4.2-13.2-6.2c-3.5-2.1-9.5-5-13.2-6.3s-9.9-4.5-13.5-6.8c-7.6-5-5.9-4.8-32.4-4.9
		c-19.6-0.1-20.5-0.2-26.1-3.5c-16.2-9.3-11.3-8.5-58-8.9c-42.3-0.3-42.3-0.3-49.9-5.4c-4.2-2.8-9.1-5.6-10.9-6.1
		c-1.8-0.6-14.2-0.9-27.6-0.7c-27.6,0.4-32.1-0.4-42.6-7.1c-7.2-4.6-7.3-4.6-24.4-5.3c-17.7-0.7-19.2-1.1-28.6-7.6
		c-2.8-1.9-8.2-4.6-11.9-5.9c-3.8-1.4-9.7-4.2-13.2-6.2c-3.5-2.1-9.5-5-13.5-6.4c-4-1.5-9.2-4-11.5-5.7c-8.5-6.2-12.2-6.9-30.8-6
		c-18.9,0.9-26.1-0.2-32.8-5c-9.4-6.7-10.3-6.9-40.1-6.9c-30.7,0-30.1,0.1-44.2-9.4c-5.6-3.7-5.6-3.7-36.9-3.3
		c-17.4,0.2-33.9-0.1-37-0.8c-3-0.7-9.5-3.5-14.4-6.3c-8.9-5.2-8.9-5.2-30-5.2c-23,0-25.6-0.6-35.4-7.3c-3-2.1-8.8-5-12.8-6.4
		c-4-1.4-9.6-4.2-12.6-6.1c-3-1.9-8.7-4.7-12.8-6.1c-4-1.5-10.1-4.3-13.6-6.4c-3.5-2.1-9.3-4.9-12.9-6.2c-3.6-1.3-10.1-4.4-14.4-6.9
		c-4.3-2.5-10.1-5.2-13.1-5.9c-8-2.2-25.6-19.5-28.5-28c-1.2-3.5-4-9.2-6.2-12.5c-5.2-7.8-5.9-10.1-7.5-22.2c-1-8.1-2-10.9-5.8-16.3
		c-2.5-3.5-5.7-9.4-7.2-13.2c-1.5-3.7-4.2-8.9-6-11.6c-5.4-7.8-6.1-10.8-6.5-26.2c-0.3-13.6-0.6-15-4.1-20.4
		c-7.1-10.9-8.4-14.1-9.5-23.3c-1.5-12-2.7-14.8-10.2-22.4c-7.9-8.1-14.8-12.6-23.5-15.3c-3.7-1.2-9.1-3.6-11.8-5.4
		c-7.2-4.7-12.7-6.6-18.7-6.6c-11.6,0-16.8-2.3-26.3-11.8c-5-4.9-9.9-11-11.2-13.7c-1.3-2.7-4.8-9.5-7.8-15.4
		c-3.1-5.7-6.8-13.6-8.4-17.6c-2.3-6.1-5.7-9.8-23.8-27.5c-21.7-21-26.5-24.6-38.5-28.3c-5.9-1.9-8.9-4-18.9-13.9
		c-14-13.9-21-19.1-30.8-22.5c-4-1.4-10.6-4.6-14.8-7s-10.5-5.4-13.9-6.4c-5.5-1.8-11.3-6.8-46.9-41c-22.3-21.5-41.4-40.1-42.3-41.4
		c-0.9-1.3-2.7-5.2-4.1-8.6s-4.7-9.5-7.4-13.6c-2.7-4.1-5-8.1-5-8.9c0-0.9-3.2-7.5-7.2-14.9c-4-7.4-7.2-14.1-7.2-14.9
		c0-0.9-2.2-4.9-5-9c-2.7-4.1-6-9.9-7.2-13c-1.3-3.1-4.3-8.8-6.7-12.5c-5-7.8-5.5-9.4-7.1-22.2c-1-7.4-2-10.3-5.8-15.6
		c-6-8.4-7.3-12.9-7.3-25.5c0-13.3-1.7-16.4-11.2-20.8c-5-2.2-10.2-6.2-16.1-12.1c-13.4-13.6-21.7-19.9-31.7-23.7
		c-5.1-1.9-11.6-5.3-14.6-7.3s-8.9-4.9-13.1-6.2c-4.2-1.4-9.4-3.7-11.5-5.2c-2.1-1.5-8.6-4.6-14.2-6.8s-12.5-5.6-15.3-7.3
		c-2.8-1.8-8.7-4.6-13.2-6.2c-4.5-1.7-9.8-4.2-12-5.7c-2.1-1.5-7.9-4.2-12.8-6.1c-4.9-1.9-11.1-5-13.8-6.7
		c-2.7-1.8-8.3-4.5-12.4-5.8c-4.1-1.5-10-4.3-13.3-6.2c-3.2-1.9-8.6-4.5-11.8-5.6c-3.2-1.1-9.6-4.2-14.3-6.9s-11.4-5.8-14.8-7
		c-5.3-1.8-9.5-5.2-25.4-20.8c-20.9-20.6-26.2-24.5-37.4-28.5c-5-1.8-10.2-5.1-15.5-9.7c-10.7-9.5-14.3-11.8-24.2-15.2
		c-7.7-2.6-9.9-4.5-30.1-23.9c-23-22.2-26.9-24.7-37.5-24.7c-9.6,0-15.2-1.8-24-7.3c-8.1-5.2-8.1-5.2-34.5-5.2
		c-26.5,0-26.5,0-32.8,4.4c-15.4,10.6-23.4,10.7-38.1,0.2c-2.3-1.7-7.8-4.4-12.2-5.8c-5.5-1.9-10.1-4.9-15.3-9.6
		c-10.3-9.4-14.1-12.1-22.4-15c-4-1.4-10.6-4.6-14.8-7c-4.2-2.4-10.5-5.4-14-6.4c-5.1-1.6-8.9-4.5-19.1-14.5
		c-14.8-14.5-20.1-18.2-31.5-22.2c-5.6-1.9-10.3-4.9-14.5-8.7c-3.4-3.1-7.7-7-9.5-8.6c-1.8-1.6-7.9-4.7-13.5-6.9
		c-5.7-2.2-12.6-5.7-15.3-7.4c-2.7-1.8-8.3-4.5-12.4-5.9c-4.1-1.5-10-4.3-13.2-6.2s-9.1-4.8-13-6.2c-4.8-1.8-10.2-5.5-16.4-11
		c-5.1-4.6-10.7-9-12.5-9.7c-10.8-4.8-40.5-18.5-44.3-20.6c-2.5-1.4-7.8-3.8-11.8-5.6c-4-1.8-10.1-4.6-13.7-6.3
		c-3.6-1.8-9.4-4.6-13.1-6.2c-3.6-1.7-9.4-4.5-13.1-6.2c-3.6-1.8-9.4-4.6-13.1-6.2c-3.6-1.7-9.2-4.4-12.4-6
		c-3.2-1.7-11.2-5.5-17.6-8.5c-8.1-3.8-14.3-7.9-19.9-13.1c-6.1-5.7-10.6-8.5-18.3-11.5c-5.6-2.1-12.8-5.6-16.1-7.6
		c-3.2-1.9-8.6-4.5-11.8-5.6c-3.2-1.1-9.6-4.2-14.3-6.9c-4.7-2.7-11.3-5.8-14.6-6.9c-4.1-1.4-9.2-4.8-15.5-10.6
		c-7.3-6.7-11.7-9.4-19.3-12.5c-5.5-2.1-12.5-5.5-15.8-7.4c-3.2-1.9-9.1-4.7-12.9-6c-3.9-1.4-9.3-4-12-5.8
		c-2.7-1.8-9.2-4.9-14.3-6.9s-11.1-4.8-13.2-6.2c-2.1-1.5-7.4-4-11.8-5.6c-4.4-1.7-10.7-4.7-14-6.6c-3.3-2-9.7-5.1-14.2-6.8
		c-4.5-1.8-9.8-4.3-12-5.7c-2.1-1.5-7.8-4.2-12.8-6.1c-4.9-1.9-11.2-5-14-6.8c-2.8-1.9-8.5-4.5-12.7-5.9c-7.1-2.4-10.4-5.4-46.5-40
		c-21.3-20.6-41.2-39-44.1-40.8c-2.8-1.9-8.2-4.4-11.8-5.7c-3.6-1.3-9.3-3.9-12.6-5.8c-3.3-1.9-9.7-5-14.2-6.7
		c-4.5-1.7-11-4.9-14.6-7c-5.4-3.3-8.3-4.1-17.4-4.9c-12-1.1-11.4-0.9-21.1-7.1c-5.7-3.6-8.5-4.5-17-5.4
		c-12.1-1.2-13.2-1.6-23.1-7.7c-7.7-4.8-7.7-4.8-40.6-4.8C3411.1,1815.1,3411.1,1815.1,3403.3,1819.9"/>
</g>
<g id="Layer_5">
	<path class="st0" d="M2715.1,1930.3c-1.8,0.9-5.7,3.1-8.5,4.9c-2.8,1.8-8.5,4.2-12.4,5.4c-6.6,2-9.8,4.8-43.7,36.6
		c-35.9,33.8-36.7,34.5-45.5,37.4c-7.5,2.4-10.7,4.6-19.7,12.6c-8.2,7.4-12.4,10.1-17.8,11.9c-3.9,1.3-9.5,3.9-12.7,5.8
		c-11.9,7.7-8.2,7.4-87.8,7.1c-72.7-0.3-72.7-0.3-78.8,3.3c-15,9-16.1,9.3-30.5,9.3c-7.4,0-14.6,0.6-16.1,1.3
		c-1.4,0.7-4.3,4.6-6.3,8.5c-2,4-4.7,7.9-5.8,8.8c-1.1,0.9-2.6,3.4-3.4,5.7c-2,6,0,9.9,10.6,20.2c10.3,10,12.4,15.4,8.5,22.7
		c-3.3,6-17.9,17.2-25.8,19.7c-3.8,1.2-10.4,4.3-14.6,7c-4.2,2.7-8.4,4.9-9.3,4.9c-2.9,0-8.6,5.2-11.3,10.4
		c-1.5,2.8-4.8,8.1-7.3,11.7c-6.6,9.4-7.1,16.2-1.8,25.3c2.2,3.8,5.2,9.4,6.6,12.5c3.1,6.6,6.1,12.2,10.9,20.2
		c2.5,4.1,3.9,8.8,4.8,16.2c1,8.5,2,11.5,5.6,16.7c5.7,8.4,6.2,9.6,7.5,21.1c0.9,8.4,1.9,11.1,6.7,18.7c5.7,8.9,5.7,8.9,5.7,27.7
		c0,18.8,0,18.8-5.5,27.5c-3,4.8-6.4,11.8-7.7,15.6c-1.9,5.5-4.1,8.5-11.1,15c-4.9,4.5-10,10-11.5,12.5c-3.7,5.9-3.5,12.7,0.4,17
		c3.1,3.5,3.1,3.5,44,4.1c42.9,0.7,43.6,0.8,50.4,6.6c1.7,1.4,4.1,5.6,5.6,9.3c1.5,3.7,4.7,9.5,7.1,13c5,6.9,7.2,13.1,7.2,19.9
		c0,6.7,2,12.2,7.5,19.7c5,6.8,5,6.8,5.6,29.5c0.6,20.6,0.9,23,3.5,27c9.5,14.5,8.8,9.4,9.5,61.2c0.6,42.7,0.9,47.2,3.1,51.1
		c1.4,2.4,15.2,16.8,30.7,31.9c27.3,26.6,28.3,27.8,32,36.8c3.4,8.4,5.3,10.8,17.6,22.9c17,16.6,19.8,18.6,26.4,18.7
		c4.9,0.1,5.8-0.6,16.7-11.2c9.4-9.2,12-12.7,13.8-18.1c1.3-3.7,4.2-9.8,6.5-13.6s5.3-9.7,6.6-13.1c1.9-5.1,7.3-10.9,31.3-34.2
		c20.5-19.9,29.6-29.7,31.4-33.5c1.4-3,5.6-11.4,9.4-18.7c3.8-7.2,6.8-13.8,6.8-14.5c0-0.8,2.1-4.7,4.8-8.8
		c2.6-4.1,6.3-11.1,8.3-15.6c1.9-4.5,5.1-10.4,6.8-13.1c1.8-2.7,4.2-7.5,5.5-10.5c1.3-3.1,4.3-8.8,6.6-12.6
		c2.4-3.8,5.7-9.9,7.2-13.7c1.6-3.7,4.5-9.4,6.5-12.5c2-3.1,5-8.9,6.5-12.9c2-5.3,5.4-9.8,12.2-16.9c6.6-6.8,10.2-11.8,12.5-17
		c1.7-4.1,5.1-10.6,7.5-14.5c2.4-3.9,5.3-9.4,6.3-12.5c1.1-3,4-8.7,6.5-12.6c2.5-3.9,5.5-9.5,6.5-12.5c1.1-2.9,4-8.5,6.4-12.3
		c2.4-3.8,5.7-9.9,7.2-13.7c1.6-3.7,4.4-9.4,6.3-12.5c1.9-3.1,4.9-8.7,6.4-12.5c1.6-3.8,4.1-8.6,5.6-10.6c1.5-2,4.9-8.3,7.6-13.7
		c4.5-9.1,6.4-11.3,22.3-25.6c27-24.3,37.7-36.2,42.9-48.4c3.3-7.8,6.3-12.3,13.2-19.5c5.8-6.1,9.9-11.8,11.9-16.6
		c3.8-9.2,6.4-12.9,15.6-22.2c5.5-5.5,8.4-9.9,11.1-16.7c2.7-6.6,5.9-11.5,11.3-17.1c11.6-12.3,11.8-11.8-13.2-35.9
		c-18.3-17.6-21.2-21-24.2-28c-1.9-4.4-4.8-10.1-6.6-12.8c-1.8-2.7-4.4-7.9-5.8-11.7c-1.5-3.7-4.1-8.8-5.8-11.3
		c-5.7-8.1-7.1-11.6-8.3-21.5c-0.9-7.8-2.2-11.7-6.4-19.1c-2.9-5.1-6.3-12.1-7.6-15.5c-2-5.5-8.1-11.8-48.1-50.4
		c-25.1-24.3-48.1-45.6-51-47.5c-2.8-1.9-8.8-4.8-13.1-6.3c-4.3-1.7-9.8-4.2-12.4-5.7C2723.3,1929,2719,1928.3,2715.1,1930.3"/>
</g>
<g id="Layer_4">
	<path class="st0" d="M2969,2201.8c-2.1,0.5-5.3,1.6-6.9,2.4c-3.2,1.7-10.7,10.8-10.7,13.2c0,4.2-7.7,16-15.5,23.8
		c-7.2,7.2-9.4,10.6-12,17.5c-2.6,7.1-4.9,10.3-13.1,18.7c-7.3,7.4-10.7,12-12.8,17.2c-1.6,3.9-2.8,7.8-2.8,8.5
		c0,0.8-13.4,14.3-29.8,30.2c-27.4,26.5-30,29.4-32.1,35.7c-1.3,3.8-4.6,10.2-7.3,14.4c-2.8,4.2-6,10.3-7.2,13.7s-3.9,8.6-5.9,11.5
		c-2,2.9-5,8.5-6.3,12.4s-4.6,9.9-6.9,13.3c-2.4,3.5-5.5,9.2-6.7,12.6c-1.3,3.4-3.7,8.3-5.5,10.8c-1.8,2.5-4.8,8.4-6.7,13.1
		c-2,4.7-5.7,11.4-8.2,14.9c-2.4,3.5-5.3,9.1-6.2,12.3c-1.4,4.5-4.2,8.5-11.7,16.3c-7.8,8.1-10.6,12.1-13.1,18.3
		c-1.7,4.4-4.7,10.3-6.7,13.2c-2,2.8-5.2,8.9-6.8,13.4c-1.8,4.5-4.7,10.2-6.6,12.6c-1.9,2.4-4.7,7.6-6,11.5s-4.6,9.9-7,13.4
		c-2.4,3.5-5.4,9.3-6.6,12.8c-1.2,3.5-3.9,8.8-6,11.6c-2.1,2.8-5.1,8.2-6.5,12c-1.5,3.8-4.7,10-7.1,13.8c-2.4,3.9-5.5,9.9-6.6,13.4
		c-1.9,5.4-5,9.2-18.8,22.6c-14.3,14-17,17.2-19.4,23.7c-4.6,12.1-5.5,13.2-14.9,17.6c-7.9,3.8-9.3,5-11.6,10.1
		c-1.5,3.2-4.5,8.3-6.6,11.3c-4.6,6.4-12.7,25.1-12.7,29.2c0,4.4,6.6,16,10.8,18.9c3,2,6.3,2.6,18.3,3.2c14.4,0.7,14.8,0.8,23.8,5.9
		c5,2.9,11.7,6.1,14.8,7.2c3.1,1.1,8.5,3.5,11.8,5.5c3.3,1.9,8.7,4.5,11.9,5.7c3.2,1.2,9.6,4.3,14.3,6.9c4.7,2.6,11.4,5.7,15,7
		c9.4,3.2,25.2,18.6,28.5,27.7c1.4,3.6,3.9,8.7,5.7,11.2c7.4,10.4,8.1,13.2,8.2,34.6c0,19,0.2,20.2,3.3,24.9
		c7.1,11.1,9.7,17.4,9.7,23.7c0,11.3,2,15.4,12.9,25.6c8.5,8.1,11.4,10,19.8,13.1c14.2,5.2,24.5,14.8,32.1,29.9
		c4.1,8.3,8.4,14.2,16.2,22.7c5.8,6.2,11.4,11.7,12.4,12.1c3.2,1.2,9.6-3.4,20.2-14.5c7.6-8,11.2-12.9,13.2-18.1
		c1.6-3.9,4.9-10.4,7.4-14.3c3.7-5.8,5-9.4,6.3-18.9c1.5-9.7,2.5-13.1,6.5-19.2c3.8-5.9,5.1-9.4,6-17.1c1.4-10.2,1.7-11,8.5-21.7
		c3.5-5.5,4.6-9,5.6-17c1-8.2,2.1-11.9,6-18.5c3.5-6,5.2-10.7,6-17.2c0.7-5.1,2.7-11.7,4.6-15.2c1.9-3.4,4.4-8.2,5.7-10.6
		s2.9-9,3.6-14.5c1-8.4,2.1-11.5,6-17.5c3.8-5.8,5.1-9.6,6.4-18c1.3-8.5,2.6-12.2,6.4-18.1c5-7.7,7.4-15.2,7.5-23
		c0-2.8,2.2-8.6,5.9-15.5c3.6-6.8,5.8-12.7,5.9-15.5c0.1-7.4,2.1-13.6,7.1-21.4c3.9-6.1,5.1-9.4,6.5-19.1c1.4-9.6,2.5-13.1,6.4-19.1
		c3.8-5.8,5.1-9.6,6.3-17.9c1.4-8.7,2.6-12.2,7.1-19.3c4.7-7.4,5.7-10.1,6.6-18.9c1-8.2,2.1-11.9,6-18.5c3.5-6,5.2-10.7,6-17.2
		c0.7-5,2.6-11.5,4.3-14.5c1.7-3.1,4.5-8.4,6.4-11.9c1.9-3.4,4.8-9.1,6.5-12.5c1.8-3.4,4.4-8.5,5.9-11.2c1.6-2.7,4.3-8.1,6.1-11.9
		c1.9-3.8,4.8-9.4,6.5-12.5c2.1-3.7,3.5-8.6,4.1-14.5c0.6-5.7,1.9-10.8,3.9-14.3c1.7-3,5.2-9.6,7.8-14.8s6.4-12,8.6-15.3
		c3-4.6,4.3-8.5,5.6-17.1c1.4-9.3,2.4-12.5,6.6-19c5-7.7,5.1-8.1,5.9-23.6c1-16.4,1.1-17,8.8-29c4.6-7.2,4.7-7.7,5.5-23.3
		c0.7-15.7,0.8-16.1,5.6-23.5c2.6-4.1,5.7-9.9,6.8-12.9s4.1-8.7,6.6-12.6c3.7-5.8,5-9.5,6.5-19.4c1.1-6.6,1.6-13.3,1.2-14.8
		c-0.7-2.6-6.4-5.5-11.1-5.5c-1.2,0-6.5-2.5-11.9-5.6c-9.7-5.6-9.7-5.6-30.6-5.7c-22.4-0.1-27.1-1-34.8-6.5c-2.4-1.9-8.8-5-14-7
		c-5.3-2-10.5-4.5-11.7-5.6c-5.7-4.7-8.7-5.3-32.1-5.8c-20.6-0.6-24-1-27.6-3.1C2979.9,2201.4,2976.2,2200.1,2969,2201.8"/>
</g>
<g id="Layer_3">
	<path class="st0" d="M3208.1,2255.8c-6.8,3.8-10.1,10.7-10.1,21.2c0,9.5-1.3,13.2-6.5,19.6c-2.1,2.5-5.1,7.9-6.7,12
		c-1.6,4.1-5,10.4-7.6,14.1c-4.7,6.7-4.7,6.8-5.4,23.7c-0.7,17-0.7,17-6.8,25.4c-6.1,8.5-6.1,8.5-6.1,22.7c0,15.7-0.7,18.3-7.2,27.5
		c-3.4,4.8-4.7,8-5.2,13.7c-1.4,13.3-1.9,15.4-6.6,22.1c-2.5,3.6-5.8,9.7-7.3,13.4c-1.5,3.8-3.9,8.6-5.6,10.6
		c-5.2,6.7-6.1,9.4-7.2,20.8c-1,9.9-1.6,11.8-5.8,17.4c-2.6,3.4-5.9,9.4-7.5,13.3c-1.6,3.9-4.5,9.5-6.5,12.7c-2,3.1-5,8.8-6.4,12.6
		c-1.5,3.8-4.8,9.8-7.4,13.4c-4.2,5.7-4.8,7.8-5.6,17c-1,11.2-0.8,10.9-7.5,20.4c-3.9,5.5-4.6,7.8-5.5,17c-1.1,11.5-1,11.1-7.6,20.6
		c-4,5.7-4.7,7.9-5.6,17c-1.1,11.6-0.9,11-7.4,20.3c-4,5.7-4.6,7.7-5.5,17.5c-0.9,10.4-1.4,11.6-6.5,18.6c-5.1,6.9-5.7,8.4-6.5,18.1
		c-1.1,11.5-1,11.1-7.6,20.6c-4,5.7-4.6,7.7-5.5,17.5c-0.9,10.4-1.3,11.6-6.6,18.8c-5.3,7.1-5.7,8.4-6.5,18.1
		c-1,11.2-0.9,11-7.4,20.3c-3.8,5.5-4.6,7.7-5.5,17.5c-1,10.5-1.5,11.8-6.7,18.9c-5.2,7-5.7,8.4-6.5,18c-0.9,9.7-3.4,17.2-6.6,19.2
		c-3,1.8-6.3,11.3-6.3,18.2c0,8.5-1.4,12.1-7.5,20.7c-4.2,5.7-4.8,7.7-5.6,17c-1,11.2-0.8,10.9-7.5,20.5c-4,5.7-4.7,7.8-5.4,16.9
		c-0.7,8.2-1.7,11.7-4.5,16.3c-1.9,3.2-4.1,6.1-4.8,6.5c-0.7,0.4-2.5,4.5-4.1,9.2c-2.7,8.1-3.8,9.3-26.2,31
		c-21.9,21.2-23.3,22.9-23.3,27.3c0,2.6,1.1,6.1,2.5,8.2c1.4,1.9,5.3,8.8,8.6,15.2c3.3,6.4,7.2,13.9,8.7,16.6
		c1.7,2.9,3.1,8.8,3.8,14.8c0.9,8.3,1.9,11.3,5.7,17c2.5,3.9,5.8,10.3,7.4,14.2c2.6,6.6,11.2,17.9,18.2,23.9c7,5.9,7.2,7,7.9,50.7
		c0.7,40.6,0.7,40.6,5.7,47.9c3.8,5.5,5.4,9.4,6.3,15.5c0.7,4.5,2,9.8,2.8,11.9c1.7,3.9,13.2,11,30.8,19c12.8,5.8,14.9,7.9,19,18
		c2.4,6,5,9.9,9.1,13.4c6.6,5.8,10.8,6.8,25.1,6.2c9.4-0.4,10.9-0.9,19.9-6c9.7-5.7,9.7-5.7,26.3-6.3s16.6-0.7,24.8-5.7
		c8.3-5,8.3-5,35.1-5.3c23.6-0.3,27.3-0.1,31.3,1.9c6.8,3.4,9.2,7.4,11.2,19.7c1.5,8.6,2.8,12.5,6.2,17.4c5.7,8.4,6.2,9.6,7.5,21.1
		c0.9,7.8,1.9,11.3,5.5,16.9c2.4,3.8,6,10.7,8,15.3c4.4,10.2,6.4,12.1,20.4,18.5c6.1,2.8,13.7,6.6,17,8.5c5.3,3,7.6,3.4,22.2,4.2
		c16.3,0.8,16.3,0.8,33.1,9.1c12.6,6.2,19,10.2,25.6,16.3c6.3,5.7,11.1,8.8,16.5,10.7c4.2,1.5,11.6,5,16.5,7.8
		c8.3,4.8,9.3,5.1,17.2,4.6c6.7-0.4,9.5-1.3,14-4.3c3.1-2,6.8-4.3,8.2-4.8c1.5-0.6,19.7-1.2,40.4-1.3c43.6-0.3,43.1-0.4,54.7,10.3
		c5.9,5.6,9,9.8,13.8,19.7c5.7,11.4,7.5,13.8,20,25.8c10.5,10.1,15,13.6,19.2,14.8c5.3,1.5,5.8,1.4,16.1-3.5
		c5.8-2.8,12.8-5.8,15.2-6.6c2.5-0.9,7.8-3.8,11.8-6.6c7.2-5.1,76.3-70.6,127.7-121.2c15.3-15.1,29.7-28.5,32-29.9
		c3.3-2,7.1-2.6,20.7-3.2c16.2-0.7,16.8-0.8,24.3-5.3c4.2-2.5,10.9-5.7,14.8-7.2c3.9-1.5,9.3-4.1,11.9-5.7c2.6-1.8,9-4.8,14.1-6.8
		s11.1-4.8,13.2-6.2c2.1-1.5,7.4-3.9,11.8-5.6s10.9-4.9,14.6-7.2c3.7-2.3,9.6-5.3,13.2-6.5c3.6-1.3,9.3-3.9,12.5-5.8
		c3.3-1.9,8.6-4.4,11.8-5.5c3.1-1.1,9.5-4.1,14.2-6.8c4.7-2.7,11-5.7,14.1-6.8s9-3.9,13.1-6.2c4.1-2.4,9.9-5.2,13-6.2
		c3-1,8.1-3.5,11.3-5.7c3.1-2,9.2-5,13.3-6.5c4.2-1.5,10.3-4.3,13.5-6.1c3.2-1.9,9.2-4.7,13.2-6c4.1-1.5,8.8-3.7,10.4-4.9
		c14.2-10.6,31.4-11,48.6-1.1c9.2,5.3,9.2,5.3,24.8,5.9c15.7,0.7,15.7,0.7,32.6,8.7c9.4,4.4,19,9.3,21.5,10.8
		c2.5,1.6,8.1,4.1,12.4,5.6c10.5,3.7,26.7,18.8,29.2,27.4c2.6,8.7,6.9,14.9,16.8,23.9c10.7,9.8,15.6,11.6,31.3,10.8
		c9.4-0.5,11.6-1.1,18.3-5c10.7-6.3,15.5-7.2,37.6-7.2c22.2,0,26.9,0.9,37.7,7.3c7.6,4.5,8,4.6,20.9,4.6c13.2,0,13.2,0,22.8-5.6
		c9.5-5.6,9.5-5.6,26.2-6.3c16.7-0.8,16.7-0.8,26.1-6.2c9.4-5.5,9.4-5.5,62-5.5c52.5,0,52.5,0,62,5.5c9.5,5.5,9.5,5.5,26.1,6.2
		c16.7,0.8,16.7,0.8,25.9,6.1c11.5,6.6,20.6,8,51,7.4c19.8-0.4,22.1-0.7,28.1-3.5c10.3-4.9,52.4-45,54.8-52.2
		c0.8-2.5-0.3-4-7.3-10.3c-12.4-11-20.6-16.8-27.9-19.3c-8.4-2.9-12.8-5.7-21.1-13.6c-6.8-6.5-9.4-8-22.8-13.5
		c-4.1-1.8-9.9-5.6-13.1-8.6c-7.7-7.5-13.6-11.4-21.3-14.1c-6.8-2.3-18.9-9.9-18.9-11.9c0-2.2-13.9-11-22-13.7
		c-6.3-2.2-10.2-4.7-17-10.8c-8.5-7.9-15.7-12.2-25.3-15.2c-3.6-1.2-14.2-10.6-43.7-39c-21.4-20.7-41.3-39.1-44.1-40.9
		s-9-4.8-13.4-6.3c-7.9-2.7-9.9-4.5-46.4-39.6c-20.9-20.2-40.7-38.6-43.9-40.8c-3.2-2.2-9.5-5.4-14-6.9c-6.3-2.1-10.2-4.8-17.3-11.3
		c-8.7-8-16.2-12.6-24.2-14.4c-2-0.5-11-7.7-21-16.8c-15.7-14.3-18.3-16.3-26.9-19.4c-7-2.5-11.5-5.3-17.3-10.5
		c-10.2-9.2-14-11.6-23.8-15c-6.2-2.1-10.7-5.1-19.1-12.4c-8.5-7.4-12.7-10.1-18.6-12c-6.6-2.1-9.8-4.5-24.2-17.6
		c-17.1-15.8-19.5-17.4-30.8-20.9c-5-1.6-9.5-4.5-16.3-10.6c-9.5-8.5-15.6-12.1-24.9-15c-3.6-1.1-8.7-5.2-17.6-13.9
		c-14.1-13.9-20.7-18.5-32.1-22.5c-7-2.4-9.7-4.7-26.8-21.3c-20.9-20.5-26.1-24.5-37.4-28.4c-6.2-2.2-10.2-5.2-22-16
		c-17-15.8-19.6-17.5-30.6-21.3c-7.8-2.7-9.9-4.4-26.8-20.8c-20.3-19.9-26.9-24.9-36.6-28.3c-9.3-3.2-12.9-5.8-25.9-18.9
		c-9.6-9.6-13.2-12.3-21.5-16.1c-5.5-2.4-11.8-5.4-13.9-6.5c-7.5-3.9-19.7-9.6-23.7-11.2c-2.2-0.9-8-5.2-12.8-9.6
		c-6.9-6.3-11-8.9-19.4-12.2c-8.5-3.3-12.6-5.8-20.5-12.9c-7.1-6.4-12.2-9.6-18.3-12.1c-4.7-1.8-11.9-5.3-16.2-7.7
		c-4.2-2.4-10.6-5.4-14.2-6.5c-4.7-1.5-9.3-4.5-15.9-10.6c-8.5-7.7-20.6-14.8-25.2-14.8c-1,0-8.6-6.3-17-14.1
		c-18-16.7-20.5-18.4-31.6-22.2c-7.3-2.5-9.9-4.4-19.6-13.9c-14.2-14.1-22.2-20-32.1-23.5c-6.5-2.3-10.2-5.1-22.8-16.8
		c-16.1-15-17.2-15.8-29.8-20.6c-7.5-2.8-10.9-5.7-37.2-30.8c-28.4-27.1-29.1-27.7-38.8-31.1c-8.9-3.1-11.2-4.8-24.2-16.9
		c-16.8-15.6-19.5-17.4-30.4-21.2c-7.1-2.4-10.1-4.7-23.6-17.3c-15.2-14.3-17.3-15.8-31.9-21.8c-5.7-2.3-10.1-5.7-18.2-13.8
		c-12.4-12.4-20.5-18.4-27.9-20.6c-2.8-0.9-9.1-3.7-13.7-6.4C3216.8,2252.3,3214.8,2252.1,3208.1,2255.8"/>
</g>
<text transform="matrix(1 0 0 1 7575.1602 2389.1387)" class="st1 st2">Rosario</text>
<text transform="matrix(1 0 0 1 5193.8984 1643.8799)" class="st1 st2">Santa Ana</text>
<text transform="matrix(1 0 0 1 6914.9375 4185.3516)" class="st1 st2">Natumolan</text>
<text transform="matrix(1 0 0 1 4832.8906 1388.2363)" class="st1 st2">Mohon</text>
<text transform="matrix(1 0 0 1 3563.0996 950.5947)" class="st1 st2">Santa Cruz</text>
<text transform="matrix(1 0 0 1 1758.2114 1860.728)" class="st1 st2">Baluarte</text>
<text transform="matrix(1 0 0 1 1905.2314 2535.8418)" class="st1 st2">Gracia</text>
<text transform="matrix(1 0 0 1 1837.3096 3060.8955)" class="st1 st2">Sugbongcogon</text>
<text transform="matrix(1 0 0 1 3170.0708 3810.0029)" class="st1 st2">Casinglot</text>
<text transform="matrix(1 0 0 1 2244.7041 1037.085)" class="st1 st2">Poblacion</text>
<line class="st3" x1="2504.7" y1="1095.1" x2="2993.3" y2="1885.4"/>
<text transform="matrix(1 0 0 1 196.5376 463.5767)" class="st1 st4">Tagoloan</text>
<text transform="matrix(1 0 0 1 427.5981 2537.291)" class="st5 st1 st4">LEGEND</text>
<ellipse class="st6" cx="367.1" cy="2835.5" rx="60.5" ry="59.1"/>
<ellipse class="st7" cx="367.1" cy="3028.1" rx="60.5" ry="59.1"/>
<ellipse class="st8" cx="367.1" cy="3220.8" rx="60.5" ry="59.1"/>
<ellipse class="st9" cx="367.1" cy="3413.4" rx="60.5" ry="59.1"/>
<ellipse class="st10" cx="367.1" cy="3606.1" rx="60.5" ry="59.1"/>
<ellipse class="st11" cx="367.1" cy="3798.7" rx="60.5" ry="59.1"/>
<ellipse class="st12" cx="367.1" cy="3991.4" rx="60.5" ry="59.1"/>
<ellipse class="st13" cx="367.1" cy="4184" rx="60.5" ry="59.1"/>
<ellipse class="st14" cx="367.1" cy="4376.6" rx="60.5" ry="59.1"/>
<ellipse class="st15" cx="367.1" cy="4569.3" rx="60.5" ry="59.1"/>
<ellipse class="st16" cx="367.1" cy="4761.9" rx="60.5" ry="59.1"/>
<ellipse class="st17" cx="367.1" cy="4954.6" rx="60.5" ry="59.1"/>
<ellipse class="st18" cx="367.1" cy="5147.2" rx="60.5" ry="59.1"/>
<ellipse class="st19" cx="367.1" cy="5339.9" rx="60.5" ry="59.1"/>
<ellipse class="st20" cx="367.1" cy="5532.5" rx="60.5" ry="59.1"/>
<text transform="matrix(1 0 0 1 497.0312 2881.4902)" class="st21 st1 st22">Barangay Halls</text>
<text transform="matrix(1 0 0 1 497.3071 3069.4023)" class="st23 st1 st22">Health Centers</text>
<text transform="matrix(1 0 0 1 492.6831 3264.7148)" class="st24 st1 st22">Road (FMR)</text>
<text transform="matrix(1 0 0 1 496.6953 3449.7578)" class="st25 st1 st22">H20 System</text>
<text transform="matrix(1 0 0 1 506.1904 3643.9082)" class="st26 st1 st22">MOWDIR</text>
<text transform="matrix(1 0 0 1 506.1904 3839.6797)" class="st27 st1 st22">Market</text>
<text transform="matrix(1 0 0 1 506.1904 3839.6797)" class="st28 st1 st22">Market</text>
<text transform="matrix(1 0 0 1 505.5786 4030.1592)" class="st1 st22">Flood Control</text>
<text transform="matrix(1 0 0 1 514.4624 4226.5537)" class="st29 st1 st22">Streetlights</text>
<text transform="matrix(1 0 0 1 508.1392 4420.1914)" class="st30 st1 st22">Bridges</text>
<text transform="matrix(1 0 0 1 505.5786 4610.2783)" class="st31 st1 st22">Road Widening</text>
<text transform="matrix(1 0 0 1 505.5786 4799.0742)" class="st32 st1 st22">Hospitals</text>
<text transform="matrix(1 0 0 1 505.5786 4989.0723)" class="st33 st1 st22">Daycare Center</text>
<text transform="matrix(1 0 0 1 505.5786 5195.3164)" class="st34 st1 st22">Pedestrian Overpass</text>
<text transform="matrix(1 0 0 1 512.9707 5380.9717)" class="st35 st1 st22">Covered Courts</text>
<text transform="matrix(1 0 0 1 505.5786 5568.8096)" class="st36 st1 st22">School Buildings</text>
<ellipse class="st8" cx="2474.6" cy="1885.4" rx="60.5" ry="59.1"/>
<ellipse class="st8" cx="3937.4" cy="1546.2" rx="60.5" ry="59.1"/>
<ellipse class="st8" cx="3672.6" cy="2973" rx="60.5" ry="59.1"/>
<ellipse class="st8" cx="5482.1" cy="2511.6" rx="60.5" ry="59.1"/>
<ellipse class="st8" cx="5560.9" cy="3643.9" rx="60.5" ry="59.1"/>
<ellipse class="st8" cx="6664" cy="2003.7" rx="60.5" ry="59.1"/>
<ellipse class="st6" cx="2927.4" cy="2570.7" rx="60.5" ry="59.1"/>
<ellipse class="st6" cx="2549.5" cy="832.8" rx="60.5" ry="59.1"/>
<ellipse class="st12" cx="2374.8" cy="832.8" rx="60.5" ry="59.1"/>
<ellipse class="st12" cx="3459.4" cy="3069.4" rx="60.5" ry="59.1"/>
<ellipse class="st9" cx="2591.4" cy="2284" rx="60.5" ry="59.1"/>
<ellipse class="st9" cx="4694.8" cy="1915.2" rx="60.5" ry="59.1"/>
<ellipse class="st9" cx="6785" cy="2201.2" rx="60.5" ry="59.1"/>
<ellipse class="st12" cx="5603.1" cy="2302.6" rx="60.5" ry="59.1"/>
</svg>
