<?xml version="1.0" encoding="utf-8"?>
<!-- Generator: Adobe Illustrator 27.1.0, SVG Export Plug-In . SVG Version: 6.00 Build 0)  -->
<svg version="1.1" id="Tagoloan" xmlns="http://www.w3.org/2000/svg" xmlns:xlink="http://www.w3.org/1999/xlink" x="0px" y="0px"
	 viewBox="0 0 7861.4 5907.1" style="enable-background:new 0 0 7861.4 5907.1;" xml:space="preserve">
<style type="text/css">
	.st0{fill-rule:evenodd;clip-rule:evenodd;fill:#9C14E4;}
	.st1{font-family:'ArialMT';}
	.st2{font-size:124px;}
	.st3{fill:none;stroke:#000000;stroke-width:20;stroke-miterlimit:10;}
	.st4{fill:#F3F900;stroke:#FFFFFF;stroke-miterlimit:10;}
	.st5{fill:#0B0BF9;stroke:#FFFFFF;stroke-miterlimit:10;}
	.st6{font-size:200px;}
	.st7{fill:#F9F912;stroke:#FFFFFF;stroke-miterlimit:10;}
	.st8{fill:#F70D34;stroke:#FFFFFF;stroke-miterlimit:10;}
	.st9{fill:#8800FF;}
	.st10{font-size:140px;}
	.st11{fill:#7400EF;}
	.st12{fill:#7F00EF;}
	.st13{fill:#8703EF;}
	.st14{font-size:150px;}
</style>
<g id="Layer_13">
	<path class="st0" d="M6040.9,828.2c-5.9,2.5-34.4,29.2-37.7,35.4c-1.4,2.6-3.8,7.8-5.2,11.6c-2.2,5.6-5.6,9.6-19.1,22.3
		c-12,11.3-17.9,15.9-21.8,17.1c-10.8,3.3-16.4,7-31.1,20.9c-9.4,8.8-18,15.7-22.8,18.1c-6.7,3.4-8.3,5-12.8,12.8
		c-2.8,4.9-5.9,9.8-6.9,10.9c-2.6,2.8-4.8,11.2-4.8,18.4c0,9-2.5,13.3-13.6,23.4c-8.1,7.5-11.7,9.7-19.9,12.7
		c-8.5,3-11.4,5-18.8,12.2c-11.1,11-15.7,13.2-25,12.5c-5.4-0.4-8.9-1.7-14.2-5.2c-8.9-5.9-13-7.3-20.9-7.4
		c-7.7-0.1-13.9-2.1-21.7-7.2c-3.3-2.1-9-4.9-12.7-6.2c-3.7-1.3-9.7-4.2-13.4-6.4c-3.7-2.2-9.7-5.1-13.4-6.4c-3.7-1.3-10-4.5-13.9-7
		c-7.2-4.6-7.2-4.6-39.5-5c-17.7-0.2-34.4,0-36.9,0.4c-3.3,0.6-7.6,3.6-15.2,10.6c-10.7,9.9-14.6,15.4-16.3,23
		c-0.5,2.3-3.5,7.8-6.5,12.2c-5.6,8-5.6,8-6.3,44.7c-0.7,36.7-0.7,36.7-5.8,43.8c-5.6,7.7-7.5,13.5-7.5,22.7c0,8.6-4.1,14.4-21,29.8
		c-12.1,11.1-16.5,14.3-23.2,16.7c-11.4,4.3-15.7,7.1-24,15.4c-9.8,9.9-12.7,10.8-33.7,10.8c-19.2,0-22.6-0.8-33-8
		c-6-4.1-6.5-4.2-23.7-4.9c-18.1-0.7-19.4-1-29.7-7.6c-2.9-1.9-8.4-4.5-12.1-5.8s-9.2-4-12.4-6c-3.1-2-9.9-5.3-15.1-7.3
		c-7.2-2.8-11.8-5.8-19.3-12.6c-7.1-6.4-11.7-9.5-16.5-11.1c-3.7-1.2-10.8-4.6-15.9-7.5c-9.2-5.4-9.2-5.4-34.7-5.8
		c-16-0.3-27.3,0.1-30.5,1s-9.4,5.3-17.2,12.3c-6.7,6-12.7,10.8-13.4,10.8c-0.7,0-4.6,1.2-8.7,2.7c-5.3,1.9-10.5,5.4-17.8,11.9
		c-8.5,7.6-12,9.8-19.7,12.4c-8.6,2.9-10.8,4.5-26.8,19.3s-18.3,16.4-26.4,19c-7.4,2.4-10.8,4.5-20.2,12.8
		c-6.9,6.1-13.3,10.6-16.5,11.6c-11.3,3.5-16.8,7.5-38.7,28.1c-20.3,19.2-23.6,21.7-30.1,23.7c-9.5,2.9-16.6,7.7-25.5,16.9
		c-8,8.4-13.4,18.2-13.4,24.6c0,7,8.9,13.9,26.9,20.7c3.8,1.4,8.6,3.8,10.7,5.1c2,1.4,7.8,4.1,12.8,6.1s12.1,5.4,15.7,7.6
		s9.5,5,13.2,6.1c8.1,2.6,24.3,16.6,28,24.2c2.1,4.4,2.5,8.6,2.5,28.4c0,13.3-0.6,24.8-1.4,26.9c-0.8,2-28.7,29.5-62,61.2
		c-89.8,85.4-92,87.7-96.6,99.3c-3.5,8.8-5.1,10.9-20,25.4c-8.9,8.7-17.7,16.4-19.6,17.1c-1.8,0.7-8.6,1.7-15.1,2.2
		c-17.8,1.3-23.6,7.2-17.1,17.2c3.5,5.4,15,13.8,22.8,16.6c3.3,1.2,9.5,4.2,13.8,6.7s11.4,5.9,15.9,7.6s11.2,4.9,14.9,7.2
		c6.5,4,7.6,4.2,23.6,5c17.5,0.8,19,1.3,32.2,9.2c4,2.4,7.3,2.9,21.5,3.6c16.6,0.7,17,0.8,26.8,6c8,4.2,12.2,5.5,21,6.6
		c11.6,1.4,12.9,1.8,22.1,7.6c3.1,2,9.3,4.9,13.7,6.6c6.6,2.5,10.7,5.5,23.4,17.4c13.6,12.7,16.8,15,27.2,19.6
		c10.7,4.7,13.2,6.6,27,20c12.2,11.8,15.8,16.3,18.3,22.1c1.7,4,4.7,9.6,6.6,12.5c6.1,8.7,6.8,10.7,8,21.7c0.9,8.2,2,12,4.8,16.3
		c2,3.1,5.2,9,7.1,13.3c1.9,4.2,5.5,10.7,7.9,14.4c4.9,7.2,6.8,13.3,6.9,21.5c0,4.8,1.1,7.4,9.1,21c2,3.5,3.4,8.8,4.2,15.9
		c0.9,8.7,1.9,11.8,5.1,16.3c6.4,9,7.1,10.9,8.4,21.8c1.1,8.8,2.1,11.8,6.9,19.4c5.7,9,5.7,9,6.4,25.2c0.7,16.2,0.7,16.2,6.7,25.6
		c5.9,9.4,5.9,9.4,6.7,25.6c0.7,16.2,0.7,16.2,6.6,25.5c5.2,8.2,6,10.4,6.5,18.7c0.9,12.9-0.2,17-6.8,26.3
		c-5.7,8.1-5.7,8.1-6.3,25.6c-0.6,16.9-0.8,17.7-4.7,22.8c-8.1,10.7-8.7,12.7-8.7,27.5c0,14.7-1.3,19.4-7.2,26.9
		c-3.7,4.7-6.1,12.8-6.1,21.2c0,5.9-2,10.4-8.1,18.5c-2.1,2.8-4.8,8-6.1,11.7c-1.2,3.6-3.7,8.5-5.5,10.8c-5,6.4-7.1,12.4-7.1,20.2
		s-2.3,14.3-7.4,20.6c-1.8,2.3-4.6,7.5-6.2,11.6s-4.9,10.4-7.4,13.9c-3.3,4.8-4.6,8.4-5.2,14.1c-1.4,13.9-2,15.6-7.7,23.8
		c-5.7,8.1-5.7,8.1-6.3,24.8c-0.4,9.2-1.2,17.6-1.9,18.7c-0.6,1.1-3.2,4.9-5.8,8.5c-4,5.6-4.7,8.1-5.6,17.3
		c-1.1,11.1-2.2,14.2-7.6,21.2c-1.7,2.2-4.5,7.4-6.1,11.5s-4.4,9.6-6.2,12.2c-1.8,2.6-5,8.9-7.2,14s-5.5,11.2-7.2,13.4
		c-1.8,2.2-4.6,7.5-6.2,11.6s-5,10.5-7.5,14.1c-3.9,5.6-4.7,8.2-5.6,17.3c-1.1,11.5-1.4,12.3-8.7,22.7c-4.8,6.8-4.8,6.8-4.8,21.8
		c0,11.8-0.6,16-2.5,20.2c-1.4,2.9-3.2,5.7-4,6.2s-2.7,3.1-4.2,5.9c-2.3,4.4-2.7,7.6-2.7,26.3c0,22.7,0,22.6-7.9,33.7
		c-4.9,6.9-4.9,6.9-5.5,30.1c-0.4,12.8-1.2,24.1-1.9,25.1c-0.7,1.1-3.4,5-6,8.8c-4.8,6.9-4.8,6.9-5.5,23.7c-0.4,9.2-1.4,18-2.2,19.4
		c-0.9,1.4-3.7,5.7-6.4,9.4c-4.8,6.8-4.8,6.8-4.8,21.4c0,16.2-0.7,18.7-7.8,28.6c-4.9,6.9-4.9,6.9-5.2,22c-0.1,8.3-0.6,16.4-1.2,18
		c-0.5,1.6-3.6,6.5-6.8,11.1c-5.9,8.2-5.9,8.2-5.9,23.2c0,11.9-0.6,16.1-2.5,20.3c-1.4,2.9-3.2,5.7-4,6.2s-2.7,3.1-4.2,5.9
		c-2.2,4.1-2.7,7.5-2.7,19.8c0,15.8-0.2,16.6-7.7,27.2c-4.2,5.9-4.9,8-5.6,17.4c-1,11.4-0.9,11.2-7.5,20.7
		c-3.4,4.8-4.7,8.3-5.2,14.1c-1.4,13.8-2,15.6-7.5,23.4c-4.9,6.9-5.5,8.8-6.5,18.5c-1.1,11.7-1,11.3-7.7,20.9
		c-3.6,5.2-4.8,8.4-5.7,16c-0.6,5.3-2.4,12.1-4,15.3c-1.5,3.2-2.8,7.1-2.8,8.8c0,4.1,6.2,9.3,14.7,12.1c3.9,1.3,10.1,4.2,13.9,6.5
		s9.1,4.9,11.7,5.7c2.7,0.8,8.2,3.4,12.3,5.8c10.9,6.3,14.7,7.2,29.7,7.2c14.4,0,14.2,0,30.5,9c5.6,3.1,6.8,3.2,36,3.8
		c30.2,0.6,30.2,0.6,39.1,6.2c4.9,3.1,11.2,6.1,14,6.7c2.8,0.6,22.6,1.1,43.9,0.9c42.5-0.3,39.6-0.7,54,8c7.1,4.3,7.1,4.3,31.5,5
		c24.2,0.7,24.4,0.7,31.1,4.6c3.7,2.2,9.4,4.9,12.7,6.2c3.3,1.2,9.9,4.5,14.7,7.2c4.8,2.7,11.3,5.9,14.5,6.9c3.2,1.1,7.4,3,9.4,4.4
		c9.2,6.2,12.7,7.1,29.9,7.9c16.9,0.8,16.9,0.8,26.7,6.4s9.8,5.7,26.1,6.4c12.8,0.6,17.4,1.3,21.5,3.4c2.9,1.5,8.2,4.2,11.9,6
		c3.7,1.9,8.7,3.3,11.4,3.3c10.2-0.1,15.1-3.8,54.6-41.3c21-19.9,40.4-39.1,43.3-42.6c2.8-3.5,6.5-9.9,8.2-14.1s4.4-9.9,6.2-12.5
		c1.7-2.6,4.4-7.8,5.9-11.5s5.1-10.5,8-15c2.9-4.6,6.2-10.9,7.3-14c1.1-3.1,3.8-8.3,5.8-11.5c2.1-3.2,4.8-8.5,6.1-11.6
		c1.3-3.2,4.7-9.5,7.6-14.2c2.9-4.6,5.3-8.9,5.3-9.6c0-0.7,3-7,6.6-14c5.2-10.1,6.8-14.7,7.5-21.4c0.7-6.9,1.9-10.2,6.3-17.2
		c4.4-6.9,5.8-10.8,7.2-19.6c1.5-9.3,3.2-13.7,10.9-28.3c5.1-9.5,10.3-18.8,11.6-20.7c1.4-2,3.1-8.7,4.2-15.7
		c1.4-9.6,2.7-13.6,5.8-18.4c2.2-3.3,6.1-10.4,8.7-15.7c4.2-8.6,7-11.8,25.9-29.5c20.5-19.2,21.6-20,32.6-24.2
		c11.4-4.3,11.4-4.3,47.1-38.5c31.9-30.5,36.6-34.6,43.5-37.2c4.3-1.7,11.3-5.2,15.6-7.8c4.3-2.6,10-5.5,12.7-6.3s9.2-3.8,14.4-6.5
		c9.5-4.9,9.5-4.9,42.5-4.9s33,0,46.8,6.5c7.6,3.6,15.9,7.6,18.4,9c2.6,1.4,10.3,5.1,17.2,8.2c12.5,5.7,12.5,5.7,74.5,65.1
		c61.4,58.8,62,59.5,65.5,68.3c2.8,7.1,6,11.5,15.4,21.6c16.9,18.1,36.1,34.3,43,36.3c6.6,1.9,12.2,1,15.6-2.6
		c2-2.1,2.6-5.6,3.2-17.7c0.8-15.1,0.8-15.2,6.7-24.4c5-7.9,6.1-11,7.5-20.6c1.3-9.2,2.5-12.7,6.5-18.9c3.8-5.9,5.2-9.7,6.1-17
		c1.6-12,1.9-13,8.1-22.8c4.9-7.8,5.2-8.8,5.2-18.7c0-14.6,1.9-22.7,7.3-31.1c3.5-5.4,5-9.7,6.1-16.9c1.8-12.4,2.2-13.4,7.7-21.7
		c2.6-3.8,5.4-9,6.3-11.5c1.5-4,9-19,17.1-34c21-39,21.3-39.6,22.5-49.2c0.7-5.2,2.3-11.6,3.7-14.1c7.6-13.7,22.7-42.4,24.3-46.2
		c1-2.5,3.6-7.2,5.7-10.5s5.3-9.4,7-13.6c1.8-4.2,5.1-10.5,7.4-14.1c3.2-4.8,4.5-8.9,5.5-16.2c1.5-11.4,2.6-14.5,7.7-21.7
		c2.1-2.9,4.8-7.9,6.1-11.1c1.3-3.2,4.6-9.8,7.4-14.7s5.5-10.4,6.1-12.2c0.5-1.8,3.4-7.1,6.3-11.8c5-8,7.2-16.1,7.7-28.6
		c0-0.7,2.2-4.8,4.9-9c2.6-4.2,6.2-10.9,7.9-14.9c1.7-4,5-10,7.4-13.2c3.5-4.9,4.6-8.2,6.1-18c1.4-9.7,2.7-13.4,6.5-19.4
		c2.6-4.1,5.8-10,7-13.2c1.3-3.2,4.4-8.9,7-12.8c3.8-5.7,4.9-8.9,5.8-17.3c0.7-5.6,2.3-12.3,3.7-14.7s4.1-7.3,6-10.8
		s3.5-8.4,3.5-10.9c0.1-7.9,2.5-15.4,7.5-22.9c2.6-4,5.7-9.5,6.7-12.3s4-8.7,6.6-13.1c3.4-5.8,5-10.6,5.9-17.4
		c1.4-10.7,2.9-15,6.9-20.5c1.6-2.1,4.4-7.3,6.3-11.7c1.9-4.3,5.5-11.2,8-15.3c3.2-5.4,4.8-10,5.7-16.6c1.5-11.8,2-13.1,7.4-20.9
		c2.5-3.6,5.3-8.8,6.4-11.7c1-2.8,4.4-9.6,7.4-15.1c3.5-6.3,5.5-11.6,5.5-14.6c0.1-8,2.6-15.9,7.1-22.6c2.4-3.5,5.4-9,6.7-12.2
		c1.3-3.2,4.6-9.8,7.4-14.7s5.9-11,6.8-13.4c1-2.5,3.8-7.5,6.3-11.1c3.5-5.2,4.8-8.7,5.7-16c1.7-13.1,2.3-15,6.7-21.7
		c2.2-3.3,5.4-9.3,7.1-13.4c1.7-4.1,5-10.4,7.3-13.8c4.3-6.4,4.8-8.3,6.3-21.4c0.6-5.1,2.2-9.5,5.5-14.7c2.6-4.1,6.1-10.7,7.8-14.7
		c1.7-4,5-9.9,7.3-13.1s5-8,6-10.7c1-2.6,4.3-9.3,7.3-14.8c3.5-6.4,5.5-11.7,5.6-14.7c0.1-7.9,2.5-15.5,7.1-22.5
		c2.4-3.6,5.5-9.2,6.8-12.4c1.3-3.2,4.6-9.8,7.4-14.7c2.8-4.9,5.8-11,6.8-13.4c1-2.5,3.8-7.4,6.3-11c3.6-5.2,4.8-8.5,5.8-16
		c1.7-13.1,2.3-15.1,6.6-21.6c2.1-3.2,5.1-8.9,6.7-12.8c1.6-3.8,5-10.3,7.6-14.3c3.7-5.8,5-9.4,6-17.3c0.7-5.5,2.5-12.3,4.1-15.2
		c1.5-2.8,5.9-10.9,9.7-17.9c3.8-7,8.2-15.1,9.7-17.9c9.9-18,16.4-32.5,16.5-36.5c0.1-7.6,2.4-15,7.1-22.1c2.4-3.7,5.2-8.8,6.2-11.2
		c1-2.5,4.1-8.5,6.8-13.4c2.8-4.9,6.1-11.6,7.4-14.7c1.3-3.2,4.4-8.7,6.9-12.4c3.6-5.2,4.8-8.7,5.8-16c1.7-13.2,2.2-14.8,7.3-22.8
		c2.5-3.9,5.6-9.7,6.8-12.8c1.3-3.2,4.3-8.7,6.8-12.3c3.7-5.4,4.7-8.4,5.8-17.9c1.2-9.8,2.1-12.6,6.6-19.8
		c2.9-4.6,6.1-10.6,7.2-13.5c1-2.8,4.4-8.8,7.4-13.3s5.5-8.9,5.5-9.7s3-7.2,6.7-14.1c4.3-8.1,6.7-14.1,6.7-17.1
		c0.1-7.7,2.2-14.1,7.4-22.2c4.1-6.4,5.2-9.5,6.2-18.1c0.7-5.7,2.3-12.5,3.7-14.9c1.4-2.5,4.1-7.3,6-10.8s3.5-8.4,3.5-10.9
		c0.1-7.9,2.5-15.3,7.5-22.5c4-5.8,5-8.6,6.1-17.6c0.8-7,2.4-12.6,4.5-16.4c1.8-3.2,4.8-8.9,6.7-12.8c1.9-3.9,4.7-9.3,6.3-12.2
		s9-16.7,16.5-30.7c7.5-14.1,14.9-27.9,16.5-30.7c1.6-2.8,7.4-14.1,13-25s11.3-21.9,12.7-24.3c1.4-2.5,7.5-14,13.4-25.6
		s12.3-23.7,14.1-26.9c1.8-3.2,7.6-14.4,12.9-25s11.1-21.3,12.8-23.8c2.1-3,3.6-7.9,4.5-14.7c1.7-12.8,2.1-14,6.9-21.3
		c2.2-3.3,5.3-9.4,7.1-13.7c1.7-4.2,5.1-10.4,7.4-13.6s5.1-8.3,6.2-11.3s4.1-9,6.6-13.3c3.6-6.2,4.9-10.2,5.9-18.4
		c0.8-7,2.4-12.6,4.7-16.9c4-7.4,4.2-9.1,1.5-11.3c-1.6-1.3-4.9-0.2-17.8,5.7c-15.7,7.3-15.9,7.4-37.9,28.3
		c-19.5,18.5-23.1,21.3-30.4,24.1c-4.5,1.7-11.8,5.2-16,7.7s-10.5,5.5-13.8,6.6s-9.1,4-12.9,6.5c-6.1,4-8.3,4.6-19,5.6
		c-11.4,1-12.7,1.5-20.4,6.6c-8.2,5.6-8.2,5.6-46,5.9c-20.8,0.2-39.7,0.1-42-0.4c-2.3-0.4-8-3.2-12.7-6.1c-8.4-5.4-8.4-5.4-24.5-6.2
		c-23.5-1.2-28.9-4.1-33.6-18.2c-2.8-8.2-7.4-14.3-13-17.1c-2.3-1.2-9.3-2.6-15.6-3.2c-8.7-0.8-12.7-1.9-17.2-4.6
		c-13.9-8.3-12.4-8-39.9-8c-27.7,0-27.7,0-39.7,8.3c-5.4,3.7-6.1,3.9-23,4.3c-21.5,0.5-24.1,0.1-33.9-6c-4.3-2.7-11.4-6.2-15.7-7.8
		c-8.6-3.3-20.4-12.8-25.3-20.3c-3-4.6-3.1-5.7-3.7-47.2c-0.7-42.5-0.7-42.5-6.4-50.2c-5.6-7.5-7.4-12.7-9.1-25.9
		c-0.4-3.4-2.7-9-5.3-13.1c-2.5-4-5.8-10.4-7.3-14.4c-1.5-3.9-4.6-9.6-6.7-12.6s-5.5-9.3-7.5-13.9c-4.5-10.8-10.6-16.2-18-16.2
		c-7.1,0-12.2,5.1-16.9,16.9c-3,7.6-5.5,11.1-14,19.6c-8,8-10.9,12-13.2,17.9c-5.9,15.6-9.2,18.2-25.4,19.7
		c-11.6,1.1-11.1,1-21.5,7.6c-7.2,4.6-7.2,4.6-34.9,4.6c-27.7,0-27.7,0-36.1-4.9c-4.6-2.7-11.9-6.2-16.2-7.9
		c-4.3-1.6-10.5-4.6-13.7-6.7c-3.2-2.1-8.8-4.8-12.5-6.1s-10.4-4.4-14.8-7c-4.5-2.6-10.8-5.5-14-6.5c-3.9-1.2-9.4-5-16.3-11.2
		c-12.1-10.8-14.1-11.8-28.3-13.2c-7.8-0.8-12-2-16.6-4.7c-14.2-8.3-13.6-8.1-28.8-8.1c-15.9,0-19.7-1-30.1-7.9
		c-6.4-4.2-6.4-4.2-46.6-4.5C6052.1,826.3,6044.7,826.6,6040.9,828.2"/>
</g>
<g id="Layer_12">
	<path class="st0" d="M2785.8,969.7c-3.2,1.4-9.9,6.3-14.9,10.9c-6.6,6.1-11.3,9.2-17.5,11.5c-4.6,1.7-11.2,4.9-14.7,7
		c-3.4,2.1-8.9,4.7-12.2,5.8s-9.4,4-13.6,6.5c-4.2,2.5-10.2,5.3-13.4,6.4c-16,5.4-29.4,17.8-35.3,32.6c-3.1,7.7-5.5,11.3-12.8,18.6
		c-9,9-12.8,14.8-16,24.3c-1.2,3.7-6.1,9.4-17.4,20.5c-15.6,15.3-18.5,19.1-22.2,29.2c-1.1,2.9-3.7,7.9-5.8,11.1s-5.2,9.3-6.8,13.5
		c-2.8,7.3-5.7,10.4-52.7,55.4c-44.6,42.8-50.5,48-56.9,50.3c-11.6,4.1-14.9,6.2-25,15.3c-7.1,6.4-11.4,9.2-16.8,10.9
		c-4,1.3-10.8,4.7-15.1,7.6c-7.8,5.2-7.8,5.2-26.3,5.9c-18.4,0.6-18.6,0.7-24.3,4.9c-11.1,8.1-11.6,8.2-47.3,7.7
		c-32.4-0.4-32.4-0.4-40.8-5.3c-4.6-2.7-11.9-6.2-16.2-7.9c-4.3-1.6-10.5-4.6-13.7-6.7s-9.4-5.1-13.9-6.8
		c-11.7-4.4-24.4-16.9-28.7-28.2c-4-10.7-8-15.7-15.3-19.1c-5.1-2.4-8.3-2.7-26.5-2.7c-22.4-0.1-26.4-0.9-36.1-7.2
		c-3.3-2.1-9-5-12.7-6.3s-9.8-4.3-13.6-6.7c-5.9-3.7-8.6-4.5-18.1-5.3c-10.4-0.9-21.1-4.4-23.2-7.7c-0.4-0.6-5.4-3-11.1-5.3
		c-5.7-2.3-12.8-5.7-15.7-7.6c-2.9-1.9-8.4-4.6-12.1-5.9s-9.4-4-12.7-6c-7.1-4.3-13.4-6.1-21.2-6.1c-6.6,0-12.6-2.2-20.7-7.4
		c-3.1-2-8.7-4.8-12.4-6.1c-3.7-1.3-9.7-4.2-13.4-6.4c-3.7-2.2-9.7-5.1-13.4-6.4c-3.7-1.3-9.9-4.4-13.7-6.8c-6-3.8-8.6-4.5-18.4-5.4
		c-9.1-0.8-12.7-1.7-17.5-4.6c-14.3-8.5-12.3-8.1-42.5-8.1c-30.4,0-31.9-0.3-43.5-7.9c-6.4-4.2-6.4-4.2-30.5-4.9
		c-25.5-0.7-25.8-0.8-36.6-8.2c-5.6-3.8-6.4-4-23.6-4.7c-17.7-0.7-17.7-0.7-27.4-6.3c-8.3-4.8-11.1-5.7-20-6.5
		c-11.8-1.1-14-1.7-20-6c-7.5-5.3-13-6.8-24.7-6.8c-6.1,0-12.5,0.4-14.1,0.8c-5.3,1.4-3.8,6.3,4.7,14.8c9.8,9.8,17.7,15.2,27.8,19
		c7.4,2.8,11.4,6.2,50.8,44.1c42.5,40.8,42.8,41.1,48.4,52.6c4.3,8.7,7.6,13.3,13.3,18.6c9.8,9.1,11.4,12.2,12.7,24.5
		c0.9,8.4,1.9,11.4,6,17.7c2.7,4.2,5.8,10,6.9,13.1c1.1,3,4.1,8.7,6.6,12.6s5.8,10.2,7.4,14s3.9,8.4,5.3,10.2
		c6.3,8.6,7.4,12.1,8.1,27.2c0.7,13.4,1.1,15.3,3.9,18.2c4.2,4.3,24.6,15.3,33.3,18c5.2,1.6,9.9,4.7,17.8,11.6
		c8.2,7.2,12.8,10.1,19.1,12.3c7.6,2.6,10.6,5,37.1,29.7c28.1,26.2,32,30.7,38,44.3c1.6,3.6,8.3,11.4,18.2,21.2
		c13.9,13.8,16.1,16.5,19.3,24.8c2.9,7.3,5.8,11.4,13.5,19.4s10.6,12.2,13.5,19.5c3.3,8.3,5.4,10.9,19.3,24.7
		c15.5,15.3,15.7,15.5,26,35.9c5.7,11.3,11.6,22.5,13.1,25s4.4,8.2,6.6,12.8c2.2,4.6,4.9,9.8,6,11.5s4.2,7.5,6.7,12.8
		c2.6,5.3,5.3,10.8,6.2,12.2c4.9,8.1,22.4,42,24.5,47.3c2.9,7.4,15.8,21.1,24,25.7c3,1.7,8.1,3.9,11.2,5c3.1,1.1,8.2,3.6,11.4,5.7
		s9.6,5.3,14.3,7.1c4.7,1.8,11.7,5.4,15.7,8c8.8,5.8,15.6,6.9,33.6,5.6c13.1-1,14.2-1.3,24.1-6.9c11.3-6.4,10.3-6.3,38-6.4
		c18.2-0.1,18.2-0.1,26.8-5.2c4.7-2.8,11.6-6.3,15.3-7.7c3.7-1.5,10.6-4.7,15.4-7.3c6.9-3.7,11-4.9,19.8-5.9
		c7.9-0.9,12.5-2.2,16.1-4.4c2.7-1.7,13.2-7,23.2-11.7c18.2-8.5,18.2-8.5,57.2-8.5s38.9,0,49.1,5.2c7.6,3.9,12.7,5.5,20.2,6.4
		c5.9,0.7,12.3,2.4,15.5,4.1c14.8,7.9,16.8,8.7,22.7,8.7c8.5,0,15.6,2.1,24.2,7.1c4.1,2.4,9.9,5.2,13.1,6.2c3.1,1,8.3,3.6,11.4,5.6
		c3.1,2.1,10.3,5.6,15.9,7.8c10.1,4,10.8,4.7,50.6,43.1c39.5,38.1,44.2,41.9,56.6,46.1c2.8,1,7.8,3.5,11,5.6s9.1,5.1,13,6.5
		c4,1.5,10.4,4.4,14.3,6.5c3.9,2.1,10.1,4.9,13.9,6.4c3.7,1.4,9.4,4.3,12.5,6.3c3.1,2.1,8.9,5,12.9,6.5s10.8,4.6,15.2,7
		c4.5,2.4,10.8,5.3,14.1,6.5s8.5,3.8,11.6,5.8c3,2,8.5,4.7,12.1,6.1s12.5,5.4,19.8,9s14,6.5,15,6.5c0.9,0,6.8,4.5,13,10
		c8.1,7.1,13.5,10.8,18.8,12.8c4.2,1.5,11.6,5.1,16.5,7.9s9.6,5.2,10.3,5.2c0.8,0,10.1,4.1,20.8,9.2c15.1,7.1,21.3,10.8,27.5,16.5
		c8.2,7.4,12.9,10.3,22.3,13.4c2.9,1,7.9,3.5,11.1,5.6c3.2,2.1,9.1,5.1,13,6.6c4,1.5,11.4,4.9,16.6,7.6c5.2,2.7,10.9,5.3,12.7,5.8
		s7,3.1,11.4,5.8s11.1,5.9,14.7,7.2c3.7,1.3,9.4,3.9,12.7,5.8c3.3,1.9,9.3,4.7,13.4,6.2c4.1,1.5,10.4,4.7,14.1,7.2
		c15.2,9.9,27.4,6,27.4-9c0-6.3,2.2-12.1,7.4-19.3c4-5.6,5.1-8.6,6.7-18.6c1.5-9.6,2.8-13.4,6.8-19.5c4.5-6.9,7-16.3,7.3-26.7
		c0-1.1,2.6-6,5.7-10.9c3.1-4.9,6.7-11.8,8.1-15.3c1.4-3.5,4.3-9.1,6.6-12.5c2.9-4.4,4.4-8.6,5.3-15.3c1.6-12.1,1.9-13,7.9-22.8
		c4.2-6.8,5.3-10.1,6.1-17.8c0.8-8.4,2.1-11.5,11.1-28.2c5.6-10.3,12.7-23.7,15.9-29.9c3.4-6.6,8.1-13.4,11.6-16.7
		c8.4-8,12.3-13.3,16.3-23.1c2.6-6.2,6-11.1,12.2-17.5c6-6.2,10.1-12,13.7-19.5c3.6-7.5,7.8-13.4,13.8-19.7
		c6-6.3,9.8-11.7,12.5-17.9c2.1-4.9,5.4-11.2,7.2-14.1c1.8-2.8,4.7-8.5,6.4-12.6s4.9-10.3,7.2-13.6c2.3-3.4,5.5-9.6,7.3-13.9
		s4.4-9.4,5.8-11.4c1.5-2,4.2-7.2,6.1-11.7c1.9-4.5,5.3-10.9,7.6-14.3c2.2-3.3,5.5-9.6,7.3-13.9s4.5-9.5,6-11.6s4.5-7.7,6.6-12.5
		s5.4-11,7.3-13.7c1.9-2.7,4.8-8,6.2-11.8c1.5-3.8,4.3-9.4,6.3-12.4s5-8.8,6.7-13c1.7-4.1,4.9-10.3,7.2-13.6
		c2.3-3.4,5.5-9.6,7.3-13.9s4.5-9.6,6.1-11.7s4.4-7.5,6.1-11.8s4.8-10.1,6.7-12.7s5.2-8.9,7.3-13.9c2.2-5.1,5.1-10.7,6.5-12.6
		s4.1-7.1,6-11.5c1.9-4.5,5.3-10.7,7.5-14c2.2-3.2,5.2-8.9,6.7-12.6c1.4-3.7,4.4-9.5,6.6-12.9c2.2-3.4,5.2-9.1,6.7-12.7
		s4.5-9.3,6.8-12.7c2.3-3.4,5.3-9.3,6.8-13s4.2-9.2,6.2-12.1c1.9-2.9,5.1-9.1,7.1-13.8c2-4.7,5.5-11.1,7.7-14.2
		c6.1-8.5,9.4-18.1,7.5-22.1s-13.9-11.6-24-15.2c-4.3-1.6-10.7-4.5-14.1-6.5c-3.4-2-10.1-5.2-14.7-7c-4.7-1.8-10.1-4.4-12.1-5.8
		s-8.3-4.5-14-7c-7.5-3.3-13.1-7-20-13.3c-7-6.4-11.7-9.5-17.5-11.5c-4.3-1.5-11.2-4.6-15.2-6.9c-4.1-2.3-10.4-5.2-14.1-6.5
		c-3.7-1.3-10-4.5-13.9-7c-7.2-4.5-7.4-4.6-24.8-5.3c-18.2-0.7-19.7-1.1-29.7-7.9c-4.5-3.1-7.5-3.9-17.3-4.9s-13-1.9-18.7-5.3
		c-3.7-2.3-8.9-5-11.5-6.1s-10.9-5-18.6-8.7s-14.6-6.7-15.5-6.7s-5.2-2.2-9.5-4.9c-4.4-2.7-10.9-5.9-14.6-7.2
		c-3.7-1.3-9.7-4.2-13.4-6.4c-3.7-2.2-9.7-5.1-13.4-6.4s-9.7-4.2-13.4-6.4c-3.7-2.2-9.4-5-12.7-6.3c-3.3-1.2-9.3-4.1-13.4-6.4
		c-4.1-2.3-10.4-5.2-14.1-6.5c-3.7-1.3-9.7-4.2-13.4-6.4c-3.7-2.2-9.7-5.1-13.3-6.4s-10-4.2-14.1-6.6c-4.1-2.3-10.2-5.2-13.5-6.4
		c-3.3-1.2-8.5-3.8-11.6-5.8s-8.5-4.7-12.1-6.1c-6.6-2.5-26.7-11.8-37.9-17.6c-3.3-1.7-9.9-4.8-14.7-6.9s-10.8-5-13.4-6.4
		c-2.6-1.4-9.8-4.9-16-7.7c-8.1-3.7-14-7.6-20.8-13.8c-7.4-6.7-11.5-9.3-18.2-11.7c-4.8-1.7-11.2-4.7-14.4-6.7
		c-3.1-2-9.5-5.1-14.2-6.8s-11.3-4.8-14.7-6.8s-9-4.8-12.6-6c-3.5-1.3-8.8-3.9-11.8-5.7c-7.4-4.8-9.3-5.3-21-6.4
		c-8.9-0.8-11.6-1.7-20.1-6.6c-9.8-5.6-9.8-5.6-26.5-6.3c-16.8-0.6-16.8-0.6-27.5-6.7C2799.7,966.3,2795,965.7,2785.8,969.7"/>
</g>
<g id="Layer_11">
	<path class="st0" d="M1316.3,1148.5c-1.7,1.1-4.6,5-6.5,8.6s-4.6,8.2-6,10c-1.4,1.9-4.2,7.4-6.3,12.2c-2.1,4.8-5.8,11.7-8.3,15.2
		c-4.5,6.3-4.6,6.5-5.3,23.8c-0.7,16.8-0.8,17.6-4.7,22.7c-9.2,12.2-8.7,8-8.7,69.4c0,55.8,0,55.8,3.3,61.5
		c8.9,15.6,10.1,18.6,10.1,25.2c0,8,1.4,11.9,7.5,20.3c9.2,12.8,9.1,31.1-0.2,43.6c-2.6,3.4-5.9,9.4-7.4,13.3s-5,10.1-7.7,13.9
		c-4.9,6.9-4.9,6.9-5.6,24.3c-0.7,17.5-0.7,17.5-6.3,25.6c-3.1,4.5-6.3,10.3-7.1,13c-0.8,2.7-3.6,8-6.2,11.7
		c-6.2,8.8-7.7,12.9-6.6,18.4c1.3,6.7,6.9,9.5,18.8,9.5c12.2,0,18.2-2.7,29.8-13.1c6.4-5.8,11.6-9.1,17.8-11.5
		c4.8-1.8,11.9-5.4,15.8-7.9c11.9-7.7,31.2-8.2,42.9-1.2c8.8,5.3,10.7,6.2,19,9.7c9,3.8,37.5,29.7,40.8,37.1c1.5,3.4,2.1,9.2,2,21.1
		c0,20.7-2,25.9-11.3,29.8c-14,5.9-17.8,7.8-23.3,11.8c-5.8,4.2-5.9,4.2-23.3,4.6c-9.6,0.2-19.4,0.1-21.8-0.4
		c-2.4-0.4-8.4-3.4-13.5-6.5c-7.6-4.8-10.2-5.7-15.6-5.7c-8.3,0-13.1,2.4-23.6,12c-8.4,7.7-12.9,14.5-16.3,24.4
		c-1.1,3.2-5.6,9-12.2,15.6c-6.9,7-10.9,12.2-11.9,15.5c-0.9,2.9-1.4,21.4-1.4,46.5c0,41.7,0,41.7,3.3,47.4
		c10.2,17.8,10.1,17.7,10.1,32s-0.1,14.1,9.4,29.7c3.3,5.5,3.3,5.5,4,67.7c0.6,57.1,0.9,62.5,3.1,65.7c5.5,8,12.9,6.9,21.3-3.1
		c7.1-8.5,12.5-10.4,32.1-11.3c16.5-0.8,17.1-0.9,24.1-5.3c4-2.5,8.4-5,9.9-5.6s35.2-0.9,75-0.9c40.5,0.1,74.6-0.4,77.5-1
		c2.8-0.7,8.6-3.2,12.7-5.6c4.2-2.4,11.2-5.7,15.6-7.4c5.5-2.1,11.2-5.8,18.3-12.1c7.9-6.9,12.6-10,19.7-12.6
		c11.9-4.5,21.1-12,56.6-46.5c24.8-24.1,28.4-27.1,35.4-29.7c4.3-1.6,11.3-5.1,15.7-7.9c13.1-8.4,19.8-8.3,33.3,0.3
		c8.9,5.7,17.5,7.5,22.6,4.9c1.7-0.8,4.7-5.1,6.8-9.4c2.1-4.3,5.3-9.9,7.2-12.3c1.9-2.4,4.7-7.6,6.2-11.5s4.5-9.8,6.7-13
		c3-4.5,4.3-8.5,5.3-16.5c1.4-10.6,2.9-14.5,8.9-23.2c2.1-3,3.8-8.6,5.1-16c1.1-6.3,2.7-13.9,3.6-16.9c2-6.5,1.1-7.7-8.6-11.1
		c-8.5-3-16.1-11.4-19.8-21.9c-1.6-4.5-4.7-10.3-6.9-13c-8.7-10.5-8.4-7.7-8-62.4c0.3-38.9,0.8-50.9,2.3-54.9
		c2.3-6.3,2.4-14.3,0.2-18c-1.1-1.9-1.9-12.2-2.4-31.6c-0.7-26.4-1-29.3-3.7-34.2c-1.6-2.9-3.5-5.7-4.2-6.1s-3.2-5.2-5.5-10.7
		c-2.4-5.5-6.1-12.4-8.2-15.4c-2.3-3.2-4.5-8.5-5.3-12.8c-3.2-17-4-19.7-7.4-24.9c-2-3-5-8.8-6.6-12.8c-1.7-4-4.2-8.9-5.6-10.9
		c-5.4-7.3-7.4-12.8-8.4-22.4c-1.3-11.9-3-15.6-9.7-20.8c-5.1-4-5.1-4-70.3-4.6c-69.6-0.7-66.6-0.4-76.3-7.3
		c-2.4-1.7-8.1-4.5-12.6-6.2s-10.9-4.7-14.3-6.8c-3.4-2.1-9.8-5.1-14.2-6.6c-9.6-3.4-22.6-15-27.8-24.9c-4-7.5-7.5-10.8-15.7-14.7
		c-3.3-1.6-7.7-4-9.7-5.4s-7.4-3.9-11.9-5.6s-11-4.8-14.4-6.9s-8.9-4.7-12.2-5.8c-3.3-1.1-9.3-4-13.4-6.4s-10.8-5.6-14.8-7
		c-9.2-3.3-21-12.6-25-19.7c-5-8.9-3.5-12.1,12.8-27.1c16.8-15.4,19.3-18.6,19.3-24.4c0-8.3-6.5-14.1-20-17.9
		c-5.6-1.6-9-3.8-16.4-10.8c-12.4-11.7-17.9-14.2-31.6-14.2C1322.4,1146.5,1318.4,1147,1316.3,1148.5"/>
</g>
<g id="Layer_10">
	<path class="st0" d="M1460.9,1173.4c-1.7,0.7-4.9,2.5-7.1,4s-7.5,4.4-11.9,6.4c-7.2,3.3-8.3,4.4-12.5,12.3c-3.2,6-8,11.8-15.4,18.9
		c-16.1,15.2-14.9,18.2,11.3,30.3c7.4,3.4,16.1,7.6,19.4,9.3c3.3,1.7,15.5,7.5,27,12.9c22.8,10.6,31,17,37.3,28.9
		c4.1,7.8,7.6,11.1,15.4,14.9c3.7,1.8,8.2,4.3,10,5.5s7.1,3.7,11.6,5.5s10.9,4.9,14.1,7c9.5,6.2,13.2,6.7,57.3,6.6
		c43.6-0.1,60.6-1,63.1-3.4c3.1-2.9-0.4-8.6-11.4-19c-9.8-9.2-11.4-11.4-14.1-19c-3.9-11.2-11.5-20.7-28.5-35.4
		c-17.5-15.2-22.1-20.1-24-25.7c-2.9-8.5-6.9-14.6-14.3-22.1c-10.6-10.6-14.3-12.5-27.8-13.8c-10.1-1-12.8-1.8-20.7-6.4
		c-7.8-4.5-10.7-5.4-19.9-6.3c-9.4-0.9-12.1-1.8-20.5-6.6c-9.5-5.5-10-5.6-22.5-5.9C1469.8,1172.2,1462.6,1172.7,1460.9,1173.4"/>
</g>
<g id="Layer_9">
	<path class="st0" d="M3603.3,1336.2c-3.9,1.8-10.8,12-15.3,22.5c-2.1,5-5.4,11.3-7.3,14c-1.9,2.7-4.9,8.5-6.7,12.8
		s-5,10.4-7.1,13.4c-2.2,3.1-5,8.4-6.4,12c-1.4,3.5-4.2,9.1-6.3,12.4s-5.3,9.5-7,13.7s-4.9,10.1-7.1,13.2c-2.2,3.1-4.7,7.9-5.6,10.7
		c-0.9,2.8-3.8,8.5-6.4,12.6c-2.6,4.1-6.1,10.8-7.8,14.9s-4.9,10-7,13.1c-2.2,3.1-4.7,7.9-5.6,10.7c-0.9,2.8-3.8,8.5-6.4,12.6
		c-2.6,4.1-6.1,10.8-7.8,14.9s-4.8,10-7,13.1s-5,8.4-6.3,12c-1.3,3.5-3.9,8.5-5.7,11.1s-5,8.8-7.2,13.8c-2.1,5-5.6,11.6-7.7,14.5
		c-2.1,3-4.9,8.3-6.3,11.8c-1.4,3.5-3.9,8.5-5.7,11.1s-5,8.8-7.1,13.8s-5.6,11.5-7.7,14.5c-2.1,3-4.6,7.7-5.5,10.5
		s-3.8,8.5-6.4,12.6c-2.6,4.1-6.1,10.8-7.8,14.9s-4.9,10-7,13.1c-2.2,3.1-4.7,7.9-5.6,10.7c-0.9,2.8-3.8,8.5-6.4,12.6
		c-2.6,4.1-6.1,10.9-7.9,15.2c-2.3,5.7-5.8,10.3-13.1,17.7c-8.4,8.4-10.4,11.3-13,18.7c-2.6,7.4-4.7,10.4-13.4,19.3
		s-10.9,11.9-13.4,19.2c-2.5,7.3-4.7,10.3-13.4,19.2c-8.6,8.7-10.9,12-13.2,18.8c-1.6,4.5-4.6,10.5-6.8,13.3
		c-2.1,2.8-5.2,8.5-6.9,12.7c-1.6,4.2-5,10.5-7.5,14.1c-3.9,5.6-4.6,8-5.6,18.2c-0.7,7.4-2,12.8-3.3,14.7
		c-9.1,12-9.3,12.5-10.2,23.2c-0.9,10.8-2,13.9-7.6,21.1c-1.8,2.3-4.4,7.3-5.7,11c-1.4,3.8-4.7,10.1-7.5,14.1c-4.4,6.3-5.1,8.5-6,18
		c-1.1,11.8-0.9,11.2-7.4,20.6c-3.4,4.8-4.7,8.3-5.2,14.1c-1.4,13.8-2,15.6-7.5,23.4c-4.9,7-5.5,8.8-6.5,18.8
		c-0.8,8.3-1.8,12-3.9,14.5c-5,6-7.1,10.6-6.3,13.7c0.9,3.3,9.9,8.7,30.1,18c6.9,3.2,14.2,6.9,16.1,8.2c2,1.3,7.6,4,12.6,5.9
		c6.7,2.6,11.8,5.9,19.7,12.8c8.4,7.4,12.7,10.1,20.4,12.9c8.7,3.2,11.4,5.1,25.1,17.9c15.2,14.1,19.3,17,29.6,20.5
		c2.9,1,7.8,3.5,11,5.6s9.9,5.4,14.8,7.3c6.6,2.5,11.8,5.9,19.5,12.7c6.7,5.9,12.8,10,17,11.5c3.6,1.3,10.2,4.2,14.8,6.6
		c4.5,2.4,9.9,4.3,11.8,4.3s7.6-2.1,12.5-4.7c8.9-4.7,8.9-4.7,41.1-4.8c32.2,0,32.2,0,42.5,5.4c8.2,4.3,12.3,5.7,20.1,6.5
		c5.4,0.6,11.8,2,14.2,3.2s12,9.7,21.4,18.9c21.2,20.9,27.2,25.5,39,29.8c7.1,2.6,11.9,5.6,19.5,12.2c7.6,6.6,12.4,9.6,19.8,12.4
		c9.1,3.4,11,4.9,31.8,24.8c12.2,11.7,24.2,22.2,26.8,23.3c2.6,1.2,8.6,3.8,13.4,6c4.8,2.1,10.8,5,13.4,6.4
		c2.6,1.4,14.6,7.2,26.8,12.9s24.8,11.8,28.1,13.5s16,7.8,28.1,13.6c12.2,5.8,26.9,12.8,32.8,15.6c14.6,6.9,18,7.3,23.4,2.7
		c4-3.4,4.4-4.6,5.5-14.2c1.4-12.9,2-14.9,6.8-21.6c5.1-7.2,6.2-10.2,7.7-21.7c1-7.7,2.3-11.3,6.1-17.2c3.9-6,5.1-9.5,6.2-18
		c1.4-10.5,2.9-14.4,8.9-23.1c2.2-3.1,3.8-8.4,5-16.4c1.5-9.5,2.8-13.3,6.7-19.3c2.7-4.1,5.8-10,6.9-13c1.1-3,4.4-9.3,7.3-13.9
		c2.9-4.6,6.2-10.9,7.4-14.1c1.2-3.2,3.6-7.9,5.4-10.6c1.8-2.6,4.6-7.8,6.1-11.5s5.1-10.5,8-15c2.9-4.6,6.2-10.9,7.3-14
		c1.2-3.1,3.9-8.4,6-11.6c2.2-3.2,4.9-8.4,6-11.6c1.2-3.1,4.5-9.5,7.4-14c2.9-4.6,6.2-10.9,7.3-14s3.8-8.3,5.8-11.5
		c2.1-3.2,4.8-8.5,6.1-11.6s4.4-9,6.9-12.9s5.8-10.2,7.4-14.1c1.6-3.8,4.6-9.6,6.8-12.8c2.1-3.2,4.8-8.4,6-11.5s4.5-9.5,7.4-14
		c2.9-4.6,6.2-10.9,7.4-14s4-8.5,6.2-11.8c3.7-5.5,6.3-15.6,6.5-25.4c0-1.1,2.5-5.9,5.5-10.7c4.5-7.1,5.8-10.7,7.3-20.3
		c1.4-9.2,2.8-13.1,6.6-19c2.6-4.1,5.7-9.9,6.8-12.9c1.1-3,4.4-9.3,7.3-13.9s6.2-10.9,7.4-14.1c1.2-3.2,3.6-7.9,5.4-10.6
		c1.8-2.6,4.6-7.8,6.1-11.5s5.1-10.5,8-15.1s6.2-11.1,7.4-14.5c1.5-4.1,5.2-9.2,11.3-15.5c8.7-9,13.1-15.4,15.3-22.4
		c0.5-1.8,3-6.4,5.4-10.2c2.4-3.9,5.8-10.5,7.4-14.7c2.8-7.1,5.8-10.4,42.9-45.9c21.9-21,40.6-39.8,41.4-41.8
		c2.6-5.9-1.1-10.9-25.1-33.9c-26.3-25.2-28.1-26.6-40.8-31.6c-5.4-2.1-12.5-5.4-15.8-7.5c-3.3-2-9.6-5-14.1-6.5
		c-6.8-2.4-9.7-4.6-18.7-13.9c-25.8-26.5-32-31.4-46.3-36.6c-8.6-3.1-10.8-4.9-31.7-24.9c-21.9-21-22.8-21.6-33.8-25.8
		c-10.6-4.1-12.3-5.3-25.3-18.1c-13.8-13.6-16.3-15.2-35-23.4c-4.1-1.8-9.5-4.3-12.1-5.7c-7.7-4.2-38.1-18.1-39.4-18.1
		c-0.7,0-5.2-2.3-10-5c-4.8-2.8-11.5-6-14.8-7.3c-3.3-1.2-9.1-4.1-12.8-6.3c-3.7-2.2-8.9-4.8-11.5-5.6c-2.6-0.8-8.8-3.8-13.7-6.7
		c-4.9-2.8-11.4-6-14.4-7s-9.8-4.1-15-6.8c-5.2-2.7-11.6-5.7-14.2-6.7c-2.6-1-7.7-3.5-11.4-5.8c-3.7-2.2-9.7-5.1-13.4-6.4
		s-10-4.3-14.1-6.5c-4.1-2.3-10.1-5.1-13.4-6.4c-3.3-1.2-8.6-3.9-11.7-5.9c-3.1-2-9.1-4.9-13.4-6.4c-4.3-1.5-10.7-4.5-14.2-6.5
		c-3.5-2.1-9.6-4.9-13.4-6.3c-3.8-1.4-10.3-4.5-14.3-6.8c-4.1-2.4-10.1-5.3-13.4-6.5c-3.3-1.2-9-4-12.7-6.2s-9.4-5-12.7-6.3
		c-3.3-1.2-9.6-4.3-13.9-6.8c-6.7-3.9-9.6-4.8-19.2-5.6c-9.3-0.8-12.4-1.7-17.5-4.9C3617.1,1336.8,3608.4,1333.8,3603.3,1336.2"/>
</g>
<g id="Layer_8">
	<path class="st0" d="M1847,1439c-0.5,1.2-0.6,6-0.3,10.7c0.4,7,1.4,10.1,5.2,16.3c2.6,4.2,6.2,11.2,8.2,15.6
		c1.9,4.3,4.8,9.7,6.5,11.9c1.6,2.2,4.4,7.5,6.2,11.8c1.8,4.3,5,10.5,7.1,13.7c2.1,3.3,5.5,10.6,7.4,16.3
		c3.8,11.1,10.6,20.2,26.6,35.2c4.2,4,7.7,7.8,7.7,8.5s2.4,2.8,5.3,4.7c6.9,4.6,10,10.8,9.1,18.5c-0.9,7.8-6,12.2-16.5,14.3
		c-6.1,1.2-9,2.7-14,7.1c-3.5,3.1-6.6,5.3-7,4.9s-4.5-1.2-9.3-1.9c-9.9-1.4-20.9-5.9-22-8.8c-0.4-1.1-5.8-7.1-12-13.3
		c-10.2-10.3-11.7-11.3-15.7-10.9c-7.3,0.7-7.8,2.9-7.8,39.2c0,20.7,0.5,32.3,1.3,32.3s1.3,5.1,1.3,12.9c0,9.3,0.6,14,2.1,16.8
		c1.9,3.6,3.5,15.8,5.5,42.4c0.6,8.4,0.5,8.9-4.7,16.3c-4.5,6.4-5.5,9.1-6.2,16.3c-1.3,13.1-1.9,15.1-5.9,20.5
		c-6.2,8.1-7,10.4-8.1,21.7c-0.9,9.4-1.6,11.6-5.8,17.5c-2.6,3.7-6,9.9-7.6,13.9c-1.5,4-4.6,9.7-6.8,12.8c-2.2,3.1-5.2,8.6-6.6,12.3
		c-1.5,3.7-4.8,9.7-7.4,13.3c-5.4,7.6-6,12.9-2.1,20.1c1.4,2.6,24.3,25.4,50.8,50.6c46.1,43.9,48.4,46.2,51.8,54.3
		c2,4.7,5.2,10.8,7.3,13.7c5.1,7.1,5.6,8.8,6.9,20.5c0.9,8.3,2,11.5,5.9,17.5c2.6,4.1,5.7,9.9,6.8,12.9c1.1,3,4,8.7,6.5,12.6
		c2.4,3.9,5.8,10.6,7.5,15c3.3,8.6,11.9,18.9,26.9,32.1c11.2,9.8,14.4,11.3,27.8,12.9c8.1,0.9,12.7,2.2,17.3,4.9
		c14.6,8.5,13.1,8.1,33.9,8.1c21.8,0,27,1,37.5,7.1c4.1,2.4,10.1,5.3,13.4,6.5c3.3,1.2,7.8,3.5,10,5c10.6,7.4,11.8,7.7,36.2,7.7
		c22.8,0,22.8,0,32.5,5.6c8.4,4.8,10.8,5.6,17.6,5.8c6,0.1,8.5-0.4,10.7-2.3c4.2-3.6,3.7-10.5-1.3-17.8c-2.2-3.2-4.5-7.5-5.1-9.5
		c-0.5-2-0.6-22-0.2-44.6c0.7-41,0.7-41,6.7-50.5c6-9.6,6-9.6,6.7-96.2c0.7-86.6,0.7-86.6,6.4-94.7c5.5-7.8,5.7-8.5,5.7-17.9
		c0-8.6-0.5-10.5-3.8-15.5c-4.4-6.6-16.7-18-22.4-20.8c-2.2-1.1-5.8-2.3-8.2-2.8c-2.3-0.5-8.2-3.1-12.9-5.9
		c-4.8-2.8-12.2-6.3-16.4-7.8c-6.7-2.4-10.4-5.4-30.1-24.3c-19.2-18.5-22.9-22.6-25.5-29c-1.7-4.1-4.8-10.1-6.9-13.3
		c-2.1-3.3-5.3-9.4-7-13.7c-1.8-4.3-5.3-11.1-8-15.2c-2.6-4.1-5.7-9.9-6.8-13c-1.1-3-3.3-7.2-4.8-9.2s-4.6-7.9-6.8-13
		s-5.5-11.4-7.3-13.8s-4.8-8.2-6.7-12.7c-1.9-4.5-4.9-10.2-6.7-12.8c-1.8-2.5-4.9-8.6-6.8-13.5c-3.2-7.9-5.4-10.7-19.4-24.6
		c-13.9-13.7-16.5-16.9-21.2-26.7c-4.1-8.6-7.8-13.6-16.4-22.5c-7.2-7.5-12-11.5-13.9-11.5c-1.7,0-3.4-1.3-4.3-3.1
		c-3.3-7-17.8-27.4-24.2-34c-4.9-5.1-7.7-9.7-10.4-16.7c-3.4-9-4.6-10.5-20-25.1c-12.1-11.4-18.5-16.5-24.2-19
		C1855.8,1437.2,1848.2,1436.1,1847,1439"/>
</g>
<g id="Layer_7">
	<path class="st0" d="M4607.7,1699.4c-2.4,1.2-6.9,4-9.9,6.1c-5.6,3.8-5.6,3.8-57.4,4.5c-51.8,0.6-51.8,0.6-57.4,4.5
		c-11.9,8.2-12.4,8.3-36.4,8.3s-24.5,0.1-36.4,8.3c-5.6,3.8-5.6,3.8-30.7,4.5c-22.7,0.6-25.5,0.9-28.9,3.3c-2.1,1.5-5.7,4-8.1,5.6
		c-3.4,2.3-6.9,3.2-16.2,3.9c-6.5,0.5-13.7,1.8-15.8,2.9c-2.2,1.1-20.2,17.7-40.2,37c-34.8,33.6-36.4,35.3-39.4,43.3
		c-1.7,4.6-4.9,10.8-7,13.8c-2.2,3-5.2,9.1-6.7,13.4c-2.2,6.3-4.8,9.9-13,18.2c-8.2,8.4-10.8,11.9-13.3,18.8
		c-1.7,4.6-5.1,11.2-7.5,14.7s-5.4,9.1-6.6,12.6s-3.8,8.5-5.7,11.1s-5.2,8.8-7.3,13.8c-2.1,5-5.6,11.6-7.7,14.5
		c-2.1,3-4.9,8.3-6.3,11.8s-4.2,8.8-6.2,11.7c-4.2,5.9-6.4,13.6-6.5,22c0,6.2-0.9,8.1-7.8,17.8c-4.2,5.9-4.9,8-5.6,17.3
		c-0.9,10.8-1.8,13.2-8.1,22.1c-2,2.8-4.6,8.1-5.9,11.8c-1.3,3.6-4.1,9-6.3,11.9c-2.2,2.9-5.3,8.5-6.8,12.5
		c-1.6,4-4.8,10.2-7.1,13.7c-2.4,3.5-5.3,9.4-6.6,13.1s-4.1,9.1-6.4,12c-2.2,3-5.2,8.6-6.7,12.6c-1.4,4-4.1,9.3-6,11.9
		c-1.9,2.6-5.2,8.9-7.4,14.1c-2.2,5.1-5.5,11.2-7.2,13.4c-1.8,2.2-4.6,7.5-6.2,11.6c-1.6,4.1-4.4,9.6-6.2,12.2
		c-1.8,2.6-5,8.8-7.1,13.8s-5.6,11.5-7.7,14.5c-2.1,3-4.9,8.4-6.1,11.9c-1.2,3.6-4,8.9-6.3,11.7c-2.2,2.9-5.2,8.6-6.7,12.6
		c-1.5,4.1-4.7,10.3-7.2,13.9c-2.5,3.6-5.6,9.4-6.9,12.9c-1.3,3.5-4.4,9.3-6.8,12.8c-3.2,4.7-4.6,8.4-5.2,14.1
		c-1.4,13.8-2,15.6-7.6,23.6c-5,7.2-5.6,8.9-6.4,18.5c-0.9,11.4-0.9,11.1-7.5,20.7c-3.4,4.8-4.7,8.3-5.2,14.1
		c-1.4,13.8-2,15.6-7.5,23.4c-4.9,7-5.5,8.8-6.5,18.7c-0.9,9.8-1.6,11.7-6.1,18c-6.6,9.2-6,12.3,3.7,16.9
		c4.3,2.1,13.4,9.3,23.8,18.9c15.1,14,17.7,15.9,26.6,19.2c7.3,2.7,12,5.6,18.3,11.2c11.7,10.4,13.1,13.8,14,33.1
		c0.8,15.9,0.8,16.1,5.7,22.8c5.6,7.8,7.7,13.7,7.7,22.1c0,5.5,1.1,8.3,8.4,21c1.2,2.1,7,13.4,12.9,25s11.9,23.2,13.2,25.6
		c2.9,5.2,15.8,30.6,20.9,41.2c2.8,5.8,9,12.6,31.3,34c15.3,14.7,29.9,27.7,32.5,28.9s11.6,5.2,20.1,9.1c8.5,3.8,18.3,8.3,21.8,9.8
		c4.1,1.8,9.3,6,14.6,11.7c12.7,13.7,21.4,20.1,33.6,25c10.9,4.3,11.3,4.7,45,36.7c33,31.4,34.1,32.6,39.8,43.9
		c8.8,17.3,15.1,27.9,18,30.3c1.4,1.1,6.8,2.7,12.1,3.4c7.1,1,11.5,2.6,17.8,6.3c4.6,2.7,12,6.4,16.4,8c6.9,2.6,11.1,5.9,30.4,24.1
		c13.9,13.1,22.9,22.6,23.8,25.1c0.8,2.2,1.9,8.1,2.6,13.1c1.2,9.4,2.4,12.4,7.5,19.1c4.7,6.1,6,11.6,6,25.4c0,12.8,0,12.8,8.2,28.9
		c4.5,8.9,10.3,19.3,12.8,23.3c3.7,5.9,4.8,9.1,5.7,17.7c0.9,8.6,1.9,11.8,5.8,17.8c2.6,4,5.9,9.7,7.5,12.6c1.5,2.9,4.8,6.4,7.2,7.8
		c2.4,1.4,8.6,4.9,13.8,7.8c5.2,2.9,12.1,6.2,15.3,7.3c3.3,1.1,8.7,3.7,12.1,5.8s8.8,4.7,12.1,5.8c3.3,1.1,9.9,4.3,14.7,7
		c4.8,2.8,11.3,5.9,14.4,6.9s8.4,3.7,11.6,5.8c9.8,6.4,12.1,6.9,34.9,7c23.2,0.1,22.5-0.1,36.7,8.5c7.2,4.4,7.2,4.4,44.3,5
		s37.1,0.6,45.2,5.5c11,6.5,19.2,7.8,43.9,6.9c11.1-0.4,22.5-0.2,25.3,0.4c2.8,0.6,8.5,3.3,12.6,6c6.6,4.4,8.3,4.9,15.7,4.9
		c6.9,0,9.1-0.6,13.8-3.7c7.9-5.2,9.7-8.6,11.6-21.8c1.4-9.2,2.9-13.8,7-21.3c4.1-7.4,5.5-11.7,6.3-18.8c0.8-7.5,1.9-10.7,6.4-17.7
		c4.5-7.1,5.7-10.5,7-19.8c1.3-9.1,2.6-12.7,6.7-19.4c4.7-7.5,7.2-16.6,7.4-26.8c0-1.1,2.9-6.5,6.3-12.1c6.3-10.1,6.3-10.1,7-26.3
		c0.7-15.9,0.8-16.4,5.7-23.9c6-9.4,7.7-15.7,7.7-30c0-9.4,0.6-11.9,3.5-17.3c1.9-3.5,4.7-8.5,6.2-11.2c2.1-3.8,2.9-8.5,3.6-20.6
		c0.8-15.3,1-16,6-23.9c4.8-7.8,8.8-22.5,6.8-25.5c-0.4-0.6-0.1-4.9,0.6-9.6c0.9-6.4,2.7-10.8,6.9-17.5c5.6-8.9,5.6-8.9,6.5-25.3
		c0.8-16.1,1-16.6,5.8-24.1c6.4-9.9,8.3-18.4,7.2-32.3c-1.2-15.5,0.4-22.5,7.3-33.5c5.9-9.3,5.9-9.3,6.6-31.9
		c0.7-22.6,0.7-22.6,5.7-30.4c5.3-8.2,8.5-19.8,7.2-26.1c-1.4-6.7,1.6-17.8,7.1-26.6c4.5-7.1,5.5-10.1,6.6-19c1-8.9,2.1-12,6.6-19.2
		c3-4.7,6-10.7,6.9-13.2c0.8-2.5,3.4-7.4,5.7-10.9c2.3-3.5,5.9-10.2,7.9-15c2.1-4.8,5-10.4,6.6-12.5s4.3-7.3,6-11.6
		c1.8-4.3,5.1-10.6,7.4-14.1c3.2-4.8,4.5-8.6,5.5-16.2c1.2-9.3,2.2-11.9,10.7-27.3c1.9-3.4,2.7-8.2,3.1-18.6
		c0.6-15.3,1.5-18.6,7.6-27.6c3-4.5,4.4-8.8,5.8-17.6c1.5-9.5,2.8-13.3,7.1-20.3c2.9-4.7,6-10.6,6.9-13.1s4-8.2,6.9-12.8
		c4.3-6.9,5.5-10.1,6.5-18.6c1.1-8.9,2.4-12.4,10.5-27.5c5.1-9.5,10.3-18.8,11.6-20.7c1.3-1.9,3.2-8.7,4.2-15.2
		c1.5-9.6,2.8-13.3,6.9-19.6c4.9-7.5,5.1-8.3,6-23.2c1.1-17,1.8-19.4,8.9-30.4c4.8-7.4,4.9-8,5.7-23.8c0.8-16,0.9-16.3,6.6-26.5
		c7.3-12.9,7.1-18.4-0.7-30.4c-5.2-8-5.2-8.1-6-24.7c-0.8-17-1.4-19.3-7.6-27.2c-4.9-6.2-7-14.8-7-28.5c0-12.1-0.1-12.5-5.3-20.8
		c-5.6-8.9-8-16.2-8-24.7c0-5-0.9-7-8.4-18.8c-2.8-4.4-4.1-8.6-5-16.5c-1-8.8-2.1-12-6.1-18.2c-3.9-6-5.1-9.5-6.1-17.4
		c-1.5-12-2.7-15.6-7.1-21.2c-1.9-2.4-5-8-6.9-12.5s-4.5-9.6-5.8-11.4c-5-6.9-6.8-11.9-7.9-22.4c-1-9.3-1.9-12-5.8-17.6
		c-2.5-3.7-6-10.1-7.8-14.3c-4.1-9.7-10.7-16-20.1-19.1c-9.2-3-13-5.7-25.5-18.1c-11.9-11.8-19.7-17.3-28.7-20.5
		c-3.7-1.3-10.6-4.6-15.3-7.3c-6.6-3.8-10.1-4.9-14.7-5c-9.8-0.1-17.7-2.3-25.4-7.4c-7.2-4.7-7.2-4.7-24.8-5.4
		c-18.5-0.8-18.8-0.8-30.1-8.1c-7.1-4.6-7.2-4.6-22.1-4.7c-16.1-0.1-21.9-1.4-29.2-6.7c-2.5-1.9-8.8-5-13.9-7s-11.7-5.2-14.5-7.1
		c-2.9-1.9-8.7-4.7-13.1-6.2c-5.8-2-10.7-5.2-18.4-12c-7.8-6.8-12.7-10.1-18.9-12.3c-6-2.2-11.3-5.5-18.6-11.9
		c-11.9-10.3-18.4-13.5-27.6-13.5c-9.3,0-14.5-1.7-23.1-7.4c-7.4-4.8-7.4-4.8-61.1-5.2C4616.6,1697.2,4611.7,1697.3,4607.7,1699.4"
		/>
</g>
<g id="Layer_6">
	<path class="st0" d="M2419,1779c-4.4,2.7-11,5.9-14.7,7.1s-8.8,3.6-11.3,5.4c-8.1,5.8-12.4,7.3-23.8,8.3
		c-9.7,0.8-12.2,1.6-18.1,5.4c-3.8,2.4-9.9,5.5-13.6,6.7c-3.7,1.3-9.3,4-12.4,6c-10.6,6.8-13.3,7.4-36.8,7.4
		c-20.8,0-22,0.2-27.2,3.2c-2.9,1.7-9.1,4.9-13.6,7c-11.7,5.4-12.5,6.9-12.5,23.4c0,15.2-0.9,18-8.7,28.3c-4.7,6.2-4.7,6.2-4.7,91.2
		c0,56.8-0.5,86.1-1.4,88.6c-0.8,2-3.6,6.7-6.4,10.5c-4.9,6.9-4.9,6.9-5.3,45.5c-0.4,38.6-0.4,38.6,3,44.4c1.9,3.2,5.2,9,7.4,13
		s5.4,8.2,7.1,9.3c6.2,4.2,25,14.5,28,15.4c8.6,2.5,16.4,8,28.6,19.8c12,11.7,14.8,13.7,26.8,19.2c11.8,5.5,14.5,7.4,22.6,16
		c12.4,13.2,20.3,18.9,31.9,23.1c8.8,3.2,11.4,5.1,25.2,18c13.6,12.7,16.9,15.1,27.1,19.6c11.2,4.9,12.6,6.1,34.1,27.2
		c28.6,28,35.1,33.2,47.4,37.7c8.8,3.2,11.4,5,25.3,18c13.5,12.6,16.9,15.1,27.1,19.5c9.9,4.4,13.1,6.6,22.1,15.6
		c14.4,14.4,21.4,19.6,32.8,23.7c8.6,3.2,11.5,5.2,25.9,18.5s17.3,15.4,26.1,18.7c7.9,2.9,12.1,5.7,20.8,13.4
		c8,7.1,13.1,10.5,18.9,12.6c4.3,1.6,11.2,4.8,15.3,7.2s10.9,5.6,15.1,7.1c5.4,1.9,10.7,5.4,18.1,12c8.2,7.2,12.7,10.1,20.4,13
		c7.8,2.9,12,5.6,19.6,12.5c5.5,4.9,12.5,9.9,16.1,11.4c19.8,8,44.8,21,49,25.4c2.5,2.6,9.4,9.1,15.3,14.4
		c8.4,7.5,12.8,10.4,19.9,13c8.4,3.1,10.9,5.1,31.9,24.9c22.2,21,23,21.6,34.2,25.8c10.6,4,12.5,5.4,27.5,19.3
		c14.5,13.5,17.1,15.3,26.1,18.7c9.5,3.5,11.1,4.8,30.1,23.1c23.2,22.3,26.1,24.6,38.8,29.4c8.1,3.1,11.5,5.6,26.1,19
		c14.9,13.8,17.8,15.8,26.5,19.1c7.6,2.8,12.1,5.7,20.4,13c8.4,7.4,12.7,10.1,20.4,12.9c8.7,3.2,11.4,5.1,25.2,18
		c13.7,12.8,16.8,15,27.5,19.7c8.9,3.9,14.1,7.2,20.1,12.8c5.9,5.5,11.1,8.9,19.6,12.6c8.2,3.6,14.3,7.5,21,13.3
		c6.2,5.4,12.1,9.3,17.2,11.2c10.9,4.2,14,6.4,29.9,21.8c13.1,12.6,14.9,13.9,25.5,17.9c9.3,3.6,13.2,6,21.5,13.4
		c8,7.2,12.1,9.8,20.1,12.7c10,3.7,10.1,3.8,51.5,43.7c33.3,32.1,42.9,40.6,48.2,42.9c20.2,8.6,19.1,7.7,56.8,44.8
		c20,19.7,39.3,37.8,42.7,40.2c3.5,2.4,10.4,6,15.4,7.9c6.8,2.6,11.8,5.9,19.7,12.8c8.5,7.4,12.4,9.9,19.7,12.3
		c7.3,2.4,11,4.8,18.6,11.7c7,6.4,12.5,9.9,21,13.7c8.4,3.7,14.2,7.4,21.4,13.8c7.6,6.7,12.2,9.6,19.6,12.4
		c7.4,2.8,12.1,5.7,20.1,12.8c8.1,7.1,12.7,10,20.2,12.9c7.4,2.8,11.9,5.6,18.8,11.8c6.4,5.7,12.2,9.5,19.6,12.7
		c5.8,2.5,13.6,6.4,17.2,8.6c6.7,4.1,6.7,4.1,36.8,4.7c24.4,0.5,30.9,1.1,34.2,2.8c10,5.2,11.6,9.8,12.6,35.8
		c0.8,21.2,0.8,21.2,5.8,28.9c2.7,4.2,6.3,11.1,7.9,15.3c3.4,8.8,10.2,15.8,18,18.3c2.9,1,9.2,3.8,14,6.4c4.8,2.6,12,6,15.9,7.5
		c4,1.6,10.1,4.6,13.6,6.8c4.9,3,9.3,4.4,18.4,5.7c6.6,0.9,13.4,2.4,15.2,3.3c1.7,0.9,7.4,5.4,12.5,10c7.3,6.6,11.6,9.3,19.4,12.2
		c14.5,5.4,25.2,15.4,32.9,30.8c3.9,7.8,8.7,14.7,14.9,21.3c6.6,7.1,10.2,12.3,12.9,19c2.9,6.9,6.1,11.5,13,18.6
		c5,5.2,10.4,11.8,11.9,14.6c4.1,7.8,8.3,10.7,28.1,20.2c17.2,8.2,19,9.4,34.3,23.5c13.9,12.9,17.3,15.3,25.5,18.4
		c5.2,2,12.2,5.3,15.7,7.4c4.9,3,9.1,4.2,18.3,5.4c10,1.3,13.4,2.4,21.2,6.9c5.1,2.9,12.1,6.3,15.6,7.4c16.6,5.4,21.3,21.7,10.4,36
		c-2.2,2.8-4.9,7.9-6.1,11.2s-3,7.6-4,9.4c-3.2,6-18.6,19-26,22c-10.9,4.5-10.9,4.5-10.9,45.2c0,35.1,0,35.1,4,42
		c2.2,3.8,5.5,10,7.4,13.9c1.8,3.9,4.6,9.1,6.1,11.5c1.5,2.5,4.3,7.7,6.1,11.5c9.5,19.9,10,20.6,35.4,44.9
		c13.7,13.1,29.2,27.3,34.5,31.7c10.2,8.4,12.5,12.8,10.5,20.2c-0.5,1.9-7.9,10-17.3,18.9c-15.4,14.5-16.7,16.2-20.7,25.9
		c-2.4,5.7-4.3,12.1-4.3,14.2c0,5.1,5.1,11.6,18.5,23.7c8.7,7.8,12.9,10.5,20.5,13.4c7.3,2.8,12,5.7,19.9,12.7
		c8,7,12.5,9.9,20.2,12.7c7.8,2.9,11.9,5.5,19.1,12.1c13.8,12.6,14.2,13.7,14.2,45c0,28.5-0.5,26.2,8.6,41.1c2.4,4,4,9,4.8,15.4
		c1.3,10.8,1.5,11.1,9.2,24.4c6.3,10.7,7.9,12.2,22.6,21c8.3,4.9,11.4,6,21.8,7.5c9.4,1.4,14.2,2.9,21.8,6.8c7.2,3.8,12,5.3,18.4,6
		c12.3,1.3,16.5,3.3,27.5,13.3c7.5,6.9,11.7,9.5,19,12.2c5.2,1.9,12,5,15.3,7c3.2,2,8.6,4.6,11.9,5.8c3.3,1.2,10.2,4.7,15.4,7.6
		c9.3,5.4,9.3,5.4,32.2,6.1c29.5,1,31.5,1.9,39.1,17.8c2.5,5.3,5.6,10.6,6.8,11.9c1.2,1.3,13.4,7.6,27.1,14
		c20.3,9.5,26.4,13,33.3,19.2c5.6,5,12.9,9.6,21.4,13.7c7.1,3.4,15.8,7.5,19.3,9.2c34.1,16.4,49.8,23.9,56.6,27
		c4.4,2,10.1,4.7,12.7,5.9c5.6,2.6,10.7,11.4,10.7,18.2c0,4.8-2,9-8.7,18.1c-4,5.5-4,5.5-4,23.9s0,18.4,4.2,21.9
		c7.2,5.8,21.6,13,26,13c2.3,0,8-2,12.6-4.5c8.3-4.5,8.5-4.5,25-4.5c26.2,0,30.5,2,38.1,17.3c2.5,4.9,6.4,11.4,8.8,14.5
		c3.6,4.6,4.4,6.8,4.8,13.4c0.5,8.4,0.1,9.4-8.3,19.4c-5.2,6.2-6.1,14.8-2.5,22.6c3.2,6.8,13.7,18.1,32.2,34.5
		c16.1,14.2,19.7,20,18.8,29.6c-0.5,4.5-1.8,7.7-4.6,11.1c-7.2,8.6-7.7,10.3-8.4,28.5c-0.7,17.3-0.7,17.3-6.5,25.1
		c-4.1,5.5-6,9.5-6.5,13.4c-0.6,5.6-0.1,7,9.8,24.3c1,1.8,2.5,7.7,3.2,13.1c0.7,5.3,2.2,11.8,3.3,14.3c1.1,2.5,8.9,11.3,17.3,19.6
		c8.4,8.2,16.1,16.4,17.1,18.2c1.4,2.4,2,10.7,2.3,32.9c0.4,27.8,0.3,30.1-2.3,35.7c-5.3,11.5-3.2,15.6,11,21.6
		c4.2,1.8,10,4.7,12.7,6.4c2.8,1.7,8.8,4.7,13.5,6.5s10.7,4.7,13.4,6.4c2.7,1.7,8.5,4.5,12.9,6.1c4.4,1.7,10.9,4.8,14.5,7
		s9.6,5,13.4,6.3c8.2,2.8,24.8,17.1,28.4,24.5c3.4,7.1,18,34.3,26.4,49.3c1.5,2.7,3.2,9.2,3.8,14.5c0.8,6.7,2.3,11.6,4.7,15.7
		c6.7,11.1,7.3,12.7,8.6,22.6c1,7.5,2.6,12.1,6.5,19.1c2.8,5,6,11.2,7,13.6c1,2.5,3.8,7.7,6.1,11.5c2.4,3.9,5.4,9.6,6.6,12.8
		c1.3,3.2,4.2,8.6,6.5,12.2c2.3,3.5,4.7,7.6,5.4,9c0.7,1.4,1.5,19.4,1.9,40c0.6,32.9,1,37.7,3,39.6s2.6,1.9,4.5,0.4
		c4-3.2,12.7-16.4,15.6-23.9c1.6-4.1,4.7-10.1,6.8-13.5c2.1-3.4,5.1-9.1,6.5-12.7s4.4-9.1,6.6-12.2s5.8-9.7,7.9-14.6
		s5.1-10.6,6.5-12.6c1.5-2,3.9-6.7,5.5-10.5s5.1-10.7,8-15.3c2.8-4.6,5.8-10.4,6.6-12.9c0.8-2.5,3.4-7.4,5.6-10.8s5.3-9.1,6.8-12.7
		s4.4-9.2,6.6-12.4c2.2-3.2,5.5-9.6,7.4-14.1s5.2-10.8,7.3-14c2.1-3.2,4.8-8.3,5.9-11.3s4.1-8.8,6.6-12.8s5.8-10.3,7.3-14.1
		c1.5-3.8,4.3-9.1,6.2-11.8c1.9-2.7,4.7-8,6.2-11.7s5.1-10.5,7.9-15c2.8-4.6,5.8-10.4,6.6-12.9c0.8-2.5,3.3-7.3,5.5-10.7
		c4-6,5.2-9.7,7.8-24.3c0.8-4.3,3.1-10.1,5.5-13.6c2.2-3.3,5.5-9.5,7.3-13.7s5.2-10.6,7.5-14.1c3.2-4.8,4.5-8.9,5.5-16.2
		c1.5-11.3,2.6-14.7,7.9-22.5c2.1-3.2,5.1-8.7,6.5-12.3c1.5-3.6,4.5-9.4,6.7-12.8c2.9-4.5,4.6-9.5,6-18.1c1.5-9.1,3-13.4,6.3-18.3
		c2.4-3.5,5.6-9.4,7.1-13.1c1.6-3.7,4.9-10,7.3-14.1c3.3-5.5,4.8-10,5.7-17.2c1.4-10.4,3.4-16.2,7.9-22.3c1.6-2.1,4.3-7.4,6.1-11.7
		c1.8-4.4,4.7-10.1,6.5-12.7s4.8-8.3,6.7-12.7c1.9-4.4,5.2-10.7,7.4-14c2.9-4.4,4.4-8.7,5.5-16.1c1.6-10.8,3.6-16.5,7.8-22.2
		c1.5-2,3.9-6.7,5.5-10.4c1.6-3.8,5-10.2,7.6-14.2c3.8-5.8,5.1-9.7,6.6-19.2c1.4-9.2,2.9-13.5,6.4-19c2.5-3.9,5.6-9.7,6.8-12.9
		s4.4-9,6.9-12.9c3.6-5.6,5-9.6,6.4-18.8c1.5-9.3,2.8-13.2,6.7-19.2c3.9-6,5.1-9.6,6.2-17.7c1.3-9.6,2.4-12.5,10.5-26.9
		c1.6-2.8,4.1-7.7,5.5-10.9c1.5-3.2,4.2-8.5,6.2-11.8c2.2-3.8,4-9.5,4.7-15.1c1.1-8.7,2.7-12.8,10-25.5c1.9-3.3,3.3-7.9,3.3-10.9
		c0.1-8.2,2.1-14.5,7.2-22.4c3.7-5.7,5.1-9.7,6.2-17.3c1.7-11.8,2.7-14.4,8-21.8c2.2-3.1,4.9-7.9,5.9-10.6s4.3-9.4,7.3-14.9
		c3.5-6.3,5.5-11.6,5.5-14.6c0.1-7.9,2.5-15.7,7.4-23.2c3.7-5.7,5-9.7,6.5-19.1c1.5-9.6,2.8-13.3,6.7-19.4c2.7-4.1,5.7-9.9,6.8-12.8
		c1.1-2.9,4.1-8.6,6.7-12.7c3.8-5.9,5.2-9.8,6.7-19.3c1.4-8.8,2.9-13.5,5.8-18c4.7-7.2,6.4-12.2,7.6-21.9c0.5-4,2.1-9.5,3.6-12.2
		c7.4-13,21.6-40.2,24-45.7c1.4-3.4,4.3-8.6,6.4-11.5s4.8-7.8,6-10.8c1.2-3.1,4.7-9.9,7.6-15.2c3.4-6.1,5.3-11.3,5.4-14.3
		c0.1-7.9,2.5-15.7,7.4-23.2c2.5-3.9,5.5-9.6,6.6-12.7c1.1-3,4.1-8.8,6.7-12.8c3.6-5.6,5-9.6,6.1-17.4c1.7-11.8,2.7-14.6,7.7-21.7
		c2.1-2.9,4.8-7.9,6.1-11.1c1.3-3.2,4.4-9.3,7-13.7c3.5-6,5-10.5,6-18.4c1.4-10.4,2.9-14.4,8.8-22.9c1.7-2.5,4-7,5.1-10
		s4.1-8.8,6.7-12.8s5.6-9.8,6.7-12.8s4.3-9,7-13.2c4.1-6.3,5.3-9.8,6.6-19.1c1.3-9.1,2.6-12.8,6.4-18.8c2.6-4.1,5.7-9.9,6.8-12.9
		c1.1-3,4.2-8.8,6.8-12.9c3.8-5.9,5.1-9.7,6.6-19.2c1.5-9.6,2.8-13.3,6.7-19.4c2.7-4.1,5.7-9.9,6.8-12.8c1.1-2.9,4.1-8.6,6.7-12.6
		c3.8-5.9,5.1-9.7,6.6-19s2.8-13.2,6.7-19.3c2.7-4.2,5.8-10.1,6.9-13.2c1.1-3.1,3.4-7.6,5.1-10.1s6.8-11.8,11.5-20.8
		c7-13.5,8.6-18,9.7-26.3c1-8.1,2.3-11.6,6.7-18.5c3-4.7,6.5-11.4,7.9-14.8c1.4-3.4,4.4-9.2,6.7-12.8c3.1-4.8,4.6-9.1,5.6-16.5
		c1.2-8.7,2.9-12.8,13.7-33.1c6.8-12.7,13.1-25.2,14.1-27.6c1-2.5,3.9-7.8,6.5-11.9c3.7-5.9,5-9.7,6.4-19c1.3-9.2,2.6-13.1,6.3-18.9
		c2.5-4,5.7-9.9,6.9-13c1.3-3.2,4.5-9,7-13c3.7-5.7,4.9-9.3,5.8-16.7c1.3-10.9,2.3-13.8,7.7-21.9c2.2-3.3,5-8.7,6.4-12.1
		c1.3-3.4,4.5-9.3,7.1-13.1c2.5-3.8,5.4-9.1,6.4-11.7c0.9-2.6,4.2-9.1,7.2-14.6c3.5-6.3,5.5-11.6,5.5-14.6
		c0.1-7.7,2.6-15.8,6.8-22.1c2.2-3.2,5.4-9.3,7.2-13.6c1.8-4.2,5.2-10.6,7.5-14.1c3.2-4.8,4.5-8.9,5.5-16.2
		c1.5-11.5,2.6-14.5,7.9-21.9c2.2-3.1,4-6,4-6.6c0-1.1,12.1-25.6,19.5-39.1c6.9-12.7,6.2-15.7-4.7-20.8c-2.6-1.2-20.3-17-39.3-35.1
		c-34.6-32.9-34.6-32.9-40.6-45c-6-12.2-6-12.2-51.1-55.5c-24.8-23.8-47.9-45.2-51.2-47.5c-3.3-2.3-9.4-5.4-13.5-6.9
		s-10.4-4.4-14-6.6c-3.6-2.2-9.5-5-13.2-6.4c-3.7-1.3-10.3-4.5-14.7-7c-4.4-2.5-9.5-4.6-11.4-4.7c-24-0.6-43.4-0.5-48.2,0.4
		c-3.3,0.6-8.7,3-12.1,5.3s-8.5,5-11.5,5.8c-2.9,0.9-9.3,3.8-14.1,6.5c-4.8,2.7-12.3,6.2-16.7,7.7c-7.5,2.6-10.6,5.2-44.9,37.8
		c-33.8,32.2-37.5,35.2-44.3,37.5c-11.7,3.9-14.7,5.7-24.8,15.7c-7.7,7.6-10.2,11.2-13.2,18.6c-2,5.1-4.7,10.6-6.1,12.2
		c-4.6,5.7-5.8,9.2-6.7,20.3c-0.9,10.2-1.4,11.8-6,17.9c-2.8,3.7-6.1,9.7-7.4,13.4s-4.6,9.9-7.3,13.8c-4.3,6.2-5.1,8.4-6,17.9
		c-1.1,11.7-1,11.3-7.9,21.1c-4.2,5.9-4.8,8-5.6,17.6c-0.8,9.5-1.5,11.8-5.9,18.7c-2.8,4.3-6.4,11.2-8.1,15.3s-4.6,9.4-6.5,11.8
		c-1.9,2.3-4.7,7.7-6.4,11.9c-1.6,4.2-4.7,10.1-6.9,13.2c-2.1,3-5.1,8.8-6.5,12.8s-4.4,9.7-6.6,12.6c-2.2,2.9-5.3,8.7-6.9,12.8
		s-4.7,10-6.9,13.1c-2.2,3-5.2,9.1-6.7,13.4c-2.7,7.8-3.8,9-59.8,62.7c-42.1,40.4-58.3,55.1-61.8,56.2c-2.6,0.8-9,1.5-14.2,1.4
		c-10.4-0.1-17-2.4-26.9-9.5c-5.5-4-5.8-4-22.1-4.2c-17.6-0.2-17.1-0.1-32.6-9.1c-4.8-2.8-6.8-3.1-20.5-3.1c-16.4,0-20.3-1-29.7-7.5
		c-3.1-2.2-8.9-5.1-12.7-6.5c-3.9-1.4-10-4.3-13.5-6.4c-3.6-2.2-9.7-5.1-13.6-6.5s-10.2-4.6-13.9-7c-7.8-5.1-6.1-4.9-33.3-5
		c-20.1-0.1-21-0.2-26.8-3.6c-16.6-9.5-11.6-8.7-59.5-9.1c-43.4-0.3-43.4-0.3-51.2-5.5c-4.3-2.9-9.3-5.7-11.2-6.3
		c-1.8-0.6-14.6-0.9-28.3-0.7c-28.3,0.4-32.9-0.4-43.7-7.3c-7.4-4.7-7.5-4.7-25-5.4c-18.2-0.7-19.7-1.1-29.4-7.8
		c-2.9-2-8.4-4.7-12.2-6.1c-3.9-1.4-10-4.3-13.5-6.4c-3.6-2.2-9.8-5.1-13.9-6.6s-9.4-4.1-11.8-5.8c-8.7-6.4-12.5-7.1-31.6-6.2
		c-19.4,0.9-26.8-0.2-33.7-5.1c-9.6-6.9-10.6-7.1-41.2-7.1c-31.5,0-30.9,0.1-45.4-9.6c-5.7-3.8-5.7-3.8-37.9-3.4
		c-17.9,0.2-34.8-0.1-38-0.8c-3.1-0.7-9.8-3.6-14.8-6.5c-9.1-5.3-9.1-5.3-30.8-5.3c-23.6,0-26.3-0.6-36.3-7.5
		c-3.1-2.2-9-5.1-13.1-6.6c-4.1-1.4-9.9-4.3-12.9-6.3c-3.1-2-8.9-4.8-13.1-6.3c-4.1-1.5-10.4-4.4-14-6.6c-3.6-2.2-9.5-5-13.2-6.4
		c-3.7-1.3-10.4-4.5-14.8-7.1s-10.4-5.3-13.4-6.1c-8.2-2.3-26.3-20-29.3-28.7c-1.2-3.6-4.1-9.4-6.4-12.8c-5.3-8-6.1-10.4-7.7-22.8
		c-1-8.3-2.1-11.2-6-16.7c-2.6-3.6-5.9-9.7-7.4-13.5s-4.3-9.1-6.2-11.9c-5.5-8-6.3-11.1-6.7-26.9c-0.3-14-0.6-15.4-4.2-20.9
		c-7.3-11.2-8.6-14.5-9.8-23.9c-1.5-12.3-2.8-15.2-10.5-23c-8.1-8.3-15.2-12.9-24.1-15.7c-3.8-1.2-9.3-3.7-12.1-5.5
		c-7.4-4.8-13-6.8-19.2-6.8c-11.9,0-17.2-2.4-27-12.1c-5.1-5-10.2-11.3-11.5-14.1s-4.9-9.8-8-15.8c-3.2-5.9-7-14-8.6-18.1
		c-2.4-6.3-5.8-10.1-24.4-28.2c-22.3-21.6-27.2-25.3-39.5-29c-6.1-1.9-9.1-4.1-19.4-14.3c-14.4-14.3-21.6-19.6-31.6-23.1
		c-4.1-1.4-10.9-4.7-15.2-7.2c-4.3-2.5-10.8-5.5-14.3-6.6c-5.6-1.8-11.6-7-48.1-42.1c-22.9-22.1-42.5-41.2-43.4-42.5
		s-2.8-5.3-4.2-8.8s-4.8-9.8-7.6-14s-5.1-8.3-5.1-9.1c0-0.9-3.3-7.7-7.4-15.3c-4.1-7.6-7.4-14.5-7.4-15.3c0-0.9-2.3-5-5.1-9.2
		s-6.2-10.2-7.4-13.3c-1.3-3.2-4.4-9-6.9-12.8c-5.1-8-5.6-9.7-7.3-22.8c-1-7.6-2.1-10.6-6-16c-6.2-8.6-7.5-13.2-7.5-26.2
		c0-13.7-1.7-16.8-11.5-21.3c-5.1-2.3-10.5-6.4-16.5-12.4c-13.8-14-22.3-20.4-32.5-24.3c-5.2-2-11.9-5.4-15-7.5s-9.1-5-13.4-6.4
		c-4.3-1.4-9.6-3.8-11.8-5.3s-8.8-4.7-14.6-7s-12.8-5.7-15.7-7.5s-8.9-4.7-13.5-6.4s-10.1-4.3-12.3-5.8s-8.1-4.3-13.1-6.3
		s-11.4-5.1-14.2-6.9c-2.8-1.8-8.5-4.6-12.7-6c-4.2-1.5-10.3-4.4-13.7-6.4c-3.3-2-8.8-4.6-12.1-5.7c-3.3-1.1-9.9-4.3-14.7-7.1
		s-11.7-6-15.2-7.2c-5.4-1.8-9.7-5.3-26.1-21.3c-21.5-21.1-26.9-25.2-38.4-29.3c-5.1-1.8-10.5-5.2-15.9-10
		c-11-9.8-14.7-12.1-24.8-15.6c-7.9-2.7-10.2-4.6-30.9-24.5c-23.6-22.8-27.6-25.4-38.5-25.4c-9.9,0-15.6-1.8-24.6-7.5
		c-8.3-5.3-8.3-5.3-35.4-5.3c-27.2,0-27.2,0-33.7,4.5c-15.8,10.9-24,11-39.1,0.2c-2.4-1.7-8-4.5-12.5-6c-5.6-2-10.4-5-15.7-9.9
		c-10.6-9.7-14.5-12.4-23-15.4c-4.1-1.4-10.9-4.7-15.2-7.2s-10.8-5.5-14.4-6.6c-5.2-1.6-9.1-4.6-19.6-14.9
		c-15.2-14.9-20.6-18.7-32.3-22.8c-5.7-2-10.6-5-14.9-8.9c-3.5-3.2-7.9-7.2-9.7-8.8s-8.1-4.8-13.9-7.1c-5.8-2.3-12.9-5.8-15.7-7.6
		s-8.5-4.6-12.7-6.1s-10.3-4.4-13.6-6.4s-9.3-4.9-13.3-6.4c-4.9-1.8-10.5-5.6-16.8-11.3c-5.2-4.7-11-9.2-12.8-10
		c-11.1-4.9-41.6-19-45.5-21.1c-2.6-1.4-8-3.9-12.1-5.7s-10.4-4.7-14.1-6.5c-3.7-1.8-9.7-4.7-13.4-6.4s-9.7-4.6-13.4-6.4
		c-3.7-1.8-9.7-4.7-13.4-6.4s-9.4-4.5-12.7-6.2s-11.5-5.6-18.1-8.7c-8.3-3.9-14.7-8.1-20.4-13.4c-6.3-5.8-10.9-8.7-18.8-11.8
		c-5.7-2.2-13.1-5.7-16.5-7.8c-3.3-2-8.8-4.6-12.1-5.7s-9.9-4.3-14.7-7.1c-4.8-2.8-11.6-6-15-7.1c-4.2-1.4-9.4-4.9-15.9-10.9
		c-7.5-6.9-12-9.7-19.8-12.8c-5.6-2.2-12.8-5.6-16.2-7.6c-3.3-2-9.3-4.8-13.2-6.2c-4-1.4-9.5-4.1-12.3-6c-2.8-1.8-9.4-5-14.7-7.1
		s-11.4-4.9-13.5-6.4c-2.2-1.5-7.6-4.1-12.1-5.7c-4.5-1.7-11-4.8-14.4-6.8c-3.4-2.1-10-5.2-14.6-7s-10.1-4.4-12.3-5.9
		s-8-4.3-13.1-6.3c-5-2-11.5-5.1-14.4-7s-8.7-4.6-13-6.1c-7.3-2.5-10.7-5.5-47.7-41.1c-21.9-21.1-42.3-40-45.3-41.9
		c-2.9-1.9-8.4-4.5-12.1-5.8c-3.7-1.3-9.5-4-12.9-6s-10-5.1-14.6-6.9c-4.6-1.7-11.3-5-15-7.2c-5.5-3.4-8.5-4.2-17.9-5
		c-12.3-1.1-11.7-0.9-21.7-7.3c-5.8-3.7-8.7-4.6-17.4-5.5c-12.4-1.2-13.5-1.6-23.7-7.9c-7.9-4.9-7.9-4.9-41.7-4.9
		C2427,1774,2427,1774,2419,1779"/>
</g>
<g id="Layer_5">
	<path class="st0" d="M1712.5,1892.3c-1.8,0.9-5.8,3.2-8.7,5c-2.9,1.8-8.7,4.3-12.7,5.5c-6.8,2.1-10.1,4.9-44.9,37.6
		c-36.8,34.7-37.7,35.4-46.7,38.4c-7.7,2.5-11,4.7-20.2,12.9c-8.4,7.6-12.7,10.4-18.3,12.2c-4,1.3-9.8,4-13,6
		c-12.2,7.9-8.4,7.6-90.1,7.3c-74.6-0.3-74.6-0.3-80.9,3.4c-15.4,9.2-16.5,9.5-31.3,9.5c-7.6,0-15,0.6-16.5,1.3
		c-1.4,0.7-4.4,4.7-6.5,8.7c-2.1,4.1-4.8,8.1-6,9c-1.1,0.9-2.7,3.5-3.5,5.8c-2.1,6.2,0,10.2,10.9,20.7c10.6,10.3,12.7,15.8,8.7,23.3
		c-3.4,6.2-18.4,17.7-26.5,20.2c-3.9,1.2-10.7,4.4-15,7.2s-8.6,5-9.5,5c-3,0-8.8,5.3-11.6,10.7c-1.5,2.9-4.9,8.3-7.5,12
		c-6.8,9.6-7.3,16.6-1.8,26c2.3,3.9,5.3,9.6,6.8,12.8c3.2,6.8,6.3,12.5,11.2,20.7c2.6,4.2,4,9,4.9,16.6c1,8.7,2.1,11.8,5.7,17.1
		c5.9,8.6,6.4,9.9,7.7,21.7c0.9,8.6,2,11.4,6.9,19.2c5.8,9.1,5.8,9.1,5.8,28.4c0,19.3,0,19.3-5.6,28.2c-3.1,4.9-6.6,12.1-7.9,16
		c-1.9,5.6-4.2,8.7-11.4,15.4c-5,4.6-10.3,10.3-11.8,12.8c-3.8,6.1-3.6,13,0.4,17.5c3.2,3.6,3.2,3.6,45.2,4.2
		c44,0.7,44.8,0.8,51.7,6.8c1.7,1.4,4.2,5.7,5.7,9.5s4.8,9.8,7.3,13.3c5.1,7.1,7.4,13.4,7.4,20.4c0,6.9,2.1,12.5,7.7,20.2
		c5.1,7,5.1,7,5.7,30.3c0.6,21.1,0.9,23.6,3.6,27.7c9.8,14.9,9,9.6,9.8,62.8c0.6,43.8,0.9,48.4,3.2,52.5
		c1.4,2.5,15.6,17.2,31.5,32.7c28,27.3,29.1,28.5,32.8,37.8c3.5,8.6,5.4,11.1,18.1,23.5c17.4,17,20.3,19.1,27.1,19.2
		c5,0.1,6-0.6,17.1-11.5c9.6-9.4,12.3-13,14.2-18.6c1.3-3.8,4.3-10.1,6.7-14c2.4-3.9,5.4-10,6.8-13.4c2-5.2,7.5-11.2,32.1-35.1
		c21-20.4,30.4-30.5,32.2-34.4c1.4-3.1,5.7-11.7,9.6-19.2c3.9-7.4,7-14.2,7-14.9c0-0.8,2.2-4.8,4.9-9c2.7-4.2,6.5-11.4,8.5-16
		s5.2-10.7,7-13.4c1.8-2.8,4.3-7.7,5.6-10.8c1.3-3.2,4.4-9,6.8-12.9c2.5-3.9,5.8-10.2,7.4-14.1c1.6-3.8,4.6-9.6,6.7-12.8
		s5.1-9.1,6.7-13.2c2.1-5.4,5.5-10.1,12.5-17.3c6.8-7,10.5-12.1,12.8-17.5c1.7-4.2,5.2-10.9,7.7-14.9s5.4-9.7,6.5-12.8
		s4.1-8.9,6.7-12.9s5.6-9.8,6.7-12.8s4.1-8.7,6.6-12.6c2.5-3.9,5.8-10.2,7.4-14.1c1.6-3.8,4.5-9.6,6.5-12.8s5-8.9,6.6-12.8
		c1.6-3.9,4.2-8.8,5.7-10.9c1.5-2.1,5-8.5,7.8-14.1c4.6-9.3,6.6-11.6,22.9-26.3c27.7-24.9,38.7-37.2,44-49.7c3.4-8,6.5-12.6,13.6-20
		c6-6.3,10.2-12.1,12.2-17c3.9-9.4,6.6-13.2,16-22.8c5.6-5.6,8.6-10.2,11.4-17.1c2.8-6.8,6.1-11.8,11.6-17.6
		c11.9-12.6,12.1-12.1-13.6-36.9c-18.8-18.1-21.8-21.6-24.8-28.7c-1.9-4.5-4.9-10.4-6.8-13.1c-1.8-2.8-4.5-8.1-6-12
		c-1.5-3.8-4.2-9-6-11.6c-5.9-8.3-7.3-11.9-8.5-22.1c-0.9-8-2.3-12-6.6-19.6c-3-5.2-6.5-12.4-7.8-15.9c-2.1-5.6-8.3-12.1-49.4-51.7
		c-25.8-24.9-49.4-46.8-52.3-48.8s-9-4.9-13.4-6.5c-4.4-1.7-10.1-4.3-12.7-5.9C1720.9,1891,1716.5,1890.2,1712.5,1892.3"/>
</g>
<g id="Layer_4">
	<path class="st0" d="M1973.1,2171c-2.2,0.5-5.4,1.6-7.1,2.5c-3.3,1.7-11,11.1-11,13.5c0,4.3-7.9,16.4-15.9,24.4
		c-7.4,7.4-9.7,10.9-12.3,18c-2.7,7.3-5,10.6-13.4,19.2c-7.5,7.6-11,12.3-13.1,17.7c-1.6,4-2.9,8-2.9,8.7c0,0.8-13.8,14.7-30.6,31
		c-28.1,27.2-30.8,30.2-33,36.6c-1.3,3.9-4.7,10.5-7.5,14.8c-2.9,4.3-6.2,10.6-7.4,14.1s-4,8.8-6.1,11.8s-5.1,8.7-6.5,12.7
		s-4.7,10.2-7.1,13.7c-2.5,3.6-5.6,9.4-6.9,12.9s-3.8,8.5-5.6,11.1c-1.8,2.6-4.9,8.6-6.9,13.4c-2.1,4.8-5.8,11.7-8.4,15.3
		c-2.5,3.6-5.4,9.3-6.4,12.6c-1.4,4.6-4.3,8.7-12,16.7c-8,8.3-10.9,12.4-13.4,18.8c-1.7,4.5-4.8,10.6-6.9,13.5s-5.3,9.1-7,13.8
		c-1.8,4.6-4.8,10.5-6.8,12.9c-2,2.5-4.8,7.8-6.2,11.8c-1.4,4-4.7,10.2-7.2,13.8s-5.5,9.5-6.8,13.1c-1.2,3.6-4,9-6.2,11.9
		s-5.2,8.4-6.7,12.3c-1.5,3.9-4.8,10.3-7.3,14.2c-2.5,4-5.6,10.2-6.8,13.8c-1.9,5.5-5.1,9.4-19.3,23.2
		c-14.7,14.4-17.4,17.7-19.9,24.3c-4.7,12.4-5.6,13.5-15.3,18.1c-8.1,3.9-9.5,5.1-11.9,10.4c-1.5,3.3-4.6,8.5-6.8,11.6
		c-4.7,6.6-13,25.8-13,30c0,4.5,6.8,16.4,11.1,19.4c3.1,2.1,6.5,2.7,18.8,3.3c14.8,0.7,15.2,0.8,24.4,6.1c5.1,3,12,6.3,15.2,7.4
		c3.2,1.1,8.7,3.6,12.1,5.6s8.9,4.6,12.2,5.8c3.3,1.2,9.9,4.4,14.7,7.1c4.8,2.7,11.7,5.9,15.4,7.2c9.6,3.3,25.9,19.1,29.3,28.4
		c1.4,3.7,4,8.9,5.9,11.5c7.6,10.7,8.3,13.5,8.4,35.5c0,19.5,0.2,20.7,3.4,25.6c7.3,11.4,10,17.9,10,24.3c0,11.6,2.1,15.8,13.2,26.3
		c8.7,8.3,11.7,10.3,20.3,13.4c14.6,5.3,25.2,15.2,32.9,30.7c4.2,8.5,8.6,14.6,16.6,23.3c6,6.4,11.7,12,12.7,12.4
		c3.3,1.2,9.9-3.5,20.7-14.9c7.8-8.2,11.5-13.2,13.5-18.6c1.6-4,5-10.7,7.6-14.7c3.8-6,5.1-9.7,6.5-19.4c1.5-10,2.6-13.4,6.7-19.7
		c3.9-6.1,5.2-9.7,6.2-17.6c1.4-10.5,1.7-11.3,8.7-22.3c3.6-5.6,4.7-9.2,5.7-17.5c1-8.4,2.2-12.2,6.2-19c3.6-6.2,5.3-11,6.2-17.7
		c0.7-5.2,2.8-12,4.7-15.6c1.9-3.5,4.5-8.4,5.9-10.9s3-9.2,3.7-14.9c1-8.6,2.2-11.8,6.2-18c3.9-6,5.2-9.9,6.6-18.5
		c1.3-8.7,2.7-12.5,6.6-18.6c5.1-7.9,7.6-15.6,7.7-23.6c0-2.9,2.3-8.8,6.1-15.9c3.7-7,6-13,6.1-15.9c0.1-7.6,2.2-14,7.3-22
		c4-6.3,5.2-9.7,6.7-19.6c1.4-9.9,2.6-13.4,6.6-19.6c3.9-6,5.2-9.9,6.5-18.4c1.4-8.9,2.7-12.5,7.3-19.8c4.8-7.6,5.8-10.4,6.8-19.4
		c1-8.4,2.2-12.2,6.2-19c3.6-6.2,5.3-11,6.2-17.7c0.7-5.1,2.7-11.8,4.4-14.9c1.7-3.2,4.6-8.6,6.6-12.2c1.9-3.5,4.9-9.3,6.7-12.8
		s4.5-8.7,6.1-11.5s4.4-8.3,6.3-12.2c1.9-3.9,4.9-9.6,6.7-12.8c2.2-3.8,3.6-8.8,4.2-14.9c0.6-5.9,2-11.1,4-14.7
		c1.7-3.1,5.3-9.9,8-15.2s6.6-12.3,8.8-15.7c3.1-4.7,4.4-8.7,5.7-17.6c1.4-9.5,2.5-12.8,6.8-19.5c5.1-7.9,5.2-8.3,6.1-24.2
		c1-16.8,1.1-17.4,9-29.8c4.7-7.4,4.8-7.9,5.6-23.9c0.7-16.1,0.8-16.5,5.7-24.1c2.7-4.2,5.9-10.2,7-13.2s4.2-8.9,6.8-12.9
		c3.8-6,5.1-9.8,6.7-19.9c1.1-6.8,1.6-13.7,1.2-15.2c-0.7-2.7-6.6-5.6-11.4-5.6c-1.2,0-6.7-2.6-12.2-5.7c-10-5.7-10-5.7-31.4-5.8
		c-23-0.1-27.8-1-35.7-6.7c-2.5-1.9-9-5.1-14.4-7.2c-5.4-2.1-10.8-4.6-12-5.7c-5.8-4.8-8.9-5.4-33-6c-21.1-0.6-24.6-1-28.3-3.2
		C1984.3,2170.6,1980.5,2169.2,1973.1,2171"/>
</g>
<g id="Layer_3">
	<path class="st0" d="M2218.6,2226.4c-7,3.9-10.4,11-10.4,21.8c0,9.8-1.3,13.6-6.7,20.1c-2.2,2.6-5.2,8.1-6.9,12.3
		c-1.6,4.2-5.1,10.7-7.8,14.5c-4.8,6.9-4.8,7-5.5,24.3c-0.7,17.4-0.7,17.4-7,26.1c-6.3,8.7-6.3,8.7-6.3,23.3
		c0,16.1-0.7,18.8-7.4,28.2c-3.5,4.9-4.8,8.2-5.3,14.1c-1.4,13.7-2,15.8-6.8,22.7c-2.6,3.7-6,10-7.5,13.8c-1.5,3.9-4,8.8-5.7,10.9
		c-5.3,6.9-6.3,9.7-7.4,21.3c-1,10.2-1.6,12.1-6,17.9c-2.7,3.5-6.1,9.7-7.7,13.7c-1.6,4-4.6,9.8-6.7,13c-2.1,3.2-5.1,9-6.6,12.9
		s-4.9,10.1-7.6,13.8c-4.3,5.9-4.9,8-5.7,17.4c-1,11.5-0.8,11.2-7.7,20.9c-4,5.6-4.7,8-5.6,17.4c-1.1,11.8-1,11.4-7.8,21.1
		c-4.1,5.8-4.8,8.1-5.7,17.5c-1.1,11.9-0.9,11.3-7.6,20.8c-4.1,5.8-4.7,7.9-5.6,18c-0.9,10.7-1.4,11.9-6.7,19.1
		c-5.2,7.1-5.8,8.6-6.7,18.6c-1.1,11.8-1,11.4-7.8,21.1c-4.1,5.8-4.7,7.9-5.6,18c-0.9,10.7-1.3,11.9-6.8,19.3
		c-5.4,7.3-5.9,8.6-6.7,18.6c-1,11.5-0.9,11.3-7.6,20.8c-3.9,5.6-4.7,7.9-5.6,18c-1,10.8-1.5,12.1-6.9,19.4
		c-5.3,7.2-5.8,8.6-6.7,18.5c-0.9,10-3.5,17.7-6.8,19.7c-3.1,1.8-6.5,11.6-6.5,18.7c0,8.7-1.4,12.4-7.7,21.2
		c-4.3,5.9-4.9,7.9-5.7,17.4c-1,11.5-0.8,11.2-7.7,21c-4.1,5.8-4.8,8-5.5,17.3c-0.7,8.4-1.7,12-4.6,16.7c-2,3.3-4.2,6.3-4.9,6.7
		c-0.7,0.4-2.6,4.6-4.2,9.4c-2.8,8.3-3.9,9.5-26.9,31.8c-22.5,21.8-23.9,23.5-23.9,28c0,2.7,1.1,6.3,2.6,8.4c1.4,1.9,5.4,9,8.8,15.6
		s7.4,14.3,8.9,17c1.7,3,3.2,9,3.9,15.2c0.9,8.5,1.9,11.6,5.8,17.5c2.6,4,6,10.6,7.6,14.6c2.7,6.8,11.5,18.4,18.7,24.5
		s7.4,7.2,8.1,52c0.7,41.7,0.7,41.7,5.8,49.2c3.9,5.6,5.5,9.6,6.5,15.9c0.7,4.6,2.1,10.1,2.9,12.2c1.7,4,13.5,11.3,31.6,19.5
		c13.1,6,15.3,8.1,19.5,18.5c2.5,6.2,5.1,10.2,9.3,13.8c6.8,6,11.1,7,25.8,6.4c9.6-0.4,11.2-0.9,20.4-6.2c10-5.8,10-5.8,27-6.5
		s17-0.7,25.5-5.8s8.5-5.1,36-5.4c24.2-0.3,28-0.1,32.1,1.9c7,3.5,9.4,7.6,11.5,20.2c1.5,8.8,2.9,12.8,6.4,17.9
		c5.9,8.6,6.4,9.9,7.7,21.7c0.9,8,2,11.6,5.6,17.3c2.5,3.9,6.2,11,8.2,15.7c4.5,10.5,6.6,12.4,20.9,19c6.3,2.9,14.1,6.8,17.4,8.7
		c5.4,3.1,7.8,3.5,22.8,4.3c16.7,0.8,16.7,0.8,34,9.3c12.9,6.4,19.5,10.5,26.3,16.7c6.5,5.8,11.4,9,16.9,11c4.3,1.5,11.9,5.1,16.9,8
		c8.5,4.9,9.5,5.2,17.7,4.7c6.9-0.4,9.8-1.3,14.4-4.4c3.2-2.1,7-4.4,8.4-4.9c1.5-0.6,20.2-1.2,41.5-1.3c44.8-0.3,44.2-0.4,56.1,10.6
		c6.1,5.7,9.2,10.1,14.2,20.2c5.8,11.7,7.7,14.2,20.5,26.5c10.8,10.4,15.4,14,19.7,15.2c5.4,1.5,6,1.4,16.5-3.6
		c6-2.9,13.1-6,15.6-6.8c2.6-0.9,8-3.9,12.1-6.8c7.4-5.2,78.3-72.5,131.1-124.4c15.7-15.5,30.5-29.3,32.8-30.7
		c3.4-2.1,7.3-2.7,21.2-3.3c16.6-0.7,17.2-0.8,24.9-5.4c4.3-2.6,11.2-5.9,15.2-7.4s9.5-4.2,12.2-5.9c2.7-1.8,9.2-4.9,14.5-7
		s11.4-4.9,13.5-6.4c2.2-1.5,7.6-4,12.1-5.7s11.2-5,15-7.4s9.9-5.4,13.6-6.7c3.7-1.3,9.5-4,12.8-6c3.4-2,8.8-4.5,12.1-5.6
		c3.2-1.1,9.8-4.2,14.6-7s11.3-5.9,14.5-7s9.2-4,13.4-6.4c4.2-2.5,10.2-5.3,13.3-6.4c3.1-1,8.3-3.6,11.6-5.8
		c3.2-2.1,9.4-5.1,13.7-6.7c4.3-1.5,10.6-4.4,13.9-6.3c3.3-1.9,9.4-4.8,13.6-6.2c4.2-1.5,9-3.8,10.7-5c14.6-10.9,32.2-11.3,49.9-1.1
		c9.4,5.4,9.4,5.4,25.5,6.1c16.1,0.7,16.1,0.7,33.5,8.9c9.6,4.5,19.5,9.5,22.1,11.1s8.3,4.2,12.7,5.7c10.8,3.8,27.4,19.3,30,28.1
		c2.7,8.9,7.1,15.3,17.2,24.5c11,10.1,16,11.9,32.1,11.1c9.7-0.5,11.9-1.1,18.8-5.1c11-6.5,15.9-7.4,38.6-7.4
		c22.8,0,27.6,0.9,38.7,7.5c7.8,4.6,8.2,4.7,21.5,4.7c13.5,0,13.5,0,23.4-5.7c9.8-5.7,9.8-5.7,26.9-6.5c17.1-0.8,17.1-0.8,26.8-6.4
		c9.7-5.6,9.7-5.6,63.6-5.6s53.9,0,63.6,5.6c9.7,5.6,9.7,5.6,26.8,6.4c17.1,0.8,17.1,0.8,26.6,6.3c11.8,6.8,21.1,8.2,52.4,7.6
		c20.3-0.4,22.7-0.7,28.8-3.6c10.6-5,53.8-46.2,56.2-53.6c0.8-2.6-0.3-4.1-7.5-10.6c-12.7-11.3-21.1-17.2-28.6-19.8
		c-8.6-3-13.1-5.9-21.7-14c-7-6.7-9.7-8.2-23.4-13.9c-4.2-1.8-10.2-5.7-13.4-8.8c-7.9-7.7-14-11.7-21.9-14.5
		c-7-2.4-19.4-10.2-19.4-12.2c0-2.3-14.3-11.3-22.6-14.1c-6.5-2.3-10.5-4.8-17.4-11.1c-8.7-8.1-16.1-12.5-26-15.6
		c-3.7-1.2-14.6-10.9-44.9-40c-22-21.2-42.4-40.1-45.3-42s-9.2-4.9-13.8-6.5c-8.1-2.8-10.2-4.6-47.6-40.6
		c-21.5-20.7-41.8-39.6-45.1-41.9c-3.3-2.3-9.8-5.5-14.4-7.1c-6.5-2.2-10.5-4.9-17.8-11.6c-8.9-8.2-16.6-12.9-24.8-14.8
		c-2.1-0.5-11.3-7.9-21.6-17.2c-16.1-14.7-18.8-16.7-27.6-19.9c-7.2-2.6-11.8-5.4-17.8-10.8c-10.5-9.4-14.4-11.9-24.4-15.4
		c-6.4-2.2-11-5.2-19.6-12.7c-8.7-7.6-13-10.4-19.1-12.3c-6.8-2.2-10.1-4.6-24.8-18.1c-17.6-16.2-20-17.9-31.6-21.5
		c-5.1-1.6-9.7-4.6-16.7-10.9c-9.8-8.7-16-12.4-25.6-15.4c-3.7-1.1-8.9-5.3-18.1-14.3c-14.5-14.3-21.2-19-32.9-23.1
		c-7.2-2.5-10-4.8-27.5-21.9c-21.5-21-26.8-25.1-38.4-29.2c-6.4-2.3-10.5-5.3-22.6-16.4c-17.5-16.2-20.1-18-31.4-21.9
		c-8-2.8-10.2-4.5-27.5-21.4c-20.8-20.4-27.6-25.6-37.6-29.1c-9.5-3.3-13.2-6-26.6-19.4c-9.9-9.9-13.5-12.6-22.1-16.5
		c-5.6-2.5-12.1-5.5-14.3-6.7c-7.7-4-20.2-9.9-24.3-11.5c-2.3-0.9-8.2-5.3-13.1-9.9c-7.1-6.5-11.3-9.1-19.9-12.5
		c-8.7-3.4-12.9-6-21-13.2c-7.3-6.6-12.5-9.9-18.8-12.4c-4.8-1.8-12.2-5.4-16.6-7.9c-4.3-2.5-10.9-5.5-14.6-6.7
		c-4.8-1.5-9.5-4.6-16.3-10.9c-8.7-7.9-21.1-15.2-25.9-15.2c-1,0-8.8-6.5-17.4-14.5c-18.5-17.1-21-18.9-32.4-22.8
		c-7.5-2.6-10.2-4.5-20.1-14.3c-14.6-14.5-22.8-20.5-32.9-24.1c-6.7-2.4-10.5-5.2-23.4-17.2c-16.5-15.4-17.7-16.2-30.6-21.1
		c-7.7-2.9-11.2-5.8-38.2-31.6c-29.2-27.8-29.9-28.4-39.8-31.9c-9.1-3.2-11.5-4.9-24.8-17.3c-17.2-16-20-17.9-31.2-21.8
		c-7.3-2.5-10.4-4.8-24.2-17.8c-15.6-14.7-17.8-16.2-32.7-22.4c-5.8-2.4-10.4-5.9-18.7-14.2c-12.7-12.7-21-18.9-28.6-21.1
		c-2.9-0.9-9.3-3.8-14.1-6.6C2227.5,2222.8,2225.5,2222.6,2218.6,2226.4"/>
</g>
<text transform="matrix(1 0 0 1 6701.3623 2363.335)" class="st1 st2">Rosario</text>
<text transform="matrix(1 0 0 1 4257.022 1598.3348)" class="st1 st2">Santa Ana</text>
<text transform="matrix(1 0 0 1 6023.6509 4207.1289)" class="st1 st2">Natumolan</text>
<text transform="matrix(1 0 0 1 3886.4521 1335.9198)" class="st1 st2">Mohon</text>
<text transform="matrix(1 0 0 1 2583.0247 886.6852)" class="st1 st2">Santa Cruz</text>
<text transform="matrix(1 0 0 1 730.3265 1820.9271)" class="st1 st2">Baluarte</text>
<text transform="matrix(1 0 0 1 881.2409 2513.9246)" class="st1 st2">Gracia</text>
<text transform="matrix(1 0 0 1 811.5197 3052.886)" class="st1 st2">Sugbongcogon</text>
<text transform="matrix(1 0 0 1 2179.5852 3821.8374)" class="st1 st2">Casinglot</text>
<text transform="matrix(1 0 0 1 1229.7061 975.4669)" class="st1 st2">Poblacion</text>
<line class="st3" x1="1496.5" y1="1035" x2="1998.1" y2="1846.2"/>
<ellipse class="st4" cx="1550" cy="1681.9" rx="62.1" ry="60.7"/>
<ellipse class="st4" cx="2427.4" cy="2834.7" rx="62.1" ry="60.7"/>
<ellipse class="st4" cx="4818.2" cy="3520.2" rx="62.1" ry="60.7"/>
<ellipse class="st5" cx="2010.8" cy="1929" rx="62.1" ry="60.7"/>
<ellipse class="st4" cx="6023.6" cy="1888.7" rx="62.1" ry="60.7"/>
<ellipse class="st4" cx="2905.1" cy="1659" rx="62.1" ry="60.7"/>
<ellipse class="st4" cx="4677" cy="2363.3" rx="62.1" ry="60.7"/>
<ellipse class="st5" cx="1918" cy="2643.6" rx="62.1" ry="60.7"/>
<text transform="matrix(1 0 0 1 212.6879 355.6208)" class="st1 st6">Tagoloan</text>
<circle class="st5" cx="439.3" cy="4790.4" r="129.8"/>
<circle class="st7" cx="439.3" cy="5153" r="129.8"/>
<circle class="st8" cx="439.3" cy="5515.6" r="129.8"/>
<text transform="matrix(1 0 0 1 652.0389 4815.3296)" class="st9 st1 st10">MULTI-PURPOSE BUILDINGS</text>
<text transform="matrix(1 0 0 1 660.1583 5195.5776)" class="st11 st1 st10">ROADS</text>
<text transform="matrix(1 0 0 1 671.2174 5558.1831)" class="st12 st1 st10">BRIDGES</text>
<text transform="matrix(1 0 0 1 309.5892 4502.7256)" class="st13 st1 st14">PROJECT EXISTENCE INDICATOR</text>
</svg>
