<?xml version="1.0" encoding="utf-8"?>
<svg version="1.1" id="Layer_1" xmlns="http://www.w3.org/2000/svg" xmlns:xlink="http://www.w3.org/1999/xlink" x="0px" y="0px"
	 viewBox="0 0 8192 5786.3" style="enable-background:new 0 0 8192 5786.3;" xml:space="preserve">
<style type="text/css">
	.st0{fill-rule:evenodd;clip-rule:evenodd;fill:#9C14E4;}
	.st1{font-family:'ArialMT';}
	.st2{font-size:188.0408px;}
	.st3{fill:#8703EF;}
	.st4{fill:#4472C4;stroke:#FFFFFF;stroke-width:0.9402;stroke-miterlimit:9.402;}
	.st5{fill:#FF000D;stroke:#FFFFFF;stroke-width:0.9402;stroke-miterlimit:9.402;}
	.st6{fill:#70AD47;stroke:#FFFFFF;stroke-width:0.9402;stroke-miterlimit:9.402;}
	.st7{fill:#EA781B;stroke:#FFFFFF;stroke-width:0.9402;stroke-miterlimit:9.402;}
	.st8{fill:#7030A0;stroke:#FFFFFF;stroke-width:0.9402;stroke-miterlimit:9.402;}
	.st9{fill:#FFFF1A;stroke:#FFFFFF;stroke-width:0.9402;stroke-miterlimit:9.402;}
	.st10{stroke:#FFFFFF;stroke-width:0.9402;stroke-miterlimit:9.402;}
	.st11{fill:#843C0C;stroke:#FFFFFF;stroke-width:0.9402;stroke-miterlimit:9.402;}
	.st12{fill:#FF73D8;stroke:#FFFFFF;stroke-width:0.9402;stroke-miterlimit:9.402;}
	.st13{fill:#B1FFF7;stroke:#0031FF;stroke-width:0.9402;stroke-miterlimit:9.402;}
	.st14{fill:#FFB1BC;stroke:#FFFFFF;stroke-width:0.9402;stroke-miterlimit:9.402;}
	.st15{fill:#F6DB76;stroke:#FFFFFF;stroke-width:0.9402;stroke-miterlimit:9.402;}
	.st16{fill:#A5A5A5;stroke:#FFFFFF;stroke-width:0.9402;stroke-miterlimit:9.402;}
	.st17{fill:#0B0BF9;stroke:#FFFFFF;stroke-width:0.9402;stroke-miterlimit:9.402;}
	.st18{fill:#E9816F;stroke:#FFFFFF;stroke-width:0.9402;stroke-miterlimit:9.402;}
	.st19{fill:#4472C4;}
	.st20{font-size:141.0306px;}
	.st21{fill:#FF0000;}
	.st22{fill:#70AD47;}
	.st23{fill:#F9920B;}
	.st24{fill:#7030A0;}
	.st25{fill:#FFFF03;}
	.st26{fill:none;stroke:#0000FF;stroke-width:0.4701;stroke-miterlimit:9.402;}
	.st27{fill:#843C0C;}
	.st28{fill:#FF73D8;}
	.st29{fill:#B1FFF7;}
	.st30{fill:#FFB1BC;}
	.st31{fill:#F6DB76;}
	.st32{fill:#A5A5A5;}
	.st33{fill:#410EFD;}
	.st34{fill:#E9816F;}
	.st35{font-size:120.8001px;}
	.st36{fill:none;stroke:#000000;stroke-width:19.4839;stroke-miterlimit:9.7419;}
</style>
<g id="Villanueva">
	<g id="Layer_11">
		<path class="st0" d="M5847.3,1458.9c-1.1,0.8-2.9,3.5-4,5.9c-2.8,6-7.2,7.2-21.9,6.1c-6.4-0.5-160.4-0.9-342.1-1
			c-284.9-0.1-330.9,0.1-333.6,1.6c-4,2.3-11.5,10.9-13.1,14.9c-0.8,2-0.8,6.1,0,11.4c0.7,4.6,1.1,12.3,1.1,17.3
			c0,8.1-0.3,9.2-3.1,12c-1.7,1.6-3.8,3-4.4,3c-0.8,0-2.3,1-3.3,2.3c-1.6,1.8-2,5.9-2.2,23c-0.3,21-0.3,21-4.7,23
			c-6.8,3.4-7.1,5.1-6.2,25.6c0.9,20.2,1.2,19.1-7.5,25.1c-4,2.7-4,2.7-4.1,21.8c-0.1,10.4-0.2,20-0.3,21.2
			c-0.1,1.2-2.3,3.3-4.9,4.7c-2.6,1.4-5.2,3.6-5.9,5c-0.8,1.6-0.9,8.5-0.4,20.3c0.8,15.5,0.6,18.1-1.1,21c-1,1.7-2.7,3.2-3.5,3.2
			s-3,1.2-4.8,2.6c-3.2,2.6-3.2,2.6-3,20.6c0.1,10,0.1,19.2,0.1,20.7c-0.1,2-1.6,3.6-4.8,5.3c-6.9,3.7-7.2,5.2-6.3,24
			c0.4,9,0.4,17.9,0,19.7c-0.6,2.2-2.4,4-5.4,5.7c-7,3.8-7.3,5.4-6.4,24.7c0.4,9.3,0.6,18.1,0,19.7c-0.4,1.4-2.8,3.8-5.4,5.1
			c-7,3.8-7.3,5.3-6.4,25.9c0.9,20.2,1.2,19.1-7.5,25c-2.8,1.8-4.2,3.9-4.9,6.8c-0.4,2.3-0.8,34.1-0.8,70.7
			c0.1,66.7,0.1,66.7-4.1,68.9c-2.4,1.2-4.9,3.5-5.6,5c-0.9,2-1.2,14.9-1,45.3c0.2,23.5,0.2,43.2,0.1,44.2c-0.1,0.8-2.4,2.7-5.2,4.1
			c-2.8,1.4-5.4,3.3-5.9,4c-0.6,0.8-0.8,21.5-0.7,46.4c0.2,42,0.1,45-1.9,46.3c-9.6,6-9.4,5.5-9.6,16.2c-0.1,5.4-0.4,13.4-0.7,17.9
			c-0.3,8-0.3,8,6,15.6c3.5,4.1,7.8,8.3,9.5,9c2,0.9,9.3,1.2,19.7,1c16.5-0.4,16.5-0.4,19.5,3.3c8.2,10.4,5.3,9.5,25.5,9
			c18.1-0.4,18.1-0.4,23.8,6.2c5.8,6.6,5.8,6.6,14.9,5.8c11.8-1,15.4,0.1,19.2,6c1.7,2.5,3.9,5.3,5.2,6c1.3,0.8,9.2,1.2,19.7,1
			c17.5-0.2,17.5-0.2,23,6.1c5.5,6.3,5.5,6.3,23.3,5.9c17.7-0.4,17.7-0.4,20.5,3.3c7.4,10,5.5,9.2,26.2,9.2c18.7,0,18.7,0,22,4.9
			c4.2,6.5,7.1,7.4,19.9,7.1c10.8-0.3,10.9-0.2,13.8,3.5c8,10.2,5.3,9.2,25.7,9.2c18.4,0,18.4,0,24,6.3c5.5,6.3,5.5,6.3,23.2,5.9
			c17.8-0.4,17.7-0.4,20.6,3.3c7.7,9.8,6.5,9.2,19.7,8.9c12.1-0.3,12.1-0.3,18,6.4c5.8,6.7,5.8,6.7,21.5,5.8
			c18.1-0.9,20.9-0.3,24.4,6c1.3,2.4,3.4,5,4.8,5.7c1.3,0.8,9.6,1.2,19.9,1.2c17.6-0.1,17.6-0.1,23.2,6.2c5.5,6.3,5.5,6.3,16.6,5.4
			c12.4-1,10.7-1.8,20.5,9.8c2.8,3.4,2.8,3.4,20.7,3c18-0.3,18-0.3,23.7,6.3c5.8,6.6,5.8,6.6,22.3,5.9c18.5-0.8,20.7-0.3,24,6.1
			c1.2,2.4,3.3,4.9,4.5,5.7c1.6,0.8,8.9,1.2,19.9,1.1c17.5-0.3,17.5-0.3,22.4,5.7c4.9,5.9,4.9,5.9,15.3,5.5
			c12.4-0.4,15.9,0.8,19.1,6.3c3.5,6.3,7.1,7.3,23.3,6.7c17.9-0.8,19.4-0.4,23.1,5.3c4.7,7.1,7.1,7.7,25.3,6.7
			c17.4-1,15.1-1.8,25.1,10.2c2.2,2.6,3.1,2.7,14.5,2.4c12.2-0.3,12.2-0.3,18.1,6.3c5.8,6.7,5.8,6.7,22.9,5.8
			c19-0.9,16.5-1.8,26.1,9.6c2.8,3.3,2.8,3.3,21.3,3.3c18.5,0,18.5,0,21.7,4.9c4.7,7.1,7.1,7.7,26,7.2c18.2-0.4,17.5-0.8,23.5,8.8
			c1.9,2.9,2.4,3,15.1,3.2c13.2,0.1,13.2,0.1,16.5,4.2c1.9,2.4,3.3,4.6,3.3,5c0,2.6,7.9,3.8,23.3,3.4c16.5-0.4,16.5-0.4,19.3,3.3
			c7.5,10.2,5.6,9.5,25.8,9c18.2-0.4,18.2-0.4,21,3.4c7.8,10.4,4.1,9.6,37.5,9c33.1-0.5,29.9-1.2,36.6,8.8c3,4.5,10.7,5.1,62.1,4.7
			c48.7-0.4,48.7-0.4,52.9,4.8c2.7,3.3,5.8,5.7,8.5,6.5c5.7,1.6,69.3,1.6,79.5,0c9.6-1.5,13.1-0.4,16.8,5.5c1.4,2.4,3.9,4.9,5.4,5.5
			c3.8,1.8,68.6,3,80.5,1.5c12.5-1.6,15.1-0.9,19,4.8c1.7,2.5,4.2,5.3,5.6,5.9c3.9,2,64.8,3,86.2,1.6c20.7-1.4,22.3-1,25.7,5.9
			c3.3,6.8,3.2,6.7,54.2,6.9c47.1,0.1,47.1,0.1,51.6,5.5c4.4,5.4,4.4,5.4,15.3,6.2c18.1,1.3,60.3,1.1,71.3-0.3
			c11.5-1.5,14.9-0.4,17.6,5.9c2.9,6.8,3.5,6.9,60.7,6.5c49.6-0.3,52.7-0.2,53.8,1.8c0.7,1.2,2.6,3.9,4.2,5.9
			c3.1,3.7,3.1,3.7,19.5,4c10.1,0.3,16.9-0.1,17.9-0.8c2.6-2.3,1.6-4.9-3.9-10.2c-5.3-5.2-5.3-5.2-5-17.3c0.3-11.4,0.2-12.1-2.4-14
			c-9.4-7.1-9-6-9-21.2c0-13-0.1-13.9-2.7-15.9c-9.2-6.9-8.7-5.8-8.5-20.9c0.2-15.1,1.1-13.1-9.2-21.2c-2.8-2.2-2.9-2.9-3-14.4
			c-0.1-14.8-0.8-16.7-5.9-20.2c-5.6-3.7-6.5-6.9-5.6-19.7c0.8-11.8,0.7-12.4-8.4-19.2c-3.4-2.5-3.4-2.7-3.5-14.9
			c0-14.8-0.7-16.8-5.9-20.1c-5.5-3.4-6.4-6.9-5.6-19.7c0.7-9.9,0.6-11.1-1.9-14.1c-1.4-1.8-3.2-3.4-4-3.4c-0.8,0-2.4-1.1-3.8-2.6
			c-1.9-2.3-2.2-4.6-2.2-16.2c0-12.8-0.2-13.7-2.7-15.5c-9.4-7.1-9-6.1-8.6-20.4c0.4-14.3,0.8-13.4-8.5-21.1
			c-3.5-2.9-3.5-2.9-3.5-15.6c0-7.1-0.6-13.7-1.1-14.9c-0.7-1.1-3-3.4-5.2-5c-5.1-3.7-6.2-8-4.7-18.3c1.4-10.2,0.3-13.6-5.9-17.8
			c-2.6-1.7-5.3-4.6-5.9-6.3c-0.7-1.7-1-8.5-0.8-14.9c0.3-11.7,0.3-11.8-3.1-14.3c-8.9-6.9-8.3-5.5-8-19.2
			c0.2-6.9-0.2-13.5-0.8-14.8c-0.7-1.2-3-3.5-5.2-4.9c-4.3-2.8-6.5-7.8-6.5-14.9c0-3.9-0.8-5.3-5.5-9.5c-5.5-4.9-5.5-4.9-5.3-18.1
			c0.2-14.4,0.1-14.7-8.6-21.2c-3.4-2.6-3.4-2.6-3.2-14.2c0.3-13.6-0.7-16.7-6.2-20.5c-5.6-3.8-6.7-7.4-5.7-19.4
			c0.9-11.5,0-14.3-5.5-17.4c-5.3-2.9-7.2-8.8-6.2-19.7c0.9-10.3-0.3-13.7-6.4-18.1c-4.9-3.5-6.1-8.1-4.7-18.5
			c1.2-9.5-0.2-13.9-6-17.8c-5.9-3.9-7.2-7.6-6.4-18.6c0.8-10.9-0.4-15-5.8-18.7c-5.6-3.9-6.5-7.2-5.6-20c0.8-11.8,1.1-11.2-8.3-19
			c-3.4-2.8-3.5-3-3.5-15c0-14.7-0.7-16.7-5.9-20c-5.5-3.5-6.4-6.8-5.6-19.7c0.8-12,1.1-11.3-8.4-19.2c-3.5-2.8-3.5-2.9-3.2-14.4
			c0.3-13.5-0.7-16.6-6.2-20.5c-5.5-3.8-6.4-7.1-5.6-19.9c0.8-12,1.1-11.3-8.4-19.2c-3.5-2.9-3.5-2.9-3.5-15.6
			c0-7.1-0.6-13.7-1.1-14.9c-0.7-1.1-3-3.4-5.2-5c-5-3.6-6.2-8.6-4.7-18.3c1.4-8.8-0.1-13.8-5.4-17.3c-5.1-3.3-6.1-5.4-7.1-14
			c-0.8-6.3-1.2-7.4-5.9-11.4c-4.3-3.8-5.1-5.1-5.1-8.8c0-8-2.2-13.5-6-15.6c-4-2.3-6.9-8.3-6.9-14.9c0-3.9-0.8-5.4-5.3-9.7
			c-4.8-4.7-5.3-5.5-5.3-10.9c0-7.5-1.6-10.6-7.1-14.8c-4.1-3-4.5-3.9-5.3-10.4c-1-10.1-1.2-10.4-6.4-14.2c-4-2.9-4.7-3.9-4.7-8
			c0-8.4-2.1-13.5-6.3-16.2c-4.1-2.5-6.4-8.1-6.4-15.4c0-2.6-1.3-4.9-5.3-8.6c-4.8-4.7-5.3-5.5-5.3-10.9c0-7.4-1.6-10.8-6.4-14.3
			c-4.3-3.2-6.4-8-6.4-14.8c0-3.6-0.9-5.3-5.3-9.5c-4.2-4.1-5.3-5.9-5.3-9.3c0-7.6-2.1-12.8-5.9-15.2c-4.1-2.6-7-8.6-7-15
			c0-3.9-0.8-5.4-5.4-9.8c-4.9-4.8-5.5-5.9-6-11.8c-0.3-3.7-1.3-7.5-2.4-8.7c-1.7-2.1-21.9-2.2-356.5-2.2
			C5920.5,1457.3,5848.8,1457.6,5847.3,1458.9"/>
	</g>
	<g id="Layer_10">
		<path class="st0" d="M4373.6,1472.7c-1.6,1.6-2.9,3.9-2.9,4.8c0,4.8-0.7,4.8-92.2,4.6c-88.8-0.2-88.8-0.2-92,4.2
			c-1.9,2.4-5,5.5-7.1,6.9c-2.1,1.4-5.2,5-6.9,7.9c-3,5.5-3,5.5-10,5.5s-7,0-21.2,14.4c-7.9,7.9-15.1,16.2-16.3,18.4
			c-1.9,3.8-2.4,3.9-9.5,4.5c-7.3,0.5-7.7,0.6-15.5,8.4c-4.3,4.2-8.9,9.6-10,11.6c-2.3,4.5-4.4,5.5-12.1,5.7
			c-5.8,0.1-5.9,0.2-18.1,12.7c-6.8,6.9-15,15.9-18.4,19.7c-5.5,6.4-6.1,7.7-6.1,12.9c-0.1,8-1,9.9-6.3,13c-2.4,1.5-5.8,4.7-7.1,7.1
			c-4.9,8-5.7,8.6-13.3,8.6c-7.2,0-11.8,2.5-11.8,6.7c0,3-5.1,5.7-9,4.9c-5.8-1.2-11.8,1.5-13.6,6.3c-2.4,6.2-5.3,7.2-17.9,6.3
			c-12.5-0.9-14.9-0.1-17.4,6.2c-2,4.9-5.1,6.5-11,5.8c-6-0.8-10.2,1.4-12.1,6.3c-0.9,2.4-2.6,4.8-3.9,5.5c-1.3,0.8-12.3,1-30.7,0.5
			c-21-0.5-29.4-0.3-31.3,0.8c-1.4,0.8-3.7,3.7-5,6.3c-3,6.2-5.1,6.7-21.4,5.5c-19-1.3-19.7-1.2-21.3,1.2c-0.8,1.2-1.6,4.6-1.6,7.5
			c0,4.2,0.6,5.7,3.1,7.5c1.7,1.2,4.7,3.8,6.5,5.7c3.4,3.4,3.4,3.6,2.7,12.5c-1.1,13.3-0.1,17.6,5.3,21.2c6.1,4.2,7.3,8.1,6.4,20
			c-1,11.8-0.3,13.5,9.1,22.1c7.8,7.1,9.2,7.6,20.1,6.4c7.7-0.8,8.3-1.1,12.2-6.1c4.2-5.2,4.2-5.2,66.1-5.3c61.9,0,61.9,0,64.6,4
			c5.5,8.5,2.1,8,63.4,8c30.6,0,59.3-0.3,64-0.6c9.4-0.8,8-1.5,16.2,9.6c2.4,3.5,2.4,3.5,68.4,3.6c65.8,0.1,65.8,0.1,68.9,4.9
			c1.7,2.6,4.3,5.3,5.8,5.9c3.9,1.6,104.4,2.5,115.6,1c12-1.6,14.6-0.9,18.7,5.2c1.9,2.7,4.3,5.5,5.5,6.3c2.4,1.5,61.3,2,66.2,0.5
			c2-0.6,5.4-3.4,7.7-6.2c3.9-4.7,4.9-5.2,11.8-6.2c7-0.9,7.9-1.5,12.2-6.6c4.4-5.4,4.9-5.5,11.3-5.5c6.4,0,6.8-0.2,11.1-5.5
			c4.1-5.2,5.1-5.7,11.9-6.7c8.4-1.2,13.4-5,23.6-17.2c5.7-6.9,6.2-7.2,12.8-8c6.1-0.8,7.2-1.3,11.5-6.3c4.3-5.2,5.1-5.5,10.7-5.5
			c5.4,0,6.5-0.5,12.1-5.7c3.4-3.2,8.9-8.6,12.2-12.3c5.6-6.3,6.4-6.7,11.6-6.7c5.1,0,5.9-0.4,10.5-5.8c4.5-5.3,5.6-5.8,12.3-6.8
			c6.7-0.9,7.8-1.5,11.5-6c3.4-4.1,4.9-5,8.5-5c7.1,0,11.3-2.7,22.4-14.7c9.8-10.3,10.9-11.2,15.2-11.3c7.2-0.1,9.8-1.2,12.3-5.5
			c2.4-4.1,7.3-6.7,12.8-6.7c4.4,0,8.9-3.4,19.4-14.4c8.9-9.5,9.6-9.9,15.8-10.6c5.7-0.8,7-1.4,11.3-6.3c4.3-5.1,5.4-5.5,10.2-5.5
			c6.9,0,10.2-1.7,12.8-6.2c2.3-4.1,6.2-6.1,12.2-6.1c5.7,0,10.5-3.5,20.2-14.4c7.9-9,8.4-9.3,14.9-10.2c5.9-0.8,7.2-1.6,10.9-5.8
			c3.7-4.2,4.9-5,10.8-5.7c6-0.8,7.5-1.6,14.7-8.1c4.3-4,9.6-9.5,11.6-12.1c3.4-4.5,4.1-4.8,10.9-5.3c6-0.5,7.5-1,9.1-3.5
			c4.4-7.1,5.5-7.7,13.1-8.7c6.9-0.8,7.9-1.3,11.8-6.1c3.9-4.7,4.9-5.2,11.2-6c6.4-0.8,7.7-1.5,14.9-8.3c4.2-4,9.1-9.5,10.7-12
			c2.8-4.3,3.2-4.6,9.4-4.6c6.9,0,6.5,0.2,15.6-10.8c1.9-2.3,3.5-2.7,8.3-2.7c5.5,0,6.5-0.5,13.1-6.5c3.9-3.6,9.3-8.8,12.2-11.7
			c4.5-4.6,5.9-5.2,11.3-5.5c7.1-0.4,8.8-3.3,3.9-6.6c-2.6-1.8-3.8-1.8-9.1-0.5c-7,1.8-21.1,2-143.6,1.4
			c-82.5-0.3-82.5-0.3-85.2-5.1c-1.4-2.6-3.9-5.4-5.4-6.2c-2.1-1-66.7-1.3-228.8-1.3C4376.6,1469.7,4376.6,1469.7,4373.6,1472.7"/>
	</g>
	<g id="Layer_9">
		<path class="st0" d="M5106.2,1480c-0.3,0.9-0.6,2.2-0.4,2.7c0.6,2.8-0.2,6.4-1.8,8.6c-1.2,1.8-3.5,2.5-9.6,3c-8,0.6-8,0.6-9.8,5.8
			c-1,2.8-2.2,5.5-2.7,6.1c-0.6,0.5-4.2,1-8.5,1c-7.4,0.1-7.7,0.2-12.9,5.9c-2.9,3.2-5.8,5.8-6.4,5.8c-0.6,0-3,2.7-5.3,6.2
			c-4.2,6.2-4.2,6.2-11.1,6.2c-7.4,0-9.2,1.1-13,8.5c-1.9,3.6-2.4,3.9-8.2,3.9c-3.4,0-7.1,0.5-8.1,0.9c-2.3,1-17,15.9-20.4,20.6
			c-2.1,2.9-3.4,3.6-10.4,4.1c-8.1,0.8-8.1,0.8-10.8,6s-2.7,5.3-9.8,5.3c-8.3,0-10.9,1.2-13.4,6.5c-2.6,5.2-3.5,5.8-10.2,5.8
			c-3.1,0-6.7,0.6-7.9,1.3c-2.8,1.6-16.2,15.8-19,20.1c-1.8,2.7-3,3.3-7.5,3.4c-8.7,0.2-11.1,1.3-14.1,7.1c-2.7,5.2-2.7,5.2-9.8,5.2
			c-7,0-7.1,0.1-15.1,7.6c-4.4,4.1-9.4,9.8-11,12.3c-2.9,4.6-3.1,4.7-10,4.7c-7.4,0-9,1-14.3,9.1c-1.8,2.7-3,3.3-7.8,3.3
			c-8.1,0-11.3,1.6-13.6,7.1c-2.1,4.6-2.2,4.7-9.9,5.3c-7.8,0.6-7.8,0.6-16.4,9.3c-4.8,4.8-9.5,10.2-10.7,12
			c-1.9,2.8-2.9,3.3-8.5,3.3c-8,0-10.3,1.3-13.3,7.3c-2.3,4.7-2.4,4.8-9.9,5.3c-7.2,0.5-7.8,0.8-14.9,7.7c-4,3.9-8.8,9.3-10.7,12
			c-3,4.3-3.8,4.8-9,4.8c-8.2,0-11.3,1.6-14.1,7.3c-2.4,5.2-3.4,5.5-11.9,5.1c-5.5-0.3-8.6,1.5-11.1,6.4c-2.4,5.2-3.5,5.8-9.4,5.8
			c-2.7,0-6.1,0.5-7.5,1.1c-3,1.2-16.6,15.1-20,20.3c-1.8,2.7-2.9,3.3-7.8,3.3c-8.1,0-11.3,1.6-14,7.3c-2.4,5-2.4,5-9.3,5
			c-6.9,0-7.1,0.1-15.6,8.1c-4.8,4.5-9.9,10-11.1,12.3c-2.3,4-2.6,4.2-9.4,4.2c-7.5,0-7.8,0.2-14.6,9.2c-2.4,3.3-3.4,3.7-8.3,3.5
			c-7.3-0.3-10.5,1.2-13,6c-2.6,5.4-3.5,5.9-10.8,5.9c-7.8,0-10.2,1.3-13.1,7.3c-1.2,2.6-3,5-3.9,5.3c-0.8,0.3-18,0.5-37.9,0.4
			c-39.6-0.1-38,0.1-42.5-7.5c-2.4-4.1-9-7.5-12.3-6.3c-0.9,0.4-28.9,0.8-62.1,0.8c-60.4,0.1-60.4,0.1-63-3.4
			c-7.1-9.5,1-8.6-71.5-8.1c-64.8,0.4-64.8,0.4-71-6.7c-6.2-7.1-6.2-7.1-71.4-7.2c-65.1-0.1-65.1-0.1-68.4-5
			c-1.8-2.6-4.7-5.4-6.4-6.1c-2.1-0.8-23.4-1-59.8-0.6c-62.6,0.8-56.5-0.3-62.7,10.6c-1,1.8-2.7,2.4-8.2,2.3c-3.9,0-9.3-0.5-12.2-1
			c-4.3-0.8-5.7-0.6-7.2,1.1c-2.6,2.7-2.4,3.9,0.7,6.5c9.5,7.9,8.9,5.1,9,40.9c0.1,32.3,0.1,32.3-3.5,34.4c-10.1,5.8-9.4,3.8-8.8,32
			c0.4,15.6,0.2,26.2-0.6,27.5c-0.7,1.2-2.9,3-5.1,4c-6.5,2.9-7,4.7-6.1,31.3c0.6,15.5,0.3,24.7-0.4,26.2c-0.7,1.3-3,3.2-5.3,4.1
			c-2.3,1-4.5,3-5.1,4.6c-0.6,1.5-0.8,18.6-0.6,38s0.2,36.4-0.2,37.9c-0.4,1.6-2.6,3.8-5.3,5.3c-7,3.8-7.3,5.3-6.4,25.2
			c0.6,11.6,0.4,18.4-0.4,20c-0.8,1.3-3.3,3.5-5.9,4.7c-3.5,1.6-5.4,3.7-7.1,7.6c-3.1,6.7-3.7,7.1-11,6.9c-3.7-0.1-7.1,0.6-8.7,1.7
			c-2.8,2-2.8,2-2.4,26.7c0.2,13.6,0.2,25.5,0.1,26.3c-0.1,0.8-2.2,2.6-4.7,3.9c-5.4,2.8-6,4.2-6,13.1c0,7.2-1.2,9.2-8,13.1
			c-3.5,2.1-3.8,2.4-3.8,9.7c0,6.9-0.3,7.8-3.7,11c-4.8,4.5-7.3,7.2-14.9,15.3c-6.1,6.8-6.1,6.8-5.8,14.4c0.2,4.2-0.2,7.8-0.8,8
			c-0.7,0.2-3,1.4-5.3,2.5c-3.9,2.1-4.1,2.6-4.7,9.1c-0.7,7.1-4.2,13.4-7.5,13.4c-0.8,0-2.4,1.1-3.5,2.5c-1.7,2-1.9,3-0.9,4.6
			c1,1.8,3.7,2.2,18.6,2.2c19.3,0.1,16.9,1,26.1-10.2c2.3-2.7,2.6-2.7,19.9-2c17.6,0.8,17.6,0.8,23.1-5.5c5.5-6.4,5.5-6.4,23.6-6.3
			c18.1,0,18.1,0,23.5-6.5c5.5-6.5,5.5-6.5,18-6.5c13.6,0,11.8,0.9,19.7-9.2c2.1-2.7,2.7-2.7,15.9-2.2c19.2,0.9,22.9,0,28.5-7.1
			c4.5-5.7,4.5-5.7,22.7-5.7c18.1,0,18.1,0,23.5-6.2c5.4-6.2,5.4-6.2,22-6.2c9.1,0,18-0.5,19.6-1.2s4-3.2,5.4-5.5
			c3-5.4,7.1-6.9,19.5-6.9c11.2,0,13.4,0.8,19.1,7.6c3.7,4.3,4.9,5,11.4,5.8c6.5,0.8,7.8,1.4,11.8,5.9s5.2,5.1,11.8,5.9
			c6.9,0.8,7.7,1.2,10.4,5.5c3.9,5.8,6.9,7.3,13.9,7.3c5,0,5.8,0.5,10.9,6.2c5.5,6.2,5.5,6.2,15.2,5.4c11.8-1,15.3,0.2,18.6,6.1
			c2.6,4.7,7.1,6.9,14.1,6.9c3.9,0,5.3,0.8,9.5,5.7c4.7,5.3,5.5,5.7,12.3,6.3c7,0.8,7.5,1,10.2,5.4c3.2,5.2,7.5,7.3,14.9,7.3
			c4.1,0,5.4,0.8,10.2,6.3c5.5,6.3,5.5,6.3,15.2,5.5c11.6-1,15.1,0.1,18.7,6.1c3,4.9,7.1,6.8,14.2,6.8c4.1,0,5.4,0.8,9.4,5.4
			c4.2,4.9,5.4,5.5,11.8,6.3c5.6,0.8,7.5,1.6,10.2,4.6c1.8,2.1,3.3,4.1,3.3,4.7c0,1.6,7,3.7,12.1,3.7c4.3,0,5.3,0.6,10.2,6.5
			c5.4,6.5,5.4,6.5,22.2,6.5c23.3,0.1,28.2-0.9,32.2-6.6c1.8-2.5,3.8-4.9,4.3-5.4c0.7-0.5,11.4-0.5,24-0.1
			c12.5,0.4,25.9,0.3,29.7-0.2c7.1-0.9,7.8-1.4,15.1-10.6c1.8-2.2,3.4-2.3,26.1-1.6c32.6,0.9,34.6,0.5,41.3-6.9
			c5.3-5.9,5.3-5.9,31.4-5.5c14.4,0.2,28-0.1,30.3-0.6c2.9-0.8,5.6-2.7,8.7-6.6c4.5-5.5,4.5-5.5,29.3-4.8c30.7,1,34.9,0.2,41-7.6
			c4.1-5.4,4.1-5.4,30.2-4.7c30.5,0.8,34.2,0.1,39-6.8c1.8-2.5,3.8-5.1,4.4-5.5c0.7-0.5,8.5-0.9,17.5-0.8c9,0.2,22.4,0.2,29.6,0.1
			c13.4-0.2,13.4-0.2,18.6-6.4c5.4-6.2,5.4-6.2,35-6.2c29.6,0,29.6,0,35-6.2c5.4-6.2,5.4-6.2,31.1-5.4c30.4,0.9,32.6,0.5,39.9-8
			c4.9-5.7,4.9-5.7,17-5.4c17.1,0.5,16.8,0.9,16.3-23.7c-0.4-18.7-0.4-18.7,4.9-23.3c8.1-7.1,8.2-7.8,7.4-53.9
			c-0.8-40.1-0.8-40.1,5.4-45.8c6.1-5.8,6.1-5.8,6.1-49.7s0-43.9,5.8-49.3c5.8-5.4,5.8-5.4,5.9-74c0.1-68.6,0.1-68.6,6.3-74.7
			c6.2-6.1,6.2-6.1,5.6-24.3c-0.7-18.1-0.7-18.1,5.1-24s5.7-5.8,5.7-24.6s0-18.8,4.1-22.9c2.3-2.3,4.5-4.1,5.2-4.1
			c2.4,0,3.4-8.3,2.7-24.4c-0.8-17-0.8-17,5.3-22.3s6-5.3,6-24.6c0-19.2,0-19.2,6.1-25.2s6.1-6,5.7-24.6
			c-0.4-18.6-0.4-18.6,5.6-24.4c5.9-5.8,5.9-5.8,5.9-24.7c0-18.9,0-18.9,4.1-23c2.3-2.3,4.5-4.1,5.2-4.1c2.4,0,3.2-7.9,2.7-24
			c-0.7-17.1-0.7-17.1,5.6-23c6.2-6,6.2-6,5.5-23.4c-0.4-9.6-0.2-18.7,0.3-20.2c0.7-1.6,3.2-4.1,5.8-5.7c2.6-1.5,5-3.9,5.3-5.4
			c0.3-1.4,0.8-10,1-19.1c0.6-16.5,0.6-16.5-3-20C5108.5,1477.9,5107.1,1477.5,5106.2,1480"/>
	</g>
	<g id="Layer_8">
		<path class="st0" d="M4020.9,2295.7c-7.8,0.8-8.3,0.9-10.8,5c-5.6,9.2-4.3,8.8-24.7,7.9c-20.3-0.9-20-1-23.7,7.4
			c-2.2,5-5.4,5.5-23.1,4.1c-17.5-1.4-19.4-0.8-23.4,7.5c-1.4,2.9-3.4,5.1-5.3,5.5c-1.7,0.4-10.2,0.4-19.3,0
			c-18.1-0.9-19-0.6-21.9,6.7c-2.2,5.5-5.9,6.8-18.2,5.8c-8.5-0.8-10.8-0.5-13.2,1.1c-1.6,1.1-2.9,2.7-2.9,3.7s-1.3,3.2-2.9,5
			c-2.9,3.4-2.9,3.4-21.3,2.5c-20.3-0.9-20-1-23.8,7.4c-2.1,4.8-4.7,5.2-22.8,4c-8.4-0.5-15.5-0.4-17.2,0.2c-1.6,0.6-4.2,3.7-6,6.8
			c-1.8,3-3.8,5.7-4.4,5.9c-0.8,0.1-9.8,0.3-20,0.3c-18.6,0.1-18.6,0.1-21.6,5.5c-3.1,5.5-3.1,5.5-10.7,6.2c-7.1,0.6-8,1-14.9,7.3
			c-7.2,6.7-7.2,6.7-7.2,13.9c0,6.4-0.4,7.6-3.2,10.2c-1.8,1.6-20.3,21-41.1,42.8c-37.9,39.8-37.9,39.8-38.5,54.3
			c-0.6,13.5-0.8,14.8-3.3,17c-2,1.7-4.5,2.4-9.5,2.4c-9.6,0-10.7,1.8-9.8,16.8c0.8,11.4,0.8,11.4-3.1,14.9
			c-3.9,3.6-8.7,8.4-16.5,17.1c-4.1,4.6-4.5,5.5-4.7,11.7c0,10-1.6,11.7-11.2,12.7c-8.2,0.9-13.3,3.3-13.3,6.2
			c0,0.9-0.9,2.9-2.2,4.5c-1.8,2.4-3.2,2.7-8.4,2.6c-9-0.2-10.4,1-10.5,8.7c-0.1,8.6-0.9,10.3-6.3,13.6c-4.1,2.4-6.4,5.2-10.7,12.7
			c-1.1,2.2-3,2.4-19.9,2.4c-10.2,0.1-19.7-0.3-21.2-0.9c-1.4-0.5-3.9-2.9-5.3-5.3c-3.2-5.3-6.4-6.9-13.3-6.9c-5.4,0-6.3-0.6-13-9
			c-2.6-3.3-2.6-3.3-36.4-3.3c-18.6,0-34.7,0.3-35.7,0.8c-1,0.4-2.9,2.9-4.1,5.5c-1.2,2.6-3.2,5.2-4.3,5.8c-1.1,0.7-13.3,1-27,0.9
			c-24.8-0.2-24.8-0.2-30.5-6.6c-5.6-6.4-5.6-6.4-22.8-6.4c-17.2,0-17.2,0-19.2,3.9c-4,8-6.5,9.7-14.3,9.7c-7.1,0-7.1,0-19.3-13
			c-13.8-14.7-17.9-16.7-22.8-11.6c-2.4,2.5-2.4,3.5-1.8,10.2c1.9,15.4,1,19.1-5.1,22.8c-5.3,3.2-6,4.6-6,12
			c0,7.8-1.7,11.4-6.3,13.4c-6,2.6-6.9,5.4-5.9,18c1,14.1,0.6,16.4-4.7,18.3c-6,2.4-7.7,4.6-7.7,10.8c0,5.7,0.7,6.6,8.7,13.4
			c3,2.4,3.5,3.9,3.9,10.3c0.7,9.8,2.4,10.4,8.8,3.4c5.6-6.2,5.3-6.2,23.6-4.9c15.4,1,16.5,0.5,18.1-9.3c1-6.8,1.3-7.2,16.5-23
			c15.4-16.3,15.4-16.3,34.4-16.3c22.7,0,24.3,0.8,25.6,11.3c0.4,3.6,1.3,7.4,2,8.7c1.4,2.9,19.5,21.9,20.9,21.9
			c2,0,3.9,7.5,3.2,12.5c-0.8,5.5-4,10-9,12.2c-2,0.9-4.2,3.7-6,7.2c-2.8,5.8-2.8,5.8-10.5,6.5c-7.5,0.8-7.9,0.8-16.6,9.2
			c-5,4.7-9.2,9.9-9.6,11.4c-0.8,3.7-4.7,5.2-10.5,4.2c-4-0.6-5-0.2-7.1,2.6c-2.3,3-2.4,4.3-1.8,19.1c0.4,8.7,0.3,17.2,0,18.8
			c-0.4,1.6-2.3,3.9-4.2,5.2c-3.8,2.4-31.9,31.9-35.5,37.2c-1.8,2.6-3,3.2-7.8,3.2c-8.1,0-11.3,1.6-13.6,7.1c-1.4,3.4-2.9,4.8-5,5
			c-12,1.3-13.1,1.7-19.2,7.5c-3.4,3.2-8.9,8.1-12.2,11.1c-8.1,7.1-8,9.6,0.6,10.6c6.4,0.8,6.9,1.1,17.9,13
			c10.5,11.4,11.6,12.2,17.1,12.9c8.2,1.1,10.7,2.4,12.8,6.6c2.1,4.1,3.1,4.8,11.5,5.9c5.8,0.8,6.8,1.5,16.5,11.8
			c11.2,11.8,13.4,13.3,20.7,13.3c3.5,0,5.4,0.8,7.5,3.3c1.6,1.8,2.9,3.7,2.9,4s3.7,4.2,8.2,8.6c7.2,6.8,8.8,7.8,14.3,8.5
			c5.9,0.8,6.7,1.3,16.6,11.8c11.4,12,13.4,13.3,20.9,13.3c4.2,0,5.4,0.6,9,5c3.7,4.5,5.1,5.3,12.2,6.8c6.5,1.4,8.6,2.4,10.4,5.2
			c3,4.5,13.3,14.8,17.6,17.7c2.1,1.3,5.6,2.4,8.5,2.4c4,0,5.5,0.8,7.5,3.4c1.4,1.8,6,6.9,10.2,11.1c7.7,7.7,12.2,10.2,19.5,10.2
			c2.9,0,4.5,1.1,8,5.5c3.9,5,4.9,5.5,9.2,5.5c6.4,0.1,10.7,2.2,13.9,6.8s14.5,15.5,18.1,17.6c1.4,0.8,4.1,1.4,6.1,1.4
			c5,0,8.6,2.1,11.3,6.3c3,4.8,14.7,15.5,18.6,17.2c1.7,0.8,4.8,1.2,6.9,1.3c3.1,0,5.4,1.8,14.2,11.2c11.3,12,13.4,13.4,20.5,13.4
			c3.9,0,5.4,0.8,9.5,5.4c4.2,4.6,6,5.5,11.4,6.3c6,0.9,7,1.5,15.9,11.1c10.2,11,15.4,14.2,22.1,14.2c5.7,0,8.2,1.5,10,6.2
			c1.8,4.6,5.1,6.1,13,6.1c4,0,6.3,0.6,7.4,2.2c0.9,1.2,2.6,3.5,3.9,5c1.6,2.1,4,3.2,9.8,4c7.1,1.1,8,1.7,12.5,7.1
			c4.9,5.8,4.9,5.8,17.3,5.8s12.4,0,17.5,6.2c5.1,6.2,5.1,6.2,17,5.8c11.9-0.3,11.9-0.3,17.4,5.7c5,5.5,5.9,6.1,12.4,6.9
			s7.3,1.2,11.8,6.6c4.9,5.8,4.9,5.8,17.3,5.8s12.4,0,17.5,6.2c5.1,6.2,5.1,6.2,17,5.8c11.9-0.4,11.9-0.4,17.1,5.5
			c4.7,5.3,5.8,5.9,12.4,6.9c6.8,1,7.7,1.5,12.9,7.4c5.5,6.3,5.5,6.3,14.9,5.5c11.4-0.9,14.4,0.1,20,6.9c4.2,5.2,4.2,5.2,16.8,5.2
			c12.5,0,12.5,0,17.4,5.7c4.4,5.3,5.4,5.8,11.8,6.4s7.2,1.1,12.3,6.9c6,6.8,7.8,7.3,16.9,4.8c6.8-2,11.6,0.2,15.4,6.6
			c2.8,4.7,5.3,5.8,8.5,3.7c1.8-1.2,2.4-28.5,2.9-112.8c0.2-50.7,0.3-52.8,2.4-54.5c2-1.5,24.8-1.7,154.4-1.7
			c143.4,0,152.2-0.1,153.8-2.2c4.2-5.1,4.5-7.3,3.2-19.8c-1.7-15.2-0.6-20.9,5.4-25.7c2.3-1.8,4.9-4.8,5.7-6.5
			c2.3-4.5,3.5-45.4,2-60.4c-1.6-14.1-1-16.5,4-19.8c2.2-1.4,4.7-3.8,5.4-5.3c1-2.1,1.4-15,1.4-51.8c0-49.2,0-49.2,4.9-53.7
			c2.7-2.4,5.5-6.1,6.2-8.1c0.9-2.6,1.2-24.8,1-76.4c-0.2-68.9-0.2-72.8,1.9-74c5.1-3.2,7.8-6.6,8.8-11.2c0.7-2.9,1-31.5,0.8-69.5
			c-0.3-64.5-0.3-64.5,4.8-69c3.5-3.2,5.3-5.9,6.1-9.5c1.2-5.7,1.7-120.9,0.6-135.8c-0.8-10-0.8-10,4.5-14.7
			c3.1-2.6,5.9-6.4,6.7-8.7c0.8-2.7,1.1-13,0.8-30c-0.6-29.1-0.3-28-10.7-38.2c-4.9-4.8-5.8-5.2-11.9-5.2c-5.9,0-6.9-0.4-9.6-3.9
			c-6.7-8.4-6.9-8.5-13.9-8.5c-7.8,0-8.6-0.5-11.2-5.8c-2.4-4.9-5.1-6.5-11.1-6.5c-6.8,0-10.1-1.7-13-6.6c-3.3-5.7-8.4-7.5-16-5.7
			c-9,2.2-14.1,0.6-18.1-5.4c-4.1-6-5.6-6.8-13.1-6.9c-4.8-0.1-6.2-0.8-9-3.9c-1.9-2.2-3.4-4.2-3.4-4.8c0-1.5-5.9-3.5-12.2-4.1
			c-5.8-0.6-7.1-1.5-11.2-8.1c-1.4-2.4-3.2-3-9.9-3.8c-6.5-0.8-8.4-1.4-10.2-3.9c-6.8-9.1-5.6-8.7-19.2-8.4
			c-12.4,0.4-12.4,0.4-15.1-3.4c-6.8-8.9-7.1-9.2-14-9.2s-7.3-0.3-14.2-9c-2.2-2.8-3.4-3.3-9.1-3.3c-6.9,0-9.2-1.4-13.4-8.5
			c-1.4-2.4-3.2-3-9.5-3.8c-8.3-0.9-10.7-2.3-13.4-7.7c-1.1-2.3-3.2-3.9-6-4.7c-2.4-0.8-4.7-1.2-5-1.1
			C4029.3,2294.9,4025.4,2295.2,4020.9,2295.7"/>
	</g>
	<g id="Layer_7">
		<path class="st0" d="M4964.9,2332.6c-17.5,0.8-17.5,0.8-20.1,5c-5.3,8.7-5.7,9-14.3,8.1c-4.2-0.4-17.6-0.8-29.6-0.9
			c-24.2-0.2-24.1-0.2-27.8,7.7c-1.2,2.5-2.9,4.9-3.8,5.2c-0.8,0.3-14.9,0.3-31.3,0c-16.4-0.3-30.4-0.1-31.1,0.4
			c-0.8,0.5-2.3,3.3-3.5,6c-2.2,5-2.2,5-32.2,4.5c-33.8-0.5-33.9-0.5-38.4,8.6c-1.3,2.7-3.3,5-4.3,5.1c-1.1,0.1-14.7,0-30.2-0.1
			c-15.5-0.2-29.2,0.1-30.6,0.5c-1.3,0.4-3.2,2.9-4.2,5.7c-1,2.8-3,5.3-4.4,5.9c-1.4,0.5-15,0.6-30.1,0.2c-15-0.4-28.7-0.4-30.2,0.2
			c-1.4,0.5-3.7,2.7-4.7,4.9c-4.3,8.6-5.1,8.8-18.7,7.9c-6.9-0.4-20.1-0.8-29.6-1c-19-0.2-19.6,0-22.9,7.5c-2.4,5.4-6.4,6.5-17.5,5
			c-4.2-0.6-16.2-1.1-26.5-1.1c-21.1,0-22.3,0.3-26.3,8.6c-1.2,2.6-3.2,5-4.3,5.1s-15.4,0.2-31.8,0.3c-32.8,0.1-29.7-0.8-35.8,10.2
			c-1,2-2.7,2.4-8.8,2.3c-4.1,0-9.4-0.5-11.8-1.1c-3.3-0.8-5.1-0.5-7.4,1.1c-3,2.2-3,2.2-2.7,34.9c0.3,30.7,0.2,32.8-1.8,34.1
			c-1.1,0.8-3.9,2.4-5.8,3.9c-3.7,2.5-3.7,2.5-3.9,77.7c-0.1,41.4-0.2,75.8-0.3,76.7c-0.1,0.8-2.4,2.7-5.1,4.1
			c-2.7,1.4-5.4,3.3-5.8,4c-0.6,0.8-0.8,32.7-0.8,71.1c0.1,64.1-0.1,69.7-1.9,70.9c-1,0.8-3.7,2.4-5.6,3.8
			c-3.7,2.5-3.7,2.5-3.8,77.8c0,82.1,0.3,77.6-6.9,81.4c-2,1.1-4,2.5-4.4,3.4c-0.6,0.8-0.6,9.2-0.1,18.8c0.6,11.6,0.3,21.4-0.8,29.2
			c-1.1,9.5-1.1,12.2,0,13.7c2.6,3.3,6.3,2.3,8.7-2.5c3.5-6.8,7.1-8.4,16.6-6.5c5.1,0.9,13.1,1.1,22.4,0.6
			c14.5-0.8,14.5-0.8,19.6,5.1c4.8,5.5,5.7,6,13,7.1c7.4,1.2,8,1.5,11.2,6.5c1.9,2.9,5.4,6.6,7.9,8.4c3.5,2.4,4.7,3.9,5.2,7.6
			c1.6,10.2,3.1,13.4,10.2,21.3c4,4.3,8.6,8.8,10.2,10c2.3,1.5,3,3.4,3.8,9.9c0.8,7.3,1.2,8.4,5.7,12.3c4.3,3.9,5,5.2,5.9,12.1
			c0.9,7.1,1.6,8.3,8.3,16c4,4.6,9,9.6,11.2,11.1c3.5,2.5,3.9,3.5,3.9,8.8c0,4,0.8,6.9,2.3,8.9c2.1,2.7,3.1,2.9,19.6,3.6
			c23.6,0.8,26.7,0.2,32.5-6.8c3.7-4.2,5.5-5.5,8.2-5.5c6.3,0,12.2-2.4,14.2-5.9c3.8-6.4,3.5-6.3,31.2-5.5c30.6,0.9,32.8,0.4,40.1-8
			c4.9-5.8,4.9-5.8,16.1-5.4c12.4,0.4,14.6-0.3,18.1-6.4c1.3-2.4,3.4-4.7,4.4-5.2c1.1-0.5,7.3-1,14-1c11.9-0.1,11.9-0.1,17.7-6.7
			c5.8-6.7,5.8-6.7,15.8-5.9c11.8,0.9,14.7,0,18.1-5.8c3.3-5.5,5.3-6.3,19.2-6.3c11.5,0,11.5,0,16.4-5.8c4.5-5.3,5.4-5.8,11.9-6.5
			c7.1-0.8,8.2-1.4,13.4-9.3c1.8-2.5,2.6-2.6,27.5-2.8c28.4-0.2,26.3-0.8,33.5,8.7c1.4,2,3.9,2.8,9.3,3.5c6.9,0.8,7.8,1.3,12.2,6.3
			c3.5,3.9,5.7,5.4,8.2,5.4c5.8,0,11.8,2.4,13.6,5.4c2.3,3.7,19.2,21.7,22.9,24.4c2.2,1.6,3,3.7,3.7,9.8c0.8,7.1,1.2,8.1,5.7,12.1
			c4.1,3.8,5,5.3,5.9,11.4c1.3,8.9,2.1,10.2,9.1,17.3c4.7,4.7,6.9,5.9,11.5,6.5c8,1.1,10.4,2.4,12.9,6.7c2.4,4.2,6.2,6.3,12.1,6.5
			c2.3,0.1,9.3,0.8,15.8,1.3c11,1.1,23.1,0.5,41.7-2.3c5.6-0.8,5.6-0.8,11.1,5.4c5.1,5.7,6.1,6.3,12.2,7.1c5.9,0.8,7.3,1.5,11.8,6.1
			c4.4,4.8,5.7,5.4,12.3,6.2c6.9,0.8,7.5,1.2,10.4,5.5c3.8,5.7,6.9,7.3,13.8,7.3c7.3,0,10.3,3.5,11.5,13c0.8,7.2,0.9,7.4,12.4,19.4
			c6.3,6.6,11.6,12.5,11.6,13c0,1.5,5.6,3.9,9.2,3.9c3.5,0,9.4-4.1,9.4-6.6c0-0.8,1.1-2.8,2.4-4.3c2.4-2.7,3-2.8,13.4-2.1
			c7.5,0.6,11.8,0.4,13.5-0.6c1.4-0.8,7.2-6.4,13-12.4c9.6-10.2,10.5-11,15.2-11c2.7,0,6.1-0.8,7.4-1.5c3-1.7,13.5-12.3,18.5-18.5
			c3-3.8,4.4-4.5,10.4-5.3c6.3-0.8,7.4-1.4,11.9-6.6c5-5.7,5-5.7,18.5-5.7c13.6,0,13.6,0,16.6,4.2c3.1,4.3,6.3,7.7,12.2,12.8
			c2.7,2.4,3.5,4,3.9,9.2c0.8,9-0.2,12-4.9,14.3c-7.8,3.9-7.7,3.4-7.7,30c0,24.2,0,24.2,5.8,29.8c5.8,5.7,5.8,5.7,5.8,18.4
			c0,12.7,0,12.7,5.3,18.1c4.1,4.1,5.3,6.3,5.3,9.5c0,2.3,0.9,6.1,2.1,8.6c2.2,5,10.5,14.9,14.2,17c2.4,1.4,53.5,1.8,56.7,0.5
			c1-0.4,3.5-3.2,5.4-6.2c3.5-5.4,3.5-5.4,28.3-4.6c32.8,1.1,34.9,0.8,41.9-7.4c5.5-6.4,5.5-6.4,23.1-6c19.4,0.4,17.6,1,25.2-8.6
			c1.9-2.4,3.9-3.3,9.8-3.9c7.4-0.9,10.8-3,13.9-8.7c1.2-2.4,2.8-2.4,33.8-2.5c32.5-0.1,32.5-0.1,37.4,5.5c4.9,5.7,4.9,5.7,17.3,5.7
			c12.4,0,12.5,0,17.2,5.9c3.8,4.7,5.4,5.9,8.4,5.9c6.9,0,12.1,2.4,15.2,6.8c2.9,3.9,8.9,6.9,13.5,6.5c5.5-0.4,7.1,0.4,9.2,5
			c2.4,5.1,6.4,7.6,11.9,7.6c4.2,0,2.7,1.5,57.2-55.5c43.1-45.1,45.5-48,45.5-57.4c0-3.6,0.8-5.4,3.9-8.4c5.1-5,6.5-8.1,6.7-13.9
			c0.1-6.5,1-8.5,5.8-11.8c3.7-2.5,4.2-3.9,5.4-10.6c1.2-7.4,1.7-8.1,11.9-19.1c5.8-6.3,10.9-12.7,11.2-14.4
			c0.3-1.6,0.9-5.3,1.3-7.9c0.6-3.8,2-6.2,5.9-10.1c5-4.9,5.2-5.4,5.2-12c0-5.5,0.6-7.3,2.4-9c8.2-7.1,8.1-6.9,9.2-14.9
			c0.9-7.2,1.6-8.4,6.4-13c5-4.9,5.3-5.5,5.3-11.6c0-5.5,0.4-6.8,3.1-9.1c1.8-1.5,6.8-6.6,11.1-11.3c8-8.7,10.2-13.4,10.2-21.2
			c0-3,0.9-4.7,4-7.2c4.1-3.4,6.4-8.9,6.4-15.8c0-2.5,1.6-5.1,5.8-9.5c5.4-5.5,5.8-6.4,5.8-11.7c0-5.5,0.3-6.1,11.2-18
			c11.8-13.1,13.4-15.8,13.4-23.4c0-2.6,0.7-5.4,1.4-6.1c0.8-0.8,2.9-2.5,4.8-4c2.7-2.4,3.4-4.1,4.1-10.5c0.8-7.2,1.2-8.1,6.3-13
			c5.1-5,5.5-5.7,5.5-11.5c0-5.7,0.4-6.6,4.3-10.2c2.4-2.3,7.7-7.8,11.6-12.4c6.7-7.7,7.2-8.9,8-15.5c0.8-6.3,1.3-7.7,5.3-11.5
			c3.9-3.8,4.7-5.3,5.7-12.3c1-7.1,1.8-8.5,6.3-12.9c4.4-4.3,5.2-5.8,5.8-11.6c0.8-6.3,1.2-7.1,10.3-17
			c11.4-12.2,13.8-16.4,13.8-24.2c0-3.3,0.4-5.9,0.9-5.9c0.6,0,2.6-1.5,4.8-3.4c3.3-2.9,3.9-4.6,4.9-11.4c0.9-7.3,1.4-8.5,6-12.5
			c4.5-4.1,5-5.1,5.4-11.7c0.4-6.7,0.8-7.5,5.7-12.1c4.7-4.3,5.3-5.7,5.9-11.7c0.8-6.5,1-7.2,11.5-18.5c7.7-8.4,11-12.9,11.5-15.8
			c0.4-2.3,1-5.8,1.4-8c0.4-2.4,2.6-5.8,5.5-8.6c4.3-4.2,4.8-5.2,5.6-12.9c0.7-6.8,1.3-8.7,3.5-10.2c7.4-5.2,7.4-5.2,7.9-17.9
			c0.6-16.5,1.1-16.1-18.9-15c-18.6,0.9-22.4-0.1-26.4-7.1c-1.4-2.4-3.8-4.8-5.2-5.3c-1.4-0.5-10.1-0.8-19.2-0.6
			c-18.4,0.3-16.6,1-24.5-9.1c-2.7-3.4-2.7-3.4-14.4-2.5c-11.8,0.9-11.8,0.9-18.1-6.3c-6.3-7.2-6.3-7.2-24.6-7.2s-18.3,0-21.7-5.3
			c-1.9-2.9-4.7-5.8-6.2-6.4c-1.7-0.8-7.8-0.6-15.6,0.2c-17.2,1.8-20.2,1.1-24.7-5.8c-3.9-5.8-9.4-8.7-14.2-7.5
			c-1.4,0.4-8.3,0.8-15.1,0.8c-13.6,0.2-14.5-0.1-19-7.6c-3.1-5.2-6.9-6.3-16.1-4.5c-9,1.7-13.3,0.4-17-5.3
			c-5.2-7.8-8.1-8.7-26.3-7.8c-17.6,0.9-15.8,1.5-24-8.8c-2.7-3.5-2.7-3.5-20.2-2.5c-19.4,0.9-17.7,1.5-26.4-9.7
			c-2.6-3.3-2.8-3.3-15-2.9c-13.8,0.4-11.8,1.4-20-9.8c-2.4-3.4-2.6-3.4-13.4-2.8c-6,0.3-14.2,0.6-18.2,0.6c-7.3,0-7.3,0-13.1-6.7
			c-5.7-6.8-5.7-6.8-23.8-6.4c-18.2,0.4-18.2,0.4-22-5.3c-4.9-7.2-7.9-8.1-23.2-6.6c-16.2,1.5-18.5,0.9-24-5.9
			c-5.6-7.2-8.4-8.4-17-6.5c-9.1,2-14.2,0.1-18.2-6.4c-3.9-6.3-7.5-7.2-22.1-5.9c-16.4,1.5-18.7,0.9-25.2-6.7c-5.4-6.4-5.4-6.4-23-6
			c-19.6,0.4-17.6,1.1-25.6-9c-2.7-3.4-2.8-3.5-13.3-2.7c-5.8,0.4-11.8,0.2-13.4-0.4c-1.5-0.6-4.1-3.4-5.8-6
			c-4.2-6.8-7.2-7.6-23.8-6.3c-15.5,1.2-18.5,0.6-21.9-4.3c-5.7-8.6-4.8-8.5-24.1-7.4c-17.5,0.9-17.5,0.9-22.1-4.3
			c-2.4-2.8-4.5-5.7-4.5-6.2c0-2.4-8.2-3.8-14.6-2.4c-8.7,2-13.6,0.1-17.7-6.3c-4-6.4-8-7.4-22.4-5.9c-16.1,1.7-18.4,1.1-24.7-6.3
			c-5.9-7.1-5.6-6.9-27.5-6.2c-13.3,0.4-15.4-0.4-19.2-6.7c-1.4-2.4-3.9-4.7-5.5-5.1s-9.1-0.5-16.5-0.1c-17.6,0.8-19.5,0.4-23.3-5.4
			c-4.7-7.1-9.4-9-18.1-7.6c-9.6,1.6-14.1,0.2-17.9-5.9c-1.7-2.6-4.1-5.2-5.4-5.5c-1.3-0.4-9.6-0.4-18.5,0.1
			c-18,1-15.6,1.8-25.2-9.6c-3.4-4-6.4-4.6-21.2-3.3c-16,1.4-18.1,0.8-22.5-5.5c-4.3-6.4-7.3-8.1-13.3-7.9
			C4984.5,2332,4974.6,2332.4,4964.9,2332.6"/>
	</g>
	<g id="Layer_6">
		<path class="st0" d="M6151.7,2667.7c-2.2,2.3-2.6,4.1-2.6,10.2c0,7.1-0.2,7.6-3.2,8.9c-6.3,2.8-7.2,4.6-7.2,12.4s0.3,7.3-10.2,17
			c-2.2,2.1-2.6,3.7-2.6,9.8c0,6.9-0.2,7.5-3.9,10.2c-2.1,1.5-7.3,6.6-11.8,11.3c-7.9,8.6-7.9,8.6-7.9,16.5c0,7.8,0,8-3.9,9.7
			c-5.5,2.4-6.3,3.9-6.9,12.8c-0.6,8.3-0.9,8.8-9.2,15c-2.2,1.6-2.7,3.4-3.1,10.2c-0.6,8.1-0.7,8.4-5.1,11.4
			c-5.4,3.6-6.7,6.5-6.5,14.8c0.1,5.3-0.3,6.3-3.3,8.6c-5.5,4.1-18.1,18-19.3,21.2c-0.7,1.6-1.1,5.4-1.1,8.1c0,6.2-0.7,7.3-5.5,10
			c-5,2.7-6.2,5.4-6.2,14.1c0,7.1-0.1,7.4-3.9,9.3c-5.8,2.8-6.8,4.8-7.1,13.4c-0.3,6.9-0.7,8-3.7,10.2c-5.9,4.3-18.1,17.7-19.2,21.1
			c-0.7,1.7-1.1,5.5-1.1,8.6c0,5.5-1.9,8.4-6.7,9.9c-3.1,1-4.1,4-4.4,12.9c-0.2,5.4-0.8,7.1-2.8,8.6c-8.4,6.3-8.7,6.8-9.2,15.3
			c-0.4,7.1-0.9,8.6-3.5,10.3c-1.7,1.1-6.5,5.9-10.8,10.4c-7.9,8.5-9.3,11.4-9.3,20.1c0,4.5-2.3,7.5-6.3,8.6
			c-3.7,0.9-5.3,5.4-5.3,13.5c0,6.5-0.2,6.8-4.5,9.8c-5.9,3.9-6.3,4.7-6.4,13.4c-0.1,6.7-0.6,7.6-3.5,10
			c-5.9,4.5-19.3,19.2-19.4,21.4c-0.1,1.1-0.2,4.6-0.3,7.5c-0.2,4.3-0.9,6-3.8,8.3c-8.5,7.1-8.7,7.4-8.7,15.2
			c0,7.3-0.1,7.5-4.5,10.4c-5.9,3.9-6.4,4.9-6.2,12.5c0.2,6.6-2.8,12.8-6.1,12.8c-0.8,0-2.6,1.3-4,2.8c-2.1,2.4-2.6,4.3-2.6,10.4
			c0,7.4-0.1,7.6-4.3,10.8c-2.4,1.7-7.7,7.1-11.8,11.8c-7.1,8.6-7.2,8.7-7.2,16c0,7.2,0,7.2-5,10.2c-4.9,2.8-5,3-5.3,9.7
			c-0.6,11.1-1,12.3-6.9,14.9c-7.7,3.6-10.1,12.1-4.9,17.6c2.6,2.7,3.2,2.8,32.4,3c29.7,0.3,29.7,0.3,35.3,6.6
			c5.5,6.3,5.5,6.3,21.4,5.5c15.1-0.8,22.8,0.3,22.8,2.8c0,0.6,1.3,2.6,2.9,4.7c2.4,3.2,3.9,3.8,10.1,4.1c6.8,0.5,7.4,0.8,11.5,5.9
			c3.9,4.9,5,5.4,11.8,6.4c7,1,7.9,1.5,12.9,7.2c5.4,6.1,5.4,6.1,23.2,6.1s17.9,0,23.4,6.4c5.5,6.4,5.6,6.4,21.7,7.5
			c8.9,0.6,49.1,0.9,89.2,0.8c81.7-0.5,77.9-0.1,85.1-9.5c3.5-4.7,3.5-4.7,29.8-4.6c26.3,0.1,26.3,0.1,30.7,5.2
			c3.9,4.5,5.3,5.2,11.5,6c6.4,0.8,7.4,1.4,12,6.6c5,5.7,5,5.7,17.3,5.7s12.3,0,16.5,5.3c4.3,5.4,9.2,7.7,16.2,7.7
			c2.9,0,4.5,1.1,7.9,5.4c3.8,4.9,4.8,5.4,10.4,6.1c7.3,0.8,10.1,2.4,13.2,7.2c1.2,2,5.5,6.5,9.4,10.2c6.3,5.8,8.1,6.7,13.9,7.5
			c5.7,0.8,7.2,1.5,10.2,5.3c6,7.4,15.9,16.8,19.2,18.4c1.8,0.8,4.9,1.5,7,1.5c3.3,0,5.9,2.4,19.9,16.8
			c16.4,17.2,20.5,20.1,27.6,20.1c2.9,0,4.8,0.8,6.2,2.7c4.1,5.7,17.2,18.1,20.9,20c2.1,1,5.9,2,8.5,2c3,0,5.3,0.8,6.2,2.1
			c5.8,7.6,7.8,9.1,12.6,9.1c6,0,9,1.5,13.4,7.1c3.1,3.8,4.5,4.5,11.1,5.4c7,1,7.9,1.5,12.2,6.6c4.3,5.1,5.2,5.5,11.8,6.3
			c6.4,0.8,7.3,1.1,11.8,6.3c4.8,5.5,4.8,5.5,23.4,7.4c18.2,1.8,30.2,1.5,59.1-1.7c5.9-0.8,5.2-1.2,13.1,8.8
			c2.9,3.7,2.9,3.7,21.2,3.7s18.2,0,23.3,5.9c5.5,6.3,5.3,6.2,19.7,5.9c8.8-0.2,9.2-0.1,12.5,3.7c2,2.2,3.5,4.3,3.5,5
			c0,0.5,3.9,4.3,8.8,8.5c7.9,6.7,9.4,7.5,15.8,8.3c6.4,0.8,7.1,1.2,10,5.5c3,4.9,4.2,5.4,13.4,6.5c4.1,0.5,6,1.5,8.8,4.8
			c4.4,5.3,7.5,7.1,12.8,7.1c5.7,0,9,1.8,12.1,6.9c1.4,2.4,4,4.9,5.6,5.5c4.3,1.7,40.6,1.5,44.4-0.3c1.7-0.8,3.9-3,4.8-4.9
			c3.1-6.4,6.3-7.6,17.9-6.6c10.2,0.8,10.2,0.8,17.5-5.7c7.3-6.7,9.8-11.2,11.3-21.1c0.6-3.2,2.2-6,5.5-9.5
			c4.3-4.3,4.9-5.5,5.7-12.7c0.8-6.7,1.3-8.3,4.1-10.2c1.9-1.3,4.7-4,6.2-6c8.9-10.6,8.8-10.6,15.2-10.6c5.5,0,6.4,0.4,9.8,4.3
			c6.9,8.1,33.8,36.6,36.6,38.5c1.7,1.1,2.9,3.6,3.3,6.3c0.4,2.4,0.9,6.1,1.3,7.9c0.4,2.3,4.4,7.5,11.2,14.8
			c10.5,11.3,10.5,11.3,10.8,53.2c0.2,45.8,0.6,47.6,7.1,51.2c5.1,2.8,6.4,7.1,6.1,19.7c-0.3,11.4-0.3,11.4,4.9,16.1
			c4.8,4.3,5.3,5.3,6,12.2c1.1,10,2.4,11.4,9.6,10.9c5.6-0.3,6-0.6,9-5.9c3.1-5.5,3.1-5.5,19.2-5.1c21.1,0.5,23.3,0.1,27.1-5.9
			c1.7-2.6,3.9-5.2,5-5.7c2.9-1.3,49.5-1.5,52.4-0.2c1.3,0.6,3.4,2.8,4.5,4.9c3.1,5.5,7.4,6.9,19.4,6.2c11.3-0.8,11.1-0.8,18.5,9.6
			c1.6,2.2,3.9,4.5,5.4,5.2c2.9,1.4,5.2,5.8,5.2,10.1c0,5.5,2.4,10.3,5.7,11.6c1.8,0.6,9.3,0.9,16.8,0.5c15.4-0.8,19.2,0.3,22.4,6
			c4.2,7.6,5,7.8,38.5,7.8c16.8,0,32.1-0.4,33.8-0.9c1.9-0.5,4.4-3,6.2-5.8c4-6.5,8-8,18.2-7.1c9.4,0.8,15.4-1,16.6-5.2
			c1.4-4.8,6.2-7.5,13.2-7.5c5.4,0,6.8-0.5,9.2-3.3c1.6-1.8,2.9-3.8,2.9-4.3c0-1.7,7.7-4.7,12.3-4.7c5.5,0,8-1.5,10.8-6.6
			c2.2-3.9,2.8-4.2,9.3-4.7c8.2-0.6,8.6-0.9,30.3-23.4c15.3-16,18-20,18-28.5c0-5.1,0.4-5.8,4.8-8.8c2.6-1.8,5.8-5.3,7.1-7.6
			c2.8-5,6-6.6,13.2-6.6c4.7,0,5.5-0.5,9.8-5.7c4.3-5.4,5.2-5.8,12-6.8c7-0.9,7.8-1.4,13-7.3c3-3.5,5.6-7.3,5.6-8.6s-1.9-3.8-4-5.5
			c-2.9-2.4-4.2-4.6-4.8-7.7c-0.4-2.4-0.9-6.3-1.2-8.6c-0.4-3-1.8-4.8-5.3-7.1c-4.7-3.2-4.7-3.2-4.3-22.8
			c0.4-21.6,0.8-20.6-9.5-28.1c-2.4-1.7-2.4-2.8-2.7-21.9c-0.2-22.3,0.6-20-8.9-27.4c-1.7-1.3-2.7-4.1-3.5-9.8
			c-0.7-4.3-1.7-8.5-2.2-9c-1-1.1-129.8-1.4-142.8-0.3c-8.9,0.8-12.1-0.6-16.1-6.9c-3.8-5.9-7.4-7.3-16.1-6
			c-10.3,1.5-14.3,0.4-18-5.2c-3.2-5-8-7.2-15.1-7.2c-2.6,0-4.7-1-6.4-3.2c-1.4-1.7-8.2-9-14.9-16.4c-10.3-11.1-12.5-14-13.2-18.1
			c-1.8-11.2-2.1-11.8-6.3-14.7c-4.2-2.8-4.2-2.8-4.2-71.8c-0.1-69.1-0.1-69.1-7.1-76.7c-3.9-4.2-10.3-10.6-14.4-14.3
			c-6.9-6.2-7.8-6.7-13.3-6.7c-6.1,0-6.5-0.3-14.4-10.1c-1.8-2.2-3.2-2.4-14.2-2.1c-12.2,0.4-12.2,0.4-17.2-5.5
			c-4.7-5.5-5.3-6-12.4-6.9c-6.2-0.8-7.9-1.5-10-4.2c-2.4-3.5-7.2-8.6-12-13c-2-1.8-2.6-3.8-2.6-8.1c0-3.2-0.7-6.8-1.3-8.4
			c-1.7-3.2-16-18.3-19.1-20.1c-1.8-1-2.4-3.3-3.1-9.7c-0.8-8-1-8.6-6.5-13.6c-5.7-5.3-5.7-5.3-5.8-18.6
			c-0.1-12.6-0.2-13.4-2.9-15.5c-7.3-6-8.1-7.1-8.1-11.3c0-8.6-1.3-12.1-6-15.4c-5.7-4.1-7-8.1-6.5-21.6c0.3-10.8,0.2-11-3.1-13.5
			c-8.9-6.9-8.3-5.5-8-19.8c0.3-13,0.3-13.1-3.1-16.5c-1.9-1.8-4.7-4.1-6.1-5.3c-2.6-2-2.8-2.8-2.8-14.2
			c-0.1-16.6,0.1-15.9-5.8-20.2c-4.9-3.6-5.3-4.2-5.3-9.1c0-7.7-2.1-12.7-6.4-15.5c-5.2-3.4-6.9-8.9-5.8-19.6
			c0.9-10.2-0.1-13.3-5.8-17.4c-5.7-4-6.9-8.3-5.3-18.3c1.6-9.6-0.2-14.8-6.2-18.7c-5.5-3.6-7.1-8.9-6.1-19.4c1-9.8-0.6-14.2-6-17.8
			c-5.5-3.6-6.5-7.2-5.6-19.1c0.9-11.5,0.1-13.8-5.8-17.7c-4.1-2.7-6.5-7.7-6.5-13.7c0-5.1-2-8.8-6.3-11.8
			c-4.5-3.2-5.4-6.4-4.5-17.9c0.3-4.5,0.3-9.6-0.1-11.3s-4.4-6.4-8.9-10.5c-8.2-7.5-8.2-7.5-25-6.7c-18.6,0.8-16.1,1.8-25.3-9.2
			c-2.4-2.8-2.4-2.8-55.7-2.6c-53.2,0.2-53.2,0.2-58.7-6.2c-5.4-6.5-5.4-6.5-34.6-6.6c-16.1-0.1-37.3,0.1-47.1,0.4
			c-20.1,0.6-17.2,1.6-25.3-9.2c-2.4-3.2-2.4-3.2-44.9-2.8c-58.9,0.4-52.1,1.1-58.7-6.6c-5.5-6.5-5.5-6.5-58.9-6.6
			c-53.5,0-53.5,0-55.3-2.8c-6.8-10-2.3-9.1-45.8-8.9c-21.4,0.1-41.9,0.5-45.5,0.9c-8.3,0.9-12-0.8-15.9-6.8c-1.9-3-4.5-5.4-6.8-6.2
			c-2.3-0.8-20.6-1.1-48-0.9c-24.4,0.2-45.3-0.1-46.4-0.8c-1.1-0.7-2.9-2.7-3.9-4.8c-3.2-6.5-4.8-6.7-57.8-6
			c-26.6,0.3-50,0.2-51.9-0.3c-1.9-0.5-5.6-3.5-8.2-6.7c-4.8-5.8-4.8-5.8-26.4-5.9C6154.9,2665,6154.2,2665,6151.7,2667.7"/>
	</g>
	<g id="Layer_5">
		<path class="st0" d="M3088.3,2965.1c-7.5,8-14.7,16.1-15.9,17.9c-1.9,2.8-2.9,3.3-8.5,3.3c-5.9,0-6.9,0.4-11.9,5.3
			c-5.7,5.4-47.6,49.9-51.7,55c-2.3,2.7-2.8,2.8-14.3,2.1c-13.2-0.9-13.2-0.9-17,7.2c-1.9,3.9-2.3,4-10.3,4.7
			c-9.2,0.8-10,1.2-12.9,7.4c-2,4-2.2,4.1-10.3,4.8c-4.5,0.3-8.8,1-9.3,1.6c-0.6,0.5-1.2,4.9-1.7,9.7c-0.4,5.3-1.4,9.5-2.6,10.5
			c-1.1,1.2-5,2.3-10,2.7c-8,0.8-11.9,2.6-11.9,5.7c0,0.8-0.9,2.8-2.2,4.3c-1.8,2.4-3.8,2.9-10.8,3.6c-8.6,0.8-8.6,0.8-11,5.7
			c-2.4,4.9-2.4,5-10.5,5.5c-9.6,0.8-10.5,1.2-13.2,7.2c-2,4.3-2.3,4.6-9.9,5.4c-7.7,0.8-8.1,1-16.6,9.2c-4.9,4.7-9.1,9.5-9.4,10.5
			c-1.4,5-5.6,6.2-17.3,5.3c-10.5-0.8-11-0.8-12.9,2c-1.1,1.7-1.9,5.4-1.9,9.2c0,9.1-2.2,11.4-12,12.6c-7.3,0.9-8.4,1.4-12.9,6.3
			c-2.7,2.9-6.1,6.2-7.5,7.2c-1.4,1-3.5,3.6-4.5,5.7c-2.4,5.1-3.4,5.5-10.5,5.7c-5.8,0-6.5,0.4-12.9,6.5c-3.8,3.6-12.4,12.6-19.5,20
			c-12.8,13.5-12.8,13.5-13.3,21.2c-0.4,6.4-0.9,8.1-3.3,9.9c-3.8,2.8-31.3,31.3-38.2,39.4c-5.2,6.2-5.5,6.9-5.5,13.8
			c0,7.1-0.2,7.4-3.9,9.3c-2.1,1.1-7.1,5.7-11.1,10.2c-6.8,7.5-7.2,8.6-7.3,13.7c0,6.5-2,11.2-5.4,13c-5.5,2.9-6.2,4.3-6.2,12.5
			c0,8.5-0.4,9.2-8.2,14.6c-4,2.7-4,2.7-3.8,16.6c0.3,11.8,0,14.3-1.7,16.3c-1.1,1.3-2.6,2.4-3.4,2.4c-0.8,0-2.6,1-3.9,2.2
			c-3.7,3.2-5.9,21.2-3.1,25.6c2.7,4.3,5.4,3.8,9.1-2c3.9-6,6.5-7.1,13.5-5.9c3,0.5,15,1,26.8,1c21.4,0.1,21.4,0.1,24.5-3.5
			c1.8-2,3.9-4.8,4.9-6.2c2.2-3.3,2.6-3.4,34.2-1.2c23.1,1.5,52.1,0.6,71.8-2.2c4.9-0.8,5.2-0.5,11.1,6c6.1,6.7,6.1,6.7,23,7.5
			c9.3,0.4,22.7,0.4,29.6,0c12.6-0.8,12.6-0.8,18.2,5.9c5.6,6.7,5.6,6.7,36.2,6.7c29.4,0,30.7,0.1,31.9,2.4c0.8,1.3,2.8,4,4.5,5.9
			c3.3,3.5,3.3,3.5,38.5,3.3s35.2-0.3,40.6,6c5.5,6.2,5.5,6.2,23,7.1c11.3,0.5,21,0.4,27.3-0.5c12.8-1.8,15.9-1.1,19,4.9
			c1.3,2.6,3.9,5.4,5.5,6.1c2,1,12,1.3,31.5,1.2c28.5-0.2,28.5-0.2,34.1,6.1c3.5,4,6.5,6.4,8.4,6.5c12.5,0.8,35.3,0.5,38.6-0.4
			c3-0.8,5.6-2.7,8.6-6.6c4.3-5.5,4.3-5.5,22.4-5.5c20,0,18.1,0.8,25.6-9.2c2.8-3.7,2.8-3.7,15.8-3.7s13.1,0,18.1-6.2
			c5.1-6.2,5.1-6.2,16.9-5.8c13,0.3,12.1,0.8,19.6-8.8c1.8-2.4,3.7-3.3,6.4-3.3c7.3,0,12.5-2.4,15.3-6.8c3.4-5.5,7.4-6.9,17.3-6
			c10,1,13.9-0.6,18-7.1c6.5-10.3,19.6-9.6,26.1,1.7c1.3,2.4,4.5,5.7,7.1,7.5c4.8,3.3,4.7,3,6.5,16.3c0.3,2.4,2.3,5.3,5.3,8
			c3.7,3.4,4.9,5.5,5.3,9.2c0.3,2.7,0.8,6.2,1.1,7.6c0.3,1.5,5.4,7.9,11.4,14.2c10.9,11.5,10.9,11.5,11.5,19.2
			c0.6,7.1,0.9,8.1,5.7,13.3c5.1,5.5,8.8,7.7,10.2,6.2c0.4-0.4,0.8-4.1,0.9-8.3c0.1-7.2,0.3-7.5,6.2-13.4c6.1-5.9,6.1-5.9,5.7-18.5
			c-0.3-12.2-0.2-12.7,2.6-15c7.4-6.1,7.9-6.7,8.7-14.1c0.8-6.6,1.3-7.8,6.7-13.1c5.7-5.9,5.7-5.9,5.7-18.8c0-12.5,0.1-13,3.2-16.1
			c1.8-1.7,3.7-3.2,4-3.2c1.6,0,3.4-5,4.4-12.1c0.9-6.2,1.7-7.6,6.7-12.3c5.6-5.3,5.6-5.3,5.3-18.1c-0.3-13.9-0.3-13.9,7.1-19.4
			c2.4-1.8,3.1-3.6,3.9-9.9c0.8-7.1,1.2-8.1,6.5-13.5c5.7-5.8,5.7-5.8,5.7-18.4c0-12.6,0-12.6,5.5-18c5.2-5.1,5.5-5.7,6.1-13.6
			c0.7-8,0.8-8.4,5.7-11.8c5.7-4,7.7-8.3,6.8-13.9c-0.8-4.6-2.3-5.4-10.3-5.4c-6.9,0-7.5-0.4-10.8-5.7c-3-5.1-16.5-17.7-19.7-18.3
			c-1.3-0.3-4.9-0.8-7.7-1.1c-3.7-0.4-5.8-1.4-7.1-3.3c-4.8-7.2-6.8-8.6-12.9-8.6c-5.9,0-5.9,0-17-11.8
			c-10.9-11.6-11.2-11.8-18.1-12.8c-6.9-1-7.1-1.3-17.7-12.5c-10.5-11.3-10.9-11.5-17.5-12.3c-6.6-0.8-7-1-17.3-12.3
			c-10.5-11.5-10.5-11.5-18.3-12.3c-6.5-0.8-8.2-1.3-9.6-3.8c-4.2-6.9-6.7-8.5-13.2-8.5c-6.2,0-6.2,0-15.4-10.5
			c-9.9-11.3-13.2-13.5-22.1-14.8c-3.9-0.5-6.3-1.6-7.5-3.5c-1-1.4-5.9-6.6-10.7-11.5c-8.5-8.6-8.9-8.8-15.8-9.5
			c-5.5-0.5-7.4-1.3-9.1-3.6c-6-8.1-6.3-8.5-12.5-8.5c-6,0-6,0-17.4-12.1c-11.3-12-11.4-12.1-18.1-12.8c-6.5-0.8-6.8-0.9-17.7-12.5
			c-11.1-11.8-11.1-11.8-17.1-11.8c-6,0-6,0-16.8-11.7c-10.9-11.7-11.9-12.3-21.6-13.5c-3.1-0.4-5.8-1.5-6.9-2.8
			c-0.8-1.2-2.4-3.6-3.7-5.1c-1.6-2.3-3.7-3-9-3.8c-6.9-0.8-7.1-1-18-12.2c-10.9-11.3-14.9-13.8-22.4-13.8c-3.7,0-4.7-0.8-8-5.9
			c-1.4-2.3-3.1-3.9-3.8-3.9C3102.4,2950.5,3095.8,2957,3088.3,2965.1"/>
	</g>
	<g id="Layer_4">
		<path class="st0" d="M4318.6,3059.8c-0.8,0.2-4.3,4.1-8.2,8.6c-6.4,7.7-7,8.7-7.4,15.6c-0.6,6.8-0.9,7.6-4.7,10.2
			c-7.9,5.4-7.3,2.2-6.8,43.6c0.3,20.9,0.1,38.7-0.4,39.7c-0.6,0.9-3,2.7-5.7,3.9c-2.8,1.3-5,3.4-5.3,4.9
			c-0.3,1.4-0.8,14.1-0.8,28.2c-0.3,25.5-0.3,25.7-3.1,28c-2.8,2.4-5.9,2.4-156,2.3c-153.2-0.1-153.2-0.1-155.3,2.6
			c-1.7,2.2-2,4-1.6,7.8c0.3,2.7,0.8,38.5,0.9,79.5c0.2,70.5,0.1,74.8-1.9,78c-2.4,4-6,5.3-14.6,5.1c-5.5-0.1-6.8-0.6-9.1-3.7
			c-7.8-10.1-5.9-9.2-19.6-8.8c-12.4,0.4-12.4,0.4-15.1-3.4c-6.7-8.8-7.2-9.2-13.3-9.2c-7.5,0-8.9-0.6-12-5.8c-3.7-6.2-8.5-8-17-6.4
			c-9.6,1.8-14.5,0.1-19.1-6.9c-4.1-6.3-7.5-7.4-17.2-5.8c-8.3,1.4-13,0.5-15.3-3c-5.5-8.3-5.5-8.3-13.8-9.1
			c-6.3-0.8-8.4-1.4-9.9-3.6c-6.7-10.1-5.3-9.6-23.8-8.6c-7.7,0.4-8.1,0.3-10.9-3.3c-8.2-10.4-6.5-9.7-17.7-8.9
			c-11.9,0.8-16.6-0.8-19.5-6.4c-2.4-4.8-5.1-6.3-11.6-6.3c-7.1,0-8.5-0.8-11.4-5.8c-3.8-6.3-8.8-8.3-17.3-6.4
			c-9.1,2-14.3,0.1-18.3-6.3c-3.9-6.2-8-7.6-16.5-6c-9.9,2-13.6,0.8-17.9-5.5c-3.9-6-5.4-6.9-11.5-6.9c-7.1,0-9.5-1.3-11.9-6.3
			c-1.3-2.7-3.1-4.8-4.3-4.8c-1.1,0-4.8,2.7-8,6.1c-5.9,5.9-6,6.2-6.5,14.3c-0.4,7.4-0.8,8.6-3.9,11.1c-9.3,7.7-8.8,6.6-8,20.5
			c0.8,13.7,0.4,14.9-6.9,18.7c-3.8,2-5.5,6.5-5.6,14c0,6.1-0.3,6.7-3.8,8.6c-8.1,4.6-8.3,5.2-7.3,19.8c0.8,13.3,0.8,13.3-2.9,16.3
			c-9.1,7.3-9.4,7.8-9.4,16.5c0,8,0,8-4.7,10.5c-6.7,3.6-7.2,5.5-6.3,19.1c0.8,13,0.1,14.9-6.5,17.9c-4.1,1.8-5,3.6-5.8,13.5
			c-0.7,7.4-0.9,8.1-4.8,10.8c-7.5,5.2-7.3,4.6-6.4,17.7c0.4,6.6,0.4,13.3,0,14.7c-0.4,1.4-2.9,3.8-5.4,5.1
			c-5.3,2.8-7.3,7.1-6.5,13.5c0.8,6.2-0.4,8.6-6.3,11.6c-5.1,2.5-5.2,2.7-5,8.1c0.4,10.4-0.6,13.4-5.5,16.1c-5.8,3.2-6,3.6-6.4,12.4
			c-0.3,7.3-2.7,12.3-5.9,12.3c-3,0-5.4,4.8-5.8,11.4c-0.6,9.5-1.2,11.1-6.2,13.9c-4,2.3-4.4,3-5.7,10.4c-1.1,6.9-2,8.6-5.7,11.8
			c-5.6,5-4.9,7.4,2.6,8.6c7.9,1.1,10.3,2.4,12.8,6.6c2.4,4.5,5.2,5.9,12.5,6.9c4.3,0.6,6.3,1.6,8.8,4.7
			c11.5,14.3,20.2,20.5,28.8,20.5c2.6,0,4.7,1.4,8.2,5.4c4.2,4.9,5.4,5.5,11.8,6.2c6.3,0.8,7.4,1.3,11.8,6.3c3.5,4,5.7,5.5,8.2,5.5
			c6.7,0,12,2.4,14.9,6.6c3,4.6,14.2,15.6,18.1,17.8c1.4,0.8,4.8,1.4,7.5,1.4c4.3,0,5.6,0.6,9.8,5.4c4.1,4.8,5.5,5.5,11.4,6.2
			c5.9,0.8,7.1,1.4,10.3,5.7c4.7,6.2,7.2,6.2,11.1-0.1c2.7-4.6,3.3-5,8.1-5c7.8,0,10-1.3,21.6-13.5c9.6-10,11.3-11.2,15-11.2
			c5.8,0,10.5-3.4,21.4-15c8.8-9.5,9.5-10,15.9-10.9c5.8-0.8,7.1-1.5,11-6.3c4.3-5.4,4.3-5.4,16.6-5.9c14-0.5,17.9,0.6,21,6
			c3.9,6.8,7.4,7.8,25.5,6.8c18-0.9,15.3-1.8,24.3,8.8c2.1,2.5,3.3,2.7,14.2,2.7c11.9,0,11.9,0,16.9,5.7c4.7,5.3,5.5,5.7,13,6.7
			c6.3,0.8,8.3,1.6,9.8,3.9c4.3,6.8,5.4,7.6,13,8.6c6.9,0.9,7.9,1.5,11.8,6.1c3.9,4.7,4.8,5.1,12.2,6.1c8.2,1.1,8.2,1.1,13.4,8.6
			c1.2,2,3.9,2.8,9.3,3.7c7,1,8,1.6,12.4,6.7c4.5,5.3,5.3,5.5,10.9,5.5c7.3,0,9.6,1.1,12.6,6.7c1.9,3.4,3.4,4.5,6.9,5.1
			c2.4,0.4,6,1.1,7.8,1.4c2.2,0.4,6.8,4.3,13.4,11.7c10,10.9,10.2,11,18.2,12.8c6.5,1.4,8.6,2.4,10.4,5.2
			c2.4,3.6,20.4,22.2,27.4,28.2c3.1,2.7,5.4,3.6,10.9,3.9c6.5,0.5,7.1,0.8,9.8,5.3c2.9,4.8,3.9,5.3,13.4,6.6
			c4.2,0.6,6.1,1.7,10.1,6.2c4.9,5.5,4.9,5.5,17.3,5.5c13.5,0,12.5-0.4,19.1,8.5c1.6,2.2,3.7,3,7.9,3.5c8.3,0.8,11.3,2.4,14.4,7.2
			c3.5,5.4,5.3,6,19.3,6.1c11,0.1,11.6,0.2,13.4,3.2c5.1,8.1,6.7,8.9,16.3,8.4c11.8-0.8,15,0.3,21,7.3c4.9,5.9,4.9,5.9,16.3,5.5
			c6.2-0.2,12.3,0,13.4,0.4c1.1,0.4,3.2,2.6,4.5,5c3.7,6.3,6.2,7.2,19,7.3c11.4,0,11.4,0,16.2,5.3c4.8,5.3,5.8,5.8,14.5,7.1
			c3.9,0.5,5.8,2,10.4,7.4c10.7,12.4,16.1,16.4,23.2,17.3c5.8,0.8,6.9,1.4,10.3,6.1c2.2,2.9,7.1,7.9,10.9,11.3c5.9,5.1,8,6.1,14,7.1
			c7.1,1,7.4,1.3,12.3,8.5c1.2,2,3.8,2.8,9.3,3.7c6.9,1,8,1.6,11.9,6.2c4,4.7,5,5.2,12.2,6.2c6.3,0.8,8.3,1.6,9.6,3.9
			c4.3,6.9,5.4,7.6,13,8.6c7,0.8,7.8,1.3,11.8,6.2c4,5,4.8,5.3,12.2,6.1c8.1,0.9,8,0.8,13.3,8.6c1.2,2,3.8,2.8,9.3,3.7
			c6.5,0.9,8.1,1.7,11.1,5.3c4.7,5.5,7.5,7.1,14,7.1c5.5,0,7.7,1.5,12.3,8.6c1.3,2.1,3.7,2.9,9.3,3.8c6.8,1,8.1,1.6,11.9,6.1
			c4.4,5.1,5.8,5.7,15,6.7c3.8,0.4,5.8,1.4,7.2,3.5c4.2,6,5.6,6.9,12.8,8.3c6.8,1.2,7.9,2,12.3,7.2c4.9,5.8,4.9,5.8,18,5.9
			c12.6,0.1,13.3,0.2,15,3c4.4,7.1,5.5,7.8,13.1,8.9c6.7,0.9,8.1,1.7,12.8,6.5c4.8,4.8,6,5.5,12.3,6.1c7.1,0.8,7.1,0.8,12.2,8.3
			c1.2,2,3.9,2.8,9.3,3.7c6.8,1,8.1,1.7,12,6.1c4.5,5.1,5.7,5.5,14.9,6.7c3.8,0.4,5.8,1.4,7.1,3.4c4.1,6.6,5.3,7.3,12.9,8.5
			c6.5,0.9,8.1,1.7,11.4,5.4c4.8,5.4,7.3,7,12.2,7c6.4,0,9,1.3,11.5,5.5c2.6,4.5,6.1,6.3,14,7.2c4.3,0.5,6,1.5,9.8,5.9
			c4.1,5,5,5.3,12.2,6.1c6.3,0.8,8.1,1.4,9.5,3.7c4,6.4,5.4,7.4,10.5,8.1c7.9,0.9,11.3,2.7,14.9,7.6c1.8,2.4,7,8.1,11.4,12.5
			c4.4,4.3,10,9.9,12.2,12.1c4,4,5.1,4.5,13.5,5.7c3.1,0.4,5.3,1.6,6.4,3.5c2.9,4.8,24.5,27.7,34.5,36.7c8.9,7.9,9.9,8.5,16.4,9
			c5,0.5,7.2,1.3,8.1,2.8c2.2,3.9,24.8,29.3,33.5,37.5c8.1,7.6,8.8,8,16.2,8.8c6.2,0.8,8,1.4,9.4,3.7c4.1,6.6,5.3,7.4,12.4,8.5
			c7.1,1,7.1,1,27.3,22.5c11.1,11.8,20.5,22.3,21.1,23.3c0.6,1,1.3,4.5,1.8,7.6c0.8,5.2,2,7,13.3,18.9c6.9,7.2,13.6,13.7,15.2,14.3
			c4.7,1.8,10.3-0.9,13-6.3c1.2-2.5,3.1-5,4.1-5.5c1-0.4,7.1-0.8,13.5-0.8c11.3,0,11.8-0.1,14.9-3.5c1.8-2,3.8-4.6,4.4-5.9
			c1.2-2.3,2.4-2.4,18.3-2.1c14.1,0.3,17.7,0,21.2-1.6c2.3-1.1,4.4-3,4.8-4.2c0.3-1.2,1.8-3.3,3.1-4.5c2.2-2.2,4.2-2.3,24.7-2
			c13.4,0.2,23.6-0.1,25.5-0.9c1.8-0.8,4.3-3.6,5.8-6.3c1.4-2.7,3.8-5.3,5.1-5.7c1.3-0.4,6.9-0.1,12.2,0.6
			c11.3,1.5,234.3,1.7,255.6,0.2c13.3-0.9,13.3-0.9,18.9-7.3c5.6-6.4,5.6-6.4,17.5-6.1c11.8,0.3,11.9,0.3,19.4-7.7
			c6.8-7.3,7.5-8.7,8.3-14.8c0.7-4.7,1.7-7.3,3.7-9.1c11.8-10.8,108.3-112,125-131c12.1-13.8,12.1-13.8,12.1-36.4
			c0-27.4-0.1-27.5-10.7-28.4c-7.4-0.6-7.3-0.5-12.8-8.5c-1.3-2.1-3.5-2.8-9.9-3.6c-6.5-0.8-8.4-1.4-10-3.7c-4.9-7.4-6.9-8.7-13-8.7
			c-7.3,0-9.5-1.2-12.6-6.6c-2.2-3.9-3-4.3-9.2-5.1c-10-1.2-10.7-1.5-13.9-6.8c-1.6-2.6-5-5.9-7.5-7.3c-8.1-4.3-9.2-12.8-2.3-16.6
			c4.4-2.4,6.8-6.1,7.7-12.6c0.8-4.7,2.4-7.1,15.6-21.1c14.6-15.5,15-15.9,21.1-16.5c5.1-0.6,7.1-1.7,11.6-6.1
			c3-2.9,6.5-6.2,7.8-7.3c1.3-1.1,3.7-3.9,5.4-6.3c2.8-3.9,3.9-4.3,10.4-5.1c7.3-0.8,7.3-0.8,24.1-18.7
			c16.1-17.2,16.9-17.9,21.4-17.9c2.6,0,5.9-0.6,7.2-1.4c3.5-2,22.5-20.3,33.9-32.9c5.2-5.7,10.7-11.5,12.1-12.9
			c1.4-1.4,4.5-5.3,6.8-8.5c3.8-5.5,4.3-5.9,9.2-5.9c2.9,0,6.5-0.5,8.1-1.2c3-1.2,37.6-37,42.8-44.2c2.4-3.3,3.9-4.1,8.2-4.7
			c6-0.8,11.8-2.7,11.8-4.1c0-0.5,1.3-2.7,3-4.8c3-3.8,3-3.8,17-3.8c15.2,0,14-0.5,20.5,8.4c1.6,2.2,3.9,3,9.6,3.9
			c6.9,1,8,1.6,11.8,6.2c3.9,4.8,4.8,5.2,12.2,6.2c6.5,0.8,8.4,1.6,9.9,3.9c3.2,5.2,5.7,7.1,10.2,7.8c2.4,0.4,5.7,1,7.1,1.3
			c1.4,0.3,6.8,5,11.6,10.4c11,12.2,14.7,14.8,21.7,14.8c3.9,0,5.9,0.8,7.2,2.4c8.9,11.1,7.1,10.4,26.3,9.6
			c19.5-0.9,17.5-1.5,25,8.5c2.8,3.7,2.8,3.7,22.9,4c11.1,0.2,21.4,0.1,23-0.3c1.6-0.4,7.7-5.9,13.6-12.2
			c10.2-10.9,11.2-11.5,17-12.3c5.3-0.8,7.1-1.7,12.5-7.2c9.3-9.3,9.6-10.3,9.6-30.5c0-17.2,0-17.4,3.1-20.4c1.7-1.6,3.5-3,4-3
			s1.9-1.8,2.9-3.9c1.7-3.5,2-8.6,2.1-34.7c0.1-30.6,0.1-30.6,3.7-33.7c2-1.6,3.9-2.9,4.1-2.9c2,0,3.4-7.5,3.4-18
			c0-12.3,0.4-13.4,6.9-17.8c2-1.4,3.2-4.2,4.9-11.7c2.4-10.6,4.1-13,9.9-13c6.9,0,11.6-2.3,14.4-6.8c3.7-6,6.2-6.7,18.4-5.3
			c10,1.2,43.7,0.6,55.8-1c5-0.6,5.8-0.4,8.2,2.6c6.4,8.3,7.3,8.8,14.3,9.7c6.9,0.8,7,0.9,16.6,11.8c10.1,11.4,13.5,13.5,22.1,13.5
			c3,0,4.5,1,7.5,5.1c2.1,2.7,5,5.5,6.4,6.1s11.8,1.1,23,1.2c20.4,0.2,20.4,0.2,31.5-10.5c6.1-5.9,14.9-15.1,19.5-20.5
			c8-9.2,8.4-10.2,9.2-17.3c0.7-5.9,1.4-8,3.5-9.5c5.8-4.1,54.1-55.3,56.9-60.2c2.9-5.1,3.1-5.3,9.2-5.3c5.4,0,7-0.6,10.7-3.9
			c8.2-7.3,15.8-15.1,20.3-21.2c3.8-5,4.5-6.9,4.5-11.5c0-4.5,0.7-6,3.1-8.3c1.8-1.5,7.7-7.6,13.2-13.7c5.5-6.1,14.4-15.4,19.6-20.9
			c5.3-5.4,9.5-10.4,9.2-11.2c-0.2-0.8-3.8-1.6-7.8-2.2c-6.8-0.8-7.8-1.2-11.8-5.8c-4.4-5.2-5.9-5.8-15.1-6.8
			c-5.2-0.6-5.7-1-10.7-8.4c-1.4-2.2-3.5-2.9-10-3.7s-8.4-1.4-9.9-3.7c-4.8-7.4-6.8-8.6-13.2-8.6c-6.8,0-9-1.2-11.5-6.2
			c-2.2-4.5-15.5-17-18.7-17.7c-1.4-0.3-4.7-0.9-7.1-1.3c-3.8-0.6-7-3.5-21.2-18.6c-16.8-17.8-16.8-17.8-22.9-17.8s-6.1,0-17.3-12
			c-11.1-11.8-11.3-12-18.1-12.8s-7-1-17.5-12.3c-10.7-11.5-10.7-11.5-18.4-12.3c-6.3-0.8-8.1-1.4-9.5-3.8
			c-4.2-6.8-5.6-7.6-16.6-9.1c-4.9-0.8-5.9-1.3-8.4-5.5c-3.2-5.5-5.8-6.6-13.4-6.1c-15,1-16.6,0.8-19.3-3c-5.6-8.3-7.1-9.2-14.1-9.2
			c-6.9,0-7.3-0.3-14-9.2c-2.7-3.7-2.7-3.7-25.6-3.6c-25.2,0.1-25.1,0-28.9,8c-1.2,2.5-2.9,4.8-3.8,4.8s-44.3,0.1-96.7,0.1
			c-95.2,0-95.2,0-97.6-3.2c-8.1-11-5.4-10-25-9.6c-19.1,0.4-21.2-0.1-24.1-5.8c-2-4-5.8-5.9-14.1-6.7c-4.2-0.4-6.3-1.3-7.5-3.4
			c-4.5-6.9-6.9-8.6-11.9-8.6c-7.7,0-10.1-1.1-12.8-5.8c-3.9-6.7-7.8-7.8-23.2-6.5c-15.4,1.3-19.4,0.8-22-3.4
			c-6.7-10.1-2-9.1-47.3-9.3c-40.5-0.2-40.5-0.2-84.1,46.2c-24,25.4-44.9,48-46.7,50.3c-3.1,3.9-3.4,4-10.4,3.6
			c-6.3-0.5-7.5-1-9.6-4c-5.6-8.1-5.7-8.3-14.1-9.2c-6.4-0.8-8.5-1.6-10-3.8c-4.9-7.4-6.7-8.6-13.4-8.6c-6.9,0-7.3-0.3-14.3-9.1
			c-2.6-3.3-2.8-3.3-15-2.9c-12.3,0.4-12.4,0.3-14.9-3c-8.3-11.2-4.1-10-35.5-9.9c-15.4,0.1-29.1,0.4-30.4,0.8
			c-1.2,0.4-3.3,3.2-4.4,6c-2.3,5.2-2.3,5.2-10.5,5.8c-8.1,0.6-12.1,2.4-12.1,5.5c0,0.8-1.3,3-2.9,4.9c-2.9,3.4-2.9,3.4-21.1,2.4
			c-20-0.9-20.7-0.8-23.6,6.6c-2.2,5.5-6,6.8-17.3,5.9c-5.2-0.4-18-0.8-28.3-1c-21-0.3-20.7-0.4-24.5,7.7c-2,4.2-2,4.2-35,4.6
			c-32.9,0.3-32.9,0.3-36.2-4.7c-3.9-6.1-8-8.6-14.7-8.6c-2.8,0-6.2-0.9-7.7-2c-2.4-1.7-2.6-2.9-2.7-14.6c-0.1-14.4-1.2-18.1-7-22.2
			c-6.3-4.5-7.2-7.3-6.4-19.7c0.8-11.8,1.3-10.6-9.1-20c-2.2-2.1-2.3-3-1.6-15.4c0.6-7.8,0.2-18.7-0.6-26.4
			c-1.1-11.5-1.1-13.4,0.6-16.2c1-1.6,2.7-3,3.7-3c3.5,0,7.5-5.8,7.5-11c0-8.5-4.1-10.8-17.9-9.7c-8.8,0.8-9.8,1.2-14,9.5
			c-1.9,3.7-2.4,3.9-9,3.9c-6.9,0-7.2,0.2-14.4,6.8c-4,3.8-9,9.1-11,12c-3.4,5-3.9,5.3-10.5,5.8c-6.5,0.6-7.4,1.1-14.9,8
			c-4.3,4-9,9.2-10.2,11.4c-3.5,5.9-5.6,6.6-18.7,6.2c-11.9-0.3-11.9-0.3-14.5,3.9c-4.9,8-5.8,8.6-12.9,8.6c-6.2,0-6.9-0.3-10.8-5
			c-2.3-2.7-15.1-16.6-28.4-30.9c-24.3-26-24.3-26-32.7-27.2c-8.6-1.1-8.7-1.2-13.8-8.7c-1.4-2.2-3.5-2.9-9.9-3.7
			c-6.5-0.8-8.4-1.4-10.2-3.8c-7.1-9.6-2.7-8.7-42.5-8.3c-35.7,0.4-35.7,0.4-38.5-3.3c-6.5-8.8-7.1-9.2-13.4-9.2
			c-5.9,0-5.9,0-21.3-16.4c-15.4-16.4-15.4-16.4-16.2-23.7c-0.8-6.6-1.3-7.8-6.2-12.5c-3.9-3.9-5.4-6.1-5.4-8.7
			c0-6.7-2.1-11.2-8.3-17.8c-6-6.3-6.7-6.7-13.8-7.4c-7.8-0.8-7.8-0.9-13.3-9c-1.9-2.7-2.9-3.2-9.1-3.2c-6.4,0-7.3-0.3-10.4-3.9
			c-1.9-2.2-3.4-4.3-3.4-4.9c0-0.5-1.4-1.7-3.2-2.6c-2.4-1.2-8.5-1.6-24.5-1.4c-23,0.3-23.5,0.4-26.8,7.2c-2.4,5.2-3.4,5.5-11.5,5.5
			c-7.7,0-11,2.3-12.8,8.5c-1.2,4.3-5.7,5.5-17.9,4.5c-12-0.9-13.4-0.4-16.1,6.4c-2.3,5.8-6.1,7.1-17.4,5.5
			c-11.6-1.5-14.9-0.4-17.7,5.9c-2.8,6.5-6.5,8-16.6,6.7c-13.1-1.7-15.5-0.8-18.4,6.5c-2.3,5.8-6.1,7.1-17.1,5.5
			c-11.8-1.6-15.1-0.4-18.1,6.2c-1.1,2.7-3.2,5.4-4.5,6c-1.3,0.5-15.4,0.8-31.3,0.3c-26.7-0.6-29.1-0.5-31.3,1.5
			c-1.2,1.2-2.3,2.8-2.3,3.7c0,0.8-1,2.6-2.4,4.1c-1.9,2.2-3.8,2.7-8.8,2.7c-8,0-10.3,1.3-13.3,7.3c-1.3,2.8-3.3,5-5,5.4
			c-4.2,0.9-49.4,0.3-51-0.8c-0.8-0.5-2.4-3-3.8-5.7c-1.2-2.6-4.7-6.5-7.4-8.6c-5.6-4-6.5-5.8-6.5-11.4c0-6.5-3-11.4-12.8-21.2
			c-9.6-9.6-11.8-13.4-11.8-21.1c0-3.3-1-4.7-8.3-11.2c-1.6-1.4-2.2-3.7-2.2-8c0-5.4-0.7-6.8-6.1-14.1c-3.4-4.5-8.4-9.8-11.1-11.8
			c-4.9-3.8-5.5-4.9-6.7-14c-0.8-6.5-2.4-8.3-8.2-8.3c-7.4,0-9.6-1.1-13.1-6.2c-1.7-2.6-3.9-5.1-5.1-5.5
			C4362,3059.8,4321,3059,4318.6,3059.8"/>
	</g>
	<g id="Layer_3">
		<path class="st0" d="M2672.4,3454.6c-2.8,0.5-6.3,3.8-6.3,5.8c0,0.8-0.9,2.7-2.2,4.3c-2.2,2.7-2.3,2.8-28.9,2.4
			c-36.8-0.6-35.6-0.8-38.3,2.7c-1.1,1.6-3.9,4.9-5.9,7.4c-4.2,5.2-5.2,8-5.4,16.1c-0.1,5.5-0.4,6-4.5,8.3
			c-7.2,3.9-7.5,4.8-6.7,17.8c0.4,6.4,0.4,12.8,0,14.2c-0.4,1.4-2.7,3.7-5.1,4.8c-5.3,2.6-7.2,6.5-7.2,14.7
			c0,9.6-2.3,11.7-12.1,12.1c-9.2,0.3-10.1,1.1-10.1,10.2c0,6.5-3.1,12.8-6.3,12.8c-3.3,0-5.6,4.7-5.9,12.4c-0.3,8-0.2,7.8-8.2,13.8
			c-2.4,2-3,3.2-3,8.6c0,9.2-0.9,11.6-5.3,13.7c-5.7,2.8-7.5,6.3-7.5,14.4c0,6.4-0.3,7.3-3.5,9.8c-2,1.4-14.9,14.6-28.6,29
			c-24.3,25.5-25.1,26.5-25.1,31.2c0,7.1-1.8,11-6.4,13.8c-5.4,3.4-5.5,7.1-0.1,11.5c3.3,2.7,4.2,4.5,5.4,10.6
			c1.9,10.2,3.1,11.3,13.3,11c13.6-0.5,13-0.8,23.8,11.3c10.9,12.2,14.7,14.7,22.9,14.7c4.9,0,5.5,0.4,8.5,5.3
			c3.1,4.9,3.8,5.3,9.4,5.5c5.1,0.3,6.4-0.1,8.2-2.4c7.5-10.1,6.9-9.8,24-8.7c17.7,1,59.1,1.2,79.6,0.3c13.9-0.6,13.9-0.6,17.5,3.9
			c4.5,5.5,7.7,7.3,12.9,7.3c4.2,0,10.1,2.2,10.1,3.8c0,0.5,1.6,2.6,3.4,4.8c3.3,3.8,3.5,3.9,15.3,3.9c11.9,0,11.9,0,18.1,6.6
			c6,6.6,6,6.6,23.5,7.6c11.8,0.6,21.2,0.4,28.8-0.5c12.9-1.6,14.9-1.1,18,5c3,6.2,7.9,7.5,25.9,7.1c15.8-0.4,15.8-0.4,20.9,5.8
			c5.1,6.2,5.1,6.2,24,6.2c18.4,0,19,0.1,20.9,2.8c6.9,10.2,5,9.5,25.2,9.5c18.2,0,18.2,0,23.3,5.9c5.1,5.9,5.1,5.9,17.5,5.9
			c10.3,0,12.6,0.3,14.2,2.2c0.9,1.2,3.3,4,5.2,6.5c3.4,4.2,3.4,4.2,21.6,4.2c18.3,0,18.3,0,22.3,4.6c4.8,5.5,7.5,7.1,12,7.1
			c5.6,0,10.2,2.4,12.3,6.2c2.1,3.7,5.5,5.2,15,6.8c2.9,0.5,5.4,2.1,7.8,4.9c4.5,5.5,7.2,6.9,13.2,6.9c4.3,0,5.5,0.6,10.1,5.8
			c4.7,5.3,5.7,5.9,12.3,6.8c6.3,0.9,7.9,1.7,12.2,6.2c4.3,4.5,5.8,5.3,12.3,6.1c7.3,1,7.8,1.3,12.6,8.5c1.2,2,3.8,2.8,9.3,3.7
			c7.1,1,7.9,1.5,12.4,7.1c4.9,5.9,4.9,5.9,18.6,6.7c7.5,0.5,21,0.6,29.6,0.2c15.4-0.8,15.9-0.6,19.1,2.3c2.4,2.2,3.4,4.5,3.9,8.6
			c0.9,8.4,2.6,11.8,7,15c3.9,2.8,4.3,3.7,5.7,12.2c1,6.9,2.9,8.6,10.4,9.7c7,1,7.1,1.2,12.3,8.7c1.2,2,3.8,2.8,9.3,3.7
			c7.1,1,7.9,1.5,12.4,7.1c4.9,5.9,4.9,5.9,15.2,6.7c5.7,0.4,18.7,0.9,29.1,0.9c21.2,0.1,30.4-1.5,33.3-6.2c5.1-8,4.7-7.8,18.9-8
			c12.3-0.1,13.3-0.3,15-2.9c5.4-8.3,7.8-9.9,14.7-9.9c5.7,0,7-0.4,9.1-3.3c5.6-7.1,6.3-7.5,13.4-8.4c7-0.8,7.1-0.9,18.2-12.5
			c7.5-7.8,12.1-11.7,13.9-11.7c6.2,0,11.1-2.6,17.6-9.7c6.1-6.5,6.9-7.9,7.7-13.9c0.8-6.4,1.3-7.2,10.9-17.2
			c11.3-11.8,12.6-14,12.6-20.3c0-4.8,3.7-9.1,25.9-30.7c12-11.7,31.1-34.4,31.8-37.9c0.3-1.5,0.8-5.3,1.1-8.4
			c0.4-3.9,1.3-6.1,3.1-7.4c6.8-4.9,8.1-7.1,8.2-13.3c0-6.5,0.4-7.3,4.8-10.9c3.5-2.8,15.3-17.4,17.3-21.2c0.8-1.4,1.3-4.6,1.3-7.1
			c0-3.5,0.9-5.3,4.9-9.2c6.4-6.5,5.6-8.7-3.1-8.7c-6.8,0-8.6-1.1-13.4-8.7c-1.4-2.2-3.4-3-9-3.7c-7.1-0.9-7.1-0.9-17.9-12.4
			c-10.7-11.5-10.7-11.5-17.9-12.4c-6.7-0.8-7.5-1.3-11.5-6.2c-4-5-4.8-5.3-12.2-6.1c-6.5-0.8-8.2-1.4-9.8-3.8
			c-4.1-6.8-6.8-8.5-12.9-8.5c-5.9,0-5.9,0-17-12s-11.1-12-18.9-12.8c-6.3-0.8-8.2-1.4-9.6-3.7c-4.2-6.8-5.3-7.5-12.8-8.5
			c-6.9-0.8-7.8-1.3-12.2-6.5c-2.7-3-6.5-6.5-8.6-7.6c-7.9-4.2-8.2-10.4-0.9-15.9c5.3-3.9,7.5-8.6,7.5-15.6c0-2,2.1-5,5.8-8.8
			c4.9-5,5.9-6.8,6.5-11.8c1.2-10.1,1.6-11,4.8-12.8c3.9-2.3,5.5-5.3,6.5-13.5c0.8-5.3,1.6-7.4,4.1-9.6c1.8-1.5,3.9-3.4,4.7-4
			c1.8-1.5,0.8-4.5-3.3-9.5c-1.8-2.3-3.9-6.4-4.5-9.2c-2.3-9-3.3-10.8-7.5-13.4c-2.3-1.4-4.1-3.5-4.2-4.6c-0.1-1.1-0.3-3.9-0.4-6.3
			c-0.6-8.1-1.6-9.7-20.2-28.1c-2.9-2.9-3.9-4.8-3.9-8.3c0-6.4-2.7-12.4-7-14.9c-3.7-2.4-5.9-7.6-5.9-14.1c0-5.4-3.1-8.6-8.2-8.6
			c-5.1,0-7.7,2.2-10.2,8.4c-2.4,6.1-5.7,7.1-17.1,5.5c-11.6-1.6-14.4-0.6-17.9,6.5c-2.4,4.9-2.4,4.9-10.5,5.5
			c-9.5,0.8-10.7,1.4-13,7.1c-2.4,6-6,7.1-17.2,5.5c-11.6-1.5-14.9-0.5-17.6,5.8c-2.9,6.7-5.9,7.8-19.3,6.8
			c-12.3-0.9-12.4-0.9-16.3,7.1c-2.4,5.3-5.5,5.9-23,4.7c-17.9-1.2-20.6-0.5-23.2,6.3c-1,2.8-2.9,5.3-4.4,5.9
			c-4.2,1.5-49.1,0.8-52-0.9c-1.4-0.8-3.3-2.9-4.2-4.9c-3.4-7.1-3.1-6.9-35.3-6.5c-29.6,0.4-29.6,0.4-32.3-2.5
			c-1.4-1.6-3.4-4.1-4.4-5.7c-2.6-4.2-7.5-4.8-34.3-3.9c-13.4,0.5-25.8,0.5-27.5,0c-1.8-0.5-4.4-3-6.3-5.9c-1.8-2.7-4.7-5.5-6.4-6.1
			c-1.8-0.6-17.4-0.8-34.7-0.4c-17.3,0.5-32.7,0.5-34.3,0.2c-1.6-0.3-4.2-2.7-6.2-5.5c-1.9-2.7-4.7-5.7-6-6.5
			c-1.9-1-10.1-1.1-29.2-0.4c-15.6,0.6-27.8,0.5-29.4-0.1c-1.6-0.6-4-3.4-5.7-6c-1.6-2.6-3.7-5.3-4.4-5.9c-0.8-0.5-15-0.8-31.5-0.6
			c-30.1,0.4-30.1,0.4-33.8-5.3c-2.1-3.2-4.8-6-6.1-6.4C2771.9,3454.4,2676.5,3453.7,2672.4,3454.6"/>
	</g>
</g>
<text transform="matrix(1 0 0 1 242.7417 511.5977)" class="st1 st2">Villanueva</text>
<text transform="matrix(1 0 0 1 360.3384 2394.0566)" class="st3 st1 st2">LEGEND</text>
<ellipse class="st4" cx="302" cy="2681.8" rx="58.4" ry="57.1"/>
<ellipse class="st5" cx="302" cy="2867.8" rx="58.4" ry="57.1"/>
<ellipse class="st6" cx="302" cy="3053.7" rx="58.4" ry="57.1"/>
<ellipse class="st7" cx="302" cy="3239.7" rx="58.4" ry="57.1"/>
<ellipse class="st8" cx="302" cy="3425.5" rx="58.4" ry="57.1"/>
<ellipse class="st9" cx="302" cy="3611.5" rx="58.4" ry="57.1"/>
<ellipse class="st10" cx="302" cy="3797.4" rx="58.4" ry="57.1"/>
<ellipse class="st11" cx="302" cy="3983.3" rx="58.4" ry="57.1"/>
<ellipse class="st12" cx="302" cy="4169.2" rx="58.4" ry="57.1"/>
<ellipse class="st13" cx="302" cy="4355.1" rx="58.4" ry="57.1"/>
<ellipse class="st14" cx="302" cy="4541.1" rx="58.4" ry="57.1"/>
<ellipse class="st15" cx="302" cy="4727" rx="58.4" ry="57.1"/>
<ellipse class="st16" cx="302" cy="4912.9" rx="58.4" ry="57.1"/>
<ellipse class="st17" cx="302" cy="5098.8" rx="58.4" ry="57.1"/>
<ellipse class="st18" cx="302" cy="5284.8" rx="58.4" ry="57.1"/>
<text transform="matrix(1 0 0 1 427.3486 2726.2471)" class="st19 st1 st20">Barangay Halls</text>
<text transform="matrix(1 0 0 1 427.6152 2907.6025)" class="st21 st1 st20">Health Centers</text>
<text transform="matrix(1 0 0 1 423.1523 3096.0996)" class="st22 st1 st20">Road (FMR)</text>
<text transform="matrix(1 0 0 1 427.0244 3274.6875)" class="st23 st1 st20">H20 System</text>
<text transform="matrix(1 0 0 1 436.1885 3462.0635)" class="st24 st1 st20">MOWDIR</text>
<text transform="matrix(1 0 0 1 436.1885 3651.0049)" class="st25 st1 st20">Market</text>
<text transform="matrix(1 0 0 1 436.1885 3651.0049)" class="st26 st1 st20">Market</text>
<text transform="matrix(1 0 0 1 435.5981 3834.8379)" class="st1 st20">Flood Control</text>
<text transform="matrix(1 0 0 1 444.1719 4024.3799)" class="st27 st1 st20">Streetlights</text>
<text transform="matrix(1 0 0 1 438.0688 4211.2617)" class="st28 st1 st20">Bridges</text>
<text transform="matrix(1 0 0 1 435.5981 4394.7168)" class="st29 st1 st20">Road Widening</text>
<text transform="matrix(1 0 0 1 435.5986 4576.9258)" class="st30 st1 st20">Hospitals</text>
<text transform="matrix(1 0 0 1 435.5981 4760.2939)" class="st31 st1 st20">Daycare Center</text>
<text transform="matrix(1 0 0 1 435.5981 4959.3428)" class="st32 st1 st20">Pedestrian Overpass</text>
<text transform="matrix(1 0 0 1 442.7324 5138.5195)" class="st33 st1 st20">Covered Courts</text>
<text transform="matrix(1 0 0 1 435.5986 5319.8037)" class="st34 st1 st20">School Buildings</text>
<text transform="matrix(1 0 0 1 5873.877 1325.7415)" class="st1 st35">Imelda</text>
<text transform="matrix(1 0 0 1 7263.2188 3059.3313)" class="st1 st35">Kimaya</text>
<text transform="matrix(1 0 0 1 4805.5288 4669.9004)" class="st1 st35">San Martin</text>
<text transform="matrix(1 0 0 1 2622.6431 4169.2422)" class="st1 st35">Tambobong</text>
<text transform="matrix(1 0 0 1 2158.2515 3096.0999)" class="st1 st35">Balacanas</text>
<text transform="matrix(1 0 0 1 2902.1785 2555.0193)" class="st1 st35">Katipunan</text>
<text transform="matrix(1 0 0 1 3695.5691 1521.7344)" class="st1 st35">Looc</text>
<text transform="matrix(1 0 0 1 3113.7324 2052.5369)" class="st1 st35">Poblacion</text>
<line class="st36" x1="5115.4" y1="3005.3" x2="3925" y2="4475.4"/>
<text transform="matrix(1 0 0 1 3635.9434 4598.1631)" class="st1 st35">Dayawan</text>
<ellipse class="st6" cx="4991.9" cy="2810.7" rx="58.4" ry="57.1"/>
</svg>
