<?xml version="1.0" encoding="utf-8"?>
<!-- Generator: Adobe Illustrator 27.1.0, SVG Export Plug-In . SVG Version: 6.00 Build 0)  -->
<svg version="1.1" id="Layer_1" xmlns="http://www.w3.org/2000/svg" xmlns:xlink="http://www.w3.org/1999/xlink" x="0px" y="0px"
	 viewBox="0 0 6463.3 4773.2" style="enable-background:new 0 0 6463.3 4773.2;" xml:space="preserve">
<style type="text/css">
	.st0{fill-rule:evenodd;clip-rule:evenodd;fill:#FBFBFB;}
	.st1{fill-rule:evenodd;clip-rule:evenodd;fill:#9C14E4;}
	.st2{fill:#0B0BF9;stroke:#FFFFFF;stroke-miterlimit:10;}
	.st3{fill:#F9F912;stroke:#FFFFFF;stroke-miterlimit:10;}
	.st4{fill:#F70D34;stroke:#FFFFFF;stroke-miterlimit:10;}
	.st5{fill:#8800FF;}
	.st6{font-family:'ArialMT';}
	.st7{font-size:125.7071px;}
	.st8{fill:#7400EF;}
	.st9{fill:#7F00EF;}
	.st10{fill:#8703EF;}
	.st11{font-size:134.6862px;}
	.st12{font-size:200px;}
</style>
<path class="st0" d="M3252.9,511.2c-4.5,4.9-5.4,5.3-12.3,6c-6.1,0.6-7.9,0.4-9.7-1.4c-2.2-2.1-2.2-2-0.5,0.7
	c1.4,2.3,1.7,5.7,1.3,18.8c-0.3,8.8-0.7,17.1-1,18.5c-0.3,1.4-2.5,3.7-5.1,5.3c-2.5,1.5-5.1,4.1-5.6,5.6c-0.5,1.6-0.7,10.5-0.3,19.9
	c0.7,17.1,0.7,17.1-5.3,23c-6,5.9-6,5.9-5.4,22.7c0.6,15.8-0.3,23.6-2.6,23.6c-0.5,0-2.7,1.8-5,4.1c-4,4.1-4,4.1-4,22.7
	c0,18.6,0,18.6-5.7,24.3c-5.7,5.7-5.7,5.7-5.4,24c0.4,18.3,0.4,18.3-5.5,24.2c-5.9,5.9-5.9,5.9-5.9,24.8c0,18.9,0,18.9-5.8,24.2
	c-5.8,5.2-5.8,5.2-5.1,21.9c0.6,15.9-0.3,24-2.6,24c-0.5,0-2.7,1.8-5,4.1c-4,4.1-4,4.1-4,22.6c0,18.5,0,18.5-5.5,24.2
	c-5.5,5.7-5.5,5.7-4.9,23.6c0.6,17.9,0.6,17.9-5.4,23.9c-6,6-6,6-6.1,73.5c-0.1,67.5-0.1,67.5-5.7,72.8c-5.6,5.3-5.6,5.3-5.6,48.5
	c0,43.2,0,43.2-5.9,48.9c-5.9,5.7-5.9,5.7-5.2,45.1c0.8,45.2,0.7,46.1-7.2,53c-5.1,4.5-5.1,4.5-4.7,22.9
	c0.5,24.2,0.7,23.8-15.7,23.3c-11.7-0.3-11.7-0.3-16.4,5.3c-6.9,8.4-9.2,8.8-38.5,7.9c-24.8-0.8-24.8-0.8-30,5.3
	c-5.2,6.1-5.2,6.1-33.8,6.1c-28.6,0-28.6,0-33.8,6.1c-5.2,6.1-5.2,6.1-18,6.3c-7.1,0.1-20,0.1-28.6-0.1c-8.7-0.2-16.3,0.2-16.9,0.7
	c-0.6,0.5-2.5,3-4.3,5.5c-4.7,6.8-8.4,7.4-37.7,6.7c-25.1-0.7-25.1-0.7-29.1,4.6c-5.8,7.7-10,8.5-39.6,7.5
	c-23.9-0.8-23.9-0.8-28.3,4.7c-3,3.8-5.7,5.9-8.4,6.5c-2.2,0.5-15.4,0.8-29.2,0.6c-25.2-0.4-25.2-0.4-30.3,5.5
	c-6.4,7.3-8.2,7.6-39.8,6.8c-21.9-0.6-23.5-0.5-25.2,1.6c-7.1,9.1-7.9,9.6-14.6,10.5c-3.7,0.5-16.6,0.6-28.7,0.2
	c-12.1-0.4-22.5-0.3-23.1,0.1c-0.6,0.5-2.5,2.9-4.2,5.3c-3.9,5.6-8.6,6.6-31.1,6.5c-16.2-0.1-16.2-0.1-21.4-6.4
	c-4.7-5.7-5.7-6.4-9.9-6.4c-5,0-11.7-2.1-11.7-3.6c0-0.5-1.4-2.6-3.2-4.6c-2.6-2.9-4.5-3.8-9.9-4.5c-6-0.8-7.2-1.4-11.3-6.2
	c-3.9-4.6-5.2-5.3-9.1-5.3c-6.8,0-10.8-2-13.7-6.7c-3.5-5.9-6.9-7-18.1-6c-9.4,0.8-9.4,0.8-14.7-5.4c-4.7-5.5-5.8-6.2-9.9-6.2
	c-7,0-11.2-2.1-14.3-7.2c-2.7-4.3-3.2-4.6-9.9-5.3c-6.6-0.6-7.4-1-11.9-6.2c-4.1-4.8-5.4-5.6-9.2-5.6c-6.7,0-11.1-2.2-13.6-6.8
	c-3.2-5.8-6.7-6.9-18-6c-9.5,0.8-9.5,0.8-14.7-5.3c-4.9-5.7-5.7-6.1-10.5-6.1c-6.8,0-9.8-1.6-13.4-7.2c-2.8-4.3-3.5-4.7-10.1-5.5
	c-6.4-0.8-7.6-1.4-11.4-5.8c-3.8-4.4-5-5-11.3-5.8c-6.3-0.8-7.4-1.4-11-5.7c-5.5-6.7-7.5-7.5-18.4-7.5c-11.8,0-15.8,1.4-18.8,6.8
	c-1.3,2.3-3.6,4.7-5.2,5.4c-1.6,0.7-10.1,1.2-18.9,1.2c-16,0-16,0-21.2,6.1c-5.2,6.1-5.2,6.1-22.7,6.1c-17.5,0-17.5,0-21.9,5.6
	c-5.4,6.9-9,7.8-27.5,6.9c-12.7-0.6-13.3-0.6-15.3,2.1c-7.6,10-5.8,9.1-19,9.1c-12,0-12,0-17.3,6.4c-5.3,6.4-5.3,6.4-22.7,6.4
	c-17.5,0-17.5,0-22.8,6.2c-5.3,6.3-5.3,6.3-22.3,5.5c-16.6-0.8-17-0.7-19.2,1.9c-9.4,11.6-7.9,10.9-19,9.9c-10-0.8-10-0.8-7.5,7.5
	c1.6,5.2,2.2,8.9,1.5,9.7c-1.2,1.6,15.4,3.6,19.2,2.3c1.3-0.4,3.6-3.2,5.3-6.2c1.6-3,4.2-6,5.7-6.6c1.6-0.7,8.5-0.8,16.6-0.2
	c17.5,1.1,20,0.7,22-4c3.6-8.4,3.3-8.3,23-7.3c17.7,0.8,17.7,0.8,20.6-2.5c1.6-1.8,2.8-4,2.8-4.9s1.3-2.5,2.8-3.6
	c2.3-1.6,4.5-1.8,12.7-1.1c11.8,1,15.4-0.2,17.6-5.7c2.8-7.2,3.7-7.5,21.1-6.6c8.7,0.4,17,0.5,18.6,0c1.8-0.5,3.7-2.5,5.1-5.5
	c3.9-8.2,5.6-8.8,22.6-7.4c17.2,1.4,20.2,0.8,22.3-4.1c3.6-8.3,3.3-8.2,22.9-7.3c19.7,0.9,18.5,1.3,23.9-7.8c2.4-4.1,2.7-4.3,11.5-5
	c11.2-0.9,15.8,0.4,17.9,4.8c2.6,5.3,4.9,6.7,12.9,7.6c6.1,0.7,7.8,1.3,9.2,3.7c4.1,6.9,6.4,8.3,13,8.3c5.5,0,6.7,0.4,8.8,3.2
	c6.6,8.6,7.1,8.9,13.7,8.9c6.7,0,7,0.3,13.5,9.1c2.7,3.6,2.7,3.6,14.6,3.3c13.1-0.4,12-0.9,18.5,8.2c1.7,2.4,3.5,3.1,9.9,3.8
	c6.3,0.7,8.1,1.4,9.5,3.7c4,6.5,5.2,7.4,10.8,8c6.1,0.6,11.8,2.6,11.8,4.1c0,0.5,1.5,2.6,3.3,4.7c2.8,3.2,4.1,3.8,8.7,3.9
	c7.3,0.1,8.7,0.9,12.6,6.8c4,5.9,8.8,7.4,17.5,5.3c7.3-1.8,12.2,0,15.4,5.6c2.8,4.8,6,6.5,12.5,6.5c5.8,0,8.4,1.6,10.7,6.4
	c2.5,5.3,3.3,5.7,11,5.7c6,0,6.9,0.4,9.6,3.8c6.4,8.2,6.6,8.3,13.2,8.3c5.7,0,6.6,0.4,11.4,5.1c10,10,9.8,9,10.3,37.6
	c0.3,16.7,0,26.8-0.8,29.5c-0.7,2.3-3.5,6-6.4,8.6c-5.2,4.6-5.2,4.6-4.4,14.4c1.1,14.5,0.8,127.9-0.5,133.6
	c-0.7,3.4-2.4,6.1-5.9,9.3c-4.8,4.4-4.8,4.4-4.6,67.9c0.2,37.4-0.2,65.5-0.8,68.4c-1,4.5-3.6,7.9-8.5,11c-1.9,1.2-2,5-1.8,72.8
	c0.2,50.8-0.1,72.6-1,75.2c-0.7,2-3.4,5.6-6,8c-4.7,4.4-4.7,4.4-4.7,52.8c0,36.2-0.4,49-1.4,51c-0.8,1.4-3.1,3.8-5.2,5.2
	c-4.9,3.3-5.4,5.6-3.9,19.5c1.6,14.7,0.3,55.1-1.9,59.4c-0.8,1.7-3.3,4.5-5.5,6.4c-5.7,4.8-6.8,10.4-5.2,25.3
	c1.3,12.3,1,14.5-3.1,19.5c-1.6,2-10.1,2.1-148.5,2.1c-125,0-147.1,0.3-149,1.7c-2.1,1.7-2.2,3.8-2.4,53.7c-0.4,83-1,109.8-2.8,111
	c-3,2-5.5,1-8.2-3.6c-3.7-6.3-8.4-8.3-14.9-6.5c-8.7,2.5-10.5,2-16.3-4.7c-4.9-5.8-5.7-6.2-11.9-6.8c-6.2-0.6-7-1.1-11.3-6.3
	c-4.7-5.6-4.7-5.6-16.8-5.6c-12.1,0-12.1,0-16.2-5.1c-5.4-6.7-8.4-7.7-19.3-6.8c-9.1,0.8-9.1,0.8-14.4-5.5c-5-5.8-5.8-6.3-12.4-7.3
	c-6.4-0.9-7.4-1.5-12-6.8c-5-5.7-5-5.7-16.5-5.4c-11.5,0.4-11.5,0.4-16.4-5.7c-4.9-6.1-4.9-6.1-16.9-6.1s-12,0-16.7-5.7
	c-4.3-5.3-5.2-5.7-11.4-6.5c-6.3-0.7-7.2-1.3-12-6.8c-5.2-6-5.2-6-16.8-5.6c-11.5,0.3-11.5,0.3-16.4-5.7c-4.9-6.1-4.9-6.1-16.9-6.1
	c-12,0-12,0-16.7-5.7c-4.4-5.3-5.3-5.8-12.1-6.9c-5.4-0.9-7.9-1.9-9.4-4c-1.1-1.5-2.8-3.7-3.7-4.9c-1.1-1.5-3.3-2.1-7.2-2.1
	c-7.6,0-10.7-1.5-12.5-6c-1.8-4.6-4.2-6.1-9.6-6.1c-6.4,0-11.3-3.2-21.3-14c-8.7-9.4-9.5-10-15.3-10.9c-5.2-0.8-6.9-1.7-11-6.2
	c-4.1-4.5-5.6-5.3-9.2-5.3c-6.8,0-8.9-1.4-19.8-13.2c-8.5-9.2-10.7-11-13.7-11c-2,0-4.9-0.6-6.6-1.3c-3.8-1.6-15.1-12.1-18-16.9
	c-2.6-4.2-6.1-6.2-10.9-6.2c-1.9,0-4.5-0.6-5.9-1.4c-3.4-2-14.4-12.8-17.4-17.3c-3.1-4.6-7.2-6.7-13.4-6.7c-4.2,0-5.2-0.7-8.9-5.5
	c-3.3-4.3-4.9-5.5-7.7-5.5c-7,0-11.4-2.4-18.8-10c-4-4.2-8.5-9.1-9.9-10.9c-2-2.7-3.4-3.3-7.3-3.3c-2.8,0-6.2-1-8.2-2.3
	c-4.2-2.9-14-12.9-17-17.4c-1.7-2.6-3.8-3.7-10.1-5.1c-6.9-1.5-8.4-2.4-11.8-6.7c-3.5-4.3-4.6-5-8.7-4.9c-7.2,0-9.1-1.2-20.1-13
	c-9.7-10.3-10.4-10.9-16.1-11.6c-5.3-0.7-6.8-1.6-13.8-8.3c-4.3-4.2-7.9-7.9-7.9-8.4c0-0.4-1.2-2.2-2.8-4c-2.1-2.4-3.8-3.2-7.3-3.2
	c-7,0-9.2-1.4-20-13c-9.5-10.2-10.4-10.9-16-11.7c-8-1.1-9.1-1.7-11.1-5.8c-2-4.1-4.5-5.4-12.3-6.5c-5.3-0.7-6.2-1.4-16.1-12.3
	c-8-8.8-11.5-11.8-14.7-12.6c-6.6-1.6-7.5-1.4-9.6,2.8c-3.9,7.8-5,8.7-7.2,6.9c-1.3-1.1-1-0.2,0.8,2.6c3.4,5.3,4.4,6,7.9,6.1
	c7.1,0.1,11.1,2.6,21.6,13.6c10.4,11,10.7,11.2,17.3,12c5.2,0.7,7.2,1.5,8.7,3.7c1.1,1.6,2.6,3.8,3.5,5c0.9,1.3,3.5,2.4,6.6,2.8
	c9.4,1.1,10.4,1.8,20.9,13.3c10.4,11.5,10.4,11.5,16.2,11.5c5.8,0,5.8,0,16.5,11.6c10.6,11.5,10.8,11.6,17.1,12.3
	c6.3,0.7,6.5,0.8,17.4,12.6c11,11.9,11,11.9,16.8,11.9c6,0,6.4,0.2,12.1,8.3c1.6,2.2,3.5,3,8.8,3.5c6.6,0.6,7,0.9,15.2,9.3
	c4.6,4.8,9.3,9.9,10.3,11.3c1.3,1.8,3.7,2.9,7.3,3.4c8.6,1.2,11.9,3.4,21.3,14.5c8.9,10.4,8.9,10.4,14.9,10.4
	c6.2,0,8.6,1.6,12.7,8.3c1.4,2.4,3.1,3,9.3,3.7c7.6,0.8,7.6,0.8,17.7,12.1c10,11.1,10.2,11.3,16.7,12.1c6.4,0.8,6.7,1,16.9,12.1
	c10.2,11,10.5,11.3,17.1,12.3c6.6,1,6.9,1.2,17.4,12.6c10.7,11.6,10.7,11.6,16.4,11.6c5.9,0,7.8,1.3,12.4,8.4
	c1.2,1.8,3.2,2.8,6.8,3.2c2.8,0.3,6.1,0.8,7.4,1.1c3,0.6,16.1,13,19,18c3,5.2,3.7,5.5,10.4,5.6c7.8,0,9.2,0.8,10,5.3
	c1,5.6-1,9.8-6.5,13.7c-4.8,3.4-4.9,3.7-5.5,11.6c-0.6,7.7-0.9,8.3-5.9,13.4c-5.3,5.3-5.3,5.3-5.3,17.7c0,12.4,0,12.4-5.5,18.1
	c-5.1,5.3-5.5,6.3-6.3,13.3c-0.6,6.2-1.3,8-3.7,9.7c-7.2,5.3-7.2,5.4-6.9,19.1c0.3,12.7,0.3,12.7-5.1,17.9c-4.8,4.6-5.5,6-6.4,12.1
	c-1,7-2.8,11.9-4.3,11.9c-0.4,0-2.2,1.4-3.9,3.1c-3,3-3.1,3.5-3.1,15.8c0,12.7,0,12.7-5.5,18.5c-5,5.2-5.6,6.4-6.4,12.9
	c-0.8,7.2-1.2,7.8-8.4,13.9c-2.7,2.3-2.8,2.8-2.5,14.8c0.3,12.4,0.3,12.4-5.5,18.2c-5.7,5.7-5.9,6-6,13.1c-0.1,4-0.5,7.6-0.9,8.1
	c-1.4,1.5-5-0.7-9.9-6.1c-4.6-5-5-6-5.5-13c-0.5-7.6-0.5-7.6-11.1-18.9c-5.8-6.2-10.8-12.5-11-14c-0.3-1.5-0.8-4.9-1.1-7.5
	c-0.5-3.7-1.7-5.8-5.1-9.1c-2.9-2.7-4.7-5.6-5.1-7.9c-1.8-12.9-1.8-12.7-6.3-16c-2.5-1.7-5.5-5.1-6.9-7.4
	c-6.4-11.1-18.9-11.9-25.2-1.7c-3.9,6.4-7.8,8-17.3,7c-9.5-0.9-13.4,0.4-16.7,5.9c-2.7,4.4-7.7,6.7-14.8,6.7c-2.7,0-4.5,0.9-6.2,3.2
	c-7.2,9.4-6.4,9-18.9,8.7c-11.4-0.3-11.4-0.3-16.3,5.7s-4.9,6.1-17.5,6.1s-12.6,0-15.2,3.6c-7.1,9.8-5.4,9.1-24.7,9.1
	c-17.4,0-17.4,0-21.6,5.4c-2.9,3.8-5.4,5.8-8.3,6.5c-3.3,0.8-25.2,1-37.3,0.4c-1.8-0.1-4.7-2.4-8.1-6.4c-5.3-6.2-5.3-6.2-32.9-6
	c-18.7,0.1-28.5-0.2-30.4-1.2c-1.6-0.8-3.9-3.5-5.3-6c-3-5.8-6-6.6-18.3-4.8c-6.1,0.9-15.4,1.1-26.3,0.5c-16.9-0.8-16.9-0.8-22.2-7
	c-5.3-6.1-5.3-6.1-39.2-5.9s-33.9,0.3-37.1-3.2c-1.7-1.9-3.7-4.5-4.4-5.8c-1.2-2.3-2.4-2.4-30.8-2.4c-29.5,0-29.5,0-34.9-6.6
	c-5.4-6.6-5.4-6.6-17.6-5.8c-6.7,0.4-19.6,0.4-28.6,0c-16.3-0.8-16.3-0.8-22.2-7.4c-5.7-6.4-6.1-6.6-10.7-5.9
	c-19,2.7-47,3.5-69.3,2.1c-30.5-2-31-2-33,1.2c-0.9,1.5-3.1,4.3-4.8,6.3c-3.1,3.6-3.1,3.6-28.2,2.9c-13.8-0.4-26.1-0.8-27.3-0.8
	c-2.5-0.1-10.5,8.8-8.5,9.5c0.6,0.2,1.5,3.1,1.9,6.4c0.6,5,1,5.8,2.3,4.6c1.1-1,8.8-1.3,27.2-1c34.9,0.6,34.2,0.6,36.6-2.5
	c1.1-1.5,2-3.3,2-4.2c0-0.8,1-2.4,2.1-3.6c1.9-1.9,6.8-2.1,51.7-2.2c27.3-0.1,50.4,0.4,51.4,1c1,0.6,3.3,3.4,5.3,6.3
	c3.5,5.3,3.5,5.3,32.5,4.9c15.9-0.2,29.6,0.1,30.4,0.6c0.8,0.5,2.7,3.1,4.3,5.8c1.5,2.6,4,5.3,5.5,5.9c1.6,0.6,13.4,0.7,28.4,0.1
	c18.5-0.7,26.4-0.6,28.2,0.4c1.4,0.8,4,3.6,5.8,6.4c1.9,2.8,4.5,5.2,6,5.5c1.5,0.3,16.3,0.2,33.1-0.2c16.8-0.4,31.8-0.2,33.5,0.4
	c1.7,0.6,4.5,3.3,6.2,6c1.7,2.8,4.4,5.3,6.1,5.8c1.6,0.5,13.5,0.5,26.5,0c25.9-0.9,30.6-0.4,33.1,3.8c0.9,1.5,2.9,4.1,4.3,5.6
	c2.6,2.8,2.6,2.8,31.2,2.5c31-0.4,30.7-0.5,34,6.4c0.9,1.9,2.7,4,4.1,4.8c2.9,1.6,46.2,2.4,50.2,0.9c1.5-0.6,3.3-2.9,4.3-5.8
	c2.5-6.7,5.1-7.4,22.4-6.2c16.9,1.2,19.8,0.6,22.2-4.6c3.7-7.9,3.8-7.9,15.7-7c12.9,1,15.8-0.1,18.6-6.7c2.6-6.2,5.8-7.3,17-5.7
	c10.9,1.5,14.4,0.3,16.6-5.5c2.1-5.5,3.3-6.2,12.5-6.9c7.8-0.6,7.8-0.6,10.2-5.4c3.4-7,6.1-8,17.2-6.4c11,1.6,14.1,0.5,16.5-5.5
	c2.4-6.1,4.9-8.2,9.8-8.2c4.9,0,7.9,3.2,7.9,8.5c0,6.4,2.2,11.6,5.7,13.9c4,2.6,6.7,8.4,6.7,14.7c0,3.4,0.8,5.2,3.7,8.1
	c18,18.2,19,19.7,19.5,27.7c0.1,2.3,0.3,5.1,0.4,6.2c0.1,1.1,1.9,3.1,4.1,4.5c4.1,2.6,5,4.4,7.3,13.2c0.7,2.8,2.7,6.9,4.4,9.1
	c4,5,4.9,7.8,3.2,9.3c-0.8,0.7-2.8,2.4-4.5,4c-2.5,2.2-3.3,4.2-4,9.4c-1,8.1-2.5,11.1-6.3,13.3c-3,1.8-3.4,2.7-4.6,12.6
	c-0.6,5-1.6,6.8-6.3,11.7c-3.6,3.7-5.6,6.8-5.6,8.7c0,6.9-2.2,11.5-7.3,15.4c-7.1,5.4-6.7,11.4,0.9,15.6c2,1.1,5.7,4.5,8.3,7.5
	c4.3,5.1,5.2,5.6,11.8,6.4c7.2,0.9,8.2,1.6,12.3,8.3c1.4,2.3,3.1,3,9.3,3.6c7.6,0.8,7.6,0.8,18.2,12.6
	c10.7,11.8,10.7,11.8,16.4,11.8c6,0,8.4,1.6,12.4,8.3c1.4,2.4,3.1,3,9.4,3.7c7.2,0.8,7.9,1.1,11.8,6c3.8,4.8,4.7,5.3,11.1,6.1
	c7,0.9,7,0.9,17.2,12.2c10.3,11.3,10.3,11.3,17.2,12.2c5.4,0.7,7.3,1.5,8.7,3.6c4.7,7.4,6.5,8.6,12.9,8.6c3.4,0,6.5,0.5,6.8,1.1
	c0.3,0.6,2.8-1.2,5.4-3.9c4.8-5,4.8-5,0.3-10.1c-3.9-4.4-5.4-5.2-10.7-5.9c-5.4-0.7-6.8-1.5-10.8-6.1c-4-4.7-5.1-5.3-9.4-5.3
	c-2.7,0-5.9-0.6-7.3-1.4c-3.7-2.1-14.5-13-17.4-17.5c-2.6-4.1-7.8-6.5-14.3-6.5c-2.4,0-4.5-1.4-7.9-5.4c-4.2-4.9-5.2-5.5-11.4-6.2
	c-6.1-0.7-7.2-1.3-11.3-6.1c-3.4-3.9-5.4-5.3-7.9-5.3c-8.3,0-16.7-6.1-27.8-20.2c-2.4-3-4.3-4-8.5-4.6c-7.1-1-9.7-2.5-12.1-6.8
	c-2.3-4.2-4.7-5.4-12.3-6.5c-7.2-1-8-3.4-2.5-8.4c3.7-3.3,4.4-4.9,5.5-11.7c1.2-7.3,1.6-8,5.5-10.3c4.8-2.7,5.5-4.4,6-13.7
	c0.3-6.5,2.7-11.2,5.6-11.2c3.1,0,5.4-4.9,5.7-12.1c0.3-8.7,0.6-9.2,6.2-12.2c4.8-2.6,5.7-5.4,5.3-15.8c-0.2-5.3-0.1-5.5,4.8-8
	c5.6-2.9,6.9-5.2,6.1-11.4c-0.8-6.3,1.2-10.5,6.3-13.3c2.5-1.4,4.8-3.6,5.2-5c0.4-1.4,0.4-7.9,0-14.4c-0.9-12.9-1.1-12.3,6.2-17.4
	c3.7-2.6,4-3.3,4.6-10.6c0.8-9.8,1.5-11.5,5.6-13.3c6.5-2.9,7.2-4.8,6.3-17.6c-0.9-13.4-0.3-15.3,6.1-18.8c4.5-2.5,4.5-2.5,4.5-10.4
	c0-8.5,0.3-9.1,9.1-16.2c3.6-2.9,3.6-2.9,2.8-16c-0.9-14.4-0.7-15,7.1-19.5c3.3-1.9,3.6-2.5,3.6-8.5c0-7.4,1.8-11.9,5.4-13.8
	c6.9-3.7,7.4-4.9,6.6-18.4c-0.8-13.7-1.2-12.7,7.7-20.2c3-2.5,3.4-3.7,3.8-10.9c0.5-8,0.6-8.3,6.3-14.1c3.2-3.3,6.7-6,7.7-6
	c1.1,0,2.9,2,4.2,4.7c2.3,5,4.6,6.2,11.5,6.2c5.9,0,7.4,0.9,11.1,6.8c4,6.2,7.7,7.4,17.2,5.5c8.2-1.6,12.1-0.2,15.9,5.9
	c3.9,6.3,8.9,8.1,17.7,6.2c8.2-1.7,13.2,0.1,16.7,6.3c2.9,5,4.3,5.7,11,5.7c6.3,0,8.9,1.5,11.2,6.2c2.7,5.5,7.2,7.1,18.8,6.3
	c10.8-0.8,9.2-1.6,17.1,8.8c2.7,3.5,3.1,3.6,10.5,3.2c17.8-1,16.5-1.5,23,8.4c1.4,2.1,3.4,2.8,9.5,3.5c8,0.9,8,0.9,13.3,9
	c2.3,3.5,6.8,4.4,14.8,3c9.2-1.7,12.6-0.5,16.6,5.7c4.4,6.9,9.1,8.6,18.4,6.8c8.2-1.6,12.9,0.2,16.4,6.3c2.9,5.1,4.2,5.7,11.6,5.7
	c5.9,0,6.5,0.4,12.8,9.1c2.7,3.6,2.7,3.6,14.6,3.3c13.2-0.4,11.4-1.2,18.9,8.7c2.3,3,3.5,3.5,8.8,3.6c8.3,0.2,11.7-1,14.1-5
	c2-3.2,2.1-7.4,1.8-76.8c-0.1-40.4-0.5-75.6-0.9-78.3c-0.5-3.7-0.1-5.6,1.5-7.7c2.1-2.8,2.1-2.8,149.9-2.6
	c144.8,0.1,147.9,0.1,150.5-2.2c2.7-2.3,2.7-2.6,3-27.6c0.2-13.9,0.5-26.4,0.8-27.8c0.3-1.5,2.4-3.4,5.1-4.8c2.5-1.2,5-3,5.5-3.9
	c0.5-0.9,0.6-18.5,0.4-39c-0.6-40.9-1.1-37.6,6.5-42.9c3.6-2.5,4-3.3,4.5-10c0.5-6.8,1-7.8,7.2-15.4c3.7-4.5,7-8.2,7.3-8.3
	c0.4-0.1,9.8-0.3,20.9-0.4c22.3-0.3,24.4,0.2,28.2,6.7c2.7,4.5,5.8,6,12.3,6c5.7,0,7.3,1.6,8.1,8.1c1.1,9,1.7,10.2,6.4,13.8
	c2.6,2,7.4,7.3,10.7,11.7c5.3,7.2,5.9,8.6,5.9,13.9c0,4.3,0.6,6.4,2.1,7.9c7,6.5,8,7.8,8,11c0,7.5,2.1,11.3,11.4,20.7
	c9.4,9.6,12.3,14.4,12.3,20.8c0,5.5,1,7.2,6.3,11.2c2.7,2,6,5.8,7.2,8.4c1.2,2.6,2.9,5.1,3.6,5.6c1.5,1,45.1,1.7,49.2,0.8
	c1.6-0.4,3.5-2.4,4.8-5.3c2.8-5.9,5.1-7.2,12.8-7.2c5,0,6.7-0.5,8.5-2.7c1.3-1.5,2.3-3.3,2.3-4.1c0-0.8,1-2.4,2.2-3.6
	c2.1-2,4.4-2.1,30.2-1.5c15.4,0.4,29,0.2,30.2-0.3c1.3-0.5,3.2-3.2,4.4-5.9c2.8-6.6,6.1-7.8,17.4-6.1c10.7,1.5,14.3,0.4,16.5-5.4
	c2.8-7.2,5.2-8.1,17.8-6.4c9.7,1.3,13.4-0.2,16.1-6.6c2.6-6.3,5.8-7.4,17.1-5.8c10.9,1.5,14.5,0.3,16.8-5.5
	c2.6-6.8,3.9-7.3,15.5-6.3c11.7,0.9,16-0.2,17.2-4.4c1.7-6.1,4.9-8.3,12.3-8.3c7.9,0,8.7-0.4,11.1-5.5c3.2-6.7,3.7-6.9,25.9-7.1
	c15.5-0.2,21.4,0.2,23.7,1.4c1.7,0.9,3.1,2.1,3.1,2.6s1.5,2.7,3.3,4.8c3,3.6,3.9,3.9,10.1,3.9c6,0,7,0.4,8.8,3.1
	c5.3,8,5.3,8.1,12.8,8.9c6.9,0.8,7.6,1.1,13.3,7.3c6,6.5,8,10.9,8,17.5c0,2.6,1.3,4.8,5.2,8.6c4.7,4.6,5.2,5.8,6,12.3
	c0.8,7.2,0.8,7.2,15.6,23.3c14.9,16.1,14.9,16.1,20.6,16.1c6,0,6.6,0.4,12.9,9.1c2.7,3.6,2.7,3.6,37.1,3.2c38.5-0.5,34.3-1.3,41,8.1
	c1.7,2.3,3.5,3,9.8,3.7c7.9,0.9,7.7,0.8,13,8.6c1.3,1.9,3.7,2.8,9.9,3.6c8.2,1.1,8.2,1.1,31.6,26.7c12.9,14.1,25.2,27.8,27.4,30.4
	c3.8,4.6,4.4,4.9,10.4,4.9c6.9,0,7.7-0.6,12.4-8.5c2.5-4.2,2.5-4.2,14-3.9c12.7,0.4,14.7-0.3,18.1-6.1c1.3-2.2,5.7-7.2,9.9-11.2
	c7.1-6.8,8-7.3,14.3-7.9c6.4-0.6,6.9-0.9,10.2-5.7c1.9-2.8,6.7-8.1,10.6-11.8c6.9-6.5,7.3-6.7,13.9-6.7c6.4,0,6.9-0.2,8.7-3.8
	c4.1-8,4.9-8.6,13.5-9.3c13.2-1,17.2,1.2,17.2,9.5c0,5.1-3.8,10.8-7.3,10.8c-0.9,0-2.5,1.3-3.5,3c-1.6,2.6-1.7,4.5-0.5,15.9
	c0.8,7.6,1,18.3,0.5,26c-0.7,12.2-0.6,13.2,1.5,15.2c10.1,9.3,9.5,8.1,8.8,19.7c-0.8,12.2,0.1,15.1,6.2,19.4c5.5,4,6.6,7.6,6.7,21.8
	c0,11.4,0.3,12.5,2.6,14.3c1.4,1,4.7,1.9,7.4,1.9c6.4,0,10.5,2.4,14.2,8.4c3,5,3,5,34.9,4.6c31.8-0.3,31.8-0.3,33.8-4.5
	c3.7-8,3.6-8,23.7-7.6c10.1,0.2,22.4,0.6,27.3,1c10.9,0.9,14.6-0.4,16.7-5.8c2.8-7.3,3.5-7.5,22.8-6.5c17.5,0.8,17.5,0.8,20.3-2.4
	c1.5-1.8,2.8-3.9,2.8-4.8c0-3,3.9-4.8,11.7-5.4c8-0.6,8-0.6,10.2-5.7c1.2-2.8,3.1-5.5,4.3-5.9c1.2-0.4,14.4-0.8,29.3-0.8
	c30.3-0.1,26.3-1.3,34.3,9.7c2.4,3.3,2.5,3.4,14.4,3c11.8-0.4,12-0.3,14.5,2.9c6.7,8.7,7.2,9,13.8,9c6.5,0,8.3,1.1,13,8.4
	c1.3,2.1,3.4,2.9,9.6,3.7c6.7,0.9,8.2,1.5,10.1,4.3c5.6,8.2,5.6,8.2,12.8,8.8c6.7,0.5,7,0.4,10-3.5c1.7-2.2,22-24.5,45.1-49.5
	c42.1-45.5,42.1-45.5,81.2-45.4c43.6,0.2,39.2-0.7,45.6,9.2c2.6,4,6.4,4.6,21.2,3.3c14.8-1.3,18.5-0.2,22.4,6.4
	c2.7,4.6,5,5.7,12.3,5.7c4.9,0,7.2,1.7,11.5,8.5c1.3,2,3.2,2.8,7.3,3.3c7.9,0.8,11.7,2.6,13.6,6.6c2.7,5.6,4.9,6.2,23.2,5.7
	c18.9-0.5,16.2-1.5,24.1,9.4c2.3,3.1,2.3,3.1,94.2,3.1c50.5,0,92.5,0,93.3-0.1c0.8,0,2.4-2.1,3.6-4.7c3.7-7.9,3.6-7.9,27.9-7.9
	c22.1-0.1,22.1-0.1,24.7,3.5c6.4,8.8,6.8,9.1,13.5,9.1c6.7,0,8.3,1.1,13.6,9.1c2.5,3.8,4,4,18.6,3c7.3-0.5,9.8,0.7,12.9,6
	c2.4,4.1,3.4,4.8,8.1,5.4c10.7,1.5,12,2.2,16.1,9c1.4,2.3,3.1,3,9.2,3.7c7.5,0.8,7.5,0.8,17.8,12.1c10.2,11.2,10.4,11.3,16.9,12.1
	c6.5,0.8,6.7,1,17.4,12.6c10.8,11.8,10.8,11.8,16.7,11.8c5.9,0,5.9,0,22.1,17.5c13.7,14.8,16.8,17.7,20.4,18.3
	c2.3,0.4,5.4,1,6.8,1.3c3.1,0.7,16,13,18.1,17.4c2.4,4.9,4.7,6.1,11.1,6.1c6.3,0,8.1,1.2,12.7,8.5c1.4,2.1,3.3,2.9,9.5,3.6
	c8,0.9,7.9,0.9,13.1,8.6c1.1,1.7,3.3,2.7,6.8,3.2c8.9,1.1,10.2,1.7,14.6,6.7c3.9,4.6,4.9,5,11.4,5.7c3.9,0.4,7.3,1.3,7.5,2
	c0.2,0.7-3.3,5.1-7.8,9.7c-4.5,4.6-11.7,12.5-16,17.5c-4.3,5-1.6,2.4,6.1-5.7c7.7-8.2,15.3-15.8,16.9-17.1
	c6.1-4.8,16.4-10,21.9-10.8c5.8-0.9,5.8-0.9-2.6-1.6c-8.1-0.7-8.4-0.8-13-6.3c-4.3-5.2-5.2-5.6-11.4-6.3c-6.3-0.7-7.1-1.1-11.3-6.2
	c-4.1-5-5.1-5.5-11.8-6.5c-6.3-0.9-7.7-1.6-10.7-5.3c-4.4-5.5-7.2-7-13-7c-4.6,0-6.5-1.4-12.2-9c-0.9-1.2-3.2-2-6-2
	c-2.5,0-6.2-0.8-8.2-1.9c-3.5-1.8-16.1-14.1-20.1-19.7c-1.4-1.9-3.1-2.7-6-2.7c-7,0-10.9-2.9-26.7-19.8
	c-13.4-14.4-16-16.6-19.2-16.6c-2,0-5-0.7-6.7-1.5c-3.2-1.5-12.7-10.8-18.5-18.1c-3-3.7-4.4-4.5-9.9-5.2c-5.7-0.8-7.3-1.7-13.4-7.4
	c-3.8-3.6-8-8.1-9.1-10c-3-4.9-5.6-6.4-12.7-7.1c-5.5-0.6-6.5-1.2-10.1-6c-3.2-4.2-4.8-5.3-7.6-5.3c-6.7,0-11.3-2.3-15.6-7.6
	c-4.1-5.2-4.1-5.2-16-5.2c-11.9,0-11.9,0-16.7-5.6c-4.4-5.1-5.4-5.7-11.6-6.5c-6-0.8-7.3-1.5-11.1-5.9c-4.3-5-4.3-5-29.7-5.1
	c-25.4-0.1-25.4-0.1-28.8,4.5c-6.9,9.3-3.2,8.8-82.1,9.3c-38.8,0.2-77.5-0.1-86.1-0.7c-15.6-1.1-15.6-1.1-21-7.4
	c-5.4-6.3-5.4-6.3-22.6-6.3c-17.2,0-17.2,0-22.4-6c-4.8-5.6-5.7-6.1-12.4-7.1c-6.6-1-7.5-1.5-11.3-6.3c-3.9-4.9-4.5-5.3-11.1-5.8
	c-6-0.5-7.3-1-9.7-4.1c-1.5-2-2.8-4-2.8-4.6c0-2.5-7.4-3.4-22-2.8c-15.4,0.7-15.4,0.7-20.7-5.5c-5.3-6.2-5.3-6.2-34-6.5
	c-28.2-0.3-28.7-0.3-31.3-3c-5-5.4-2.8-13.7,4.7-17.3c5.6-2.7,6.1-3.8,6.6-14.7c0.3-6.5,0.4-6.7,5.1-9.5c4.8-2.8,4.8-2.8,4.8-10
	c0-7,0.1-7.3,7-15.7c3.9-4.7,9-9.9,11.3-11.6c4.1-3,4.2-3.3,4.2-10.7c0-6.4,0.4-8.1,2.6-10.3c1.4-1.5,3.2-2.6,3.9-2.6
	c3,0,5.9-6.2,5.7-12.6c-0.2-7.5,0.2-8.4,6-12.3c4.3-2.9,4.4-3.1,4.4-10.3c0-7.8,0.2-8.1,8.4-15c2.7-2.3,3.4-3.8,3.6-8.1
	c0.1-2.9,0.3-6.3,0.3-7.4c0.1-2.2,13-16.7,18.7-21.1c3-2.3,3.3-3.2,3.4-9.8c0.2-8.6,0.5-9.3,6.2-13.2c4.3-2.9,4.4-3.2,4.4-9.6
	c0-8,1.7-12.4,5.1-13.3c4-1.1,6.1-4.1,6.1-8.5c0-8.6,1.3-11.5,9-19.8c4.2-4.5,8.9-9.1,10.4-10.3c2.5-1.8,2.9-3.1,3.4-10.2
	c0.5-8.5,0.8-9,8.9-15.1c2-1.5,2.6-3.2,2.7-8.5c0.3-8.8,1.3-11.8,4.3-12.7c4.6-1.5,6.4-4.3,6.4-9.7c0-2.9,0.5-6.6,1.1-8.4
	c1.2-3.3,12.9-16.3,18.5-20.7c2.9-2.2,3.3-3.3,3.5-10.1c0.3-8.4,1.3-10.3,6.9-13.1c3.7-1.9,3.8-2.2,3.8-9.2c0-8.6,1.1-11.2,6-13.9
	c4.7-2.6,5.3-3.7,5.3-9.8c0-2.8,0.5-6.4,1.1-8c1.1-3.2,13.3-16.8,18.6-20.9c2.9-2.2,3.2-3.2,3.2-8.4c-0.1-8.1,1.1-11,6.3-14.5
	c4.3-2.9,4.4-3.2,4.9-11.2c0.4-6.7,0.9-8.5,3-10.1c8.1-6.1,8.4-6.7,8.9-14.8c0.6-8.8,1.3-10.2,6.6-12.6c3.7-1.7,3.8-1.8,3.8-9.5
	c0-7.8,0-7.8,7.6-16.2c4.2-4.6,9.3-9.6,11.3-11.1c3.4-2.6,3.7-3.2,3.7-10c0-6,0.4-7.6,2.5-9.6c10.2-9.5,9.9-9,9.9-16.7
	c0-7.7,1-9.4,7-12.2c2.9-1.3,3.1-1.9,3.1-8.8c0-6,0.5-7.9,2.5-10.1c2.5-2.6,3.2-2.7,23.3-2.6c20.8,0.2,20.8,0.2,25.5,5.8
	c2.6,3.2,6.1,6.1,7.9,6.6c1.8,0.5,24.4,0.6,50.1,0.3c51.1-0.7,52.7-0.5,55.8,5.9c1,2,2.7,4.2,3.7,4.7c1.1,0.6,21.2,0.9,44.8,0.7
	c26.5-0.2,44.2,0.1,46.4,0.9c2.2,0.7,4.7,3.1,6.5,6.1c3.7,6,7.3,7.6,15.3,6.7c3.4-0.4,23.2-0.8,43.9-0.9c42-0.2,37.7-1,44.2,8.8
	c1.8,2.8,1.8,2.8,53.4,2.8c51.6,0,51.6,0,56.8,6.5c6.2,7.6-0.2,6.9,56.6,6.5c46.1-0.3,40.4-1.4,48.1,9.2c2.4,3.3,2.4,3.3,19.7,2.7
	c9.5-0.3,30-0.5,45.5-0.4c28.2,0.2,28.2,0.2,33.4,6.5c5.2,6.4,5.2,6.4,56.6,6.1c57.2-0.3,50.7-1.3,59.3,9.3c2,2.4,3.3,2.7,12.3,2.7
	c5.5,0,11.5-0.3,13.4-0.7c3.3-0.7,3.3-0.8,3.2-8.5c-0.1-5.6-0.6-8.2-1.8-9c-0.9-0.6-6.4-1-12.2-0.9c-10.5,0.3-10.5,0.3-13.7-3.5
	c-1.7-2.1-3.7-4.8-4.3-6c-1.1-2.1-3.9-2.2-51.7-1.8c-54.8,0.4-55.5,0.3-58.6-6.2c-3.1-6.5-6-7.5-17.2-6c-10.6,1.5-51.4,1.7-68.8,0.3
	c-10.6-0.8-10.6-0.8-14.8-6.1c-4.3-5.3-4.3-5.3-49.8-5.5c-49.2-0.1-49.1-0.1-52.3-6.8c-3.3-6.9-4.8-7.2-24.8-5.8
	c-20.8,1.4-79.5,0.3-83.2-1.6c-1.4-0.7-3.8-3.3-5.4-5.8c-3.6-5.6-6.1-6.2-18.3-4.7c-11.5,1.5-74,0.2-77.7-1.5
	c-1.4-0.7-3.7-3.2-5.2-5.5c-3.6-5.8-6.9-7-16.2-5.4c-9.9,1.7-71.2,1.7-76.8,0c-2.6-0.8-5.7-3.1-8.2-6.4c-4.1-5.1-4.1-5.1-51.1-4.7
	c-49.7,0.4-57.1-0.2-60-4.6c-6.5-9.9-3.5-9.2-35.3-8.7c-32.2,0.5-28.7,1.4-36.2-8.9c-2.6-3.6-2.6-3.6-20.2-3.3
	c-19.5,0.4-17.6,1.1-24.9-8.9c-2.7-3.6-2.7-3.6-18.6-3.2c-14.9,0.4-22.5-0.7-22.5-3.3c0-0.4-1.4-2.7-3.2-4.9
	c-3.2-4.1-3.2-4.1-15.9-4.2c-12.3-0.1-12.8-0.2-14.6-3.1c-5.8-9.5-5-9.2-22.7-8.7c-18.3,0.5-20.6-0.2-25.1-7.1
	c-3.1-4.8-3.1-4.8-21-4.8c-17.9,0-17.9,0-20.6-3.2c-9.3-11.2-6.9-10.3-25.2-9.4c-16.5,0.8-16.5,0.8-22.1-5.7
	c-5.6-6.6-5.6-6.6-17.4-6.2c-11.1,0.3-11.9,0.2-14-2.4c-9.6-11.8-7.4-10.9-24.2-10c-17.5,1-19.9,0.3-24.4-6.6
	c-3.6-5.6-5.1-6-22.3-5.2c-15.6,0.7-19.1-0.3-22.5-6.6c-3-5.5-6.3-6.6-18.4-6.2c-10.1,0.3-10.1,0.3-14.8-5.5
	c-4.7-5.8-4.7-5.8-21.6-5.6c-10.6,0.2-17.8-0.2-19.2-1.1c-1.3-0.7-3.3-3.2-4.4-5.6c-3.1-6.3-5.2-6.8-23.1-6
	c-15.9,0.7-15.9,0.7-21.5-5.8s-5.6-6.5-22.9-6.2c-17.3,0.3-17.3,0.3-20-3c-9.5-11.4-7.8-10.6-19.8-9.6c-10.8,0.9-10.8,0.9-16.1-5.3
	c-5.3-6.2-5.3-6.2-22.4-6.1c-9.9,0.1-17.9-0.4-19.2-1.2c-1.2-0.7-3.3-3.2-4.6-5.6c-3.4-6.2-6.1-6.9-23.5-5.9
	c-15.1,0.8-15.1,0.8-20.8-5.7c-5.6-6.6-5.6-6.6-17.3-6.3c-12.8,0.3-11.7,0.9-19.1-8.8c-2.8-3.6-2.8-3.6-19.9-3.2
	c-17.1,0.4-17.1,0.4-22.4-5.8c-5.3-6.2-5.3-6.2-23.1-6.2c-19.7,0-17.1,1-24.8-9.1c-2.8-3.6-2.9-3.6-13.3-3.4
	c-12.5,0.3-15.1-0.7-19.2-7c-3.1-4.8-3.1-4.8-21.2-4.8c-20,0-18.2,0.7-25.3-9.1c-2.7-3.6-2.7-3.6-19.8-3.2
	c-17.1,0.4-17.1,0.4-22.5-5.8c-5.3-6.2-5.3-6.2-22.2-6c-10.1,0.1-17.7-0.3-19-1c-1.2-0.7-3.4-3.3-5-5.9c-3.6-5.8-7.2-6.9-18.5-5.9
	c-8.8,0.8-8.8,0.8-14.4-5.7c-5.6-6.5-5.6-6.5-23-6.1c-19.5,0.4-16.8,1.4-24.6-8.9c-2.8-3.6-2.8-3.6-18.8-3.2
	c-10.1,0.2-17.1-0.1-19.1-1c-1.7-0.7-5.8-4.7-9.2-8.9c-6.1-7.5-6.1-7.5-5.8-15.4c0.2-4.4,0.4-12.3,0.6-17.6c0.3-10.4,0-10,9.3-15.9
	c1.9-1.2,2-4.1,1.8-45.5c-0.1-24.3,0.2-44.8,0.6-45.6c0.5-0.7,3-2.5,5.7-4s4.9-3.3,5-4.1c0.1-0.8,0-20.4-0.1-43.5
	c-0.2-30,0.1-42.7,1-44.6c0.7-1.4,3.1-3.6,5.4-4.9c4.1-2.3,4.1-2.3,4-67.8c0-36.1,0.3-67.4,0.7-69.6c0.5-2.8,2-4.9,4.7-6.7
	c8.5-5.8,8.1-4.7,7.3-24.6c-0.9-20.3-0.5-21.8,6.2-25.5c2.4-1.3,4.7-3.6,5.2-5c0.4-1.4,0.4-10.1,0-19.3c-0.9-19-0.5-20.6,6.2-24.3
	c2.9-1.6,4.7-3.6,5.2-5.6c0.4-1.7,0.4-10.5,0-19.4c-0.9-18.4-0.5-19.9,6.1-23.6c3.1-1.7,4.5-3.3,4.6-5.2c0.1-1.5,0-10.7-0.1-20.4
	c-0.2-17.7-0.2-17.7,2.9-20.3c1.7-1.4,3.7-2.6,4.6-2.6s2.4-1.4,3.4-3.1c1.6-2.7,1.8-5.4,1.1-20.6c-0.5-11.7-0.4-18.3,0.4-20
	c0.7-1.3,3.2-3.5,5.7-4.9c2.5-1.4,4.6-3.4,4.7-4.6c0.1-1.2,0.2-10.5,0.3-20.8c0.1-18.7,0.1-18.7,4-21.5c8.6-5.9,8.2-4.8,7.3-24.7
	c-0.9-20.2-0.5-22,6-25.2c4.2-2.1,4.2-2.1,4.5-22.7c0.3-17,0.6-20.9,2.1-22.7c1-1.2,2.4-2.2,3.2-2.2c0.7,0,2.7-1.3,4.3-3
	c2.7-2.7,3-3.8,3-11.8c0-4.9-0.5-12.5-1.1-17c-1.3-9.8-0.6-12.4,5.8-19.8C3260,504.4,3259.3,504.3,3252.9,511.2 M3193.1,515.4
	c4.1,3.6,2.2,6.3-4.5,6.3c-5.1,0-6.1,0.5-10.6,5.2c-2.8,2.8-8.1,8-11.8,11.5c-6.3,5.9-7.2,6.4-12.6,6.4c-4.6,0-6.2,0.6-8,2.7
	c-8.8,10.8-8.4,10.6-15.1,10.6c-6,0-6.4,0.2-9.1,4.5c-1.5,2.5-6.2,7.8-10.3,11.8c-6.9,6.6-8.1,7.3-14.3,8.1
	c-6.1,0.8-7.1,1.3-10.8,5.9c-3.7,4.7-4.7,5.1-11.3,6c-7.3,0.9-8.3,1.6-12.6,8.6c-1.5,2.4-3,3-8.8,3.4c-6.6,0.5-7.3,0.9-10.5,5.2
	c-1.9,2.6-7,7.9-11.2,11.9c-6.9,6.5-8.3,7.3-14.2,8c-5.7,0.7-7,1.4-10.4,5.6c-3.4,4.2-4.8,4.9-10.5,5.7c-6.3,0.9-6.8,1.2-14.4,10.1
	c-9.3,10.8-13.9,14.2-19.5,14.2c-5.9,0-9.6,1.9-11.8,6c-2.4,4.5-5.7,6.1-12.3,6.1c-4.7,0-5.6,0.5-9.8,5.5c-4.2,4.9-5.4,5.6-10.9,6.2
	c-5.9,0.7-6.6,1.2-15.2,10.5c-10.2,10.9-14.5,14.2-18.7,14.2c-5.2,0-9.9,2.6-12.3,6.6c-2.5,4.3-4.9,5.4-11.9,5.5
	c-4.2,0-5.3,0.9-14.7,11.1c-10.8,11.7-14.8,14.4-21.6,14.4c-3.5,0-4.9,0.8-8.2,4.9c-3.6,4.4-4.7,5-11.1,5.9
	c-6.5,0.9-7.5,1.5-11.9,6.7c-4.4,5.2-5.2,5.7-10.2,5.7c-5,0-5.7,0.4-11.2,6.6c-3.2,3.6-8.5,9.1-11.8,12.1c-5.4,5-6.5,5.6-11.7,5.6
	c-5.4,0-6,0.3-10.3,5.4c-4.1,4.9-5.1,5.5-11.1,6.2c-6.2,0.8-6.8,1.1-12.3,7.9c-9.7,12-14.6,15.7-22.8,16.9c-6.6,1-7.5,1.5-11.5,6.6
	c-4.2,5.3-4.5,5.5-10.7,5.5c-6.1,0-6.5,0.2-10.9,5.5c-4.2,5.1-5.1,5.6-11.8,6.5c-6.6,0.9-7.6,1.5-11.3,6.1c-2.2,2.8-5.6,5.5-7.4,6.1
	c-4.7,1.4-61.5,1-63.9-0.5c-1-0.7-3.4-3.4-5.3-6.2c-4-6-6.5-6.7-18.1-5.1c-10.9,1.5-107.9,0.6-111.6-1c-1.5-0.7-4-3.3-5.6-5.8
	c-3-4.6-3-4.6-66.5-4.8c-71-0.1-62.7,1-70.8-10.1c-2.4-3.2-2.7-3.3-10.7-2.7c-4.6,0.3-32.4,0.6-61.8,0.6c-59.1,0-55.9,0.4-61.2-7.9
	c-2.5-4-2.5-4-62.3-4c-59.7,0-59.7,0-63.8,5.2c-3.8,4.8-4.5,5.2-11.9,6c-4.3,0.5-8.6,0.7-9.5,0.4c-1.2-0.4-1.3-0.2-0.4,0.5
	c0.7,0.6,1.5,4.5,1.7,8.6c0.3,7.6,0.3,7.6,4.9,8.9c6,1.7,14.3,0.7,15.8-2c5.8-10.6,0.1-9.6,60.4-10.3c35.1-0.4,55.7-0.2,57.7,0.6
	c1.7,0.7,4.5,3.4,6.2,6c3.2,4.7,3.2,4.7,66,4.9c62.8,0.1,62.8,0.1,68.9,7.1c6,7,6,7,68.5,6.6c70-0.5,62.3-1.4,69,8
	c2.5,3.4,2.5,3.4,60.8,3.3c32.1-0.1,59.1-0.4,60-0.8c3.1-1.3,9.5,2,11.9,6.2c4.3,7.5,2.8,7.3,41,7.4c19.3,0.1,35.8-0.1,36.6-0.4
	c0.8-0.3,2.5-2.6,3.7-5.2c2.8-5.9,5.1-7.2,12.6-7.2c7,0,7.9-0.5,10.4-5.8c2.3-4.8,5.3-6.2,12.5-5.9c4.7,0.2,5.6-0.2,8-3.4
	c6.5-8.9,6.8-9.1,14.1-9.1c6.6,0,6.9-0.1,9.1-4.2c1.3-2.3,6.1-7.8,10.7-12.1c8.4-7.9,8.5-8,15.1-8c6.7,0,6.7,0,9-4.9
	c2.7-5.6,5.7-7.2,13.5-7.2c4.7,0,5.8-0.5,7.5-3.2c3.2-5.1,16.4-18.7,19.3-20c1.4-0.6,4.7-1.1,7.3-1.1c5.7,0,6.7-0.7,9.1-5.7
	c2.3-4.9,5.3-6.7,10.7-6.3c8.2,0.5,9.1,0.1,11.5-5c2.7-5.6,5.7-7.2,13.6-7.2c5.2,0,5.8-0.3,8.7-4.7c1.7-2.6,6.4-7.9,10.3-11.8
	c6.9-6.9,7.3-7.1,14.4-7.6c7.1-0.5,7.3-0.6,9.5-5.2c2.8-5.9,5.1-7.2,12.8-7.2c5.5,0,6.5-0.4,8.2-3.2c1.1-1.8,5.8-7.1,10.3-11.8
	c8.3-8.6,8.3-8.6,15.8-9.2c7.4-0.6,7.5-0.7,9.5-5.2c2.3-5.3,5.4-6.9,13.2-6.9c4.7,0,5.8-0.5,7.5-3.2c5.1-8,6.6-9,13.8-9
	c6.6,0,6.9-0.1,9.6-4.6c1.6-2.5,6.3-8,10.6-12.1c7.7-7.5,7.9-7.5,14.6-7.5c6.8,0,6.8,0,9.4-5.1c2.9-5.6,5.1-6.7,13.6-6.9
	c4.4-0.1,5.6-0.7,7.3-3.3c2.7-4.3,15.6-18.3,18.3-19.8c1.2-0.7,4.6-1.2,7.6-1.3c6.4,0,7.3-0.6,9.8-5.7c2.5-5.2,4.9-6.4,13-6.4
	c6.8,0,6.8,0,9.4-5.2c2.6-5.1,2.7-5.2,10.4-5.9c6.8-0.6,8.1-1.1,10.1-4.1c3.3-4.7,17.4-19.3,19.7-20.3c1-0.5,4.5-0.9,7.8-0.9
	c5.5-0.1,6.1-0.4,7.9-3.9c3.6-7.2,5.3-8.3,12.5-8.3c6.7,0,6.7,0,10.7-6.1c2.2-3.3,4.5-6.1,5.1-6.1c0.6,0,3.4-2.6,6.2-5.7
	c5-5.6,5.2-5.7,12.4-5.8c4-0.1,7.7-0.5,8.2-1c0.5-0.5,1.6-3.2,2.6-6c1.7-5.1,1.7-5.1,9.4-5.7c7.9-0.6,11-2.7,10.8-7.2
	c-0.1-1.6-0.2-1.6-0.7-0.1c-1.1,3.2-4,6.1-6.2,6.1c-3.7,0-18.1-7.4-20.3-10.5c-1.2-1.6-2.6-2.9-3.3-2.9S3191.7,514.2,3193.1,515.4
	 M3086.5,1352.7c-16.9,0.7-16.9,0.7-19.4,4.9c-5.1,8.6-5.5,8.9-13.8,8c-4.1-0.4-17-0.8-28.6-0.9c-23.3-0.2-23.2-0.2-26.9,7.6
	c-1.2,2.5-2.8,4.8-3.6,5.1c-0.8,0.3-14.4,0.3-30.2,0c-15.8-0.3-29.3-0.1-30,0.4c-0.7,0.5-2.2,3.2-3.4,5.9c-2.1,4.9-2.1,4.9-31.1,4.4
	c-32.7-0.5-32.8-0.5-37,8.4c-1.3,2.7-3.2,4.9-4.2,5c-1.1,0.1-14.2,0-29.1-0.1c-15-0.2-28.2,0.1-29.5,0.5c-1.3,0.4-3.1,2.9-4.1,5.6
	c-1,2.8-2.9,5.2-4.3,5.8c-1.4,0.5-14.5,0.6-29,0.2s-27.7-0.4-29.1,0.2c-1.4,0.5-3.5,2.7-4.5,4.8c-4.2,8.4-4.9,8.7-18.1,7.8
	c-6.6-0.4-19.4-0.8-28.6-1c-18.3-0.2-18.9,0-22.1,7.4c-2.3,5.3-6.2,6.4-16.9,4.9c-4.1-0.6-15.6-1.1-25.6-1.1
	c-20.3,0-21.5,0.3-25.4,8.5c-1.2,2.6-3.1,4.9-4.2,5c-1.1,0.1-14.9,0.2-30.7,0.3c-31.7,0.1-28.7-0.7-34.6,10c-1,1.9-2.6,2.3-8.5,2.2
	c-4,0-9.1-0.5-11.4-1.1c-3.2-0.8-4.9-0.5-7.2,1.1c-2.9,2.1-2.9,2.1-2.6,34.3c0.3,30.3,0.2,32.3-1.7,33.6c-1.1,0.7-3.7,2.4-5.6,3.8
	c-3.5,2.5-3.5,2.5-3.7,76.4c-0.1,40.7-0.2,74.6-0.3,75.5c-0.1,0.8-2.3,2.7-4.9,4.1c-2.6,1.4-5.2,3.2-5.6,4
	c-0.5,0.7-0.8,32.2-0.8,69.9c0.1,63.1-0.1,68.6-1.8,69.8c-1,0.7-3.5,2.3-5.4,3.7c-3.5,2.5-3.5,2.5-3.6,76.6
	c0,80.8,0.3,76.3-6.6,80.1c-1.9,1.1-3.9,2.5-4.3,3.3c-0.5,0.7-0.5,9.1-0.1,18.5c0.5,11.4,0.3,21.1-0.7,28.8c-1.1,9.3-1.1,12,0,13.5
	c2.5,3.2,6.1,2.2,8.4-2.5c3.4-6.7,6.9-8.2,16.1-6.4c4.9,0.9,12.6,1.1,21.6,0.6c14-0.8,14-0.8,18.9,5c4.6,5.4,5.5,5.9,12.5,7
	c7.2,1.2,7.7,1.5,10.8,6.4c1.8,2.9,5.2,6.5,7.6,8.2c3.4,2.3,4.5,3.9,5,7.5c1.5,10,3,13.2,9.9,21c3.9,4.3,8.3,8.7,9.8,9.8
	c2.2,1.5,2.9,3.3,3.6,9.7c0.8,7.2,1.2,8.2,5.5,12.1c4.2,3.9,4.8,5.1,5.7,11.9c0.9,7,1.5,8.1,8,15.7c3.9,4.5,8.7,9.4,10.8,10.9
	c3.4,2.5,3.7,3.4,3.7,8.7c0,4,0.7,6.8,2.2,8.8c2,2.7,3,2.9,18.9,3.5c22.8,0.8,25.8,0.2,31.4-6.7c3.5-4.2,5.3-5.5,7.9-5.5
	c6.1,0,11.8-2.4,13.7-5.8c3.6-6.3,3.4-6.2,30.1-5.5c29.5,0.9,31.7,0.4,38.7-7.9c4.7-5.7,4.7-5.7,15.5-5.3c12,0.4,14.1-0.3,17.5-6.3
	c1.3-2.3,3.3-4.6,4.3-5.1c1.1-0.5,7.1-1,13.5-1c11.5-0.1,11.5-0.1,17.1-6.6c5.6-6.6,5.6-6.6,15.2-5.8c11.3,0.9,14.2,0,17.5-5.7
	c3.2-5.5,5.1-6.2,18.5-6.2c11.1,0,11.1,0,15.8-5.7c4.4-5.2,5.2-5.7,11.5-6.4c6.9-0.7,7.9-1.4,13-9.2c1.7-2.5,2.5-2.6,26.5-2.8
	c27.4-0.2,25.4-0.7,32.3,8.6c1.4,1.9,3.7,2.8,9,3.4c6.6,0.8,7.5,1.3,11.8,6.2c3.4,3.9,5.5,5.3,7.9,5.3c5.6,0,11.4,2.3,13.2,5.3
	c2.2,3.6,18.5,21.4,22.1,24.1c2.1,1.6,2.9,3.6,3.5,9.6c0.8,6.9,1.2,8,5.5,11.9c4,3.7,4.8,5.2,5.7,11.2c1.3,8.8,2,10.1,8.8,17
	c4.5,4.6,6.6,5.8,11.1,6.4c7.7,1.1,10.1,2.3,12.4,6.6c2.3,4.2,6,6.2,11.7,6.4c2.2,0.1,9,0.7,15.2,1.3c10.6,1.1,22.3,0.5,40.3-2.2
	c5.4-0.8,5.4-0.8,10.7,5.3c4.9,5.6,5.9,6.2,11.8,6.9c5.7,0.7,7.1,1.5,11.3,6c4.3,4.7,5.5,5.3,11.9,6.1c6.6,0.8,7.3,1.2,10.1,5.5
	c3.6,5.6,6.6,7.2,13.3,7.2c7.1,0,10,3.4,11.1,12.8c0.8,7.1,0.9,7.3,12,19.1c6.1,6.5,11.2,12.3,11.2,12.8c0,1.5,5.4,3.8,8.9,3.8
	c3.4,0,9.1-4.1,9.1-6.5c0-0.8,1.1-2.8,2.4-4.3c2.3-2.7,2.9-2.8,12.9-2c7.3,0.6,11.3,0.4,13.1-0.6c1.4-0.8,7-6.3,12.5-12.2
	c9.3-10.1,10.2-10.8,14.7-10.8c2.6,0,5.9-0.7,7.2-1.5c2.9-1.7,13.1-12.1,17.9-18.2c2.9-3.7,4.3-4.4,10.1-5.2
	c6.1-0.8,7.2-1.4,11.5-6.5c4.8-5.6,4.8-5.6,17.9-5.6c13.2,0,13.2,0,16.1,4.2c3,4.3,6.1,7.6,11.8,12.6c2.6,2.3,3.4,4,3.8,9.1
	c0.8,8.9-0.2,11.8-4.7,14.1c-7.5,3.8-7.4,3.3-7.4,29.5c0,23.8,0,23.8,5.6,29.3c5.6,5.6,5.6,5.6,5.6,18.1c0,12.5,0,12.5,5.1,17.8
	c4,4.1,5.1,6.2,5.1,9.3c0,2.2,0.9,6,2,8.4c2.1,4.9,10.2,14.7,13.7,16.7c2.4,1.4,51.6,1.8,54.7,0.5c1-0.4,3.4-3.1,5.2-6.1
	c3.4-5.3,3.4-5.3,27.3-4.5c31.7,1.1,33.7,0.7,40.5-7.3c5.3-6.3,5.3-6.3,22.3-5.9c18.7,0.4,17,1,24.3-8.5c1.8-2.4,3.8-3.2,9.4-3.9
	c7.2-0.9,10.4-3,13.4-8.6c1.2-2.3,2.7-2.4,32.6-2.5c31.4-0.1,31.4-0.1,36.1,5.4c4.7,5.6,4.7,5.6,16.7,5.6s12.1,0,16.6,5.8
	c3.6,4.6,5.2,5.8,8.1,5.8c6.6,0,11.7,2.3,14.7,6.7c2.8,3.9,8.6,6.8,13.1,6.4c5.3-0.4,6.8,0.4,8.9,4.9c2.4,5,6.2,7.5,11.5,7.5
	c4.1,0,2.6,1.5,55.2-54.6c41.6-44.4,43.9-47.3,43.9-56.5c0-3.5,0.8-5.3,3.8-8.2c4.9-4.9,6.3-8,6.4-13.7c0.1-6.4,1-8.3,5.6-11.6
	c3.5-2.5,4.1-3.8,5.2-10.5c1.2-7.3,1.6-8,11.5-18.8c5.6-6.2,10.5-12.5,10.8-14.2c0.3-1.6,0.9-5.2,1.3-7.8c0.5-3.7,1.9-6.1,5.7-9.9
	c4.8-4.8,5-5.3,5-11.8c0-5.5,0.5-7.2,2.4-8.9c7.9-6.9,7.8-6.8,8.9-14.7c0.9-7.1,1.5-8.2,6.2-12.8c4.8-4.8,5.1-5.4,5.1-11.4
	c0-5.4,0.4-6.7,3-9c1.7-1.5,6.5-6.5,10.7-11.1c7.7-8.6,9.9-13.2,9.9-20.9c0-3,0.9-4.6,3.9-7.1c4-3.3,6.2-8.8,6.2-15.5
	c0-2.5,1.5-5,5.6-9.3c5.2-5.4,5.6-6.3,5.6-11.5c0-5.5,0.3-6,10.8-17.7c11.4-12.9,12.9-15.5,12.9-23c0-2.6,0.6-5.3,1.4-6
	c0.8-0.7,2.8-2.5,4.6-4c2.6-2.3,3.3-4.1,4-10.4c0.8-7.1,1.2-8,6.1-12.8c4.9-4.9,5.3-5.6,5.3-11.3c0-5.6,0.4-6.5,4.2-10.1
	c2.3-2.2,7.4-7.7,11.2-12.2c6.4-7.6,7-8.8,7.7-15.3c0.7-6.2,1.3-7.6,5.1-11.3c3.8-3.7,4.5-5.2,5.5-12.1c1-7,1.7-8.3,6.1-12.7
	c4.3-4.3,5-5.7,5.6-11.4c0.7-6.2,1.2-7,10-16.7c11-12,13.3-16.1,13.3-23.8c0-3.2,0.4-5.8,0.9-5.8c0.5,0,2.5-1.5,4.6-3.3
	c3.2-2.9,3.8-4.5,4.7-11.2c0.9-7.2,1.4-8.3,5.8-12.3c4.4-4.1,4.8-5,5.2-11.5c0.4-6.6,0.8-7.4,5.5-11.9c4.5-4.3,5.1-5.6,5.7-11.5
	c0.7-6.4,1-7.1,11.1-18.2c7.4-8.2,10.6-12.7,11.1-15.5c0.4-2.2,1-5.7,1.4-7.9c0.4-2.4,2.5-5.7,5.3-8.4c4.2-4.2,4.6-5.1,5.4-12.7
	c0.6-6.7,1.3-8.6,3.4-10.1c7.2-5.1,7.2-5.1,7.6-17.6c0.5-16.2,1.1-15.8-18.2-14.8c-18,0.9-21.6-0.1-25.5-6.9c-1.4-2.4-3.6-4.7-5-5.2
	c-1.4-0.5-9.7-0.8-18.5-0.6c-17.8,0.3-16.1,1-23.7-9c-2.6-3.3-2.6-3.3-13.9-2.5c-11.3,0.9-11.3,0.9-17.4-6.2
	c-6.1-7.1-6.1-7.1-23.8-7.1c-17.7,0-17.7,0-21-5.2c-1.8-2.9-4.5-5.7-6-6.3c-1.6-0.7-7.5-0.6-15.1,0.2c-16.6,1.8-19.5,1.1-23.9-5.7
	c-3.7-5.7-9.1-8.6-13.7-7.4c-1.4,0.4-8,0.8-14.6,0.8c-13.2,0.2-14-0.1-18.3-7.5c-3-5.1-6.6-6.2-15.5-4.4c-8.7,1.7-12.8,0.4-16.4-5.2
	c-5-7.7-7.8-8.6-25.4-7.7c-17,0.9-15.2,1.5-23.1-8.7c-2.6-3.4-2.6-3.4-19.5-2.5c-18.7,0.9-17.1,1.5-25.5-9.5
	c-2.5-3.2-2.7-3.2-14.5-2.9c-13.3,0.4-11.3,1.4-19.3-9.6c-2.4-3.3-2.5-3.3-13-2.8c-5.8,0.3-13.7,0.6-17.6,0.6c-7.1,0-7.1,0-12.6-6.6
	c-5.5-6.7-5.5-6.7-23-6.3c-17.6,0.4-17.6,0.4-21.2-5.2c-4.7-7.1-7.6-8-22.4-6.5c-15.6,1.5-17.9,0.9-23.1-5.8
	c-5.4-7.1-8.1-8.2-16.4-6.4c-8.8,1.9-13.7,0.1-17.6-6.3c-3.8-6.2-7.3-7.1-21.3-5.8c-15.8,1.5-18.1,0.9-24.3-6.6
	c-5.2-6.3-5.2-6.3-22.2-5.9c-18.9,0.4-17,1.1-24.7-8.9c-2.6-3.3-2.7-3.4-12.8-2.7c-5.6,0.4-11.4,0.2-12.9-0.4
	c-1.5-0.6-4-3.3-5.6-5.9c-4.1-6.7-7-7.5-23-6.2c-15,1.2-17.9,0.6-21.1-4.3c-5.5-8.5-4.6-8.3-23.2-7.3c-16.9,0.9-16.9,0.9-21.3-4.3
	c-2.4-2.8-4.4-5.6-4.4-6.1c0-2.4-7.9-3.7-14.1-2.3c-8.4,1.9-13.2,0.1-17.1-6.2c-3.9-6.3-7.7-7.3-21.6-5.8
	c-15.5,1.7-17.8,1.1-23.9-6.2c-5.7-6.9-5.4-6.8-26.6-6.1c-12.8,0.4-14.9-0.4-18.5-6.6c-1.4-2.4-3.7-4.6-5.3-5
	c-1.6-0.4-8.8-0.5-16-0.1c-17,0.8-18.8,0.4-22.5-5.3c-4.5-7-9.1-8.9-17.5-7.5c-9.3,1.6-13.6,0.2-17.2-5.8c-1.6-2.6-4-5.1-5.2-5.5
	c-1.3-0.4-9.3-0.4-17.9,0.1c-17.3,1-15.1,1.8-24.3-9.4c-3.3-4-6.2-4.5-20.5-3.2c-15.4,1.4-17.5,0.8-21.7-5.4
	c-4.2-6.3-7.1-8-12.8-7.8C3105.4,1352,3095.8,1352.4,3086.5,1352.7 M1357.8,1646.5c1.2,1.6,6.5,7.5,11.6,13c9.4,10,9.4,10,15.6,10
	c7.9,0,9.7-1.1,13.2-7.9c1.6-3,2.4-5.2,1.8-4.8c-0.6,0.4-1.8,2.3-2.8,4.3c-1.7,3.5-1.8,3.6-11.6,3.6c-9.9,0-9.9,0-20-10.5
	C1360,1648.3,1356.5,1644.9,1357.8,1646.5"/>
<path class="st1" d="M3938.1,492.9c-1.1,0.8-2.8,3.4-3.9,5.8c-2.7,5.9-7,7.1-21.1,6c-6.2-0.5-154.8-0.9-330.2-1
	c-275-0.1-319.3,0.1-322,1.6c-3.9,2.2-11.1,10.7-12.6,14.7c-0.7,1.9-0.7,6,0,11.2c0.6,4.5,1.1,12.1,1.1,17c0,8-0.3,9.1-3,11.8
	c-1.6,1.6-3.6,3-4.3,3c-0.7,0-2.2,1-3.2,2.2c-1.5,1.8-1.9,5.8-2.1,22.7c-0.3,20.6-0.3,20.6-4.5,22.7c-6.5,3.3-6.9,5-6,25.2
	c0.9,19.9,1.2,18.8-7.3,24.7c-3.9,2.7-3.9,2.7-4,21.5c-0.1,10.3-0.2,19.7-0.3,20.8c-0.1,1.2-2.2,3.2-4.7,4.6c-2.5,1.4-5,3.5-5.7,4.9
	c-0.8,1.6-0.9,8.3-0.4,20c0.7,15.3,0.5,17.9-1.1,20.6c-1,1.7-2.6,3.1-3.4,3.1s-2.9,1.2-4.6,2.6c-3.1,2.6-3.1,2.6-2.9,20.3
	c0.1,9.8,0.1,18.9,0.1,20.4c-0.1,1.9-1.5,3.5-4.6,5.2c-6.6,3.6-7,5.1-6.1,23.6c0.4,8.9,0.4,17.6,0,19.4c-0.5,2.1-2.3,4-5.2,5.6
	c-6.7,3.7-7.1,5.3-6.2,24.3c0.4,9.2,0.5,17.8,0,19.3c-0.4,1.4-2.7,3.7-5.2,5c-6.7,3.7-7.1,5.2-6.2,25.5c0.9,19.9,1.2,18.8-7.3,24.6
	c-2.7,1.8-4.1,3.9-4.7,6.7c-0.4,2.2-0.7,33.6-0.7,69.6c0.1,65.6,0.1,65.6-4,67.8c-2.3,1.2-4.7,3.4-5.4,4.9c-0.9,1.9-1.2,14.6-1,44.6
	c0.2,23.1,0.2,42.6,0.1,43.5c-0.1,0.8-2.3,2.7-5,4.1s-5.2,3.2-5.7,4c-0.5,0.7-0.8,21.2-0.6,45.6c0.2,41.4,0.1,44.3-1.8,45.5
	c-9.3,5.9-9.1,5.5-9.3,15.9c-0.1,5.3-0.4,13.2-0.6,17.6c-0.3,7.9-0.3,7.9,5.8,15.4c3.4,4.1,7.5,8.1,9.2,8.9c1.9,0.9,9,1.2,19.1,1
	c16-0.4,16-0.4,18.8,3.2c7.9,10.3,5.1,9.3,24.6,8.9c17.5-0.4,17.5-0.4,23,6.1c5.6,6.5,5.6,6.5,14.4,5.7c11.3-1,14.9,0.1,18.5,5.9
	c1.6,2.5,3.8,5.2,5,5.9c1.3,0.8,8.9,1.2,19,1c16.9-0.2,16.9-0.2,22.2,6c5.3,6.2,5.3,6.2,22.5,5.8c17.1-0.4,17.1-0.4,19.8,3.2
	c7.2,9.8,5.3,9.1,25.3,9.1c18.1,0,18.1,0,21.2,4.8c4.1,6.4,6.8,7.3,19.2,7c10.4-0.3,10.5-0.2,13.3,3.4c7.7,10.1,5.1,9.1,24.8,9.1
	c17.8,0,17.8,0,23.1,6.2c5.3,6.2,5.3,6.2,22.4,5.8c17.1-0.4,17.1-0.4,19.9,3.2c7.4,9.6,6.3,9.1,19.1,8.8c11.7-0.3,11.7-0.3,17.3,6.3
	c5.6,6.6,5.6,6.6,20.8,5.7c17.4-0.9,20.1-0.3,23.5,5.9c1.3,2.4,3.3,4.9,4.6,5.6c1.3,0.7,9.3,1.2,19.2,1.2c17-0.1,17-0.1,22.4,6.1
	c5.3,6.2,5.3,6.2,16.1,5.3c12-1,10.3-1.8,19.8,9.6c2.7,3.3,2.7,3.3,20,3c17.3-0.3,17.3-0.3,22.9,6.2s5.6,6.5,21.5,5.8
	c17.9-0.8,20-0.3,23.1,6c1.2,2.3,3.2,4.8,4.4,5.6c1.5,0.8,8.6,1.2,19.2,1.1c16.9-0.3,16.9-0.3,21.6,5.6c4.7,5.8,4.7,5.8,14.8,5.5
	c12-0.4,15.3,0.7,18.4,6.2c3.4,6.2,6.9,7.2,22.5,6.6c17.2-0.8,18.7-0.4,22.3,5.2c4.5,7,6.9,7.6,24.4,6.6c16.8-1,14.6-1.8,24.2,10
	c2.1,2.6,3,2.7,14,2.4c11.8-0.3,11.8-0.3,17.4,6.2c5.6,6.6,5.6,6.6,22.1,5.7c18.3-0.9,15.9-1.8,25.2,9.4c2.7,3.2,2.7,3.2,20.6,3.2
	c17.9,0,17.9,0,21,4.8c4.5,7,6.8,7.6,25.1,7.1c17.6-0.4,16.9-0.7,22.7,8.7c1.8,2.9,2.3,3,14.6,3.1c12.7,0.1,12.7,0.1,15.9,4.2
	c1.8,2.3,3.2,4.5,3.2,4.9c0,2.6,7.6,3.7,22.5,3.3c16-0.4,16-0.4,18.6,3.2c7.3,10,5.4,9.3,24.9,8.9c17.6-0.4,17.6-0.4,20.2,3.3
	c7.5,10.3,4,9.4,36.2,8.9c31.9-0.5,28.9-1.2,35.3,8.7c2.9,4.4,10.3,5,60,4.6c47-0.4,47-0.4,51.1,4.7c2.6,3.2,5.6,5.6,8.2,6.4
	c5.5,1.6,66.9,1.6,76.8,0c9.3-1.5,12.6-0.4,16.2,5.4c1.4,2.3,3.7,4.8,5.2,5.5c3.6,1.8,66.2,3,77.7,1.5c12.1-1.6,14.6-0.9,18.3,4.7
	c1.6,2.5,4.1,5.2,5.4,5.8c3.7,1.9,62.5,3,83.2,1.6c20-1.4,21.5-1,24.8,5.8c3.2,6.7,3.1,6.6,52.3,6.8c45.5,0.1,45.5,0.1,49.8,5.5
	c4.3,5.3,4.3,5.3,14.8,6.1c17.5,1.3,58.2,1.1,68.8-0.3c11.1-1.5,14.4-0.4,17,5.8c2.8,6.7,3.4,6.8,58.6,6.4
	c47.9-0.3,50.8-0.2,51.9,1.8c0.6,1.2,2.5,3.8,4.1,5.8c3,3.6,3,3.6,18.8,4c9.7,0.3,16.3-0.1,17.2-0.8c2.5-2.2,1.5-4.8-3.7-10
	c-5.1-5.1-5.1-5.1-4.8-17c0.3-11.2,0.2-11.9-2.3-13.8c-9.1-6.9-8.7-5.9-8.7-20.8c0-12.8-0.1-13.7-2.6-15.6
	c-8.9-6.8-8.4-5.7-8.2-20.5c0.2-14.9,1.1-12.9-8.9-20.9c-2.7-2.1-2.8-2.9-2.9-14.2c-0.1-14.5-0.7-16.5-5.7-19.9
	c-5.4-3.6-6.3-6.8-5.4-19.4c0.8-11.7,0.6-12.2-8.1-18.9c-3.3-2.5-3.3-2.7-3.4-14.6c0-14.5-0.6-16.6-5.7-19.8
	c-5.3-3.3-6.2-6.8-5.4-19.3c0.6-9.7,0.5-10.9-1.8-13.9c-1.4-1.8-3.1-3.3-3.9-3.3c-0.8,0-2.4-1.1-3.6-2.6c-1.8-2.2-2.1-4.5-2.1-15.9
	c0-12.6-0.2-13.5-2.6-15.3c-9.1-6.9-8.7-6-8.3-20.1c0.4-14.1,0.8-13.1-8.2-20.7c-3.4-2.9-3.4-2.9-3.4-15.4c0-6.9-0.5-13.5-1.1-14.6
	c-0.6-1.1-2.9-3.3-5-4.9c-4.9-3.6-6-7.9-4.5-18c1.4-10,0.3-13.4-5.7-17.5c-2.5-1.7-5.1-4.5-5.7-6.2c-0.6-1.7-1-8.3-0.8-14.7
	c0.3-11.5,0.3-11.6-3-14.1c-8.6-6.8-8-5.5-7.7-18.9c0.2-6.8-0.2-13.3-0.8-14.5c-0.6-1.2-2.9-3.4-5-4.8c-4.2-2.8-6.3-7.7-6.3-14.7
	c0-3.9-0.7-5.2-5.3-9.3c-5.3-4.8-5.3-4.8-5.1-17.8c0.2-14.2,0.1-14.4-8.3-20.9c-3.3-2.6-3.3-2.6-3.1-14c0.3-13.4-0.6-16.5-6-20.2
	c-5.4-3.7-6.4-7.3-5.5-19.1c0.9-11.3,0-14.1-5.3-17.1c-5.1-2.9-7-8.7-6-19.3c0.9-10.2-0.3-13.5-6.2-17.8c-4.7-3.4-5.9-8-4.5-18.2
	c1.2-9.3-0.2-13.7-5.8-17.5c-5.7-3.9-7-7.5-6.2-18.3c0.8-10.7-0.4-14.8-5.6-18.4c-5.4-3.8-6.3-7.1-5.4-19.7c0.8-11.7,1.1-11-8-18.7
	c-3.3-2.8-3.4-3-3.4-14.8c0-14.4-0.6-16.5-5.7-19.7c-5.3-3.4-6.2-6.7-5.4-19.4c0.8-11.8,1.1-11.1-8.1-18.9
	c-3.4-2.8-3.4-2.9-3.1-14.2c0.3-13.3-0.6-16.4-6-20.2c-5.3-3.7-6.2-6.9-5.4-19.6c0.8-11.8,1.1-11.1-8.1-18.9
	c-3.4-2.9-3.4-2.9-3.4-15.4c0-6.9-0.5-13.5-1.1-14.6c-0.6-1.1-2.9-3.3-5-4.9c-4.8-3.5-6-8.5-4.5-18c1.4-8.7-0.1-13.6-5.2-17
	c-4.9-3.2-5.9-5.3-6.8-13.8c-0.7-6.2-1.2-7.3-5.7-11.2c-4.2-3.7-4.9-5-4.9-8.7c0-7.9-2.1-13.3-5.8-15.4c-3.9-2.2-6.6-8.1-6.6-14.6
	c0-3.8-0.8-5.3-5.1-9.5c-4.6-4.6-5.1-5.5-5.1-10.7c0-7.4-1.5-10.5-6.8-14.5c-4-3-4.4-3.9-5.1-10.3c-1-9.9-1.2-10.3-6.2-14
	c-3.9-2.9-4.5-3.9-4.5-7.9c0-8.2-2-13.3-6.1-15.9c-4-2.5-6.2-8-6.2-15.2c0-2.6-1.3-4.8-5.1-8.5c-4.6-4.6-5.1-5.5-5.1-10.7
	c0-7.3-1.5-10.6-6.2-14.1c-4.2-3.1-6.2-7.9-6.2-14.5c0-3.5-0.9-5.2-5.1-9.3c-4.1-4.1-5.1-5.8-5.1-9.2c0-7.5-2-12.6-5.7-15
	c-4-2.6-6.7-8.4-6.7-14.8c0-3.8-0.8-5.3-5.2-9.6c-4.7-4.7-5.3-5.8-5.8-11.6c-0.3-3.6-1.3-7.4-2.3-8.6c-1.6-2-21.1-2.1-344.1-2.1
	C4008.7,491.3,3939.6,491.6,3938.1,492.9 M2515.8,506.5c-1.5,1.6-2.8,3.8-2.8,4.7c0,4.7-0.6,4.7-89,4.5c-85.7-0.2-85.7-0.2-88.8,4.2
	c-1.8,2.4-4.8,5.5-6.9,6.8c-2,1.4-5,4.9-6.6,7.8c-2.9,5.4-2.9,5.4-9.6,5.4c-6.7,0-6.7,0-20.5,14.2c-7.6,7.8-14.6,15.9-15.7,18.1
	c-1.8,3.7-2.4,3.9-9.2,4.4c-7.1,0.5-7.4,0.6-15,8.2c-4.2,4.2-8.6,9.4-9.6,11.4c-2.2,4.4-4.3,5.4-11.7,5.6
	c-5.6,0.1-5.7,0.2-17.5,12.5c-6.5,6.8-14.5,15.6-17.8,19.4c-5.3,6.3-5.9,7.6-5.9,12.7c-0.1,7.9-1,9.7-6.1,12.8
	c-2.4,1.5-5.6,4.6-6.9,6.9c-4.7,7.9-5.5,8.5-12.8,8.5c-7,0-11.3,2.5-11.3,6.6c0,3-4.9,5.6-8.7,4.8c-5.6-1.2-11.4,1.5-13.2,6.2
	c-2.4,6.1-5.1,7.1-17.2,6.2c-12.1-0.9-14.4-0.1-16.8,6.1c-1.9,4.8-4.9,6.4-10.6,5.7c-5.8-0.8-9.8,1.4-11.7,6.2
	c-0.9,2.3-2.5,4.7-3.7,5.4c-1.3,0.8-11.9,1-29.7,0.5c-20.2-0.5-28.4-0.3-30.2,0.8c-1.4,0.8-3.5,3.6-4.8,6.2
	c-2.9,6.1-4.9,6.6-20.7,5.5c-18.3-1.3-19-1.2-20.6,1.2c-0.8,1.2-1.5,4.5-1.5,7.4c0,4.2,0.5,5.6,3,7.4c1.6,1.2,4.5,3.7,6.3,5.6
	c3.3,3.3,3.3,3.5,2.6,12.3c-1.1,13-0.1,17.3,5.1,20.9c5.9,4.2,7.1,8,6.2,19.7c-1,11.6-0.3,13.3,8.8,21.7c7.5,7,8.9,7.5,19.4,6.3
	c7.4-0.8,8-1.1,11.8-6c4.1-5.1,4.1-5.1,63.8-5.2c59.7,0,59.7,0,62.3,4c5.3,8.3,2,7.9,61.2,7.9c29.5,0,57.3-0.3,61.8-0.6
	c9.1-0.7,7.7-1.5,15.6,9.4c2.4,3.4,2.4,3.4,66,3.5c63.5,0.1,63.5,0.1,66.5,4.8c1.6,2.6,4.2,5.2,5.6,5.8c3.7,1.6,100.7,2.5,111.6,1
	c11.6-1.6,14.1-0.9,18.1,5.1c1.8,2.7,4.2,5.5,5.3,6.2c2.4,1.5,59.2,1.9,63.9,0.5c1.9-0.6,5.2-3.3,7.4-6.1c3.7-4.6,4.7-5.1,11.3-6.1
	c6.7-0.9,7.6-1.5,11.8-6.5c4.3-5.3,4.7-5.5,10.9-5.5c6.2,0,6.5-0.2,10.7-5.5c4-5.1,4.9-5.6,11.5-6.6c8.1-1.2,13-4.9,22.8-16.9
	c5.5-6.8,6-7.1,12.3-7.9c5.9-0.7,7-1.3,11.1-6.2c4.2-5.1,4.9-5.4,10.3-5.4c5.2,0,6.3-0.5,11.7-5.6c3.3-3.1,8.6-8.5,11.8-12.1
	c5.4-6.2,6.2-6.6,11.2-6.6c4.9,0,5.7-0.4,10.2-5.7c4.4-5.2,5.4-5.7,11.9-6.7c6.4-0.9,7.5-1.5,11.1-5.9c3.3-4.1,4.7-4.9,8.2-4.9
	c6.8,0,10.9-2.7,21.6-14.4c9.4-10.2,10.5-11,14.7-11.1c7-0.1,9.4-1.2,11.9-5.5c2.4-4.1,7.1-6.6,12.3-6.6c4.3,0,8.6-3.3,18.7-14.2
	c8.6-9.3,9.3-9.7,15.2-10.5c5.5-0.7,6.7-1.4,10.9-6.2c4.2-5,5.2-5.5,9.8-5.5c6.6,0,9.9-1.7,12.3-6.1c2.2-4.1,6-6,11.8-6
	c5.5,0,10.2-3.4,19.5-14.2c7.6-8.9,8.1-9.2,14.4-10.1c5.7-0.8,7-1.6,10.5-5.7c3.5-4.2,4.7-4.9,10.4-5.6c5.8-0.7,7.3-1.6,14.2-8
	c4.2-4,9.3-9.3,11.2-11.9c3.3-4.4,4-4.7,10.5-5.2c5.8-0.5,7.3-1,8.8-3.4c4.3-7,5.3-7.6,12.6-8.6c6.6-0.8,7.6-1.3,11.3-6
	c3.7-4.6,4.7-5.1,10.8-5.9c6.2-0.8,7.4-1.5,14.3-8.1c4.1-4,8.8-9.3,10.3-11.8c2.7-4.3,3.1-4.5,9.1-4.5c6.6,0,6.3,0.2,15.1-10.6
	c1.8-2.2,3.4-2.7,8-2.7c5.3,0,6.3-0.5,12.6-6.4c3.7-3.5,9-8.7,11.8-11.5c4.4-4.5,5.7-5.1,10.9-5.5c6.9-0.4,8.5-3.2,3.8-6.5
	c-2.5-1.8-3.6-1.8-8.8-0.5c-6.7,1.8-20.3,1.9-138.6,1.4c-79.7-0.3-79.7-0.3-82.2-5c-1.4-2.6-3.7-5.3-5.2-6.1
	c-2-1-64.3-1.3-220.9-1.3C2518.6,503.5,2518.6,503.5,2515.8,506.5 M3222.8,513.6c-0.3,0.9-0.5,2.1-0.4,2.7c0.5,2.8-0.2,6.3-1.7,8.4
	c-1.2,1.8-3.4,2.5-9.3,3c-7.7,0.6-7.7,0.6-9.4,5.7c-1,2.8-2.1,5.5-2.6,6c-0.5,0.5-4.1,1-8.2,1c-7.2,0.1-7.4,0.2-12.4,5.8
	c-2.8,3.1-5.6,5.7-6.2,5.7c-0.6,0-2.9,2.7-5.1,6.1c-4.1,6.1-4.1,6.1-10.7,6.1c-7.2,0-8.9,1.1-12.5,8.3c-1.8,3.5-2.4,3.8-7.9,3.9
	c-3.3,0-6.8,0.5-7.8,0.9c-2.2,1-16.4,15.6-19.7,20.3c-2,2.9-3.3,3.5-10.1,4.1c-7.8,0.7-7.8,0.7-10.4,5.9c-2.6,5.2-2.6,5.2-9.4,5.2
	c-8,0-10.5,1.2-13,6.4c-2.5,5.1-3.4,5.7-9.8,5.7c-3,0-6.4,0.6-7.6,1.3c-2.7,1.6-15.6,15.5-18.3,19.8c-1.7,2.7-2.9,3.2-7.3,3.3
	c-8.4,0.2-10.7,1.3-13.6,6.9c-2.6,5.1-2.6,5.1-9.4,5.1c-6.7,0-6.8,0.1-14.6,7.5c-4.3,4.1-9.1,9.6-10.6,12.1c-2.8,4.5-3,4.6-9.6,4.6
	c-7.2,0-8.7,1-13.8,9c-1.7,2.7-2.9,3.2-7.5,3.2c-7.8,0-10.9,1.6-13.2,6.9c-2,4.5-2.1,4.6-9.5,5.2c-7.5,0.6-7.5,0.6-15.8,9.2
	c-4.6,4.7-9.2,10.1-10.3,11.8c-1.8,2.8-2.8,3.2-8.2,3.2c-7.7,0-10,1.3-12.8,7.2c-2.2,4.6-2.4,4.7-9.5,5.2c-7,0.5-7.5,0.7-14.4,7.6
	c-3.9,3.9-8.5,9.2-10.3,11.8c-2.9,4.3-3.6,4.7-8.7,4.7c-7.9,0-10.9,1.6-13.6,7.2c-2.4,5.1-3.3,5.5-11.5,5c-5.3-0.3-8.3,1.5-10.7,6.3
	c-2.4,5.1-3.4,5.7-9.1,5.7c-2.6,0-5.9,0.5-7.3,1.1c-2.9,1.2-16.1,14.9-19.3,20c-1.7,2.7-2.8,3.2-7.5,3.2c-7.8,0-10.9,1.6-13.5,7.2
	c-2.3,4.9-2.3,4.9-9,4.9c-6.6,0-6.8,0.1-15.1,8c-4.6,4.4-9.5,9.8-10.7,12.1c-2.2,4-2.5,4.2-9.1,4.2c-7.3,0-7.5,0.2-14.1,9.1
	c-2.3,3.2-3.3,3.6-8,3.4c-7.1-0.3-10.2,1.2-12.5,5.9c-2.5,5.3-3.4,5.8-10.4,5.8c-7.5,0-9.8,1.3-12.6,7.2c-1.2,2.6-2.9,4.9-3.7,5.2
	c-0.8,0.3-17.3,0.5-36.6,0.4c-38.2-0.1-36.7,0.1-41-7.4c-2.4-4.1-8.7-7.4-11.9-6.2c-0.9,0.4-27.9,0.7-60,0.8
	c-58.3,0.1-58.3,0.1-60.8-3.3c-6.8-9.3,1-8.4-69-8c-62.5,0.4-62.5,0.4-68.5-6.6c-6-7-6-7-68.9-7.1c-62.8-0.1-62.8-0.1-66-4.9
	c-1.7-2.6-4.5-5.3-6.2-6c-2-0.8-22.6-1-57.7-0.6c-60.4,0.7-54.5-0.3-60.5,10.5c-1,1.8-2.6,2.3-7.9,2.2c-3.7,0-9-0.5-11.8-1
	c-4.2-0.8-5.5-0.6-7,1.1c-2.5,2.7-2.4,3.9,0.6,6.4c9.2,7.8,8.6,5,8.7,40.2c0.1,31.8,0.1,31.8-3.4,33.9c-9.7,5.7-9.1,3.7-8.5,31.5
	c0.4,15.4,0.2,25.8-0.5,27.1c-0.6,1.2-2.8,3-4.9,4c-6.3,2.9-6.7,4.6-5.9,30.8c0.5,15.3,0.3,24.3-0.4,25.8c-0.6,1.3-2.9,3.1-5.1,4.1
	c-2.2,1-4.4,3-4.9,4.5c-0.5,1.5-0.8,18.3-0.5,37.4s0.2,35.8-0.2,37.3c-0.4,1.6-2.5,3.7-5.1,5.2c-6.7,3.7-7.1,5.2-6.2,24.8
	c0.5,11.4,0.4,18.1-0.4,19.7c-0.7,1.3-3.2,3.4-5.7,4.6c-3.4,1.6-5.2,3.6-6.9,7.5c-3,6.6-3.5,6.9-10.6,6.8c-3.5-0.1-6.8,0.6-8.4,1.7
	c-2.7,1.9-2.7,1.9-2.4,26.3c0.2,13.4,0.2,25.1,0.1,25.9c-0.1,0.8-2.1,2.6-4.5,3.9c-5.2,2.8-5.8,4.2-5.8,12.9c0,7.1-1.2,9.1-7.7,12.9
	c-3.4,2-3.6,2.4-3.6,9.5c0,6.8-0.3,7.7-3.5,10.8c-4.6,4.4-7.1,7.1-14.3,15.1c-5.9,6.7-5.9,6.7-5.6,14.2c0.2,4.2-0.2,7.7-0.8,7.9
	c-0.6,0.2-2.9,1.4-5.1,2.5c-3.7,2-4,2.6-4.5,9c-0.6,6.9-4.1,13.1-7.3,13.1c-0.7,0-2.3,1.1-3.4,2.5c-1.6,1.9-1.8,3-0.9,4.5
	c1,1.8,3.5,2.1,18,2.1c18.6,0.1,16.3,1,25.2-10.1c2.2-2.7,2.5-2.7,19.2-1.9c17,0.8,17,0.8,22.3-5.5c5.3-6.3,5.3-6.3,22.8-6.2
	c17.5,0,17.5,0,22.7-6.4c5.3-6.4,5.3-6.4,17.3-6.4c13.2,0,11.4,0.9,19-9.1c2-2.7,2.6-2.7,15.3-2.1c18.5,0.9,22.1,0,27.5-6.9
	c4.4-5.6,4.4-5.6,21.9-5.6c17.5,0,17.5,0,22.7-6.1c5.2-6.1,5.2-6.1,21.2-6.1c8.8,0,17.3-0.5,18.9-1.2c1.6-0.7,3.9-3.1,5.2-5.4
	c2.9-5.3,6.9-6.8,18.8-6.8c10.8,0,12.9,0.8,18.4,7.5c3.5,4.3,4.7,4.9,11,5.7c6.3,0.8,7.5,1.4,11.3,5.8c3.8,4.4,5,5,11.4,5.8
	c6.6,0.8,7.4,1.2,10.1,5.5c3.7,5.7,6.6,7.2,13.4,7.2c4.8,0,5.6,0.5,10.5,6.1c5.3,6.1,5.3,6.1,14.7,5.3c11.3-1,14.8,0.2,18,6
	c2.5,4.6,6.9,6.8,13.6,6.8c3.7,0,5.1,0.8,9.2,5.6c4.5,5.2,5.3,5.6,11.9,6.2c6.7,0.7,7.3,1,9.9,5.3c3.1,5.1,7.3,7.2,14.3,7.2
	c4,0,5.2,0.7,9.9,6.2c5.3,6.2,5.3,6.2,14.7,5.4c11.2-1,14.6,0.1,18.1,6c2.9,4.8,6.9,6.7,13.7,6.7c4,0,5.2,0.7,9.1,5.3
	c4.1,4.8,5.2,5.4,11.3,6.2c5.4,0.7,7.3,1.6,9.9,4.5c1.7,2,3.2,4.1,3.2,4.6c0,1.6,6.7,3.6,11.7,3.6c4.2,0,5.1,0.6,9.9,6.4
	c5.2,6.4,5.2,6.4,21.4,6.4c22.5,0.1,27.2-0.9,31.1-6.5c1.7-2.5,3.6-4.8,4.2-5.3c0.6-0.5,11-0.5,23.1-0.1c12.1,0.4,25,0.3,28.7-0.2
	c6.8-0.9,7.5-1.4,14.6-10.5c1.7-2.1,3.3-2.2,25.2-1.6c31.5,0.9,33.4,0.5,39.8-6.8c5.1-5.8,5.1-5.8,30.3-5.5
	c13.9,0.2,27-0.1,29.2-0.6c2.8-0.7,5.4-2.7,8.4-6.5c4.4-5.5,4.4-5.5,28.3-4.7c29.6,1,33.7,0.2,39.6-7.5c4-5.3,4-5.3,29.1-4.6
	c29.4,0.8,33,0.1,37.7-6.7c1.7-2.5,3.6-5,4.3-5.5c0.6-0.5,8.2-0.9,16.9-0.7c8.7,0.2,21.6,0.2,28.6,0.1c12.9-0.2,12.9-0.2,18-6.3
	c5.2-6.1,5.2-6.1,33.8-6.1c28.6,0,28.6,0,33.8-6.1c5.2-6.1,5.2-6.1,30-5.3c29.3,0.9,31.5,0.5,38.5-7.9c4.7-5.6,4.7-5.6,16.4-5.3
	c16.5,0.5,16.2,0.9,15.7-23.3c-0.4-18.4-0.4-18.4,4.7-22.9c7.8-6.9,7.9-7.7,7.2-53c-0.7-39.5-0.7-39.5,5.2-45.1
	c5.9-5.7,5.9-5.7,5.9-48.9c0-43.2,0-43.2,5.6-48.5c5.6-5.3,5.6-5.3,5.7-72.8c0.1-67.5,0.1-67.5,6.1-73.5c6-6,6-6,5.4-23.9
	c-0.6-17.9-0.6-17.9,4.9-23.6c5.5-5.7,5.5-5.7,5.5-24.2c0-18.5,0-18.5,4-22.6c2.2-2.2,4.4-4.1,5-4.1c2.4,0,3.3-8.1,2.6-24
	c-0.7-16.7-0.7-16.7,5.1-21.9c5.8-5.2,5.8-5.2,5.8-24.2c0-18.9,0-18.9,5.9-24.8c5.9-5.9,5.9-5.9,5.5-24.2c-0.4-18.3-0.4-18.3,5.4-24
	c5.7-5.7,5.7-5.7,5.7-24.3c0-18.6,0-18.6,4-22.7c2.2-2.2,4.4-4.1,5-4.1c2.3,0,3.1-7.8,2.6-23.6c-0.6-16.8-0.6-16.8,5.4-22.7
	c6-5.9,6-5.9,5.3-23c-0.4-9.4-0.2-18.4,0.3-19.9c0.6-1.6,3.1-4.1,5.6-5.6c2.5-1.5,4.8-3.9,5.1-5.3c0.3-1.4,0.7-9.8,1-18.8
	c0.5-16.3,0.5-16.3-2.9-19.7C3225.1,511.6,3223.7,511.2,3222.8,513.6 M2175.3,1316.3c-7.5,0.7-8,0.9-10.4,4.9
	c-5.4,9.1-4.2,8.7-23.9,7.8c-19.6-0.9-19.3-1-22.9,7.3c-2.1,4.9-5.2,5.5-22.3,4.1c-16.9-1.4-18.7-0.8-22.6,7.4
	c-1.4,2.9-3.3,5-5.1,5.5c-1.6,0.4-9.9,0.4-18.6,0c-17.5-0.9-18.3-0.6-21.1,6.6c-2.1,5.5-5.7,6.7-17.6,5.7
	c-8.2-0.7-10.4-0.5-12.7,1.1c-1.5,1.1-2.8,2.7-2.8,3.6s-1.3,3.1-2.8,4.9c-2.8,3.3-2.8,3.3-20.6,2.5c-19.6-0.9-19.3-1-23,7.3
	c-2,4.7-4.5,5.1-22,4c-8.1-0.5-15-0.4-16.6,0.2c-1.5,0.6-4.1,3.6-5.8,6.7c-1.7,3-3.6,5.6-4.3,5.8c-0.7,0.1-9.4,0.3-19.3,0.3
	c-18,0.1-18,0.1-20.9,5.5c-3,5.4-3,5.5-10.3,6.1c-6.9,0.6-7.7,1-14.3,7.2c-7,6.6-7,6.6-7,13.7c0,6.3-0.4,7.5-3.1,10.1
	c-1.7,1.6-19.6,20.6-39.7,42.1c-36.6,39.1-36.6,39.1-37.2,53.5c-0.5,13.3-0.8,14.5-3.2,16.7c-1.9,1.7-4.4,2.3-9.2,2.3
	c-9.3,0-10.3,1.8-9.4,16.6c0.7,11.2,0.7,11.2-3,14.6c-3.8,3.5-8.4,8.2-16,16.8c-4,4.5-4.4,5.5-4.5,11.5c0,9.8-1.5,11.5-10.8,12.5
	c-7.9,0.9-12.8,3.2-12.8,6.1c0,0.9-0.9,2.9-2.1,4.4c-1.7,2.3-3.1,2.7-8.1,2.6c-8.7-0.2-10.1,1-10.2,8.6c-0.1,8.5-0.9,10.2-6.1,13.4
	c-4,2.4-6.2,5.1-10.3,12.5c-1.1,2.1-2.9,2.3-19.2,2.4c-9.9,0.1-19-0.3-20.4-0.9c-1.4-0.5-3.7-2.9-5.1-5.2c-3.1-5.2-6.2-6.8-12.8-6.8
	c-5.2,0-6.1-0.6-12.5-8.9c-2.5-3.2-2.5-3.2-35.1-3.2c-18,0-33.5,0.3-34.5,0.8c-1,0.4-2.8,2.9-4,5.4c-1.2,2.6-3.1,5.1-4.2,5.7
	c-1.1,0.6-12.8,1-26,0.9c-24-0.2-24-0.2-29.4-6.5c-5.4-6.3-5.4-6.3-22-6.3c-16.6,0-16.6,0-18.5,3.9c-3.9,7.9-6.3,9.5-13.8,9.5
	c-6.9,0-6.9,0-18.6-12.8c-13.3-14.4-17.2-16.5-22-11.4c-2.3,2.5-2.4,3.4-1.7,10.1c1.8,15.2,1,18.8-4.9,22.4
	c-5.1,3.1-5.8,4.5-5.8,11.8c0,7.7-1.6,11.2-6.1,13.2c-5.8,2.6-6.6,5.3-5.7,17.7c1,13.9,0.5,16.1-4.5,18c-5.8,2.3-7.4,4.5-7.4,10.6
	c0,5.6,0.6,6.5,8.4,13.1c2.9,2.4,3.4,3.8,3.8,10.2c0.6,9.6,2.3,10.3,8.5,3.3c5.4-6.1,5.1-6.1,22.8-4.8c14.9,1,15.9,0.5,17.4-9.2
	c1-6.7,1.3-7.1,15.9-22.7c14.9-16,14.9-16,33.2-16c21.9,0,23.4,0.7,24.7,11.1c0.4,3.5,1.3,7.3,1.9,8.6c1.4,2.9,18.8,21.6,20.1,21.6
	c1.9,0,3.8,7.4,3.1,12.3c-0.7,5.4-3.9,9.8-8.7,12c-1.9,0.9-4.1,3.6-5.8,7.1c-2.7,5.7-2.7,5.7-10.2,6.4c-7.3,0.7-7.6,0.8-16.1,9.1
	c-4.8,4.6-8.9,9.7-9.3,11.2c-0.8,3.6-4.5,5.1-10.2,4.2c-3.9-0.6-4.8-0.2-6.8,2.6c-2.2,3-2.3,4.3-1.7,18.8c0.4,8.6,0.3,16.9,0,18.5
	c-0.4,1.6-2.2,3.9-4.1,5.1c-3.6,2.3-30.8,31.4-34.3,36.6c-1.7,2.6-2.9,3.1-7.5,3.1c-7.8,0-10.9,1.6-13.2,6.9
	c-1.4,3.3-2.8,4.7-4.8,4.9c-11.6,1.3-12.6,1.7-18.5,7.4c-3.3,3.1-8.6,8-11.8,10.9c-7.8,7-7.7,9.4,0.5,10.5
	c6.2,0.8,6.6,1.1,17.2,12.8c10.2,11.2,11.2,12,16.5,12.7c7.9,1.1,10.3,2.4,12.3,6.5c2,4.1,3,4.7,11.1,5.8c5.6,0.8,6.5,1.5,16,11.7
	c10.8,11.6,13,13,20,13c3.4,0,5.2,0.8,7.3,3.2c1.5,1.8,2.8,3.6,2.8,4c0,0.4,3.5,4.2,7.9,8.4c7,6.7,8.5,7.7,13.8,8.3
	c5.7,0.7,6.4,1.3,16.1,11.6c11,11.8,12.9,13,20.1,13c4.1,0,5.2,0.6,8.7,4.9c3.5,4.4,4.9,5.2,11.8,6.7c6.3,1.4,8.3,2.4,10.1,5.1
	c2.9,4.4,12.8,14.5,17,17.4c2,1.3,5.4,2.3,8.2,2.3c3.9,0,5.3,0.7,7.3,3.3c1.4,1.8,5.8,6.8,9.9,10.9c7.4,7.6,11.8,10,18.8,10
	c2.8,0,4.4,1.1,7.7,5.5c3.7,4.9,4.7,5.5,8.9,5.5c6.2,0.1,10.3,2.1,13.4,6.7c3.1,4.5,14,15.3,17.4,17.3c1.4,0.8,4,1.4,5.9,1.4
	c4.8,0,8.3,2,10.9,6.2c2.9,4.7,14.2,15.3,18,16.9c1.6,0.7,4.6,1.2,6.6,1.3c3,0,5.2,1.8,13.7,11c10.9,11.8,12.9,13.2,19.8,13.2
	c3.7,0,5.2,0.8,9.2,5.3c4.1,4.5,5.8,5.4,11,6.2c5.8,0.9,6.7,1.5,15.3,10.9c9.9,10.8,14.9,14,21.3,14c5.5,0,7.9,1.5,9.6,6.1
	c1.7,4.5,4.9,6,12.5,6c3.9,0,6.1,0.6,7.2,2.1c0.9,1.2,2.5,3.4,3.7,4.9c1.5,2,3.9,3.1,9.4,4c6.8,1.1,7.7,1.7,12.1,6.9
	c4.7,5.7,4.7,5.7,16.7,5.7c12,0,12,0,16.9,6.1c4.9,6.1,4.9,6.1,16.4,5.7c11.5-0.3,11.5-0.3,16.8,5.6c4.8,5.5,5.7,6,12,6.8
	c6.3,0.7,7.1,1.2,11.4,6.5c4.7,5.7,4.7,5.7,16.7,5.7s12,0,16.9,6.1c4.9,6.1,4.9,6.1,16.4,5.7c11.5-0.4,11.5-0.4,16.5,5.4
	c4.5,5.2,5.6,5.8,12,6.8c6.5,1,7.4,1.5,12.4,7.3c5.3,6.2,5.3,6.2,14.4,5.5c11-0.9,13.9,0.1,19.3,6.8c4.1,5.1,4.1,5.1,16.2,5.1
	c12.1,0,12.1,0,16.8,5.6c4.3,5.2,5.2,5.7,11.3,6.3c6.2,0.6,7,1.1,11.9,6.8c5.8,6.7,7.5,7.2,16.3,4.7c6.5-1.9,11.2,0.2,14.9,6.5
	c2.7,4.6,5.1,5.7,8.2,3.6c1.7-1.2,2.4-28,2.8-111c0.2-49.9,0.3-52,2.4-53.7c1.9-1.5,24-1.7,149-1.7c138.4,0,146.9-0.1,148.5-2.1
	c4.1-5,4.4-7.2,3.1-19.5c-1.6-15-0.5-20.5,5.2-25.3c2.2-1.8,4.7-4.7,5.5-6.4c2.2-4.4,3.4-44.7,1.9-59.4c-1.5-13.9-1-16.2,3.9-19.5
	c2.1-1.4,4.5-3.7,5.2-5.2c1-2,1.4-14.8,1.4-51c0-48.4,0-48.4,4.7-52.8c2.6-2.4,5.3-6,6-8c0.9-2.6,1.2-24.4,1-75.2
	c-0.2-67.8-0.2-71.6,1.8-72.8c4.9-3.1,7.5-6.5,8.5-11c0.6-2.9,1-31,0.8-68.4c-0.3-63.5-0.3-63.5,4.6-67.9c3.4-3.1,5.1-5.8,5.9-9.3
	c1.2-5.6,1.6-119,0.5-133.6c-0.8-9.8-0.8-9.8,4.4-14.4c3-2.6,5.7-6.3,6.4-8.6c0.8-2.7,1.1-12.8,0.8-29.5
	c-0.5-28.6-0.3-27.6-10.3-37.6c-4.7-4.7-5.6-5.1-11.5-5.1c-5.7,0-6.6-0.4-9.3-3.8c-6.4-8.2-6.6-8.3-13.4-8.3
	c-7.5,0-8.3-0.5-10.8-5.7c-2.3-4.8-4.9-6.4-10.7-6.4c-6.5,0-9.7-1.7-12.5-6.5c-3.2-5.6-8.1-7.4-15.4-5.6c-8.7,2.1-13.6,0.6-17.5-5.3
	c-4-5.9-5.4-6.7-12.6-6.8c-4.6-0.1-6-0.7-8.7-3.9c-1.8-2.1-3.3-4.2-3.3-4.7c0-1.5-5.7-3.4-11.8-4.1c-5.6-0.6-6.8-1.5-10.8-8
	c-1.4-2.3-3.1-3-9.5-3.7c-6.3-0.7-8.1-1.4-9.9-3.8c-6.5-9-5.4-8.6-18.5-8.2c-12,0.4-12,0.4-14.6-3.3c-6.5-8.8-6.9-9.1-13.5-9.1
	c-6.6,0-7.1-0.3-13.7-8.9c-2.1-2.8-3.3-3.2-8.8-3.2c-6.6,0-8.9-1.4-13-8.3c-1.4-2.3-3.1-3-9.2-3.7c-8-0.9-10.3-2.2-12.9-7.6
	c-1.1-2.2-3.1-3.8-5.8-4.6c-2.3-0.7-4.5-1.2-4.8-1.1C2183.5,1315.5,2179.7,1315.9,2175.3,1316.3 M3086.5,1352.7
	c-16.9,0.7-16.9,0.7-19.4,4.9c-5.1,8.6-5.5,8.9-13.8,8c-4.1-0.4-17-0.8-28.6-0.9c-23.3-0.2-23.2-0.2-26.9,7.6
	c-1.2,2.5-2.8,4.8-3.6,5.1c-0.8,0.3-14.4,0.3-30.2,0c-15.8-0.3-29.3-0.1-30,0.4c-0.7,0.5-2.2,3.2-3.4,5.9c-2.1,4.9-2.1,4.9-31.1,4.4
	c-32.7-0.5-32.8-0.5-37,8.4c-1.3,2.7-3.2,4.9-4.2,5c-1.1,0.1-14.2,0-29.1-0.1c-15-0.2-28.2,0.1-29.5,0.5c-1.3,0.4-3.1,2.9-4.1,5.6
	c-1,2.8-2.9,5.2-4.3,5.8c-1.4,0.5-14.5,0.6-29,0.2s-27.7-0.4-29.1,0.2c-1.4,0.5-3.5,2.7-4.5,4.8c-4.2,8.4-4.9,8.7-18.1,7.8
	c-6.6-0.4-19.4-0.8-28.6-1c-18.3-0.2-18.9,0-22.1,7.4c-2.3,5.3-6.2,6.4-16.9,4.9c-4.1-0.6-15.6-1.1-25.6-1.1
	c-20.3,0-21.5,0.3-25.4,8.5c-1.2,2.6-3.1,4.9-4.2,5c-1.1,0.1-14.9,0.2-30.7,0.3c-31.7,0.1-28.7-0.7-34.6,10c-1,1.9-2.6,2.3-8.5,2.2
	c-4,0-9.1-0.5-11.4-1.1c-3.2-0.8-4.9-0.5-7.2,1.1c-2.9,2.1-2.9,2.1-2.6,34.3c0.3,30.3,0.2,32.3-1.7,33.6c-1.1,0.7-3.7,2.4-5.6,3.8
	c-3.5,2.5-3.5,2.5-3.7,76.4c-0.1,40.7-0.2,74.6-0.3,75.5c-0.1,0.8-2.3,2.7-4.9,4.1c-2.6,1.4-5.2,3.2-5.6,4
	c-0.5,0.7-0.8,32.2-0.8,69.9c0.1,63.1-0.1,68.6-1.8,69.8c-1,0.7-3.5,2.3-5.4,3.7c-3.5,2.5-3.5,2.5-3.6,76.6
	c0,80.8,0.3,76.3-6.6,80.1c-1.9,1.1-3.9,2.5-4.3,3.3c-0.5,0.7-0.5,9.1-0.1,18.5c0.5,11.4,0.3,21.1-0.7,28.8c-1.1,9.3-1.1,12,0,13.5
	c2.5,3.2,6.1,2.2,8.4-2.5c3.4-6.7,6.9-8.2,16.1-6.4c4.9,0.9,12.6,1.1,21.6,0.6c14-0.8,14-0.8,18.9,5c4.6,5.4,5.5,5.9,12.5,7
	c7.2,1.2,7.7,1.5,10.8,6.4c1.8,2.9,5.2,6.5,7.6,8.2c3.4,2.3,4.5,3.9,5,7.5c1.5,10,3,13.2,9.9,21c3.9,4.3,8.3,8.7,9.8,9.8
	c2.2,1.5,2.9,3.3,3.6,9.7c0.8,7.2,1.2,8.2,5.5,12.1c4.2,3.9,4.8,5.1,5.7,11.9c0.9,7,1.5,8.1,8,15.7c3.9,4.5,8.7,9.4,10.8,10.9
	c3.4,2.5,3.7,3.4,3.7,8.7c0,4,0.7,6.8,2.2,8.8c2,2.7,3,2.9,18.9,3.5c22.8,0.8,25.8,0.2,31.4-6.7c3.5-4.2,5.3-5.5,7.9-5.5
	c6.1,0,11.8-2.4,13.7-5.8c3.6-6.3,3.4-6.2,30.1-5.5c29.5,0.9,31.7,0.4,38.7-7.9c4.7-5.7,4.7-5.7,15.5-5.3c12,0.4,14.1-0.3,17.5-6.3
	c1.3-2.3,3.3-4.6,4.3-5.1c1.1-0.5,7.1-1,13.5-1c11.5-0.1,11.5-0.1,17.1-6.6c5.6-6.6,5.6-6.6,15.2-5.8c11.3,0.9,14.2,0,17.5-5.7
	c3.2-5.5,5.1-6.2,18.5-6.2c11.1,0,11.1,0,15.8-5.7c4.4-5.2,5.2-5.7,11.5-6.4c6.9-0.7,7.9-1.4,13-9.2c1.7-2.5,2.5-2.6,26.5-2.8
	c27.4-0.2,25.4-0.7,32.3,8.6c1.4,1.9,3.7,2.8,9,3.4c6.6,0.8,7.5,1.3,11.8,6.2c3.4,3.9,5.5,5.3,7.9,5.3c5.6,0,11.4,2.3,13.2,5.3
	c2.2,3.6,18.5,21.4,22.1,24.1c2.1,1.6,2.9,3.6,3.5,9.6c0.8,6.9,1.2,8,5.5,11.9c4,3.7,4.8,5.2,5.7,11.2c1.3,8.8,2,10.1,8.8,17
	c4.5,4.6,6.6,5.8,11.1,6.4c7.7,1.1,10.1,2.3,12.4,6.6c2.3,4.2,6,6.2,11.7,6.4c2.2,0.1,9,0.7,15.2,1.3c10.6,1.1,22.3,0.5,40.3-2.2
	c5.4-0.8,5.4-0.8,10.7,5.3c4.9,5.6,5.9,6.2,11.8,6.9c5.7,0.7,7.1,1.5,11.3,6c4.3,4.7,5.5,5.3,11.9,6.1c6.6,0.8,7.3,1.2,10.1,5.5
	c3.6,5.6,6.6,7.2,13.3,7.2c7.1,0,10,3.4,11.1,12.8c0.8,7.1,0.9,7.3,12,19.1c6.1,6.5,11.2,12.3,11.2,12.8c0,1.5,5.4,3.8,8.9,3.8
	c3.4,0,9.1-4.1,9.1-6.5c0-0.8,1.1-2.8,2.4-4.3c2.3-2.7,2.9-2.8,12.9-2c7.3,0.6,11.3,0.4,13.1-0.6c1.4-0.8,7-6.3,12.5-12.2
	c9.3-10.1,10.2-10.8,14.7-10.8c2.6,0,5.9-0.7,7.2-1.5c2.9-1.7,13.1-12.1,17.9-18.2c2.9-3.7,4.3-4.4,10.1-5.2
	c6.1-0.8,7.2-1.4,11.5-6.5c4.8-5.6,4.8-5.6,17.9-5.6c13.2,0,13.2,0,16.1,4.2c3,4.3,6.1,7.6,11.8,12.6c2.6,2.3,3.4,4,3.8,9.1
	c0.8,8.9-0.2,11.8-4.7,14.1c-7.5,3.8-7.4,3.3-7.4,29.5c0,23.8,0,23.8,5.6,29.3c5.6,5.6,5.6,5.6,5.6,18.1c0,12.5,0,12.5,5.1,17.8
	c4,4.1,5.1,6.2,5.1,9.3c0,2.2,0.9,6,2,8.4c2.1,4.9,10.2,14.7,13.7,16.7c2.4,1.4,51.6,1.8,54.7,0.5c1-0.4,3.4-3.1,5.2-6.1
	c3.4-5.3,3.4-5.3,27.3-4.5c31.7,1.1,33.7,0.7,40.5-7.3c5.3-6.3,5.3-6.3,22.3-5.9c18.7,0.4,17,1,24.3-8.5c1.8-2.4,3.8-3.2,9.4-3.9
	c7.2-0.9,10.4-3,13.4-8.6c1.2-2.3,2.7-2.4,32.6-2.5c31.4-0.1,31.4-0.1,36.1,5.4c4.7,5.6,4.7,5.6,16.7,5.6s12.1,0,16.6,5.8
	c3.6,4.6,5.2,5.8,8.1,5.8c6.6,0,11.7,2.3,14.7,6.7c2.8,3.9,8.6,6.8,13.1,6.4c5.3-0.4,6.8,0.4,8.9,4.9c2.4,5,6.2,7.5,11.5,7.5
	c4.1,0,2.6,1.5,55.2-54.6c41.6-44.4,43.9-47.3,43.9-56.5c0-3.5,0.8-5.3,3.8-8.2c4.9-4.9,6.3-8,6.4-13.7c0.1-6.4,1-8.3,5.6-11.6
	c3.5-2.5,4.1-3.8,5.2-10.5c1.2-7.3,1.6-8,11.5-18.8c5.6-6.2,10.5-12.5,10.8-14.2c0.3-1.6,0.9-5.2,1.3-7.8c0.5-3.7,1.9-6.1,5.7-9.9
	c4.8-4.8,5-5.3,5-11.8c0-5.5,0.5-7.2,2.4-8.9c7.9-6.9,7.8-6.8,8.9-14.7c0.9-7.1,1.5-8.2,6.2-12.8c4.8-4.8,5.1-5.4,5.1-11.4
	c0-5.4,0.4-6.7,3-9c1.7-1.5,6.5-6.5,10.7-11.1c7.7-8.6,9.9-13.2,9.9-20.9c0-3,0.9-4.6,3.9-7.1c4-3.3,6.2-8.8,6.2-15.5
	c0-2.5,1.5-5,5.6-9.3c5.2-5.4,5.6-6.3,5.6-11.5c0-5.5,0.3-6,10.8-17.7c11.4-12.9,12.9-15.5,12.9-23c0-2.6,0.6-5.3,1.4-6
	c0.8-0.7,2.8-2.5,4.6-4c2.6-2.3,3.3-4.1,4-10.4c0.8-7.1,1.2-8,6.1-12.8c4.9-4.9,5.3-5.6,5.3-11.3c0-5.6,0.4-6.5,4.2-10.1
	c2.3-2.2,7.4-7.7,11.2-12.2c6.4-7.6,7-8.8,7.7-15.3c0.7-6.2,1.3-7.6,5.1-11.3c3.8-3.7,4.5-5.2,5.5-12.1c1-7,1.7-8.3,6.1-12.7
	c4.3-4.3,5-5.7,5.6-11.4c0.7-6.2,1.2-7,10-16.7c11-12,13.3-16.1,13.3-23.8c0-3.2,0.4-5.8,0.9-5.8c0.5,0,2.5-1.5,4.6-3.3
	c3.2-2.9,3.8-4.5,4.7-11.2c0.9-7.2,1.4-8.3,5.8-12.3c4.4-4.1,4.8-5,5.2-11.5c0.4-6.6,0.8-7.4,5.5-11.9c4.5-4.3,5.1-5.6,5.7-11.5
	c0.7-6.4,1-7.1,11.1-18.2c7.4-8.2,10.6-12.7,11.1-15.5c0.4-2.2,1-5.7,1.4-7.9c0.4-2.4,2.5-5.7,5.3-8.4c4.2-4.2,4.6-5.1,5.4-12.7
	c0.6-6.7,1.3-8.6,3.4-10.1c7.2-5.1,7.2-5.1,7.6-17.6c0.5-16.2,1.1-15.8-18.2-14.8c-18,0.9-21.6-0.1-25.5-6.9c-1.4-2.4-3.6-4.7-5-5.2
	c-1.4-0.5-9.7-0.8-18.5-0.6c-17.8,0.3-16.1,1-23.7-9c-2.6-3.3-2.6-3.3-13.9-2.5c-11.3,0.9-11.3,0.9-17.4-6.2
	c-6.1-7.1-6.1-7.1-23.8-7.1c-17.7,0-17.7,0-21-5.2c-1.8-2.9-4.5-5.7-6-6.3c-1.6-0.7-7.5-0.6-15.1,0.2c-16.6,1.8-19.5,1.1-23.9-5.7
	c-3.7-5.7-9.1-8.6-13.7-7.4c-1.4,0.4-8,0.8-14.6,0.8c-13.2,0.2-14-0.1-18.3-7.5c-3-5.1-6.6-6.2-15.5-4.4c-8.7,1.7-12.8,0.4-16.4-5.2
	c-5-7.7-7.8-8.6-25.4-7.7c-17,0.9-15.2,1.5-23.1-8.7c-2.6-3.4-2.6-3.4-19.5-2.5c-18.7,0.9-17.1,1.5-25.5-9.5
	c-2.5-3.2-2.7-3.2-14.5-2.9c-13.3,0.4-11.3,1.4-19.3-9.6c-2.4-3.3-2.5-3.3-13-2.8c-5.8,0.3-13.7,0.6-17.6,0.6c-7.1,0-7.1,0-12.6-6.6
	c-5.5-6.7-5.5-6.7-23-6.3c-17.6,0.4-17.6,0.4-21.2-5.2c-4.7-7.1-7.6-8-22.4-6.5c-15.6,1.5-17.9,0.9-23.1-5.8
	c-5.4-7.1-8.1-8.2-16.4-6.4c-8.8,1.9-13.7,0.1-17.6-6.3c-3.8-6.2-7.3-7.1-21.3-5.8c-15.8,1.5-18.1,0.9-24.3-6.6
	c-5.2-6.3-5.2-6.3-22.2-5.9c-18.9,0.4-17,1.1-24.7-8.9c-2.6-3.3-2.7-3.4-12.8-2.7c-5.6,0.4-11.4,0.2-12.9-0.4
	c-1.5-0.6-4-3.3-5.6-5.9c-4.1-6.7-7-7.5-23-6.2c-15,1.2-17.9,0.6-21.1-4.3c-5.5-8.5-4.6-8.3-23.2-7.3c-16.9,0.9-16.9,0.9-21.3-4.3
	c-2.4-2.8-4.4-5.6-4.4-6.1c0-2.4-7.9-3.7-14.1-2.3c-8.4,1.9-13.2,0.1-17.1-6.2c-3.9-6.3-7.7-7.3-21.6-5.8
	c-15.5,1.7-17.8,1.1-23.9-6.2c-5.7-6.9-5.4-6.8-26.6-6.1c-12.8,0.4-14.9-0.4-18.5-6.6c-1.4-2.4-3.7-4.6-5.3-5
	c-1.6-0.4-8.8-0.5-16-0.1c-17,0.8-18.8,0.4-22.5-5.3c-4.5-7-9.1-8.9-17.5-7.5c-9.3,1.6-13.6,0.2-17.2-5.8c-1.6-2.6-4-5.1-5.2-5.5
	c-1.3-0.4-9.3-0.4-17.9,0.1c-17.3,1-15.1,1.8-24.3-9.4c-3.3-4-6.2-4.5-20.5-3.2c-15.4,1.4-17.5,0.8-21.7-5.4
	c-4.2-6.3-7.1-8-12.8-7.8C3105.4,1352,3095.8,1352.4,3086.5,1352.7 M4231.9,1682.4c-2.1,2.2-2.5,4.1-2.5,10.1c0,6.9-0.2,7.5-3.1,8.8
	c-6.1,2.8-7,4.5-7,12.2c0,7.7,0.3,7.2-9.9,16.7c-2.1,2-2.5,3.6-2.5,9.6c0,6.8-0.2,7.4-3.7,10c-2,1.5-7.1,6.5-11.3,11.1
	c-7.6,8.4-7.6,8.4-7.6,16.2c0,7.7,0,7.9-3.8,9.5c-5.3,2.4-6.1,3.8-6.6,12.6c-0.5,8.1-0.9,8.7-8.9,14.8c-2.1,1.6-2.6,3.3-3,10.1
	c-0.5,8-0.6,8.2-4.9,11.2c-5.2,3.5-6.4,6.4-6.3,14.5c0.1,5.2-0.3,6.2-3.2,8.4c-5.3,4.1-17.5,17.7-18.6,20.9c-0.6,1.6-1.1,5.3-1.1,8
	c0,6.1-0.6,7.2-5.3,9.8c-4.8,2.7-6,5.3-6,13.9c0,7-0.1,7.3-3.8,9.2c-5.6,2.8-6.5,4.7-6.9,13.1c-0.3,6.8-0.6,7.9-3.5,10.1
	c-5.7,4.3-17.4,17.4-18.5,20.7c-0.6,1.7-1.1,5.5-1.1,8.4c0,5.5-1.8,8.2-6.4,9.7c-3,1-4,4-4.3,12.7c-0.2,5.3-0.7,7-2.7,8.5
	c-8.1,6.2-8.4,6.7-8.9,15.1c-0.4,7-0.9,8.4-3.4,10.2c-1.6,1.1-6.3,5.8-10.4,10.3c-7.6,8.3-9,11.2-9,19.8c0,4.4-2.2,7.4-6.1,8.5
	c-3.5,0.9-5.1,5.3-5.1,13.3c0,6.4-0.2,6.7-4.4,9.6c-5.7,3.9-6.1,4.6-6.2,13.2c-0.1,6.6-0.5,7.5-3.4,9.8
	c-5.7,4.4-18.6,18.9-18.7,21.1c-0.1,1.1-0.2,4.5-0.3,7.4c-0.2,4.3-0.9,5.9-3.6,8.1c-8.2,6.9-8.4,7.3-8.4,15c0,7.2-0.1,7.4-4.4,10.3
	c-5.7,3.9-6.2,4.8-6,12.3c0.2,6.5-2.7,12.6-5.9,12.6c-0.8,0-2.5,1.3-3.9,2.8c-2,2.3-2.5,4.3-2.5,10.3c0,7.3-0.1,7.5-4.2,10.6
	c-2.3,1.7-7.4,6.9-11.3,11.6c-6.9,8.4-7,8.6-7,15.7c0,7.1,0,7.1-4.8,10c-4.7,2.8-4.8,3-5.1,9.5c-0.5,10.9-1,12.1-6.6,14.7
	c-7.4,3.5-9.7,11.9-4.7,17.3c2.5,2.7,3.1,2.8,31.3,3c28.7,0.3,28.7,0.3,34,6.5c5.3,6.2,5.3,6.2,20.7,5.5c14.6-0.7,22,0.3,22,2.8
	c0,0.6,1.3,2.6,2.8,4.6c2.4,3.1,3.8,3.7,9.7,4.1c6.5,0.5,7.2,0.8,11.1,5.8c3.8,4.8,4.8,5.3,11.3,6.3c6.7,1,7.6,1.5,12.4,7.1
	c5.2,6,5.2,6,22.4,6c17.2,0,17.2,0,22.6,6.3c5.4,6.3,5.4,6.3,21,7.4c8.6,0.6,47.4,0.9,86.1,0.7c78.9-0.5,75.2-0.1,82.1-9.3
	c3.4-4.6,3.4-4.6,28.8-4.5c25.4,0.1,25.4,0.1,29.7,5.1c3.8,4.4,5.1,5.1,11.1,5.9c6.2,0.8,7.2,1.4,11.6,6.5c4.8,5.6,4.8,5.6,16.7,5.6
	c11.9,0,11.9,0,16,5.2c4.2,5.3,8.9,7.6,15.6,7.6c2.8,0,4.4,1.1,7.6,5.3c3.6,4.8,4.6,5.3,10.1,6c7.1,0.8,9.7,2.3,12.7,7.1
	c1.2,1.9,5.3,6.4,9.1,10c6.1,5.7,7.8,6.6,13.4,7.4c5.5,0.7,7,1.5,9.9,5.2c5.8,7.3,15.3,16.6,18.5,18.1c1.7,0.8,4.7,1.5,6.7,1.5
	c3.2,0,5.7,2.3,19.2,16.6c15.8,16.9,19.8,19.8,26.7,19.8c2.8,0,4.6,0.8,6,2.7c4,5.6,16.6,17.9,20.1,19.7c2,1,5.7,1.9,8.2,1.9
	c2.9,0,5.1,0.7,6,2c5.6,7.5,7.5,9,12.2,9c5.8,0,8.7,1.5,13,7c3,3.7,4.4,4.4,10.7,5.3c6.7,1,7.6,1.5,11.8,6.5c4.2,5,5,5.5,11.3,6.2
	c6.2,0.7,7.1,1.1,11.4,6.2c4.6,5.5,4.6,5.5,22.6,7.3c17.6,1.8,29.1,1.5,57.1-1.7c5.7-0.7,5-1.2,12.6,8.7c2.8,3.6,2.8,3.6,20.4,3.6
	s17.6,0,22.5,5.8c5.3,6.2,5.1,6.1,19,5.8c8.5-0.2,8.9-0.1,12.1,3.6c1.9,2.1,3.4,4.3,3.4,4.9c0,0.5,3.8,4.3,8.5,8.3
	c7.6,6.6,9.1,7.4,15.2,8.1c6.2,0.8,6.9,1.2,9.6,5.5c2.9,4.8,4.1,5.3,13,6.4c4,0.5,5.8,1.5,8.5,4.7c4.3,5.2,7.3,6.9,12.3,6.9
	c5.5,0,8.7,1.8,11.7,6.8c1.4,2.3,3.9,4.8,5.4,5.4c4.2,1.7,39.2,1.5,42.8-0.3c1.6-0.8,3.7-3,4.6-4.8c3-6.3,6.1-7.5,17.2-6.5
	c9.9,0.8,9.9,0.8,16.9-5.6c7.1-6.6,9.4-11,10.9-20.7c0.5-3.1,2.1-5.9,5.3-9.3c4.2-4.3,4.7-5.5,5.5-12.5c0.7-6.6,1.3-8.1,4-10.1
	c1.8-1.3,4.5-4,6-5.9c8.6-10.5,8.5-10.5,14.7-10.5c5.3,0,6.2,0.4,9.4,4.3c6.6,8,32.7,36,35.3,37.8c1.6,1.1,2.8,3.5,3.2,6.2
	c0.4,2.4,0.9,6,1.3,7.8c0.4,2.2,4.3,7.4,10.8,14.5c10.2,11.1,10.2,11.1,10.4,52.4c0.2,45.1,0.5,46.8,6.8,50.4
	c4.9,2.8,6.2,7,5.9,19.4c-0.3,11.2-0.3,11.2,4.7,15.8c4.6,4.3,5.1,5.2,5.8,12c1.1,9.8,2.3,11.2,9.3,10.7c5.4-0.3,5.8-0.6,8.7-5.8
	c3-5.5,3-5.5,18.5-5c20.3,0.5,22.5,0.1,26.1-5.8c1.6-2.6,3.7-5.1,4.8-5.6c2.8-1.3,47.8-1.5,50.5-0.2c1.3,0.6,3.3,2.8,4.4,4.8
	c3,5.5,7.2,6.8,18.7,6.1c10.9-0.7,10.7-0.8,17.9,9.4c1.5,2.1,3.8,4.4,5.2,5.1c2.8,1.4,5,5.7,5,9.9c0,5.4,2.3,10.2,5.5,11.4
	c1.7,0.6,9,0.9,16.2,0.5c14.9-0.7,18.5,0.3,21.6,5.9c4.1,7.5,4.8,7.7,37.2,7.7c16.2,0,30.9-0.4,32.6-0.9c1.8-0.5,4.3-3,6-5.7
	c3.9-6.4,7.7-7.9,17.6-7c9.1,0.8,14.9-1,16.1-5.1c1.4-4.7,6-7.4,12.7-7.4c5.2,0,6.5-0.5,8.9-3.2c1.5-1.8,2.8-3.7,2.8-4.3
	c0-1.7,7.4-4.6,11.9-4.6c5.3,0,7.7-1.5,10.4-6.5c2.1-3.8,2.7-4.2,9-4.6c7.9-0.6,8.3-0.9,29.2-23c14.8-15.7,17.3-19.7,17.3-28
	c0-5,0.4-5.7,4.6-8.7c2.5-1.8,5.6-5.2,6.9-7.5c2.7-4.9,5.8-6.5,12.7-6.5c4.5,0,5.3-0.5,9.4-5.6c4.2-5.3,5-5.7,11.6-6.7
	c6.7-0.9,7.5-1.4,12.5-7.2c2.9-3.4,5.4-7.2,5.4-8.5c0-1.3-1.8-3.7-3.9-5.5c-2.8-2.3-4.1-4.5-4.6-7.6c-0.4-2.4-0.9-6.2-1.2-8.4
	c-0.4-3-1.7-4.7-5.1-7c-4.5-3.1-4.5-3.1-4.2-22.5c0.4-21.3,0.7-20.3-9.2-27.7c-2.3-1.7-2.4-2.8-2.6-21.6
	c-0.2-21.9,0.5-19.7-8.6-26.9c-1.6-1.3-2.6-4.1-3.4-9.6c-0.6-4.3-1.6-8.3-2.1-8.9c-1-1.1-125.3-1.4-137.8-0.3
	c-8.6,0.8-11.7-0.6-15.5-6.8c-3.6-5.8-7.2-7.2-15.5-5.9c-10,1.5-13.8,0.4-17.3-5.1c-3.1-4.9-7.7-7.1-14.6-7.1c-2.5,0-4.5-1-6.2-3.1
	c-1.4-1.7-7.9-8.9-14.4-16.1c-10-10.9-12.1-13.8-12.7-17.9c-1.7-11-2-11.6-6.1-14.4c-4.1-2.8-4.1-2.8-4.1-70.7
	c-0.1-68-0.1-68-6.8-75.5c-3.7-4.2-10-10.5-13.9-14.1c-6.6-6.1-7.5-6.6-12.8-6.6c-5.9,0-6.3-0.3-13.9-9.9c-1.7-2.1-3.1-2.3-13.7-2
	c-11.8,0.4-11.8,0.4-16.6-5.5c-4.5-5.5-5.1-5.9-12-6.8c-6-0.8-7.6-1.5-9.6-4.2c-2.4-3.4-7-8.5-11.6-12.8c-1.9-1.8-2.5-3.7-2.5-8
	c0-3.1-0.6-6.7-1.3-8.2c-1.6-3.1-15.4-18-18.4-19.8c-1.7-1-2.4-3.2-3-9.5c-0.8-7.9-1-8.4-6.3-13.4c-5.5-5.2-5.5-5.2-5.6-18.3
	c-0.1-12.4-0.2-13.2-2.8-15.3c-7.1-5.9-7.8-6.9-7.8-11.1c0-8.5-1.3-11.9-5.8-15.2c-5.5-4.1-6.7-8-6.3-21.3c0.3-10.6,0.2-10.8-3-13.3
	c-8.6-6.8-8-5.4-7.7-19.5c0.3-12.8,0.3-12.9-3-16.2c-1.8-1.8-4.5-4.1-5.9-5.2c-2.5-1.9-2.7-2.8-2.7-14c-0.1-16.4,0.1-15.6-5.6-19.9
	c-4.7-3.5-5.1-4.2-5.1-9c0-7.6-2-12.5-6.2-15.3c-5-3.3-6.6-8.8-5.6-19.2c0.9-10-0.1-13-5.6-17.1c-5.5-4-6.6-8.1-5.1-18
	c1.5-9.4-0.2-14.5-6-18.4c-5.3-3.5-6.9-8.8-5.9-19.1c1-9.6-0.5-14-5.8-17.5c-5.3-3.5-6.3-7.1-5.4-18.8c0.9-11.3,0.1-13.6-5.6-17.4
	c-4-2.7-6.3-7.6-6.3-13.5c0-5-1.9-8.7-6.1-11.6c-4.4-3.1-5.2-6.3-4.4-17.6c0.3-4.4,0.3-9.4-0.1-11.1c-0.4-1.7-4.3-6.3-8.6-10.4
	c-7.9-7.4-7.9-7.4-24.1-6.6c-18,0.8-15.5,1.8-24.4-9.1c-2.3-2.8-2.3-2.8-53.7-2.6c-51.4,0.2-51.4,0.2-56.6-6.1
	c-5.2-6.4-5.2-6.4-33.4-6.5c-15.5-0.1-36,0.1-45.5,0.4c-19.4,0.6-16.6,1.6-24.4-9.1c-2.3-3.1-2.3-3.1-43.4-2.8
	c-56.8,0.4-50.3,1.1-56.6-6.5c-5.3-6.4-5.3-6.4-56.8-6.5c-51.6,0-51.6,0-53.4-2.8c-6.5-9.8-2.2-9-44.2-8.8
	c-20.7,0.1-40.5,0.5-43.9,0.9c-8,0.9-11.6-0.7-15.3-6.7c-1.8-3-4.4-5.3-6.5-6.1c-2.2-0.7-19.9-1.1-46.4-0.9
	c-23.6,0.2-43.7-0.1-44.8-0.7c-1.1-0.6-2.8-2.7-3.7-4.7c-3.1-6.4-4.6-6.6-55.8-5.9c-25.7,0.3-48.3,0.2-50.1-0.3
	c-1.8-0.5-5.4-3.4-7.9-6.6c-4.6-5.7-4.6-5.7-25.5-5.8C4235,1679.7,4234.3,1679.7,4231.9,1682.4 M1275.2,1975.1
	c-7.3,7.9-14.2,15.8-15.3,17.6c-1.8,2.8-2.8,3.2-8.2,3.2c-5.7,0-6.6,0.4-11.5,5.2c-5.5,5.3-45.9,49.1-49.9,54.1
	c-2.2,2.7-2.7,2.8-13.8,2c-12.7-0.9-12.7-0.9-16.4,7.1c-1.8,3.8-2.2,4-10,4.6c-8.9,0.7-9.6,1.2-12.4,7.3c-1.9,4-2.1,4.1-10,4.7
	c-4.4,0.3-8.5,1-9,1.6c-0.5,0.5-1.2,4.8-1.6,9.5c-0.4,5.2-1.4,9.3-2.5,10.4c-1.1,1.2-4.8,2.2-9.6,2.7c-7.7,0.8-11.5,2.6-11.5,5.6
	c0,0.8-0.9,2.8-2.1,4.3c-1.7,2.3-3.6,2.9-10.4,3.5c-8.3,0.7-8.3,0.7-10.6,5.6c-2.3,4.8-2.3,4.9-10.2,5.5c-9.3,0.7-10.2,1.2-12.7,7.1
	c-1.9,4.3-2.2,4.5-9.5,5.3c-7.4,0.8-7.8,1-16.1,9.1c-4.7,4.6-8.8,9.3-9.1,10.4c-1.4,4.9-5.4,6.1-16.7,5.2
	c-10.2-0.8-10.6-0.8-12.4,1.9c-1.1,1.7-1.8,5.3-1.8,9.1c0,9-2.1,11.2-11.6,12.4c-7.1,0.9-8.1,1.4-12.4,6.2c-2.6,2.9-5.9,6.1-7.3,7.1
	c-1.4,1-3.4,3.5-4.4,5.6c-2.4,5-3.3,5.5-10.2,5.6c-5.6,0-6.3,0.4-12.4,6.4c-3.6,3.5-12,12.4-18.8,19.7
	c-12.3,13.3-12.3,13.3-12.8,20.9c-0.4,6.3-0.9,8-3.2,9.7c-3.6,2.8-30.2,30.8-36.8,38.8c-5,6.1-5.3,6.8-5.3,13.6
	c0,6.9-0.2,7.3-3.7,9.2c-2,1.1-6.8,5.6-10.7,10c-6.5,7.4-7,8.5-7.1,13.5c0,6.4-1.9,11-5.2,12.8c-5.3,2.9-6,4.3-6,12.3
	c0,8.3-0.4,9.1-7.9,14.3c-3.9,2.7-3.9,2.7-3.6,16.4c0.3,11.6,0,14.1-1.6,16c-1.1,1.3-2.5,2.3-3.3,2.3s-2.5,1-3.8,2.1
	c-3.5,3.1-5.7,20.9-3,25.2c2.6,4.3,5.2,3.7,8.8-1.9c3.8-5.9,6.3-7,13.1-5.8c2.9,0.5,14.5,1,25.9,1c20.7,0.1,20.7,0.1,23.7-3.4
	c1.7-1.9,3.8-4.7,4.7-6.1c2.1-3.2,2.5-3.3,33-1.2c22.3,1.5,50.3,0.6,69.3-2.1c4.7-0.7,5-0.5,10.7,5.9c5.9,6.6,5.9,6.6,22.2,7.4
	c9,0.4,21.9,0.4,28.6,0c12.2-0.7,12.2-0.7,17.6,5.8c5.4,6.6,5.4,6.6,34.9,6.6c28.4,0,29.6,0.1,30.8,2.4c0.7,1.3,2.7,4,4.4,5.8
	c3.2,3.4,3.2,3.4,37.1,3.2s33.9-0.3,39.2,5.9c5.3,6.1,5.3,6.1,22.2,7c10.9,0.5,20.2,0.4,26.3-0.5c12.3-1.8,15.3-1.1,18.3,4.8
	c1.3,2.6,3.7,5.3,5.3,6c1.9,1,11.6,1.3,30.4,1.2c27.5-0.2,27.5-0.2,32.9,6c3.4,4,6.3,6.3,8.1,6.4c12.1,0.7,34,0.5,37.3-0.4
	c2.9-0.7,5.4-2.7,8.3-6.5c4.2-5.4,4.2-5.4,21.6-5.4c19.3,0,17.5,0.7,24.7-9.1c2.7-3.6,2.7-3.6,15.2-3.6s12.6,0,17.5-6.1
	s4.9-6.1,16.3-5.7c12.5,0.3,11.7,0.7,18.9-8.7c1.7-2.3,3.5-3.2,6.2-3.2c7.1,0,12.1-2.3,14.8-6.7c3.3-5.4,7.2-6.8,16.7-5.9
	c9.6,1,13.4-0.6,17.3-7c6.3-10.2,18.9-9.4,25.2,1.7c1.3,2.3,4.4,5.6,6.9,7.4c4.6,3.2,4.5,3,6.3,16c0.3,2.3,2.2,5.2,5.1,7.9
	c3.5,3.3,4.7,5.4,5.1,9.1c0.3,2.7,0.8,6.1,1.1,7.5c0.3,1.5,5.2,7.8,11,14c10.5,11.3,10.5,11.3,11.1,18.9c0.5,7,0.9,8,5.5,13
	c4.9,5.4,8.5,7.6,9.9,6.1c0.4-0.4,0.8-4.1,0.9-8.1c0.1-7.1,0.3-7.4,6-13.1c5.9-5.8,5.9-5.8,5.5-18.2c-0.3-12-0.2-12.5,2.5-14.8
	c7.2-6,7.6-6.6,8.4-13.9c0.8-6.5,1.3-7.7,6.4-12.9c5.5-5.8,5.5-5.8,5.5-18.5c0-12.3,0.1-12.8,3.1-15.8c1.7-1.7,3.5-3.1,3.9-3.1
	c1.5,0,3.3-4.9,4.3-11.9c0.9-6.1,1.6-7.5,6.4-12.1c5.4-5.2,5.4-5.2,5.1-17.9c-0.3-13.7-0.3-13.7,6.9-19.1c2.4-1.8,3-3.5,3.7-9.7
	c0.7-7,1.2-8,6.3-13.3c5.5-5.7,5.5-5.7,5.5-18.1c0-12.4,0-12.4,5.3-17.7c5-5,5.3-5.6,5.9-13.4c0.6-7.9,0.8-8.2,5.5-11.6
	c5.5-4,7.4-8.1,6.5-13.7c-0.8-4.5-2.2-5.3-10-5.3c-6.6,0-7.3-0.4-10.4-5.6c-2.9-5-16-17.4-19-18c-1.3-0.3-4.7-0.8-7.4-1.1
	c-3.5-0.4-5.6-1.4-6.8-3.2c-4.6-7.1-6.5-8.4-12.4-8.4c-5.7,0-5.7,0-16.4-11.6c-10.5-11.4-10.8-11.6-17.4-12.6
	c-6.6-1-6.9-1.3-17.1-12.3c-10.2-11.1-10.5-11.3-16.9-12.1c-6.4-0.8-6.7-1-16.7-12.1c-10.2-11.3-10.2-11.3-17.7-12.1
	c-6.3-0.7-7.9-1.3-9.3-3.7c-4.1-6.8-6.4-8.3-12.7-8.3c-6,0-6,0-14.9-10.4c-9.5-11.1-12.7-13.3-21.3-14.5c-3.7-0.5-6.1-1.6-7.3-3.4
	c-1-1.4-5.7-6.5-10.3-11.3c-8.2-8.4-8.6-8.7-15.2-9.3c-5.3-0.5-7.2-1.3-8.8-3.5c-5.8-8-6.1-8.3-12.1-8.3c-5.8,0-5.8,0-16.8-11.9
	c-10.9-11.8-11-11.9-17.4-12.6c-6.3-0.7-6.5-0.9-17.1-12.3c-10.7-11.6-10.7-11.6-16.5-11.6c-5.8,0-5.8,0-16.2-11.5
	c-10.5-11.5-11.5-12.1-20.9-13.3c-3-0.4-5.6-1.5-6.6-2.8c-0.8-1.2-2.4-3.5-3.5-5c-1.5-2.2-3.5-3-8.7-3.7c-6.6-0.8-6.9-1-17.3-12
	c-10.5-11.1-14.4-13.6-21.6-13.6c-3.5,0-4.5-0.8-7.7-5.8c-1.4-2.2-3-3.9-3.6-3.9C1288.9,1960.6,1282.5,1967.1,1275.2,1975.1
	 M2462.7,2068.2c-0.7,0.2-4.2,4.1-7.9,8.5c-6.2,7.6-6.7,8.6-7.2,15.4c-0.5,6.7-0.9,7.5-4.5,10c-7.6,5.3-7.1,2.1-6.5,42.9
	c0.3,20.5,0.1,38.1-0.4,39c-0.5,0.9-2.9,2.7-5.5,3.9c-2.7,1.3-4.8,3.3-5.1,4.8c-0.3,1.4-0.7,13.9-0.8,27.8
	c-0.3,25.1-0.3,25.3-3,27.6c-2.7,2.3-5.7,2.4-150.5,2.2c-147.8-0.1-147.8-0.1-149.9,2.6c-1.6,2.1-1.9,4-1.5,7.7
	c0.3,2.7,0.7,37.9,0.9,78.3c0.2,69.4,0.1,73.6-1.8,76.8c-2.4,4-5.8,5.2-14.1,5c-5.3-0.1-6.5-0.6-8.8-3.6c-7.5-9.9-5.7-9.1-18.9-8.7
	c-12,0.4-12,0.4-14.6-3.3c-6.4-8.7-7-9.1-12.8-9.1c-7.3,0-8.6-0.6-11.6-5.7c-3.5-6.1-8.2-7.9-16.4-6.3c-9.3,1.8-14,0.1-18.4-6.8
	c-4-6.2-7.3-7.3-16.6-5.7c-8,1.4-12.5,0.5-14.8-3c-5.3-8.1-5.3-8.1-13.3-9c-6.1-0.7-8.1-1.4-9.5-3.5c-6.4-9.9-5.1-9.4-23-8.4
	c-7.4,0.4-7.8,0.3-10.5-3.2c-7.9-10.3-6.3-9.5-17.1-8.8c-11.5,0.8-16.1-0.7-18.8-6.3c-2.3-4.7-4.9-6.2-11.2-6.2
	c-6.8,0-8.2-0.7-11-5.7c-3.6-6.2-8.5-8.1-16.7-6.3c-8.8,1.9-13.8,0.1-17.7-6.2c-3.7-6.1-7.7-7.5-15.9-5.9
	c-9.5,1.9-13.2,0.7-17.2-5.5c-3.8-5.9-5.2-6.8-11.1-6.8c-6.9,0-9.2-1.3-11.5-6.2c-1.3-2.7-3-4.7-4.2-4.7c-1.1,0-4.6,2.7-7.7,6
	c-5.7,5.8-5.8,6.1-6.3,14.1c-0.4,7.3-0.8,8.4-3.8,10.9c-9,7.6-8.5,6.5-7.7,20.2c0.8,13.5,0.4,14.7-6.6,18.4
	c-3.6,1.9-5.3,6.4-5.4,13.8c0,6-0.3,6.6-3.6,8.5c-7.8,4.5-8,5.1-7.1,19.5c0.8,13,0.8,13-2.8,16c-8.8,7.2-9.1,7.7-9.1,16.2
	c0,7.9,0,7.9-4.5,10.4c-6.4,3.5-7,5.4-6.1,18.8c0.8,12.8,0.1,14.7-6.3,17.6c-4,1.8-4.8,3.5-5.6,13.3c-0.6,7.3-0.9,8-4.6,10.6
	c-7.3,5.1-7.1,4.5-6.2,17.4c0.4,6.5,0.4,13,0,14.4c-0.4,1.4-2.8,3.7-5.2,5c-5.1,2.8-7.1,7-6.3,13.3c0.8,6.1-0.4,8.5-6.1,11.4
	c-4.9,2.5-5,2.7-4.8,8c0.4,10.3-0.5,13.1-5.3,15.8c-5.6,3.1-5.8,3.5-6.2,12.2c-0.3,7.2-2.6,12.1-5.7,12.1c-2.9,0-5.2,4.7-5.6,11.2
	c-0.5,9.3-1.2,10.9-6,13.7c-3.9,2.2-4.3,3-5.5,10.3c-1.1,6.8-1.9,8.4-5.5,11.7c-5.4,4.9-4.7,7.3,2.5,8.4c7.6,1.1,10,2.3,12.3,6.5
	c2.4,4.4,5,5.8,12.1,6.8c4.2,0.6,6.1,1.6,8.5,4.6c11.1,14.1,19.5,20.2,27.8,20.2c2.5,0,4.5,1.4,7.9,5.3c4.1,4.8,5.2,5.4,11.3,6.1
	c6.1,0.8,7.2,1.3,11.4,6.2c3.4,4,5.5,5.4,7.9,5.4c6.4,0,11.6,2.4,14.3,6.5c2.9,4.5,13.7,15.4,17.4,17.5c1.4,0.8,4.6,1.4,7.3,1.4
	c4.2,0,5.4,0.6,9.4,5.3c4,4.7,5.3,5.4,11,6.1c5.7,0.8,6.8,1.4,10,5.6c4.5,6.1,7,6.1,10.7-0.1c2.6-4.5,3.2-4.9,7.8-4.9
	c7.5,0,9.6-1.3,20.9-13.3c9.3-9.8,10.9-11,14.5-11c5.6,0,10.2-3.3,20.7-14.8c8.5-9.3,9.2-9.8,15.3-10.7c5.6-0.8,6.8-1.5,10.6-6.2
	c4.2-5.3,4.2-5.3,16.1-5.8c13.5-0.5,17.2,0.6,20.2,5.9c3.7,6.7,7.2,7.7,24.6,6.7c17.3-0.9,14.8-1.8,23.4,8.7c2,2.5,3.2,2.7,13.7,2.7
	c11.5,0,11.5,0,16.3,5.6c4.5,5.2,5.3,5.6,12.5,6.6c6.1,0.8,8,1.6,9.4,3.8c4.2,6.7,5.2,7.5,12.5,8.5c6.6,0.9,7.6,1.5,11.3,6
	c3.7,4.6,4.6,5,11.8,6c7.9,1.1,7.9,1.1,12.9,8.5c1.2,1.9,3.7,2.8,9,3.6c6.7,1,7.7,1.6,12,6.6c4.4,5.2,5.1,5.5,10.5,5.5
	c7.1,0,9.3,1.1,12.2,6.6c1.8,3.3,3.3,4.4,6.6,5c2.4,0.4,5.8,1.1,7.5,1.4c2.1,0.4,6.5,4.3,13,11.5c9.6,10.7,9.8,10.8,17.6,12.6
	c6.3,1.4,8.3,2.4,10.1,5.1c2.3,3.5,19.7,21.8,26.4,27.8c3,2.7,5.2,3.5,10.5,3.9c6.3,0.5,6.8,0.8,9.4,5.2c2.8,4.7,3.7,5.2,12.9,6.5
	c4.1,0.6,5.9,1.7,9.7,6.1c4.7,5.4,4.7,5.4,16.7,5.4c13.1,0,12.1-0.4,18.4,8.3c1.5,2.1,3.5,3,7.6,3.4c8,0.8,10.9,2.3,13.9,7.1
	c3.4,5.3,5.1,5.9,18.6,6c10.6,0.1,11.2,0.2,13,3.1c4.9,8,6.4,8.8,15.7,8.2c11.4-0.8,14.5,0.3,20.2,7.2c4.7,5.8,4.7,5.8,15.7,5.5
	c6-0.2,11.9,0,13,0.4c1.1,0.4,3.1,2.6,4.4,4.9c3.5,6.2,6,7.1,18.3,7.2c11,0,11,0,15.6,5.2c4.6,5.2,5.6,5.7,14,6.9
	c3.7,0.5,5.6,1.9,10.1,7.3c10.3,12.2,15.5,16.1,22.4,17c5.6,0.7,6.6,1.4,10,6c2.1,2.9,6.8,7.8,10.5,11.1c5.7,5,7.7,6,13.5,6.9
	c6.8,1,7.2,1.3,11.9,8.3c1.2,1.9,3.6,2.8,9,3.6c6.6,1,7.7,1.6,11.5,6.1c3.9,4.6,4.8,5.1,11.8,6.1c6.1,0.8,8,1.6,9.3,3.8
	c4.2,6.8,5.2,7.5,12.5,8.4c6.7,0.8,7.5,1.3,11.4,6.1c3.9,4.9,4.6,5.2,11.8,6c7.8,0.9,7.7,0.8,12.8,8.4c1.2,1.9,3.6,2.8,9,3.6
	c6.3,0.9,7.8,1.7,10.7,5.2c4.5,5.5,7.3,6.9,13.5,6.9c5.3,0,7.4,1.5,11.9,8.4c1.3,2,3.5,2.9,9,3.7c6.5,1,7.8,1.6,11.5,6
	c4.3,5,5.6,5.6,14.5,6.6c3.6,0.4,5.6,1.4,7,3.4c4.1,5.9,5.4,6.8,12.3,8.1c6.5,1.2,7.6,1.9,11.9,7.1c4.7,5.7,4.7,5.7,17.3,5.8
	c12.2,0.1,12.8,0.2,14.5,3c4.3,7,5.3,7.7,12.6,8.8c6.4,0.9,7.8,1.7,12.3,6.4c4.6,4.7,5.8,5.4,11.9,6c6.8,0.7,6.9,0.8,11.8,8.1
	c1.2,1.9,3.7,2.8,9,3.6c6.5,1,7.8,1.7,11.6,6c4.4,5,5.5,5.5,14.3,6.6c3.6,0.4,5.6,1.4,6.8,3.3c4,6.5,5.1,7.2,12.4,8.3
	c6.3,0.9,7.8,1.7,11,5.3c4.6,5.3,7.1,6.8,11.8,6.8c6.2,0,8.7,1.3,11.1,5.4c2.5,4.4,5.9,6.2,13.5,7.1c4.2,0.5,5.8,1.5,9.4,5.8
	c4,4.9,4.8,5.2,11.8,6c6.1,0.7,7.8,1.4,9.2,3.6c3.9,6.3,5.2,7.3,10.2,8c7.6,0.9,10.9,2.7,14.3,7.5c1.7,2.4,6.7,8,11,12.3
	c4.3,4.3,9.6,9.7,11.8,11.9c3.9,4,4.9,4.4,13.1,5.6c3,0.4,5.1,1.6,6.2,3.4c2.8,4.7,23.7,27.3,33.3,36.1c8.6,7.8,9.5,8.3,15.8,8.9
	c4.8,0.5,7,1.3,7.8,2.8c2.1,3.9,24,28.9,32.3,36.9c7.8,7.5,8.5,7.9,15.6,8.7c6,0.7,7.7,1.4,9.1,3.6c4,6.5,5.1,7.3,12,8.3
	c6.9,1,6.9,1,26.3,22.1c10.7,11.6,19.8,21.9,20.3,22.9c0.5,1,1.3,4.4,1.7,7.5c0.7,5.1,1.9,6.8,12.8,18.6
	c6.6,7.1,13.2,13.5,14.7,14.1c4.5,1.8,10-0.9,12.5-6.2c1.2-2.5,3-4.9,4-5.4c1-0.4,6.9-0.8,13.1-0.8c10.9,0,11.4-0.1,14.3-3.4
	c1.7-1.9,3.6-4.5,4.3-5.8c1.2-2.2,2.3-2.4,17.7-2c13.6,0.3,17.1,0,20.4-1.6c2.2-1.1,4.3-3,4.6-4.2c0.3-1.2,1.7-3.2,3-4.4
	c2.1-2.1,4.1-2.2,23.9-1.9c13,0.2,22.8-0.1,24.6-0.9c1.7-0.7,4.2-3.5,5.6-6.2c1.4-2.7,3.6-5.2,4.9-5.6c1.3-0.4,6.6-0.1,11.8,0.6
	c10.9,1.5,226.1,1.7,246.7,0.2c12.8-0.9,12.8-0.9,18.2-7.2c5.4-6.3,5.4-6.3,16.9-6c11.5,0.3,11.5,0.3,18.7-7.6
	c6.5-7.2,7.3-8.6,8-14.5c0.6-4.6,1.6-7.2,3.5-9c11.3-10.6,104.5-110.2,120.6-128.9c11.7-13.6,11.7-13.6,11.7-35.8
	c0-26.9-0.1-27.1-10.3-27.9c-7.2-0.6-7.1-0.5-12.3-8.3c-1.3-2-3.4-2.8-9.5-3.5c-6.3-0.7-8.1-1.4-9.6-3.6c-4.7-7.3-6.6-8.6-12.5-8.6
	c-7.1,0-9.2-1.2-12.2-6.5c-2.1-3.8-2.9-4.3-8.9-5c-9.6-1.2-10.3-1.5-13.4-6.7c-1.5-2.6-4.8-5.8-7.3-7.2c-7.8-4.3-8.9-12.6-2.2-16.4
	c4.3-2.4,6.5-6,7.4-12.4c0.7-4.6,2.4-6.9,15.1-20.7c14.1-15.3,14.5-15.6,20.3-16.3c4.9-0.6,6.8-1.7,11.2-6c2.9-2.9,6.3-6.1,7.5-7.2
	c1.2-1.1,3.5-3.9,5.2-6.2c2.7-3.8,3.7-4.3,10.1-5c7.1-0.8,7.1-0.8,23.2-18.4c15.5-16.9,16.3-17.6,20.7-17.6c2.5,0,5.7-0.6,7-1.4
	c3.4-1.9,21.7-20,32.8-32.4c5-5.6,10.3-11.3,11.7-12.7c1.4-1.4,4.4-5.2,6.5-8.3c3.6-5.4,4.2-5.8,8.9-5.8c2.8,0,6.3-0.5,7.8-1.2
	c2.9-1.2,36.3-36.4,41.3-43.5c2.3-3.2,3.8-4.1,7.9-4.6c5.8-0.7,11.3-2.7,11.3-4.1c0-0.5,1.3-2.7,2.9-4.7c2.9-3.7,2.9-3.7,16.4-3.7
	c14.7,0,13.5-0.5,19.8,8.2c1.5,2.1,3.8,3,9.3,3.9c6.6,1,7.7,1.6,11.4,6.1c3.8,4.7,4.6,5.1,11.8,6.1c6.3,0.8,8.1,1.6,9.5,3.8
	c3.1,5.1,5.5,6.9,9.8,7.7c2.4,0.4,5.5,1,6.9,1.3c1.4,0.3,6.5,4.9,11.2,10.3c10.6,12,14.2,14.5,21,14.5c3.7,0,5.7,0.7,7,2.3
	c8.6,10.9,6.8,10.3,25.4,9.4c18.8-0.9,16.9-1.5,24.1,8.3c2.7,3.6,2.7,3.6,22.1,4c10.7,0.2,20.7,0.1,22.2-0.3
	c1.5-0.4,7.4-5.8,13.2-12c9.9-10.7,10.8-11.3,16.4-12.1c5.1-0.7,6.8-1.7,12.1-7.1c9-9.2,9.3-10.2,9.3-30c0-16.9,0-17.1,3-20.1
	c1.6-1.6,3.4-3,3.9-3c0.5,0,1.8-1.8,2.8-3.9c1.6-3.4,1.9-8.4,2-34.1c0.1-30.1,0.1-30.1,3.5-33.1c1.9-1.6,3.7-2.9,4-2.9
	c1.9,0,3.3-7.4,3.3-17.7c0-12.1,0.4-13.2,6.6-17.5c1.9-1.4,3.1-4.2,4.7-11.5c2.3-10.5,4-12.8,9.5-12.8c6.6,0,11.2-2.2,13.9-6.7
	c3.5-5.9,6-6.6,17.8-5.2c9.6,1.2,42.2,0.6,53.8-1c4.8-0.6,5.6-0.4,7.9,2.6c6.2,8.1,7.1,8.7,13.8,9.5c6.6,0.8,6.7,0.9,16.1,11.7
	c9.7,11.2,13.1,13.3,21.3,13.3c2.9,0,4.4,1,7.3,5c2,2.7,4.8,5.5,6.2,6c1.4,0.6,11.4,1.1,22.2,1.2c19.7,0.2,19.7,0.2,30.4-10.4
	c5.9-5.8,14.3-14.9,18.8-20.2c7.7-9.1,8.1-10,8.9-17c0.6-5.8,1.4-7.9,3.4-9.3c5.6-4.1,52.2-54.4,54.9-59.2c2.8-5,3-5.2,8.9-5.2
	c5.2,0,6.7-0.6,10.3-3.9c7.9-7.2,15.2-14.9,19.6-20.8c3.6-4.9,4.4-6.8,4.4-11.3c0-4.4,0.6-5.9,3-8.1c1.7-1.5,7.4-7.5,12.7-13.5
	c5.3-6,13.9-15.2,19-20.5c5.1-5.3,9.2-10.3,8.9-11c-0.2-0.7-3.6-1.6-7.5-2.1c-6.5-0.7-7.5-1.2-11.4-5.7c-4.3-5.1-5.7-5.7-14.6-6.7
	c-5-0.6-5.5-1-10.3-8.2c-1.4-2.1-3.4-2.9-9.6-3.6c-6.2-0.7-8.1-1.4-9.5-3.6c-4.6-7.3-6.5-8.5-12.7-8.5c-6.5,0-8.7-1.2-11.1-6.1
	c-2.1-4.4-15-16.7-18.1-17.4c-1.4-0.3-4.5-0.9-6.8-1.3c-3.6-0.6-6.7-3.4-20.4-18.3c-16.2-17.5-16.2-17.5-22.1-17.5
	c-5.9,0-5.9,0-16.7-11.8c-10.7-11.6-10.9-11.8-17.4-12.6c-6.5-0.8-6.7-1-16.9-12.1c-10.3-11.3-10.3-11.3-17.8-12.1
	c-6.1-0.7-7.8-1.4-9.2-3.7c-4.1-6.7-5.4-7.5-16.1-9c-4.7-0.7-5.7-1.3-8.1-5.4c-3.1-5.4-5.6-6.5-12.9-6c-14.5,1-16.1,0.7-18.6-3
	c-5.4-8.1-6.9-9.1-13.6-9.1c-6.6,0-7.1-0.3-13.5-9.1c-2.6-3.6-2.6-3.6-24.7-3.5c-24.3,0.1-24.2,0-27.9,7.9c-1.2,2.5-2.8,4.7-3.6,4.7
	c-0.8,0-42.7,0.1-93.3,0.1c-91.9,0-91.9,0-94.2-3.1c-7.8-10.8-5.2-9.8-24.1-9.4c-18.4,0.4-20.5-0.1-23.2-5.7
	c-1.9-4-5.6-5.8-13.6-6.6c-4.1-0.4-6.1-1.3-7.3-3.3c-4.4-6.8-6.6-8.5-11.5-8.5c-7.4,0-9.7-1.1-12.3-5.7c-3.8-6.6-7.5-7.7-22.4-6.4
	c-14.9,1.3-18.7,0.7-21.2-3.3c-6.4-9.9-1.9-9-45.6-9.2c-39.1-0.2-39.1-0.2-81.2,45.4c-23.1,25-43.4,47.3-45.1,49.5
	c-3,3.9-3.3,4-10.1,3.5c-6.1-0.5-7.3-1-9.3-4c-5.4-8-5.5-8.1-13.6-9.1c-6.2-0.8-8.2-1.6-9.6-3.7c-4.7-7.3-6.4-8.4-13-8.4
	c-6.6,0-7.1-0.3-13.8-9c-2.5-3.2-2.7-3.2-14.5-2.9c-11.9,0.4-12,0.3-14.4-3c-8-11-4-9.8-34.3-9.7c-14.9,0.1-28.1,0.4-29.3,0.8
	c-1.2,0.4-3.2,3.1-4.3,5.9c-2.2,5.1-2.2,5.1-10.2,5.7c-7.8,0.6-11.7,2.4-11.7,5.4c0,0.8-1.3,3-2.8,4.8c-2.8,3.3-2.8,3.3-20.3,2.4
	c-19.3-0.9-20-0.7-22.8,6.5c-2.1,5.4-5.8,6.7-16.7,5.8c-5-0.4-17.3-0.8-27.3-1c-20.2-0.3-20-0.4-23.7,7.6c-1.9,4.2-1.9,4.2-33.8,4.5
	c-31.8,0.3-31.8,0.3-34.9-4.6c-3.7-6-7.7-8.4-14.2-8.4c-2.7,0-6-0.9-7.4-1.9c-2.3-1.7-2.5-2.9-2.6-14.3c-0.1-14.2-1.2-17.8-6.7-21.8
	c-6.1-4.4-7-7.2-6.2-19.4c0.8-11.7,1.3-10.5-8.8-19.7c-2.1-2-2.2-3-1.5-15.2c0.5-7.7,0.2-18.4-0.5-26c-1.1-11.3-1.1-13.2,0.5-15.9
	c1-1.6,2.6-3,3.5-3c3.4,0,7.3-5.7,7.3-10.8c0-8.3-4-10.6-17.2-9.5c-8.5,0.7-9.4,1.2-13.5,9.3c-1.8,3.6-2.3,3.8-8.7,3.8
	c-6.6,0-7,0.2-13.9,6.7c-3.9,3.7-8.7,9-10.6,11.8c-3.3,4.9-3.8,5.2-10.2,5.7c-6.3,0.6-7.2,1.1-14.3,7.9c-4.2,4-8.7,9.1-9.9,11.2
	c-3.4,5.8-5.4,6.5-18.1,6.1c-11.5-0.3-11.5-0.3-14,3.9c-4.7,7.9-5.6,8.5-12.4,8.5c-6,0-6.6-0.3-10.4-4.9
	c-2.2-2.7-14.6-16.4-27.4-30.4c-23.4-25.6-23.4-25.6-31.6-26.7c-8.3-1.1-8.4-1.2-13.3-8.6c-1.4-2.1-3.4-2.9-9.5-3.6
	c-6.3-0.7-8.1-1.4-9.8-3.7c-6.8-9.4-2.6-8.6-41-8.1c-34.5,0.4-34.5,0.4-37.1-3.2c-6.3-8.7-6.9-9.1-12.9-9.1c-5.7,0-5.7,0-20.6-16.1
	c-14.9-16.1-14.9-16.1-15.6-23.3c-0.7-6.5-1.3-7.7-6-12.3c-3.8-3.8-5.2-6-5.2-8.6c0-6.6-2-11-8-17.5c-5.8-6.2-6.4-6.6-13.3-7.3
	c-7.5-0.8-7.5-0.9-12.8-8.9c-1.8-2.7-2.8-3.1-8.8-3.1c-6.2,0-7.1-0.3-10.1-3.9c-1.8-2.1-3.3-4.3-3.3-4.8s-1.4-1.7-3.1-2.6
	c-2.3-1.2-8.2-1.6-23.7-1.4c-22.2,0.3-22.7,0.4-25.9,7.1c-2.4,5.1-3.3,5.5-11.1,5.5c-7.4,0-10.6,2.2-12.3,8.3
	c-1.2,4.3-5.5,5.4-17.2,4.4c-11.6-0.9-12.9-0.4-15.5,6.3c-2.2,5.7-5.9,6.9-16.8,5.5c-11.2-1.5-14.4-0.4-17.1,5.8
	c-2.7,6.4-6.3,7.9-16.1,6.6c-12.6-1.7-15-0.8-17.8,6.4c-2.2,5.7-5.9,6.9-16.5,5.4c-11.3-1.6-14.6-0.4-17.4,6.1
	c-1.1,2.7-3.1,5.3-4.4,5.9c-1.3,0.5-14.9,0.7-30.2,0.3c-25.8-0.6-28.1-0.5-30.2,1.5c-1.2,1.2-2.2,2.8-2.2,3.6c0,0.8-1,2.6-2.3,4.1
	c-1.8,2.1-3.6,2.7-8.5,2.7c-7.7,0-10,1.3-12.8,7.2c-1.3,2.8-3.2,4.9-4.8,5.3c-4.1,0.9-47.6,0.3-49.2-0.8c-0.8-0.5-2.4-3-3.6-5.6
	c-1.2-2.6-4.5-6.4-7.2-8.4c-5.4-4-6.3-5.7-6.3-11.2c0-6.4-2.9-11.2-12.3-20.8c-9.3-9.4-11.4-13.2-11.4-20.7c0-3.2-1-4.6-8-11
	c-1.5-1.4-2.1-3.6-2.1-7.9c0-5.3-0.6-6.7-5.9-13.9c-3.3-4.4-8.1-9.6-10.7-11.7c-4.7-3.7-5.3-4.8-6.4-13.8c-0.8-6.4-2.4-8.1-7.9-8.1
	c-7.2,0-9.3-1.1-12.6-6.1c-1.6-2.6-3.8-5-4.9-5.5C2504.6,2068.2,2465,2067.4,2462.7,2068.2 M873.9,2456.7c-2.7,0.5-6.1,3.7-6.1,5.7
	c0,0.8-0.9,2.7-2.1,4.3c-2.1,2.7-2.2,2.8-27.9,2.3c-35.5-0.6-34.4-0.7-36.9,2.7c-1.1,1.6-3.7,4.8-5.7,7.3c-4.1,5.1-5,7.9-5.2,15.8
	c-0.1,5.4-0.4,5.9-4.4,8.1c-7,3.8-7.3,4.7-6.4,17.5c0.4,6.3,0.4,12.6,0,14c-0.4,1.4-2.6,3.6-4.9,4.7c-5.1,2.6-7,6.4-7,14.4
	c0,9.4-2.2,11.5-11.7,11.9c-8.9,0.3-9.7,1.1-9.7,10c0,6.4-3,12.6-6.1,12.6c-3.2,0-5.4,4.6-5.7,12.2c-0.3,7.9-0.2,7.7-7.9,13.6
	c-2.4,1.9-2.9,3.1-2.9,8.5c0,9.1-0.9,11.4-5.1,13.5c-5.5,2.8-7.3,6.2-7.3,14.2c0,6.3-0.3,7.2-3.4,9.6c-1.9,1.4-14.3,14.3-27.6,28.5
	c-23.4,25.1-24.2,26.1-24.2,30.7c0,7-1.7,10.8-6.2,13.6c-5.2,3.3-5.3,7-0.1,11.3c3.2,2.7,4.1,4.4,5.2,10.5
	c1.8,10.1,3,11.1,12.8,10.8c13.2-0.5,12.5-0.8,23,11.1c10.5,12,14.2,14.4,22.1,14.4c4.7,0,5.3,0.4,8.2,5.2c3,4.8,3.6,5.2,9.1,5.5
	c4.9,0.3,6.2-0.1,7.9-2.4c7.3-9.9,6.6-9.6,23.1-8.6c17.1,1,57.1,1.2,76.9,0.3c13.4-0.6,13.4-0.6,16.9,3.8c4.4,5.5,7.4,7.2,12.4,7.2
	c4.1,0,9.7,2.1,9.7,3.7c0,0.5,1.5,2.6,3.3,4.7c3.2,3.7,3.4,3.8,14.8,3.8c11.5,0,11.5,0,17.4,6.5c5.8,6.5,5.8,6.5,22.7,7.5
	c11.3,0.6,20.4,0.4,27.8-0.5c12.4-1.6,14.4-1.1,17.3,4.9c2.9,6.1,7.6,7.4,25,6.9c15.2-0.4,15.2-0.4,20.1,5.7
	c4.9,6.1,4.9,6.1,23.1,6.1c17.8,0,18.3,0.1,20.1,2.8c6.6,10,4.8,9.3,24.3,9.3c17.6,0,17.6,0,22.5,5.8c4.9,5.8,4.9,5.8,16.9,5.8
	c10,0,12.2,0.3,13.7,2.1c0.9,1.2,3.2,4,5,6.4c3.3,4.2,3.3,4.2,20.9,4.2c17.7,0,17.7,0,21.5,4.5c4.6,5.5,7.3,7,11.6,7
	c5.4,0,9.8,2.3,11.9,6.1c2,3.6,5.3,5.1,14.5,6.7c2.8,0.5,5.2,2,7.5,4.8c4.4,5.4,7,6.8,12.7,6.8c4.2,0,5.3,0.6,9.7,5.7
	c4.5,5.2,5.5,5.8,11.9,6.7c6.1,0.9,7.6,1.7,11.8,6.1c4.2,4.4,5.6,5.2,11.9,6c7.1,1,7.5,1.3,12.2,8.3c1.2,1.9,3.6,2.8,9,3.6
	c6.8,1,7.6,1.5,12,6.9c4.7,5.8,4.7,5.8,18,6.6c7.3,0.5,20.2,0.6,28.6,0.2c14.9-0.7,15.3-0.6,18.4,2.2c2.3,2.1,3.3,4.4,3.7,8.4
	c0.9,8.2,2.5,11.7,6.7,14.8c3.8,2.8,4.2,3.6,5.5,12c1,6.8,2.8,8.4,10.1,9.5c6.7,1,6.9,1.2,11.9,8.6c1.2,1.9,3.6,2.8,9,3.6
	c6.9,1,7.6,1.5,12,6.9c4.7,5.8,4.7,5.8,14.7,6.6c5.5,0.4,18.1,0.9,28,0.9c20.5,0.1,29.3-1.5,32.1-6.1c4.9-7.9,4.5-7.7,18.2-7.9
	c11.9-0.1,12.8-0.3,14.5-2.9c5.2-8.1,7.5-9.7,14.2-9.7c5.5,0,6.7-0.4,8.8-3.2c5.4-7,6.1-7.4,12.9-8.2c6.7-0.8,6.9-0.9,17.6-12.3
	c7.3-7.7,11.7-11.5,13.4-11.5c6,0,10.7-2.6,17-9.5c5.9-6.4,6.6-7.8,7.4-13.7c0.8-6.3,1.3-7.1,10.5-16.9c10.9-11.6,12.2-13.8,12.2-20
	c0-4.7,3.5-9,25-30.3c11.6-11.5,30-33.9,30.7-37.3c0.3-1.5,0.8-5.2,1.1-8.2c0.4-3.8,1.3-6,3-7.3c6.5-4.8,7.8-7,7.9-13
	c0-6.4,0.4-7.2,4.6-10.7c3.4-2.8,14.8-17.1,16.7-20.9c0.7-1.4,1.3-4.5,1.3-6.9c0-3.4,0.9-5.2,4.7-9.1c6.2-6.4,5.4-8.6-3-8.6
	c-6.5,0-8.3-1.1-13-8.6c-1.4-2.1-3.3-3-8.7-3.6c-6.9-0.9-6.9-0.9-17.2-12.2c-10.3-11.3-10.3-11.3-17.2-12.2
	c-6.4-0.8-7.3-1.3-11.1-6.1c-3.9-4.9-4.6-5.2-11.8-6c-6.3-0.7-7.9-1.4-9.4-3.7c-4-6.7-6.5-8.3-12.4-8.3c-5.7,0-5.7,0-16.4-11.8
	c-10.7-11.8-10.7-11.8-18.2-12.6c-6.1-0.7-7.9-1.4-9.3-3.6c-4.1-6.7-5.1-7.4-12.3-8.3c-6.6-0.8-7.5-1.3-11.8-6.4
	c-2.6-3-6.3-6.4-8.3-7.5c-7.6-4.2-7.9-10.3-0.9-15.6c5.1-3.9,7.3-8.5,7.3-15.4c0-1.9,2-4.9,5.6-8.7c4.7-4.9,5.7-6.7,6.3-11.7
	c1.2-9.9,1.5-10.8,4.6-12.6c3.8-2.2,5.3-5.2,6.3-13.3c0.7-5.2,1.5-7.3,4-9.4c1.7-1.5,3.8-3.3,4.5-4c1.7-1.5,0.8-4.4-3.2-9.3
	c-1.7-2.2-3.7-6.3-4.4-9.1c-2.2-8.9-3.2-10.6-7.3-13.2c-2.2-1.4-4-3.4-4.1-4.5c-0.1-1.1-0.3-3.9-0.4-6.2c-0.5-8-1.5-9.5-19.5-27.7
	c-2.8-2.9-3.7-4.7-3.7-8.1c0-6.3-2.6-12.2-6.7-14.7c-3.5-2.3-5.7-7.5-5.7-13.9c0-5.3-3-8.5-7.9-8.5c-4.9,0-7.4,2.1-9.8,8.2
	c-2.3,6-5.5,7-16.5,5.5c-11.2-1.6-13.9-0.6-17.2,6.4c-2.3,4.8-2.4,4.8-10.2,5.4c-9.2,0.7-10.3,1.4-12.5,6.9c-2.3,5.9-5.8,7-16.6,5.5
	c-11.2-1.5-14.4-0.5-17,5.7c-2.8,6.6-5.7,7.7-18.6,6.7c-11.9-0.9-12-0.9-15.7,7c-2.4,5.2-5.3,5.8-22.2,4.6
	c-17.2-1.2-19.9-0.5-22.4,6.2c-1,2.8-2.8,5.2-4.3,5.8c-4.1,1.5-47.4,0.8-50.2-0.9c-1.4-0.8-3.2-2.9-4.1-4.8c-3.3-6.9-3-6.8-34-6.4
	c-28.6,0.4-28.6,0.4-31.2-2.5c-1.4-1.6-3.3-4.1-4.3-5.6c-2.5-4.2-7.3-4.7-33.1-3.8c-13,0.5-24.9,0.5-26.5,0c-1.7-0.5-4.3-3-6.1-5.8
	c-1.7-2.7-4.5-5.4-6.2-6c-1.7-0.6-16.8-0.8-33.5-0.4c-16.7,0.4-31.6,0.5-33.1,0.2c-1.5-0.3-4.1-2.7-6-5.5c-1.8-2.7-4.5-5.6-5.8-6.4
	c-1.8-1-9.7-1.1-28.2-0.4c-15.1,0.6-26.9,0.5-28.4-0.1c-1.5-0.6-3.9-3.3-5.5-5.9c-1.5-2.6-3.5-5.2-4.3-5.8
	c-0.8-0.5-14.5-0.8-30.4-0.6c-29,0.4-29,0.4-32.6-5.2c-2-3.1-4.6-5.9-5.9-6.3C969.9,2456.5,877.8,2455.9,873.9,2456.7"/>
<ellipse class="st2" cx="223.2" cy="3871.4" rx="117.2" ry="116.5"/>
<ellipse class="st3" cx="223.2" cy="4197" rx="117.2" ry="116.5"/>
<ellipse class="st4" cx="223.2" cy="4522.5" rx="117.2" ry="116.5"/>
<text transform="matrix(1.0058 0 0 1 415.2823 3893.7649)" class="st5 st6 st7">MULTI-PURPOSE BUILDINGS</text>
<text transform="matrix(1.0058 0 0 1 422.6148 4235.1938)" class="st8 st6 st7">ROADS</text>
<text transform="matrix(1.0058 0 0 1 432.6021 4560.7798)" class="st9 st6 st7">BRIDGES</text>
<text transform="matrix(1.0058 0 0 1 106.0181 3613.0754)" class="st10 st6 st11">PROJECT EXISTENCE INDICATOR</text>
<text transform="matrix(1 0 0 1 116.4482 326.6978)" class="st6 st12">Tagoloan</text>
</svg>
